<?xml version="1.0" encoding="UTF-8" standalone="no"?>
<!DOCTYPE svg PUBLIC "-//W3C//DTD SVG 1.1//EN"
 "http://www.w3.org/Graphics/SVG/1.1/DTD/svg11.dtd">
<!-- Generated by graphviz version 2.43.0 (0)
 -->
<!-- Title: packages Pages: 1 -->
<svg width="720pt" height="637pt"
 viewBox="0.00 0.00 720.00 636.81" xmlns="http://www.w3.org/2000/svg" xmlns:xlink="http://www.w3.org/1999/xlink">
<g id="graph0" class="graph" transform="scale(0.1389199743769825 0.1389199743769825) rotate(0) translate(4 4580)">
<title>packages</title>
<polygon fill="white" stroke="transparent" points="-4,4 -4,-4580 5178.84,-4580 5178.84,4 -4,4"/>
<g id="clust1" class="cluster">
<title>cluster modules/dart/at_libraries/packages</title>
<polygon fill="none" stroke="#5d6fbf" points="1508.84,-53.52 1508.84,-3539.04 1929.84,-3539.04 1929.84,-53.52 1508.84,-53.52"/>
<text text-anchor="middle" x="1719.34" y="-3523.84" font-family="Times,serif" font-size="14.00">modules/dart/at_libraries/packages</text>
</g>
<g id="clust2" class="cluster">
<title>cluster modules/dart/at_widgets/packages</title>
<polygon fill="none" stroke="#b80dd6" points="3590.84,-2535.53 3590.84,-4522.48 4774.84,-4522.48 4774.84,-2535.53 3590.84,-2535.53"/>
<text text-anchor="middle" x="4182.84" y="-4507.28" font-family="Times,serif" font-size="14.00">modules/dart/at_widgets/packages</text>
</g>
<g id="clust3" class="cluster">
<title>cluster modules/dart/at_tools/packages</title>
<polygon fill="none" stroke="#a24674" points="2117.84,-2535.53 2117.84,-3539.04 2796.84,-3539.04 2796.84,-2535.53 2117.84,-2535.53"/>
<text text-anchor="middle" x="2457.34" y="-3523.84" font-family="Times,serif" font-size="14.00">modules/dart/at_tools/packages</text>
</g>
<g id="clust4" class="cluster">
<title>cluster modules/dart/at_client_sdk/packages</title>
<polygon fill="none" stroke="#0ace14" points="3008.84,-1980.26 3008.84,-3037.29 3286.84,-3037.29 3286.84,-1980.26 3008.84,-1980.26"/>
<text text-anchor="middle" x="3147.84" y="-3022.09" font-family="Times,serif" font-size="14.00">modules/dart/at_client_sdk/packages</text>
</g>
<g id="clust5" class="cluster">
<title>cluster modules/dart/at_services/packages</title>
<polygon fill="none" stroke="#d8a73c" points="214.84,-1980.26 214.84,-3539.04 699.84,-3539.04 699.84,-1980.26 214.84,-1980.26"/>
<text text-anchor="middle" x="457.34" y="-3523.84" font-family="Times,serif" font-size="14.00">modules/dart/at_services/packages</text>
</g>
<g id="clust6" class="cluster">
<title>cluster modules/dart/at_server/packages</title>
<polygon fill="none" stroke="#8b5078" points="707.84,-1016.89 707.84,-2482.01 1363.84,-2482.01 1363.84,-1016.89 707.84,-1016.89"/>
<text text-anchor="middle" x="1035.84" y="-2466.81" font-family="Times,serif" font-size="14.00">modules/dart/at_server/packages</text>
</g>
<!-- at_auth -->
<g id="node1" class="node">
<title>at_auth</title>
<polygon fill="none" stroke="#0f9477" points="1749.84,-2172.52 1679.84,-2172.52 1679.84,-2136.52 1749.84,-2136.52 1749.84,-2172.52"/>
<text text-anchor="middle" x="1714.84" y="-2150.82" font-family="Times,serif" font-size="14.00">at_auth</text>
</g>
<!-- at_chops -->
<g id="node4" class="node">
<title>at_chops</title>
<polygon fill="none" stroke="#8fb4d4" points="1754.34,-1208.52 1675.34,-1208.52 1675.34,-1172.52 1754.34,-1172.52 1754.34,-1208.52"/>
<text text-anchor="middle" x="1714.84" y="-1186.82" font-family="Times,serif" font-size="14.00">at_chops</text>
</g>
<!-- at_auth&#45;&gt;at_chops -->
<g id="edge3" class="edge">
<title>at_auth&#45;&gt;at_chops</title>
<path fill="none" stroke="#8fb4d4" d="M1716.41,-2136.3C1721.87,-2075.46 1740.01,-1864.84 1745.84,-1690.52 1751.86,-1510.27 1727.68,-1293.89 1718.36,-1218.78"/>
<polygon fill="#8fb4d4" stroke="#8fb4d4" points="1721.82,-1218.23 1717.1,-1208.74 1714.88,-1219.1 1721.82,-1218.23"/>
</g>
<!-- at_commons -->
<g id="node10" class="node">
<title>at_commons</title>
<polygon fill="none" stroke="#7eceb0" points="1679.34,-245.52 1574.34,-245.52 1574.34,-209.52 1679.34,-209.52 1679.34,-245.52"/>
<text text-anchor="middle" x="1626.84" y="-223.82" font-family="Times,serif" font-size="14.00">at_commons</text>
</g>
<!-- at_auth&#45;&gt;at_commons -->
<g id="edge1" class="edge">
<title>at_auth&#45;&gt;at_commons</title>
<path fill="none" stroke="#7eceb0" d="M1712.81,-2136.47C1701.82,-2043.16 1649.29,-1584.85 1631.84,-1208.52 1614.33,-831.07 1623.43,-370.97 1626.15,-255.69"/>
<polygon fill="#7eceb0" stroke="#7eceb0" points="1629.65,-255.7 1626.4,-245.62 1622.66,-255.54 1629.65,-255.7"/>
</g>
<!-- at_lookup -->
<g id="node27" class="node">
<title>at_lookup</title>
<polygon fill="none" stroke="#94d42d" points="1909.34,-1690.52 1824.34,-1690.52 1824.34,-1654.52 1909.34,-1654.52 1909.34,-1690.52"/>
<text text-anchor="middle" x="1866.84" y="-1668.82" font-family="Times,serif" font-size="14.00">at_lookup</text>
</g>
<!-- at_auth&#45;&gt;at_lookup -->
<g id="edge2" class="edge">
<title>at_auth&#45;&gt;at_lookup</title>
<path fill="none" stroke="#94d42d" d="M1720.25,-2136.44C1742.94,-2064.78 1830.54,-1788.14 1858.33,-1700.39"/>
<polygon fill="#94d42d" stroke="#94d42d" points="1861.73,-1701.24 1861.41,-1690.65 1855.06,-1699.13 1861.73,-1701.24"/>
</g>
<!-- at_utils -->
<g id="node43" class="node">
<title>at_utils</title>
<polygon fill="none" stroke="#75e849" points="1869.34,-727.52 1800.34,-727.52 1800.34,-691.52 1869.34,-691.52 1869.34,-727.52"/>
<text text-anchor="middle" x="1834.84" y="-705.82" font-family="Times,serif" font-size="14.00">at_utils</text>
</g>
<!-- at_auth&#45;&gt;at_utils -->
<g id="edge4" class="edge">
<title>at_auth&#45;&gt;at_utils</title>
<path fill="none" stroke="#75e849" d="M1713.79,-2136.47C1706.03,-2009.45 1657.92,-1214.33 1666.84,-1164.52 1697.27,-994.6 1787.02,-805.09 1821.31,-736.81"/>
<polygon fill="#75e849" stroke="#75e849" points="1824.56,-738.13 1825.95,-727.63 1818.31,-734.97 1824.56,-738.13"/>
</g>
<!-- at_backupkey_flutter -->
<g id="node2" class="node">
<title>at_backupkey_flutter</title>
<polygon fill="none" stroke="#590b92" points="3924.34,-3229.52 3759.34,-3229.52 3759.34,-3193.52 3924.34,-3193.52 3924.34,-3229.52"/>
<text text-anchor="middle" x="3841.84" y="-3207.82" font-family="Times,serif" font-size="14.00">at_backupkey_flutter</text>
</g>
<!-- at_client_mobile -->
<g id="node8" class="node">
<title>at_client_mobile</title>
<polygon fill="none" stroke="#d9577c" points="3278.84,-2727.52 3146.84,-2727.52 3146.84,-2691.52 3278.84,-2691.52 3278.84,-2727.52"/>
<text text-anchor="middle" x="3212.84" y="-2705.82" font-family="Times,serif" font-size="14.00">at_client_mobile</text>
</g>
<!-- at_backupkey_flutter&#45;&gt;at_client_mobile -->
<g id="edge6" class="edge">
<title>at_backupkey_flutter&#45;&gt;at_client_mobile</title>
<path fill="none" stroke="#d9577c" d="M3820.18,-3193.31C3725.86,-3118.33 3350.73,-2820.13 3242.32,-2733.95"/>
<polygon fill="#d9577c" stroke="#d9577c" points="3244.4,-2731.14 3234.4,-2727.66 3240.05,-2736.62 3244.4,-2731.14"/>
</g>
<!-- at_backupkey_flutter&#45;&gt;at_utils -->
<g id="edge5" class="edge">
<title>at_backupkey_flutter&#45;&gt;at_utils</title>
<path fill="none" stroke="#75e849" d="M3859.07,-3193.32C3922.86,-3127.52 4137.8,-2885.31 4058.84,-2683.52 3622.69,-1568.99 2152.05,-854.8 1878.74,-730.09"/>
<polygon fill="#75e849" stroke="#75e849" points="1880.08,-726.85 1869.53,-725.9 1877.19,-733.23 1880.08,-726.85"/>
</g>
<!-- at_chat_flutter -->
<g id="node3" class="node">
<title>at_chat_flutter</title>
<polygon fill="none" stroke="#463830" points="4211.84,-3229.52 4091.84,-3229.52 4091.84,-3193.52 4211.84,-3193.52 4211.84,-3229.52"/>
<text text-anchor="middle" x="4151.84" y="-3207.82" font-family="Times,serif" font-size="14.00">at_chat_flutter</text>
</g>
<!-- at_client -->
<g id="node7" class="node">
<title>at_client</title>
<polygon fill="none" stroke="#61d4fc" points="3094.34,-2172.52 3017.34,-2172.52 3017.34,-2136.52 3094.34,-2136.52 3094.34,-2172.52"/>
<text text-anchor="middle" x="3055.84" y="-2150.82" font-family="Times,serif" font-size="14.00">at_client</text>
</g>
<!-- at_chat_flutter&#45;&gt;at_client -->
<g id="edge7" class="edge">
<title>at_chat_flutter&#45;&gt;at_client</title>
<path fill="none" stroke="#61d4fc" d="M4118.17,-3193.47C4014.65,-3139.93 3695.26,-2966.32 3482.84,-2758.52 3285.32,-2565.3 3117.88,-2270.33 3069.74,-2181.63"/>
<polygon fill="#61d4fc" stroke="#61d4fc" points="3072.79,-2179.91 3064.96,-2172.77 3066.63,-2183.23 3072.79,-2179.91"/>
</g>
<!-- at_chat_flutter&#45;&gt;at_client_mobile -->
<g id="edge8" class="edge">
<title>at_chat_flutter&#45;&gt;at_client_mobile</title>
<path fill="none" stroke="#d9577c" d="M4119.79,-3193.45C3978.6,-3118.27 3412.14,-2816.65 3254.01,-2732.45"/>
<polygon fill="#d9577c" stroke="#d9577c" points="3255.53,-2729.29 3245.06,-2727.68 3252.24,-2735.47 3255.53,-2729.29"/>
</g>
<!-- at_common_flutter -->
<g id="node9" class="node">
<title>at_common_flutter</title>
<polygon fill="none" stroke="#bf681f" points="4049.34,-2727.52 3900.34,-2727.52 3900.34,-2691.52 4049.34,-2691.52 4049.34,-2727.52"/>
<text text-anchor="middle" x="3974.84" y="-2705.82" font-family="Times,serif" font-size="14.00">at_common_flutter</text>
</g>
<!-- at_chat_flutter&#45;&gt;at_common_flutter -->
<g id="edge9" class="edge">
<title>at_chat_flutter&#45;&gt;at_common_flutter</title>
<path fill="none" stroke="#bf681f" d="M4145.74,-3193.31C4119.52,-3119.23 4016.17,-2827.27 3984.26,-2737.15"/>
<polygon fill="#bf681f" stroke="#bf681f" points="3987.54,-2735.92 3980.9,-2727.66 3980.94,-2738.25 3987.54,-2735.92"/>
</g>
<!-- at_chat_flutter&#45;&gt;at_commons -->
<g id="edge10" class="edge">
<title>at_chat_flutter&#45;&gt;at_commons</title>
<path fill="none" stroke="#7eceb0" d="M4159.59,-3193.13C4186,-3133.48 4273.97,-2931.29 4330.84,-2758.52 4410.62,-2516.14 4444.65,-2456.53 4477.84,-2203.52 4507.49,-1977.46 4478.61,-1918.52 4478.84,-1690.52 4479.06,-1456.74 4575.67,-1377.3 4478.84,-1164.52 4346.26,-873.21 4223.01,-832.82 3935.84,-691.52 3116.38,-288.32 1968.97,-236.24 1689.84,-229.52"/>
<polygon fill="#7eceb0" stroke="#7eceb0" points="1689.59,-226.01 1679.51,-229.28 1689.43,-233.01 1689.59,-226.01"/>
</g>
<!-- at_contact -->
<g id="node11" class="node">
<title>at_contact</title>
<polygon fill="none" stroke="#250aa2" points="1921.84,-1208.52 1831.84,-1208.52 1831.84,-1172.52 1921.84,-1172.52 1921.84,-1208.52"/>
<text text-anchor="middle" x="1876.84" y="-1186.82" font-family="Times,serif" font-size="14.00">at_contact</text>
</g>
<!-- at_chat_flutter&#45;&gt;at_contact -->
<g id="edge11" class="edge">
<title>at_chat_flutter&#45;&gt;at_contact</title>
<path fill="none" stroke="#250aa2" d="M4133.85,-3193.36C4075.48,-3136.73 3889.18,-2948.56 3786.84,-2758.52 3542.66,-2305.08 3802.58,-2015.06 3434.84,-1654.52 2990.05,-1218.45 2153.89,-1190.16 1932.03,-1190.63"/>
<polygon fill="#250aa2" stroke="#250aa2" points="1931.92,-1187.13 1921.94,-1190.68 1931.95,-1194.13 1931.92,-1187.13"/>
</g>
<!-- at_chat_flutter&#45;&gt;at_lookup -->
<g id="edge12" class="edge">
<title>at_chat_flutter&#45;&gt;at_lookup</title>
<path fill="none" stroke="#94d42d" d="M4125.82,-3193.37C4044.27,-3138.54 3789.83,-2959.31 3634.84,-2758.52 3443.67,-2510.87 3558.93,-2331.46 3320.84,-2128.52 2878.61,-1751.6 2124.66,-1686.52 1919.63,-1675.64"/>
<polygon fill="#94d42d" stroke="#94d42d" points="1919.6,-1672.13 1909.43,-1675.12 1919.24,-1679.12 1919.6,-1672.13"/>
</g>
<!-- at_chops&#45;&gt;at_commons -->
<g id="edge13" class="edge">
<title>at_chops&#45;&gt;at_commons</title>
<path fill="none" stroke="#7eceb0" d="M1713.27,-1172.43C1702.75,-1057.57 1642.38,-398.25 1629.32,-255.7"/>
<polygon fill="#7eceb0" stroke="#7eceb0" points="1632.8,-255.26 1628.4,-245.62 1625.83,-255.9 1632.8,-255.26"/>
</g>
<!-- at_chops&#45;&gt;at_utils -->
<g id="edge14" class="edge">
<title>at_chops&#45;&gt;at_utils</title>
<path fill="none" stroke="#75e849" d="M1719.11,-1172.47C1737.02,-1100.97 1806.18,-824.9 1828.12,-737.33"/>
<polygon fill="#75e849" stroke="#75e849" points="1831.52,-738.16 1830.55,-727.61 1824.73,-736.46 1831.52,-738.16"/>
</g>
<!-- at_cli -->
<g id="node5" class="node">
<title>at_cli</title>
<polygon fill="none" stroke="#34bd05" points="2788.84,-3229.52 2734.84,-3229.52 2734.84,-3193.52 2788.84,-3193.52 2788.84,-3229.52"/>
<text text-anchor="middle" x="2761.84" y="-3207.82" font-family="Times,serif" font-size="14.00">at_cli</text>
</g>
<!-- at_cli&#45;&gt;at_client -->
<g id="edge16" class="edge">
<title>at_cli&#45;&gt;at_client</title>
<path fill="none" stroke="#61d4fc" d="M2767.67,-3193.39C2787.9,-3133.76 2856.41,-2929.58 2904.84,-2758.52 2967.28,-2537.95 3030.06,-2268.26 3049.63,-2182.82"/>
<polygon fill="#61d4fc" stroke="#61d4fc" points="3053.08,-2183.42 3051.9,-2172.89 3046.26,-2181.86 3053.08,-2183.42"/>
</g>
<!-- at_cli&#45;&gt;at_commons -->
<g id="edge17" class="edge">
<title>at_cli&#45;&gt;at_commons</title>
<path fill="none" stroke="#7eceb0" d="M2734.63,-3196.74C2731.7,-3195.54 2728.74,-3194.44 2725.84,-3193.52 1644.23,-2851.55 951.44,-3617.77 210.84,-2758.52 167.08,-2707.76 196.84,-2222.54 196.84,-2155.52 196.84,-2155.52 196.84,-2155.52 196.84,-1189.52 196.84,-520.62 1288.01,-287.03 1564.01,-238.65"/>
<polygon fill="#7eceb0" stroke="#7eceb0" points="1564.99,-242.03 1574.25,-236.87 1563.79,-235.13 1564.99,-242.03"/>
</g>
<!-- at_cli&#45;&gt;at_lookup -->
<g id="edge15" class="edge">
<title>at_cli&#45;&gt;at_lookup</title>
<path fill="none" stroke="#94d42d" d="M2758.97,-3193.35C2747.24,-3125.63 2698.98,-2871.64 2605.84,-2683.52 2390.93,-2249.46 1989.94,-1805.5 1889.9,-1698.01"/>
<polygon fill="#94d42d" stroke="#94d42d" points="1892.34,-1695.5 1882.96,-1690.58 1887.23,-1700.28 1892.34,-1695.5"/>
</g>
<!-- at_cli&#45;&gt;at_utils -->
<g id="edge18" class="edge">
<title>at_cli&#45;&gt;at_utils</title>
<path fill="none" stroke="#75e849" d="M2788.87,-3199.32C2884.47,-3158.02 3207.22,-3003.78 3324.84,-2758.52 3367.3,-2669.98 3619.94,-3265.69 3316.84,-2128.52 3108.32,-1346.22 2101.23,-835.01 1878.5,-730.42"/>
<polygon fill="#75e849" stroke="#75e849" points="1879.94,-727.23 1869.4,-726.16 1876.98,-733.57 1879.94,-727.23"/>
</g>
<!-- at_cli_commons -->
<g id="node6" class="node">
<title>at_cli_commons</title>
<polygon fill="none" stroke="#c99192" points="1921.84,-3229.52 1793.84,-3229.52 1793.84,-3193.52 1921.84,-3193.52 1921.84,-3229.52"/>
<text text-anchor="middle" x="1857.84" y="-3207.82" font-family="Times,serif" font-size="14.00">at_cli_commons</text>
</g>
<!-- at_cli_commons&#45;&gt;at_client -->
<g id="edge19" class="edge">
<title>at_cli_commons&#45;&gt;at_client</title>
<path fill="none" stroke="#61d4fc" d="M1862.11,-3193.32C1880.52,-3122.23 1959.27,-2847.44 2113.84,-2683.52 2387.31,-2393.51 2856.3,-2221.02 3007.4,-2170.89"/>
<polygon fill="#61d4fc" stroke="#61d4fc" points="3008.91,-2174.08 3017.31,-2167.62 3006.72,-2167.43 3008.91,-2174.08"/>
</g>
<!-- at_onboarding_cli -->
<g id="node29" class="node">
<title>at_onboarding_cli</title>
<polygon fill="none" stroke="#514d2d" points="1785.84,-2727.52 1643.84,-2727.52 1643.84,-2691.52 1785.84,-2691.52 1785.84,-2727.52"/>
<text text-anchor="middle" x="1714.84" y="-2705.82" font-family="Times,serif" font-size="14.00">at_onboarding_cli</text>
</g>
<!-- at_cli_commons&#45;&gt;at_onboarding_cli -->
<g id="edge20" class="edge">
<title>at_cli_commons&#45;&gt;at_onboarding_cli</title>
<path fill="none" stroke="#514d2d" d="M1850.24,-3193.31C1823.85,-3119.31 1740.29,-2827.86 1719.27,-2737.43"/>
<polygon fill="#514d2d" stroke="#514d2d" points="1722.68,-2736.65 1717.07,-2727.66 1715.85,-2738.18 1722.68,-2736.65"/>
</g>
<!-- at_cli_commons&#45;&gt;at_utils -->
<g id="edge21" class="edge">
<title>at_cli_commons&#45;&gt;at_utils</title>
<path fill="none" stroke="#75e849" d="M1845.52,-3193.15C1805.22,-3135.11 1677.47,-2941.31 1634.84,-2758.52 1627.26,-2726.06 1634.65,-2716.85 1634.84,-2683.52 1638.61,-2008.38 1519.57,-1826.59 1651.84,-1164.52 1686.03,-993.35 1783.16,-804.59 1820.22,-736.66"/>
<polygon fill="#75e849" stroke="#75e849" points="1823.49,-737.98 1825.24,-727.53 1817.35,-734.61 1823.49,-737.98"/>
</g>
<!-- at_client&#45;&gt;at_auth -->
<g id="edge26" class="edge">
<title>at_client&#45;&gt;at_auth</title>
<path fill="none" stroke="#0f9477" d="M3031.85,-2172.82C2892.52,-2276.76 2179.51,-2776.68 1772.84,-2443.52 1694.58,-2379.41 1702.6,-2241.97 1710.31,-2182.69"/>
<polygon fill="#0f9477" stroke="#0f9477" points="1713.81,-2182.95 1711.73,-2172.56 1706.88,-2181.98 1713.81,-2182.95"/>
</g>
<!-- at_client&#45;&gt;at_chops -->
<g id="edge24" class="edge">
<title>at_client&#45;&gt;at_chops</title>
<path fill="none" stroke="#8fb4d4" d="M3031.99,-2136.41C2870.11,-2020.28 1933.17,-1348.15 1746.99,-1214.59"/>
<polygon fill="#8fb4d4" stroke="#8fb4d4" points="1748.87,-1211.63 1738.7,-1208.64 1744.79,-1217.32 1748.87,-1211.63"/>
</g>
<!-- at_client&#45;&gt;at_commons -->
<g id="edge22" class="edge">
<title>at_client&#45;&gt;at_commons</title>
<path fill="none" stroke="#7eceb0" d="M3017.29,-2151.25C2847.61,-2138.91 2160.98,-2065.65 1806.84,-1690.52 1491.58,-1356.58 1506,-1149.28 1542.84,-691.52 1556.29,-524.37 1596.63,-326.54 1616.58,-255.55"/>
<polygon fill="#7eceb0" stroke="#7eceb0" points="1620.03,-256.22 1619.48,-245.64 1613.31,-254.25 1620.03,-256.22"/>
</g>
<!-- at_client&#45;&gt;at_commons -->
<g id="edge29" class="edge">
<title>at_client&#45;&gt;at_commons</title>
<path fill="none" stroke="#7eceb0" stroke-dasharray="1,5" d="M3017.12,-2150.77C2848.83,-2137.07 2174.64,-2061.06 1824.84,-1690.52 1509.58,-1356.58 1524,-1149.28 1560.84,-691.52 1574.29,-524.37 1614.63,-326.54 1625.21,-255.55"/>
<polygon fill="#7eceb0" stroke="#7eceb0" points="1628.68,-256.03 1626.6,-245.64 1621.74,-255.06 1628.68,-256.03"/>
</g>
<!-- at_client&#45;&gt;at_lookup -->
<g id="edge25" class="edge">
<title>at_client&#45;&gt;at_lookup</title>
<path fill="none" stroke="#94d42d" d="M3017.08,-2138.89C2840.42,-2069.79 2112.52,-1775.99 1915.92,-1694.54"/>
<polygon fill="#94d42d" stroke="#94d42d" points="1917,-1691.2 1906.42,-1690.59 1914.31,-1697.66 1917,-1691.2"/>
</g>
<!-- at_client&#45;&gt;at_lookup -->
<g id="edge30" class="edge">
<title>at_client&#45;&gt;at_lookup</title>
<path fill="none" stroke="#94d42d" stroke-dasharray="1,5" d="M3017.24,-2136.86C2841.81,-2063.88 2120.18,-1772.52 1919.05,-1693.42"/>
<polygon fill="#94d42d" stroke="#94d42d" points="1920.17,-1690.11 1909.59,-1689.71 1917.62,-1696.62 1920.17,-1690.11"/>
</g>
<!-- at_persistence_secondary_server -->
<g id="node32" class="node">
<title>at_persistence_secondary_server</title>
<polygon fill="none" stroke="#9760d3" points="1335.84,-1690.52 1083.84,-1690.52 1083.84,-1654.52 1335.84,-1654.52 1335.84,-1690.52"/>
<text text-anchor="middle" x="1209.84" y="-1668.82" font-family="Times,serif" font-size="14.00">at_persistence_secondary_server</text>
</g>
<!-- at_client&#45;&gt;at_persistence_secondary_server -->
<g id="edge28" class="edge">
<title>at_client&#45;&gt;at_persistence_secondary_server</title>
<path fill="none" stroke="#9760d3" d="M3017.28,-2143.49C2787.56,-2083.76 1598.7,-1774.63 1285.52,-1693.2"/>
<polygon fill="#9760d3" stroke="#9760d3" points="1286.19,-1689.76 1275.63,-1690.63 1284.43,-1696.53 1286.19,-1689.76"/>
</g>
<!-- at_persistence_spec -->
<g id="node33" class="node">
<title>at_persistence_spec</title>
<polygon fill="none" stroke="#3bfcef" points="1356.34,-1208.52 1197.34,-1208.52 1197.34,-1172.52 1356.34,-1172.52 1356.34,-1208.52"/>
<text text-anchor="middle" x="1276.84" y="-1186.82" font-family="Times,serif" font-size="14.00">at_persistence_spec</text>
</g>
<!-- at_client&#45;&gt;at_persistence_spec -->
<g id="edge27" class="edge">
<title>at_client&#45;&gt;at_persistence_spec</title>
<path fill="none" stroke="#3bfcef" d="M3017.19,-2147.92C2791.71,-2114.54 1647.94,-1934.78 1407.84,-1690.52 1274.74,-1555.12 1272.24,-1301.8 1275.32,-1218.7"/>
<polygon fill="#3bfcef" stroke="#3bfcef" points="1278.82,-1218.7 1275.75,-1208.56 1271.83,-1218.4 1278.82,-1218.7"/>
</g>
<!-- at_client&#45;&gt;at_utils -->
<g id="edge23" class="edge">
<title>at_client&#45;&gt;at_utils</title>
<path fill="none" stroke="#75e849" d="M3041.27,-2136.31C2915.07,-1987.16 2007.56,-914.65 1856.21,-735.78"/>
<polygon fill="#75e849" stroke="#75e849" points="1858.71,-733.32 1849.58,-727.95 1853.37,-737.84 1858.71,-733.32"/>
</g>
<!-- at_client_mobile&#45;&gt;at_auth -->
<g id="edge36" class="edge">
<title>at_client_mobile&#45;&gt;at_auth</title>
<path fill="none" stroke="#0f9477" d="M3146.65,-2692.91C2937.33,-2641.98 2274.32,-2468.47 1778.84,-2203.52 1766.05,-2196.68 1753.05,-2187.44 1742.14,-2178.89"/>
<polygon fill="#0f9477" stroke="#0f9477" points="1744.22,-2176.08 1734.24,-2172.54 1739.84,-2181.53 1744.22,-2176.08"/>
</g>
<!-- at_client_mobile&#45;&gt;at_chops -->
<g id="edge33" class="edge">
<title>at_client_mobile&#45;&gt;at_chops</title>
<path fill="none" stroke="#8fb4d4" d="M3215.55,-2691.17C3226.23,-2616.82 3259.24,-2320.18 3139.84,-2128.52 2791.7,-1569.72 1973.25,-1274.74 1764.16,-1206.86"/>
<polygon fill="#8fb4d4" stroke="#8fb4d4" points="1764.97,-1203.45 1754.38,-1203.71 1762.82,-1210.11 1764.97,-1203.45"/>
</g>
<!-- at_client_mobile&#45;&gt;at_client -->
<g id="edge35" class="edge">
<title>at_client_mobile&#45;&gt;at_client</title>
<path fill="none" stroke="#61d4fc" d="M3207.97,-2691.36C3185.42,-2611.95 3091.11,-2279.76 3063.48,-2182.43"/>
<polygon fill="#61d4fc" stroke="#61d4fc" points="3066.83,-2181.41 3060.73,-2172.75 3060.09,-2183.33 3066.83,-2181.41"/>
</g>
<!-- at_client_mobile&#45;&gt;at_commons -->
<g id="edge31" class="edge">
<title>at_client_mobile&#45;&gt;at_commons</title>
<path fill="none" stroke="#7eceb0" d="M3215.43,-2691.45C3225.57,-2620.55 3259.06,-2343.07 3197.84,-2128.52 2926.14,-1176.48 1862.83,-393.69 1660.27,-251.56"/>
<polygon fill="#7eceb0" stroke="#7eceb0" points="1662.01,-248.51 1651.81,-245.65 1658,-254.25 1662.01,-248.51"/>
</g>
<!-- at_client_mobile&#45;&gt;at_lookup -->
<g id="edge34" class="edge">
<title>at_client_mobile&#45;&gt;at_lookup</title>
<path fill="none" stroke="#94d42d" d="M3215.16,-2691.3C3224.46,-2615 3251.71,-2303.36 3103.84,-2128.52 2781.89,-1747.88 2112,-1685.58 1919.57,-1675.46"/>
<polygon fill="#94d42d" stroke="#94d42d" points="1919.6,-1671.96 1909.44,-1674.96 1919.25,-1678.95 1919.6,-1671.96"/>
</g>
<!-- at_client_mobile&#45;&gt;at_persistence_secondary_server -->
<g id="edge37" class="edge">
<title>at_client_mobile&#45;&gt;at_persistence_secondary_server</title>
<path fill="none" stroke="#9760d3" d="M3146.76,-2703.4C2818.1,-2676.42 1364.74,-2539.2 1099.84,-2203.52 975.42,-2045.86 1135.39,-1782.07 1191.64,-1699.22"/>
<polygon fill="#9760d3" stroke="#9760d3" points="1194.58,-1701.12 1197.36,-1690.9 1188.81,-1697.16 1194.58,-1701.12"/>
</g>
<!-- at_client_mobile&#45;&gt;at_utils -->
<g id="edge32" class="edge">
<title>at_client_mobile&#45;&gt;at_utils</title>
<path fill="none" stroke="#75e849" d="M3215.58,-2691.4C3226.37,-2619.19 3260.99,-2333.72 3170.84,-2128.52 2861.44,-1424.31 2047.47,-852.26 1869.52,-733.28"/>
<polygon fill="#75e849" stroke="#75e849" points="1871.32,-730.27 1861.06,-727.64 1867.44,-736.1 1871.32,-730.27"/>
</g>
<!-- at_contact&#45;&gt;at_client -->
<g id="edge38" class="edge">
<title>at_contact&#45;&gt;at_client</title>
<path fill="none" stroke="#61d4fc" d="M1899.6,-1208.59C1979.37,-1268.53 2253.26,-1475.43 2472.84,-1654.52 2691.15,-1832.58 2946.58,-2056.95 3028.86,-2129.63"/>
<polygon fill="#61d4fc" stroke="#61d4fc" points="3026.68,-2132.38 3036.49,-2136.38 3031.32,-2127.13 3026.68,-2132.38"/>
</g>
<!-- at_contact&#45;&gt;at_commons -->
<g id="edge39" class="edge">
<title>at_contact&#45;&gt;at_commons</title>
<path fill="none" stroke="#7eceb0" d="M1879.95,-1172.38C1891.03,-1107.94 1925.43,-874.6 1878.84,-691.52 1832.39,-509.03 1697.81,-320.79 1646.78,-253.93"/>
<polygon fill="#7eceb0" stroke="#7eceb0" points="1649.29,-251.46 1640.42,-245.67 1643.75,-255.73 1649.29,-251.46"/>
</g>
<!-- at_contact&#45;&gt;at_utils -->
<g id="edge40" class="edge">
<title>at_contact&#45;&gt;at_utils</title>
<path fill="none" stroke="#75e849" d="M1875.34,-1172.47C1869.08,-1101.04 1844.91,-825.46 1837.21,-737.6"/>
<polygon fill="#75e849" stroke="#75e849" points="1840.69,-737.27 1836.33,-727.61 1833.72,-737.88 1840.69,-737.27"/>
</g>
<!-- at_contacts_flutter -->
<g id="node12" class="node">
<title>at_contacts_flutter</title>
<polygon fill="none" stroke="#1267b5" points="4379.34,-3229.52 4230.34,-3229.52 4230.34,-3193.52 4379.34,-3193.52 4379.34,-3229.52"/>
<text text-anchor="middle" x="4304.84" y="-3207.82" font-family="Times,serif" font-size="14.00">at_contacts_flutter</text>
</g>
<!-- at_contacts_flutter&#45;&gt;at_client -->
<g id="edge41" class="edge">
<title>at_contacts_flutter&#45;&gt;at_client</title>
<path fill="none" stroke="#61d4fc" d="M4274.86,-3193.43C4177.68,-3137.38 3864.31,-2951.64 3634.84,-2758.52 3395.19,-2556.84 3148.11,-2266.66 3076.44,-2180.52"/>
<polygon fill="#61d4fc" stroke="#61d4fc" points="3078.95,-2178.07 3069.87,-2172.61 3073.57,-2182.54 3078.95,-2178.07"/>
</g>
<!-- at_contacts_flutter&#45;&gt;at_client_mobile -->
<g id="edge42" class="edge">
<title>at_contacts_flutter&#45;&gt;at_client_mobile</title>
<path fill="none" stroke="#d9577c" d="M4267.56,-3193.45C4102.95,-3118.08 3441.25,-2815.11 3259.32,-2731.81"/>
<polygon fill="#d9577c" stroke="#d9577c" points="3260.58,-2728.53 3250.03,-2727.55 3257.66,-2734.89 3260.58,-2728.53"/>
</g>
<!-- at_contacts_flutter&#45;&gt;at_common_flutter -->
<g id="edge43" class="edge">
<title>at_contacts_flutter&#45;&gt;at_common_flutter</title>
<path fill="none" stroke="#bf681f" d="M4293.48,-3193.31C4244.39,-3118.93 4050.32,-2824.9 3991.7,-2736.07"/>
<polygon fill="#bf681f" stroke="#bf681f" points="3994.58,-2734.08 3986.15,-2727.66 3988.73,-2737.93 3994.58,-2734.08"/>
</g>
<!-- at_contacts_flutter&#45;&gt;at_commons -->
<g id="edge44" class="edge">
<title>at_contacts_flutter&#45;&gt;at_commons</title>
<path fill="none" stroke="#7eceb0" d="M4312.68,-3193.12C4379.57,-3042.21 4843.18,-1941.73 4500.84,-1164.52 4375.3,-879.51 4261.86,-831.86 3983.84,-691.52 3150.46,-270.84 1972.27,-231.85 1689.56,-228.69"/>
<polygon fill="#7eceb0" stroke="#7eceb0" points="1689.52,-225.19 1679.49,-228.59 1689.45,-232.19 1689.52,-225.19"/>
</g>
<!-- at_contacts_flutter&#45;&gt;at_contact -->
<g id="edge45" class="edge">
<title>at_contacts_flutter&#45;&gt;at_contact</title>
<path fill="none" stroke="#250aa2" d="M4284.11,-3193.38C4217.8,-3137.55 4008.43,-2953.22 3891.84,-2758.52 3621.63,-2307.31 3859.86,-2002.87 3465.84,-1654.52 2990.89,-1234.63 2154.4,-1194.59 1932.27,-1191.55"/>
<polygon fill="#250aa2" stroke="#250aa2" points="1932.21,-1188.05 1922.17,-1191.43 1932.12,-1195.05 1932.21,-1188.05"/>
</g>
<!-- at_contacts_flutter&#45;&gt;at_lookup -->
<g id="edge46" class="edge">
<title>at_contacts_flutter&#45;&gt;at_lookup</title>
<path fill="none" stroke="#94d42d" d="M4280.9,-3193.33C4203.46,-3136.97 3954.97,-2950.39 3786.84,-2758.52 3565.37,-2505.8 3638.45,-2329.08 3368.84,-2128.52 2888.32,-1771.07 2125.67,-1692.01 1919.61,-1676.8"/>
<polygon fill="#94d42d" stroke="#94d42d" points="1919.6,-1673.29 1909.37,-1676.06 1919.09,-1680.27 1919.6,-1673.29"/>
</g>
<!-- at_contacts_flutter&#45;&gt;at_utils -->
<g id="edge47" class="edge">
<title>at_contacts_flutter&#45;&gt;at_utils</title>
<path fill="none" stroke="#75e849" d="M4299.1,-3193.47C4263.26,-3088.47 4062.54,-2521.08 3780.84,-2128.52 3408.03,-1609.01 3251.07,-1509.73 2712.84,-1164.52 2408.45,-969.29 2010.26,-787.85 1878.94,-729.78"/>
<polygon fill="#75e849" stroke="#75e849" points="1880.15,-726.49 1869.59,-725.65 1877.33,-732.89 1880.15,-726.49"/>
</g>
<!-- at_contacts_group_flutter -->
<g id="node13" class="node">
<title>at_contacts_group_flutter</title>
<polygon fill="none" stroke="#dae1d2" points="4088.84,-3730.52 3890.84,-3730.52 3890.84,-3694.52 4088.84,-3694.52 4088.84,-3730.52"/>
<text text-anchor="middle" x="3989.84" y="-3708.82" font-family="Times,serif" font-size="14.00">at_contacts_group_flutter</text>
</g>
<!-- at_contacts_group_flutter&#45;&gt;at_client_mobile -->
<g id="edge48" class="edge">
<title>at_contacts_group_flutter&#45;&gt;at_client_mobile</title>
<path fill="none" stroke="#d9577c" d="M3944.41,-3694.4C3823.58,-3646.37 3492.65,-3498.17 3332.84,-3260.52 3216.85,-3088.04 3210.76,-2822.54 3212.02,-2737.62"/>
<polygon fill="#d9577c" stroke="#d9577c" points="3215.52,-2737.59 3212.22,-2727.52 3208.52,-2737.45 3215.52,-2737.59"/>
</g>
<!-- at_contacts_group_flutter&#45;&gt;at_common_flutter -->
<g id="edge49" class="edge">
<title>at_contacts_group_flutter&#45;&gt;at_common_flutter</title>
<path fill="none" stroke="#bf681f" d="M4022.25,-3694.38C4131.37,-3634.16 4473.91,-3423.49 4388.84,-3193.52 4309.73,-2979.68 4088.98,-2796.63 4006.48,-2733.77"/>
<polygon fill="#bf681f" stroke="#bf681f" points="4008.34,-2730.79 3998.25,-2727.55 4004.12,-2736.38 4008.34,-2730.79"/>
</g>
<!-- at_contacts_group_flutter&#45;&gt;at_commons -->
<g id="edge50" class="edge">
<title>at_contacts_group_flutter&#45;&gt;at_commons</title>
<path fill="none" stroke="#7eceb0" d="M3890.4,-3702.97C3307.08,-3652.38 350.45,-3390.17 210.84,-3260.52 178.98,-3230.94 6.84,-2213.11 6.84,-2155.52 6.84,-2155.52 6.84,-2155.52 6.84,-1189.52 6.84,-963.23 -40.06,-858.34 112.84,-691.52 318.78,-466.82 1304.25,-283.94 1563.97,-239.08"/>
<polygon fill="#7eceb0" stroke="#7eceb0" points="1564.73,-242.5 1573.99,-237.35 1563.54,-235.6 1564.73,-242.5"/>
</g>
<!-- at_contacts_group_flutter&#45;&gt;at_contact -->
<g id="edge51" class="edge">
<title>at_contacts_group_flutter&#45;&gt;at_contact</title>
<path fill="none" stroke="#250aa2" d="M3968.68,-3694.25C3902.12,-3638.75 3695.12,-3457.01 3589.84,-3260.52 3344.07,-2801.85 3572.86,-2565.84 3290.84,-2128.52 2939.52,-1583.75 2146.96,-1283.07 1931.68,-1209.48"/>
<polygon fill="#250aa2" stroke="#250aa2" points="1932.76,-1206.15 1922.17,-1206.25 1930.51,-1212.78 1932.76,-1206.15"/>
</g>
<!-- at_contacts_group_flutter&#45;&gt;at_contacts_flutter -->
<g id="edge52" class="edge">
<title>at_contacts_group_flutter&#45;&gt;at_contacts_flutter</title>
<path fill="none" stroke="#1267b5" d="M4000.68,-3694.34C4047.49,-3620.19 4232.4,-3327.26 4288.57,-3238.29"/>
<polygon fill="#1267b5" stroke="#1267b5" points="4291.66,-3239.95 4294.04,-3229.62 4285.74,-3236.21 4291.66,-3239.95"/>
</g>
<!-- at_contacts_group_flutter&#45;&gt;at_utils -->
<g id="edge53" class="edge">
<title>at_contacts_group_flutter&#45;&gt;at_utils</title>
<path fill="none" stroke="#75e849" d="M4073.54,-3694.47C4246.83,-3654.14 4642.17,-3534.91 4803.84,-3260.52 5080.36,-2791.17 4679.03,-2549.94 4333.84,-2128.52 3882.1,-1577.03 3690.12,-1482.03 3051.84,-1164.52 2612.8,-946.12 2041.55,-771.19 1879.45,-723.45"/>
<polygon fill="#75e849" stroke="#75e849" points="1880.4,-720.08 1869.82,-720.62 1878.42,-726.79 1880.4,-720.08"/>
</g>
<!-- at_cram -->
<g id="node14" class="node">
<title>at_cram</title>
<polygon fill="none" stroke="#c89a29" points="2716.84,-3229.52 2642.84,-3229.52 2642.84,-3193.52 2716.84,-3193.52 2716.84,-3229.52"/>
<text text-anchor="middle" x="2679.84" y="-3207.82" font-family="Times,serif" font-size="14.00">at_cram</text>
</g>
<!-- at_daemon_cli -->
<g id="node15" class="node">
<title>at_daemon_cli</title>
<polygon fill="none" stroke="#8e17d5" points="340.34,-3229.52 223.34,-3229.52 223.34,-3193.52 340.34,-3193.52 340.34,-3229.52"/>
<text text-anchor="middle" x="281.84" y="-3207.82" font-family="Times,serif" font-size="14.00">at_daemon_cli</text>
</g>
<!-- at_daemon_cli&#45;&gt;at_client -->
<g id="edge54" class="edge">
<title>at_daemon_cli&#45;&gt;at_client</title>
<path fill="none" stroke="#61d4fc" d="M318.42,-3193.49C465.56,-3125.29 1029.08,-2866.68 1504.84,-2683.52 2089,-2458.63 2814.95,-2230.22 3007.26,-2170.52"/>
<polygon fill="#61d4fc" stroke="#61d4fc" points="3008.55,-2173.78 3017.06,-2167.48 3006.48,-2167.1 3008.55,-2173.78"/>
</g>
<!-- at_daemon_cli&#45;&gt;at_commons -->
<g id="edge59" class="edge">
<title>at_daemon_cli&#45;&gt;at_commons</title>
<path fill="none" stroke="#7eceb0" d="M274.96,-3193.17C251.63,-3133.62 174.66,-2931.72 133.84,-2758.52 71.68,-2494.84 44.84,-2426.42 44.84,-2155.52 44.84,-2155.52 44.84,-2155.52 44.84,-1189.52 44.84,-964.11 -9.41,-859.55 140.84,-691.52 340.35,-468.39 1307.42,-284.71 1564.15,-239.3"/>
<polygon fill="#7eceb0" stroke="#7eceb0" points="1564.82,-242.74 1574.06,-237.56 1563.6,-235.84 1564.82,-242.74"/>
</g>
<!-- at_daemon_core -->
<g id="node17" class="node">
<title>at_daemon_core</title>
<polygon fill="none" stroke="#c16272" points="449.34,-2172.52 318.34,-2172.52 318.34,-2136.52 449.34,-2136.52 449.34,-2172.52"/>
<text text-anchor="middle" x="383.84" y="-2150.82" font-family="Times,serif" font-size="14.00">at_daemon_core</text>
</g>
<!-- at_daemon_cli&#45;&gt;at_daemon_core -->
<g id="edge56" class="edge">
<title>at_daemon_cli&#45;&gt;at_daemon_core</title>
<path fill="none" stroke="#c16272" d="M277.67,-3193.28C270.31,-3133.29 263.9,-2928.06 261.84,-2758.52 261.43,-2725.19 258.33,-2716.67 261.84,-2683.52 282.47,-2488.54 344.82,-2259.7 371.85,-2182.5"/>
<polygon fill="#c16272" stroke="#c16272" points="375.31,-2183.22 375.43,-2172.63 368.73,-2180.84 375.31,-2183.22"/>
</g>
<!-- at_daemon_cli&#45;&gt;at_daemon_core -->
<g id="edge60" class="edge">
<title>at_daemon_cli&#45;&gt;at_daemon_core</title>
<path fill="none" stroke="#c16272" stroke-dasharray="1,5" d="M284.86,-3193.28C288.31,-3133.29 281.9,-2928.06 279.84,-2758.52 279.43,-2725.19 276.33,-2716.67 279.84,-2683.52 300.47,-2488.54 362.82,-2259.7 380.04,-2182.5"/>
<polygon fill="#c16272" stroke="#c16272" points="383.48,-2183.14 382.16,-2172.63 376.63,-2181.67 383.48,-2183.14"/>
</g>
<!-- at_daemon_server -->
<g id="node19" class="node">
<title>at_daemon_server</title>
<polygon fill="none" stroke="#4bd261" points="583.84,-2727.52 437.84,-2727.52 437.84,-2691.52 583.84,-2691.52 583.84,-2727.52"/>
<text text-anchor="middle" x="510.84" y="-2705.82" font-family="Times,serif" font-size="14.00">at_daemon_server</text>
</g>
<!-- at_daemon_cli&#45;&gt;at_daemon_server -->
<g id="edge57" class="edge">
<title>at_daemon_cli&#45;&gt;at_daemon_server</title>
<path fill="none" stroke="#4bd261" d="M287.05,-3193.31C315.79,-3119.08 449.8,-2826.08 495.67,-2736.61"/>
<polygon fill="#4bd261" stroke="#4bd261" points="498.81,-2738.15 500.32,-2727.66 492.6,-2734.92 498.81,-2738.15"/>
</g>
<!-- at_daemon_cli&#45;&gt;at_daemon_server -->
<g id="edge61" class="edge">
<title>at_daemon_cli&#45;&gt;at_daemon_server</title>
<path fill="none" stroke="#4bd261" stroke-dasharray="1,5" d="M292.39,-3193.31C331.55,-3119.23 465.47,-2827.27 501.89,-2737.15"/>
<polygon fill="#4bd261" stroke="#4bd261" points="505.22,-2738.25 505.65,-2727.66 498.71,-2735.66 505.22,-2738.25"/>
</g>
<!-- at_daemon_cli&#45;&gt;at_onboarding_cli -->
<g id="edge55" class="edge">
<title>at_daemon_cli&#45;&gt;at_onboarding_cli</title>
<path fill="none" stroke="#514d2d" d="M330.75,-3193.45C547.51,-3117.82 1421.15,-2812.99 1656.3,-2730.95"/>
<polygon fill="#514d2d" stroke="#514d2d" points="1657.74,-2734.15 1666.03,-2727.55 1655.44,-2727.54 1657.74,-2734.15"/>
</g>
<!-- at_daemon_cli&#45;&gt;at_utils -->
<g id="edge58" class="edge">
<title>at_daemon_cli&#45;&gt;at_utils</title>
<path fill="none" stroke="#75e849" d="M299.46,-3193.26C355.47,-3137.06 529.43,-2951.75 592.84,-2758.52 676.44,-2503.75 611.84,-2423.65 611.84,-2155.52 611.84,-2155.52 611.84,-2155.52 611.84,-1671.52 611.84,-1444.67 532.22,-1344.1 670.84,-1164.52 962.6,-786.55 1613.25,-722.91 1789.86,-712.5"/>
<polygon fill="#75e849" stroke="#75e849" points="1790.3,-715.98 1800.09,-711.93 1789.91,-708.99 1790.3,-715.98"/>
</g>
<!-- at_daemon_client -->
<g id="node16" class="node">
<title>at_daemon_client</title>
<polygon fill="none" stroke="#dbe812" points="419.84,-2727.52 279.84,-2727.52 279.84,-2691.52 419.84,-2691.52 419.84,-2727.52"/>
<text text-anchor="middle" x="349.84" y="-2705.82" font-family="Times,serif" font-size="14.00">at_daemon_client</text>
</g>
<!-- at_daemon_client&#45;&gt;at_daemon_core -->
<g id="edge62" class="edge">
<title>at_daemon_client&#45;&gt;at_daemon_core</title>
<path fill="none" stroke="#c16272" d="M348.34,-2691.36C347.82,-2612.03 368.01,-2280.44 379.03,-2182.73"/>
<polygon fill="#c16272" stroke="#c16272" points="382.51,-2183.1 380.22,-2172.75 375.56,-2182.26 382.51,-2183.1"/>
</g>
<!-- at_daemon_client&#45;&gt;at_daemon_core -->
<g id="edge63" class="edge">
<title>at_daemon_client&#45;&gt;at_daemon_core</title>
<path fill="none" stroke="#c16272" stroke-dasharray="1,5" d="M353.44,-2691.36C363.71,-2612.11 384.26,-2281.11 385.3,-2183.02"/>
<polygon fill="#c16272" stroke="#c16272" points="388.8,-2182.76 385.33,-2172.75 381.8,-2182.74 388.8,-2182.76"/>
</g>
<!-- at_daemon_core&#45;&gt;at_commons -->
<g id="edge65" class="edge">
<title>at_daemon_core&#45;&gt;at_commons</title>
<path fill="none" stroke="#7eceb0" d="M384.7,-2136.3C388.31,-2071.56 404.91,-1837.21 462.84,-1654.52 623.16,-1148.89 795.39,-1069.2 1167.84,-691.52 1333.52,-523.51 1533.73,-322.11 1602.37,-253.1"/>
<polygon fill="#7eceb0" stroke="#7eceb0" points="1605.14,-255.28 1609.71,-245.73 1600.18,-250.35 1605.14,-255.28"/>
</g>
<!-- at_daemon_core&#45;&gt;at_utils -->
<g id="edge64" class="edge">
<title>at_daemon_core&#45;&gt;at_utils</title>
<path fill="none" stroke="#75e849" d="M386.55,-2136.22C406.39,-2010.69 530.09,-1242.38 597.84,-1164.52 929.48,-783.38 1609.54,-721.97 1790.04,-712.29"/>
<polygon fill="#75e849" stroke="#75e849" points="1790.41,-715.78 1800.22,-711.77 1790.06,-708.79 1790.41,-715.78"/>
</g>
<!-- at_daemon_desktop -->
<g id="node18" class="node">
<title>at_daemon_desktop</title>
<polygon fill="none" stroke="#89d485" points="515.34,-3229.52 358.34,-3229.52 358.34,-3193.52 515.34,-3193.52 515.34,-3229.52"/>
<text text-anchor="middle" x="436.84" y="-3207.82" font-family="Times,serif" font-size="14.00">at_daemon_desktop</text>
</g>
<!-- at_daemon_server&#45;&gt;at_client -->
<g id="edge66" class="edge">
<title>at_daemon_server&#45;&gt;at_client</title>
<path fill="none" stroke="#61d4fc" d="M583.92,-2692.64C962.36,-2610.41 2693.89,-2234.17 3007.17,-2166.09"/>
<polygon fill="#61d4fc" stroke="#61d4fc" points="3008.26,-2169.44 3017.29,-2163.9 3006.78,-2162.6 3008.26,-2169.44"/>
</g>
<!-- at_daemon_server&#45;&gt;at_daemon_core -->
<g id="edge67" class="edge">
<title>at_daemon_server&#45;&gt;at_daemon_core</title>
<path fill="none" stroke="#c16272" d="M504.35,-2691.36C480.73,-2612.03 404.38,-2280.44 386.95,-2182.73"/>
<polygon fill="#c16272" stroke="#c16272" points="390.38,-2182.02 385.24,-2172.75 383.48,-2183.2 390.38,-2182.02"/>
</g>
<!-- at_daemon_server&#45;&gt;at_daemon_core -->
<g id="edge70" class="edge">
<title>at_daemon_server&#45;&gt;at_daemon_core</title>
<path fill="none" stroke="#c16272" stroke-dasharray="1,5" d="M509.44,-2691.36C496.61,-2611.95 420.51,-2279.76 393.14,-2182.43"/>
<polygon fill="#c16272" stroke="#c16272" points="396.48,-2181.39 390.35,-2172.75 389.75,-2183.33 396.48,-2181.39"/>
</g>
<!-- at_daemon_server&#45;&gt;at_onboarding_cli -->
<g id="edge69" class="edge">
<title>at_daemon_server&#45;&gt;at_onboarding_cli</title>
<path fill="none" stroke="#514d2d" d="M584.03,-2709.52C933.86,-2709.52 1283.69,-2709.52 1633.52,-2709.52"/>
<polygon fill="#514d2d" stroke="#514d2d" points="1633.61,-2713.02 1643.61,-2709.52 1633.61,-2706.02 1633.61,-2713.02"/>
</g>
<!-- at_server_spec -->
<g id="node39" class="node">
<title>at_server_spec</title>
<polygon fill="none" stroke="#e6f023" points="837.84,-1690.52 715.84,-1690.52 715.84,-1654.52 837.84,-1654.52 837.84,-1690.52"/>
<text text-anchor="middle" x="776.84" y="-1668.82" font-family="Times,serif" font-size="14.00">at_server_spec</text>
</g>
<!-- at_daemon_server&#45;&gt;at_server_spec -->
<g id="edge68" class="edge">
<title>at_daemon_server&#45;&gt;at_server_spec</title>
<path fill="none" stroke="#e6f023" d="M515.23,-2691.42C546.2,-2570.91 731.49,-1849.96 769.88,-1700.6"/>
<polygon fill="#e6f023" stroke="#e6f023" points="773.28,-1701.4 772.38,-1690.85 766.5,-1699.66 773.28,-1701.4"/>
</g>
<!-- at_dump_atKeys -->
<g id="node20" class="node">
<title>at_dump_atKeys</title>
<polygon fill="none" stroke="#80b159" points="2624.34,-3229.52 2491.34,-3229.52 2491.34,-3193.52 2624.34,-3193.52 2624.34,-3229.52"/>
<text text-anchor="middle" x="2557.84" y="-3207.82" font-family="Times,serif" font-size="14.00">at_dump_atKeys</text>
</g>
<!-- at_pkam -->
<g id="node34" class="node">
<title>at_pkam</title>
<polygon fill="none" stroke="#d549ec" points="2596.34,-2727.52 2519.34,-2727.52 2519.34,-2691.52 2596.34,-2691.52 2596.34,-2727.52"/>
<text text-anchor="middle" x="2557.84" y="-2705.82" font-family="Times,serif" font-size="14.00">at_pkam</text>
</g>
<!-- at_dump_atKeys&#45;&gt;at_pkam -->
<g id="edge71" class="edge">
<title>at_dump_atKeys&#45;&gt;at_pkam</title>
<path fill="none" stroke="#d549ec" stroke-dasharray="1,5" d="M2557.84,-3193.31C2557.84,-3119.38 2557.84,-2828.45 2557.84,-2737.71"/>
<polygon fill="#d549ec" stroke="#d549ec" points="2561.34,-2737.66 2557.84,-2727.66 2554.34,-2737.66 2561.34,-2737.66"/>
</g>
<!-- at_events_flutter -->
<g id="node21" class="node">
<title>at_events_flutter</title>
<polygon fill="none" stroke="#5b74f7" points="4058.34,-4212.52 3921.34,-4212.52 3921.34,-4176.52 4058.34,-4176.52 4058.34,-4212.52"/>
<text text-anchor="middle" x="3989.84" y="-4190.82" font-family="Times,serif" font-size="14.00">at_events_flutter</text>
</g>
<!-- at_events_flutter&#45;&gt;at_client -->
<g id="edge72" class="edge">
<title>at_events_flutter&#45;&gt;at_client</title>
<path fill="none" stroke="#61d4fc" d="M3935.07,-4176.48C3792.38,-4129.36 3405.75,-3983.75 3195.84,-3730.52 2895.11,-3367.74 3016.8,-3154.58 3028.84,-2683.52 3033.73,-2491.99 3048.59,-2261.77 3053.92,-2183.28"/>
<polygon fill="#61d4fc" stroke="#61d4fc" points="3057.44,-2183.04 3054.63,-2172.83 3050.46,-2182.57 3057.44,-2183.04"/>
</g>
<!-- at_events_flutter&#45;&gt;at_client_mobile -->
<g id="edge73" class="edge">
<title>at_events_flutter&#45;&gt;at_client_mobile</title>
<path fill="none" stroke="#d9577c" d="M3921.06,-4176.67C3762.82,-4133.75 3374.6,-4003.87 3218.84,-3730.52 3022.05,-3385.17 3165.73,-2861.28 3204.12,-2737.43"/>
<polygon fill="#d9577c" stroke="#d9577c" points="3207.54,-2738.22 3207.2,-2727.63 3200.87,-2736.13 3207.54,-2738.22"/>
</g>
<!-- at_events_flutter&#45;&gt;at_common_flutter -->
<g id="edge74" class="edge">
<title>at_events_flutter&#45;&gt;at_common_flutter</title>
<path fill="none" stroke="#bf681f" d="M4007.66,-4176.44C4067.43,-4118.46 4263.86,-3922.1 4386.84,-3730.52 4456.36,-3622.21 4660.74,-3308.97 4603.84,-3193.52 4480.01,-2942.32 4155.85,-2785.37 4027.89,-2731.49"/>
<polygon fill="#bf681f" stroke="#bf681f" points="4029.23,-2728.26 4018.66,-2727.64 4026.54,-2734.72 4029.23,-2728.26"/>
</g>
<!-- at_events_flutter&#45;&gt;at_commons -->
<g id="edge75" class="edge">
<title>at_events_flutter&#45;&gt;at_commons</title>
<path fill="none" stroke="#7eceb0" d="M4018.76,-4176.43C4196.85,-4068.78 5136.84,-3464.84 5136.84,-2710.52 5136.84,-2710.52 5136.84,-2710.52 5136.84,-1189.52 5136.84,-866.94 4898.76,-832.95 4608.84,-691.52 4064.2,-425.84 2068.93,-262.25 1689.41,-233.19"/>
<polygon fill="#7eceb0" stroke="#7eceb0" points="1689.67,-229.7 1679.44,-232.43 1689.14,-236.68 1689.67,-229.7"/>
</g>
<!-- at_events_flutter&#45;&gt;at_contact -->
<g id="edge76" class="edge">
<title>at_events_flutter&#45;&gt;at_contact</title>
<path fill="none" stroke="#250aa2" d="M3921.22,-4180.3C3543.82,-4105.97 1728.39,-3726.72 1464.84,-3260.52 1042.09,-2512.73 1739.78,-1398.49 1859.72,-1216.93"/>
<polygon fill="#250aa2" stroke="#250aa2" points="1862.68,-1218.81 1865.3,-1208.54 1856.85,-1214.94 1862.68,-1218.81"/>
</g>
<!-- at_events_flutter&#45;&gt;at_contacts_flutter -->
<g id="edge77" class="edge">
<title>at_events_flutter&#45;&gt;at_contacts_flutter</title>
<path fill="none" stroke="#1267b5" d="M3995.3,-4176.49C4032.64,-4060.2 4249.99,-3383.34 4296.2,-3239.42"/>
<polygon fill="#1267b5" stroke="#1267b5" points="4299.62,-3240.22 4299.34,-3229.63 4292.95,-3238.08 4299.62,-3240.22"/>
</g>
<!-- at_events_flutter&#45;&gt;at_contacts_group_flutter -->
<g id="edge78" class="edge">
<title>at_events_flutter&#45;&gt;at_contacts_group_flutter</title>
<path fill="none" stroke="#dae1d2" d="M3989.84,-4176.44C3989.84,-4104.85 3989.84,-3828.7 3989.84,-3740.66"/>
<polygon fill="#dae1d2" stroke="#dae1d2" points="3993.34,-3740.65 3989.84,-3730.65 3986.34,-3740.65 3993.34,-3740.65"/>
</g>
<!-- at_location_flutter -->
<g id="node25" class="node">
<title>at_location_flutter</title>
<polygon fill="none" stroke="#283e9c" points="4377.84,-3730.52 4231.84,-3730.52 4231.84,-3694.52 4377.84,-3694.52 4377.84,-3730.52"/>
<text text-anchor="middle" x="4304.84" y="-3708.82" font-family="Times,serif" font-size="14.00">at_location_flutter</text>
</g>
<!-- at_events_flutter&#45;&gt;at_location_flutter -->
<g id="edge79" class="edge">
<title>at_events_flutter&#45;&gt;at_location_flutter</title>
<path fill="none" stroke="#283e9c" d="M4001.05,-4176.44C4048.31,-4104.42 4231.47,-3825.32 4288.07,-3739.06"/>
<polygon fill="#283e9c" stroke="#283e9c" points="4291.03,-3740.93 4293.6,-3730.65 4285.18,-3737.09 4291.03,-3740.93"/>
</g>
<!-- at_events_flutter&#45;&gt;at_lookup -->
<g id="edge80" class="edge">
<title>at_events_flutter&#45;&gt;at_lookup</title>
<path fill="none" stroke="#94d42d" d="M3921.04,-4178.64C3551.47,-4097.18 1807.4,-3693.16 1507.84,-3260.52 1134.98,-2722.03 1732.04,-1857.11 1847.93,-1698.82"/>
<polygon fill="#94d42d" stroke="#94d42d" points="1850.86,-1700.73 1853.97,-1690.6 1845.22,-1696.58 1850.86,-1700.73"/>
</g>
<!-- at_events_flutter&#45;&gt;at_utils -->
<g id="edge81" class="edge">
<title>at_events_flutter&#45;&gt;at_utils</title>
<path fill="none" stroke="#75e849" d="M4016.44,-4176.43C4141.68,-4094.16 4673.93,-3723.9 4855.84,-3260.52 4899.31,-3149.79 5143.89,-3538.29 4837.84,-2683.52 4505.56,-1755.51 4111.12,-1589.72 3221.84,-1164.52 2718.69,-923.95 2055.37,-761.43 1879.3,-720.6"/>
<polygon fill="#75e849" stroke="#75e849" points="1879.89,-717.15 1869.36,-718.31 1878.31,-723.97 1879.89,-717.15"/>
</g>
<!-- at_follows_flutter -->
<g id="node22" class="node">
<title>at_follows_flutter</title>
<polygon fill="none" stroke="#13b24b" points="3738.84,-4212.52 3598.84,-4212.52 3598.84,-4176.52 3738.84,-4176.52 3738.84,-4212.52"/>
<text text-anchor="middle" x="3668.84" y="-4190.82" font-family="Times,serif" font-size="14.00">at_follows_flutter</text>
</g>
<!-- at_follows_flutter&#45;&gt;at_client -->
<g id="edge82" class="edge">
<title>at_follows_flutter&#45;&gt;at_client</title>
<path fill="none" stroke="#61d4fc" d="M3615.08,-4176.48C3479.97,-4130.37 3127.27,-3988.91 2990.84,-3730.52 2841.43,-3447.57 3019.21,-2367.39 3051.1,-2182.52"/>
<polygon fill="#61d4fc" stroke="#61d4fc" points="3054.57,-2183 3052.83,-2172.55 3047.67,-2181.8 3054.57,-2183"/>
</g>
<!-- at_follows_flutter&#45;&gt;at_client_mobile -->
<g id="edge83" class="edge">
<title>at_follows_flutter&#45;&gt;at_client_mobile</title>
<path fill="none" stroke="#d9577c" d="M3633.83,-4176.41C3533.92,-4125.36 3247.94,-3963.05 3142.84,-3730.52 2979.1,-3368.26 3155.45,-2859.13 3202.13,-2737.41"/>
<polygon fill="#d9577c" stroke="#d9577c" points="3205.52,-2738.36 3205.87,-2727.77 3199,-2735.83 3205.52,-2738.36"/>
</g>
<!-- at_follows_flutter&#45;&gt;at_commons -->
<g id="edge84" class="edge">
<title>at_follows_flutter&#45;&gt;at_commons</title>
<path fill="none" stroke="#7eceb0" d="M3709.71,-4176.36C3943.3,-4075.27 5098.84,-3533.59 5098.84,-2710.52 5098.84,-2710.52 5098.84,-2710.52 5098.84,-1189.52 5098.84,-453.01 2160.22,-258.29 1689.96,-231.85"/>
<polygon fill="#7eceb0" stroke="#7eceb0" points="1689.82,-228.33 1679.64,-231.27 1689.43,-235.32 1689.82,-228.33"/>
</g>
<!-- at_follows_flutter&#45;&gt;at_lookup -->
<g id="edge85" class="edge">
<title>at_follows_flutter&#45;&gt;at_lookup</title>
<path fill="none" stroke="#94d42d" d="M3620.71,-4176.35C3492.7,-4128.05 3141.93,-3978.18 2970.84,-3730.52 2836.63,-3536.25 2852.84,-3448.64 2852.84,-3212.52 2852.84,-3212.52 2852.84,-3212.52 2852.84,-2708.52 2852.84,-2158.52 2113.88,-1785.12 1915.41,-1694.75"/>
<polygon fill="#94d42d" stroke="#94d42d" points="1916.65,-1691.47 1906.1,-1690.54 1913.77,-1697.85 1916.65,-1691.47"/>
</g>
<!-- at_server_status -->
<g id="node40" class="node">
<title>at_server_status</title>
<polygon fill="none" stroke="#320113" points="1921.84,-2172.52 1787.84,-2172.52 1787.84,-2136.52 1921.84,-2136.52 1921.84,-2172.52"/>
<text text-anchor="middle" x="1854.84" y="-2150.82" font-family="Times,serif" font-size="14.00">at_server_status</text>
</g>
<!-- at_follows_flutter&#45;&gt;at_server_status -->
<g id="edge86" class="edge">
<title>at_follows_flutter&#45;&gt;at_server_status</title>
<path fill="none" stroke="#320113" d="M3603.73,-4176.51C3358.44,-4108.78 2483.73,-3833.69 2083.84,-3260.52 1830.6,-2897.55 1845.97,-2314.74 1853.09,-2182.7"/>
<polygon fill="#320113" stroke="#320113" points="1856.58,-2182.84 1853.66,-2172.65 1849.6,-2182.44 1856.58,-2182.84"/>
</g>
<!-- at_follows_flutter&#45;&gt;at_utils -->
<g id="edge87" class="edge">
<title>at_follows_flutter&#45;&gt;at_utils</title>
<path fill="none" stroke="#75e849" d="M3598.54,-4185.69C3147.33,-4133.9 662.41,-3825.22 210.84,-3260.52 -84.36,-2891.36 233.46,-1493.52 572.84,-1164.52 941.44,-807.19 1611.23,-728.6 1789.99,-713.68"/>
<polygon fill="#75e849" stroke="#75e849" points="1790.39,-717.16 1800.08,-712.86 1789.83,-710.18 1790.39,-717.16"/>
</g>
<!-- at_hive_recovery -->
<g id="node23" class="node">
<title>at_hive_recovery</title>
<polygon fill="none" stroke="#f0efbc" points="2263.34,-3229.52 2126.34,-3229.52 2126.34,-3193.52 2263.34,-3193.52 2263.34,-3229.52"/>
<text text-anchor="middle" x="2194.84" y="-3207.82" font-family="Times,serif" font-size="14.00">at_hive_recovery</text>
</g>
<!-- at_hive_recovery&#45;&gt;at_persistence_secondary_server -->
<g id="edge88" class="edge">
<title>at_hive_recovery&#45;&gt;at_persistence_secondary_server</title>
<path fill="none" stroke="#9760d3" d="M2190.42,-3193.28C2171.43,-3122.03 2090.4,-2846.71 1933.84,-2683.52 1626.48,-2363.17 1284.09,-2585.49 1057.84,-2203.52 954.05,-2028.3 1127.74,-1778.27 1189.4,-1698.79"/>
<polygon fill="#9760d3" stroke="#9760d3" points="1192.25,-1700.82 1195.67,-1690.79 1186.75,-1696.5 1192.25,-1700.82"/>
</g>
<!-- at_invitation_flutter -->
<g id="node24" class="node">
<title>at_invitation_flutter</title>
<polygon fill="none" stroke="#b653c9" points="4594.84,-3229.52 4436.84,-3229.52 4436.84,-3193.52 4594.84,-3193.52 4594.84,-3229.52"/>
<text text-anchor="middle" x="4515.84" y="-3207.82" font-family="Times,serif" font-size="14.00">at_invitation_flutter</text>
</g>
<!-- at_invitation_flutter&#45;&gt;at_client_mobile -->
<g id="edge89" class="edge">
<title>at_invitation_flutter&#45;&gt;at_client_mobile</title>
<path fill="none" stroke="#d9577c" d="M4471.36,-3193.45C4274.46,-3117.9 3481.46,-2813.6 3266.7,-2731.19"/>
<polygon fill="#d9577c" stroke="#d9577c" points="3267.8,-2727.86 3257.21,-2727.55 3265.29,-2734.4 3267.8,-2727.86"/>
</g>
<!-- at_invitation_flutter&#45;&gt;at_common_flutter -->
<g id="edge90" class="edge">
<title>at_invitation_flutter&#45;&gt;at_common_flutter</title>
<path fill="none" stroke="#bf681f" d="M4497.21,-3193.31C4416.25,-3118.48 4094.73,-2821.32 4000.76,-2734.48"/>
<polygon fill="#bf681f" stroke="#bf681f" points="4003.1,-2731.88 3993.38,-2727.66 3998.35,-2737.02 4003.1,-2731.88"/>
</g>
<!-- at_invitation_flutter&#45;&gt;at_commons -->
<g id="edge91" class="edge">
<title>at_invitation_flutter&#45;&gt;at_commons</title>
<path fill="none" stroke="#7eceb0" d="M4521.76,-3193.49C4573.6,-3041.27 4938.59,-1902.66 4522.84,-1164.52 4373.98,-900.23 4300.17,-831.05 4030.84,-691.52 3184.61,-253.13 1976.47,-227.5 1689.62,-227.89"/>
<polygon fill="#7eceb0" stroke="#7eceb0" points="1689.41,-224.39 1679.42,-227.91 1689.42,-231.39 1689.41,-224.39"/>
</g>
<!-- at_invitation_flutter&#45;&gt;at_lookup -->
<g id="edge92" class="edge">
<title>at_invitation_flutter&#45;&gt;at_lookup</title>
<path fill="none" stroke="#94d42d" d="M4486.11,-3193.48C4391.97,-3138.63 4094.72,-2958.57 3891.84,-2758.52 3643.09,-2513.25 3708.72,-2327.85 3421.84,-2128.52 2912.99,-1774.96 2128.5,-1692.97 1919.49,-1676.97"/>
<polygon fill="#94d42d" stroke="#94d42d" points="1919.63,-1673.47 1909.4,-1676.22 1919.11,-1680.45 1919.63,-1673.47"/>
</g>
<!-- at_invitation_flutter&#45;&gt;at_utils -->
<g id="edge93" class="edge">
<title>at_invitation_flutter&#45;&gt;at_utils</title>
<path fill="none" stroke="#75e849" d="M4520.63,-3193.15C4538.58,-3124.68 4596.79,-2868.25 4516.84,-2683.52 4106.16,-1734.64 3638.26,-1701.74 2754.84,-1164.52 2432.66,-968.6 2014.18,-786.24 1879,-729"/>
<polygon fill="#75e849" stroke="#75e849" points="1879.97,-725.61 1869.39,-724.94 1877.24,-732.05 1879.97,-725.61"/>
</g>
<!-- at_location_flutter&#45;&gt;at_client -->
<g id="edge94" class="edge">
<title>at_location_flutter&#45;&gt;at_client</title>
<path fill="none" stroke="#61d4fc" d="M4240.7,-3694.47C4080.56,-3649.03 3657.72,-3511.1 3401.84,-3260.52 3076.01,-2941.45 3055.94,-2320.14 3055.6,-2182.82"/>
<polygon fill="#61d4fc" stroke="#61d4fc" points="3059.1,-2182.74 3055.61,-2172.74 3052.1,-2182.74 3059.1,-2182.74"/>
</g>
<!-- at_location_flutter&#45;&gt;at_client_mobile -->
<g id="edge95" class="edge">
<title>at_location_flutter&#45;&gt;at_client_mobile</title>
<path fill="none" stroke="#d9577c" d="M4241.81,-3694.5C4086.18,-3649.47 3679.47,-3512.98 3446.84,-3260.52 3370.09,-3177.23 3254.08,-2836.07 3221.57,-2737.38"/>
<polygon fill="#d9577c" stroke="#d9577c" points="3224.8,-2735.99 3218.36,-2727.58 3218.15,-2738.17 3224.8,-2735.99"/>
</g>
<!-- at_location_flutter&#45;&gt;at_common_flutter -->
<g id="edge96" class="edge">
<title>at_location_flutter&#45;&gt;at_common_flutter</title>
<path fill="none" stroke="#bf681f" d="M4314.4,-3694.38C4350.2,-3627.88 4470.68,-3381.29 4399.84,-3193.52 4318.45,-2977.81 4092.01,-2795.95 4007.34,-2733.59"/>
<polygon fill="#bf681f" stroke="#bf681f" points="4009.27,-2730.66 3999.13,-2727.59 4005.14,-2736.31 4009.27,-2730.66"/>
</g>
<!-- at_location_flutter&#45;&gt;at_commons -->
<g id="edge97" class="edge">
<title>at_location_flutter&#45;&gt;at_commons</title>
<path fill="none" stroke="#7eceb0" d="M4334.67,-3694.36C4424.02,-3641.49 4692.15,-3471.8 4835.84,-3260.52 4981.02,-3047.02 5022.84,-2968.71 5022.84,-2710.52 5022.84,-2710.52 5022.84,-2710.52 5022.84,-1189.52 5022.84,-859.76 4770.22,-834.01 4472.84,-691.52 3952.06,-441.99 2058.4,-266.17 1689.4,-233.88"/>
<polygon fill="#7eceb0" stroke="#7eceb0" points="1689.71,-230.39 1679.44,-233.01 1689.1,-237.36 1689.71,-230.39"/>
</g>
<!-- at_location_flutter&#45;&gt;at_contact -->
<g id="edge98" class="edge">
<title>at_location_flutter&#45;&gt;at_contact</title>
<path fill="none" stroke="#250aa2" d="M4349.06,-3694.42C4488.05,-3637.72 4901.5,-3445.2 4808.84,-3193.52 4498.38,-2350.33 4253.47,-2140.7 3497.84,-1654.52 2956.59,-1306.28 2149.14,-1214.68 1932.16,-1195.77"/>
<polygon fill="#250aa2" stroke="#250aa2" points="1932.24,-1192.26 1921.98,-1194.9 1931.65,-1199.24 1932.24,-1192.26"/>
</g>
<!-- at_location_flutter&#45;&gt;at_contacts_flutter -->
<g id="edge99" class="edge">
<title>at_location_flutter&#45;&gt;at_contacts_flutter</title>
<path fill="none" stroke="#1267b5" d="M4304.84,-3694.34C4304.84,-3620.57 4304.84,-3330.22 4304.84,-3239.65"/>
<polygon fill="#1267b5" stroke="#1267b5" points="4308.34,-3239.62 4304.84,-3229.62 4301.34,-3239.62 4308.34,-3239.62"/>
</g>
<!-- at_location_flutter&#45;&gt;at_lookup -->
<g id="edge100" class="edge">
<title>at_location_flutter&#45;&gt;at_lookup</title>
<path fill="none" stroke="#94d42d" d="M4253.66,-3694.35C4121.83,-3647.41 3768.5,-3503.96 3589.84,-3260.52 3551.35,-3208.08 3335.64,-2175.67 3290.84,-2128.52 2897.24,-1714.31 2127.45,-1676.02 1919.61,-1673.42"/>
<polygon fill="#94d42d" stroke="#94d42d" points="1919.61,-1669.92 1909.57,-1673.32 1919.54,-1676.92 1919.61,-1669.92"/>
</g>
<!-- at_location_flutter&#45;&gt;at_utils -->
<g id="edge101" class="edge">
<title>at_location_flutter&#45;&gt;at_utils</title>
<path fill="none" stroke="#75e849" d="M4341.12,-3694.38C4441.85,-3644.47 4724.37,-3488.26 4828.84,-3260.52 5054.77,-2767.97 4678.89,-2577.76 4375.84,-2128.52 3719.66,-1155.84 2162.63,-780.93 1879.43,-719.75"/>
<polygon fill="#75e849" stroke="#75e849" points="1880.03,-716.3 1869.52,-717.63 1878.56,-723.14 1880.03,-716.3"/>
</g>
<!-- at_login_flutter -->
<g id="node26" class="node">
<title>at_login_flutter</title>
<polygon fill="none" stroke="#7ceee7" points="4201.34,-4212.52 4076.34,-4212.52 4076.34,-4176.52 4201.34,-4176.52 4201.34,-4212.52"/>
<text text-anchor="middle" x="4138.84" y="-4190.82" font-family="Times,serif" font-size="14.00">at_login_flutter</text>
</g>
<!-- at_login_flutter&#45;&gt;at_client -->
<g id="edge102" class="edge">
<title>at_login_flutter&#45;&gt;at_client</title>
<path fill="none" stroke="#61d4fc" d="M4110.02,-4176.4C4018.21,-4120.85 3727.39,-3937.27 3536.84,-3730.52 3368.24,-3547.59 3337.67,-3486.13 3232.84,-3260.52 3134.55,-3049 3118.79,-2988.49 3079.84,-2758.52 3042.7,-2539.32 3050.64,-2269.2 3054.44,-2183.19"/>
<polygon fill="#61d4fc" stroke="#61d4fc" points="3057.95,-2183.11 3054.91,-2172.96 3050.96,-2182.78 3057.95,-2183.11"/>
</g>
<!-- at_login_flutter&#45;&gt;at_client_mobile -->
<g id="edge103" class="edge">
<title>at_login_flutter&#45;&gt;at_client_mobile</title>
<path fill="none" stroke="#d9577c" d="M4111.14,-4176.39C3982.09,-4094.66 3438.88,-3728.85 3267.84,-3260.52 3198.37,-3070.3 3206.05,-2819.96 3210.9,-2737.87"/>
<polygon fill="#d9577c" stroke="#d9577c" points="3214.4,-2738.05 3211.53,-2727.85 3207.41,-2737.61 3214.4,-2738.05"/>
</g>
<!-- at_login_flutter&#45;&gt;at_commons -->
<g id="edge104" class="edge">
<title>at_login_flutter&#45;&gt;at_commons</title>
<path fill="none" stroke="#7eceb0" d="M4185.7,-4176.49C4387.83,-4099.69 5174.84,-3765.21 5174.84,-3212.52 5174.84,-3212.52 5174.84,-3212.52 5174.84,-1189.52 5174.84,-870.16 4943.33,-832.63 4656.84,-691.52 4104.23,-419.34 2073.02,-260.79 1689.52,-232.95"/>
<polygon fill="#7eceb0" stroke="#7eceb0" points="1689.68,-229.45 1679.45,-232.22 1689.17,-236.43 1689.68,-229.45"/>
</g>
<!-- at_login_flutter&#45;&gt;at_server_status -->
<g id="edge105" class="edge">
<title>at_login_flutter&#45;&gt;at_server_status</title>
<path fill="none" stroke="#320113" d="M4096.19,-4176.51C3816.94,-4064.79 2256.43,-3435.18 2113.84,-3260.52 2041.89,-3172.39 1888.97,-2343.99 1859.73,-2182.67"/>
<polygon fill="#320113" stroke="#320113" points="1863.13,-2181.84 1857.91,-2172.63 1856.24,-2183.09 1863.13,-2181.84"/>
</g>
<!-- at_login_flutter&#45;&gt;at_utils -->
<g id="edge106" class="edge">
<title>at_login_flutter&#45;&gt;at_utils</title>
<path fill="none" stroke="#75e849" d="M4163.46,-4176.3C4280.4,-4092.76 4780.4,-3715.07 4935.84,-3260.52 5105.04,-2765.7 4903.27,-2564.73 4614.84,-2128.52 3917.49,-1073.89 2181.49,-763.71 1879.86,-717.09"/>
<polygon fill="#75e849" stroke="#75e849" points="1880.16,-713.59 1869.74,-715.54 1879.1,-720.51 1880.16,-713.59"/>
</g>
<!-- at_lookup&#45;&gt;at_chops -->
<g id="edge109" class="edge">
<title>at_lookup&#45;&gt;at_chops</title>
<path fill="none" stroke="#8fb4d4" d="M1861.43,-1654.44C1838.74,-1582.78 1751.13,-1306.14 1723.34,-1218.39"/>
<polygon fill="#8fb4d4" stroke="#8fb4d4" points="1726.62,-1217.13 1720.26,-1208.65 1719.94,-1219.24 1726.62,-1217.13"/>
</g>
<!-- at_lookup&#45;&gt;at_commons -->
<g id="edge108" class="edge">
<title>at_lookup&#45;&gt;at_commons</title>
<path fill="none" stroke="#7eceb0" d="M1863.97,-1654.31C1839.27,-1505.75 1662.2,-441.15 1631.4,-255.95"/>
<polygon fill="#7eceb0" stroke="#7eceb0" points="1634.83,-255.24 1629.73,-245.95 1627.92,-256.39 1634.83,-255.24"/>
</g>
<!-- at_lookup&#45;&gt;at_utils -->
<g id="edge107" class="edge">
<title>at_lookup&#45;&gt;at_utils</title>
<path fill="none" stroke="#75e849" d="M1864.61,-1654.32C1856.86,-1593.55 1831.11,-1383.14 1822.84,-1208.52 1821.91,-1188.99 1822.58,-1184.07 1822.84,-1164.52 1824.97,-1002.87 1831.38,-808.94 1833.85,-738.12"/>
<polygon fill="#75e849" stroke="#75e849" points="1837.36,-737.95 1834.21,-727.84 1830.36,-737.71 1837.36,-737.95"/>
</g>
<!-- at_notify_flutter -->
<g id="node28" class="node">
<title>at_notify_flutter</title>
<polygon fill="none" stroke="#19e4c3" points="4073.34,-3229.52 3942.34,-3229.52 3942.34,-3193.52 4073.34,-3193.52 4073.34,-3229.52"/>
<text text-anchor="middle" x="4007.84" y="-3207.82" font-family="Times,serif" font-size="14.00">at_notify_flutter</text>
</g>
<!-- at_notify_flutter&#45;&gt;at_client -->
<g id="edge110" class="edge">
<title>at_notify_flutter&#45;&gt;at_client</title>
<path fill="none" stroke="#61d4fc" d="M3976.91,-3193.44C3881.97,-3139.82 3590.02,-2966.01 3406.84,-2758.52 3381.41,-2729.72 3383.07,-2716.78 3363.84,-2683.52 3252.26,-2490.58 3116.46,-2258.85 3071.28,-2181.83"/>
<polygon fill="#61d4fc" stroke="#61d4fc" points="3074.07,-2179.67 3065.99,-2172.81 3068.03,-2183.21 3074.07,-2179.67"/>
</g>
<!-- at_notify_flutter&#45;&gt;at_client_mobile -->
<g id="edge111" class="edge">
<title>at_notify_flutter&#45;&gt;at_client_mobile</title>
<path fill="none" stroke="#d9577c" d="M3980.47,-3193.31C3860.9,-3118.11 3384.26,-2818.34 3248.87,-2733.18"/>
<polygon fill="#d9577c" stroke="#d9577c" points="3250.42,-2730.02 3240.09,-2727.66 3246.69,-2735.95 3250.42,-2730.02"/>
</g>
<!-- at_notify_flutter&#45;&gt;at_common_flutter -->
<g id="edge112" class="edge">
<title>at_notify_flutter&#45;&gt;at_common_flutter</title>
<path fill="none" stroke="#bf681f" d="M4006.7,-3193.31C4001.82,-3119.38 3982.62,-2828.45 3976.63,-2737.71"/>
<polygon fill="#bf681f" stroke="#bf681f" points="3980.12,-2737.41 3975.97,-2727.66 3973.13,-2737.87 3980.12,-2737.41"/>
</g>
<!-- at_notify_flutter&#45;&gt;at_commons -->
<g id="edge113" class="edge">
<title>at_notify_flutter&#45;&gt;at_commons</title>
<path fill="none" stroke="#7eceb0" d="M4021.76,-3193.36C4098.35,-3097.19 4464.84,-2613.12 4464.84,-2155.52 4464.84,-2155.52 4464.84,-2155.52 4464.84,-1189.52 4464.84,-582.57 2106.63,-283.63 1689.5,-235.5"/>
<polygon fill="#7eceb0" stroke="#7eceb0" points="1689.77,-232.01 1679.44,-234.34 1688.98,-238.96 1689.77,-232.01"/>
</g>
<!-- at_onboarding_cli&#45;&gt;at_auth -->
<g id="edge114" class="edge">
<title>at_onboarding_cli&#45;&gt;at_auth</title>
<path fill="none" stroke="#0f9477" d="M1714.84,-2691.36C1714.84,-2612.11 1714.84,-2281.11 1714.84,-2183.02"/>
<polygon fill="#0f9477" stroke="#0f9477" points="1718.34,-2182.75 1714.84,-2172.75 1711.34,-2182.75 1718.34,-2182.75"/>
</g>
<!-- at_onboarding_cli&#45;&gt;at_chops -->
<g id="edge115" class="edge">
<title>at_onboarding_cli&#45;&gt;at_chops</title>
<path fill="none" stroke="#8fb4d4" d="M1712.77,-2691.11C1705.22,-2626.63 1679.17,-2395.19 1670.84,-2203.52 1653.83,-1812.48 1699.65,-1336.44 1711.91,-1218.78"/>
<polygon fill="#8fb4d4" stroke="#8fb4d4" points="1715.42,-1218.84 1712.99,-1208.53 1708.46,-1218.11 1715.42,-1218.84"/>
</g>
<!-- at_onboarding_cli&#45;&gt;at_cli_commons -->
<g id="edge121" class="edge">
<title>at_onboarding_cli&#45;&gt;at_cli_commons</title>
<path fill="none" stroke="#c99192" d="M1722.4,-2727.66C1748.76,-2801.52 1832.32,-3092.96 1853.38,-3183.52"/>
<polygon fill="#c99192" stroke="#c99192" points="1849.98,-3184.32 1855.58,-3193.31 1856.81,-3182.79 1849.98,-3184.32"/>
</g>
<!-- at_onboarding_cli&#45;&gt;at_client -->
<g id="edge116" class="edge">
<title>at_onboarding_cli&#45;&gt;at_client</title>
<path fill="none" stroke="#61d4fc" d="M1756.07,-2691.52C1953.04,-2610.29 2797.25,-2262.16 3008.01,-2175.24"/>
<polygon fill="#61d4fc" stroke="#61d4fc" points="3009.37,-2178.47 3017.28,-2171.42 3006.7,-2172 3009.37,-2178.47"/>
</g>
<!-- at_onboarding_cli&#45;&gt;at_commons -->
<g id="edge117" class="edge">
<title>at_onboarding_cli&#45;&gt;at_commons</title>
<path fill="none" stroke="#7eceb0" d="M1712.28,-2691.13C1702.93,-2626.7 1670.43,-2395.42 1656.84,-2203.52 1609.33,-1532.97 1609.58,-1363.72 1616.84,-691.52 1618.62,-526.3 1623.98,-327.98 1626.03,-256.17"/>
<polygon fill="#7eceb0" stroke="#7eceb0" points="1629.54,-255.85 1626.33,-245.76 1622.54,-255.65 1629.54,-255.85"/>
</g>
<!-- at_onboarding_cli&#45;&gt;at_lookup -->
<g id="edge118" class="edge">
<title>at_onboarding_cli&#45;&gt;at_lookup</title>
<path fill="none" stroke="#94d42d" d="M1716.22,-2691.37C1721.96,-2621.29 1745.27,-2349.88 1778.84,-2128.52 1803.62,-1965.09 1845.3,-1770.92 1860.8,-1700.62"/>
<polygon fill="#94d42d" stroke="#94d42d" points="1864.23,-1701.31 1862.97,-1690.79 1857.39,-1699.8 1864.23,-1701.31"/>
</g>
<!-- at_onboarding_cli&#45;&gt;at_persistence_secondary_server -->
<g id="edge122" class="edge">
<title>at_onboarding_cli&#45;&gt;at_persistence_secondary_server</title>
<path fill="none" stroke="#9760d3" d="M1667.52,-2691.44C1536.14,-2641.09 1167.36,-2479.24 1027.84,-2203.52 934.6,-2019.26 1121.1,-1776.18 1187.55,-1698.51"/>
<polygon fill="#9760d3" stroke="#9760d3" points="1190.42,-1700.54 1194.32,-1690.69 1185.13,-1695.96 1190.42,-1700.54"/>
</g>
<!-- at_onboarding_cli&#45;&gt;at_server_status -->
<g id="edge119" class="edge">
<title>at_onboarding_cli&#45;&gt;at_server_status</title>
<path fill="none" stroke="#320113" d="M1719.18,-2691.36C1739.26,-2612.03 1823.21,-2280.44 1847.95,-2182.73"/>
<polygon fill="#320113" stroke="#320113" points="1851.41,-2183.3 1850.47,-2172.75 1844.63,-2181.59 1851.41,-2183.3"/>
</g>
<!-- at_onboarding_cli&#45;&gt;at_utils -->
<g id="edge120" class="edge">
<title>at_onboarding_cli&#45;&gt;at_utils</title>
<path fill="none" stroke="#75e849" d="M1712.46,-2691.12C1703.77,-2626.68 1673.79,-2395.36 1663.84,-2203.52 1657.85,-2088.23 1639.83,-1278.04 1660.84,-1164.52 1692.39,-994.04 1785.32,-804.86 1820.83,-736.74"/>
<polygon fill="#75e849" stroke="#75e849" points="1824.08,-738.06 1825.63,-727.58 1817.89,-734.81 1824.08,-738.06"/>
</g>
<!-- at_onboarding_flutter -->
<g id="node30" class="node">
<title>at_onboarding_flutter</title>
<polygon fill="none" stroke="#a801a6" points="3768.84,-3730.52 3598.84,-3730.52 3598.84,-3694.52 3768.84,-3694.52 3768.84,-3730.52"/>
<text text-anchor="middle" x="3683.84" y="-3708.82" font-family="Times,serif" font-size="14.00">at_onboarding_flutter</text>
</g>
<!-- at_onboarding_flutter&#45;&gt;at_auth -->
<g id="edge130" class="edge">
<title>at_onboarding_flutter&#45;&gt;at_auth</title>
<path fill="none" stroke="#0f9477" d="M3598.74,-3697.51C3304.79,-3647.59 2337.91,-3470.1 2113.84,-3260.52 1775.91,-2944.45 1723.57,-2320.83 1716.03,-2182.93"/>
<polygon fill="#0f9477" stroke="#0f9477" points="1719.52,-2182.62 1715.51,-2172.81 1712.53,-2182.98 1719.52,-2182.62"/>
</g>
<!-- at_onboarding_flutter&#45;&gt;at_backupkey_flutter -->
<g id="edge123" class="edge">
<title>at_onboarding_flutter&#45;&gt;at_backupkey_flutter</title>
<path fill="none" stroke="#590b92" d="M3689.27,-3694.34C3712.66,-3620.49 3804.76,-3329.63 3833.33,-3239.38"/>
<polygon fill="#590b92" stroke="#590b92" points="3836.74,-3240.21 3836.42,-3229.62 3830.06,-3238.1 3836.74,-3240.21"/>
</g>
<!-- at_onboarding_flutter&#45;&gt;at_client -->
<g id="edge124" class="edge">
<title>at_onboarding_flutter&#45;&gt;at_client</title>
<path fill="none" stroke="#61d4fc" d="M3662.27,-3694.2C3594.32,-3638.52 3382.44,-3456.34 3267.84,-3260.52 3045.41,-2880.47 3050.32,-2312.9 3054.67,-2182.77"/>
<polygon fill="#61d4fc" stroke="#61d4fc" points="3058.17,-2182.64 3055.04,-2172.52 3051.18,-2182.39 3058.17,-2182.64"/>
</g>
<!-- at_onboarding_flutter&#45;&gt;at_client_mobile -->
<g id="edge125" class="edge">
<title>at_onboarding_flutter&#45;&gt;at_client_mobile</title>
<path fill="none" stroke="#d9577c" d="M3661.89,-3694.18C3593.99,-3639.15 3386.41,-3460.26 3294.84,-3260.52 3209.74,-3074.91 3209.28,-2820.57 3211.69,-2737.77"/>
<polygon fill="#d9577c" stroke="#d9577c" points="3215.2,-2737.79 3212.03,-2727.68 3208.2,-2737.55 3215.2,-2737.79"/>
</g>
<!-- at_onboarding_flutter&#45;&gt;at_commons -->
<g id="edge126" class="edge">
<title>at_onboarding_flutter&#45;&gt;at_commons</title>
<path fill="none" stroke="#7eceb0" d="M3769.05,-3704.73C3981.33,-3682.95 4535.91,-3595.14 4803.84,-3260.52 4959.36,-3066.29 4984.84,-2404.35 4984.84,-2155.52 4984.84,-2155.52 4984.84,-2155.52 4984.84,-1189.52 4984.84,-476.39 2150.19,-262.45 1689.7,-232.4"/>
<polygon fill="#7eceb0" stroke="#7eceb0" points="1689.79,-228.89 1679.58,-231.74 1689.33,-235.88 1689.79,-228.89"/>
</g>
<!-- at_onboarding_flutter&#45;&gt;at_server_status -->
<g id="edge127" class="edge">
<title>at_onboarding_flutter&#45;&gt;at_server_status</title>
<path fill="none" stroke="#320113" d="M3664.83,-3694.37C3600.88,-3636.26 3388.75,-3440.44 3232.84,-3260.52 3023.04,-3018.42 3041.98,-2894.42 2800.84,-2683.52 2505.24,-2424.99 2062.55,-2236.95 1909.33,-2176.39"/>
<polygon fill="#320113" stroke="#320113" points="1910.24,-2172.99 1899.66,-2172.59 1907.68,-2179.5 1910.24,-2172.99"/>
</g>
<!-- at_sync_ui_flutter -->
<g id="node41" class="node">
<title>at_sync_ui_flutter</title>
<polygon fill="none" stroke="#27d02d" points="3740.84,-3229.52 3598.84,-3229.52 3598.84,-3193.52 3740.84,-3193.52 3740.84,-3229.52"/>
<text text-anchor="middle" x="3669.84" y="-3207.82" font-family="Times,serif" font-size="14.00">at_sync_ui_flutter</text>
</g>
<!-- at_onboarding_flutter&#45;&gt;at_sync_ui_flutter -->
<g id="edge128" class="edge">
<title>at_onboarding_flutter&#45;&gt;at_sync_ui_flutter</title>
<path fill="none" stroke="#27d02d" d="M3683.35,-3694.34C3681.28,-3620.57 3673.14,-3330.22 3670.6,-3239.65"/>
<polygon fill="#27d02d" stroke="#27d02d" points="3674.1,-3239.52 3670.32,-3229.62 3667.1,-3239.72 3674.1,-3239.52"/>
</g>
<!-- at_onboarding_flutter&#45;&gt;at_utils -->
<g id="edge129" class="edge">
<title>at_onboarding_flutter&#45;&gt;at_utils</title>
<path fill="none" stroke="#75e849" d="M3769.14,-3706.54C3983.12,-3688.88 4542.19,-3609.81 4775.84,-3260.52 4813.75,-3203.85 4851.74,-3154.33 4644.84,-2683.52 4082.56,-1404.06 2193.28,-813.29 1879.25,-722.91"/>
<polygon fill="#75e849" stroke="#75e849" points="1880.16,-719.53 1869.58,-720.14 1878.23,-726.26 1880.16,-719.53"/>
</g>
<!-- at_persistence_root_server -->
<g id="node31" class="node">
<title>at_persistence_root_server</title>
<polygon fill="none" stroke="#831d2e" points="1065.34,-1690.52 856.34,-1690.52 856.34,-1654.52 1065.34,-1654.52 1065.34,-1690.52"/>
<text text-anchor="middle" x="960.84" y="-1668.82" font-family="Times,serif" font-size="14.00">at_persistence_root_server</text>
</g>
<!-- at_persistence_root_server&#45;&gt;at_commons -->
<g id="edge131" class="edge">
<title>at_persistence_root_server&#45;&gt;at_commons</title>
<path fill="none" stroke="#7eceb0" d="M965.51,-1654.4C992.48,-1556.79 1133.85,-1061.84 1325.84,-691.52 1417.03,-515.62 1557.15,-321.99 1607.77,-253.88"/>
<polygon fill="#7eceb0" stroke="#7eceb0" points="1610.59,-255.95 1613.76,-245.85 1604.98,-251.77 1610.59,-255.95"/>
</g>
<!-- at_persistence_root_server&#45;&gt;at_persistence_spec -->
<g id="edge133" class="edge">
<title>at_persistence_root_server&#45;&gt;at_persistence_spec</title>
<path fill="none" stroke="#3bfcef" d="M972.08,-1654.44C1019.5,-1582.42 1203.23,-1303.32 1260.02,-1217.06"/>
<polygon fill="#3bfcef" stroke="#3bfcef" points="1262.98,-1218.93 1265.56,-1208.65 1257.14,-1215.08 1262.98,-1218.93"/>
</g>
<!-- at_persistence_root_server&#45;&gt;at_utils -->
<g id="edge132" class="edge">
<title>at_persistence_root_server&#45;&gt;at_utils</title>
<path fill="none" stroke="#75e849" d="M964.07,-1654.38C977.69,-1585.85 1035.95,-1327.48 1167.84,-1164.52 1350.19,-939.2 1673.56,-781.5 1790.82,-729.33"/>
<polygon fill="#75e849" stroke="#75e849" points="1792.48,-732.42 1800.21,-725.18 1789.65,-726.02 1792.48,-732.42"/>
</g>
<!-- redis -->
<g id="node47" class="node">
<title>redis</title>
<polygon fill="none" stroke="#5cceca" points="1570.84,-3229.52 1516.84,-3229.52 1516.84,-3193.52 1570.84,-3193.52 1570.84,-3229.52"/>
<text text-anchor="middle" x="1543.84" y="-3207.82" font-family="Times,serif" font-size="14.00">redis</text>
</g>
<!-- at_persistence_root_server&#45;&gt;redis -->
<g id="edge134" class="edge">
<title>at_persistence_root_server&#45;&gt;redis</title>
<path fill="none" stroke="#5cceca" d="M959.57,-1690.92C955.19,-1758.45 943.9,-2009.14 1000.84,-2203.52 1125.05,-2627.59 1443.46,-3075.11 1524.73,-3185.05"/>
<polygon fill="#5cceca" stroke="#5cceca" points="1522.03,-3187.29 1530.8,-3193.23 1527.65,-3183.12 1522.03,-3187.29"/>
</g>
<!-- at_persistence_secondary_server&#45;&gt;at_commons -->
<g id="edge135" class="edge">
<title>at_persistence_secondary_server&#45;&gt;at_commons</title>
<path fill="none" stroke="#7eceb0" d="M1204.59,-1654.17C1185.66,-1588.94 1124.22,-1352.51 1167.84,-1164.52 1258.35,-774.36 1535.38,-359.3 1608.81,-253.94"/>
<polygon fill="#7eceb0" stroke="#7eceb0" points="1611.83,-255.73 1614.7,-245.53 1606.1,-251.71 1611.83,-255.73"/>
</g>
<!-- at_persistence_secondary_server&#45;&gt;at_persistence_spec -->
<g id="edge137" class="edge">
<title>at_persistence_secondary_server&#45;&gt;at_persistence_spec</title>
<path fill="none" stroke="#3bfcef" d="M1212.22,-1654.44C1222.21,-1582.85 1260.76,-1306.7 1273.05,-1218.66"/>
<polygon fill="#3bfcef" stroke="#3bfcef" points="1276.53,-1219.04 1274.45,-1208.65 1269.6,-1218.07 1276.53,-1219.04"/>
</g>
<!-- at_persistence_secondary_server&#45;&gt;at_utils -->
<g id="edge136" class="edge">
<title>at_persistence_secondary_server&#45;&gt;at_utils</title>
<path fill="none" stroke="#75e849" d="M1203.41,-1654.47C1179.22,-1587.33 1099.49,-1336.51 1188.84,-1164.52 1320.81,-910.47 1667.38,-768.78 1790.59,-725.2"/>
<polygon fill="#75e849" stroke="#75e849" points="1791.81,-728.48 1800.1,-721.87 1789.5,-721.87 1791.81,-728.48"/>
</g>
<!-- at_repl -->
<g id="node35" class="node">
<title>at_repl</title>
<polygon fill="none" stroke="#1494d0" points="2472.84,-3229.52 2406.84,-3229.52 2406.84,-3193.52 2472.84,-3193.52 2472.84,-3229.52"/>
<text text-anchor="middle" x="2439.84" y="-3207.82" font-family="Times,serif" font-size="14.00">at_repl</text>
</g>
<!-- at_repl&#45;&gt;at_client -->
<g id="edge138" class="edge">
<title>at_repl&#45;&gt;at_client</title>
<path fill="none" stroke="#61d4fc" d="M2450.01,-3193.09C2521.96,-3069.88 2953.46,-2330.86 3040.53,-2181.74"/>
<polygon fill="#61d4fc" stroke="#61d4fc" points="3043.74,-2183.18 3045.76,-2172.78 3037.69,-2179.65 3043.74,-2183.18"/>
</g>
<!-- at_repl&#45;&gt;at_commons -->
<g id="edge139" class="edge">
<title>at_repl&#45;&gt;at_commons</title>
<path fill="none" stroke="#7eceb0" d="M2406.57,-3196.39C2403.64,-3195.35 2400.7,-3194.37 2397.84,-3193.52 1436.27,-2907.35 820.23,-3533.27 182.84,-2758.52 109.88,-2669.84 115.16,-784.29 182.84,-691.52 354.52,-456.18 1308.51,-281.72 1563.93,-238.76"/>
<polygon fill="#7eceb0" stroke="#7eceb0" points="1564.85,-242.15 1574.14,-237.05 1563.7,-235.25 1564.85,-242.15"/>
</g>
<!-- at_repl&#45;&gt;at_onboarding_cli -->
<g id="edge140" class="edge">
<title>at_repl&#45;&gt;at_onboarding_cli</title>
<path fill="none" stroke="#514d2d" d="M2414.88,-3193.31C2305.95,-3118.18 1872.04,-2818.93 1748.07,-2733.44"/>
<polygon fill="#514d2d" stroke="#514d2d" points="1749.91,-2730.46 1739.69,-2727.66 1745.93,-2736.22 1749.91,-2730.46"/>
</g>
<!-- at_repl&#45;&gt;at_utils -->
<g id="edge141" class="edge">
<title>at_repl&#45;&gt;at_utils</title>
<path fill="none" stroke="#75e849" d="M2472.87,-3195.44C2623.78,-3126.25 3242.43,-2839.04 3290.84,-2758.52 3435.1,-2518.55 3383.48,-2392.75 3290.84,-2128.52 3026.1,-1373.49 2088.02,-843.49 1877.14,-732.25"/>
<polygon fill="#75e849" stroke="#75e849" points="1878.7,-729.12 1868.22,-727.57 1875.44,-735.31 1878.7,-729.12"/>
</g>
<!-- at_root_server -->
<g id="node36" class="node">
<title>at_root_server</title>
<polygon fill="none" stroke="#9dd431" points="1227.34,-2172.52 1108.34,-2172.52 1108.34,-2136.52 1227.34,-2136.52 1227.34,-2172.52"/>
<text text-anchor="middle" x="1167.84" y="-2150.82" font-family="Times,serif" font-size="14.00">at_root_server</text>
</g>
<!-- at_root_server&#45;&gt;at_commons -->
<g id="edge142" class="edge">
<title>at_root_server&#45;&gt;at_commons</title>
<path fill="none" stroke="#7eceb0" d="M1127.48,-2136.5C1005.85,-2082.26 653.92,-1902.4 699.84,-1654.52 822.32,-993.37 1460.37,-380.13 1599.87,-252.69"/>
<polygon fill="#7eceb0" stroke="#7eceb0" points="1602.56,-254.97 1607.61,-245.65 1597.85,-249.79 1602.56,-254.97"/>
</g>
<!-- at_root_server&#45;&gt;at_persistence_root_server -->
<g id="edge145" class="edge">
<title>at_root_server&#45;&gt;at_persistence_root_server</title>
<path fill="none" stroke="#831d2e" d="M1160.47,-2136.44C1129.5,-2064.64 1009.78,-1787.01 972.19,-1699.85"/>
<polygon fill="#831d2e" stroke="#831d2e" points="975.4,-1698.45 968.22,-1690.65 968.97,-1701.22 975.4,-1698.45"/>
</g>
<!-- at_root_server&#45;&gt;at_server_spec -->
<g id="edge144" class="edge">
<title>at_root_server&#45;&gt;at_server_spec</title>
<path fill="none" stroke="#e6f023" d="M1153.92,-2136.44C1095.14,-2064.27 866.99,-1784.19 797.22,-1698.54"/>
<polygon fill="#e6f023" stroke="#e6f023" points="799.82,-1696.19 790.79,-1690.65 794.39,-1700.61 799.82,-1696.19"/>
</g>
<!-- at_root_server&#45;&gt;at_utils -->
<g id="edge143" class="edge">
<title>at_root_server&#45;&gt;at_utils</title>
<path fill="none" stroke="#75e849" d="M1174.42,-2136.44C1223.45,-2009.25 1530.6,-1213.09 1554.84,-1164.52 1640.11,-993.63 1769.71,-803.42 1816.88,-735.94"/>
<polygon fill="#75e849" stroke="#75e849" points="1819.85,-737.8 1822.72,-727.61 1814.11,-733.79 1819.85,-737.8"/>
</g>
<!-- at_secondary -->
<g id="node37" class="node">
<title>at_secondary</title>
<polygon fill="none" stroke="#1b8948" points="1355.84,-2172.52 1245.84,-2172.52 1245.84,-2136.52 1355.84,-2136.52 1355.84,-2172.52"/>
<text text-anchor="middle" x="1300.84" y="-2150.82" font-family="Times,serif" font-size="14.00">at_secondary</text>
</g>
<!-- at_secondary&#45;&gt;at_chops -->
<g id="edge148" class="edge">
<title>at_secondary&#45;&gt;at_chops</title>
<path fill="none" stroke="#8fb4d4" d="M1310.24,-2136.17C1342.84,-2075.72 1453.13,-1868.39 1529.84,-1690.52 1606.19,-1513.47 1681,-1293.48 1706.04,-1218.21"/>
<polygon fill="#8fb4d4" stroke="#8fb4d4" points="1709.41,-1219.17 1709.24,-1208.57 1702.77,-1216.96 1709.41,-1219.17"/>
</g>
<!-- at_secondary&#45;&gt;at_commons -->
<g id="edge146" class="edge">
<title>at_secondary&#45;&gt;at_commons</title>
<path fill="none" stroke="#7eceb0" d="M1268.77,-2136.37C1139.69,-2066.22 666.94,-1798.08 706.84,-1654.52 886.66,-1007.42 1475.72,-382.05 1602.61,-252.81"/>
<polygon fill="#7eceb0" stroke="#7eceb0" points="1605.11,-255.26 1609.64,-245.68 1600.13,-250.34 1605.11,-255.26"/>
</g>
<!-- at_secondary&#45;&gt;at_lookup -->
<g id="edge149" class="edge">
<title>at_secondary&#45;&gt;at_lookup</title>
<path fill="none" stroke="#94d42d" d="M1320.98,-2136.44C1406.5,-2063.91 1739.68,-1781.36 1838.84,-1697.26"/>
<polygon fill="#94d42d" stroke="#94d42d" points="1841.28,-1699.79 1846.64,-1690.65 1836.75,-1694.45 1841.28,-1699.79"/>
</g>
<!-- at_secondary&#45;&gt;at_persistence_secondary_server -->
<g id="edge152" class="edge">
<title>at_secondary&#45;&gt;at_persistence_secondary_server</title>
<path fill="none" stroke="#9760d3" d="M1297.6,-2136.44C1284.03,-2064.85 1231.67,-1788.7 1214.98,-1700.66"/>
<polygon fill="#9760d3" stroke="#9760d3" points="1218.38,-1699.82 1213.08,-1690.65 1211.51,-1701.13 1218.38,-1699.82"/>
</g>
<!-- at_secondary&#45;&gt;at_persistence_spec -->
<g id="edge151" class="edge">
<title>at_secondary&#45;&gt;at_persistence_spec</title>
<path fill="none" stroke="#3bfcef" d="M1304.37,-2136.3C1317.03,-2072.51 1358.65,-1843.61 1344.84,-1654.52 1332.65,-1487.66 1296.07,-1289.65 1282.22,-1218.58"/>
<polygon fill="#3bfcef" stroke="#3bfcef" points="1285.64,-1217.8 1280.28,-1208.66 1278.77,-1219.14 1285.64,-1217.8"/>
</g>
<!-- at_secondary&#45;&gt;at_server_spec -->
<g id="edge150" class="edge">
<title>at_secondary&#45;&gt;at_server_spec</title>
<path fill="none" stroke="#e6f023" d="M1282.19,-2136.44C1203.09,-2063.98 895.18,-1781.93 803.03,-1697.52"/>
<polygon fill="#e6f023" stroke="#e6f023" points="805.27,-1694.82 795.53,-1690.65 800.54,-1699.98 805.27,-1694.82"/>
</g>
<!-- at_secondary&#45;&gt;at_utils -->
<g id="edge147" class="edge">
<title>at_secondary&#45;&gt;at_utils</title>
<path fill="none" stroke="#75e849" d="M1309.68,-2136.4C1340.14,-2076.69 1441.54,-1871.48 1491.84,-1690.52 1555.16,-1462.69 1493.42,-1387.61 1571.84,-1164.52 1633.84,-988.11 1765.52,-802.69 1815.26,-736.14"/>
<polygon fill="#75e849" stroke="#75e849" points="1818.24,-738.01 1821.45,-727.91 1812.64,-733.8 1818.24,-738.01"/>
</g>
<!-- at_secondary_proxy -->
<g id="node38" class="node">
<title>at_secondary_proxy</title>
<polygon fill="none" stroke="#35c7f7" points="691.84,-3229.52 533.84,-3229.52 533.84,-3193.52 691.84,-3193.52 691.84,-3229.52"/>
<text text-anchor="middle" x="612.84" y="-3207.82" font-family="Times,serif" font-size="14.00">at_secondary_proxy</text>
</g>
<!-- at_secondary_proxy&#45;&gt;at_commons -->
<g id="edge153" class="edge">
<title>at_secondary_proxy&#45;&gt;at_commons</title>
<path fill="none" stroke="#7eceb0" d="M585.16,-3193.46C502.69,-3140.86 258.26,-2971.75 160.84,-2758.52 60.38,-2538.65 82.84,-1915.25 82.84,-1673.52 82.84,-1673.52 82.84,-1673.52 82.84,-1189.52 82.84,-964.91 21.21,-860.8 168.84,-691.52 361.88,-470.16 1309.73,-285.68 1563.98,-239.6"/>
<polygon fill="#7eceb0" stroke="#7eceb0" points="1564.93,-242.98 1574.15,-237.76 1563.69,-236.1 1564.93,-242.98"/>
</g>
<!-- at_secondary_proxy&#45;&gt;at_lookup -->
<g id="edge155" class="edge">
<title>at_secondary_proxy&#45;&gt;at_lookup</title>
<path fill="none" stroke="#94d42d" d="M626.92,-3193.26C753.59,-3038 1695.56,-1883.45 1846.47,-1698.48"/>
<polygon fill="#94d42d" stroke="#94d42d" points="1849.25,-1700.61 1852.86,-1690.65 1843.83,-1696.19 1849.25,-1700.61"/>
</g>
<!-- at_secondary_proxy&#45;&gt;at_utils -->
<g id="edge154" class="edge">
<title>at_secondary_proxy&#45;&gt;at_utils</title>
<path fill="none" stroke="#75e849" d="M613.88,-3193.45C619.91,-3093.85 649.84,-2577.51 649.84,-2155.52 649.84,-2155.52 649.84,-2155.52 649.84,-1671.52 649.84,-1444.91 567.13,-1345.25 703.84,-1164.52 984.34,-793.68 1616.71,-724.97 1790.12,-712.94"/>
<polygon fill="#75e849" stroke="#75e849" points="1790.42,-716.43 1800.17,-712.28 1789.96,-709.45 1790.42,-716.43"/>
</g>
<!-- at_server_spec&#45;&gt;at_commons -->
<g id="edge156" class="edge">
<title>at_server_spec&#45;&gt;at_commons</title>
<path fill="none" stroke="#7eceb0" d="M785.11,-1654.32C832.02,-1557.27 1070.6,-1068.95 1302.84,-691.52 1409.33,-518.44 1555.61,-322.32 1607.57,-253.76"/>
<polygon fill="#7eceb0" stroke="#7eceb0" points="1610.45,-255.76 1613.71,-245.68 1604.88,-251.53 1610.45,-255.76"/>
</g>
<!-- at_server_status&#45;&gt;at_commons -->
<g id="edge157" class="edge">
<title>at_server_status&#45;&gt;at_commons</title>
<path fill="none" stroke="#7eceb0" d="M1850.36,-2136.29C1826.33,-2042.94 1712.06,-1588.07 1666.84,-1208.52 1622.1,-833.01 1624.88,-371.48 1626.4,-255.79"/>
<polygon fill="#7eceb0" stroke="#7eceb0" points="1629.9,-255.74 1626.54,-245.69 1622.9,-255.64 1629.9,-255.74"/>
</g>
<!-- at_server_status&#45;&gt;at_lookup -->
<g id="edge159" class="edge">
<title>at_server_status&#45;&gt;at_lookup</title>
<path fill="none" stroke="#94d42d" d="M1855.26,-2136.44C1857.05,-2064.85 1863.96,-1788.7 1866.16,-1700.66"/>
<polygon fill="#94d42d" stroke="#94d42d" points="1869.66,-1700.73 1866.41,-1690.65 1862.66,-1700.56 1869.66,-1700.73"/>
</g>
<!-- at_server_status&#45;&gt;at_utils -->
<g id="edge158" class="edge">
<title>at_server_status&#45;&gt;at_utils</title>
<path fill="none" stroke="#75e849" d="M1852.86,-2136.32C1845.99,-2075.51 1823.17,-1865.01 1815.84,-1690.52 1806.02,-1456.95 1812.98,-1398.25 1817.84,-1164.52 1821.19,-1002.84 1830.08,-808.92 1833.48,-738.12"/>
<polygon fill="#75e849" stroke="#75e849" points="1836.99,-737.99 1833.98,-727.83 1830,-737.65 1836.99,-737.99"/>
</g>
<!-- at_sync_ui_flutter&#45;&gt;at_client -->
<g id="edge160" class="edge">
<title>at_sync_ui_flutter&#45;&gt;at_client</title>
<path fill="none" stroke="#61d4fc" d="M3657.37,-3193.3C3614.8,-3134.18 3472.1,-2933.5 3368.84,-2758.52 3240.82,-2541.6 3108.58,-2266.99 3068.24,-2181.87"/>
<polygon fill="#61d4fc" stroke="#61d4fc" points="3071.33,-2180.21 3063.89,-2172.67 3065,-2183.21 3071.33,-2180.21"/>
</g>
<!-- at_sync_ui_flutter&#45;&gt;at_client_mobile -->
<g id="edge161" class="edge">
<title>at_sync_ui_flutter&#45;&gt;at_client_mobile</title>
<path fill="none" stroke="#d9577c" d="M3654.11,-3193.31C3585.92,-3118.71 3315.75,-2823.11 3235.45,-2735.27"/>
<polygon fill="#d9577c" stroke="#d9577c" points="3237.83,-2732.68 3228.5,-2727.66 3232.66,-2737.4 3237.83,-2732.68"/>
</g>
<!-- at_sync_ui_flutter&#45;&gt;at_common_flutter -->
<g id="edge162" class="edge">
<title>at_sync_ui_flutter&#45;&gt;at_common_flutter</title>
<path fill="none" stroke="#bf681f" d="M3680.33,-3193.31C3725.66,-3119.01 3904.7,-2825.49 3959.09,-2736.34"/>
<polygon fill="#bf681f" stroke="#bf681f" points="3962.16,-2738.02 3964.38,-2727.66 3956.19,-2734.37 3962.16,-2738.02"/>
</g>
<!-- at_theme_flutter -->
<g id="node42" class="node">
<title>at_theme_flutter</title>
<polygon fill="none" stroke="#2ec850" points="4766.84,-3229.52 4632.84,-3229.52 4632.84,-3193.52 4766.84,-3193.52 4766.84,-3229.52"/>
<text text-anchor="middle" x="4699.84" y="-3207.82" font-family="Times,serif" font-size="14.00">at_theme_flutter</text>
</g>
<!-- at_theme_flutter&#45;&gt;at_client_mobile -->
<g id="edge163" class="edge">
<title>at_theme_flutter&#45;&gt;at_client_mobile</title>
<path fill="none" stroke="#d9577c" d="M4649.08,-3193.45C4424.04,-3117.78 3516.7,-2812.69 3273.22,-2730.82"/>
<polygon fill="#d9577c" stroke="#d9577c" points="3274.07,-2727.42 3263.48,-2727.55 3271.84,-2734.05 3274.07,-2727.42"/>
</g>
<!-- at_theme_flutter&#45;&gt;at_common_flutter -->
<g id="edge164" class="edge">
<title>at_theme_flutter&#45;&gt;at_common_flutter</title>
<path fill="none" stroke="#bf681f" d="M4674.88,-3193.31C4565.95,-3118.18 4132.04,-2818.93 4008.07,-2733.44"/>
<polygon fill="#bf681f" stroke="#bf681f" points="4009.91,-2730.46 3999.69,-2727.66 4005.93,-2736.22 4009.91,-2730.46"/>
</g>
<!-- at_theme_flutter&#45;&gt;at_commons -->
<g id="edge165" class="edge">
<title>at_theme_flutter&#45;&gt;at_commons</title>
<path fill="none" stroke="#7eceb0" d="M4701.93,-3193.48C4716.9,-3068.58 4804.02,-2281.55 4704.84,-1654.52 4625,-1149.83 4528.11,-931.19 4076.84,-691.52 3639.68,-459.35 2028.37,-272.5 1689.59,-235.28"/>
<polygon fill="#7eceb0" stroke="#7eceb0" points="1689.8,-231.78 1679.48,-234.17 1689.04,-238.74 1689.8,-231.78"/>
</g>
<!-- at_theme_flutter&#45;&gt;at_utils -->
<g id="edge166" class="edge">
<title>at_theme_flutter&#45;&gt;at_utils</title>
<path fill="none" stroke="#75e849" d="M4699.94,-3193.42C4699.78,-3125.96 4693.93,-2872.82 4618.84,-2683.52 4508.41,-2405.18 4437.78,-2350.54 4236.84,-2128.52 3487.7,-1300.8 2139.89,-813.92 1879.17,-725.25"/>
<polygon fill="#75e849" stroke="#75e849" points="1880.25,-721.92 1869.66,-722.03 1878,-728.55 1880.25,-721.92"/>
</g>
<!-- at_utils&#45;&gt;at_commons -->
<g id="edge167" class="edge">
<title>at_utils&#45;&gt;at_commons</title>
<path fill="none" stroke="#7eceb0" d="M1827.43,-691.44C1796.32,-619.64 1676.02,-342.01 1638.25,-254.85"/>
<polygon fill="#7eceb0" stroke="#7eceb0" points="1641.45,-253.43 1634.26,-245.65 1635.02,-256.22 1641.45,-253.43"/>
</g>
<!-- at_ve_doctor -->
<g id="node44" class="node">
<title>at_ve_doctor</title>
<polygon fill="none" stroke="#193e4e" points="2388.34,-3229.52 2281.34,-3229.52 2281.34,-3193.52 2388.34,-3193.52 2388.34,-3229.52"/>
<text text-anchor="middle" x="2334.84" y="-3207.82" font-family="Times,serif" font-size="14.00">at_ve_doctor</text>
</g>
<!-- at_ve_doctor&#45;&gt;at_server_status -->
<g id="edge168" class="edge">
<title>at_ve_doctor&#45;&gt;at_server_status</title>
<path fill="none" stroke="#320113" d="M2327.95,-3193.07C2301.56,-3126.37 2203.73,-2881.33 2113.84,-2683.52 2025.12,-2488.3 1907.65,-2258.03 1868.32,-2181.61"/>
<polygon fill="#320113" stroke="#320113" points="1871.4,-2179.95 1863.71,-2172.66 1865.17,-2183.16 1871.4,-2179.95"/>
</g>
<!-- base2e15 -->
<g id="node45" class="node">
<title>base2e15</title>
<polygon fill="none" stroke="#2bcf07" points="1775.34,-3229.52 1690.34,-3229.52 1690.34,-3193.52 1775.34,-3193.52 1775.34,-3229.52"/>
<text text-anchor="middle" x="1732.84" y="-3207.82" font-family="Times,serif" font-size="14.00">base2e15</text>
</g>
<!-- dart_utf7 -->
<g id="node46" class="node">
<title>dart_utf7</title>
<polygon fill="none" stroke="#f889f9" points="1672.34,-3229.52 1589.34,-3229.52 1589.34,-3193.52 1672.34,-3193.52 1672.34,-3229.52"/>
<text text-anchor="middle" x="1630.84" y="-3207.82" font-family="Times,serif" font-size="14.00">dart_utf7</text>
</g>
</g>
</svg>
