<?xml version="1.0" encoding="UTF-8" standalone="no"?>
<!DOCTYPE svg PUBLIC "-//W3C//DTD SVG 1.1//EN"
 "http://www.w3.org/Graphics/SVG/1.1/DTD/svg11.dtd">
<!-- Generated by graphviz version 2.43.0 (0)
 -->
<!-- Title: packages Pages: 1 -->
<svg width="720pt" height="613pt"
 viewBox="0.00 0.00 720.00 613.18" xmlns="http://www.w3.org/2000/svg" xmlns:xlink="http://www.w3.org/1999/xlink">
<g id="graph0" class="graph" transform="scale(0.15807682392369166 0.15807682392369166) rotate(0) translate(4 3875)">
<title>packages</title>
<polygon fill="white" stroke="transparent" points="-4,4 -4,-3875 4550.72,-3875 4550.72,4 -4,4"/>
<g id="clust1" class="cluster">
<title>cluster modules/dart/at_widgets/packages</title>
<polygon fill="none" stroke="#b80dd6" points="1806.66,-1684.6 1806.66,-3813.65 2991.66,-3813.65 2991.66,-1684.6 1806.66,-1684.6"/>
<text text-anchor="middle" x="2399.16" y="-3798.45" font-family="Times,serif" font-size="14.00">modules/dart/at_widgets/packages</text>
</g>
<g id="clust2" class="cluster">
<title>cluster modules/dart/at_libraries/packages</title>
<polygon fill="none" stroke="#5d6fbf" points="2999.66,-57.35 2999.66,-2222.24 3626.66,-2222.24 3626.66,-57.35 2999.66,-57.35"/>
<text text-anchor="middle" x="3313.16" y="-2207.04" font-family="Times,serif" font-size="14.00">modules/dart/at_libraries/packages</text>
</g>
<g id="clust3" class="cluster">
<title>cluster modules/dart/at_tools/packages</title>
<polygon fill="none" stroke="#a24674" points="1388.66,-57.35 1388.66,-1627.25 2066.66,-1627.25 2066.66,-57.35 1388.66,-57.35"/>
<text text-anchor="middle" x="1727.66" y="-1612.05" font-family="Times,serif" font-size="14.00">modules/dart/at_tools/packages</text>
</g>
<g id="clust4" class="cluster">
<title>cluster modules/dart/at_client_sdk/packages</title>
<polygon fill="none" stroke="#0ace14" points="3664.66,-1089.61 3664.66,-2222.24 3942.66,-2222.24 3942.66,-1089.61 3664.66,-1089.61"/>
<text text-anchor="middle" x="3803.66" y="-2207.04" font-family="Times,serif" font-size="14.00">modules/dart/at_client_sdk/packages</text>
</g>
<g id="clust5" class="cluster">
<title>cluster modules/dart/at_services/packages</title>
<polygon fill="none" stroke="#d8a73c" points="895.66,-1089.61 895.66,-2759.88 1380.66,-2759.88 1380.66,-1089.61 895.66,-1089.61"/>
<text text-anchor="middle" x="1138.16" y="-2744.68" font-family="Times,serif" font-size="14.00">modules/dart/at_services/packages</text>
</g>
<g id="clust6" class="cluster">
<title>cluster modules/dart/at_server/packages</title>
<polygon fill="none" stroke="#8b5078" points="87.66,-573.48 87.66,-2222.24 743.66,-2222.24 743.66,-573.48 87.66,-573.48"/>
<text text-anchor="middle" x="415.66" y="-2207.04" font-family="Times,serif" font-size="14.00">modules/dart/at_server/packages</text>
</g>
<!-- at_backupkey_flutter -->
<g id="node1" class="node">
<title>at_backupkey_flutter</title>
<polygon fill="none" stroke="#590b92" points="2983.16,-2426.35 2818.16,-2426.35 2818.16,-2390.35 2983.16,-2390.35 2983.16,-2426.35"/>
<text text-anchor="middle" x="2900.66" y="-2404.65" font-family="Times,serif" font-size="14.00">at_backupkey_flutter</text>
</g>
<!-- at_client_mobile -->
<g id="node7" class="node">
<title>at_client_mobile</title>
<polygon fill="none" stroke="#d9577c" points="3806.66,-1889.35 3674.66,-1889.35 3674.66,-1853.35 3806.66,-1853.35 3806.66,-1889.35"/>
<text text-anchor="middle" x="3740.66" y="-1867.65" font-family="Times,serif" font-size="14.00">at_client_mobile</text>
</g>
<!-- at_backupkey_flutter&#45;&gt;at_client_mobile -->
<g id="edge2" class="edge">
<title>at_backupkey_flutter&#45;&gt;at_client_mobile</title>
<path fill="none" stroke="#d9577c" d="M2927.65,-2390.15C3051.44,-2311.31 3564.74,-1984.39 3705.06,-1895.02"/>
<polygon fill="#d9577c" stroke="#d9577c" points="3707.21,-1897.8 3713.76,-1889.48 3703.44,-1891.9 3707.21,-1897.8"/>
</g>
<!-- at_utils -->
<g id="node42" class="node">
<title>at_utils</title>
<polygon fill="none" stroke="#75e849" points="2058.16,-778.35 1989.16,-778.35 1989.16,-742.35 2058.16,-742.35 2058.16,-778.35"/>
<text text-anchor="middle" x="2023.66" y="-756.65" font-family="Times,serif" font-size="14.00">at_utils</text>
</g>
<!-- at_backupkey_flutter&#45;&gt;at_utils -->
<g id="edge1" class="edge">
<title>at_backupkey_flutter&#45;&gt;at_utils</title>
<path fill="none" stroke="#75e849" d="M2891.97,-2390.27C2838.29,-2284.83 2545.91,-1711.91 2296.66,-1250.35 2200.49,-1072.27 2080.22,-860.49 2038.62,-787.55"/>
<polygon fill="#75e849" stroke="#75e849" points="2041.5,-785.53 2033.5,-778.58 2035.42,-789 2041.5,-785.53"/>
</g>
<!-- at_chat_flutter -->
<g id="node2" class="node">
<title>at_chat_flutter</title>
<polygon fill="none" stroke="#463830" points="2322.66,-2426.35 2202.66,-2426.35 2202.66,-2390.35 2322.66,-2390.35 2322.66,-2426.35"/>
<text text-anchor="middle" x="2262.66" y="-2404.65" font-family="Times,serif" font-size="14.00">at_chat_flutter</text>
</g>
<!-- at_client -->
<g id="node6" class="node">
<title>at_client</title>
<polygon fill="none" stroke="#61d4fc" points="3750.16,-1294.35 3673.16,-1294.35 3673.16,-1258.35 3750.16,-1258.35 3750.16,-1294.35"/>
<text text-anchor="middle" x="3711.66" y="-1272.65" font-family="Times,serif" font-size="14.00">at_client</text>
</g>
<!-- at_chat_flutter&#45;&gt;at_client -->
<g id="edge8" class="edge">
<title>at_chat_flutter&#45;&gt;at_client</title>
<path fill="none" stroke="#61d4fc" d="M2275.62,-2390.13C2330.8,-2317.63 2553.65,-2032.28 2781.66,-1845.35 2822.69,-1811.71 3506.19,-1400.72 3674.46,-1299.68"/>
<polygon fill="#61d4fc" stroke="#61d4fc" points="3676.44,-1302.57 3683.21,-1294.42 3672.84,-1296.56 3676.44,-1302.57"/>
</g>
<!-- at_chat_flutter&#45;&gt;at_client_mobile -->
<g id="edge6" class="edge">
<title>at_chat_flutter&#45;&gt;at_client_mobile</title>
<path fill="none" stroke="#d9577c" d="M2314.69,-2390.28C2497.07,-2330.14 3123.72,-2120.91 3630.66,-1920.35 3651.64,-1912.05 3674.55,-1902.18 3694,-1893.56"/>
<polygon fill="#d9577c" stroke="#d9577c" points="3695.54,-1896.71 3703.25,-1889.44 3692.69,-1890.31 3695.54,-1896.71"/>
</g>
<!-- at_common_flutter -->
<g id="node8" class="node">
<title>at_common_flutter</title>
<polygon fill="none" stroke="#bf681f" points="2180.16,-1889.35 2031.16,-1889.35 2031.16,-1853.35 2180.16,-1853.35 2180.16,-1889.35"/>
<text text-anchor="middle" x="2105.66" y="-1867.65" font-family="Times,serif" font-size="14.00">at_common_flutter</text>
</g>
<!-- at_chat_flutter&#45;&gt;at_common_flutter -->
<g id="edge4" class="edge">
<title>at_chat_flutter&#45;&gt;at_common_flutter</title>
<path fill="none" stroke="#bf681f" d="M2257.61,-2390.15C2234.82,-2312.49 2141.39,-1994.12 2113.53,-1899.19"/>
<polygon fill="#bf681f" stroke="#bf681f" points="2116.86,-1898.09 2110.68,-1889.48 2110.14,-1900.06 2116.86,-1898.09"/>
</g>
<!-- at_commons -->
<g id="node9" class="node">
<title>at_commons</title>
<polygon fill="none" stroke="#7eceb0" points="2058.16,-261.35 1953.16,-261.35 1953.16,-225.35 2058.16,-225.35 2058.16,-261.35"/>
<text text-anchor="middle" x="2005.66" y="-239.65" font-family="Times,serif" font-size="14.00">at_commons</text>
</g>
<!-- at_chat_flutter&#45;&gt;at_commons -->
<g id="edge5" class="edge">
<title>at_chat_flutter&#45;&gt;at_commons</title>
<path fill="none" stroke="#7eceb0" d="M2270.78,-2390.02C2318.96,-2285.41 2564.33,-1726.53 2537.66,-1250.35 2524.75,-1019.93 2578.03,-943.11 2479.66,-734.35 2375.41,-513.13 2130.67,-329.81 2040.13,-267.32"/>
<polygon fill="#7eceb0" stroke="#7eceb0" points="2041.83,-264.24 2031.6,-261.48 2037.88,-270.02 2041.83,-264.24"/>
</g>
<!-- at_contact -->
<g id="node10" class="node">
<title>at_contact</title>
<polygon fill="none" stroke="#250aa2" points="3618.66,-1889.35 3528.66,-1889.35 3528.66,-1853.35 3618.66,-1853.35 3618.66,-1889.35"/>
<text text-anchor="middle" x="3573.66" y="-1867.65" font-family="Times,serif" font-size="14.00">at_contact</text>
</g>
<!-- at_chat_flutter&#45;&gt;at_contact -->
<g id="edge3" class="edge">
<title>at_chat_flutter&#45;&gt;at_contact</title>
<path fill="none" stroke="#250aa2" d="M2322.77,-2392.31C2509.98,-2343.78 3095.44,-2179.35 3519.66,-1920.35 3530.42,-1913.78 3541.06,-1904.96 3550.01,-1896.68"/>
<polygon fill="#250aa2" stroke="#250aa2" points="3552.6,-1899.05 3557.4,-1889.61 3547.76,-1893.99 3552.6,-1899.05"/>
</g>
<!-- at_lookup -->
<g id="node26" class="node">
<title>at_lookup</title>
<polygon fill="none" stroke="#94d42d" points="3093.16,-261.35 3008.16,-261.35 3008.16,-225.35 3093.16,-225.35 3093.16,-261.35"/>
<text text-anchor="middle" x="3050.66" y="-239.65" font-family="Times,serif" font-size="14.00">at_lookup</text>
</g>
<!-- at_chat_flutter&#45;&gt;at_lookup -->
<g id="edge7" class="edge">
<title>at_chat_flutter&#45;&gt;at_lookup</title>
<path fill="none" stroke="#94d42d" d="M2274.51,-2390.1C2341.72,-2291.43 2677.88,-1786.62 2841.66,-1325.35 2878.47,-1221.67 3018.1,-430.19 3045.85,-271.86"/>
<polygon fill="#94d42d" stroke="#94d42d" points="3049.37,-272.03 3047.65,-261.58 3042.48,-270.82 3049.37,-272.03"/>
</g>
<!-- at_chops -->
<g id="node3" class="node">
<title>at_chops</title>
<polygon fill="none" stroke="#8fb4d4" points="3510.16,-1889.35 3431.16,-1889.35 3431.16,-1853.35 3510.16,-1853.35 3510.16,-1889.35"/>
<text text-anchor="middle" x="3470.66" y="-1867.65" font-family="Times,serif" font-size="14.00">at_chops</text>
</g>
<!-- at_chops&#45;&gt;at_commons -->
<g id="edge9" class="edge">
<title>at_chops&#45;&gt;at_commons</title>
<path fill="none" stroke="#7eceb0" d="M3503.49,-1853.18C3629.43,-1784.87 4068.67,-1522.83 3946.66,-1250.35 3597.52,-470.65 2361.87,-284.34 2068.48,-250.71"/>
<polygon fill="#7eceb0" stroke="#7eceb0" points="2068.77,-247.22 2058.44,-249.57 2067.99,-254.17 2068.77,-247.22"/>
</g>
<!-- at_onboarding_cli -->
<g id="node28" class="node">
<title>at_onboarding_cli</title>
<polygon fill="none" stroke="#514d2d" points="3187.66,-1294.35 3045.66,-1294.35 3045.66,-1258.35 3187.66,-1258.35 3187.66,-1294.35"/>
<text text-anchor="middle" x="3116.66" y="-1272.65" font-family="Times,serif" font-size="14.00">at_onboarding_cli</text>
</g>
<!-- at_chops&#45;&gt;at_onboarding_cli -->
<g id="edge10" class="edge">
<title>at_chops&#45;&gt;at_onboarding_cli</title>
<path fill="none" stroke="#514d2d" d="M3457.98,-1853.24C3402.59,-1769.72 3184.53,-1404.74 3129.27,-1303.48"/>
<polygon fill="#514d2d" stroke="#514d2d" points="3132.27,-1301.67 3124.44,-1294.53 3126.11,-1304.99 3132.27,-1301.67"/>
</g>
<!-- at_chops&#45;&gt;at_utils -->
<g id="edge11" class="edge">
<title>at_chops&#45;&gt;at_utils</title>
<path fill="none" stroke="#75e849" d="M3449.1,-1853.14C3357.07,-1779.75 2987.74,-1485.86 2679.66,-1250.35 2441.63,-1068.39 2150.53,-854.33 2055.38,-784.58"/>
<polygon fill="#75e849" stroke="#75e849" points="2057.18,-781.56 2047.05,-778.47 2053.05,-787.2 2057.18,-781.56"/>
</g>
<!-- at_cli -->
<g id="node4" class="node">
<title>at_cli</title>
<polygon fill="none" stroke="#34bd05" points="1841.66,-1294.35 1787.66,-1294.35 1787.66,-1258.35 1841.66,-1258.35 1841.66,-1294.35"/>
<text text-anchor="middle" x="1814.66" y="-1272.65" font-family="Times,serif" font-size="14.00">at_cli</text>
</g>
<!-- at_cli&#45;&gt;at_client -->
<g id="edge13" class="edge">
<title>at_cli&#45;&gt;at_client</title>
<path fill="none" stroke="#61d4fc" d="M1810.32,-1294.7C1798.67,-1349.13 1773.14,-1510.52 1859.66,-1585.35 2160.51,-1845.56 3341.96,-1837.44 3649.66,-1585.35 3734.1,-1516.16 3724.58,-1367.13 3716.27,-1304.73"/>
<polygon fill="#61d4fc" stroke="#61d4fc" points="3719.68,-1303.87 3714.8,-1294.46 3712.75,-1304.86 3719.68,-1303.87"/>
</g>
<!-- at_cli&#45;&gt;at_commons -->
<g id="edge14" class="edge">
<title>at_cli&#45;&gt;at_commons</title>
<path fill="none" stroke="#7eceb0" d="M1817.81,-1258.31C1840.03,-1138.39 1972.83,-421.54 2000.58,-271.77"/>
<polygon fill="#7eceb0" stroke="#7eceb0" points="2004.08,-272.08 2002.46,-261.61 1997.2,-270.8 2004.08,-272.08"/>
</g>
<!-- at_cli&#45;&gt;at_lookup -->
<g id="edge12" class="edge">
<title>at_cli&#45;&gt;at_lookup</title>
<path fill="none" stroke="#94d42d" d="M1835.08,-1258.31C1980.07,-1137.37 2852.91,-409.3 3022.22,-268.07"/>
<polygon fill="#94d42d" stroke="#94d42d" points="3024.53,-270.7 3029.97,-261.61 3020.04,-265.32 3024.53,-270.7"/>
</g>
<!-- at_cli&#45;&gt;at_utils -->
<g id="edge15" class="edge">
<title>at_cli&#45;&gt;at_utils</title>
<path fill="none" stroke="#75e849" d="M1821.61,-1258.25C1852.26,-1182.86 1975.45,-879.9 2012.84,-787.94"/>
<polygon fill="#75e849" stroke="#75e849" points="2016.15,-789.1 2016.68,-778.51 2009.67,-786.46 2016.15,-789.1"/>
</g>
<!-- at_cli_commons -->
<g id="node5" class="node">
<title>at_cli_commons</title>
<polygon fill="none" stroke="#c99192" points="3412.66,-1889.35 3284.66,-1889.35 3284.66,-1853.35 3412.66,-1853.35 3412.66,-1889.35"/>
<text text-anchor="middle" x="3348.66" y="-1867.65" font-family="Times,serif" font-size="14.00">at_cli_commons</text>
</g>
<!-- at_cli_commons&#45;&gt;at_client -->
<g id="edge16" class="edge">
<title>at_cli_commons&#45;&gt;at_client</title>
<path fill="none" stroke="#61d4fc" d="M3359.13,-1853.24C3410.31,-1769.64 3634.12,-1404 3695.85,-1303.18"/>
<polygon fill="#61d4fc" stroke="#61d4fc" points="3698.91,-1304.88 3701.14,-1294.53 3692.94,-1301.23 3698.91,-1304.88"/>
</g>
<!-- at_cli_commons&#45;&gt;at_onboarding_cli -->
<g id="edge17" class="edge">
<title>at_cli_commons&#45;&gt;at_onboarding_cli</title>
<path fill="none" stroke="#514d2d" d="M3341.96,-1853.24C3309.35,-1769.89 3167.07,-1406.21 3127.12,-1304.1"/>
<polygon fill="#514d2d" stroke="#514d2d" points="3130.28,-1302.56 3123.38,-1294.53 3123.76,-1305.11 3130.28,-1302.56"/>
</g>
<!-- at_cli_commons&#45;&gt;at_utils -->
<g id="edge18" class="edge">
<title>at_cli_commons&#45;&gt;at_utils</title>
<path fill="none" stroke="#75e849" d="M3328.11,-1853.15C3176.31,-1726.1 2229.76,-933.85 2052.31,-785.33"/>
<polygon fill="#75e849" stroke="#75e849" points="2054.36,-782.48 2044.44,-778.75 2049.87,-787.85 2054.36,-782.48"/>
</g>
<!-- at_client&#45;&gt;at_chops -->
<g id="edge21" class="edge">
<title>at_client&#45;&gt;at_chops</title>
<path fill="none" stroke="#8fb4d4" d="M3704.68,-1294.53C3670.74,-1378.03 3522.93,-1741.72 3481.49,-1843.68"/>
<polygon fill="#8fb4d4" stroke="#8fb4d4" points="3478.13,-1842.66 3477.61,-1853.24 3484.62,-1845.29 3478.13,-1842.66"/>
</g>
<!-- at_client&#45;&gt;at_commons -->
<g id="edge19" class="edge">
<title>at_client&#45;&gt;at_commons</title>
<path fill="none" stroke="#7eceb0" d="M3683.47,-1258.31C3482.64,-1136.95 2270.13,-404.18 2042.48,-266.6"/>
<polygon fill="#7eceb0" stroke="#7eceb0" points="2044.26,-263.59 2033.89,-261.41 2040.64,-269.58 2044.26,-263.59"/>
</g>
<!-- at_client&#45;&gt;at_lookup -->
<g id="edge22" class="edge">
<title>at_client&#45;&gt;at_lookup</title>
<path fill="none" stroke="#94d42d" d="M3700.76,-1258.02C3658.4,-1190.67 3500.46,-939.81 3368.66,-734.35 3254.45,-556.3 3115.24,-343.11 3067.59,-270.23"/>
<polygon fill="#94d42d" stroke="#94d42d" points="3070.39,-268.12 3061.99,-261.66 3064.53,-271.95 3070.39,-268.12"/>
</g>
<!-- at_persistence_secondary_server -->
<g id="node31" class="node">
<title>at_persistence_secondary_server</title>
<polygon fill="none" stroke="#9760d3" points="347.66,-1294.35 95.66,-1294.35 95.66,-1258.35 347.66,-1258.35 347.66,-1294.35"/>
<text text-anchor="middle" x="221.66" y="-1272.65" font-family="Times,serif" font-size="14.00">at_persistence_secondary_server</text>
</g>
<!-- at_client&#45;&gt;at_persistence_secondary_server -->
<g id="edge24" class="edge">
<title>at_client&#45;&gt;at_persistence_secondary_server</title>
<path fill="none" stroke="#9760d3" d="M3714.8,-1294.46C3723.1,-1348.94 3739.17,-1512.01 3649.66,-1585.35 3369.12,-1815.19 696.45,-1772.25 385.66,-1585.35 281.35,-1522.62 239.85,-1368.74 226.74,-1304.86"/>
<polygon fill="#9760d3" stroke="#9760d3" points="230.11,-1303.85 224.75,-1294.71 223.24,-1305.2 230.11,-1303.85"/>
</g>
<!-- at_persistence_spec -->
<g id="node32" class="node">
<title>at_persistence_spec</title>
<polygon fill="none" stroke="#3bfcef" points="723.16,-778.35 564.16,-778.35 564.16,-742.35 723.16,-742.35 723.16,-778.35"/>
<text text-anchor="middle" x="643.66" y="-756.65" font-family="Times,serif" font-size="14.00">at_persistence_spec</text>
</g>
<!-- at_client&#45;&gt;at_persistence_spec -->
<g id="edge23" class="edge">
<title>at_client&#45;&gt;at_persistence_spec</title>
<path fill="none" stroke="#3bfcef" d="M3672.81,-1262.18C3659.55,-1257.99 3644.55,-1253.61 3630.66,-1250.35 2500.81,-984.83 1097.12,-813.48 733.14,-771.45"/>
<polygon fill="#3bfcef" stroke="#3bfcef" points="733.52,-767.97 723.19,-770.3 732.72,-774.92 733.52,-767.97"/>
</g>
<!-- at_client&#45;&gt;at_utils -->
<g id="edge20" class="edge">
<title>at_client&#45;&gt;at_utils</title>
<path fill="none" stroke="#75e849" d="M3672.94,-1263.36C3659.55,-1259.23 3644.45,-1254.57 3630.66,-1250.35 3011.21,-1060.51 2256.65,-831.89 2068,-774.77"/>
<polygon fill="#75e849" stroke="#75e849" points="2068.75,-771.34 2058.16,-771.79 2066.72,-778.04 2068.75,-771.34"/>
</g>
<!-- at_client_mobile&#45;&gt;at_chops -->
<g id="edge27" class="edge">
<title>at_client_mobile&#45;&gt;at_chops</title>
<path fill="none" stroke="#8fb4d4" d="M3739.56,-1889.54C3735.32,-1941.9 3715.13,-2093.17 3621.66,-2155.35 3587.24,-2178.24 3560.67,-2181.49 3528.66,-2155.35 3451.77,-2092.58 3458.93,-1957.96 3466.27,-1899.46"/>
<polygon fill="#8fb4d4" stroke="#8fb4d4" points="3469.75,-1899.83 3467.62,-1889.46 3462.81,-1898.9 3469.75,-1899.83"/>
</g>
<!-- at_client_mobile&#45;&gt;at_client -->
<g id="edge29" class="edge">
<title>at_client_mobile&#45;&gt;at_client</title>
<path fill="none" stroke="#61d4fc" d="M3739.82,-1853.24C3735.75,-1770.06 3718.03,-1407.68 3712.99,-1304.72"/>
<polygon fill="#61d4fc" stroke="#61d4fc" points="3716.48,-1304.34 3712.5,-1294.53 3709.49,-1304.68 3716.48,-1304.34"/>
</g>
<!-- at_client_mobile&#45;&gt;at_commons -->
<g id="edge25" class="edge">
<title>at_client_mobile&#45;&gt;at_commons</title>
<path fill="none" stroke="#7eceb0" d="M3757.31,-1852.97C3824.58,-1780.62 4068.95,-1495.68 3991.66,-1250.35 3907.55,-983.4 3857.37,-898.47 3630.66,-734.35 3110.56,-357.84 2298.54,-267.28 2068.36,-248.66"/>
<polygon fill="#7eceb0" stroke="#7eceb0" points="2068.41,-245.15 2058.16,-247.85 2067.85,-252.13 2068.41,-245.15"/>
</g>
<!-- at_client_mobile&#45;&gt;at_lookup -->
<g id="edge28" class="edge">
<title>at_client_mobile&#45;&gt;at_lookup</title>
<path fill="none" stroke="#94d42d" d="M3761.55,-1853.17C3834.84,-1791.4 4080.31,-1571.12 4164.66,-1325.35 4249.92,-1076.9 4308.21,-954.32 4164.66,-734.35 3914.34,-350.78 3289.17,-265.46 3103.47,-248.32"/>
<polygon fill="#94d42d" stroke="#94d42d" points="3103.68,-244.82 3093.41,-247.42 3103.06,-251.8 3103.68,-244.82"/>
</g>
<!-- at_client_mobile&#45;&gt;at_utils -->
<g id="edge26" class="edge">
<title>at_client_mobile&#45;&gt;at_utils</title>
<path fill="none" stroke="#75e849" d="M3748.08,-1853.25C3780.96,-1774.59 3905.6,-1443.09 3759.66,-1250.35 3542.68,-963.81 2318.73,-797.93 2068.38,-766.74"/>
<polygon fill="#75e849" stroke="#75e849" points="2068.56,-763.24 2058.21,-765.48 2067.7,-770.19 2068.56,-763.24"/>
</g>
<!-- at_contact&#45;&gt;at_client -->
<g id="edge30" class="edge">
<title>at_contact&#45;&gt;at_client</title>
<path fill="none" stroke="#61d4fc" d="M3577.64,-1853.24C3597.02,-1769.97 3681.5,-1406.95 3705.36,-1304.41"/>
<polygon fill="#61d4fc" stroke="#61d4fc" points="3708.8,-1305.06 3707.66,-1294.53 3701.98,-1303.47 3708.8,-1305.06"/>
</g>
<!-- at_contact&#45;&gt;at_commons -->
<g id="edge31" class="edge">
<title>at_contact&#45;&gt;at_commons</title>
<path fill="none" stroke="#7eceb0" d="M3592.97,-1853.06C3661.22,-1790.49 3891.22,-1566.72 3969.66,-1325.35 4066.46,-1027.42 3813.51,-918.27 3540.66,-734.35 3038.59,-395.93 2288.25,-279.5 2068.33,-251.59"/>
<polygon fill="#7eceb0" stroke="#7eceb0" points="2068.62,-248.1 2058.26,-250.33 2067.75,-255.05 2068.62,-248.1"/>
</g>
<!-- at_contact&#45;&gt;at_utils -->
<g id="edge32" class="edge">
<title>at_contact&#45;&gt;at_utils</title>
<path fill="none" stroke="#75e849" d="M3551.24,-1853.28C3454.68,-1779.83 3064.28,-1483.92 2736.66,-1250.35 2478.65,-1066.41 2161.33,-853.32 2057.96,-784.23"/>
<polygon fill="#75e849" stroke="#75e849" points="2059.73,-781.2 2049.47,-778.56 2055.84,-787.02 2059.73,-781.2"/>
</g>
<!-- at_contacts_flutter -->
<g id="node11" class="node">
<title>at_contacts_flutter</title>
<polygon fill="none" stroke="#1267b5" points="2490.16,-2426.35 2341.16,-2426.35 2341.16,-2390.35 2490.16,-2390.35 2490.16,-2426.35"/>
<text text-anchor="middle" x="2415.66" y="-2404.65" font-family="Times,serif" font-size="14.00">at_contacts_flutter</text>
</g>
<!-- at_contacts_flutter&#45;&gt;at_client -->
<g id="edge38" class="edge">
<title>at_contacts_flutter&#45;&gt;at_client</title>
<path fill="none" stroke="#61d4fc" d="M2426.15,-2390.12C2470.93,-2317.56 2652.89,-2031.99 2854.66,-1845.35 2998.88,-1711.93 3528.79,-1387.95 3674.41,-1299.81"/>
<polygon fill="#61d4fc" stroke="#61d4fc" points="3676.3,-1302.75 3683.05,-1294.58 3672.68,-1296.76 3676.3,-1302.75"/>
</g>
<!-- at_contacts_flutter&#45;&gt;at_client_mobile -->
<g id="edge33" class="edge">
<title>at_contacts_flutter&#45;&gt;at_client_mobile</title>
<path fill="none" stroke="#d9577c" d="M2459.71,-2390.25C2618.41,-2328.52 3175.49,-2110.83 3630.66,-1920.35 3651.22,-1911.74 3673.81,-1901.95 3693.14,-1893.46"/>
<polygon fill="#d9577c" stroke="#d9577c" points="3694.6,-1896.64 3702.34,-1889.41 3691.78,-1890.23 3694.6,-1896.64"/>
</g>
<!-- at_contacts_flutter&#45;&gt;at_common_flutter -->
<g id="edge37" class="edge">
<title>at_contacts_flutter&#45;&gt;at_common_flutter</title>
<path fill="none" stroke="#bf681f" d="M2405.69,-2390.15C2360.56,-2312.26 2175.09,-1992.19 2120.71,-1898.33"/>
<polygon fill="#bf681f" stroke="#bf681f" points="2123.62,-1896.38 2115.58,-1889.48 2117.57,-1899.89 2123.62,-1896.38"/>
</g>
<!-- at_contacts_flutter&#45;&gt;at_commons -->
<g id="edge34" class="edge">
<title>at_contacts_flutter&#45;&gt;at_commons</title>
<path fill="none" stroke="#7eceb0" d="M2422.39,-2390.09C2474.05,-2254.86 2797.42,-1354.53 2501.66,-734.35 2394.03,-508.68 2137.19,-328.18 2041.98,-266.87"/>
<polygon fill="#7eceb0" stroke="#7eceb0" points="2043.85,-263.92 2033.54,-261.48 2040.08,-269.82 2043.85,-263.92"/>
</g>
<!-- at_contacts_flutter&#45;&gt;at_contact -->
<g id="edge36" class="edge">
<title>at_contacts_flutter&#45;&gt;at_contact</title>
<path fill="none" stroke="#250aa2" d="M2469.46,-2390.31C2634.71,-2336.64 3146.23,-2160.25 3519.66,-1920.35 3530.27,-1913.53 3540.87,-1904.66 3549.84,-1896.41"/>
<polygon fill="#250aa2" stroke="#250aa2" points="3552.41,-1898.8 3557.26,-1889.38 3547.59,-1893.72 3552.41,-1898.8"/>
</g>
<!-- at_contacts_flutter&#45;&gt;at_lookup -->
<g id="edge35" class="edge">
<title>at_contacts_flutter&#45;&gt;at_lookup</title>
<path fill="none" stroke="#94d42d" d="M2425.01,-2390.11C2478.64,-2290.47 2749.29,-1777.01 2879.66,-1325.35 2909.98,-1220.28 3024.06,-429.91 3046.73,-271.82"/>
<polygon fill="#94d42d" stroke="#94d42d" points="3050.25,-271.95 3048.2,-261.55 3043.32,-270.95 3050.25,-271.95"/>
</g>
<!-- at_contacts_flutter&#45;&gt;at_utils -->
<g id="edge39" class="edge">
<title>at_contacts_flutter&#45;&gt;at_utils</title>
<path fill="none" stroke="#75e849" d="M2415.77,-2390.24C2416.06,-2283.49 2411.07,-1698.77 2273.66,-1250.35 2215.77,-1061.46 2087.82,-858 2041.14,-787.29"/>
<polygon fill="#75e849" stroke="#75e849" points="2043.8,-784.98 2035.36,-778.58 2037.97,-788.85 2043.8,-784.98"/>
</g>
<!-- at_contacts_group_flutter -->
<g id="node12" class="node">
<title>at_contacts_group_flutter</title>
<polygon fill="none" stroke="#dae1d2" points="2507.66,-2964.35 2309.66,-2964.35 2309.66,-2928.35 2507.66,-2928.35 2507.66,-2964.35"/>
<text text-anchor="middle" x="2408.66" y="-2942.65" font-family="Times,serif" font-size="14.00">at_contacts_group_flutter</text>
</g>
<!-- at_contacts_group_flutter&#45;&gt;at_client_mobile -->
<g id="edge40" class="edge">
<title>at_contacts_group_flutter&#45;&gt;at_client_mobile</title>
<path fill="none" stroke="#d9577c" d="M2431.2,-2928.35C2513.35,-2866.3 2804.09,-2645.83 3038.66,-2457.35 3304.82,-2243.47 3619.63,-1975.73 3713.16,-1895.86"/>
<polygon fill="#d9577c" stroke="#d9577c" points="3715.44,-1898.52 3720.77,-1889.37 3710.89,-1893.2 3715.44,-1898.52"/>
</g>
<!-- at_contacts_group_flutter&#45;&gt;at_common_flutter -->
<g id="edge42" class="edge">
<title>at_contacts_group_flutter&#45;&gt;at_common_flutter</title>
<path fill="none" stroke="#bf681f" d="M2385.93,-2928.16C2312.68,-2871.13 2082.86,-2679.14 2002.66,-2457.35 1927.94,-2250.72 2048.94,-1982.81 2091.63,-1898.76"/>
<polygon fill="#bf681f" stroke="#bf681f" points="2094.85,-1900.15 2096.32,-1889.65 2088.63,-1896.94 2094.85,-1900.15"/>
</g>
<!-- at_contacts_group_flutter&#45;&gt;at_commons -->
<g id="edge41" class="edge">
<title>at_contacts_group_flutter&#45;&gt;at_commons</title>
<path fill="none" stroke="#7eceb0" d="M2309.4,-2930.64C1988.08,-2880.81 986.12,-2707.44 797.66,-2457.35 716.84,-2350.1 798.12,-1369.2 860.66,-1250.35 1133.33,-732.11 1790.23,-358.09 1963.28,-266.22"/>
<polygon fill="#7eceb0" stroke="#7eceb0" points="1965.13,-269.2 1972.34,-261.44 1961.86,-263.01 1965.13,-269.2"/>
</g>
<!-- at_contacts_group_flutter&#45;&gt;at_contact -->
<g id="edge44" class="edge">
<title>at_contacts_group_flutter&#45;&gt;at_contact</title>
<path fill="none" stroke="#250aa2" d="M2430.48,-2928.32C2508.67,-2867.05 2781.4,-2651.2 2992.66,-2457.35 3218.97,-2249.68 3474.09,-1979.14 3550.72,-1897.03"/>
<polygon fill="#250aa2" stroke="#250aa2" points="3553.31,-1899.38 3557.57,-1889.68 3548.19,-1894.61 3553.31,-1899.38"/>
</g>
<!-- at_contacts_group_flutter&#45;&gt;at_contacts_flutter -->
<g id="edge43" class="edge">
<title>at_contacts_group_flutter&#45;&gt;at_contacts_flutter</title>
<path fill="none" stroke="#1267b5" d="M2408.88,-2928.12C2409.9,-2850.39 2414.05,-2532 2415.3,-2436.53"/>
<polygon fill="#1267b5" stroke="#1267b5" points="2418.8,-2436.56 2415.43,-2426.51 2411.8,-2436.46 2418.8,-2436.56"/>
</g>
<!-- at_contacts_group_flutter&#45;&gt;at_utils -->
<g id="edge45" class="edge">
<title>at_contacts_group_flutter&#45;&gt;at_utils</title>
<path fill="none" stroke="#75e849" d="M2309.44,-2930.26C1991.29,-2879.68 1006.66,-2705.18 823.66,-2457.35 743.86,-2349.29 811.61,-1358.22 891.66,-1250.35 1172.02,-872.54 1805.22,-783.03 1978.88,-765.26"/>
<polygon fill="#75e849" stroke="#75e849" points="1979.34,-768.73 1988.94,-764.26 1978.64,-761.77 1979.34,-768.73"/>
</g>
<!-- at_cram -->
<g id="node13" class="node">
<title>at_cram</title>
<polygon fill="none" stroke="#c89a29" points="1933.66,-1294.35 1859.66,-1294.35 1859.66,-1258.35 1933.66,-1258.35 1933.66,-1294.35"/>
<text text-anchor="middle" x="1896.66" y="-1272.65" font-family="Times,serif" font-size="14.00">at_cram</text>
</g>
<!-- at_daemon_cli -->
<g id="node14" class="node">
<title>at_daemon_cli</title>
<polygon fill="none" stroke="#8e17d5" points="1021.16,-2426.35 904.16,-2426.35 904.16,-2390.35 1021.16,-2390.35 1021.16,-2426.35"/>
<text text-anchor="middle" x="962.66" y="-2404.65" font-family="Times,serif" font-size="14.00">at_daemon_cli</text>
</g>
<!-- at_daemon_cli&#45;&gt;at_client -->
<g id="edge46" class="edge">
<title>at_daemon_cli&#45;&gt;at_client</title>
<path fill="none" stroke="#61d4fc" d="M988.58,-2390.19C1083.09,-2327.61 1417.94,-2105.63 1692.66,-1920.35 1741.71,-1887.26 1749.07,-1870.43 1802.66,-1845.35 2567.68,-1487.26 2854.66,-1658.98 3630.66,-1325.35 3646.95,-1318.34 3663.98,-1308.66 3678.19,-1299.82"/>
<polygon fill="#61d4fc" stroke="#61d4fc" points="3680.08,-1302.77 3686.65,-1294.45 3676.33,-1296.85 3680.08,-1302.77"/>
</g>
<!-- at_daemon_cli&#45;&gt;at_commons -->
<g id="edge51" class="edge">
<title>at_daemon_cli&#45;&gt;at_commons</title>
<path fill="none" stroke="#7eceb0" d="M985.38,-2390.03C1142.04,-2275.97 2058.01,-1627.57 2199.66,-1325.35 2311.21,-1087.34 2277.79,-991.13 2221.66,-734.35 2180.23,-544.87 2058.47,-341.12 2018.32,-270.32"/>
<polygon fill="#7eceb0" stroke="#7eceb0" points="2021.38,-268.61 2013.43,-261.6 2015.27,-272.04 2021.38,-268.61"/>
</g>
<!-- at_daemon_cli&#45;&gt;at_commons -->
<g id="edge54" class="edge">
<title>at_daemon_cli&#45;&gt;at_commons</title>
<path fill="none" stroke="#7eceb0" stroke-dasharray="1,5" d="M989.53,-2390.22C1159.05,-2276.66 2075.93,-1627.73 2217.66,-1325.35 2329.21,-1087.34 2295.79,-991.13 2239.66,-734.35 2198.15,-544.48 2075.97,-340.29 2026.48,-269.89"/>
<polygon fill="#7eceb0" stroke="#7eceb0" points="2029.21,-267.69 2020.54,-261.6 2023.52,-271.77 2029.21,-267.69"/>
</g>
<!-- at_daemon_core -->
<g id="node16" class="node">
<title>at_daemon_core</title>
<polygon fill="none" stroke="#c16272" points="1365.16,-1294.35 1234.16,-1294.35 1234.16,-1258.35 1365.16,-1258.35 1365.16,-1294.35"/>
<text text-anchor="middle" x="1299.66" y="-1272.65" font-family="Times,serif" font-size="14.00">at_daemon_core</text>
</g>
<!-- at_daemon_cli&#45;&gt;at_daemon_core -->
<g id="edge48" class="edge">
<title>at_daemon_cli&#45;&gt;at_daemon_core</title>
<path fill="none" stroke="#c16272" d="M969.82,-2390C1001.84,-2328.51 1127.92,-2114.31 1188.66,-1920.35 1225.84,-1801.6 1274.52,-1411.44 1293.14,-1304.61"/>
<polygon fill="#c16272" stroke="#c16272" points="1296.61,-1305.09 1294.95,-1294.62 1289.72,-1303.84 1296.61,-1305.09"/>
</g>
<!-- at_daemon_cli&#45;&gt;at_daemon_core -->
<g id="edge52" class="edge">
<title>at_daemon_cli&#45;&gt;at_daemon_core</title>
<path fill="none" stroke="#c16272" stroke-dasharray="1,5" d="M976.93,-2390C1019.84,-2328.51 1145.92,-2114.31 1206.66,-1920.35 1243.8,-1801.72 1292.42,-1412.23 1299.66,-1304.93"/>
<polygon fill="#c16272" stroke="#c16272" points="1303.17,-1304.81 1300.27,-1294.62 1296.19,-1304.4 1303.17,-1304.81"/>
</g>
<!-- at_daemon_server -->
<g id="node18" class="node">
<title>at_daemon_server</title>
<polygon fill="none" stroke="#4bd261" points="1372.66,-1889.35 1226.66,-1889.35 1226.66,-1853.35 1372.66,-1853.35 1372.66,-1889.35"/>
<text text-anchor="middle" x="1299.66" y="-1867.65" font-family="Times,serif" font-size="14.00">at_daemon_server</text>
</g>
<!-- at_daemon_cli&#45;&gt;at_daemon_server -->
<g id="edge49" class="edge">
<title>at_daemon_cli&#45;&gt;at_daemon_server</title>
<path fill="none" stroke="#4bd261" d="M970.9,-2390.15C1014.69,-2312.1 1216.85,-1990.89 1280.56,-1897.76"/>
<polygon fill="#4bd261" stroke="#4bd261" points="1283.48,-1899.7 1286.28,-1889.48 1277.72,-1895.72 1283.48,-1899.7"/>
</g>
<!-- at_daemon_cli&#45;&gt;at_daemon_server -->
<g id="edge53" class="edge">
<title>at_daemon_cli&#45;&gt;at_daemon_server</title>
<path fill="none" stroke="#4bd261" stroke-dasharray="1,5" d="M976.08,-2390.15C1030.51,-2312.26 1232.3,-1992.19 1286.41,-1898.33"/>
<polygon fill="#4bd261" stroke="#4bd261" points="1289.54,-1899.9 1291.45,-1889.48 1283.46,-1896.44 1289.54,-1899.9"/>
</g>
<!-- at_daemon_cli&#45;&gt;at_onboarding_cli -->
<g id="edge47" class="edge">
<title>at_daemon_cli&#45;&gt;at_onboarding_cli</title>
<path fill="none" stroke="#514d2d" d="M984.58,-2390.33C1092.92,-2306.42 1572.45,-1937.03 1736.66,-1845.35 2217.71,-1576.74 2851.83,-1362.44 3052.75,-1297.58"/>
<polygon fill="#514d2d" stroke="#514d2d" points="3054.11,-1300.82 3062.56,-1294.42 3051.96,-1294.16 3054.11,-1300.82"/>
</g>
<!-- at_daemon_cli&#45;&gt;at_utils -->
<g id="edge50" class="edge">
<title>at_daemon_cli&#45;&gt;at_utils</title>
<path fill="none" stroke="#75e849" d="M982.07,-2390.04C1124.75,-2262.66 2007.4,-1470.97 2068.66,-1325.35 2149.64,-1132.82 2065.05,-871.02 2034.07,-787.85"/>
<polygon fill="#75e849" stroke="#75e849" points="2037.3,-786.5 2030.48,-778.39 2030.75,-788.98 2037.3,-786.5"/>
</g>
<!-- at_daemon_client -->
<g id="node15" class="node">
<title>at_daemon_client</title>
<polygon fill="none" stroke="#dbe812" points="1188.66,-1889.35 1048.66,-1889.35 1048.66,-1853.35 1188.66,-1853.35 1188.66,-1889.35"/>
<text text-anchor="middle" x="1118.66" y="-1867.65" font-family="Times,serif" font-size="14.00">at_daemon_client</text>
</g>
<!-- at_daemon_client&#45;&gt;at_daemon_core -->
<g id="edge55" class="edge">
<title>at_daemon_client&#45;&gt;at_daemon_core</title>
<path fill="none" stroke="#c16272" d="M1121.41,-1853.24C1141.33,-1769.89 1252.15,-1406.21 1288.47,-1304.1"/>
<polygon fill="#c16272" stroke="#c16272" points="1291.83,-1305.12 1291.95,-1294.53 1285.25,-1302.73 1291.83,-1305.12"/>
</g>
<!-- at_daemon_client&#45;&gt;at_daemon_core -->
<g id="edge56" class="edge">
<title>at_daemon_client&#45;&gt;at_daemon_core</title>
<path fill="none" stroke="#c16272" stroke-dasharray="1,5" d="M1126.34,-1853.24C1157.28,-1769.97 1268.27,-1406.95 1294.43,-1304.41"/>
<polygon fill="#c16272" stroke="#c16272" points="1297.87,-1305.07 1296.88,-1294.53 1291.08,-1303.39 1297.87,-1305.07"/>
</g>
<!-- at_daemon_core&#45;&gt;at_commons -->
<g id="edge58" class="edge">
<title>at_daemon_core&#45;&gt;at_commons</title>
<path fill="none" stroke="#7eceb0" d="M1307.42,-1257.89C1344.9,-1190.06 1506.19,-937.7 1645.66,-734.35 1769.36,-553.98 1925.03,-341.52 1982.92,-269.59"/>
<polygon fill="#7eceb0" stroke="#7eceb0" points="1985.88,-271.49 1989.48,-261.53 1980.45,-267.07 1985.88,-271.49"/>
</g>
<!-- at_daemon_core&#45;&gt;at_commons -->
<g id="edge59" class="edge">
<title>at_daemon_core&#45;&gt;at_commons</title>
<path fill="none" stroke="#7eceb0" stroke-dasharray="1,5" d="M1314.07,-1257.89C1362.9,-1190.06 1524.19,-937.7 1663.66,-734.35 1787.11,-554.35 1942.4,-342.38 1990.83,-270.03"/>
<polygon fill="#7eceb0" stroke="#7eceb0" points="1993.85,-271.8 1996.44,-261.53 1988.01,-267.94 1993.85,-271.8"/>
</g>
<!-- at_daemon_core&#45;&gt;at_utils -->
<g id="edge57" class="edge">
<title>at_daemon_core&#45;&gt;at_utils</title>
<path fill="none" stroke="#75e849" d="M1323.75,-1258.25C1431.33,-1181.87 1867.97,-871.87 1991.16,-784.42"/>
<polygon fill="#75e849" stroke="#75e849" points="1993.35,-787.16 1999.48,-778.51 1989.3,-781.45 1993.35,-787.16"/>
</g>
<!-- at_daemon_desktop -->
<g id="node17" class="node">
<title>at_daemon_desktop</title>
<polygon fill="none" stroke="#89d485" points="1196.16,-2426.35 1039.16,-2426.35 1039.16,-2390.35 1196.16,-2390.35 1196.16,-2426.35"/>
<text text-anchor="middle" x="1117.66" y="-2404.65" font-family="Times,serif" font-size="14.00">at_daemon_desktop</text>
</g>
<!-- at_daemon_server&#45;&gt;at_client -->
<g id="edge60" class="edge">
<title>at_daemon_server&#45;&gt;at_client</title>
<path fill="none" stroke="#61d4fc" d="M1372.9,-1861.51C1666.14,-1824.41 2780.66,-1667.13 3630.66,-1325.35 3647.23,-1318.68 3664.42,-1308.96 3678.68,-1300"/>
<polygon fill="#61d4fc" stroke="#61d4fc" points="3680.63,-1302.91 3687.14,-1294.56 3676.84,-1297.02 3680.63,-1302.91"/>
</g>
<!-- at_daemon_server&#45;&gt;at_commons -->
<g id="edge65" class="edge">
<title>at_daemon_server&#45;&gt;at_commons</title>
<path fill="none" stroke="#7eceb0" stroke-dasharray="1,5" d="M1365.55,-1853.33C1537.28,-1804.98 1997.67,-1648.91 2177.66,-1325.35 2386.08,-950.66 2093.52,-396.75 2021.15,-270.57"/>
<polygon fill="#7eceb0" stroke="#7eceb0" points="2023.99,-268.5 2015.96,-261.59 2017.93,-272 2023.99,-268.5"/>
</g>
<!-- at_daemon_server&#45;&gt;at_daemon_core -->
<g id="edge61" class="edge">
<title>at_daemon_server&#45;&gt;at_daemon_core</title>
<path fill="none" stroke="#c16272" d="M1297.19,-1853.24C1291.68,-1770.06 1291.48,-1407.68 1296.61,-1304.72"/>
<polygon fill="#c16272" stroke="#c16272" points="1300.11,-1304.71 1297.19,-1294.53 1293.12,-1304.31 1300.11,-1304.71"/>
</g>
<!-- at_daemon_server&#45;&gt;at_daemon_core -->
<g id="edge64" class="edge">
<title>at_daemon_server&#45;&gt;at_daemon_core</title>
<path fill="none" stroke="#c16272" stroke-dasharray="1,5" d="M1302.12,-1853.24C1307.63,-1770.06 1307.83,-1407.68 1302.71,-1304.72"/>
<polygon fill="#c16272" stroke="#c16272" points="1306.19,-1304.31 1302.12,-1294.53 1299.2,-1304.71 1306.19,-1304.31"/>
</g>
<!-- at_daemon_server&#45;&gt;at_onboarding_cli -->
<g id="edge63" class="edge">
<title>at_daemon_server&#45;&gt;at_onboarding_cli</title>
<path fill="none" stroke="#514d2d" d="M1352.08,-1853.24C1613.29,-1767.99 2773.04,-1389.49 3054.81,-1297.53"/>
<polygon fill="#514d2d" stroke="#514d2d" points="3056.04,-1300.81 3064.46,-1294.38 3053.87,-1294.16 3056.04,-1300.81"/>
</g>
<!-- at_server_spec -->
<g id="node38" class="node">
<title>at_server_spec</title>
<polygon fill="none" stroke="#e6f023" points="507.66,-1294.35 385.66,-1294.35 385.66,-1258.35 507.66,-1258.35 507.66,-1294.35"/>
<text text-anchor="middle" x="446.66" y="-1272.65" font-family="Times,serif" font-size="14.00">at_server_spec</text>
</g>
<!-- at_daemon_server&#45;&gt;at_server_spec -->
<g id="edge62" class="edge">
<title>at_daemon_server&#45;&gt;at_server_spec</title>
<path fill="none" stroke="#e6f023" d="M1275.05,-1853.24C1153.7,-1768.88 619.28,-1397.35 479.96,-1300.5"/>
<polygon fill="#e6f023" stroke="#e6f023" points="481.57,-1297.36 471.36,-1294.53 477.58,-1303.11 481.57,-1297.36"/>
</g>
<!-- at_dump_atKeys -->
<g id="node19" class="node">
<title>at_dump_atKeys</title>
<polygon fill="none" stroke="#80b159" points="1685.16,-1294.35 1552.16,-1294.35 1552.16,-1258.35 1685.16,-1258.35 1685.16,-1294.35"/>
<text text-anchor="middle" x="1618.66" y="-1272.65" font-family="Times,serif" font-size="14.00">at_dump_atKeys</text>
</g>
<!-- at_pkam -->
<g id="node33" class="node">
<title>at_pkam</title>
<polygon fill="none" stroke="#d549ec" points="1740.16,-778.35 1663.16,-778.35 1663.16,-742.35 1740.16,-742.35 1740.16,-778.35"/>
<text text-anchor="middle" x="1701.66" y="-756.65" font-family="Times,serif" font-size="14.00">at_pkam</text>
</g>
<!-- at_dump_atKeys&#45;&gt;at_pkam -->
<g id="edge66" class="edge">
<title>at_dump_atKeys&#45;&gt;at_pkam</title>
<path fill="none" stroke="#d549ec" stroke-dasharray="1,5" d="M1621.42,-1258.25C1633.57,-1183.01 1682.32,-881.12 1697.27,-788.5"/>
<polygon fill="#d549ec" stroke="#d549ec" points="1700.75,-788.94 1698.88,-778.51 1693.83,-787.83 1700.75,-788.94"/>
</g>
<!-- at_events_flutter -->
<g id="node20" class="node">
<title>at_events_flutter</title>
<polygon fill="none" stroke="#5b74f7" points="2681.16,-3480.35 2544.16,-3480.35 2544.16,-3444.35 2681.16,-3444.35 2681.16,-3480.35"/>
<text text-anchor="middle" x="2612.66" y="-3458.65" font-family="Times,serif" font-size="14.00">at_events_flutter</text>
</g>
<!-- at_events_flutter&#45;&gt;at_client -->
<g id="edge72" class="edge">
<title>at_events_flutter&#45;&gt;at_client</title>
<path fill="none" stroke="#61d4fc" d="M2642.05,-3444.21C2784.67,-3359.25 3408.27,-2966.89 3665.66,-2457.35 3791.92,-2207.38 3840.98,-2124.25 3815.66,-1845.35 3796.53,-1634.66 3738.27,-1385.36 3718.39,-1304.27"/>
<polygon fill="#61d4fc" stroke="#61d4fc" points="3721.74,-1303.26 3715.95,-1294.39 3714.94,-1304.93 3721.74,-1303.26"/>
</g>
<!-- at_events_flutter&#45;&gt;at_client_mobile -->
<g id="edge68" class="edge">
<title>at_events_flutter&#45;&gt;at_client_mobile</title>
<path fill="none" stroke="#d9577c" d="M2639.87,-3444.31C2774.65,-3358.32 3374.61,-2956.48 3637.66,-2457.35 3740.24,-2262.68 3743.37,-1986.12 3741.57,-1899.41"/>
<polygon fill="#d9577c" stroke="#d9577c" points="3745.07,-1899.26 3741.32,-1889.35 3738.07,-1899.44 3745.07,-1899.26"/>
</g>
<!-- at_events_flutter&#45;&gt;at_common_flutter -->
<g id="edge76" class="edge">
<title>at_events_flutter&#45;&gt;at_common_flutter</title>
<path fill="none" stroke="#bf681f" d="M2596.33,-3444.13C2510.6,-3352.4 2111.62,-2908.38 1981.66,-2457.35 1920.55,-2245.28 2046.43,-1982.02 2090.89,-1898.82"/>
<polygon fill="#bf681f" stroke="#bf681f" points="2094.09,-1900.26 2095.77,-1889.8 2087.94,-1896.93 2094.09,-1900.26"/>
</g>
<!-- at_events_flutter&#45;&gt;at_commons -->
<g id="edge67" class="edge">
<title>at_events_flutter&#45;&gt;at_commons</title>
<path fill="none" stroke="#7eceb0" d="M2642.76,-3444.26C2745.57,-3385.2 3089.99,-3181.38 3336.66,-2964.35 3951.32,-2423.52 4246.8,-2034.58 4011.66,-1250.35 3932.78,-987.28 3892.42,-897.73 3671.66,-734.35 3142.14,-342.47 2302.85,-262.58 2068.34,-247.58"/>
<polygon fill="#7eceb0" stroke="#7eceb0" points="2068.48,-244.09 2058.28,-246.96 2068.04,-251.07 2068.48,-244.09"/>
</g>
<!-- at_events_flutter&#45;&gt;at_contact -->
<g id="edge69" class="edge">
<title>at_events_flutter&#45;&gt;at_contact</title>
<path fill="none" stroke="#250aa2" d="M2627.56,-3444.07C2680.81,-3381.88 2865.3,-3162.67 2992.66,-2964.35 3253.64,-2557.95 3504.5,-2022.77 3561.58,-1898.77"/>
<polygon fill="#250aa2" stroke="#250aa2" points="3564.79,-1900.16 3565.78,-1889.61 3558.43,-1897.24 3564.79,-1900.16"/>
</g>
<!-- at_events_flutter&#45;&gt;at_contacts_flutter -->
<g id="edge74" class="edge">
<title>at_events_flutter&#45;&gt;at_contacts_flutter</title>
<path fill="none" stroke="#1267b5" d="M2609.68,-3444.3C2598.07,-3378.04 2554.66,-3131.2 2516.66,-2928.35 2481.37,-2740.02 2436.48,-2513.76 2421.11,-2436.63"/>
<polygon fill="#1267b5" stroke="#1267b5" points="2424.44,-2435.48 2419.06,-2426.36 2417.58,-2436.85 2424.44,-2435.48"/>
</g>
<!-- at_events_flutter&#45;&gt;at_contacts_group_flutter -->
<g id="edge73" class="edge">
<title>at_events_flutter&#45;&gt;at_contacts_group_flutter</title>
<path fill="none" stroke="#dae1d2" d="M2605.87,-3444.25C2575.95,-3368.86 2455.71,-3065.9 2419.21,-2973.94"/>
<polygon fill="#dae1d2" stroke="#dae1d2" points="2422.41,-2972.52 2415.47,-2964.51 2415.91,-2975.1 2422.41,-2972.52"/>
</g>
<!-- at_location_flutter -->
<g id="node24" class="node">
<title>at_location_flutter</title>
<polygon fill="none" stroke="#283e9c" points="2691.66,-2964.35 2545.66,-2964.35 2545.66,-2928.35 2691.66,-2928.35 2691.66,-2964.35"/>
<text text-anchor="middle" x="2618.66" y="-2942.65" font-family="Times,serif" font-size="14.00">at_location_flutter</text>
</g>
<!-- at_events_flutter&#45;&gt;at_location_flutter -->
<g id="edge75" class="edge">
<title>at_events_flutter&#45;&gt;at_location_flutter</title>
<path fill="none" stroke="#283e9c" d="M2612.86,-3444.25C2613.73,-3369.09 2617.25,-3067.73 2618.34,-2974.79"/>
<polygon fill="#283e9c" stroke="#283e9c" points="2621.84,-2974.55 2618.46,-2964.51 2614.84,-2974.47 2621.84,-2974.55"/>
</g>
<!-- at_events_flutter&#45;&gt;at_lookup -->
<g id="edge70" class="edge">
<title>at_events_flutter&#45;&gt;at_lookup</title>
<path fill="none" stroke="#94d42d" d="M2671.37,-3444.28C2925.15,-3370 3919.26,-3073.78 4012.66,-2964.35 4493.63,-2400.83 4248.82,-2063.1 4316.66,-1325.35 4341.26,-1057.81 4363.33,-939.33 4189.66,-734.35 3888.99,-379.5 3284.54,-274.6 3103.23,-250.5"/>
<polygon fill="#94d42d" stroke="#94d42d" points="3103.53,-247.01 3093.16,-249.18 3102.62,-253.95 3103.53,-247.01"/>
</g>
<!-- at_events_flutter&#45;&gt;at_utils -->
<g id="edge71" class="edge">
<title>at_events_flutter&#45;&gt;at_utils</title>
<path fill="none" stroke="#75e849" d="M2643.32,-3444.23C2745.55,-3386.23 3081.03,-3188.22 3307.66,-2964.35 3698.69,-2578.06 3829.76,-2451.64 3970.66,-1920.35 4047,-1632.47 4167,-1485.06 3983.66,-1250.35 3734.12,-930.91 2337.12,-789.65 2068.38,-765.24"/>
<polygon fill="#75e849" stroke="#75e849" points="2068.49,-761.74 2058.22,-764.33 2067.87,-768.71 2068.49,-761.74"/>
</g>
<!-- at_follows_flutter -->
<g id="node21" class="node">
<title>at_follows_flutter</title>
<polygon fill="none" stroke="#13b24b" points="2839.66,-3480.35 2699.66,-3480.35 2699.66,-3444.35 2839.66,-3444.35 2839.66,-3480.35"/>
<text text-anchor="middle" x="2769.66" y="-3458.65" font-family="Times,serif" font-size="14.00">at_follows_flutter</text>
</g>
<!-- at_follows_flutter&#45;&gt;at_client -->
<g id="edge79" class="edge">
<title>at_follows_flutter&#45;&gt;at_client</title>
<path fill="none" stroke="#61d4fc" d="M2836.33,-3444.25C3069,-3383.13 3838.25,-3168.16 3974.66,-2964.35 4168.11,-2675.29 3785.85,-1498.47 3720.85,-1304.48"/>
<polygon fill="#61d4fc" stroke="#61d4fc" points="3724.09,-1303.15 3717.59,-1294.78 3717.46,-1305.38 3724.09,-1303.15"/>
</g>
<!-- at_follows_flutter&#45;&gt;at_client_mobile -->
<g id="edge80" class="edge">
<title>at_follows_flutter&#45;&gt;at_client_mobile</title>
<path fill="none" stroke="#d9577c" d="M2816.24,-3444.31C2992.52,-3378.82 3614.21,-3138.22 3721.66,-2964.35 3946.58,-2600.37 3789.74,-2029.59 3749.4,-1899.4"/>
<polygon fill="#d9577c" stroke="#d9577c" points="3752.62,-1897.97 3746.28,-1889.47 3745.94,-1900.06 3752.62,-1897.97"/>
</g>
<!-- at_follows_flutter&#45;&gt;at_commons -->
<g id="edge78" class="edge">
<title>at_follows_flutter&#45;&gt;at_commons</title>
<path fill="none" stroke="#7eceb0" d="M2828.85,-3444.29C3083.5,-3370.37 4077.04,-3076.45 4166.66,-2964.35 4477.57,-2575.41 4299.51,-2337.16 4221.66,-1845.35 4136.77,-1309.08 4147.15,-1061.26 3713.66,-734.35 3174.27,-327.58 2307.82,-258.17 2068.59,-246.61"/>
<polygon fill="#7eceb0" stroke="#7eceb0" points="2068.5,-243.1 2058.34,-246.13 2068.17,-250.09 2068.5,-243.1"/>
</g>
<!-- at_follows_flutter&#45;&gt;at_lookup -->
<g id="edge82" class="edge">
<title>at_follows_flutter&#45;&gt;at_lookup</title>
<path fill="none" stroke="#94d42d" d="M2836.29,-3444.24C3117.86,-3371.36 4200.07,-3084.99 4297.66,-2964.35 4758.26,-2394.92 4430.6,-2056.76 4468.66,-1325.35 4482.3,-1063.04 4621.07,-948.27 4468.66,-734.35 4299.35,-496.71 3340.3,-299.72 3103.51,-254.24"/>
<polygon fill="#94d42d" stroke="#94d42d" points="3103.91,-250.75 3093.43,-252.31 3102.6,-257.63 3103.91,-250.75"/>
</g>
<!-- at_server_status -->
<g id="node39" class="node">
<title>at_server_status</title>
<polygon fill="none" stroke="#320113" points="3359.66,-778.35 3225.66,-778.35 3225.66,-742.35 3359.66,-742.35 3359.66,-778.35"/>
<text text-anchor="middle" x="3292.66" y="-756.65" font-family="Times,serif" font-size="14.00">at_server_status</text>
</g>
<!-- at_follows_flutter&#45;&gt;at_server_status -->
<g id="edge81" class="edge">
<title>at_follows_flutter&#45;&gt;at_server_status</title>
<path fill="none" stroke="#320113" d="M2828.67,-3444.32C3081.37,-3370.82 4063.2,-3079.37 4145.66,-2964.35 4256.62,-2809.56 4226.55,-1412.5 4126.66,-1250.35 3950.48,-964.37 3540.12,-826.69 3369.35,-780.2"/>
<polygon fill="#320113" stroke="#320113" points="3370.25,-776.82 3359.68,-777.59 3368.42,-783.58 3370.25,-776.82"/>
</g>
<!-- at_follows_flutter&#45;&gt;at_utils -->
<g id="edge77" class="edge">
<title>at_follows_flutter&#45;&gt;at_utils</title>
<path fill="none" stroke="#75e849" d="M2836.86,-3444.35C3072.36,-3383.32 3853.81,-3168.08 3997.66,-2964.35 4208.41,-2665.87 4133.26,-1392.55 4021.66,-1250.35 3766.7,-925.47 2341.59,-788.48 2068.8,-765.06"/>
<polygon fill="#75e849" stroke="#75e849" points="2068.75,-761.54 2058.49,-764.18 2068.15,-768.52 2068.75,-761.54"/>
</g>
<!-- at_hive_recovery -->
<g id="node22" class="node">
<title>at_hive_recovery</title>
<polygon fill="none" stroke="#f0efbc" points="1534.16,-1294.35 1397.16,-1294.35 1397.16,-1258.35 1534.16,-1258.35 1534.16,-1294.35"/>
<text text-anchor="middle" x="1465.66" y="-1272.65" font-family="Times,serif" font-size="14.00">at_hive_recovery</text>
</g>
<!-- at_hive_recovery&#45;&gt;at_persistence_secondary_server -->
<g id="edge83" class="edge">
<title>at_hive_recovery&#45;&gt;at_persistence_secondary_server</title>
<path fill="none" stroke="#9760d3" d="M1467.01,-1294.68C1469.95,-1349.78 1470.18,-1514.43 1375.66,-1585.35 1023.71,-1849.41 762.72,-1812.11 385.66,-1585.35 281.35,-1522.62 239.85,-1368.74 226.74,-1304.86"/>
<polygon fill="#9760d3" stroke="#9760d3" points="230.11,-1303.85 224.75,-1294.71 223.24,-1305.2 230.11,-1303.85"/>
</g>
<!-- at_invitation_flutter -->
<g id="node23" class="node">
<title>at_invitation_flutter</title>
<polygon fill="none" stroke="#b653c9" points="2184.66,-2426.35 2026.66,-2426.35 2026.66,-2390.35 2184.66,-2390.35 2184.66,-2426.35"/>
<text text-anchor="middle" x="2105.66" y="-2404.65" font-family="Times,serif" font-size="14.00">at_invitation_flutter</text>
</g>
<!-- at_invitation_flutter&#45;&gt;at_client_mobile -->
<g id="edge84" class="edge">
<title>at_invitation_flutter&#45;&gt;at_client_mobile</title>
<path fill="none" stroke="#d9577c" d="M2166.72,-2390.29C2374.29,-2331.79 3070.82,-2131.25 3630.66,-1920.35 3652.02,-1912.3 3675.25,-1902.35 3694.83,-1893.6"/>
<polygon fill="#d9577c" stroke="#d9577c" points="3696.44,-1896.71 3704.13,-1889.41 3693.57,-1890.32 3696.44,-1896.71"/>
</g>
<!-- at_invitation_flutter&#45;&gt;at_common_flutter -->
<g id="edge85" class="edge">
<title>at_invitation_flutter&#45;&gt;at_common_flutter</title>
<path fill="none" stroke="#bf681f" d="M2105.66,-2390.15C2105.66,-2312.65 2105.66,-1995.41 2105.66,-1899.77"/>
<polygon fill="#bf681f" stroke="#bf681f" points="2109.16,-1899.48 2105.66,-1889.48 2102.16,-1899.48 2109.16,-1899.48"/>
</g>
<!-- at_invitation_flutter&#45;&gt;at_commons -->
<g id="edge86" class="edge">
<title>at_invitation_flutter&#45;&gt;at_commons</title>
<path fill="none" stroke="#7eceb0" d="M2116.53,-2390.25C2199.19,-2258.06 2718.17,-1386.53 2461.66,-734.35 2373.87,-511.16 2131.27,-329.38 2040.52,-267.29"/>
<polygon fill="#7eceb0" stroke="#7eceb0" points="2042.21,-264.2 2031.97,-261.48 2038.28,-270 2042.21,-264.2"/>
</g>
<!-- at_invitation_flutter&#45;&gt;at_lookup -->
<g id="edge87" class="edge">
<title>at_invitation_flutter&#45;&gt;at_lookup</title>
<path fill="none" stroke="#94d42d" d="M2116.43,-2390C2154.95,-2327.68 2288.7,-2108.77 2384.66,-1920.35 2712.45,-1276.68 2990.31,-432.03 3042.03,-271.36"/>
<polygon fill="#94d42d" stroke="#94d42d" points="3045.51,-271.97 3045.24,-261.38 3038.85,-269.83 3045.51,-271.97"/>
</g>
<!-- at_invitation_flutter&#45;&gt;at_utils -->
<g id="edge88" class="edge">
<title>at_invitation_flutter&#45;&gt;at_utils</title>
<path fill="none" stroke="#75e849" d="M2112.27,-2390.16C2152.2,-2284.06 2355.88,-1707.87 2253.66,-1250.35 2211.27,-1060.64 2086.83,-857.69 2040.92,-787.2"/>
<polygon fill="#75e849" stroke="#75e849" points="2043.64,-784.97 2035.23,-778.52 2037.79,-788.8 2043.64,-784.97"/>
</g>
<!-- at_location_flutter&#45;&gt;at_client -->
<g id="edge94" class="edge">
<title>at_location_flutter&#45;&gt;at_client</title>
<path fill="none" stroke="#61d4fc" d="M2545.45,-2930.07C2229.82,-2863.51 996.49,-2595.91 891.66,-2457.35 809.6,-2348.89 804.92,-1950.1 891.66,-1845.35 1681.89,-890.97 2471.57,-1763.33 3630.66,-1325.35 3647.62,-1318.94 3665.1,-1309.06 3679.46,-1299.94"/>
<polygon fill="#61d4fc" stroke="#61d4fc" points="3681.5,-1302.78 3687.96,-1294.39 3677.68,-1296.92 3681.5,-1302.78"/>
</g>
<!-- at_location_flutter&#45;&gt;at_client_mobile -->
<g id="edge89" class="edge">
<title>at_location_flutter&#45;&gt;at_client_mobile</title>
<path fill="none" stroke="#d9577c" d="M2639.58,-2928.26C2714.55,-2866.8 2976.04,-2650.36 3178.66,-2457.35 3397.25,-2249.12 3643.81,-1979.43 3718.24,-1897.22"/>
<polygon fill="#d9577c" stroke="#d9577c" points="3720.98,-1899.4 3725.09,-1889.64 3715.79,-1894.7 3720.98,-1899.4"/>
</g>
<!-- at_location_flutter&#45;&gt;at_common_flutter -->
<g id="edge95" class="edge">
<title>at_location_flutter&#45;&gt;at_common_flutter</title>
<path fill="none" stroke="#bf681f" d="M2578.76,-2928.24C2464.91,-2876.92 2138.86,-2711.88 2017.66,-2457.35 1969.31,-2355.81 2068.08,-1999.88 2097.64,-1899.11"/>
<polygon fill="#bf681f" stroke="#bf681f" points="2101.04,-1899.98 2100.51,-1889.4 2094.32,-1898 2101.04,-1899.98"/>
</g>
<!-- at_location_flutter&#45;&gt;at_commons -->
<g id="edge91" class="edge">
<title>at_location_flutter&#45;&gt;at_commons</title>
<path fill="none" stroke="#7eceb0" d="M2545.62,-2930.5C2226.36,-2864.9 964.53,-2598.07 856.66,-2457.35 773.91,-2349.41 777.74,-1958.86 852.66,-1845.35 1176.42,-1354.77 1744.89,-1815.93 2068.66,-1325.35 2302.56,-970.93 2074.64,-400.35 2017.78,-271"/>
<polygon fill="#7eceb0" stroke="#7eceb0" points="2020.81,-269.19 2013.55,-261.47 2014.41,-272.03 2020.81,-269.19"/>
</g>
<!-- at_location_flutter&#45;&gt;at_contact -->
<g id="edge92" class="edge">
<title>at_location_flutter&#45;&gt;at_contact</title>
<path fill="none" stroke="#250aa2" d="M2639.54,-2928.17C2712.5,-2867.69 2961.29,-2657.38 3139.66,-2457.35 3319.93,-2255.17 3502.36,-1981.78 3557.14,-1897.88"/>
<polygon fill="#250aa2" stroke="#250aa2" points="3560.09,-1899.77 3562.61,-1889.48 3554.22,-1895.95 3560.09,-1899.77"/>
</g>
<!-- at_location_flutter&#45;&gt;at_contacts_flutter -->
<g id="edge96" class="edge">
<title>at_location_flutter&#45;&gt;at_contacts_flutter</title>
<path fill="none" stroke="#1267b5" d="M2612.13,-2928.12C2582.63,-2850.24 2461.62,-2530.7 2425.73,-2435.95"/>
<polygon fill="#1267b5" stroke="#1267b5" points="2428.97,-2434.62 2422.16,-2426.51 2422.43,-2437.1 2428.97,-2434.62"/>
</g>
<!-- at_location_flutter&#45;&gt;at_lookup -->
<g id="edge90" class="edge">
<title>at_location_flutter&#45;&gt;at_lookup</title>
<path fill="none" stroke="#94d42d" d="M2640.61,-2927.97C2711.4,-2870.34 2933.46,-2676.72 3010.66,-2457.35 3020.54,-2429.26 3012.05,-2420.09 3010.66,-2390.35 3000.87,-2180.77 2976.44,-2129.92 2966.66,-1920.35 2935.4,-1251.06 3028.09,-431.68 3047.26,-272.03"/>
<polygon fill="#94d42d" stroke="#94d42d" points="3050.79,-272.03 3048.51,-261.68 3043.84,-271.19 3050.79,-272.03"/>
</g>
<!-- at_location_flutter&#45;&gt;at_utils -->
<g id="edge93" class="edge">
<title>at_location_flutter&#45;&gt;at_utils</title>
<path fill="none" stroke="#75e849" d="M2645.63,-2928.24C2741.8,-2864.87 3058.69,-2634.58 2992.66,-2390.35 2892.16,-2018.61 2165.47,-964.98 2041.59,-787.03"/>
<polygon fill="#75e849" stroke="#75e849" points="2044.43,-784.97 2035.84,-778.77 2038.68,-788.98 2044.43,-784.97"/>
</g>
<!-- at_login_flutter -->
<g id="node25" class="node">
<title>at_login_flutter</title>
<polygon fill="none" stroke="#7ceee7" points="2983.16,-3480.35 2858.16,-3480.35 2858.16,-3444.35 2983.16,-3444.35 2983.16,-3480.35"/>
<text text-anchor="middle" x="2920.66" y="-3458.65" font-family="Times,serif" font-size="14.00">at_login_flutter</text>
</g>
<!-- at_login_flutter&#45;&gt;at_client -->
<g id="edge97" class="edge">
<title>at_login_flutter&#45;&gt;at_client</title>
<path fill="none" stroke="#61d4fc" d="M2975.96,-3444.35C3129.18,-3394.69 3564.44,-3235.97 3816.66,-2964.35 3985.53,-2782.49 3997.42,-2699.75 4050.66,-2457.35 4109.01,-2191.68 4122.96,-2107.56 4050.66,-1845.35 3986.3,-1611.96 3798.04,-1377.77 3733.59,-1302.37"/>
<polygon fill="#61d4fc" stroke="#61d4fc" points="3736.23,-1300.07 3727.05,-1294.77 3730.92,-1304.63 3736.23,-1300.07"/>
</g>
<!-- at_login_flutter&#45;&gt;at_client_mobile -->
<g id="edge98" class="edge">
<title>at_login_flutter&#45;&gt;at_client_mobile</title>
<path fill="none" stroke="#d9577c" d="M2983.17,-3448.45C3151.65,-3409.91 3614.72,-3278.29 3797.66,-2964.35 4013.32,-2594.24 3804.53,-2028.22 3751.97,-1899.17"/>
<polygon fill="#d9577c" stroke="#d9577c" points="3755.1,-1897.57 3748.06,-1889.65 3748.63,-1900.23 3755.1,-1897.57"/>
</g>
<!-- at_login_flutter&#45;&gt;at_commons -->
<g id="edge99" class="edge">
<title>at_login_flutter&#45;&gt;at_commons</title>
<path fill="none" stroke="#7eceb0" d="M2983.56,-3449.86C3241.81,-3401.33 4215.42,-3204.51 4393.66,-2964.35 4662.77,-2601.74 4222.65,-1436.18 4135.66,-1250.35 4014.46,-991.44 3987.22,-896.31 3751.66,-734.35 3183.19,-343.51 2308.72,-262.75 2068.54,-247.59"/>
<polygon fill="#7eceb0" stroke="#7eceb0" points="2068.45,-244.08 2058.25,-246.96 2068.02,-251.07 2068.45,-244.08"/>
</g>
<!-- at_login_flutter&#45;&gt;at_server_status -->
<g id="edge100" class="edge">
<title>at_login_flutter&#45;&gt;at_server_status</title>
<path fill="none" stroke="#320113" d="M2983.36,-3449.79C3239.62,-3401.16 4201.95,-3204.55 4373.66,-2964.35 4446.46,-2862.5 4363.36,-1432.51 4240.66,-1250.35 4030.24,-937.96 3555.81,-813.29 3369.67,-775.24"/>
<polygon fill="#320113" stroke="#320113" points="3370.19,-771.77 3359.69,-773.23 3368.8,-778.64 3370.19,-771.77"/>
</g>
<!-- at_login_flutter&#45;&gt;at_utils -->
<g id="edge101" class="edge">
<title>at_login_flutter&#45;&gt;at_utils</title>
<path fill="none" stroke="#75e849" d="M2974.51,-3444.31C3195,-3370.97 4026.58,-3058.38 4227.66,-2457.35 4259.99,-2360.72 4548.45,-1790.42 4051.66,-1250.35 3768.11,-942.1 2341.58,-791.69 2068.78,-765.52"/>
<polygon fill="#75e849" stroke="#75e849" points="2068.76,-762 2058.47,-764.54 2068.1,-768.97 2068.76,-762"/>
</g>
<!-- at_lookup&#45;&gt;at_chops -->
<g id="edge104" class="edge">
<title>at_lookup&#45;&gt;at_chops</title>
<path fill="none" stroke="#8fb4d4" d="M3055.09,-261.51C3096.33,-421.16 3412.5,-1645.21 3463.67,-1843.31"/>
<polygon fill="#8fb4d4" stroke="#8fb4d4" points="3460.33,-1844.38 3466.22,-1853.19 3467.11,-1842.63 3460.33,-1844.38"/>
</g>
<!-- at_lookup&#45;&gt;at_commons -->
<g id="edge103" class="edge">
<title>at_lookup&#45;&gt;at_commons</title>
<path fill="none" stroke="#7eceb0" d="M3008.01,-243.35C2694.81,-243.35 2381.61,-243.35 2068.42,-243.35"/>
<polygon fill="#7eceb0" stroke="#7eceb0" points="2068.21,-239.85 2058.21,-243.35 2068.21,-246.85 2068.21,-239.85"/>
</g>
<!-- at_lookup&#45;&gt;at_utils -->
<g id="edge102" class="edge">
<title>at_lookup&#45;&gt;at_utils</title>
<path fill="none" stroke="#75e849" d="M3016.62,-261.42C2863.36,-338.27 2237.38,-652.17 2066.77,-737.73"/>
<polygon fill="#75e849" stroke="#75e849" points="2065.2,-734.6 2057.83,-742.21 2068.33,-740.86 2065.2,-734.6"/>
</g>
<!-- at_notify_flutter -->
<g id="node27" class="node">
<title>at_notify_flutter</title>
<polygon fill="none" stroke="#19e4c3" points="2639.16,-2426.35 2508.16,-2426.35 2508.16,-2390.35 2639.16,-2390.35 2639.16,-2426.35"/>
<text text-anchor="middle" x="2573.66" y="-2404.65" font-family="Times,serif" font-size="14.00">at_notify_flutter</text>
</g>
<!-- at_notify_flutter&#45;&gt;at_client -->
<g id="edge106" class="edge">
<title>at_notify_flutter&#45;&gt;at_client</title>
<path fill="none" stroke="#61d4fc" d="M2581.09,-2390.08C2613,-2317.36 2744.63,-2031.25 2917.66,-1845.35 3044.63,-1708.93 3539.42,-1387.71 3676.36,-1299.88"/>
<polygon fill="#61d4fc" stroke="#61d4fc" points="3678.32,-1302.78 3684.85,-1294.44 3674.54,-1296.89 3678.32,-1302.78"/>
</g>
<!-- at_notify_flutter&#45;&gt;at_client_mobile -->
<g id="edge105" class="edge">
<title>at_notify_flutter&#45;&gt;at_client_mobile</title>
<path fill="none" stroke="#d9577c" d="M2610.84,-2390.3C2783.17,-2311.3 3503.94,-1980.87 3694.36,-1893.57"/>
<polygon fill="#d9577c" stroke="#d9577c" points="3695.91,-1896.71 3703.54,-1889.36 3692.99,-1890.35 3695.91,-1896.71"/>
</g>
<!-- at_notify_flutter&#45;&gt;at_common_flutter -->
<g id="edge108" class="edge">
<title>at_notify_flutter&#45;&gt;at_common_flutter</title>
<path fill="none" stroke="#bf681f" d="M2558.62,-2390.15C2490.2,-2311.94 2208.22,-1989.6 2127.4,-1897.2"/>
<polygon fill="#bf681f" stroke="#bf681f" points="2129.86,-1894.7 2120.64,-1889.48 2124.59,-1899.31 2129.86,-1894.7"/>
</g>
<!-- at_notify_flutter&#45;&gt;at_commons -->
<g id="edge107" class="edge">
<title>at_notify_flutter&#45;&gt;at_commons</title>
<path fill="none" stroke="#7eceb0" d="M2578.69,-2390.11C2617.61,-2253.22 2860.13,-1331.92 2520.66,-734.35 2394.57,-512.41 2136.06,-329.25 2041.4,-267.07"/>
<polygon fill="#7eceb0" stroke="#7eceb0" points="2043.05,-263.97 2032.76,-261.44 2039.23,-269.83 2043.05,-263.97"/>
</g>
<!-- at_onboarding_cli&#45;&gt;at_chops -->
<g id="edge114" class="edge">
<title>at_onboarding_cli&#45;&gt;at_chops</title>
<path fill="none" stroke="#8fb4d4" d="M3129.38,-1294.53C3184.86,-1378.2 3402.92,-1743.19 3458.09,-1844.3"/>
<polygon fill="#8fb4d4" stroke="#8fb4d4" points="3455.08,-1846.1 3462.91,-1853.24 3461.24,-1842.78 3455.08,-1846.1"/>
</g>
<!-- at_onboarding_cli&#45;&gt;at_client -->
<g id="edge110" class="edge">
<title>at_onboarding_cli&#45;&gt;at_client</title>
<path fill="none" stroke="#61d4fc" d="M3187.84,-1276.35C3346.09,-1276.35 3504.35,-1276.35 3662.61,-1276.35"/>
<polygon fill="#61d4fc" stroke="#61d4fc" points="3663.03,-1279.85 3673.03,-1276.35 3663.03,-1272.85 3663.03,-1279.85"/>
</g>
<!-- at_onboarding_cli&#45;&gt;at_commons -->
<g id="edge112" class="edge">
<title>at_onboarding_cli&#45;&gt;at_commons</title>
<path fill="none" stroke="#7eceb0" d="M3108.09,-1258.15C3072.06,-1187.02 2926.26,-911.17 2746.66,-734.35 2518.24,-509.46 2172.3,-326.76 2050.22,-265.98"/>
<polygon fill="#7eceb0" stroke="#7eceb0" points="2051.65,-262.78 2041.14,-261.47 2048.54,-269.05 2051.65,-262.78"/>
</g>
<!-- at_onboarding_cli&#45;&gt;at_lookup -->
<g id="edge111" class="edge">
<title>at_onboarding_cli&#45;&gt;at_lookup</title>
<path fill="none" stroke="#94d42d" d="M3115.57,-1258.31C3107.89,-1138.39 3062,-421.54 3052.41,-271.77"/>
<polygon fill="#94d42d" stroke="#94d42d" points="3055.89,-271.36 3051.76,-261.61 3048.91,-271.81 3055.89,-271.36"/>
</g>
<!-- at_onboarding_cli&#45;&gt;at_server_status -->
<g id="edge113" class="edge">
<title>at_onboarding_cli&#45;&gt;at_server_status</title>
<path fill="none" stroke="#320113" d="M3122.51,-1258.25C3148.3,-1182.94 3251.85,-880.51 3283.45,-788.22"/>
<polygon fill="#320113" stroke="#320113" points="3286.85,-789.11 3286.78,-778.51 3280.23,-786.84 3286.85,-789.11"/>
</g>
<!-- at_onboarding_cli&#45;&gt;at_utils -->
<g id="edge109" class="edge">
<title>at_onboarding_cli&#45;&gt;at_utils</title>
<path fill="none" stroke="#75e849" d="M3080.29,-1258.25C2916.26,-1181.11 2245.56,-865.7 2067.32,-781.88"/>
<polygon fill="#75e849" stroke="#75e849" points="2068.77,-778.7 2058.23,-777.61 2065.79,-785.03 2068.77,-778.7"/>
</g>
<!-- at_onboarding_flutter -->
<g id="node29" class="node">
<title>at_onboarding_flutter</title>
<polygon fill="none" stroke="#a801a6" points="2983.66,-2964.35 2813.66,-2964.35 2813.66,-2928.35 2983.66,-2928.35 2983.66,-2964.35"/>
<text text-anchor="middle" x="2898.66" y="-2942.65" font-family="Times,serif" font-size="14.00">at_onboarding_flutter</text>
</g>
<!-- at_onboarding_flutter&#45;&gt;at_backupkey_flutter -->
<g id="edge115" class="edge">
<title>at_onboarding_flutter&#45;&gt;at_backupkey_flutter</title>
<path fill="none" stroke="#590b92" d="M2898.72,-2928.12C2899.01,-2850.39 2900.2,-2532 2900.55,-2436.53"/>
<polygon fill="#590b92" stroke="#590b92" points="2904.05,-2436.52 2900.59,-2426.51 2897.05,-2436.5 2904.05,-2436.52"/>
</g>
<!-- at_onboarding_flutter&#45;&gt;at_client -->
<g id="edge116" class="edge">
<title>at_onboarding_flutter&#45;&gt;at_client</title>
<path fill="none" stroke="#61d4fc" d="M2908.89,-2927.99C2944.46,-2866.49 3062.75,-2652.16 3101.66,-2457.35 3155.72,-2186.64 2875.56,-2093.91 2995.66,-1845.35 3071.15,-1689.1 3540.31,-1385.22 3675.34,-1300.03"/>
<polygon fill="#61d4fc" stroke="#61d4fc" points="3677.51,-1302.8 3684.11,-1294.51 3673.78,-1296.88 3677.51,-1302.8"/>
</g>
<!-- at_onboarding_flutter&#45;&gt;at_client_mobile -->
<g id="edge117" class="edge">
<title>at_onboarding_flutter&#45;&gt;at_client_mobile</title>
<path fill="none" stroke="#d9577c" d="M2943.85,-2928.18C3070.75,-2877.53 3432.41,-2715.85 3607.66,-2457.35 3732.77,-2272.8 3741.64,-1987.83 3741.19,-1899.43"/>
<polygon fill="#d9577c" stroke="#d9577c" points="3744.69,-1899.39 3741.09,-1889.42 3737.69,-1899.45 3744.69,-1899.39"/>
</g>
<!-- at_onboarding_flutter&#45;&gt;at_commons -->
<g id="edge118" class="edge">
<title>at_onboarding_flutter&#45;&gt;at_commons</title>
<path fill="none" stroke="#7eceb0" d="M2906.39,-2928.22C2936.04,-2860.51 3039.46,-2604.67 3010.66,-2390.35 2908.85,-1632.69 2952.43,-1381.61 2545.66,-734.35 2406.2,-512.44 2139.12,-328.97 2042.06,-266.91"/>
<polygon fill="#7eceb0" stroke="#7eceb0" points="2043.79,-263.87 2033.47,-261.46 2040.04,-269.78 2043.79,-263.87"/>
</g>
<!-- at_onboarding_flutter&#45;&gt;at_server_status -->
<g id="edge119" class="edge">
<title>at_onboarding_flutter&#45;&gt;at_server_status</title>
<path fill="none" stroke="#320113" d="M2917.48,-2928.27C3016.27,-2837.14 3476.2,-2394.63 3627.66,-1920.35 3771.7,-1469.27 3400.08,-911.02 3311.22,-786.67"/>
<polygon fill="#320113" stroke="#320113" points="3314.01,-784.54 3305.33,-778.47 3308.33,-788.63 3314.01,-784.54"/>
</g>
<!-- at_sync_ui_flutter -->
<g id="node40" class="node">
<title>at_sync_ui_flutter</title>
<polygon fill="none" stroke="#27d02d" points="2799.66,-2426.35 2657.66,-2426.35 2657.66,-2390.35 2799.66,-2390.35 2799.66,-2426.35"/>
<text text-anchor="middle" x="2728.66" y="-2404.65" font-family="Times,serif" font-size="14.00">at_sync_ui_flutter</text>
</g>
<!-- at_onboarding_flutter&#45;&gt;at_sync_ui_flutter -->
<g id="edge121" class="edge">
<title>at_onboarding_flutter&#45;&gt;at_sync_ui_flutter</title>
<path fill="none" stroke="#27d02d" d="M2893.19,-2928.12C2868.51,-2850.31 2767.35,-2531.35 2737.19,-2436.24"/>
<polygon fill="#27d02d" stroke="#27d02d" points="2740.46,-2434.98 2734.1,-2426.51 2733.79,-2437.1 2740.46,-2434.98"/>
</g>
<!-- at_onboarding_flutter&#45;&gt;at_utils -->
<g id="edge120" class="edge">
<title>at_onboarding_flutter&#45;&gt;at_utils</title>
<path fill="none" stroke="#75e849" d="M2936.44,-2928.29C3053.25,-2874.06 3414.11,-2695.08 3637.66,-2457.35 3826.29,-2256.75 3875.58,-2186.38 3946.66,-1920.35 4023.52,-1632.66 4129.44,-1485.43 3946.66,-1250.35 3702.52,-936.36 2334.21,-790.95 2068.4,-765.47"/>
<polygon fill="#75e849" stroke="#75e849" points="2068.63,-761.98 2058.34,-764.51 2067.96,-768.94 2068.63,-761.98"/>
</g>
<!-- at_persistence_root_server -->
<g id="node30" class="node">
<title>at_persistence_root_server</title>
<polygon fill="none" stroke="#831d2e" points="735.16,-1294.35 526.16,-1294.35 526.16,-1258.35 735.16,-1258.35 735.16,-1294.35"/>
<text text-anchor="middle" x="630.66" y="-1272.65" font-family="Times,serif" font-size="14.00">at_persistence_root_server</text>
</g>
<!-- at_persistence_root_server&#45;&gt;at_commons -->
<g id="edge122" class="edge">
<title>at_persistence_root_server&#45;&gt;at_commons</title>
<path fill="none" stroke="#7eceb0" d="M620.54,-1258.3C579.46,-1186.62 432.93,-905.37 555.66,-734.35 727.27,-495.21 1687.77,-303.01 1943.24,-255.59"/>
<polygon fill="#7eceb0" stroke="#7eceb0" points="1943.9,-259.03 1953.1,-253.77 1942.63,-252.15 1943.9,-259.03"/>
</g>
<!-- at_persistence_root_server&#45;&gt;at_persistence_spec -->
<g id="edge124" class="edge">
<title>at_persistence_root_server&#45;&gt;at_persistence_spec</title>
<path fill="none" stroke="#3bfcef" d="M631.09,-1258.25C632.99,-1183.09 640.61,-881.73 642.96,-788.79"/>
<polygon fill="#3bfcef" stroke="#3bfcef" points="646.47,-788.6 643.22,-778.51 639.47,-788.42 646.47,-788.6"/>
</g>
<!-- at_persistence_root_server&#45;&gt;at_utils -->
<g id="edge123" class="edge">
<title>at_persistence_root_server&#45;&gt;at_utils</title>
<path fill="none" stroke="#75e849" d="M677,-1258.25C889.73,-1179.75 1771.14,-854.53 1979.41,-777.68"/>
<polygon fill="#75e849" stroke="#75e849" points="1980.92,-780.85 1989.09,-774.1 1978.5,-774.28 1980.92,-780.85"/>
</g>
<!-- redis -->
<g id="node46" class="node">
<title>redis</title>
<polygon fill="none" stroke="#5cceca" points="3061.66,-1889.35 3007.66,-1889.35 3007.66,-1853.35 3061.66,-1853.35 3061.66,-1889.35"/>
<text text-anchor="middle" x="3034.66" y="-1867.65" font-family="Times,serif" font-size="14.00">redis</text>
</g>
<!-- at_persistence_root_server&#45;&gt;redis -->
<g id="edge125" class="edge">
<title>at_persistence_root_server&#45;&gt;redis</title>
<path fill="none" stroke="#5cceca" d="M718.72,-1294.4C1094.37,-1367.75 2563.25,-1661.07 2995.66,-1845.35 2997.7,-1846.22 2999.76,-1847.19 3001.8,-1848.24"/>
<polygon fill="#5cceca" stroke="#5cceca" points="3000.16,-1851.33 3010.59,-1853.17 3003.58,-1845.22 3000.16,-1851.33"/>
</g>
<!-- at_persistence_secondary_server&#45;&gt;at_commons -->
<g id="edge126" class="edge">
<title>at_persistence_secondary_server&#45;&gt;at_commons</title>
<path fill="none" stroke="#7eceb0" d="M225.39,-1258.31C242.48,-1184.22 320.36,-887.01 499.66,-734.35 953.79,-347.67 1719.68,-264.47 1942.87,-248.08"/>
<polygon fill="#7eceb0" stroke="#7eceb0" points="1943.36,-251.56 1953.08,-247.35 1942.86,-244.58 1943.36,-251.56"/>
</g>
<!-- at_persistence_secondary_server&#45;&gt;at_persistence_spec -->
<g id="edge128" class="edge">
<title>at_persistence_secondary_server&#45;&gt;at_persistence_spec</title>
<path fill="none" stroke="#3bfcef" d="M235.7,-1258.25C297.97,-1182.4 549.36,-876.2 623.18,-786.29"/>
<polygon fill="#3bfcef" stroke="#3bfcef" points="625.92,-788.46 629.56,-778.51 620.51,-784.02 625.92,-788.46"/>
</g>
<!-- at_persistence_secondary_server&#45;&gt;at_utils -->
<g id="edge127" class="edge">
<title>at_persistence_secondary_server&#45;&gt;at_utils</title>
<path fill="none" stroke="#75e849" d="M281.36,-1258.32C560.68,-1178.64 1735.29,-843.6 1979.19,-774.03"/>
<polygon fill="#75e849" stroke="#75e849" points="1980.46,-777.31 1989.12,-771.2 1978.54,-770.58 1980.46,-777.31"/>
</g>
<!-- at_repl -->
<g id="node34" class="node">
<title>at_repl</title>
<polygon fill="none" stroke="#1494d0" points="1769.66,-1294.35 1703.66,-1294.35 1703.66,-1258.35 1769.66,-1258.35 1769.66,-1294.35"/>
<text text-anchor="middle" x="1736.66" y="-1272.65" font-family="Times,serif" font-size="14.00">at_repl</text>
</g>
<!-- at_repl&#45;&gt;at_client -->
<g id="edge129" class="edge">
<title>at_repl&#45;&gt;at_client</title>
<path fill="none" stroke="#61d4fc" d="M1732.8,-1294.37C1722.36,-1348.57 1699.97,-1510.95 1787.66,-1585.35 2103.17,-1853.05 3329.58,-1847.58 3649.66,-1585.35 3734.1,-1516.16 3724.58,-1367.13 3716.27,-1304.73"/>
<polygon fill="#61d4fc" stroke="#61d4fc" points="3719.68,-1303.87 3714.8,-1294.46 3712.75,-1304.86 3719.68,-1303.87"/>
</g>
<!-- at_repl&#45;&gt;at_commons -->
<g id="edge130" class="edge">
<title>at_repl&#45;&gt;at_commons</title>
<path fill="none" stroke="#7eceb0" d="M1741.1,-1258.31C1772.42,-1138.27 1959.8,-420.11 1998.62,-271.32"/>
<polygon fill="#7eceb0" stroke="#7eceb0" points="2002.02,-272.17 2001.15,-261.61 1995.24,-270.4 2002.02,-272.17"/>
</g>
<!-- at_repl&#45;&gt;at_onboarding_cli -->
<g id="edge131" class="edge">
<title>at_repl&#45;&gt;at_onboarding_cli</title>
<path fill="none" stroke="#514d2d" d="M1732.8,-1294.37C1722.36,-1348.57 1699.97,-1510.95 1787.66,-1585.35 2206.19,-1940.47 2581.66,-1912.15 3022.66,-1585.35 3112.73,-1518.6 3119.44,-1367.64 3118.07,-1304.72"/>
<polygon fill="#514d2d" stroke="#514d2d" points="3121.56,-1304.6 3117.76,-1294.71 3114.57,-1304.81 3121.56,-1304.6"/>
</g>
<!-- at_repl&#45;&gt;at_utils -->
<g id="edge132" class="edge">
<title>at_repl&#45;&gt;at_utils</title>
<path fill="none" stroke="#75e849" d="M1746.21,-1258.25C1788.38,-1182.71 1958.15,-878.67 2009.12,-787.39"/>
<polygon fill="#75e849" stroke="#75e849" points="2012.25,-788.95 2014.07,-778.51 2006.14,-785.54 2012.25,-788.95"/>
</g>
<!-- at_root_server -->
<g id="node35" class="node">
<title>at_root_server</title>
<polygon fill="none" stroke="#9dd431" points="624.16,-1889.35 505.16,-1889.35 505.16,-1853.35 624.16,-1853.35 624.16,-1889.35"/>
<text text-anchor="middle" x="564.66" y="-1867.65" font-family="Times,serif" font-size="14.00">at_root_server</text>
</g>
<!-- at_root_server&#45;&gt;at_commons -->
<g id="edge133" class="edge">
<title>at_root_server&#45;&gt;at_commons</title>
<path fill="none" stroke="#7eceb0" d="M540.31,-1853.22C456.88,-1792.85 182.42,-1579.77 86.66,-1325.35 -14.76,-1055.9 115.52,-983.11 459.66,-734.35 954.38,-376.73 1720.01,-273.4 1942.83,-250.14"/>
<polygon fill="#7eceb0" stroke="#7eceb0" points="1943.44,-253.6 1953.03,-249.09 1942.73,-246.63 1943.44,-253.6"/>
</g>
<!-- at_root_server&#45;&gt;at_persistence_root_server -->
<g id="edge136" class="edge">
<title>at_root_server&#45;&gt;at_persistence_root_server</title>
<path fill="none" stroke="#831d2e" d="M566.56,-1853.24C575.82,-1770.06 616.15,-1407.68 627.61,-1304.72"/>
<polygon fill="#831d2e" stroke="#831d2e" points="631.12,-1304.85 628.74,-1294.53 624.16,-1304.08 631.12,-1304.85"/>
</g>
<!-- at_root_server&#45;&gt;at_server_spec -->
<g id="edge135" class="edge">
<title>at_root_server&#45;&gt;at_server_spec</title>
<path fill="none" stroke="#e6f023" d="M561.25,-1853.24C544.68,-1769.97 472.44,-1406.95 452.04,-1304.41"/>
<polygon fill="#e6f023" stroke="#e6f023" points="455.46,-1303.65 450.07,-1294.53 448.59,-1305.02 455.46,-1303.65"/>
</g>
<!-- at_root_server&#45;&gt;at_utils -->
<g id="edge134" class="edge">
<title>at_root_server&#45;&gt;at_utils</title>
<path fill="none" stroke="#75e849" d="M568.23,-1853.16C585.68,-1773.4 669.02,-1435.42 863.66,-1250.35 1210,-921.04 1811.03,-797.52 1978.95,-768.5"/>
<polygon fill="#75e849" stroke="#75e849" points="1979.65,-771.93 1988.92,-766.8 1978.47,-765.03 1979.65,-771.93"/>
</g>
<!-- at_secondary -->
<g id="node36" class="node">
<title>at_secondary</title>
<polygon fill="none" stroke="#1b8948" points="421.66,-1889.35 311.66,-1889.35 311.66,-1853.35 421.66,-1853.35 421.66,-1889.35"/>
<text text-anchor="middle" x="366.66" y="-1867.65" font-family="Times,serif" font-size="14.00">at_secondary</text>
</g>
<!-- at_secondary&#45;&gt;at_chops -->
<g id="edge139" class="edge">
<title>at_secondary&#45;&gt;at_chops</title>
<path fill="none" stroke="#8fb4d4" d="M369.03,-1889.65C376.97,-1942.31 407.85,-2094.33 505.66,-2155.35 779.69,-2326.32 3162.45,-2359.62 3412.66,-2155.35 3489.54,-2092.58 3482.38,-1957.96 3475.05,-1899.46"/>
<polygon fill="#8fb4d4" stroke="#8fb4d4" points="3478.5,-1898.9 3473.69,-1889.46 3471.56,-1899.83 3478.5,-1898.9"/>
</g>
<!-- at_secondary&#45;&gt;at_commons -->
<g id="edge137" class="edge">
<title>at_secondary&#45;&gt;at_commons</title>
<path fill="none" stroke="#7eceb0" d="M349.92,-1853.01C289.8,-1789.38 84.73,-1560.18 15.66,-1325.35 -68.6,-1038.91 207.28,-869.28 398.66,-734.35 917.21,-368.73 1714.83,-270.67 1942.83,-249.45"/>
<polygon fill="#7eceb0" stroke="#7eceb0" points="1943.3,-252.92 1952.94,-248.52 1942.66,-245.95 1943.3,-252.92"/>
</g>
<!-- at_secondary&#45;&gt;at_lookup -->
<g id="edge140" class="edge">
<title>at_secondary&#45;&gt;at_lookup</title>
<path fill="none" stroke="#94d42d" d="M347.89,-1853.14C271.48,-1780.91 -7.77,-1494.63 86.66,-1250.35 198.39,-961.28 285.72,-886.58 555.66,-734.35 1000.23,-483.62 2677.49,-286.04 2997.66,-250.17"/>
<polygon fill="#94d42d" stroke="#94d42d" points="2998.49,-253.6 3008.04,-249.01 2997.72,-246.64 2998.49,-253.6"/>
</g>
<!-- at_secondary&#45;&gt;at_persistence_secondary_server -->
<g id="edge143" class="edge">
<title>at_secondary&#45;&gt;at_persistence_secondary_server</title>
<path fill="none" stroke="#9760d3" d="M362.47,-1853.24C342.11,-1769.97 253.35,-1406.95 228.27,-1304.41"/>
<polygon fill="#9760d3" stroke="#9760d3" points="231.63,-1303.41 225.86,-1294.53 224.83,-1305.07 231.63,-1303.41"/>
</g>
<!-- at_secondary&#45;&gt;at_persistence_spec -->
<g id="edge142" class="edge">
<title>at_secondary&#45;&gt;at_persistence_spec</title>
<path fill="none" stroke="#3bfcef" d="M363.99,-1853.17C353.11,-1779.31 315.55,-1481.95 376.66,-1250.35 427.77,-1056.62 570.97,-856.24 623.78,-786.82"/>
<polygon fill="#3bfcef" stroke="#3bfcef" points="626.74,-788.7 630.04,-778.64 621.18,-784.45 626.74,-788.7"/>
</g>
<!-- at_secondary&#45;&gt;at_server_spec -->
<g id="edge141" class="edge">
<title>at_secondary&#45;&gt;at_server_spec</title>
<path fill="none" stroke="#e6f023" d="M368.96,-1853.24C380.19,-1770.06 429.07,-1407.68 442.96,-1304.72"/>
<polygon fill="#e6f023" stroke="#e6f023" points="446.47,-1304.9 444.34,-1294.53 439.53,-1303.97 446.47,-1304.9"/>
</g>
<!-- at_secondary&#45;&gt;at_utils -->
<g id="edge138" class="edge">
<title>at_secondary&#45;&gt;at_utils</title>
<path fill="none" stroke="#75e849" d="M378.61,-1853.12C448.05,-1752.98 796.66,-1250.35 796.66,-1250.35 1189.96,-937.53 1809.06,-801.94 1979.15,-769.38"/>
<polygon fill="#75e849" stroke="#75e849" points="1979.83,-772.82 1989,-767.52 1978.53,-765.94 1979.83,-772.82"/>
</g>
<!-- at_secondary_proxy -->
<g id="node37" class="node">
<title>at_secondary_proxy</title>
<polygon fill="none" stroke="#35c7f7" points="1372.66,-2426.35 1214.66,-2426.35 1214.66,-2390.35 1372.66,-2390.35 1372.66,-2426.35"/>
<text text-anchor="middle" x="1293.66" y="-2404.65" font-family="Times,serif" font-size="14.00">at_secondary_proxy</text>
</g>
<!-- at_secondary_proxy&#45;&gt;at_commons -->
<g id="edge144" class="edge">
<title>at_secondary_proxy&#45;&gt;at_commons</title>
<path fill="none" stroke="#7eceb0" d="M1308.84,-2390.13C1369.91,-2320.95 1603.88,-2056.87 1802.66,-1845.35 2023.7,-1610.13 2188.02,-1624.33 2309.66,-1325.35 2408.64,-1082.04 2381.65,-986.96 2309.66,-734.35 2252.83,-534.97 2089.02,-337.53 2028.49,-269.35"/>
<polygon fill="#7eceb0" stroke="#7eceb0" points="2030.91,-266.8 2021.63,-261.68 2025.69,-271.47 2030.91,-266.8"/>
</g>
<!-- at_secondary_proxy&#45;&gt;at_lookup -->
<g id="edge146" class="edge">
<title>at_secondary_proxy&#45;&gt;at_lookup</title>
<path fill="none" stroke="#94d42d" d="M1316.4,-2390.24C1391.92,-2332.37 1637.32,-2135.44 1774.66,-1920.35 1793.8,-1890.36 1783.23,-1875.16 1802.66,-1845.35 1983.34,-1568.07 2124.72,-1580.37 2335.66,-1325.35 2658.87,-934.57 2967.16,-394 3036.29,-270.27"/>
<polygon fill="#94d42d" stroke="#94d42d" points="3039.39,-271.9 3041.2,-261.46 3033.27,-268.49 3039.39,-271.9"/>
</g>
<!-- at_secondary_proxy&#45;&gt;at_utils -->
<g id="edge145" class="edge">
<title>at_secondary_proxy&#45;&gt;at_utils</title>
<path fill="none" stroke="#75e849" d="M1302.82,-2390.1C1340.5,-2319.75 1488.61,-2048.58 1639.66,-1845.35 1824.06,-1597.22 1991.82,-1614.33 2101.66,-1325.35 2176.24,-1129.12 2073.4,-870.33 2036.18,-787.81"/>
<polygon fill="#75e849" stroke="#75e849" points="2039.33,-786.28 2031.98,-778.64 2032.96,-789.19 2039.33,-786.28"/>
</g>
<!-- at_server_spec&#45;&gt;at_commons -->
<g id="edge147" class="edge">
<title>at_server_spec&#45;&gt;at_commons</title>
<path fill="none" stroke="#7eceb0" d="M443.54,-1258.28C431.26,-1185.3 393.25,-895.88 529.66,-734.35 909.45,-284.58 1712.91,-245.5 1942.92,-243.81"/>
<polygon fill="#7eceb0" stroke="#7eceb0" points="1943.14,-247.3 1953.12,-243.75 1943.1,-240.3 1943.14,-247.3"/>
</g>
<!-- at_server_status&#45;&gt;at_commons -->
<g id="edge148" class="edge">
<title>at_server_status&#45;&gt;at_commons</title>
<path fill="none" stroke="#7eceb0" d="M3249.84,-742.21C3056.86,-664.99 2268.29,-349.44 2057.61,-265.14"/>
<polygon fill="#7eceb0" stroke="#7eceb0" points="2058.9,-261.88 2048.31,-261.42 2056.29,-268.38 2058.9,-261.88"/>
</g>
<!-- at_server_status&#45;&gt;at_lookup -->
<g id="edge150" class="edge">
<title>at_server_status&#45;&gt;at_lookup</title>
<path fill="none" stroke="#94d42d" d="M3284.6,-742.21C3249.08,-666.6 3106.18,-362.51 3063.05,-270.71"/>
<polygon fill="#94d42d" stroke="#94d42d" points="3066.16,-269.11 3058.74,-261.55 3059.82,-272.09 3066.16,-269.11"/>
</g>
<!-- at_server_status&#45;&gt;at_utils -->
<g id="edge149" class="edge">
<title>at_server_status&#45;&gt;at_utils</title>
<path fill="none" stroke="#75e849" d="M3225.46,-760.35C2839.84,-760.35 2454.23,-760.35 2068.61,-760.35"/>
<polygon fill="#75e849" stroke="#75e849" points="2068.36,-756.85 2058.36,-760.35 2068.36,-763.85 2068.36,-756.85"/>
</g>
<!-- at_sync_ui_flutter&#45;&gt;at_client -->
<g id="edge151" class="edge">
<title>at_sync_ui_flutter&#45;&gt;at_client</title>
<path fill="none" stroke="#61d4fc" d="M2734.54,-2390.18C2763.48,-2306.32 2892.25,-1940.01 2965.66,-1845.35 3075.11,-1704.19 3545.13,-1387.63 3677.09,-1300.14"/>
<polygon fill="#61d4fc" stroke="#61d4fc" points="3679.23,-1302.91 3685.64,-1294.47 3675.37,-1297.08 3679.23,-1302.91"/>
</g>
<!-- at_sync_ui_flutter&#45;&gt;at_client_mobile -->
<g id="edge152" class="edge">
<title>at_sync_ui_flutter&#45;&gt;at_client_mobile</title>
<path fill="none" stroke="#d9577c" d="M2760.9,-2390.3C2910.05,-2311.45 3532.9,-1982.18 3699.52,-1894.1"/>
<polygon fill="#d9577c" stroke="#d9577c" points="3701.27,-1897.13 3708.47,-1889.36 3697.99,-1890.94 3701.27,-1897.13"/>
</g>
<!-- at_sync_ui_flutter&#45;&gt;at_common_flutter -->
<g id="edge153" class="edge">
<title>at_sync_ui_flutter&#45;&gt;at_common_flutter</title>
<path fill="none" stroke="#bf681f" d="M2708.63,-2390.15C2617.19,-2311.63 2239.16,-1987 2133.31,-1896.1"/>
<polygon fill="#bf681f" stroke="#bf681f" points="2135.47,-1893.34 2125.6,-1889.48 2130.91,-1898.65 2135.47,-1893.34"/>
</g>
<!-- at_theme_flutter -->
<g id="node41" class="node">
<title>at_theme_flutter</title>
<polygon fill="none" stroke="#2ec850" points="1948.66,-2426.35 1814.66,-2426.35 1814.66,-2390.35 1948.66,-2390.35 1948.66,-2426.35"/>
<text text-anchor="middle" x="1881.66" y="-2404.65" font-family="Times,serif" font-size="14.00">at_theme_flutter</text>
</g>
<!-- at_theme_flutter&#45;&gt;at_client_mobile -->
<g id="edge154" class="edge">
<title>at_theme_flutter&#45;&gt;at_client_mobile</title>
<path fill="none" stroke="#d9577c" d="M1949.02,-2392.19C2184.12,-2338.53 2988.78,-2148.5 3630.66,-1920.35 3652.42,-1912.61 3675.96,-1902.57 3695.66,-1893.68"/>
<polygon fill="#d9577c" stroke="#d9577c" points="3697.35,-1896.76 3705,-1889.42 3694.45,-1890.39 3697.35,-1896.76"/>
</g>
<!-- at_theme_flutter&#45;&gt;at_common_flutter -->
<g id="edge155" class="edge">
<title>at_theme_flutter&#45;&gt;at_common_flutter</title>
<path fill="none" stroke="#bf681f" d="M1888.86,-2390.15C1921.4,-2312.41 2054.94,-1993.48 2094.54,-1898.9"/>
<polygon fill="#bf681f" stroke="#bf681f" points="2097.85,-1900.05 2098.48,-1889.48 2091.39,-1897.35 2097.85,-1900.05"/>
</g>
<!-- at_theme_flutter&#45;&gt;at_commons -->
<g id="edge156" class="edge">
<title>at_theme_flutter&#45;&gt;at_commons</title>
<path fill="none" stroke="#7eceb0" d="M1883.67,-2390.05C1892.37,-2319.5 1930.46,-2047.64 2022.66,-1845.35 2139.54,-1588.88 2301.09,-1594.22 2385.66,-1325.35 2464.46,-1074.78 2470.73,-982.86 2385.66,-734.35 2313.5,-523.56 2109.66,-333.34 2034.2,-268.2"/>
<polygon fill="#7eceb0" stroke="#7eceb0" points="2036.35,-265.43 2026.48,-261.58 2031.8,-270.74 2036.35,-265.43"/>
</g>
<!-- at_theme_flutter&#45;&gt;at_utils -->
<g id="edge157" class="edge">
<title>at_theme_flutter&#45;&gt;at_utils</title>
<path fill="none" stroke="#75e849" d="M1865.24,-2390.35C1801.3,-2322.01 1576.59,-2060.7 1660.66,-1845.35 1774.92,-1552.64 2025.39,-1618.05 2139.66,-1325.35 2216.86,-1127.59 2086.15,-869.81 2039.35,-787.68"/>
<polygon fill="#75e849" stroke="#75e849" points="2042.11,-785.46 2034.07,-778.55 2036.04,-788.96 2042.11,-785.46"/>
</g>
<!-- at_utils&#45;&gt;at_commons -->
<g id="edge158" class="edge">
<title>at_utils&#45;&gt;at_commons</title>
<path fill="none" stroke="#7eceb0" d="M2023.06,-742.21C2020.42,-666.83 2009.85,-364.36 2006.61,-271.56"/>
<polygon fill="#7eceb0" stroke="#7eceb0" points="2010.1,-271.42 2006.26,-261.55 2003.11,-271.66 2010.1,-271.42"/>
</g>
<!-- at_ve_doctor -->
<g id="node43" class="node">
<title>at_ve_doctor</title>
<polygon fill="none" stroke="#193e4e" points="2059.16,-1294.35 1952.16,-1294.35 1952.16,-1258.35 2059.16,-1258.35 2059.16,-1294.35"/>
<text text-anchor="middle" x="2005.66" y="-1272.65" font-family="Times,serif" font-size="14.00">at_ve_doctor</text>
</g>
<!-- at_ve_doctor&#45;&gt;at_server_status -->
<g id="edge159" class="edge">
<title>at_ve_doctor&#45;&gt;at_server_status</title>
<path fill="none" stroke="#320113" d="M2048.48,-1258.25C2241.46,-1181.17 3030.02,-866.24 3240.7,-782.1"/>
<polygon fill="#320113" stroke="#320113" points="3242.01,-785.34 3250,-778.38 3239.42,-778.84 3242.01,-785.34"/>
</g>
<!-- base2e15 -->
<g id="node44" class="node">
<title>base2e15</title>
<polygon fill="none" stroke="#2bcf07" points="3266.16,-1889.35 3181.16,-1889.35 3181.16,-1853.35 3266.16,-1853.35 3266.16,-1889.35"/>
<text text-anchor="middle" x="3223.66" y="-1867.65" font-family="Times,serif" font-size="14.00">base2e15</text>
</g>
<!-- dart_utf7 -->
<g id="node45" class="node">
<title>dart_utf7</title>
<polygon fill="none" stroke="#f889f9" points="3163.16,-1889.35 3080.16,-1889.35 3080.16,-1853.35 3163.16,-1853.35 3163.16,-1889.35"/>
<text text-anchor="middle" x="3121.66" y="-1867.65" font-family="Times,serif" font-size="14.00">dart_utf7</text>
</g>
</g>
</svg>
