<?xml version="1.0" encoding="UTF-8" standalone="no"?>
<!DOCTYPE svg PUBLIC "-//W3C//DTD SVG 1.1//EN"
 "http://www.w3.org/Graphics/SVG/1.1/DTD/svg11.dtd">
<!-- Generated by graphviz version 2.43.0 (0)
 -->
<!-- Title: packages Pages: 1 -->
<svg width="720pt" height="708pt"
 viewBox="0.00 0.00 720.00 708.40" xmlns="http://www.w3.org/2000/svg" xmlns:xlink="http://www.w3.org/1999/xlink">
<g id="graph0" class="graph" transform="scale(0.19229098805646036 0.19229098805646036) rotate(0) translate(4 3680)">
<title>packages</title>
<polygon fill="white" stroke="transparent" points="-4,4 -4,-3680 3740.32,-3680 3740.32,4 -4,4"/>
<!-- at_auth -->
<g id="node1" class="node">
<title>at_auth</title>
<polygon fill="none" stroke="#0f9477" points="1960.32,-1663 1890.32,-1663 1890.32,-1627 1960.32,-1627 1960.32,-1663"/>
<text text-anchor="middle" x="1925.32" y="-1641.3" font-family="Times,serif" font-size="14.00">at_auth</text>
</g>
<!-- at_chops -->
<g id="node4" class="node">
<title>at_chops</title>
<polygon fill="none" stroke="#8fb4d4" points="2049.82,-889 1970.82,-889 1970.82,-853 2049.82,-853 2049.82,-889"/>
<text text-anchor="middle" x="2010.32" y="-867.3" font-family="Times,serif" font-size="14.00">at_chops</text>
</g>
<!-- at_auth&#45;&gt;at_chops -->
<g id="edge3" class="edge">
<title>at_auth&#45;&gt;at_chops</title>
<path fill="none" stroke="#8fb4d4" d="M1927.22,-1626.79C1938.2,-1527.02 1993.7,-1022.94 2007.31,-899.38"/>
<polygon fill="#8fb4d4" stroke="#8fb4d4" points="2010.81,-899.57 2008.42,-889.25 2003.85,-898.81 2010.81,-899.57"/>
</g>
<!-- at_commons -->
<g id="node10" class="node">
<title>at_commons</title>
<polygon fill="none" stroke="#7eceb0" points="2623.82,-115 2518.82,-115 2518.82,-79 2623.82,-79 2623.82,-115"/>
<text text-anchor="middle" x="2571.32" y="-93.3" font-family="Times,serif" font-size="14.00">at_commons</text>
</g>
<!-- at_auth&#45;&gt;at_commons -->
<g id="edge1" class="edge">
<title>at_auth&#45;&gt;at_commons</title>
<path fill="none" stroke="#7eceb0" d="M1924.66,-1626.76C1920.98,-1524.91 1905.08,-1001.3 1961.32,-853 2090.93,-511.29 2438.74,-206.69 2542.02,-121.57"/>
<polygon fill="#7eceb0" stroke="#7eceb0" points="2544.35,-124.19 2549.86,-115.14 2539.91,-118.77 2544.35,-124.19"/>
</g>
<!-- at_lookup -->
<g id="node27" class="node">
<title>at_lookup</title>
<polygon fill="none" stroke="#94d42d" points="2347.82,-1276 2262.82,-1276 2262.82,-1240 2347.82,-1240 2347.82,-1276"/>
<text text-anchor="middle" x="2305.32" y="-1254.3" font-family="Times,serif" font-size="14.00">at_lookup</text>
</g>
<!-- at_auth&#45;&gt;at_lookup -->
<g id="edge2" class="edge">
<title>at_auth&#45;&gt;at_lookup</title>
<path fill="none" stroke="#94d42d" d="M1942.14,-1626.96C2002.7,-1565.6 2209.82,-1355.76 2281.04,-1283.61"/>
<polygon fill="#94d42d" stroke="#94d42d" points="2283.73,-1285.86 2288.27,-1276.28 2278.75,-1280.94 2283.73,-1285.86"/>
</g>
<!-- at_utils -->
<g id="node43" class="node">
<title>at_utils</title>
<polygon fill="none" stroke="#75e849" points="1592.82,-502 1523.82,-502 1523.82,-466 1592.82,-466 1592.82,-502"/>
<text text-anchor="middle" x="1558.32" y="-480.3" font-family="Times,serif" font-size="14.00">at_utils</text>
</g>
<!-- at_auth&#45;&gt;at_utils -->
<g id="edge4" class="edge">
<title>at_auth&#45;&gt;at_utils</title>
<path fill="none" stroke="#75e849" d="M1924.68,-1626.75C1920.67,-1524.86 1897.44,-1001.03 1838.32,-853 1779.03,-704.54 1642.56,-564.38 1584.86,-509.43"/>
<polygon fill="#75e849" stroke="#75e849" points="1586.93,-506.57 1577.25,-502.25 1582.12,-511.66 1586.93,-506.57"/>
</g>
<!-- at_backupkey_flutter -->
<g id="node2" class="node">
<title>at_backupkey_flutter</title>
<polygon fill="none" stroke="#590b92" points="1399.82,-2823 1234.82,-2823 1234.82,-2787 1399.82,-2787 1399.82,-2823"/>
<text text-anchor="middle" x="1317.32" y="-2801.3" font-family="Times,serif" font-size="14.00">at_backupkey_flutter</text>
</g>
<!-- at_client_mobile -->
<g id="node8" class="node">
<title>at_client_mobile</title>
<polygon fill="none" stroke="#d9577c" points="2152.32,-2436 2020.32,-2436 2020.32,-2400 2152.32,-2400 2152.32,-2436"/>
<text text-anchor="middle" x="2086.32" y="-2414.3" font-family="Times,serif" font-size="14.00">at_client_mobile</text>
</g>
<!-- at_backupkey_flutter&#45;&gt;at_client_mobile -->
<g id="edge6" class="edge">
<title>at_backupkey_flutter&#45;&gt;at_client_mobile</title>
<path fill="none" stroke="#d9577c" d="M1351.36,-2786.96C1475.67,-2724.72 1905.11,-2509.72 2043.2,-2440.59"/>
<polygon fill="#d9577c" stroke="#d9577c" points="2044.87,-2443.67 2052.25,-2436.06 2041.74,-2437.41 2044.87,-2443.67"/>
</g>
<!-- at_backupkey_flutter&#45;&gt;at_utils -->
<g id="edge5" class="edge">
<title>at_backupkey_flutter&#45;&gt;at_utils</title>
<path fill="none" stroke="#75e849" d="M1311.11,-2786.92C1266.34,-2661.65 998.36,-1872.19 1117.32,-1240 1151.47,-1058.56 1176.63,-1013.25 1268.32,-853 1349.35,-711.4 1481.42,-565.79 1534.82,-509.37"/>
<polygon fill="#75e849" stroke="#75e849" points="1537.46,-511.67 1541.82,-502.01 1532.39,-506.85 1537.46,-511.67"/>
</g>
<!-- at_chat_flutter -->
<g id="node3" class="node">
<title>at_chat_flutter</title>
<polygon fill="none" stroke="#463830" points="2554.32,-2823 2434.32,-2823 2434.32,-2787 2554.32,-2787 2554.32,-2823"/>
<text text-anchor="middle" x="2494.32" y="-2801.3" font-family="Times,serif" font-size="14.00">at_chat_flutter</text>
</g>
<!-- at_client -->
<g id="node7" class="node">
<title>at_client</title>
<polygon fill="none" stroke="#61d4fc" points="1891.82,-2049 1814.82,-2049 1814.82,-2013 1891.82,-2013 1891.82,-2049"/>
<text text-anchor="middle" x="1853.32" y="-2027.3" font-family="Times,serif" font-size="14.00">at_client</text>
</g>
<!-- at_chat_flutter&#45;&gt;at_client -->
<g id="edge7" class="edge">
<title>at_chat_flutter&#45;&gt;at_client</title>
<path fill="none" stroke="#61d4fc" d="M2482.67,-2786.96C2443.76,-2730.37 2314.04,-2544.16 2194.32,-2400 2081.95,-2264.69 1934.69,-2113.87 1877.49,-2056.2"/>
<polygon fill="#61d4fc" stroke="#61d4fc" points="1879.88,-2053.64 1870.35,-2049.01 1874.91,-2058.57 1879.88,-2053.64"/>
</g>
<!-- at_chat_flutter&#45;&gt;at_client_mobile -->
<g id="edge8" class="edge">
<title>at_chat_flutter&#45;&gt;at_client_mobile</title>
<path fill="none" stroke="#d9577c" d="M2476.27,-2786.96C2411.11,-2725.48 2187.97,-2514.91 2111.94,-2443.17"/>
<polygon fill="#d9577c" stroke="#d9577c" points="2114.31,-2440.6 2104.64,-2436.28 2109.51,-2445.69 2114.31,-2440.6"/>
</g>
<!-- at_common_flutter -->
<g id="node9" class="node">
<title>at_common_flutter</title>
<polygon fill="none" stroke="#bf681f" points="2964.82,-2436 2815.82,-2436 2815.82,-2400 2964.82,-2400 2964.82,-2436"/>
<text text-anchor="middle" x="2890.32" y="-2414.3" font-family="Times,serif" font-size="14.00">at_common_flutter</text>
</g>
<!-- at_chat_flutter&#45;&gt;at_common_flutter -->
<g id="edge9" class="edge">
<title>at_chat_flutter&#45;&gt;at_common_flutter</title>
<path fill="none" stroke="#bf681f" d="M2511.85,-2786.96C2574.96,-2725.6 2790.8,-2515.76 2865.02,-2443.61"/>
<polygon fill="#bf681f" stroke="#bf681f" points="2867.82,-2445.76 2872.55,-2436.28 2862.94,-2440.74 2867.82,-2445.76"/>
</g>
<!-- at_chat_flutter&#45;&gt;at_commons -->
<g id="edge10" class="edge">
<title>at_chat_flutter&#45;&gt;at_commons</title>
<path fill="none" stroke="#7eceb0" d="M2504.13,-2786.98C2562.16,-2685.29 2861.86,-2145.97 2974.32,-1663 3015.12,-1487.81 2998.32,-1438.87 2998.32,-1259 2998.32,-1259 2998.32,-1259 2998.32,-870 2998.32,-690.13 3051.76,-628.35 2974.32,-466 2893.65,-296.85 2697.06,-169.4 2611.84,-120.19"/>
<polygon fill="#7eceb0" stroke="#7eceb0" points="2613.4,-117.05 2602.98,-115.12 2609.92,-123.12 2613.4,-117.05"/>
</g>
<!-- at_contact -->
<g id="node11" class="node">
<title>at_contact</title>
<polygon fill="none" stroke="#250aa2" points="1850.32,-2436 1760.32,-2436 1760.32,-2400 1850.32,-2400 1850.32,-2436"/>
<text text-anchor="middle" x="1805.32" y="-2414.3" font-family="Times,serif" font-size="14.00">at_contact</text>
</g>
<!-- at_chat_flutter&#45;&gt;at_contact -->
<g id="edge11" class="edge">
<title>at_chat_flutter&#45;&gt;at_contact</title>
<path fill="none" stroke="#250aa2" d="M2463.83,-2786.96C2352.67,-2724.85 1969.22,-2510.58 1844.71,-2441.01"/>
<polygon fill="#250aa2" stroke="#250aa2" points="1846.29,-2437.88 1835.86,-2436.06 1842.88,-2443.99 1846.29,-2437.88"/>
</g>
<!-- at_chat_flutter&#45;&gt;at_lookup -->
<g id="edge12" class="edge">
<title>at_chat_flutter&#45;&gt;at_lookup</title>
<path fill="none" stroke="#94d42d" d="M2493.56,-2786.97C2489.68,-2702.76 2470.85,-2322.45 2434.32,-2013 2413.96,-1840.44 2401.66,-1798.26 2372.32,-1627 2350.44,-1499.29 2321.97,-1347.12 2310.47,-1286.18"/>
<polygon fill="#94d42d" stroke="#94d42d" points="2313.89,-1285.4 2308.59,-1276.22 2307.01,-1286.7 2313.89,-1285.4"/>
</g>
<!-- at_chops&#45;&gt;at_commons -->
<g id="edge13" class="edge">
<title>at_chops&#45;&gt;at_commons</title>
<path fill="none" stroke="#7eceb0" d="M2022.83,-852.79C2095.7,-752.52 2465.33,-243.86 2552.77,-123.54"/>
<polygon fill="#7eceb0" stroke="#7eceb0" points="2555.74,-125.4 2558.79,-115.25 2550.08,-121.28 2555.74,-125.4"/>
</g>
<!-- at_chops&#45;&gt;at_utils -->
<g id="edge14" class="edge">
<title>at_chops&#45;&gt;at_utils</title>
<path fill="none" stroke="#75e849" d="M1990.32,-852.96C1917.98,-791.34 1669.86,-580 1586.16,-508.71"/>
<polygon fill="#75e849" stroke="#75e849" points="1588.24,-505.88 1578.35,-502.06 1583.7,-511.21 1588.24,-505.88"/>
</g>
<!-- at_cli -->
<g id="node5" class="node">
<title>at_cli</title>
<polygon fill="none" stroke="#34bd05" points="2376.32,-2436 2322.32,-2436 2322.32,-2400 2376.32,-2400 2376.32,-2436"/>
<text text-anchor="middle" x="2349.32" y="-2414.3" font-family="Times,serif" font-size="14.00">at_cli</text>
</g>
<!-- at_cli&#45;&gt;at_client -->
<g id="edge16" class="edge">
<title>at_cli&#45;&gt;at_client</title>
<path fill="none" stroke="#61d4fc" d="M2327.37,-2399.96C2247.83,-2338.22 1974.62,-2126.15 1883.31,-2055.28"/>
<polygon fill="#61d4fc" stroke="#61d4fc" points="1885.35,-2052.43 1875.3,-2049.06 1881.06,-2057.96 1885.35,-2052.43"/>
</g>
<!-- at_cli&#45;&gt;at_commons -->
<g id="edge17" class="edge">
<title>at_cli&#45;&gt;at_commons</title>
<path fill="none" stroke="#7eceb0" d="M2361.66,-2399.99C2436.82,-2296.17 2830.89,-1749.66 2860.32,-1663 2918.18,-1492.69 2884.32,-1438.87 2884.32,-1259 2884.32,-1259 2884.32,-1259 2884.32,-870 2884.32,-690.13 2924.11,-634.18 2860.32,-466 2802.98,-314.8 2660.07,-176.23 2599.34,-122.08"/>
<polygon fill="#7eceb0" stroke="#7eceb0" points="2601.48,-119.3 2591.67,-115.3 2596.85,-124.54 2601.48,-119.3"/>
</g>
<!-- at_cli&#45;&gt;at_lookup -->
<g id="edge15" class="edge">
<title>at_cli&#45;&gt;at_lookup</title>
<path fill="none" stroke="#94d42d" d="M2347.15,-2399.79C2336.74,-2315.5 2292.53,-1937.64 2296.32,-1627 2297.88,-1499.76 2302.46,-1347.84 2304.42,-1286.59"/>
<polygon fill="#94d42d" stroke="#94d42d" points="2307.93,-1286.35 2304.75,-1276.24 2300.93,-1286.12 2307.93,-1286.35"/>
</g>
<!-- at_cli&#45;&gt;at_utils -->
<g id="edge18" class="edge">
<title>at_cli&#45;&gt;at_utils</title>
<path fill="none" stroke="#75e849" d="M2347.28,-2399.76C2341.05,-2347.17 2321.79,-2184.16 2306.32,-2049 2291.12,-1916.15 2244.62,-965.49 2172.32,-853 2033.59,-637.13 1719.21,-530.08 1602.78,-496.75"/>
<polygon fill="#75e849" stroke="#75e849" points="1603.69,-493.37 1593.12,-494.02 1601.79,-500.11 1603.69,-493.37"/>
</g>
<!-- at_cli_commons -->
<g id="node6" class="node">
<title>at_cli_commons</title>
<polygon fill="none" stroke="#c99192" points="1164.32,-2436 1036.32,-2436 1036.32,-2400 1164.32,-2400 1164.32,-2436"/>
<text text-anchor="middle" x="1100.32" y="-2414.3" font-family="Times,serif" font-size="14.00">at_cli_commons</text>
</g>
<!-- at_cli_commons&#45;&gt;at_client -->
<g id="edge19" class="edge">
<title>at_cli_commons&#45;&gt;at_client</title>
<path fill="none" stroke="#61d4fc" d="M1133.65,-2399.96C1255.26,-2337.79 1675.04,-2123.15 1810.69,-2053.8"/>
<polygon fill="#61d4fc" stroke="#61d4fc" points="1812.65,-2056.73 1819.96,-2049.06 1809.46,-2050.5 1812.65,-2056.73"/>
</g>
<!-- at_onboarding_cli -->
<g id="node29" class="node">
<title>at_onboarding_cli</title>
<polygon fill="none" stroke="#514d2d" points="1140.32,-2823 998.32,-2823 998.32,-2787 1140.32,-2787 1140.32,-2823"/>
<text text-anchor="middle" x="1069.32" y="-2801.3" font-family="Times,serif" font-size="14.00">at_onboarding_cli</text>
</g>
<!-- at_cli_commons&#45;&gt;at_onboarding_cli -->
<g id="edge20" class="edge">
<title>at_cli_commons&#45;&gt;at_onboarding_cli</title>
<path fill="none" stroke="#514d2d" d="M1101.94,-2436.28C1101.79,-2497.27 1085.46,-2702.8 1075.16,-2777"/>
<polygon fill="#514d2d" stroke="#514d2d" points="1071.69,-2776.56 1073.69,-2786.96 1078.61,-2777.58 1071.69,-2776.56"/>
</g>
<!-- at_cli_commons&#45;&gt;at_utils -->
<g id="edge21" class="edge">
<title>at_cli_commons&#45;&gt;at_utils</title>
<path fill="none" stroke="#75e849" d="M1098.31,-2399.64C1080.94,-2247.55 960.79,-1140.86 1108.32,-853 1199.78,-674.56 1420.32,-551.44 1514.5,-505.25"/>
<polygon fill="#75e849" stroke="#75e849" points="1516.27,-508.28 1523.74,-500.76 1513.22,-501.98 1516.27,-508.28"/>
</g>
<!-- at_client&#45;&gt;at_auth -->
<g id="edge26" class="edge">
<title>at_client&#45;&gt;at_auth</title>
<path fill="none" stroke="#0f9477" d="M1856.56,-2012.75C1867.95,-1951.97 1906.32,-1747.37 1920.23,-1673.17"/>
<polygon fill="#0f9477" stroke="#0f9477" points="1923.7,-1673.67 1922.1,-1663.2 1916.82,-1672.38 1923.7,-1673.67"/>
</g>
<!-- at_client&#45;&gt;at_chops -->
<g id="edge24" class="edge">
<title>at_client&#45;&gt;at_chops</title>
<path fill="none" stroke="#8fb4d4" d="M1860.49,-2012.83C1881.7,-1961.09 1944.23,-1801.74 1969.32,-1663 2022.76,-1367.61 2014.88,-1000.83 2011.4,-899.2"/>
<polygon fill="#8fb4d4" stroke="#8fb4d4" points="2014.89,-899.03 2011.04,-889.16 2007.9,-899.28 2014.89,-899.03"/>
</g>
<!-- at_client&#45;&gt;at_commons -->
<g id="edge22" class="edge">
<title>at_client&#45;&gt;at_commons</title>
<path fill="none" stroke="#7eceb0" d="M1892.2,-2027.2C2032.7,-2015.05 2515.87,-1953.49 2724.32,-1663 2829.26,-1516.77 2752.32,-1438.99 2752.32,-1259 2752.32,-1259 2752.32,-1259 2752.32,-870 2752.32,-569.69 2615.08,-222.21 2579.41,-124.66"/>
<polygon fill="#7eceb0" stroke="#7eceb0" points="2582.61,-123.23 2575.92,-115.01 2576.03,-125.6 2582.61,-123.23"/>
</g>
<!-- at_client&#45;&gt;at_commons -->
<g id="edge29" class="edge">
<title>at_client&#45;&gt;at_commons</title>
<path fill="none" stroke="#7eceb0" stroke-dasharray="1,5" d="M1892.3,-2027.75C2034.97,-2016.99 2530.49,-1958.2 2742.32,-1663 2847.26,-1516.77 2770.32,-1438.99 2770.32,-1259 2770.32,-1259 2770.32,-1259 2770.32,-870 2770.32,-569.08 2632.53,-220.81 2586.07,-124.07"/>
<polygon fill="#7eceb0" stroke="#7eceb0" points="2589.17,-122.44 2581.62,-115.01 2582.89,-125.53 2589.17,-122.44"/>
</g>
<!-- at_client&#45;&gt;at_lookup -->
<g id="edge25" class="edge">
<title>at_client&#45;&gt;at_lookup</title>
<path fill="none" stroke="#94d42d" d="M1860.18,-2012.94C1887.92,-1960.89 1989.29,-1799.31 2069.32,-1663 2152.42,-1521.49 2247.2,-1349.01 2286.85,-1284.75"/>
<polygon fill="#94d42d" stroke="#94d42d" points="2289.95,-1286.4 2292.3,-1276.07 2284.02,-1282.68 2289.95,-1286.4"/>
</g>
<!-- at_client&#45;&gt;at_lookup -->
<g id="edge30" class="edge">
<title>at_client&#45;&gt;at_lookup</title>
<path fill="none" stroke="#94d42d" stroke-dasharray="1,5" d="M1868.03,-2012.94C1905.92,-1960.89 2007.29,-1799.31 2087.32,-1663 2170.25,-1521.78 2264.81,-1349.72 2295.56,-1285.14"/>
<polygon fill="#94d42d" stroke="#94d42d" points="2298.74,-1286.61 2299.78,-1276.07 2292.39,-1283.66 2298.74,-1286.61"/>
</g>
<!-- at_persistence_secondary_server -->
<g id="node32" class="node">
<title>at_persistence_secondary_server</title>
<polygon fill="none" stroke="#9760d3" points="1378.32,-1276 1126.32,-1276 1126.32,-1240 1378.32,-1240 1378.32,-1276"/>
<text text-anchor="middle" x="1252.32" y="-1254.3" font-family="Times,serif" font-size="14.00">at_persistence_secondary_server</text>
</g>
<!-- at_client&#45;&gt;at_persistence_secondary_server -->
<g id="edge28" class="edge">
<title>at_client&#45;&gt;at_persistence_secondary_server</title>
<path fill="none" stroke="#9760d3" d="M1818.8,-2012.99C1731.52,-1968.22 1500.3,-1838.39 1378.32,-1663 1292.52,-1539.61 1263.39,-1355.46 1255.15,-1286.44"/>
<polygon fill="#9760d3" stroke="#9760d3" points="1258.61,-1285.91 1254,-1276.37 1251.66,-1286.71 1258.61,-1285.91"/>
</g>
<!-- at_persistence_spec -->
<g id="node33" class="node">
<title>at_persistence_spec</title>
<polygon fill="none" stroke="#3bfcef" points="1450.82,-889 1291.82,-889 1291.82,-853 1450.82,-853 1450.82,-889"/>
<text text-anchor="middle" x="1371.32" y="-867.3" font-family="Times,serif" font-size="14.00">at_persistence_spec</text>
</g>
<!-- at_client&#45;&gt;at_persistence_spec -->
<g id="edge27" class="edge">
<title>at_client&#45;&gt;at_persistence_spec</title>
<path fill="none" stroke="#3bfcef" d="M1816.65,-2012.93C1727.89,-1969.35 1502.19,-1844.49 1411.32,-1663 1406.95,-1654.26 1378.8,-1037.22 1372.55,-899.19"/>
<polygon fill="#3bfcef" stroke="#3bfcef" points="1376.04,-898.88 1372.09,-889.05 1369.05,-899.2 1376.04,-898.88"/>
</g>
<!-- at_client&#45;&gt;at_utils -->
<g id="edge23" class="edge">
<title>at_client&#45;&gt;at_utils</title>
<path fill="none" stroke="#75e849" d="M1851.34,-2012.71C1836.62,-1885.18 1743.52,-1088.93 1686.32,-853 1654.54,-721.88 1594.58,-571.68 1569.65,-511.73"/>
<polygon fill="#75e849" stroke="#75e849" points="1572.77,-510.13 1565.68,-502.26 1566.31,-512.83 1572.77,-510.13"/>
</g>
<!-- at_client_mobile&#45;&gt;at_auth -->
<g id="edge36" class="edge">
<title>at_client_mobile&#45;&gt;at_auth</title>
<path fill="none" stroke="#0f9477" d="M2082.74,-2399.82C2061.93,-2300.17 1956.8,-1796.75 1931.03,-1673.34"/>
<polygon fill="#0f9477" stroke="#0f9477" points="1934.39,-1672.3 1928.92,-1663.23 1927.54,-1673.73 1934.39,-1672.3"/>
</g>
<!-- at_client_mobile&#45;&gt;at_chops -->
<g id="edge33" class="edge">
<title>at_client_mobile&#45;&gt;at_chops</title>
<path fill="none" stroke="#8fb4d4" d="M2085.48,-2399.91C2077.89,-2245.52 2021.17,-1092.43 2011.67,-899.38"/>
<polygon fill="#8fb4d4" stroke="#8fb4d4" points="2015.16,-899.05 2011.17,-889.24 2008.17,-899.4 2015.16,-899.05"/>
</g>
<!-- at_client_mobile&#45;&gt;at_client -->
<g id="edge35" class="edge">
<title>at_client_mobile&#45;&gt;at_client</title>
<path fill="none" stroke="#61d4fc" d="M2076.01,-2399.96C2039.1,-2338.97 1913.42,-2131.31 1869.02,-2057.94"/>
<polygon fill="#61d4fc" stroke="#61d4fc" points="1871.95,-2056.02 1863.78,-2049.28 1865.97,-2059.65 1871.95,-2056.02"/>
</g>
<!-- at_client_mobile&#45;&gt;at_commons -->
<g id="edge31" class="edge">
<title>at_client_mobile&#45;&gt;at_commons</title>
<path fill="none" stroke="#7eceb0" d="M2113.89,-2399.8C2227.17,-2327.35 2658.47,-2033.57 2822.32,-1663 2895.07,-1498.49 2846.32,-1438.87 2846.32,-1259 2846.32,-1259 2846.32,-1259 2846.32,-870 2846.32,-690.13 2880.43,-636.23 2822.32,-466 2772.45,-319.91 2647.75,-177.9 2595.23,-122.43"/>
<polygon fill="#7eceb0" stroke="#7eceb0" points="2597.76,-120.01 2588.32,-115.19 2592.69,-124.84 2597.76,-120.01"/>
</g>
<!-- at_client_mobile&#45;&gt;at_lookup -->
<g id="edge34" class="edge">
<title>at_client_mobile&#45;&gt;at_lookup</title>
<path fill="none" stroke="#94d42d" d="M2089.59,-2399.73C2114.14,-2269.92 2269.64,-1447.68 2300.14,-1286.42"/>
<polygon fill="#94d42d" stroke="#94d42d" points="2303.62,-1286.84 2302.04,-1276.37 2296.74,-1285.54 2303.62,-1286.84"/>
</g>
<!-- at_client_mobile&#45;&gt;at_persistence_secondary_server -->
<g id="edge37" class="edge">
<title>at_client_mobile&#45;&gt;at_persistence_secondary_server</title>
<path fill="none" stroke="#9760d3" d="M2062.27,-2399.81C1959.62,-2325.14 1554.44,-2016.69 1356.32,-1663 1284.24,-1534.31 1261.03,-1354.69 1254.55,-1286.62"/>
<polygon fill="#9760d3" stroke="#9760d3" points="1258,-1285.96 1253.62,-1276.31 1251.03,-1286.59 1258,-1285.96"/>
</g>
<!-- at_client_mobile&#45;&gt;at_utils -->
<g id="edge32" class="edge">
<title>at_client_mobile&#45;&gt;at_utils</title>
<path fill="none" stroke="#75e849" d="M2080.56,-2399.98C2053.36,-2318.93 1936.8,-1963.48 1881.32,-1663 1815.64,-1307.22 1921.21,-1194 1800.32,-853 1749.31,-709.09 1630.64,-565.79 1580.9,-509.7"/>
<polygon fill="#75e849" stroke="#75e849" points="1583.35,-507.19 1574.08,-502.07 1578.13,-511.86 1583.35,-507.19"/>
</g>
<!-- at_contact&#45;&gt;at_client -->
<g id="edge38" class="edge">
<title>at_contact&#45;&gt;at_client</title>
<path fill="none" stroke="#61d4fc" d="M1807.45,-2399.96C1815.01,-2339.35 1840.63,-2133.84 1849.92,-2059.29"/>
<polygon fill="#61d4fc" stroke="#61d4fc" points="1853.41,-2059.64 1851.17,-2049.28 1846.46,-2058.77 1853.41,-2059.64"/>
</g>
<!-- at_contact&#45;&gt;at_commons -->
<g id="edge39" class="edge">
<title>at_contact&#45;&gt;at_commons</title>
<path fill="none" stroke="#7eceb0" d="M1845.49,-2399.92C1997.86,-2332.75 2542.94,-2070.26 2767.32,-1663 2854.42,-1504.93 2808.32,-1439.48 2808.32,-1259 2808.32,-1259 2808.32,-1259 2808.32,-870 2808.32,-564.68 2636.82,-220.17 2585.6,-124.08"/>
<polygon fill="#7eceb0" stroke="#7eceb0" points="2588.58,-122.22 2580.76,-115.07 2582.41,-125.54 2588.58,-122.22"/>
</g>
<!-- at_contact&#45;&gt;at_utils -->
<g id="edge40" class="edge">
<title>at_contact&#45;&gt;at_utils</title>
<path fill="none" stroke="#75e849" d="M1800.11,-2399.82C1775.52,-2317.21 1672.32,-1952.3 1672.32,-1646 1672.32,-1646 1672.32,-1646 1672.32,-1257 1672.32,-1077.13 1675.13,-1030.86 1648.32,-853 1628.77,-723.24 1585.03,-572.21 1566.68,-511.88"/>
<polygon fill="#75e849" stroke="#75e849" points="1569.93,-510.56 1563.66,-502.02 1563.24,-512.61 1569.93,-510.56"/>
</g>
<!-- at_contacts_flutter -->
<g id="node12" class="node">
<title>at_contacts_flutter</title>
<polygon fill="none" stroke="#1267b5" points="2340.82,-2823 2191.82,-2823 2191.82,-2787 2340.82,-2787 2340.82,-2823"/>
<text text-anchor="middle" x="2266.32" y="-2801.3" font-family="Times,serif" font-size="14.00">at_contacts_flutter</text>
</g>
<!-- at_contacts_flutter&#45;&gt;at_client -->
<g id="edge41" class="edge">
<title>at_contacts_flutter&#45;&gt;at_client</title>
<path fill="none" stroke="#61d4fc" d="M2249.07,-2786.89C2199.83,-2737.16 2057.12,-2586.6 1978.32,-2436 1909,-2303.51 1870.87,-2126.13 1858.17,-2059.14"/>
<polygon fill="#61d4fc" stroke="#61d4fc" points="1861.55,-2058.2 1856.28,-2049.01 1854.67,-2059.48 1861.55,-2058.2"/>
</g>
<!-- at_contacts_flutter&#45;&gt;at_client_mobile -->
<g id="edge42" class="edge">
<title>at_contacts_flutter&#45;&gt;at_client_mobile</title>
<path fill="none" stroke="#d9577c" d="M2258.36,-2786.96C2229.9,-2726.1 2133.15,-2519.15 2098.66,-2445.38"/>
<polygon fill="#d9577c" stroke="#d9577c" points="2101.81,-2443.86 2094.4,-2436.28 2095.47,-2446.82 2101.81,-2443.86"/>
</g>
<!-- at_contacts_flutter&#45;&gt;at_common_flutter -->
<g id="edge43" class="edge">
<title>at_contacts_flutter&#45;&gt;at_common_flutter</title>
<path fill="none" stroke="#bf681f" d="M2293.94,-2786.96C2394.41,-2724.97 2740.5,-2511.44 2853.97,-2441.43"/>
<polygon fill="#bf681f" stroke="#bf681f" points="2856,-2444.29 2862.67,-2436.06 2852.32,-2438.33 2856,-2444.29"/>
</g>
<!-- at_contacts_flutter&#45;&gt;at_commons -->
<g id="edge44" class="edge">
<title>at_contacts_flutter&#45;&gt;at_commons</title>
<path fill="none" stroke="#7eceb0" d="M2280.9,-2786.73C2364.29,-2686.68 2782.64,-2168.5 2936.32,-1663 2988.65,-1490.91 2960.32,-1438.87 2960.32,-1259 2960.32,-1259 2960.32,-1259 2960.32,-870 2960.32,-690.13 3009.72,-630.22 2936.32,-466 2863.4,-302.85 2683.96,-171.36 2607.15,-120.6"/>
<polygon fill="#7eceb0" stroke="#7eceb0" points="2609.02,-117.64 2598.74,-115.09 2605.19,-123.5 2609.02,-117.64"/>
</g>
<!-- at_contacts_flutter&#45;&gt;at_contact -->
<g id="edge45" class="edge">
<title>at_contacts_flutter&#45;&gt;at_contact</title>
<path fill="none" stroke="#250aa2" d="M2245.92,-2786.96C2172.07,-2725.28 1918.57,-2513.58 1833.45,-2442.49"/>
<polygon fill="#250aa2" stroke="#250aa2" points="1835.67,-2439.78 1825.75,-2436.06 1831.18,-2445.16 1835.67,-2439.78"/>
</g>
<!-- at_contacts_flutter&#45;&gt;at_lookup -->
<g id="edge46" class="edge">
<title>at_contacts_flutter&#45;&gt;at_lookup</title>
<path fill="none" stroke="#94d42d" d="M2276.34,-2786.78C2305.49,-2735.55 2390.01,-2578.72 2418.32,-2436 2454.91,-2251.59 2432.29,-2200.48 2418.32,-2013 2407.35,-1865.8 2329.73,-1402.76 2309.92,-1285.96"/>
<polygon fill="#94d42d" stroke="#94d42d" points="2313.36,-1285.33 2308.23,-1276.06 2306.46,-1286.5 2313.36,-1285.33"/>
</g>
<!-- at_contacts_flutter&#45;&gt;at_utils -->
<g id="edge47" class="edge">
<title>at_contacts_flutter&#45;&gt;at_utils</title>
<path fill="none" stroke="#75e849" d="M2250.4,-2786.84C2205.07,-2736.97 2074.55,-2586.06 2011.32,-2436 1872.19,-2105.78 1804.94,-1196.92 1704.32,-853 1665.75,-721.15 1598.41,-570.86 1570.74,-511.3"/>
<polygon fill="#75e849" stroke="#75e849" points="1573.9,-509.79 1566.5,-502.21 1567.56,-512.75 1573.9,-509.79"/>
</g>
<!-- at_contacts_group_flutter -->
<g id="node13" class="node">
<title>at_contacts_group_flutter</title>
<polygon fill="none" stroke="#dae1d2" points="2352.32,-3210 2154.32,-3210 2154.32,-3174 2352.32,-3174 2352.32,-3210"/>
<text text-anchor="middle" x="2253.32" y="-3188.3" font-family="Times,serif" font-size="14.00">at_contacts_group_flutter</text>
</g>
<!-- at_contacts_group_flutter&#45;&gt;at_client_mobile -->
<g id="edge48" class="edge">
<title>at_contacts_group_flutter&#45;&gt;at_client_mobile</title>
<path fill="none" stroke="#d9577c" d="M2249.6,-3173.79C2228.02,-3074.02 2118.98,-2569.94 2092.25,-2446.38"/>
<polygon fill="#d9577c" stroke="#d9577c" points="2095.59,-2445.28 2090.06,-2436.25 2088.75,-2446.76 2095.59,-2445.28"/>
</g>
<!-- at_contacts_group_flutter&#45;&gt;at_common_flutter -->
<g id="edge49" class="edge">
<title>at_contacts_group_flutter&#45;&gt;at_common_flutter</title>
<path fill="none" stroke="#bf681f" d="M2318.14,-3173.92C2448.21,-3135.81 2739.38,-3030.45 2865.32,-2823 2940.09,-2699.84 2911.13,-2514.81 2896.64,-2446.02"/>
<polygon fill="#bf681f" stroke="#bf681f" points="2900,-2445.03 2894.45,-2436 2893.16,-2446.52 2900,-2445.03"/>
</g>
<!-- at_contacts_group_flutter&#45;&gt;at_commons -->
<g id="edge50" class="edge">
<title>at_contacts_group_flutter&#45;&gt;at_commons</title>
<path fill="none" stroke="#7eceb0" d="M2316.97,-3173.93C2504.01,-3122.48 3045.67,-2963.76 3155.32,-2823 3266.76,-2679.95 3212.32,-2600.33 3212.32,-2419 3212.32,-2419 3212.32,-2419 3212.32,-870 3212.32,-680.96 3190.84,-618.64 3079.32,-466 2952.21,-292 2718.11,-167.13 2618.35,-119.39"/>
<polygon fill="#7eceb0" stroke="#7eceb0" points="2619.66,-116.14 2609.12,-115.02 2616.66,-122.46 2619.66,-116.14"/>
</g>
<!-- at_contacts_group_flutter&#45;&gt;at_contact -->
<g id="edge51" class="edge">
<title>at_contacts_group_flutter&#45;&gt;at_contact</title>
<path fill="none" stroke="#250aa2" d="M2201.1,-3173.92C2088.1,-3133.79 1822.74,-3021.56 1718.32,-2823 1649.75,-2692.6 1747.16,-2511.46 1788.4,-2444.88"/>
<polygon fill="#250aa2" stroke="#250aa2" points="1791.46,-2446.59 1793.82,-2436.26 1785.53,-2442.86 1791.46,-2446.59"/>
</g>
<!-- at_contacts_group_flutter&#45;&gt;at_contacts_flutter -->
<g id="edge52" class="edge">
<title>at_contacts_group_flutter&#45;&gt;at_contacts_flutter</title>
<path fill="none" stroke="#1267b5" d="M2253.9,-3173.96C2255.95,-3113.35 2262.89,-2907.84 2265.4,-2833.29"/>
<polygon fill="#1267b5" stroke="#1267b5" points="2268.9,-2833.39 2265.74,-2823.28 2261.91,-2833.16 2268.9,-2833.39"/>
</g>
<!-- at_contacts_group_flutter&#45;&gt;at_utils -->
<g id="edge53" class="edge">
<title>at_contacts_group_flutter&#45;&gt;at_utils</title>
<path fill="none" stroke="#75e849" d="M2208.24,-3173.97C2044.76,-3109.18 1484.97,-2860.08 1338.32,-2436 1222.31,-2100.51 1489.37,-2014.45 1539.32,-1663 1604.14,-1206.99 1569.63,-641.74 1560.38,-512.27"/>
<polygon fill="#75e849" stroke="#75e849" points="1563.86,-511.79 1559.64,-502.08 1556.87,-512.3 1563.86,-511.79"/>
</g>
<!-- at_cram -->
<g id="node14" class="node">
<title>at_cram</title>
<polygon fill="none" stroke="#c89a29" points="2689.32,-3597 2615.32,-3597 2615.32,-3561 2689.32,-3561 2689.32,-3597"/>
<text text-anchor="middle" x="2652.32" y="-3575.3" font-family="Times,serif" font-size="14.00">at_cram</text>
</g>
<!-- at_daemon_cli -->
<g id="node15" class="node">
<title>at_daemon_cli</title>
<polygon fill="none" stroke="#8e17d5" points="405.82,-3597 288.82,-3597 288.82,-3561 405.82,-3561 405.82,-3597"/>
<text text-anchor="middle" x="347.32" y="-3575.3" font-family="Times,serif" font-size="14.00">at_daemon_cli</text>
</g>
<!-- at_daemon_cli&#45;&gt;at_client -->
<g id="edge54" class="edge">
<title>at_daemon_cli&#45;&gt;at_client</title>
<path fill="none" stroke="#61d4fc" d="M405.9,-3576.94C590.34,-3570.33 1164.7,-3524.27 1466.32,-3210 1725.46,-2940 1571.54,-2752.81 1696.32,-2400 1742.62,-2269.11 1812.33,-2118.28 1840.67,-2058.44"/>
<polygon fill="#61d4fc" stroke="#61d4fc" points="1843.88,-2059.84 1845.01,-2049.31 1837.55,-2056.84 1843.88,-2059.84"/>
</g>
<!-- at_daemon_cli&#45;&gt;at_commons -->
<g id="edge59" class="edge">
<title>at_daemon_cli&#45;&gt;at_commons</title>
<path fill="none" stroke="#7eceb0" d="M326.38,-3560.86C269.39,-3512.74 111.75,-3369.48 51.32,-3210 -12.37,-3041.91 32.32,-2985.75 32.32,-2806 32.32,-2806 32.32,-2806 32.32,-870 32.32,-689.85 -57.9,-597.42 65.32,-466 238.95,-280.83 2138.06,-130.31 2508.78,-102.58"/>
<polygon fill="#7eceb0" stroke="#7eceb0" points="2509.08,-106.07 2518.79,-101.83 2508.56,-99.09 2509.08,-106.07"/>
</g>
<!-- at_daemon_core -->
<g id="node17" class="node">
<title>at_daemon_core</title>
<polygon fill="none" stroke="#c16272" points="195.82,-2823 64.82,-2823 64.82,-2787 195.82,-2787 195.82,-2823"/>
<text text-anchor="middle" x="130.32" y="-2801.3" font-family="Times,serif" font-size="14.00">at_daemon_core</text>
</g>
<!-- at_daemon_cli&#45;&gt;at_daemon_core -->
<g id="edge56" class="edge">
<title>at_daemon_cli&#45;&gt;at_daemon_core</title>
<path fill="none" stroke="#c16272" d="M340.3,-3560.79C306.32,-3460.92 164.2,-2955.93 135.22,-2833"/>
<polygon fill="#c16272" stroke="#c16272" points="138.63,-2832.21 132.98,-2823.25 131.81,-2833.78 138.63,-2832.21"/>
</g>
<!-- at_daemon_cli&#45;&gt;at_daemon_core -->
<g id="edge60" class="edge">
<title>at_daemon_cli&#45;&gt;at_daemon_core</title>
<path fill="none" stroke="#c16272" stroke-dasharray="1,5" d="M344.67,-3560.79C322.51,-3460.92 180.73,-2955.93 140.61,-2833"/>
<polygon fill="#c16272" stroke="#c16272" points="143.84,-2831.63 137.36,-2823.25 137.2,-2833.84 143.84,-2831.63"/>
</g>
<!-- at_daemon_server -->
<g id="node19" class="node">
<title>at_daemon_server</title>
<polygon fill="none" stroke="#4bd261" points="420.32,-3210 274.32,-3210 274.32,-3174 420.32,-3174 420.32,-3210"/>
<text text-anchor="middle" x="347.32" y="-3188.3" font-family="Times,serif" font-size="14.00">at_daemon_server</text>
</g>
<!-- at_daemon_cli&#45;&gt;at_daemon_server -->
<g id="edge57" class="edge">
<title>at_daemon_cli&#45;&gt;at_daemon_server</title>
<path fill="none" stroke="#4bd261" d="M344.33,-3560.96C339.56,-3500.35 339.33,-3294.84 343.64,-3220.29"/>
<polygon fill="#4bd261" stroke="#4bd261" points="347.14,-3220.49 344.31,-3210.28 340.15,-3220.02 347.14,-3220.49"/>
</g>
<!-- at_daemon_cli&#45;&gt;at_daemon_server -->
<g id="edge61" class="edge">
<title>at_daemon_cli&#45;&gt;at_daemon_server</title>
<path fill="none" stroke="#4bd261" stroke-dasharray="1,5" d="M350.32,-3560.96C355.09,-3500.35 355.31,-3294.84 351,-3220.29"/>
<polygon fill="#4bd261" stroke="#4bd261" points="354.49,-3220.02 350.34,-3210.28 347.51,-3220.49 354.49,-3220.02"/>
</g>
<!-- at_daemon_cli&#45;&gt;at_onboarding_cli -->
<g id="edge55" class="edge">
<title>at_daemon_cli&#45;&gt;at_onboarding_cli</title>
<path fill="none" stroke="#514d2d" d="M396.07,-3560.9C508.26,-3519.09 786.55,-3400.92 936.32,-3210 1029.77,-3090.88 1058.85,-2903.42 1066.72,-2833.5"/>
<polygon fill="#514d2d" stroke="#514d2d" points="1070.23,-2833.63 1067.81,-2823.32 1063.27,-2832.89 1070.23,-2833.63"/>
</g>
<!-- at_daemon_cli&#45;&gt;at_utils -->
<g id="edge58" class="edge">
<title>at_daemon_cli&#45;&gt;at_utils</title>
<path fill="none" stroke="#75e849" d="M365.06,-3560.93C443.29,-3484.3 758.75,-3161.05 874.32,-2823 932.48,-2652.89 894.32,-2598.78 894.32,-2419 894.32,-2419 894.32,-2419 894.32,-1257 894.32,-1069.69 903.61,-1004.09 1014.32,-853 1150.45,-667.23 1410.42,-545.52 1514.07,-502.42"/>
<polygon fill="#75e849" stroke="#75e849" points="1515.69,-505.54 1523.6,-498.5 1513.02,-499.07 1515.69,-505.54"/>
</g>
<!-- at_daemon_client -->
<g id="node16" class="node">
<title>at_daemon_client</title>
<polygon fill="none" stroke="#dbe812" points="200.32,-3210 60.32,-3210 60.32,-3174 200.32,-3174 200.32,-3210"/>
<text text-anchor="middle" x="130.32" y="-3188.3" font-family="Times,serif" font-size="14.00">at_daemon_client</text>
</g>
<!-- at_daemon_client&#45;&gt;at_daemon_core -->
<g id="edge62" class="edge">
<title>at_daemon_client&#45;&gt;at_daemon_core</title>
<path fill="none" stroke="#c16272" d="M127.33,-3173.96C122.56,-3113.35 122.33,-2907.84 126.64,-2833.29"/>
<polygon fill="#c16272" stroke="#c16272" points="130.14,-2833.49 127.31,-2823.28 123.15,-2833.02 130.14,-2833.49"/>
</g>
<!-- at_daemon_client&#45;&gt;at_daemon_core -->
<g id="edge63" class="edge">
<title>at_daemon_client&#45;&gt;at_daemon_core</title>
<path fill="none" stroke="#c16272" stroke-dasharray="1,5" d="M133.32,-3173.96C138.09,-3113.35 138.31,-2907.84 134,-2833.29"/>
<polygon fill="#c16272" stroke="#c16272" points="137.49,-2833.02 133.34,-2823.28 130.51,-2833.49 137.49,-2833.02"/>
</g>
<!-- at_daemon_core&#45;&gt;at_commons -->
<g id="edge65" class="edge">
<title>at_daemon_core&#45;&gt;at_commons</title>
<path fill="none" stroke="#7eceb0" d="M128.01,-2786.92C116.98,-2704.05 70.32,-2335.48 70.32,-2032 70.32,-2032 70.32,-2032 70.32,-870 70.32,-690.13 -27.14,-598.67 94.32,-466 263.66,-281.04 2139.71,-130.56 2508.58,-102.65"/>
<polygon fill="#7eceb0" stroke="#7eceb0" points="2509.09,-106.12 2518.8,-101.88 2508.56,-99.14 2509.09,-106.12"/>
</g>
<!-- at_daemon_core&#45;&gt;at_utils -->
<g id="edge64" class="edge">
<title>at_daemon_core&#45;&gt;at_utils</title>
<path fill="none" stroke="#75e849" d="M137.08,-2786.86C185.22,-2664.35 479.64,-1908.41 665.32,-1276 719.78,-1090.54 644.02,-1002.67 766.32,-853 969.46,-604.41 1378.36,-515.29 1513.69,-491.91"/>
<polygon fill="#75e849" stroke="#75e849" points="1514.43,-495.33 1523.7,-490.21 1513.26,-488.43 1514.43,-495.33"/>
</g>
<!-- at_daemon_desktop -->
<g id="node18" class="node">
<title>at_daemon_desktop</title>
<polygon fill="none" stroke="#89d485" points="3160.82,-3597 3003.82,-3597 3003.82,-3561 3160.82,-3561 3160.82,-3597"/>
<text text-anchor="middle" x="3082.32" y="-3575.3" font-family="Times,serif" font-size="14.00">at_daemon_desktop</text>
</g>
<!-- at_daemon_server&#45;&gt;at_client -->
<g id="edge66" class="edge">
<title>at_daemon_server&#45;&gt;at_client</title>
<path fill="none" stroke="#61d4fc" d="M402.78,-3173.94C538.86,-3130.37 896.54,-3005.45 1149.32,-2823 1244.69,-2754.17 1432.13,-2523.85 1510.32,-2436 1635.61,-2295.24 1779.96,-2121.13 1832.69,-2057.12"/>
<polygon fill="#61d4fc" stroke="#61d4fc" points="1835.57,-2059.12 1839.23,-2049.18 1830.17,-2054.67 1835.57,-2059.12"/>
</g>
<!-- at_daemon_server&#45;&gt;at_daemon_core -->
<g id="edge67" class="edge">
<title>at_daemon_server&#45;&gt;at_daemon_core</title>
<path fill="none" stroke="#c16272" d="M334.73,-3173.96C295.63,-3113.1 178.78,-2906.15 141.57,-2832.38"/>
<polygon fill="#c16272" stroke="#c16272" points="144.63,-2830.68 137.05,-2823.28 138.36,-2833.79 144.63,-2830.68"/>
</g>
<!-- at_daemon_server&#45;&gt;at_daemon_core -->
<g id="edge70" class="edge">
<title>at_daemon_server&#45;&gt;at_daemon_core</title>
<path fill="none" stroke="#c16272" stroke-dasharray="1,5" d="M340.71,-3173.96C311.14,-3112.97 194.29,-2905.31 148.54,-2831.94"/>
<polygon fill="#c16272" stroke="#c16272" points="151.37,-2829.87 143.07,-2823.28 145.46,-2833.6 151.37,-2829.87"/>
</g>
<!-- at_daemon_server&#45;&gt;at_onboarding_cli -->
<g id="edge69" class="edge">
<title>at_daemon_server&#45;&gt;at_onboarding_cli</title>
<path fill="none" stroke="#514d2d" d="M379.28,-3173.96C495.88,-3111.79 898.38,-2897.15 1028.44,-2827.8"/>
<polygon fill="#514d2d" stroke="#514d2d" points="1030.15,-2830.85 1037.33,-2823.06 1026.86,-2824.68 1030.15,-2830.85"/>
</g>
<!-- at_server_spec -->
<g id="node39" class="node">
<title>at_server_spec</title>
<polygon fill="none" stroke="#e6f023" points="372.32,-1276 250.32,-1276 250.32,-1240 372.32,-1240 372.32,-1276"/>
<text text-anchor="middle" x="311.32" y="-1254.3" font-family="Times,serif" font-size="14.00">at_server_spec</text>
</g>
<!-- at_daemon_server&#45;&gt;at_server_spec -->
<g id="edge68" class="edge">
<title>at_daemon_server&#45;&gt;at_server_spec</title>
<path fill="none" stroke="#e6f023" d="M342.5,-3173.77C319.76,-3090.93 224.32,-2725.04 224.32,-2419 224.32,-2419 224.32,-2419 224.32,-2030 224.32,-1736.89 287.18,-1385.04 306.04,-1286.06"/>
<polygon fill="#e6f023" stroke="#e6f023" points="309.52,-1286.49 307.97,-1276.01 302.64,-1285.17 309.52,-1286.49"/>
</g>
<!-- at_dump_atKeys -->
<g id="node20" class="node">
<title>at_dump_atKeys</title>
<polygon fill="none" stroke="#80b159" points="3459.82,-3597 3326.82,-3597 3326.82,-3561 3459.82,-3561 3459.82,-3597"/>
<text text-anchor="middle" x="3393.32" y="-3575.3" font-family="Times,serif" font-size="14.00">at_dump_atKeys</text>
</g>
<!-- at_pkam -->
<g id="node34" class="node">
<title>at_pkam</title>
<polygon fill="none" stroke="#d549ec" points="3431.82,-3210 3354.82,-3210 3354.82,-3174 3431.82,-3174 3431.82,-3210"/>
<text text-anchor="middle" x="3393.32" y="-3188.3" font-family="Times,serif" font-size="14.00">at_pkam</text>
</g>
<!-- at_dump_atKeys&#45;&gt;at_pkam -->
<g id="edge71" class="edge">
<title>at_dump_atKeys&#45;&gt;at_pkam</title>
<path fill="none" stroke="#d549ec" stroke-dasharray="1,5" d="M3393.32,-3560.96C3393.32,-3500.35 3393.32,-3294.84 3393.32,-3220.29"/>
<polygon fill="#d549ec" stroke="#d549ec" points="3396.82,-3220.28 3393.32,-3210.28 3389.82,-3220.28 3396.82,-3220.28"/>
</g>
<!-- at_events_flutter -->
<g id="node21" class="node">
<title>at_events_flutter</title>
<polygon fill="none" stroke="#5b74f7" points="2385.82,-3597 2248.82,-3597 2248.82,-3561 2385.82,-3561 2385.82,-3597"/>
<text text-anchor="middle" x="2317.32" y="-3575.3" font-family="Times,serif" font-size="14.00">at_events_flutter</text>
</g>
<!-- at_events_flutter&#45;&gt;at_client -->
<g id="edge72" class="edge">
<title>at_events_flutter&#45;&gt;at_client</title>
<path fill="none" stroke="#61d4fc" d="M2292.14,-3560.95C2187.23,-3487.98 1785.93,-3188.97 1690.32,-2823 1612.73,-2525.96 1787.11,-2158.38 1839.2,-2058.23"/>
<polygon fill="#61d4fc" stroke="#61d4fc" points="1842.43,-2059.61 1843.98,-2049.13 1836.23,-2056.35 1842.43,-2059.61"/>
</g>
<!-- at_events_flutter&#45;&gt;at_client_mobile -->
<g id="edge73" class="edge">
<title>at_events_flutter&#45;&gt;at_client_mobile</title>
<path fill="none" stroke="#d9577c" d="M2306.52,-3560.87C2274.97,-3509.86 2182.89,-3353.62 2145.32,-3210 2125.66,-3134.84 2094.82,-2577.5 2087.78,-2446.51"/>
<polygon fill="#d9577c" stroke="#d9577c" points="2091.26,-2445.96 2087.23,-2436.16 2084.27,-2446.34 2091.26,-2445.96"/>
</g>
<!-- at_events_flutter&#45;&gt;at_common_flutter -->
<g id="edge74" class="edge">
<title>at_events_flutter&#45;&gt;at_common_flutter</title>
<path fill="none" stroke="#bf681f" d="M2338.88,-3560.93C2431.33,-3486.13 2795.23,-3175.3 2918.32,-2823 2965.54,-2687.86 2919.94,-2512.13 2899.3,-2445.86"/>
<polygon fill="#bf681f" stroke="#bf681f" points="2902.58,-2444.65 2896.21,-2436.18 2895.91,-2446.78 2902.58,-2444.65"/>
</g>
<!-- at_events_flutter&#45;&gt;at_commons -->
<g id="edge75" class="edge">
<title>at_events_flutter&#45;&gt;at_commons</title>
<path fill="none" stroke="#7eceb0" d="M2385.88,-3561.63C2612.98,-3502.93 3326.32,-3280.77 3326.32,-2806 3326.32,-2806 3326.32,-2806 3326.32,-870 3326.32,-687.46 3359.61,-613.69 3252.32,-466 3095.13,-249.61 2770.76,-147.26 2634.16,-112.42"/>
<polygon fill="#7eceb0" stroke="#7eceb0" points="2634.81,-108.97 2624.26,-109.93 2633.1,-115.76 2634.81,-108.97"/>
</g>
<!-- at_events_flutter&#45;&gt;at_contact -->
<g id="edge76" class="edge">
<title>at_events_flutter&#45;&gt;at_contact</title>
<path fill="none" stroke="#250aa2" d="M2294.96,-3560.8C2199.89,-3486.08 1828.4,-3177.4 1702.32,-2823 1652.84,-2683.9 1747.6,-2509.99 1788.16,-2445.04"/>
<polygon fill="#250aa2" stroke="#250aa2" points="1791.32,-2446.59 1793.72,-2436.27 1785.41,-2442.84 1791.32,-2446.59"/>
</g>
<!-- at_events_flutter&#45;&gt;at_contacts_flutter -->
<g id="edge77" class="edge">
<title>at_events_flutter&#45;&gt;at_contacts_flutter</title>
<path fill="none" stroke="#1267b5" d="M2322.13,-3560.65C2337.02,-3504.61 2380.3,-3323.43 2361.32,-3174 2344.74,-3043.44 2296.33,-2892.93 2275.75,-2832.82"/>
<polygon fill="#1267b5" stroke="#1267b5" points="2279.04,-2831.62 2272.47,-2823.31 2272.43,-2833.91 2279.04,-2831.62"/>
</g>
<!-- at_events_flutter&#45;&gt;at_contacts_group_flutter -->
<g id="edge78" class="edge">
<title>at_events_flutter&#45;&gt;at_contacts_group_flutter</title>
<path fill="none" stroke="#dae1d2" d="M2314.49,-3560.96C2304.42,-3500.35 2270.25,-3294.84 2257.86,-3220.29"/>
<polygon fill="#dae1d2" stroke="#dae1d2" points="2261.29,-3219.57 2256.2,-3210.28 2254.38,-3220.72 2261.29,-3219.57"/>
</g>
<!-- at_location_flutter -->
<g id="node25" class="node">
<title>at_location_flutter</title>
<polygon fill="none" stroke="#283e9c" points="2554.32,-3210 2408.32,-3210 2408.32,-3174 2554.32,-3174 2554.32,-3210"/>
<text text-anchor="middle" x="2481.32" y="-3188.3" font-family="Times,serif" font-size="14.00">at_location_flutter</text>
</g>
<!-- at_events_flutter&#45;&gt;at_location_flutter -->
<g id="edge79" class="edge">
<title>at_events_flutter&#45;&gt;at_location_flutter</title>
<path fill="none" stroke="#283e9c" d="M2324.58,-3560.96C2350.46,-3500.22 2438.3,-3294 2469.89,-3219.84"/>
<polygon fill="#283e9c" stroke="#283e9c" points="2473.26,-3220.85 2473.96,-3210.28 2466.82,-3218.11 2473.26,-3220.85"/>
</g>
<!-- at_events_flutter&#45;&gt;at_lookup -->
<g id="edge80" class="edge">
<title>at_events_flutter&#45;&gt;at_lookup</title>
<path fill="none" stroke="#94d42d" d="M2369.03,-3560.95C2564.08,-3493.14 3240.81,-3224.86 3171.32,-2787 3082.11,-2224.8 2865.12,-2141.84 2557.32,-1663 2466.15,-1521.16 2360.29,-1348.88 2321.02,-1284.71"/>
<polygon fill="#94d42d" stroke="#94d42d" points="2323.93,-1282.74 2315.72,-1276.04 2317.95,-1286.4 2323.93,-1282.74"/>
</g>
<!-- at_events_flutter&#45;&gt;at_utils -->
<g id="edge81" class="edge">
<title>at_events_flutter&#45;&gt;at_utils</title>
<path fill="none" stroke="#75e849" d="M2248.65,-3567.32C2072.78,-3537.28 1597.56,-3438.81 1278.32,-3210 966.44,-2986.46 932.32,-2802.72 932.32,-2419 932.32,-2419 932.32,-2419 932.32,-1257 932.32,-1071.02 935.11,-1005.66 1041.32,-853 1167.81,-671.21 1414.42,-548.01 1514.52,-503.48"/>
<polygon fill="#75e849" stroke="#75e849" points="1516.01,-506.65 1523.74,-499.41 1513.18,-500.24 1516.01,-506.65"/>
</g>
<!-- at_follows_flutter -->
<g id="node22" class="node">
<title>at_follows_flutter</title>
<polygon fill="none" stroke="#13b24b" points="1900.32,-2823 1760.32,-2823 1760.32,-2787 1900.32,-2787 1900.32,-2823"/>
<text text-anchor="middle" x="1830.32" y="-2801.3" font-family="Times,serif" font-size="14.00">at_follows_flutter</text>
</g>
<!-- at_follows_flutter&#45;&gt;at_client -->
<g id="edge82" class="edge">
<title>at_follows_flutter&#45;&gt;at_client</title>
<path fill="none" stroke="#61d4fc" d="M1832.17,-2786.78C1837.68,-2734.27 1854,-2571.44 1859.32,-2436 1864.89,-2294.54 1857.95,-2125.03 1854.76,-2059.62"/>
<polygon fill="#61d4fc" stroke="#61d4fc" points="1858.25,-2059.15 1854.25,-2049.33 1851.25,-2059.5 1858.25,-2059.15"/>
</g>
<!-- at_follows_flutter&#45;&gt;at_client_mobile -->
<g id="edge83" class="edge">
<title>at_follows_flutter&#45;&gt;at_client_mobile</title>
<path fill="none" stroke="#d9577c" d="M1841.65,-2786.96C1882.21,-2725.97 2020.29,-2518.31 2069.08,-2444.94"/>
<polygon fill="#d9577c" stroke="#d9577c" points="2072.21,-2446.54 2074.83,-2436.28 2066.38,-2442.67 2072.21,-2446.54"/>
</g>
<!-- at_follows_flutter&#45;&gt;at_commons -->
<g id="edge84" class="edge">
<title>at_follows_flutter&#45;&gt;at_commons</title>
<path fill="none" stroke="#7eceb0" d="M1868.62,-2786.95C1967.2,-2741.61 2233.88,-2609.56 2404.32,-2436 2804.77,-2028.21 2922.32,-1830.53 2922.32,-1259 2922.32,-1259 2922.32,-1259 2922.32,-870 2922.32,-689.48 2950.79,-632.2 2880.32,-466 2815.5,-313.11 2664.65,-175.48 2600.76,-121.82"/>
<polygon fill="#7eceb0" stroke="#7eceb0" points="2602.62,-118.82 2592.7,-115.11 2598.14,-124.2 2602.62,-118.82"/>
</g>
<!-- at_follows_flutter&#45;&gt;at_lookup -->
<g id="edge85" class="edge">
<title>at_follows_flutter&#45;&gt;at_lookup</title>
<path fill="none" stroke="#94d42d" d="M1886.21,-2786.95C2004.26,-2747.53 2277.06,-2637.69 2385.32,-2436 2441.37,-2331.59 2330.7,-1454.03 2308.94,-1286.55"/>
<polygon fill="#94d42d" stroke="#94d42d" points="2312.35,-1285.62 2307.59,-1276.15 2305.41,-1286.52 2312.35,-1285.62"/>
</g>
<!-- at_server_status -->
<g id="node40" class="node">
<title>at_server_status</title>
<polygon fill="none" stroke="#320113" points="828.32,-2436 694.32,-2436 694.32,-2400 828.32,-2400 828.32,-2436"/>
<text text-anchor="middle" x="761.32" y="-2414.3" font-family="Times,serif" font-size="14.00">at_server_status</text>
</g>
<!-- at_follows_flutter&#45;&gt;at_server_status -->
<g id="edge86" class="edge">
<title>at_follows_flutter&#45;&gt;at_server_status</title>
<path fill="none" stroke="#320113" d="M1783.01,-2786.96C1609.25,-2724.38 1006.66,-2507.36 818.15,-2439.47"/>
<polygon fill="#320113" stroke="#320113" points="819.29,-2436.16 808.7,-2436.06 816.92,-2442.74 819.29,-2436.16"/>
</g>
<!-- at_follows_flutter&#45;&gt;at_utils -->
<g id="edge87" class="edge">
<title>at_follows_flutter&#45;&gt;at_utils</title>
<path fill="none" stroke="#75e849" d="M1826,-2786.87C1812.95,-2734.61 1773.49,-2572.41 1751.32,-2436 1638.05,-1738.8 1685.01,-1555.38 1610.32,-853 1596.71,-724.98 1572.73,-572.98 1562.81,-512.14"/>
<polygon fill="#75e849" stroke="#75e849" points="1566.25,-511.49 1561.18,-502.19 1559.35,-512.63 1566.25,-511.49"/>
</g>
<!-- at_hive_recovery -->
<g id="node23" class="node">
<title>at_hive_recovery</title>
<polygon fill="none" stroke="#f0efbc" points="1287.82,-1663 1150.82,-1663 1150.82,-1627 1287.82,-1627 1287.82,-1663"/>
<text text-anchor="middle" x="1219.32" y="-1641.3" font-family="Times,serif" font-size="14.00">at_hive_recovery</text>
</g>
<!-- at_hive_recovery&#45;&gt;at_persistence_secondary_server -->
<g id="edge88" class="edge">
<title>at_hive_recovery&#45;&gt;at_persistence_secondary_server</title>
<path fill="none" stroke="#9760d3" d="M1220.78,-1626.96C1225.98,-1566.35 1243.6,-1360.84 1249.98,-1286.29"/>
<polygon fill="#9760d3" stroke="#9760d3" points="1253.48,-1286.54 1250.84,-1276.28 1246.5,-1285.94 1253.48,-1286.54"/>
</g>
<!-- at_invitation_flutter -->
<g id="node24" class="node">
<title>at_invitation_flutter</title>
<polygon fill="none" stroke="#b653c9" points="3146.32,-2823 2988.32,-2823 2988.32,-2787 3146.32,-2787 3146.32,-2823"/>
<text text-anchor="middle" x="3067.32" y="-2801.3" font-family="Times,serif" font-size="14.00">at_invitation_flutter</text>
</g>
<!-- at_invitation_flutter&#45;&gt;at_client_mobile -->
<g id="edge89" class="edge">
<title>at_invitation_flutter&#45;&gt;at_client_mobile</title>
<path fill="none" stroke="#d9577c" d="M3023.91,-2786.96C2864.69,-2724.47 2313.11,-2508 2139.25,-2439.77"/>
<polygon fill="#d9577c" stroke="#d9577c" points="2140.38,-2436.46 2129.8,-2436.06 2137.83,-2442.97 2140.38,-2436.46"/>
</g>
<!-- at_invitation_flutter&#45;&gt;at_common_flutter -->
<g id="edge90" class="edge">
<title>at_invitation_flutter&#45;&gt;at_common_flutter</title>
<path fill="none" stroke="#bf681f" d="M3059.49,-2786.96C3031.51,-2726.1 2936.37,-2519.15 2902.45,-2445.38"/>
<polygon fill="#bf681f" stroke="#bf681f" points="2905.63,-2443.9 2898.27,-2436.28 2899.27,-2446.83 2905.63,-2443.9"/>
</g>
<!-- at_invitation_flutter&#45;&gt;at_commons -->
<g id="edge91" class="edge">
<title>at_invitation_flutter&#45;&gt;at_commons</title>
<path fill="none" stroke="#7eceb0" d="M3069.06,-2786.91C3077.33,-2703.96 3112.32,-2335.08 3112.32,-2032 3112.32,-2032 3112.32,-2032 3112.32,-870 3112.32,-688.67 3147.06,-622.42 3055.32,-466 2950.3,-286.94 2721.02,-165.82 2620.36,-119.29"/>
<polygon fill="#7eceb0" stroke="#7eceb0" points="2621.58,-116 2611.03,-115.02 2618.67,-122.36 2621.58,-116"/>
</g>
<!-- at_invitation_flutter&#45;&gt;at_lookup -->
<g id="edge92" class="edge">
<title>at_invitation_flutter&#45;&gt;at_lookup</title>
<path fill="none" stroke="#94d42d" d="M3067.06,-2786.83C3065.42,-2728.25 3053.87,-2532.65 2973.32,-2400 2848.83,-2194.96 2696.63,-2248.43 2563.32,-2049 2473.34,-1914.38 2342.81,-1408.51 2312.01,-1285.89"/>
<polygon fill="#94d42d" stroke="#94d42d" points="2315.4,-1285.02 2309.58,-1276.17 2308.61,-1286.72 2315.4,-1285.02"/>
</g>
<!-- at_invitation_flutter&#45;&gt;at_utils -->
<g id="edge93" class="edge">
<title>at_invitation_flutter&#45;&gt;at_utils</title>
<path fill="none" stroke="#75e849" d="M3066.52,-2786.88C3063.41,-2730.06 3049.5,-2543.2 2996.32,-2400 2863.59,-2042.59 2719.14,-2008.22 2557.32,-1663 2395.29,-1317.31 2522.17,-1140.81 2271.32,-853 2080.37,-633.91 1727.1,-527.5 1602.91,-495.63"/>
<polygon fill="#75e849" stroke="#75e849" points="1603.54,-492.18 1592.98,-493.12 1601.82,-498.97 1603.54,-492.18"/>
</g>
<!-- at_location_flutter&#45;&gt;at_client -->
<g id="edge94" class="edge">
<title>at_location_flutter&#45;&gt;at_client</title>
<path fill="none" stroke="#61d4fc" d="M2478.09,-3173.6C2467.2,-3116.69 2429.24,-2931.38 2371.32,-2787 2298.47,-2605.38 2271.34,-2561.84 2161.32,-2400 2067.38,-2261.81 1931.59,-2114.27 1877.18,-2056.85"/>
<polygon fill="#61d4fc" stroke="#61d4fc" points="1879.48,-2054.2 1870.06,-2049.36 1874.41,-2059.02 1879.48,-2054.2"/>
</g>
<!-- at_location_flutter&#45;&gt;at_client_mobile -->
<g id="edge95" class="edge">
<title>at_location_flutter&#45;&gt;at_client_mobile</title>
<path fill="none" stroke="#d9577c" d="M2477.67,-3173.73C2465.15,-3116.43 2420.74,-2928.24 2349.32,-2787 2278.4,-2646.73 2157.61,-2500.84 2108.28,-2443.87"/>
<polygon fill="#d9577c" stroke="#d9577c" points="2110.74,-2441.37 2101.54,-2436.12 2105.46,-2445.96 2110.74,-2441.37"/>
</g>
<!-- at_location_flutter&#45;&gt;at_common_flutter -->
<g id="edge96" class="edge">
<title>at_location_flutter&#45;&gt;at_common_flutter</title>
<path fill="none" stroke="#bf681f" d="M2515.92,-3173.84C2600.61,-3129.62 2817.31,-3002.54 2898.32,-2823 2957.21,-2692.5 2917.12,-2513.32 2898.44,-2446.01"/>
<polygon fill="#bf681f" stroke="#bf681f" points="2901.75,-2444.85 2895.65,-2436.19 2895.02,-2446.77 2901.75,-2444.85"/>
</g>
<!-- at_location_flutter&#45;&gt;at_commons -->
<g id="edge97" class="edge">
<title>at_location_flutter&#45;&gt;at_commons</title>
<path fill="none" stroke="#7eceb0" d="M2554.46,-3178.02C2706.86,-3146.84 3058.19,-3052.57 3226.32,-2823 3333.66,-2676.44 3288.32,-2600.66 3288.32,-2419 3288.32,-2419 3288.32,-2419 3288.32,-870 3288.32,-688.34 3329.73,-615.35 3226.32,-466 3079.1,-253.36 2766.98,-149.35 2633.73,-113.25"/>
<polygon fill="#7eceb0" stroke="#7eceb0" points="2634.64,-109.87 2624.07,-110.67 2632.83,-116.64 2634.64,-109.87"/>
</g>
<!-- at_location_flutter&#45;&gt;at_contact -->
<g id="edge98" class="edge">
<title>at_location_flutter&#45;&gt;at_contact</title>
<path fill="none" stroke="#250aa2" d="M2408.29,-3179.69C2254.33,-3151.46 1898.58,-3062.14 1751.32,-2823 1675.11,-2699.24 1755.96,-2514 1790.9,-2445.61"/>
<polygon fill="#250aa2" stroke="#250aa2" points="1794.18,-2446.87 1795.69,-2436.39 1787.97,-2443.64 1794.18,-2446.87"/>
</g>
<!-- at_location_flutter&#45;&gt;at_contacts_flutter -->
<g id="edge99" class="edge">
<title>at_location_flutter&#45;&gt;at_contacts_flutter</title>
<path fill="none" stroke="#1267b5" d="M2471.81,-3173.96C2437.82,-3113.1 2322.25,-2906.15 2281.06,-2832.38"/>
<polygon fill="#1267b5" stroke="#1267b5" points="2283.91,-2830.3 2275.97,-2823.28 2277.79,-2833.72 2283.91,-2830.3"/>
</g>
<!-- at_location_flutter&#45;&gt;at_lookup -->
<g id="edge100" class="edge">
<title>at_location_flutter&#45;&gt;at_lookup</title>
<path fill="none" stroke="#94d42d" d="M2554.64,-3182.34C2740.16,-3156.3 3209.76,-3062.71 3155.32,-2787 3042.73,-2216.66 2771.78,-2169.44 2486.32,-1663 2409.49,-1526.68 2340.38,-1351.64 2315.31,-1285.71"/>
<polygon fill="#94d42d" stroke="#94d42d" points="2318.48,-1284.2 2311.67,-1276.09 2311.93,-1286.68 2318.48,-1284.2"/>
</g>
<!-- at_location_flutter&#45;&gt;at_utils -->
<g id="edge101" class="edge">
<title>at_location_flutter&#45;&gt;at_utils</title>
<path fill="none" stroke="#75e849" d="M2408.24,-3179.46C2253.47,-3150.73 1893.74,-3060.45 1733.32,-2823 1716.27,-2797.75 1577.89,-772.42 1560.19,-512.38"/>
<polygon fill="#75e849" stroke="#75e849" points="1563.67,-512.02 1559.5,-502.28 1556.69,-512.49 1563.67,-512.02"/>
</g>
<!-- at_login_flutter -->
<g id="node26" class="node">
<title>at_login_flutter</title>
<polygon fill="none" stroke="#7ceee7" points="740.82,-2823 615.82,-2823 615.82,-2787 740.82,-2787 740.82,-2823"/>
<text text-anchor="middle" x="678.32" y="-2801.3" font-family="Times,serif" font-size="14.00">at_login_flutter</text>
</g>
<!-- at_login_flutter&#45;&gt;at_client -->
<g id="edge102" class="edge">
<title>at_login_flutter&#45;&gt;at_client</title>
<path fill="none" stroke="#61d4fc" d="M689.18,-2786.66C728,-2725.86 866.22,-2519.63 1027.32,-2400 1289.28,-2205.48 1670.32,-2084.25 1804.43,-2045.52"/>
<polygon fill="#61d4fc" stroke="#61d4fc" points="1805.75,-2048.78 1814.4,-2042.66 1803.82,-2042.05 1805.75,-2048.78"/>
</g>
<!-- at_login_flutter&#45;&gt;at_client_mobile -->
<g id="edge103" class="edge">
<title>at_login_flutter&#45;&gt;at_client_mobile</title>
<path fill="none" stroke="#d9577c" d="M740.64,-2786.96C970.3,-2724.16 1768.72,-2505.85 2014.05,-2438.76"/>
<polygon fill="#d9577c" stroke="#d9577c" points="2015.21,-2442.07 2023.93,-2436.06 2013.36,-2435.32 2015.21,-2442.07"/>
</g>
<!-- at_login_flutter&#45;&gt;at_commons -->
<g id="edge104" class="edge">
<title>at_login_flutter&#45;&gt;at_commons</title>
<path fill="none" stroke="#7eceb0" d="M670.02,-2786.74C620.8,-2683.67 365.81,-2137.72 254.32,-1663 193.43,-1403.7 125.9,-652.24 316.32,-466 639.64,-149.77 2176.06,-104.92 2508,-98.89"/>
<polygon fill="#7eceb0" stroke="#7eceb0" points="2508.45,-102.39 2518.39,-98.71 2508.33,-95.39 2508.45,-102.39"/>
</g>
<!-- at_login_flutter&#45;&gt;at_server_status -->
<g id="edge105" class="edge">
<title>at_login_flutter&#45;&gt;at_server_status</title>
<path fill="none" stroke="#320113" d="M682,-2786.96C695.06,-2726.35 739.37,-2520.84 755.44,-2446.29"/>
<polygon fill="#320113" stroke="#320113" points="758.91,-2446.79 757.6,-2436.28 752.07,-2445.32 758.91,-2446.79"/>
</g>
<!-- at_login_flutter&#45;&gt;at_utils -->
<g id="edge106" class="edge">
<title>at_login_flutter&#45;&gt;at_utils</title>
<path fill="none" stroke="#75e849" d="M678.05,-2786.65C677.29,-2730.62 675.79,-2549.47 685.32,-2400 696.33,-2227.42 758.82,-995.83 856.32,-853 1019.12,-614.55 1386.62,-519.77 1513.92,-493.33"/>
<polygon fill="#75e849" stroke="#75e849" points="1514.63,-496.76 1523.73,-491.33 1513.23,-489.9 1514.63,-496.76"/>
</g>
<!-- at_lookup&#45;&gt;at_chops -->
<g id="edge109" class="edge">
<title>at_lookup&#45;&gt;at_chops</title>
<path fill="none" stroke="#8fb4d4" d="M2292.27,-1239.96C2245.44,-1178.85 2085.77,-970.46 2029.85,-897.49"/>
<polygon fill="#8fb4d4" stroke="#8fb4d4" points="2032.42,-895.09 2023.56,-889.28 2026.87,-899.35 2032.42,-895.09"/>
</g>
<!-- at_lookup&#45;&gt;at_commons -->
<g id="edge108" class="edge">
<title>at_lookup&#45;&gt;at_commons</title>
<path fill="none" stroke="#7eceb0" d="M2309.29,-1239.72C2339.11,-1109.79 2527.98,-286.84 2565.03,-125.44"/>
<polygon fill="#7eceb0" stroke="#7eceb0" points="2568.51,-125.91 2567.33,-115.38 2561.69,-124.35 2568.51,-125.91"/>
</g>
<!-- at_lookup&#45;&gt;at_utils -->
<g id="edge107" class="edge">
<title>at_lookup&#45;&gt;at_utils</title>
<path fill="none" stroke="#75e849" d="M2308.01,-1239.67C2316.31,-1179.79 2336.04,-978.36 2248.32,-853 2085.56,-620.37 1728.28,-522.24 1602.89,-494.1"/>
<polygon fill="#75e849" stroke="#75e849" points="1603.39,-490.63 1592.87,-491.89 1601.89,-497.46 1603.39,-490.63"/>
</g>
<!-- at_notify_flutter -->
<g id="node28" class="node">
<title>at_notify_flutter</title>
<polygon fill="none" stroke="#19e4c3" points="2703.82,-2823 2572.82,-2823 2572.82,-2787 2703.82,-2787 2703.82,-2823"/>
<text text-anchor="middle" x="2638.32" y="-2801.3" font-family="Times,serif" font-size="14.00">at_notify_flutter</text>
</g>
<!-- at_notify_flutter&#45;&gt;at_client -->
<g id="edge110" class="edge">
<title>at_notify_flutter&#45;&gt;at_client</title>
<path fill="none" stroke="#61d4fc" d="M2620.83,-2786.79C2518.56,-2686.22 1998.53,-2174.8 1878.2,-2056.47"/>
<polygon fill="#61d4fc" stroke="#61d4fc" points="1880.45,-2053.76 1870.86,-2049.25 1875.54,-2058.76 1880.45,-2053.76"/>
</g>
<!-- at_notify_flutter&#45;&gt;at_client_mobile -->
<g id="edge111" class="edge">
<title>at_notify_flutter&#45;&gt;at_client_mobile</title>
<path fill="none" stroke="#d9577c" d="M2613.89,-2786.96C2525.19,-2725.1 2220.09,-2512.3 2119.09,-2441.85"/>
<polygon fill="#d9577c" stroke="#d9577c" points="2120.99,-2438.91 2110.79,-2436.06 2116.99,-2444.65 2120.99,-2438.91"/>
</g>
<!-- at_notify_flutter&#45;&gt;at_common_flutter -->
<g id="edge112" class="edge">
<title>at_notify_flutter&#45;&gt;at_common_flutter</title>
<path fill="none" stroke="#bf681f" d="M2649.48,-2786.96C2689.4,-2725.97 2825.32,-2518.31 2873.35,-2444.94"/>
<polygon fill="#bf681f" stroke="#bf681f" points="2876.47,-2446.56 2879.01,-2436.28 2870.61,-2442.73 2876.47,-2446.56"/>
</g>
<!-- at_notify_flutter&#45;&gt;at_commons -->
<g id="edge113" class="edge">
<title>at_notify_flutter&#45;&gt;at_commons</title>
<path fill="none" stroke="#7eceb0" d="M2644.15,-2786.64C2690.72,-2647.97 3000.79,-1723.6 3012.32,-1663 3045.95,-1486.3 3036.32,-1438.87 3036.32,-1259 3036.32,-1259 3036.32,-1259 3036.32,-870 3036.32,-690.13 3093.36,-626.58 3012.32,-466 2923.83,-290.64 2710.41,-167.26 2616.72,-119.7"/>
<polygon fill="#7eceb0" stroke="#7eceb0" points="2618.01,-116.43 2607.5,-115.06 2614.86,-122.68 2618.01,-116.43"/>
</g>
<!-- at_onboarding_cli&#45;&gt;at_auth -->
<g id="edge114" class="edge">
<title>at_onboarding_cli&#45;&gt;at_auth</title>
<path fill="none" stroke="#0f9477" d="M1082.91,-2786.97C1147.54,-2705.84 1429.66,-2350.04 1648.32,-2049 1750.09,-1908.89 1865.54,-1736.22 1908.26,-1671.81"/>
<polygon fill="#0f9477" stroke="#0f9477" points="1911.42,-1673.38 1914.02,-1663.11 1905.58,-1669.52 1911.42,-1673.38"/>
</g>
<!-- at_onboarding_cli&#45;&gt;at_chops -->
<g id="edge115" class="edge">
<title>at_onboarding_cli&#45;&gt;at_chops</title>
<path fill="none" stroke="#8fb4d4" d="M1077.75,-2786.71C1164.36,-2608.87 1892.03,-1114.88 1997.58,-898.17"/>
<polygon fill="#8fb4d4" stroke="#8fb4d4" points="2000.77,-899.61 2002,-889.09 1994.47,-896.55 2000.77,-899.61"/>
</g>
<!-- at_onboarding_cli&#45;&gt;at_cli_commons -->
<g id="edge121" class="edge">
<title>at_onboarding_cli&#45;&gt;at_cli_commons</title>
<path fill="none" stroke="#c99192" d="M1067.7,-2786.96C1067.82,-2726.35 1084.13,-2520.84 1094.45,-2446.29"/>
<polygon fill="#c99192" stroke="#c99192" points="1097.93,-2446.68 1095.92,-2436.28 1091,-2445.66 1097.93,-2446.68"/>
</g>
<!-- at_onboarding_cli&#45;&gt;at_client -->
<g id="edge116" class="edge">
<title>at_onboarding_cli&#45;&gt;at_client</title>
<path fill="none" stroke="#61d4fc" d="M1090.05,-2786.66C1151.38,-2735.1 1336.68,-2577.47 1480.32,-2436 1620.23,-2298.21 1776.13,-2121.01 1831.99,-2056.7"/>
<polygon fill="#61d4fc" stroke="#61d4fc" points="1834.69,-2058.93 1838.6,-2049.08 1829.4,-2054.34 1834.69,-2058.93"/>
</g>
<!-- at_onboarding_cli&#45;&gt;at_commons -->
<g id="edge117" class="edge">
<title>at_onboarding_cli&#45;&gt;at_commons</title>
<path fill="none" stroke="#7eceb0" d="M1045.98,-2786.98C981.03,-2738.62 795.78,-2593.68 685.32,-2436 266.84,-1838.59 148.33,-1574.95 252.32,-853 277.68,-676.94 222.82,-585.78 354.32,-466 682.82,-166.78 2181.87,-108.69 2508.4,-99.52"/>
<polygon fill="#7eceb0" stroke="#7eceb0" points="2508.72,-103.01 2518.62,-99.24 2508.53,-96.02 2508.72,-103.01"/>
</g>
<!-- at_onboarding_cli&#45;&gt;at_lookup -->
<g id="edge118" class="edge">
<title>at_onboarding_cli&#45;&gt;at_lookup</title>
<path fill="none" stroke="#94d42d" d="M1084.36,-2786.98C1130.15,-2735.03 1271.66,-2573.64 1384.32,-2436 1756.28,-1981.61 2190.39,-1410.74 2286.05,-1284.47"/>
<polygon fill="#94d42d" stroke="#94d42d" points="2289.1,-1286.24 2292.35,-1276.16 2283.52,-1282.02 2289.1,-1286.24"/>
</g>
<!-- at_onboarding_cli&#45;&gt;at_persistence_secondary_server -->
<g id="edge122" class="edge">
<title>at_onboarding_cli&#45;&gt;at_persistence_secondary_server</title>
<path fill="none" stroke="#9760d3" d="M1076.05,-2786.75C1095.91,-2734.78 1154.09,-2574.76 1173.32,-2436 1222.72,-2079.57 1088.8,-1982.98 1141.32,-1627 1160.75,-1495.32 1217.29,-1345.44 1241.32,-1285.65"/>
<polygon fill="#9760d3" stroke="#9760d3" points="1244.63,-1286.79 1245.15,-1276.2 1238.15,-1284.16 1244.63,-1286.79"/>
</g>
<!-- at_onboarding_cli&#45;&gt;at_server_status -->
<g id="edge119" class="edge">
<title>at_onboarding_cli&#45;&gt;at_server_status</title>
<path fill="none" stroke="#320113" d="M1055.69,-2786.96C1006.8,-2725.85 840.09,-2517.46 781.71,-2444.49"/>
<polygon fill="#320113" stroke="#320113" points="784.13,-2441.9 775.15,-2436.28 778.66,-2446.27 784.13,-2441.9"/>
</g>
<!-- at_onboarding_cli&#45;&gt;at_utils -->
<g id="edge120" class="edge">
<title>at_onboarding_cli&#45;&gt;at_utils</title>
<path fill="none" stroke="#75e849" d="M1066.95,-2786.8C1059.79,-2734.31 1038.24,-2571.56 1027.32,-2436 1012.9,-2256.83 1008.32,-2211.75 1008.32,-2032 1008.32,-2032 1008.32,-2032 1008.32,-1257 1008.32,-1073.6 995.89,-1009 1092.32,-853 1199.89,-679 1420.69,-553.64 1514.55,-506.06"/>
<polygon fill="#75e849" stroke="#75e849" points="1516.4,-509.05 1523.76,-501.43 1513.25,-502.79 1516.4,-509.05"/>
</g>
<!-- at_onboarding_flutter -->
<g id="node30" class="node">
<title>at_onboarding_flutter</title>
<polygon fill="none" stroke="#a801a6" points="1457.32,-3210 1287.32,-3210 1287.32,-3174 1457.32,-3174 1457.32,-3210"/>
<text text-anchor="middle" x="1372.32" y="-3188.3" font-family="Times,serif" font-size="14.00">at_onboarding_flutter</text>
</g>
<!-- at_onboarding_flutter&#45;&gt;at_auth -->
<g id="edge130" class="edge">
<title>at_onboarding_flutter&#45;&gt;at_auth</title>
<path fill="none" stroke="#0f9477" d="M1376.4,-3173.91C1389.89,-3117.92 1434.88,-2935.15 1482.32,-2787 1627.92,-2332.3 1859.19,-1796.83 1913.59,-1672.63"/>
<polygon fill="#0f9477" stroke="#0f9477" points="1916.95,-1673.71 1917.76,-1663.14 1910.53,-1670.9 1916.95,-1673.71"/>
</g>
<!-- at_onboarding_flutter&#45;&gt;at_backupkey_flutter -->
<g id="edge123" class="edge">
<title>at_onboarding_flutter&#45;&gt;at_backupkey_flutter</title>
<path fill="none" stroke="#590b92" d="M1369.89,-3173.96C1361.23,-3113.35 1331.87,-2907.84 1321.22,-2833.29"/>
<polygon fill="#590b92" stroke="#590b92" points="1324.67,-2832.68 1319.79,-2823.28 1317.74,-2833.67 1324.67,-2832.68"/>
</g>
<!-- at_onboarding_flutter&#45;&gt;at_client -->
<g id="edge124" class="edge">
<title>at_onboarding_flutter&#45;&gt;at_client</title>
<path fill="none" stroke="#61d4fc" d="M1376.86,-3173.84C1399.75,-3088.22 1506.88,-2699.46 1642.32,-2400 1702.97,-2265.93 1797.49,-2116.96 1836.06,-2058.03"/>
<polygon fill="#61d4fc" stroke="#61d4fc" points="1839.19,-2059.64 1841.75,-2049.36 1833.34,-2055.79 1839.19,-2059.64"/>
</g>
<!-- at_onboarding_flutter&#45;&gt;at_client_mobile -->
<g id="edge125" class="edge">
<title>at_onboarding_flutter&#45;&gt;at_client_mobile</title>
<path fill="none" stroke="#d9577c" d="M1410.88,-3173.93C1507.35,-3129.46 1761.94,-3001.04 1909.32,-2823 2009.44,-2702.06 2062.73,-2515.7 2079.97,-2446.28"/>
<polygon fill="#d9577c" stroke="#d9577c" points="2083.47,-2446.72 2082.44,-2436.18 2076.67,-2445.06 2083.47,-2446.72"/>
</g>
<!-- at_onboarding_flutter&#45;&gt;at_commons -->
<g id="edge126" class="edge">
<title>at_onboarding_flutter&#45;&gt;at_commons</title>
<path fill="none" stroke="#7eceb0" d="M1287.13,-3174.84C1126.49,-3139.91 777.97,-3042.15 588.32,-2823 115.65,-2276.79 146.32,-1981.34 146.32,-1259 146.32,-1259 146.32,-1259 146.32,-870 146.32,-680.26 139.27,-588.32 284.32,-466 635.02,-170.26 2177.06,-109.37 2508.45,-99.62"/>
<polygon fill="#7eceb0" stroke="#7eceb0" points="2508.92,-103.11 2518.82,-99.32 2508.72,-96.11 2508.92,-103.11"/>
</g>
<!-- at_onboarding_flutter&#45;&gt;at_server_status -->
<g id="edge127" class="edge">
<title>at_onboarding_flutter&#45;&gt;at_server_status</title>
<path fill="none" stroke="#320113" d="M1287.07,-3179.49C1121.44,-3152.02 759.01,-3065.75 606.32,-2823 523.69,-2691.62 675.39,-2509.17 737.01,-2443.65"/>
<polygon fill="#320113" stroke="#320113" points="739.69,-2445.9 744.05,-2436.25 734.62,-2441.08 739.69,-2445.9"/>
</g>
<!-- at_sync_ui_flutter -->
<g id="node41" class="node">
<title>at_sync_ui_flutter</title>
<polygon fill="none" stroke="#27d02d" points="2098.32,-2823 1956.32,-2823 1956.32,-2787 2098.32,-2787 2098.32,-2823"/>
<text text-anchor="middle" x="2027.32" y="-2801.3" font-family="Times,serif" font-size="14.00">at_sync_ui_flutter</text>
</g>
<!-- at_onboarding_flutter&#45;&gt;at_sync_ui_flutter -->
<g id="edge128" class="edge">
<title>at_onboarding_flutter&#45;&gt;at_sync_ui_flutter</title>
<path fill="none" stroke="#27d02d" d="M1401.31,-3173.96C1506.88,-3111.91 1870.79,-2898.01 1989.53,-2828.22"/>
<polygon fill="#27d02d" stroke="#27d02d" points="1991.45,-2831.15 1998.3,-2823.06 1987.9,-2825.11 1991.45,-2831.15"/>
</g>
<!-- at_onboarding_flutter&#45;&gt;at_utils -->
<g id="edge129" class="edge">
<title>at_onboarding_flutter&#45;&gt;at_utils</title>
<path fill="none" stroke="#75e849" d="M1342.91,-3174C1267.51,-3128.53 1067.76,-2995.76 989.32,-2823 915.01,-2659.32 970.32,-2598.75 970.32,-2419 970.32,-2419 970.32,-2419 970.32,-1257 970.32,-1072.34 965.88,-1007.29 1067.32,-853 1184.14,-675.33 1417.29,-551 1514.34,-504.84"/>
<polygon fill="#75e849" stroke="#75e849" points="1516.02,-507.92 1523.58,-500.49 1513.04,-501.59 1516.02,-507.92"/>
</g>
<!-- at_persistence_root_server -->
<g id="node31" class="node">
<title>at_persistence_root_server</title>
<polygon fill="none" stroke="#831d2e" points="637.82,-1276 428.82,-1276 428.82,-1240 637.82,-1240 637.82,-1276"/>
<text text-anchor="middle" x="533.32" y="-1254.3" font-family="Times,serif" font-size="14.00">at_persistence_root_server</text>
</g>
<!-- at_persistence_root_server&#45;&gt;at_commons -->
<g id="edge131" class="edge">
<title>at_persistence_root_server&#45;&gt;at_commons</title>
<path fill="none" stroke="#7eceb0" d="M530.92,-1240C518.4,-1143.68 470.56,-663.87 728.32,-466 1018.97,-242.88 2218.23,-128.01 2508.06,-103.18"/>
<polygon fill="#7eceb0" stroke="#7eceb0" points="2508.72,-106.64 2518.39,-102.3 2508.12,-99.66 2508.72,-106.64"/>
</g>
<!-- at_persistence_root_server&#45;&gt;at_persistence_spec -->
<g id="edge133" class="edge">
<title>at_persistence_root_server&#45;&gt;at_persistence_spec</title>
<path fill="none" stroke="#3bfcef" d="M570.41,-1239.96C706.02,-1177.66 1174.79,-962.29 1324.78,-893.38"/>
<polygon fill="#3bfcef" stroke="#3bfcef" points="1326.56,-896.42 1334.19,-889.06 1323.64,-890.06 1326.56,-896.42"/>
</g>
<!-- at_persistence_root_server&#45;&gt;at_utils -->
<g id="edge132" class="edge">
<title>at_persistence_root_server&#45;&gt;at_utils</title>
<path fill="none" stroke="#75e849" d="M533.35,-1239.92C534.38,-1179.12 545.84,-970.63 652.32,-853 896.55,-583.21 1366.99,-507.21 1513.59,-489.63"/>
<polygon fill="#75e849" stroke="#75e849" points="1514.05,-493.1 1523.57,-488.46 1513.24,-486.15 1514.05,-493.1"/>
</g>
<!-- redis -->
<g id="node47" class="node">
<title>redis</title>
<polygon fill="none" stroke="#5cceca" points="600.32,-889 546.32,-889 546.32,-853 600.32,-853 600.32,-889"/>
<text text-anchor="middle" x="573.32" y="-867.3" font-family="Times,serif" font-size="14.00">redis</text>
</g>
<!-- at_persistence_root_server&#45;&gt;redis -->
<g id="edge134" class="edge">
<title>at_persistence_root_server&#45;&gt;redis</title>
<path fill="none" stroke="#5cceca" d="M535.09,-1239.96C541.39,-1179.35 562.74,-973.84 570.49,-899.29"/>
<polygon fill="#5cceca" stroke="#5cceca" points="573.98,-899.59 571.53,-889.28 567.01,-898.86 573.98,-899.59"/>
</g>
<!-- at_persistence_secondary_server&#45;&gt;at_commons -->
<g id="edge135" class="edge">
<title>at_persistence_secondary_server&#45;&gt;at_commons</title>
<path fill="none" stroke="#7eceb0" d="M1250.38,-1239.67C1244.55,-1182.97 1229.96,-998.23 1268.32,-853 1317.78,-665.81 1321.23,-591.9 1468.32,-466 1790.46,-190.28 2326.53,-119.27 2508.6,-102.66"/>
<polygon fill="#7eceb0" stroke="#7eceb0" points="2509.15,-106.13 2518.8,-101.76 2508.53,-99.16 2509.15,-106.13"/>
</g>
<!-- at_persistence_secondary_server&#45;&gt;at_persistence_spec -->
<g id="edge137" class="edge">
<title>at_persistence_secondary_server&#45;&gt;at_persistence_spec</title>
<path fill="none" stroke="#3bfcef" d="M1257.59,-1239.96C1276.36,-1179.22 1340.11,-973 1363.03,-898.84"/>
<polygon fill="#3bfcef" stroke="#3bfcef" points="1366.37,-899.87 1365.98,-889.28 1359.69,-897.8 1366.37,-899.87"/>
</g>
<!-- at_persistence_secondary_server&#45;&gt;at_utils -->
<g id="edge136" class="edge">
<title>at_persistence_secondary_server&#45;&gt;at_utils</title>
<path fill="none" stroke="#75e849" d="M1250.26,-1239.73C1244.09,-1182.43 1229.35,-994.25 1282.32,-853 1338.17,-704.1 1474.14,-564.18 1531.78,-509.37"/>
<polygon fill="#75e849" stroke="#75e849" points="1534.51,-511.61 1539.38,-502.2 1529.71,-506.52 1534.51,-511.61"/>
</g>
<!-- at_repl -->
<g id="node35" class="node">
<title>at_repl</title>
<polygon fill="none" stroke="#1494d0" points="927.32,-3210 861.32,-3210 861.32,-3174 927.32,-3174 927.32,-3210"/>
<text text-anchor="middle" x="894.32" y="-3188.3" font-family="Times,serif" font-size="14.00">at_repl</text>
</g>
<!-- at_repl&#45;&gt;at_client -->
<g id="edge138" class="edge">
<title>at_repl&#45;&gt;at_client</title>
<path fill="none" stroke="#61d4fc" d="M907.78,-3173.71C951.98,-3117.13 1097.19,-2932.72 1225.32,-2787 1366.91,-2625.97 1419.01,-2600.69 1556.32,-2436 1670.53,-2299.03 1792.15,-2122.56 1836.18,-2057.52"/>
<polygon fill="#61d4fc" stroke="#61d4fc" points="1839.17,-2059.35 1841.87,-2049.1 1833.37,-2055.43 1839.17,-2059.35"/>
</g>
<!-- at_repl&#45;&gt;at_commons -->
<g id="edge139" class="edge">
<title>at_repl&#45;&gt;at_commons</title>
<path fill="none" stroke="#7eceb0" d="M875.7,-3173.84C793.29,-3096.82 458.26,-2772.16 293.32,-2436 60.08,-1960.6 108.32,-1788.53 108.32,-1259 108.32,-1259 108.32,-1259 108.32,-870 108.32,-680.96 97.32,-588.46 241.32,-466 597.6,-163.04 2172.75,-107.75 2508.32,-99.35"/>
<polygon fill="#7eceb0" stroke="#7eceb0" points="2508.9,-102.83 2518.81,-99.09 2508.72,-95.83 2508.9,-102.83"/>
</g>
<!-- at_repl&#45;&gt;at_onboarding_cli -->
<g id="edge140" class="edge">
<title>at_repl&#45;&gt;at_onboarding_cli</title>
<path fill="none" stroke="#514d2d" d="M902.07,-3173.96C929.73,-3113.1 1023.8,-2906.15 1057.33,-2832.38"/>
<polygon fill="#514d2d" stroke="#514d2d" points="1060.52,-2833.83 1061.47,-2823.28 1054.15,-2830.94 1060.52,-2833.83"/>
</g>
<!-- at_repl&#45;&gt;at_utils -->
<g id="edge141" class="edge">
<title>at_repl&#45;&gt;at_utils</title>
<path fill="none" stroke="#75e849" d="M871.85,-3173.84C811.57,-3126.21 646.93,-2985.15 588.32,-2823 582.89,-2807.95 587.4,-2802.97 588.32,-2787 613.41,-2354.4 579.36,-1201.18 837.32,-853 1012.86,-616.07 1384.99,-520.32 1513.54,-493.48"/>
<polygon fill="#75e849" stroke="#75e849" points="1514.34,-496.88 1523.43,-491.45 1512.94,-490.03 1514.34,-496.88"/>
</g>
<!-- at_root_server -->
<g id="node36" class="node">
<title>at_root_server</title>
<polygon fill="none" stroke="#9dd431" points="472.82,-1663 353.82,-1663 353.82,-1627 472.82,-1627 472.82,-1663"/>
<text text-anchor="middle" x="413.32" y="-1641.3" font-family="Times,serif" font-size="14.00">at_root_server</text>
</g>
<!-- at_root_server&#45;&gt;at_commons -->
<g id="edge142" class="edge">
<title>at_root_server&#45;&gt;at_commons</title>
<path fill="none" stroke="#7eceb0" d="M410.7,-1626.64C393.39,-1504.95 307.8,-775.64 690.32,-466 981.4,-230.39 2214.71,-124.61 2508.37,-102.5"/>
<polygon fill="#7eceb0" stroke="#7eceb0" points="2508.71,-105.98 2518.42,-101.75 2508.19,-99 2508.71,-105.98"/>
</g>
<!-- at_root_server&#45;&gt;at_persistence_root_server -->
<g id="edge145" class="edge">
<title>at_root_server&#45;&gt;at_persistence_root_server</title>
<path fill="none" stroke="#831d2e" d="M418.64,-1626.96C437.57,-1566.22 501.84,-1360 524.96,-1285.84"/>
<polygon fill="#831d2e" stroke="#831d2e" points="528.3,-1286.87 527.94,-1276.28 521.62,-1284.79 528.3,-1286.87"/>
</g>
<!-- at_root_server&#45;&gt;at_server_spec -->
<g id="edge144" class="edge">
<title>at_root_server&#45;&gt;at_server_spec</title>
<path fill="none" stroke="#e6f023" d="M408.81,-1626.96C392.75,-1566.35 338.3,-1360.84 318.56,-1286.29"/>
<polygon fill="#e6f023" stroke="#e6f023" points="321.85,-1285.05 315.9,-1276.28 315.08,-1286.84 321.85,-1285.05"/>
</g>
<!-- at_root_server&#45;&gt;at_utils -->
<g id="edge143" class="edge">
<title>at_root_server&#45;&gt;at_utils</title>
<path fill="none" stroke="#75e849" d="M428.45,-1626.8C471.41,-1576.82 594.38,-1425.66 646.32,-1276 708.3,-1097.43 577.94,-1004.98 690.32,-853 898.93,-570.9 1366.76,-503.21 1513.45,-488.65"/>
<polygon fill="#75e849" stroke="#75e849" points="1513.83,-492.13 1523.45,-487.69 1513.16,-485.16 1513.83,-492.13"/>
</g>
<!-- at_secondary -->
<g id="node37" class="node">
<title>at_secondary</title>
<polygon fill="none" stroke="#1b8948" points="1530.32,-1663 1420.32,-1663 1420.32,-1627 1530.32,-1627 1530.32,-1663"/>
<text text-anchor="middle" x="1475.32" y="-1641.3" font-family="Times,serif" font-size="14.00">at_secondary</text>
</g>
<!-- at_secondary&#45;&gt;at_chops -->
<g id="edge148" class="edge">
<title>at_secondary&#45;&gt;at_chops</title>
<path fill="none" stroke="#8fb4d4" d="M1487.25,-1626.79C1556.74,-1526.52 1909.24,-1017.86 1992.63,-897.54"/>
<polygon fill="#8fb4d4" stroke="#8fb4d4" points="1995.55,-899.46 1998.37,-889.25 1989.8,-895.47 1995.55,-899.46"/>
</g>
<!-- at_secondary&#45;&gt;at_commons -->
<g id="edge146" class="edge">
<title>at_secondary&#45;&gt;at_commons</title>
<path fill="none" stroke="#7eceb0" d="M1474.73,-1626.67C1470.17,-1488.17 1442.54,-563.55 1514.32,-466 1757.89,-135.03 2320.39,-99.75 2508.65,-97.49"/>
<polygon fill="#7eceb0" stroke="#7eceb0" points="2508.69,-100.99 2518.66,-97.4 2508.62,-93.99 2508.69,-100.99"/>
</g>
<!-- at_secondary&#45;&gt;at_lookup -->
<g id="edge149" class="edge">
<title>at_secondary&#45;&gt;at_lookup</title>
<path fill="none" stroke="#94d42d" d="M1512.06,-1626.96C1646.37,-1564.66 2110.66,-1349.29 2259.22,-1280.38"/>
<polygon fill="#94d42d" stroke="#94d42d" points="2260.94,-1283.44 2268.54,-1276.06 2258,-1277.09 2260.94,-1283.44"/>
</g>
<!-- at_secondary&#45;&gt;at_persistence_secondary_server -->
<g id="edge152" class="edge">
<title>at_secondary&#45;&gt;at_persistence_secondary_server</title>
<path fill="none" stroke="#9760d3" d="M1465.45,-1626.96C1430.13,-1565.97 1309.84,-1358.31 1267.35,-1284.94"/>
<polygon fill="#9760d3" stroke="#9760d3" points="1270.37,-1283.18 1262.33,-1276.28 1264.32,-1286.69 1270.37,-1283.18"/>
</g>
<!-- at_secondary&#45;&gt;at_persistence_spec -->
<g id="edge151" class="edge">
<title>at_secondary&#45;&gt;at_persistence_spec</title>
<path fill="none" stroke="#3bfcef" d="M1473.01,-1626.79C1459.57,-1527.02 1391.66,-1022.94 1375.01,-899.38"/>
<polygon fill="#3bfcef" stroke="#3bfcef" points="1378.45,-898.69 1373.65,-889.25 1371.51,-899.63 1378.45,-898.69"/>
</g>
<!-- at_secondary&#45;&gt;at_server_spec -->
<g id="edge150" class="edge">
<title>at_secondary&#45;&gt;at_server_spec</title>
<path fill="none" stroke="#e6f023" d="M1423.81,-1626.96C1234.42,-1564.32 577.16,-1346.93 372.59,-1279.26"/>
<polygon fill="#e6f023" stroke="#e6f023" points="373.5,-1275.88 362.91,-1276.06 371.3,-1282.52 373.5,-1275.88"/>
</g>
<!-- at_secondary&#45;&gt;at_utils -->
<g id="edge147" class="edge">
<title>at_secondary&#45;&gt;at_utils</title>
<path fill="none" stroke="#75e849" d="M1476.56,-1626.72C1485.87,-1496.79 1544.8,-673.84 1556.36,-512.44"/>
<polygon fill="#75e849" stroke="#75e849" points="1559.86,-512.61 1557.08,-502.38 1552.87,-512.11 1559.86,-512.61"/>
</g>
<!-- at_secondary_proxy -->
<g id="node38" class="node">
<title>at_secondary_proxy</title>
<polygon fill="none" stroke="#35c7f7" points="2724.32,-1663 2566.32,-1663 2566.32,-1627 2724.32,-1627 2724.32,-1663"/>
<text text-anchor="middle" x="2645.32" y="-1641.3" font-family="Times,serif" font-size="14.00">at_secondary_proxy</text>
</g>
<!-- at_secondary_proxy&#45;&gt;at_commons -->
<g id="edge153" class="edge">
<title>at_secondary_proxy&#45;&gt;at_commons</title>
<path fill="none" stroke="#7eceb0" d="M2644.77,-1626.67C2642.96,-1570.7 2636.97,-1389.7 2630.32,-1240 2610.56,-794.79 2580.09,-252.29 2572.89,-125.43"/>
<polygon fill="#7eceb0" stroke="#7eceb0" points="2576.36,-124.88 2572.3,-115.1 2569.37,-125.28 2576.36,-124.88"/>
</g>
<!-- at_secondary_proxy&#45;&gt;at_lookup -->
<g id="edge155" class="edge">
<title>at_secondary_proxy&#45;&gt;at_lookup</title>
<path fill="none" stroke="#94d42d" d="M2630.28,-1626.96C2576.2,-1565.73 2391.53,-1356.61 2327.44,-1284.05"/>
<polygon fill="#94d42d" stroke="#94d42d" points="2329.83,-1281.46 2320.58,-1276.28 2324.58,-1286.09 2329.83,-1281.46"/>
</g>
<!-- at_secondary_proxy&#45;&gt;at_utils -->
<g id="edge154" class="edge">
<title>at_secondary_proxy&#45;&gt;at_utils</title>
<path fill="none" stroke="#75e849" d="M2644.26,-1626.82C2637.32,-1517.03 2597.2,-916.1 2547.32,-853 2301.05,-541.46 1762.74,-493.66 1603.53,-486.33"/>
<polygon fill="#75e849" stroke="#75e849" points="1603.31,-482.82 1593.17,-485.88 1603.01,-489.81 1603.31,-482.82"/>
</g>
<!-- at_server_spec&#45;&gt;at_commons -->
<g id="edge156" class="edge">
<title>at_server_spec&#45;&gt;at_commons</title>
<path fill="none" stroke="#7eceb0" d="M306.39,-1239.87C280.69,-1146.75 171.41,-697.04 386.32,-466 684.71,-145.21 2181.89,-103.94 2508.39,-98.74"/>
<polygon fill="#7eceb0" stroke="#7eceb0" points="2508.66,-102.23 2518.61,-98.58 2508.55,-95.23 2508.66,-102.23"/>
</g>
<!-- at_server_status&#45;&gt;at_commons -->
<g id="edge157" class="edge">
<title>at_server_status&#45;&gt;at_commons</title>
<path fill="none" stroke="#7eceb0" d="M760.31,-2399.54C751.75,-2246.65 695.55,-1134.36 856.32,-853 1215.08,-225.15 2243.8,-118.4 2508.57,-101.17"/>
<polygon fill="#7eceb0" stroke="#7eceb0" points="2509.01,-104.65 2518.77,-100.52 2508.57,-97.66 2509.01,-104.65"/>
</g>
<!-- at_server_status&#45;&gt;at_lookup -->
<g id="edge159" class="edge">
<title>at_server_status&#45;&gt;at_lookup</title>
<path fill="none" stroke="#94d42d" d="M784.05,-2399.96C957.7,-2269.72 2073.39,-1432.95 2274.34,-1282.24"/>
<polygon fill="#94d42d" stroke="#94d42d" points="2276.52,-1284.97 2282.42,-1276.17 2272.32,-1279.37 2276.52,-1284.97"/>
</g>
<!-- at_server_status&#45;&gt;at_utils -->
<g id="edge158" class="edge">
<title>at_server_status&#45;&gt;at_utils</title>
<path fill="none" stroke="#75e849" d="M765.46,-2399.88C777.9,-2347.65 815.16,-2185.54 832.32,-2049 854.7,-1870.97 856.32,-1825.43 856.32,-1646 856.32,-1646 856.32,-1646 856.32,-1257 856.32,-1077.13 783.8,-1004.78 880.32,-853 1030.62,-616.67 1387.79,-520.88 1513.56,-493.73"/>
<polygon fill="#75e849" stroke="#75e849" points="1514.56,-497.09 1523.61,-491.6 1513.1,-490.25 1514.56,-497.09"/>
</g>
<!-- at_sync_ui_flutter&#45;&gt;at_client -->
<g id="edge160" class="edge">
<title>at_sync_ui_flutter&#45;&gt;at_client</title>
<path fill="none" stroke="#61d4fc" d="M2023.12,-2786.78C2010.34,-2734.27 1970.91,-2571.44 1940.32,-2436 1908.36,-2294.46 1872.6,-2124.42 1858.99,-2059.24"/>
<polygon fill="#61d4fc" stroke="#61d4fc" points="1862.4,-2058.43 1856.93,-2049.35 1855.55,-2059.86 1862.4,-2058.43"/>
</g>
<!-- at_sync_ui_flutter&#45;&gt;at_client_mobile -->
<g id="edge161" class="edge">
<title>at_sync_ui_flutter&#45;&gt;at_client_mobile</title>
<path fill="none" stroke="#d9577c" d="M2029.94,-2786.96C2039.22,-2726.35 2070.72,-2520.84 2082.14,-2446.29"/>
<polygon fill="#d9577c" stroke="#d9577c" points="2085.62,-2446.69 2083.68,-2436.28 2078.7,-2445.63 2085.62,-2446.69"/>
</g>
<!-- at_sync_ui_flutter&#45;&gt;at_common_flutter -->
<g id="edge162" class="edge">
<title>at_sync_ui_flutter&#45;&gt;at_common_flutter</title>
<path fill="none" stroke="#bf681f" d="M2065.52,-2786.96C2205.31,-2724.6 2688.89,-2508.86 2842.85,-2440.18"/>
<polygon fill="#bf681f" stroke="#bf681f" points="2844.37,-2443.33 2852.08,-2436.06 2841.52,-2436.94 2844.37,-2443.33"/>
</g>
<!-- at_theme_flutter -->
<g id="node42" class="node">
<title>at_theme_flutter</title>
<polygon fill="none" stroke="#2ec850" points="2856.32,-2823 2722.32,-2823 2722.32,-2787 2856.32,-2787 2856.32,-2823"/>
<text text-anchor="middle" x="2789.32" y="-2801.3" font-family="Times,serif" font-size="14.00">at_theme_flutter</text>
</g>
<!-- at_theme_flutter&#45;&gt;at_client_mobile -->
<g id="edge163" class="edge">
<title>at_theme_flutter&#45;&gt;at_client_mobile</title>
<path fill="none" stroke="#d9577c" d="M2758.21,-2786.96C2644.79,-2724.85 2253.55,-2510.58 2126.51,-2441.01"/>
<polygon fill="#d9577c" stroke="#d9577c" points="2127.93,-2437.79 2117.48,-2436.06 2124.57,-2443.93 2127.93,-2437.79"/>
</g>
<!-- at_theme_flutter&#45;&gt;at_common_flutter -->
<g id="edge164" class="edge">
<title>at_theme_flutter&#45;&gt;at_common_flutter</title>
<path fill="none" stroke="#bf681f" d="M2793.79,-2786.96C2809.7,-2726.35 2863.61,-2520.84 2883.16,-2446.29"/>
<polygon fill="#bf681f" stroke="#bf681f" points="2886.64,-2446.84 2885.79,-2436.28 2879.87,-2445.06 2886.64,-2446.84"/>
</g>
<!-- at_theme_flutter&#45;&gt;at_commons -->
<g id="edge165" class="edge">
<title>at_theme_flutter&#45;&gt;at_commons</title>
<path fill="none" stroke="#7eceb0" d="M2788.51,-2786.9C2786.17,-2730.91 2781.12,-2548.1 2806.32,-2400 2820.68,-2315.63 3013.17,-1746.85 3030.32,-1663 3066.52,-1486.05 3074.32,-1439.62 3074.32,-1259 3074.32,-1259 3074.32,-1259 3074.32,-870 3074.32,-689.52 3119.8,-624.41 3033.32,-466 2936.68,-288.96 2715.8,-166.72 2618.65,-119.59"/>
<polygon fill="#7eceb0" stroke="#7eceb0" points="2619.9,-116.31 2609.37,-115.13 2616.87,-122.62 2619.9,-116.31"/>
</g>
<!-- at_theme_flutter&#45;&gt;at_utils -->
<g id="edge166" class="edge">
<title>at_theme_flutter&#45;&gt;at_utils</title>
<path fill="none" stroke="#75e849" d="M2751.18,-2786.97C2658.65,-2743.49 2421.92,-2618.74 2313.32,-2436 1949.27,-1823.38 2429.6,-1461.27 2058.32,-853 1945.58,-668.29 1702.14,-546.96 1602.35,-503.2"/>
<polygon fill="#75e849" stroke="#75e849" points="1603.72,-499.98 1593.15,-499.21 1600.93,-506.4 1603.72,-499.98"/>
</g>
<!-- at_utils&#45;&gt;at_commons -->
<g id="edge167" class="edge">
<title>at_utils&#45;&gt;at_commons</title>
<path fill="none" stroke="#7eceb0" d="M1592.9,-469.86C1742.37,-413.05 2333.62,-188.34 2516.88,-118.69"/>
<polygon fill="#7eceb0" stroke="#7eceb0" points="2518.21,-121.93 2526.32,-115.11 2515.73,-115.39 2518.21,-121.93"/>
</g>
<!-- at_ve_doctor -->
<g id="node44" class="node">
<title>at_ve_doctor</title>
<polygon fill="none" stroke="#193e4e" points="865.82,-2823 758.82,-2823 758.82,-2787 865.82,-2787 865.82,-2823"/>
<text text-anchor="middle" x="812.32" y="-2801.3" font-family="Times,serif" font-size="14.00">at_ve_doctor</text>
</g>
<!-- at_ve_doctor&#45;&gt;at_server_status -->
<g id="edge168" class="edge">
<title>at_ve_doctor&#45;&gt;at_server_status</title>
<path fill="none" stroke="#320113" d="M810.07,-2786.96C802.04,-2726.35 774.81,-2520.84 764.94,-2446.29"/>
<polygon fill="#320113" stroke="#320113" points="768.4,-2445.73 763.61,-2436.28 761.46,-2446.65 768.4,-2445.73"/>
</g>
<!-- base2e15 -->
<g id="node45" class="node">
<title>base2e15</title>
<polygon fill="none" stroke="#2bcf07" points="3562.82,-3597 3477.82,-3597 3477.82,-3561 3562.82,-3561 3562.82,-3597"/>
<text text-anchor="middle" x="3520.32" y="-3575.3" font-family="Times,serif" font-size="14.00">base2e15</text>
</g>
<!-- dart_utf7 -->
<g id="node46" class="node">
<title>dart_utf7</title>
<polygon fill="none" stroke="#f889f9" points="3663.82,-3597 3580.82,-3597 3580.82,-3561 3663.82,-3561 3663.82,-3597"/>
<text text-anchor="middle" x="3622.32" y="-3575.3" font-family="Times,serif" font-size="14.00">dart_utf7</text>
</g>
<!-- \n -->
<g id="node48" class="node">
<title>\n</title>
<ellipse fill="none" stroke="black" cx="3709.32" cy="-3579" rx="27" ry="18"/>
</g>
</g>
</svg>
