<?xml version="1.0" encoding="UTF-8" standalone="no"?>
<!DOCTYPE svg PUBLIC "-//W3C//DTD SVG 1.1//EN"
 "http://www.w3.org/Graphics/SVG/1.1/DTD/svg11.dtd">
<!-- Generated by graphviz version 2.43.0 (0)
 -->
<!-- Title: packages Pages: 1 -->
<svg width="720pt" height="712pt"
 viewBox="0.00 0.00 720.00 711.73" xmlns="http://www.w3.org/2000/svg" xmlns:xlink="http://www.w3.org/1999/xlink">
<g id="graph0" class="graph" transform="scale(0.18939063331559342 0.18939063331559342) rotate(0) translate(4 3754)">
<title>packages</title>
<polygon fill="white" stroke="transparent" points="-4,4 -4,-3754 3797.66,-3754 3797.66,4 -4,4"/>
<!-- at_auth -->
<g id="node1" class="node">
<title>at_auth</title>
<polygon fill="none" stroke="#0f9477" points="1933.66,-1696 1863.66,-1696 1863.66,-1660 1933.66,-1660 1933.66,-1696"/>
<text text-anchor="middle" x="1898.66" y="-1674.3" font-family="Times,serif" font-size="14.00">at_auth</text>
</g>
<!-- at_chops -->
<g id="node4" class="node">
<title>at_chops</title>
<polygon fill="none" stroke="#8fb4d4" points="2013.16,-906 1934.16,-906 1934.16,-870 2013.16,-870 2013.16,-906"/>
<text text-anchor="middle" x="1973.66" y="-884.3" font-family="Times,serif" font-size="14.00">at_chops</text>
</g>
<!-- at_auth&#45;&gt;at_chops -->
<g id="edge3" class="edge">
<title>at_auth&#45;&gt;at_chops</title>
<path fill="none" stroke="#8fb4d4" d="M1900.3,-1659.81C1909.91,-1558.76 1959.07,-1042.27 1971.03,-916.59"/>
<polygon fill="#8fb4d4" stroke="#8fb4d4" points="1974.55,-916.59 1972.01,-906.3 1967.58,-915.93 1974.55,-916.59"/>
</g>
<!-- at_commons -->
<g id="node10" class="node">
<title>at_commons</title>
<polygon fill="none" stroke="#7eceb0" points="2504.16,-117 2399.16,-117 2399.16,-81 2504.16,-81 2504.16,-117"/>
<text text-anchor="middle" x="2451.66" y="-95.3" font-family="Times,serif" font-size="14.00">at_commons</text>
</g>
<!-- at_auth&#45;&gt;at_commons -->
<g id="edge1" class="edge">
<title>at_auth&#45;&gt;at_commons</title>
<path fill="none" stroke="#7eceb0" d="M1897.92,-1659.82C1893.66,-1557.13 1874.32,-1023.88 1924.66,-870 2034.18,-535.27 2337.78,-213.72 2426.82,-124.39"/>
<polygon fill="#7eceb0" stroke="#7eceb0" points="2429.44,-126.72 2434.04,-117.18 2424.49,-121.77 2429.44,-126.72"/>
</g>
<!-- at_lookup -->
<g id="node27" class="node">
<title>at_lookup</title>
<polygon fill="none" stroke="#94d42d" points="2346.16,-1301 2261.16,-1301 2261.16,-1265 2346.16,-1265 2346.16,-1301"/>
<text text-anchor="middle" x="2303.66" y="-1279.3" font-family="Times,serif" font-size="14.00">at_lookup</text>
</g>
<!-- at_auth&#45;&gt;at_lookup -->
<g id="edge2" class="edge">
<title>at_auth&#45;&gt;at_lookup</title>
<path fill="none" stroke="#94d42d" d="M1916.32,-1659.86C1980.79,-1597.3 2203.57,-1381.12 2278.7,-1308.22"/>
<polygon fill="#94d42d" stroke="#94d42d" points="2281.17,-1310.71 2285.91,-1301.23 2276.29,-1305.68 2281.17,-1310.71"/>
</g>
<!-- at_utils -->
<g id="node43" class="node">
<title>at_utils</title>
<polygon fill="none" stroke="#75e849" points="1632.16,-511 1563.16,-511 1563.16,-475 1632.16,-475 1632.16,-511"/>
<text text-anchor="middle" x="1597.66" y="-489.3" font-family="Times,serif" font-size="14.00">at_utils</text>
</g>
<!-- at_auth&#45;&gt;at_utils -->
<g id="edge4" class="edge">
<title>at_auth&#45;&gt;at_utils</title>
<path fill="none" stroke="#75e849" d="M1897.39,-1659.89C1890.67,-1573.64 1856,-1178.58 1763.66,-870 1722.68,-733.04 1644.17,-580.16 1611.98,-520.17"/>
<polygon fill="#75e849" stroke="#75e849" points="1614.87,-518.17 1607.04,-511.03 1608.71,-521.49 1614.87,-518.17"/>
</g>
<!-- at_backupkey_flutter -->
<g id="node2" class="node">
<title>at_backupkey_flutter</title>
<polygon fill="none" stroke="#590b92" points="1495.16,-2880 1330.16,-2880 1330.16,-2844 1495.16,-2844 1495.16,-2880"/>
<text text-anchor="middle" x="1412.66" y="-2858.3" font-family="Times,serif" font-size="14.00">at_backupkey_flutter</text>
</g>
<!-- at_client_mobile -->
<g id="node8" class="node">
<title>at_client_mobile</title>
<polygon fill="none" stroke="#d9577c" points="2193.66,-2485 2061.66,-2485 2061.66,-2449 2193.66,-2449 2193.66,-2485"/>
<text text-anchor="middle" x="2127.66" y="-2463.3" font-family="Times,serif" font-size="14.00">at_client_mobile</text>
</g>
<!-- at_backupkey_flutter&#45;&gt;at_client_mobile -->
<g id="edge6" class="edge">
<title>at_backupkey_flutter&#45;&gt;at_client_mobile</title>
<path fill="none" stroke="#d9577c" d="M1443.84,-2843.86C1558.83,-2780.66 1959.05,-2560.68 2087.59,-2490.03"/>
<polygon fill="#d9577c" stroke="#d9577c" points="2089.64,-2492.89 2096.72,-2485.01 2086.27,-2486.76 2089.64,-2492.89"/>
</g>
<!-- at_backupkey_flutter&#45;&gt;at_utils -->
<g id="edge5" class="edge">
<title>at_backupkey_flutter&#45;&gt;at_utils</title>
<path fill="none" stroke="#75e849" d="M1411.98,-2843.61C1409.54,-2786.65 1400.03,-2600.61 1374.66,-2449 1286.29,-1920.95 1055.46,-1791.49 1152.66,-1265 1186.78,-1080.18 1211.19,-1033.63 1303.66,-870 1385.62,-724.96 1520.17,-575.84 1574.16,-518.49"/>
<polygon fill="#75e849" stroke="#75e849" points="1576.9,-520.69 1581.23,-511.02 1571.82,-515.88 1576.9,-520.69"/>
</g>
<!-- at_chat_flutter -->
<g id="node3" class="node">
<title>at_chat_flutter</title>
<polygon fill="none" stroke="#463830" points="2611.66,-2880 2491.66,-2880 2491.66,-2844 2611.66,-2844 2611.66,-2880"/>
<text text-anchor="middle" x="2551.66" y="-2858.3" font-family="Times,serif" font-size="14.00">at_chat_flutter</text>
</g>
<!-- at_client -->
<g id="node7" class="node">
<title>at_client</title>
<polygon fill="none" stroke="#61d4fc" points="1869.16,-2090 1792.16,-2090 1792.16,-2054 1869.16,-2054 1869.16,-2090"/>
<text text-anchor="middle" x="1830.66" y="-2068.3" font-family="Times,serif" font-size="14.00">at_client</text>
</g>
<!-- at_chat_flutter&#45;&gt;at_client -->
<g id="edge7" class="edge">
<title>at_chat_flutter&#45;&gt;at_client</title>
<path fill="none" stroke="#61d4fc" d="M2537.83,-2843.72C2491.71,-2786.33 2338.45,-2597.29 2202.66,-2449 2076.88,-2311.64 1916.9,-2155.92 1855.86,-2097.15"/>
<polygon fill="#61d4fc" stroke="#61d4fc" points="1858.22,-2094.56 1848.58,-2090.15 1853.37,-2099.6 1858.22,-2094.56"/>
</g>
<!-- at_chat_flutter&#45;&gt;at_client_mobile -->
<g id="edge8" class="edge">
<title>at_chat_flutter&#45;&gt;at_client_mobile</title>
<path fill="none" stroke="#d9577c" d="M2533.17,-2843.86C2465.67,-2781.3 2232.44,-2565.12 2153.79,-2492.22"/>
<polygon fill="#d9577c" stroke="#d9577c" points="2155.96,-2489.46 2146.25,-2485.23 2151.2,-2494.59 2155.96,-2489.46"/>
</g>
<!-- at_common_flutter -->
<g id="node9" class="node">
<title>at_common_flutter</title>
<polygon fill="none" stroke="#bf681f" points="3014.16,-2485 2865.16,-2485 2865.16,-2449 3014.16,-2449 3014.16,-2485"/>
<text text-anchor="middle" x="2939.66" y="-2463.3" font-family="Times,serif" font-size="14.00">at_common_flutter</text>
</g>
<!-- at_chat_flutter&#45;&gt;at_common_flutter -->
<g id="edge9" class="edge">
<title>at_chat_flutter&#45;&gt;at_common_flutter</title>
<path fill="none" stroke="#bf681f" d="M2568.58,-2843.86C2630.22,-2781.43 2842.91,-2565.99 2915.31,-2492.67"/>
<polygon fill="#bf681f" stroke="#bf681f" points="2918.12,-2494.8 2922.65,-2485.23 2913.13,-2489.89 2918.12,-2494.8"/>
</g>
<!-- at_chat_flutter&#45;&gt;at_commons -->
<g id="edge10" class="edge">
<title>at_chat_flutter&#45;&gt;at_commons</title>
<path fill="none" stroke="#7eceb0" d="M2560.85,-2843.65C2625.68,-2719.57 3011.66,-1952.78 3011.66,-1284 3011.66,-1284 3011.66,-1284 3011.66,-887 3011.66,-703.03 3063.3,-634.53 2971.66,-475 2863.09,-285.99 2616.32,-166.7 2506.33,-121.08"/>
<polygon fill="#7eceb0" stroke="#7eceb0" points="2507.33,-117.71 2496.75,-117.15 2504.67,-124.18 2507.33,-117.71"/>
</g>
<!-- at_contact -->
<g id="node11" class="node">
<title>at_contact</title>
<polygon fill="none" stroke="#250aa2" points="2043.66,-2485 1953.66,-2485 1953.66,-2449 2043.66,-2449 2043.66,-2485"/>
<text text-anchor="middle" x="1998.66" y="-2463.3" font-family="Times,serif" font-size="14.00">at_contact</text>
</g>
<!-- at_chat_flutter&#45;&gt;at_contact -->
<g id="edge11" class="edge">
<title>at_chat_flutter&#45;&gt;at_contact</title>
<path fill="none" stroke="#250aa2" d="M2527.54,-2843.86C2438.97,-2780.91 2131.54,-2562.44 2030.86,-2490.88"/>
<polygon fill="#250aa2" stroke="#250aa2" points="2032.77,-2487.95 2022.59,-2485.01 2028.72,-2493.65 2032.77,-2487.95"/>
</g>
<!-- at_chat_flutter&#45;&gt;at_lookup -->
<g id="edge12" class="edge">
<title>at_chat_flutter&#45;&gt;at_lookup</title>
<path fill="none" stroke="#94d42d" d="M2550.69,-2843.88C2544.31,-2735.74 2505.49,-2136.64 2403.66,-1660 2375.38,-1527.62 2330.09,-1372.08 2311.76,-1310.77"/>
<polygon fill="#94d42d" stroke="#94d42d" points="2315.08,-1309.67 2308.86,-1301.09 2308.38,-1311.68 2315.08,-1309.67"/>
</g>
<!-- at_chops&#45;&gt;at_commons -->
<g id="edge13" class="edge">
<title>at_chops&#45;&gt;at_commons</title>
<path fill="none" stroke="#7eceb0" d="M1984.09,-869.83C2045.63,-768.51 2361.22,-248.91 2435.83,-126.06"/>
<polygon fill="#7eceb0" stroke="#7eceb0" points="2438.97,-127.64 2441.17,-117.28 2432.98,-124.01 2438.97,-127.64"/>
</g>
<!-- at_chops&#45;&gt;at_utils -->
<g id="edge14" class="edge">
<title>at_chops&#45;&gt;at_utils</title>
<path fill="none" stroke="#75e849" d="M1957.26,-869.86C1897.53,-807.43 1691.42,-591.99 1621.26,-518.67"/>
<polygon fill="#75e849" stroke="#75e849" points="1623.59,-516.04 1614.15,-511.23 1618.53,-520.87 1623.59,-516.04"/>
</g>
<!-- at_cli -->
<g id="node5" class="node">
<title>at_cli</title>
<polygon fill="none" stroke="#34bd05" points="2417.66,-2485 2363.66,-2485 2363.66,-2449 2417.66,-2449 2417.66,-2485"/>
<text text-anchor="middle" x="2390.66" y="-2463.3" font-family="Times,serif" font-size="14.00">at_cli</text>
</g>
<!-- at_cli&#45;&gt;at_client -->
<g id="edge16" class="edge">
<title>at_cli&#45;&gt;at_client</title>
<path fill="none" stroke="#61d4fc" d="M2366.24,-2448.86C2276.54,-2385.91 1965.23,-2167.44 1863.27,-2095.88"/>
<polygon fill="#61d4fc" stroke="#61d4fc" points="1865.09,-2092.89 1854.9,-2090.01 1861.07,-2098.62 1865.09,-2092.89"/>
</g>
<!-- at_cli&#45;&gt;at_commons -->
<g id="edge17" class="edge">
<title>at_cli&#45;&gt;at_commons</title>
<path fill="none" stroke="#7eceb0" d="M2406.14,-2448.96C2476.33,-2370.46 2765.97,-2033.09 2873.66,-1696 2929.48,-1521.28 2897.66,-1467.42 2897.66,-1284 2897.66,-1284 2897.66,-1284 2897.66,-887 2897.66,-703.58 2953.65,-640.06 2873.66,-475 2788.93,-300.16 2582.38,-171.24 2493.48,-121.96"/>
<polygon fill="#7eceb0" stroke="#7eceb0" points="2494.95,-118.77 2484.5,-117.03 2491.58,-124.9 2494.95,-118.77"/>
</g>
<!-- at_cli&#45;&gt;at_lookup -->
<g id="edge15" class="edge">
<title>at_cli&#45;&gt;at_lookup</title>
<path fill="none" stroke="#94d42d" d="M2389.12,-2448.94C2381.65,-2366.16 2348.81,-1998.05 2327.66,-1696 2317.51,-1551.11 2308.39,-1377.35 2305.03,-1311.29"/>
<polygon fill="#94d42d" stroke="#94d42d" points="2308.52,-1311.09 2304.52,-1301.28 2301.53,-1311.44 2308.52,-1311.09"/>
</g>
<!-- at_cli&#45;&gt;at_utils -->
<g id="edge18" class="edge">
<title>at_cli&#45;&gt;at_utils</title>
<path fill="none" stroke="#75e849" d="M2384.37,-2448.83C2354.42,-2365.44 2227.66,-1993.99 2227.66,-1679 2227.66,-1679 2227.66,-1679 2227.66,-1282 2227.66,-1098.58 2297.46,-1027.62 2203.66,-870 2072.76,-650.05 1758.11,-540.14 1641.82,-505.98"/>
<polygon fill="#75e849" stroke="#75e849" points="1642.75,-502.61 1632.17,-503.19 1640.8,-509.33 1642.75,-502.61"/>
</g>
<!-- at_cli_commons -->
<g id="node6" class="node">
<title>at_cli_commons</title>
<polygon fill="none" stroke="#c99192" points="1365.66,-2485 1237.66,-2485 1237.66,-2449 1365.66,-2449 1365.66,-2485"/>
<text text-anchor="middle" x="1301.66" y="-2463.3" font-family="Times,serif" font-size="14.00">at_cli_commons</text>
</g>
<!-- at_cli_commons&#45;&gt;at_client -->
<g id="edge19" class="edge">
<title>at_cli_commons&#45;&gt;at_client</title>
<path fill="none" stroke="#61d4fc" d="M1324.73,-2448.86C1409.38,-2385.98 1702.95,-2167.87 1799.57,-2096.1"/>
<polygon fill="#61d4fc" stroke="#61d4fc" points="1801.83,-2098.78 1807.77,-2090.01 1797.65,-2093.16 1801.83,-2098.78"/>
</g>
<!-- at_onboarding_cli -->
<g id="node29" class="node">
<title>at_onboarding_cli</title>
<polygon fill="none" stroke="#514d2d" points="1189.66,-2880 1047.66,-2880 1047.66,-2844 1189.66,-2844 1189.66,-2880"/>
<text text-anchor="middle" x="1118.66" y="-2858.3" font-family="Times,serif" font-size="14.00">at_onboarding_cli</text>
</g>
<!-- at_cli_commons&#45;&gt;at_onboarding_cli -->
<g id="edge20" class="edge">
<title>at_cli_commons&#45;&gt;at_onboarding_cli</title>
<path fill="none" stroke="#514d2d" d="M1296.62,-2485.23C1272.53,-2547.3 1173.8,-2759.77 1134.53,-2834.63"/>
<polygon fill="#514d2d" stroke="#514d2d" points="1131.23,-2833.39 1129.61,-2843.86 1137.41,-2836.68 1131.23,-2833.39"/>
</g>
<!-- at_cli_commons&#45;&gt;at_utils -->
<g id="edge21" class="edge">
<title>at_cli_commons&#45;&gt;at_utils</title>
<path fill="none" stroke="#75e849" d="M1296.05,-2448.92C1269.42,-2366.77 1155.53,-2003.67 1119.66,-1696 1098.41,-1513.68 1039.47,-1035.11 1119.66,-870 1212.39,-679.09 1454.21,-556.16 1553.81,-512.16"/>
<polygon fill="#75e849" stroke="#75e849" points="1555.23,-515.36 1563,-508.15 1552.43,-508.95 1555.23,-515.36"/>
</g>
<!-- at_client&#45;&gt;at_auth -->
<g id="edge26" class="edge">
<title>at_client&#45;&gt;at_auth</title>
<path fill="none" stroke="#0f9477" d="M1833.63,-2053.9C1844.3,-1992.39 1880.8,-1781.94 1893.92,-1706.33"/>
<polygon fill="#0f9477" stroke="#0f9477" points="1897.42,-1706.64 1895.68,-1696.19 1890.52,-1705.44 1897.42,-1706.64"/>
</g>
<!-- at_client&#45;&gt;at_chops -->
<g id="edge24" class="edge">
<title>at_client&#45;&gt;at_chops</title>
<path fill="none" stroke="#8fb4d4" d="M1837.51,-2053.8C1858.04,-2001.25 1919.15,-1837.77 1942.66,-1696 1992.78,-1393.72 1979.92,-1019.44 1975.08,-916.37"/>
<polygon fill="#8fb4d4" stroke="#8fb4d4" points="1978.57,-916.02 1974.59,-906.2 1971.58,-916.36 1978.57,-916.02"/>
</g>
<!-- at_client&#45;&gt;at_commons -->
<g id="edge22" class="edge">
<title>at_client&#45;&gt;at_commons</title>
<path fill="none" stroke="#7eceb0" d="M1869.22,-2061.42C2031.05,-2020.38 2652.23,-1854.31 2764.66,-1696 2870.8,-1546.55 2783.66,-1467.31 2783.66,-1284 2783.66,-1284 2783.66,-1284 2783.66,-887 2783.66,-563.44 2542.49,-219.73 2471.25,-125.26"/>
<polygon fill="#7eceb0" stroke="#7eceb0" points="2473.92,-122.99 2465.09,-117.15 2468.35,-127.23 2473.92,-122.99"/>
</g>
<!-- at_client&#45;&gt;at_lookup -->
<g id="edge25" class="edge">
<title>at_client&#45;&gt;at_lookup</title>
<path fill="none" stroke="#94d42d" d="M1843.6,-2053.94C1882.88,-2001.81 2003.37,-1839.38 2089.66,-1696 2174.46,-1555.1 2260.02,-1377.1 2291.27,-1310.63"/>
<polygon fill="#94d42d" stroke="#94d42d" points="2294.57,-1311.83 2295.64,-1301.29 2288.23,-1308.86 2294.57,-1311.83"/>
</g>
<!-- at_persistence_secondary_server -->
<g id="node32" class="node">
<title>at_persistence_secondary_server</title>
<polygon fill="none" stroke="#9760d3" points="1413.66,-1301 1161.66,-1301 1161.66,-1265 1413.66,-1265 1413.66,-1301"/>
<text text-anchor="middle" x="1287.66" y="-1279.3" font-family="Times,serif" font-size="14.00">at_persistence_secondary_server</text>
</g>
<!-- at_client&#45;&gt;at_persistence_secondary_server -->
<g id="edge28" class="edge">
<title>at_client&#45;&gt;at_persistence_secondary_server</title>
<path fill="none" stroke="#9760d3" d="M1799.53,-2053.98C1718.32,-2007.91 1498.78,-1872.24 1389.66,-1696 1310.13,-1567.55 1292.56,-1380.58 1288.72,-1311.22"/>
<polygon fill="#9760d3" stroke="#9760d3" points="1292.21,-1310.93 1288.22,-1301.12 1285.22,-1311.28 1292.21,-1310.93"/>
</g>
<!-- at_persistence_spec -->
<g id="node33" class="node">
<title>at_persistence_spec</title>
<polygon fill="none" stroke="#3bfcef" points="1486.16,-906 1327.16,-906 1327.16,-870 1486.16,-870 1486.16,-906"/>
<text text-anchor="middle" x="1406.66" y="-884.3" font-family="Times,serif" font-size="14.00">at_persistence_spec</text>
</g>
<!-- at_client&#45;&gt;at_persistence_spec -->
<g id="edge27" class="edge">
<title>at_client&#45;&gt;at_persistence_spec</title>
<path fill="none" stroke="#3bfcef" d="M1803.46,-2053.85C1731.84,-2006.94 1538.24,-1868.45 1460.66,-1696 1444.31,-1659.65 1414.47,-1052.71 1407.94,-916.14"/>
<polygon fill="#3bfcef" stroke="#3bfcef" points="1411.44,-915.92 1407.47,-906.1 1404.45,-916.26 1411.44,-915.92"/>
</g>
<!-- at_client&#45;&gt;at_utils -->
<g id="edge23" class="edge">
<title>at_client&#45;&gt;at_utils</title>
<path fill="none" stroke="#75e849" d="M1828.48,-2053.81C1821.75,-2000.63 1800.7,-1834.05 1783.66,-1696 1762,-1520.48 1756.11,-1476.66 1735.66,-1301 1713.37,-1109.55 1720.82,-1059.87 1687.66,-870 1664.52,-737.49 1622.45,-582.02 1605.28,-520.75"/>
<polygon fill="#75e849" stroke="#75e849" points="1608.63,-519.76 1602.55,-511.08 1601.9,-521.66 1608.63,-519.76"/>
</g>
<!-- at_client_mobile&#45;&gt;at_auth -->
<g id="edge34" class="edge">
<title>at_client_mobile&#45;&gt;at_auth</title>
<path fill="none" stroke="#0f9477" d="M2125.77,-2448.83C2119.23,-2391.79 2095.51,-2203.73 2051.66,-2054 2012.07,-1918.81 1940.74,-1765.54 1911.6,-1705.29"/>
<polygon fill="#0f9477" stroke="#0f9477" points="1914.65,-1703.58 1907.13,-1696.12 1908.36,-1706.64 1914.65,-1703.58"/>
</g>
<!-- at_client_mobile&#45;&gt;at_chops -->
<g id="edge31" class="edge">
<title>at_client_mobile&#45;&gt;at_chops</title>
<path fill="none" stroke="#8fb4d4" d="M2125.98,-2448.83C2110.68,-2292.07 1995.3,-1110.58 1976.3,-916.07"/>
<polygon fill="#8fb4d4" stroke="#8fb4d4" points="1979.79,-915.72 1975.33,-906.11 1972.82,-916.4 1979.79,-915.72"/>
</g>
<!-- at_client_mobile&#45;&gt;at_client -->
<g id="edge33" class="edge">
<title>at_client_mobile&#45;&gt;at_client</title>
<path fill="none" stroke="#61d4fc" d="M2114.71,-2448.86C2067.72,-2386.68 1906.03,-2172.74 1849.98,-2098.56"/>
<polygon fill="#61d4fc" stroke="#61d4fc" points="1852.5,-2096.1 1843.68,-2090.23 1846.92,-2100.32 1852.5,-2096.1"/>
</g>
<!-- at_client_mobile&#45;&gt;at_commons -->
<g id="edge29" class="edge">
<title>at_client_mobile&#45;&gt;at_commons</title>
<path fill="none" stroke="#7eceb0" d="M2153.12,-2448.76C2260.51,-2374.34 2678.18,-2067.62 2835.66,-1696 2907.23,-1527.12 2859.66,-1467.42 2859.66,-1284 2859.66,-1284 2859.66,-1284 2859.66,-887 2859.66,-703.58 2911.74,-641.9 2835.66,-475 2758.81,-306.41 2569.68,-173.48 2489.05,-122.52"/>
<polygon fill="#7eceb0" stroke="#7eceb0" points="2490.56,-119.34 2480.23,-117 2486.85,-125.27 2490.56,-119.34"/>
</g>
<!-- at_client_mobile&#45;&gt;at_lookup -->
<g id="edge32" class="edge">
<title>at_client_mobile&#45;&gt;at_lookup</title>
<path fill="none" stroke="#94d42d" d="M2130.22,-2448.84C2149.74,-2317.71 2275.19,-1475.19 2299.56,-1311.52"/>
<polygon fill="#94d42d" stroke="#94d42d" points="2303.07,-1311.74 2301.08,-1301.33 2296.15,-1310.71 2303.07,-1311.74"/>
</g>
<!-- at_client_mobile&#45;&gt;at_persistence_secondary_server -->
<g id="edge35" class="edge">
<title>at_client_mobile&#45;&gt;at_persistence_secondary_server</title>
<path fill="none" stroke="#9760d3" d="M2119.63,-2448.65C2091.72,-2389.46 1994.28,-2191.51 1877.66,-2054 1719.67,-1867.71 1604.46,-1893.45 1460.66,-1696 1367.02,-1567.43 1312.4,-1380.53 1294.37,-1311.2"/>
<polygon fill="#9760d3" stroke="#9760d3" points="1297.66,-1309.93 1291.79,-1301.11 1290.87,-1311.67 1297.66,-1309.93"/>
</g>
<!-- at_client_mobile&#45;&gt;at_utils -->
<g id="edge30" class="edge">
<title>at_client_mobile&#45;&gt;at_utils</title>
<path fill="none" stroke="#75e849" d="M2120.46,-2448.98C2086.09,-2367.1 1936.94,-2005.07 1854.66,-1696 1758.68,-1335.44 1789.16,-1233.42 1704.66,-870 1673.86,-737.52 1625.71,-582.03 1606.25,-520.75"/>
<polygon fill="#75e849" stroke="#75e849" points="1609.54,-519.55 1603.17,-511.08 1602.87,-521.67 1609.54,-519.55"/>
</g>
<!-- at_contact&#45;&gt;at_client -->
<g id="edge36" class="edge">
<title>at_contact&#45;&gt;at_client</title>
<path fill="none" stroke="#61d4fc" d="M1991.33,-2448.86C1964.86,-2386.93 1874.04,-2174.47 1841.98,-2099.47"/>
<polygon fill="#61d4fc" stroke="#61d4fc" points="1845.18,-2098.05 1838.03,-2090.23 1838.74,-2100.8 1845.18,-2098.05"/>
</g>
<!-- at_contact&#45;&gt;at_commons -->
<g id="edge37" class="edge">
<title>at_contact&#45;&gt;at_commons</title>
<path fill="none" stroke="#7eceb0" d="M2028.07,-2448.76C2148.95,-2376.05 2609.55,-2080.4 2789.66,-1696 2867.59,-1529.69 2821.66,-1467.66 2821.66,-1284 2821.66,-1284 2821.66,-1284 2821.66,-887 2821.66,-557.62 2552.94,-218.07 2473.52,-124.91"/>
<polygon fill="#7eceb0" stroke="#7eceb0" points="2476.03,-122.45 2466.86,-117.15 2470.72,-127.02 2476.03,-122.45"/>
</g>
<!-- at_contact&#45;&gt;at_utils -->
<g id="edge38" class="edge">
<title>at_contact&#45;&gt;at_utils</title>
<path fill="none" stroke="#75e849" d="M1994.59,-2448.82C1981.67,-2392.49 1942.7,-2208.16 1947.66,-2054 1956.14,-1790.51 2129.8,-1110.43 2021.66,-870 1941.77,-692.38 1731.92,-564.63 1640.85,-515.83"/>
<polygon fill="#75e849" stroke="#75e849" points="1642.38,-512.68 1631.9,-511.09 1639.1,-518.86 1642.38,-512.68"/>
</g>
<!-- at_contacts_flutter -->
<g id="node12" class="node">
<title>at_contacts_flutter</title>
<polygon fill="none" stroke="#1267b5" points="2474.16,-2880 2325.16,-2880 2325.16,-2844 2474.16,-2844 2474.16,-2880"/>
<text text-anchor="middle" x="2399.66" y="-2858.3" font-family="Times,serif" font-size="14.00">at_contacts_flutter</text>
</g>
<!-- at_contacts_flutter&#45;&gt;at_client -->
<g id="edge39" class="edge">
<title>at_contacts_flutter&#45;&gt;at_client</title>
<path fill="none" stroke="#61d4fc" d="M2367.51,-2843.85C2284.13,-2797.67 2059.47,-2662.14 1944.66,-2485 1861.9,-2357.31 1838.58,-2169.88 1832.58,-2100.31"/>
<polygon fill="#61d4fc" stroke="#61d4fc" points="1836.05,-2099.86 1831.75,-2090.18 1829.08,-2100.43 1836.05,-2099.86"/>
</g>
<!-- at_contacts_flutter&#45;&gt;at_client_mobile -->
<g id="edge40" class="edge">
<title>at_contacts_flutter&#45;&gt;at_client_mobile</title>
<path fill="none" stroke="#d9577c" d="M2387.8,-2843.86C2344.76,-2781.68 2196.69,-2567.74 2145.35,-2493.56"/>
<polygon fill="#d9577c" stroke="#d9577c" points="2148.15,-2491.46 2139.59,-2485.23 2142.4,-2495.44 2148.15,-2491.46"/>
</g>
<!-- at_contacts_flutter&#45;&gt;at_common_flutter -->
<g id="edge41" class="edge">
<title>at_contacts_flutter&#45;&gt;at_common_flutter</title>
<path fill="none" stroke="#bf681f" d="M2423.21,-2843.86C2509.62,-2780.98 2809.3,-2562.87 2907.92,-2491.1"/>
<polygon fill="#bf681f" stroke="#bf681f" points="2910.27,-2493.72 2916.29,-2485.01 2906.15,-2488.06 2910.27,-2493.72"/>
</g>
<!-- at_contacts_flutter&#45;&gt;at_commons -->
<g id="edge42" class="edge">
<title>at_contacts_flutter&#45;&gt;at_commons</title>
<path fill="none" stroke="#7eceb0" d="M2411.15,-2843.88C2479.11,-2741.53 2829.54,-2197.93 2949.66,-1696 2992.35,-1517.62 2973.66,-1467.42 2973.66,-1284 2973.66,-1284 2973.66,-1284 2973.66,-887 2973.66,-703.58 3036.27,-636.69 2949.66,-475 2849.33,-287.7 2610,-167.13 2503.87,-121.1"/>
<polygon fill="#7eceb0" stroke="#7eceb0" points="2505.2,-117.86 2494.63,-117.13 2502.44,-124.29 2505.2,-117.86"/>
</g>
<!-- at_contacts_flutter&#45;&gt;at_contact -->
<g id="edge43" class="edge">
<title>at_contacts_flutter&#45;&gt;at_contact</title>
<path fill="none" stroke="#250aa2" d="M2382.17,-2843.86C2318.47,-2781.43 2098.65,-2565.99 2023.83,-2492.67"/>
<polygon fill="#250aa2" stroke="#250aa2" points="2025.83,-2489.73 2016.24,-2485.23 2020.93,-2494.73 2025.83,-2489.73"/>
</g>
<!-- at_contacts_flutter&#45;&gt;at_lookup -->
<g id="edge44" class="edge">
<title>at_contacts_flutter&#45;&gt;at_lookup</title>
<path fill="none" stroke="#94d42d" d="M2403.39,-2843.88C2414.71,-2790.88 2448.58,-2624.7 2459.66,-2485 2497.12,-2012.53 2347.66,-1440.95 2311.41,-1311.1"/>
<polygon fill="#94d42d" stroke="#94d42d" points="2314.71,-1309.89 2308.63,-1301.21 2307.97,-1311.79 2314.71,-1309.89"/>
</g>
<!-- at_contacts_flutter&#45;&gt;at_utils -->
<g id="edge45" class="edge">
<title>at_contacts_flutter&#45;&gt;at_utils</title>
<path fill="none" stroke="#75e849" d="M2393.48,-2843.91C2364.03,-2761.7 2236.77,-2398.32 2175.66,-2090 2069.62,-1554.97 2298.83,-1351.53 2042.66,-870 1948.51,-693.03 1733.42,-564.71 1641.08,-515.79"/>
<polygon fill="#75e849" stroke="#75e849" points="1642.49,-512.57 1632.01,-511.03 1639.24,-518.77 1642.49,-512.57"/>
</g>
<!-- at_contacts_group_flutter -->
<g id="node13" class="node">
<title>at_contacts_group_flutter</title>
<polygon fill="none" stroke="#dae1d2" points="2447.66,-3275 2249.66,-3275 2249.66,-3239 2447.66,-3239 2447.66,-3275"/>
<text text-anchor="middle" x="2348.66" y="-3253.3" font-family="Times,serif" font-size="14.00">at_contacts_group_flutter</text>
</g>
<!-- at_contacts_group_flutter&#45;&gt;at_client_mobile -->
<g id="edge46" class="edge">
<title>at_contacts_group_flutter&#45;&gt;at_client_mobile</title>
<path fill="none" stroke="#d9577c" d="M2344,-3238.71C2328.7,-3182.04 2278.56,-2996.81 2235.66,-2844 2198.87,-2712.96 2153.5,-2556.66 2135.52,-2494.95"/>
<polygon fill="#d9577c" stroke="#d9577c" points="2138.84,-2493.84 2132.69,-2485.22 2132.12,-2495.8 2138.84,-2493.84"/>
</g>
<!-- at_contacts_group_flutter&#45;&gt;at_common_flutter -->
<g id="edge47" class="edge">
<title>at_contacts_group_flutter&#45;&gt;at_common_flutter</title>
<path fill="none" stroke="#bf681f" d="M2404.41,-3238.89C2524.43,-3198.74 2805.83,-3085.94 2922.66,-2880 2995.09,-2752.34 2962.41,-2564.89 2946.52,-2495.31"/>
<polygon fill="#bf681f" stroke="#bf681f" points="2949.83,-2494.11 2944.13,-2485.18 2943.02,-2495.72 2949.83,-2494.11"/>
</g>
<!-- at_contacts_group_flutter&#45;&gt;at_commons -->
<g id="edge48" class="edge">
<title>at_contacts_group_flutter&#45;&gt;at_commons</title>
<path fill="none" stroke="#7eceb0" d="M2406.55,-3238.93C2582.88,-3185.74 3107.75,-3018.32 3212.66,-2880 3324.37,-2732.72 3269.66,-2652.86 3269.66,-2468 3269.66,-2468 3269.66,-2468 3269.66,-887 3269.66,-462.04 2689.25,-194.59 2506.24,-120.83"/>
<polygon fill="#7eceb0" stroke="#7eceb0" points="2507.39,-117.52 2496.81,-117.05 2504.79,-124.02 2507.39,-117.52"/>
</g>
<!-- at_contacts_group_flutter&#45;&gt;at_contact -->
<g id="edge49" class="edge">
<title>at_contacts_group_flutter&#45;&gt;at_contact</title>
<path fill="none" stroke="#250aa2" d="M2319.76,-3238.87C2244.77,-3192.5 2044.74,-3056.1 1971.66,-2880 1915.47,-2744.61 1966.28,-2562.61 1989,-2494.87"/>
<polygon fill="#250aa2" stroke="#250aa2" points="1992.33,-2495.96 1992.26,-2485.37 1985.71,-2493.69 1992.33,-2495.96"/>
</g>
<!-- at_contacts_group_flutter&#45;&gt;at_contacts_flutter -->
<g id="edge50" class="edge">
<title>at_contacts_group_flutter&#45;&gt;at_contacts_flutter</title>
<path fill="none" stroke="#1267b5" d="M2350.89,-3238.86C2358.89,-3177.19 2386.27,-2966.2 2396.11,-2890.4"/>
<polygon fill="#1267b5" stroke="#1267b5" points="2399.61,-2890.6 2397.42,-2880.23 2392.67,-2889.7 2399.61,-2890.6"/>
</g>
<!-- at_contacts_group_flutter&#45;&gt;at_utils -->
<g id="edge51" class="edge">
<title>at_contacts_group_flutter&#45;&gt;at_utils</title>
<path fill="none" stroke="#75e849" d="M2262.8,-3238.96C2103.43,-3202.67 1762.04,-3102.23 1585.66,-2880 1473.6,-2738.81 1514.24,-2664.08 1493.66,-2485 1471.79,-2294.7 1468.89,-2243.95 1493.66,-2054 1514.95,-1890.76 1566.76,-1859.15 1588.66,-1696 1651.25,-1229.74 1610.59,-652.58 1599.98,-521.38"/>
<polygon fill="#75e849" stroke="#75e849" points="1603.44,-520.74 1599.14,-511.06 1596.47,-521.31 1603.44,-520.74"/>
</g>
<!-- at_cram -->
<g id="node14" class="node">
<title>at_cram</title>
<polygon fill="none" stroke="#c89a29" points="2822.66,-3669 2748.66,-3669 2748.66,-3633 2822.66,-3633 2822.66,-3669"/>
<text text-anchor="middle" x="2785.66" y="-3647.3" font-family="Times,serif" font-size="14.00">at_cram</text>
</g>
<!-- at_daemon_cli -->
<g id="node15" class="node">
<title>at_daemon_cli</title>
<polygon fill="none" stroke="#8e17d5" points="389.16,-3669 272.16,-3669 272.16,-3633 389.16,-3633 389.16,-3669"/>
<text text-anchor="middle" x="330.66" y="-3647.3" font-family="Times,serif" font-size="14.00">at_daemon_cli</text>
</g>
<!-- at_daemon_cli&#45;&gt;at_client -->
<g id="edge52" class="edge">
<title>at_daemon_cli&#45;&gt;at_client</title>
<path fill="none" stroke="#61d4fc" d="M389.35,-3646.84C568.36,-3634.07 1113.44,-3571.47 1412.66,-3275 1593.89,-3095.44 1788.32,-2261.63 1824.64,-2100.13"/>
<polygon fill="#61d4fc" stroke="#61d4fc" points="1828.12,-2100.6 1826.89,-2090.08 1821.29,-2099.07 1828.12,-2100.6"/>
</g>
<!-- at_daemon_cli&#45;&gt;at_commons -->
<g id="edge57" class="edge">
<title>at_daemon_cli&#45;&gt;at_commons</title>
<path fill="none" stroke="#7eceb0" d="M310.12,-3632.79C253.44,-3583.88 95.12,-3437.02 34.66,-3275 -29.42,-3103.26 15.66,-3046.31 15.66,-2863 15.66,-2863 15.66,-2863 15.66,-887 15.66,-698.68 -23.51,-602.96 114.66,-475 459.31,-155.82 2052.37,-107.65 2389.06,-101"/>
<polygon fill="#7eceb0" stroke="#7eceb0" points="2389.18,-104.5 2399.11,-100.8 2389.05,-97.5 2389.18,-104.5"/>
</g>
<!-- at_daemon_core -->
<g id="node17" class="node">
<title>at_daemon_core</title>
<polygon fill="none" stroke="#c16272" points="179.16,-2880 48.16,-2880 48.16,-2844 179.16,-2844 179.16,-2880"/>
<text text-anchor="middle" x="113.66" y="-2858.3" font-family="Times,serif" font-size="14.00">at_daemon_core</text>
</g>
<!-- at_daemon_cli&#45;&gt;at_daemon_core -->
<g id="edge54" class="edge">
<title>at_daemon_cli&#45;&gt;at_daemon_core</title>
<path fill="none" stroke="#c16272" d="M323.76,-3632.83C289.97,-3531.81 147.31,-3015.03 118.48,-2890.18"/>
<polygon fill="#c16272" stroke="#c16272" points="121.86,-2889.27 116.25,-2880.28 115.03,-2890.8 121.86,-2889.27"/>
</g>
<!-- at_daemon_cli&#45;&gt;at_daemon_core -->
<g id="edge58" class="edge">
<title>at_daemon_cli&#45;&gt;at_daemon_core</title>
<path fill="none" stroke="#c16272" stroke-dasharray="1,5" d="M328.09,-3632.83C306.15,-3531.71 163.57,-3013.99 123.71,-2889.8"/>
<polygon fill="#c16272" stroke="#c16272" points="127.03,-2888.7 120.6,-2880.28 120.38,-2890.87 127.03,-2888.7"/>
</g>
<!-- at_daemon_server -->
<g id="node19" class="node">
<title>at_daemon_server</title>
<polygon fill="none" stroke="#4bd261" points="403.66,-3275 257.66,-3275 257.66,-3239 403.66,-3239 403.66,-3275"/>
<text text-anchor="middle" x="330.66" y="-3253.3" font-family="Times,serif" font-size="14.00">at_daemon_server</text>
</g>
<!-- at_daemon_cli&#45;&gt;at_daemon_server -->
<g id="edge55" class="edge">
<title>at_daemon_cli&#45;&gt;at_daemon_server</title>
<path fill="none" stroke="#4bd261" d="M327.69,-3632.9C322.89,-3571.39 322.66,-3360.94 327.01,-3285.33"/>
<polygon fill="#4bd261" stroke="#4bd261" points="330.51,-3285.4 327.68,-3275.19 323.53,-3284.93 330.51,-3285.4"/>
</g>
<!-- at_daemon_cli&#45;&gt;at_daemon_server -->
<g id="edge59" class="edge">
<title>at_daemon_cli&#45;&gt;at_daemon_server</title>
<path fill="none" stroke="#4bd261" stroke-dasharray="1,5" d="M333.63,-3632.9C338.43,-3571.39 338.66,-3360.94 334.31,-3285.33"/>
<polygon fill="#4bd261" stroke="#4bd261" points="337.8,-3284.93 333.64,-3275.19 330.81,-3285.4 337.8,-3284.93"/>
</g>
<!-- at_daemon_cli&#45;&gt;at_onboarding_cli -->
<g id="edge53" class="edge">
<title>at_daemon_cli&#45;&gt;at_onboarding_cli</title>
<path fill="none" stroke="#514d2d" d="M388.23,-3632.93C515.18,-3592.35 820.97,-3478.01 985.66,-3275 1082.97,-3155.04 1109.76,-2962.18 1116.54,-2890.76"/>
<polygon fill="#514d2d" stroke="#514d2d" points="1120.06,-2890.64 1117.46,-2880.37 1113.09,-2890.02 1120.06,-2890.64"/>
</g>
<!-- at_daemon_cli&#45;&gt;at_utils -->
<g id="edge56" class="edge">
<title>at_daemon_cli&#45;&gt;at_utils</title>
<path fill="none" stroke="#75e849" d="M351.09,-3632.84C440.38,-3556.4 797.42,-3234.9 923.66,-2880 1073.6,-2458.48 794.13,-1244.66 1038.66,-870 1168.84,-670.54 1445.64,-550.49 1553.41,-509.72"/>
<polygon fill="#75e849" stroke="#75e849" points="1554.86,-512.92 1563,-506.13 1552.41,-506.36 1554.86,-512.92"/>
</g>
<!-- at_daemon_client -->
<g id="node16" class="node">
<title>at_daemon_client</title>
<polygon fill="none" stroke="#dbe812" points="183.66,-3275 43.66,-3275 43.66,-3239 183.66,-3239 183.66,-3275"/>
<text text-anchor="middle" x="113.66" y="-3253.3" font-family="Times,serif" font-size="14.00">at_daemon_client</text>
</g>
<!-- at_daemon_client&#45;&gt;at_daemon_core -->
<g id="edge60" class="edge">
<title>at_daemon_client&#45;&gt;at_daemon_core</title>
<path fill="none" stroke="#c16272" d="M110.69,-3238.86C105.89,-3177.19 105.66,-2966.2 110.01,-2890.4"/>
<polygon fill="#c16272" stroke="#c16272" points="113.51,-2890.44 110.68,-2880.23 106.53,-2889.98 113.51,-2890.44"/>
</g>
<!-- at_daemon_client&#45;&gt;at_daemon_core -->
<g id="edge61" class="edge">
<title>at_daemon_client&#45;&gt;at_daemon_core</title>
<path fill="none" stroke="#c16272" stroke-dasharray="1,5" d="M116.63,-3238.86C121.43,-3177.19 121.66,-2966.2 117.31,-2890.4"/>
<polygon fill="#c16272" stroke="#c16272" points="120.79,-2889.98 116.64,-2880.23 113.81,-2890.44 120.79,-2889.98"/>
</g>
<!-- at_daemon_core&#45;&gt;at_commons -->
<g id="edge63" class="edge">
<title>at_daemon_core&#45;&gt;at_commons</title>
<path fill="none" stroke="#7eceb0" d="M113.81,-2843.81C114.54,-2759.6 117.66,-2382.18 117.66,-2073 117.66,-2073 117.66,-2073 117.66,-887 117.66,-703.52 20.44,-610.94 143.66,-475 455.33,-131.17 2051.19,-102.38 2388.85,-100.15"/>
<polygon fill="#7eceb0" stroke="#7eceb0" points="2388.96,-103.65 2398.94,-100.09 2388.92,-96.65 2388.96,-103.65"/>
</g>
<!-- at_daemon_core&#45;&gt;at_utils -->
<g id="edge62" class="edge">
<title>at_daemon_core&#45;&gt;at_utils</title>
<path fill="none" stroke="#75e849" d="M123.57,-2843.66C192.86,-2721.21 605.18,-1972.04 712.66,-1301 743.02,-1111.48 629.68,-1027.3 739.66,-870 939.42,-584.29 1406.21,-513.43 1552.79,-497.93"/>
<polygon fill="#75e849" stroke="#75e849" points="1553.19,-501.41 1562.78,-496.91 1552.48,-494.44 1553.19,-501.41"/>
</g>
<!-- at_daemon_desktop -->
<g id="node18" class="node">
<title>at_daemon_desktop</title>
<polygon fill="none" stroke="#89d485" points="3243.16,-3669 3086.16,-3669 3086.16,-3633 3243.16,-3633 3243.16,-3669"/>
<text text-anchor="middle" x="3164.66" y="-3647.3" font-family="Times,serif" font-size="14.00">at_daemon_desktop</text>
</g>
<!-- at_daemon_server&#45;&gt;at_client -->
<g id="edge64" class="edge">
<title>at_daemon_server&#45;&gt;at_client</title>
<path fill="none" stroke="#61d4fc" d="M398.91,-3238.95C553.71,-3197.76 938.22,-3081.13 1198.66,-2880 1511.41,-2638.48 1757.1,-2208.8 1816.76,-2099.07"/>
<polygon fill="#61d4fc" stroke="#61d4fc" points="1819.98,-2100.49 1821.65,-2090.03 1813.82,-2097.16 1819.98,-2100.49"/>
</g>
<!-- at_daemon_server&#45;&gt;at_daemon_core -->
<g id="edge65" class="edge">
<title>at_daemon_server&#45;&gt;at_daemon_core</title>
<path fill="none" stroke="#c16272" d="M318.22,-3238.86C279.21,-3176.93 161.69,-2964.47 124.68,-2889.47"/>
<polygon fill="#c16272" stroke="#c16272" points="127.71,-2887.7 120.19,-2880.23 121.41,-2890.75 127.71,-2887.7"/>
</g>
<!-- at_daemon_server&#45;&gt;at_daemon_core -->
<g id="edge68" class="edge">
<title>at_daemon_server&#45;&gt;at_daemon_core</title>
<path fill="none" stroke="#c16272" stroke-dasharray="1,5" d="M324.17,-3238.86C294.73,-3176.81 177.21,-2963.6 131.6,-2889.02"/>
<polygon fill="#c16272" stroke="#c16272" points="134.4,-2886.89 126.15,-2880.23 128.45,-2890.57 134.4,-2886.89"/>
</g>
<!-- at_daemon_server&#45;&gt;at_onboarding_cli -->
<g id="edge67" class="edge">
<title>at_daemon_server&#45;&gt;at_onboarding_cli</title>
<path fill="none" stroke="#514d2d" d="M364.77,-3238.99C491.4,-3175.83 934.41,-2954.89 1075.3,-2884.63"/>
<polygon fill="#514d2d" stroke="#514d2d" points="1077.13,-2887.62 1084.52,-2880.03 1074.01,-2881.36 1077.13,-2887.62"/>
</g>
<!-- at_server_spec -->
<g id="node39" class="node">
<title>at_server_spec</title>
<polygon fill="none" stroke="#e6f023" points="421.66,-1301 299.66,-1301 299.66,-1265 421.66,-1265 421.66,-1301"/>
<text text-anchor="middle" x="360.66" y="-1279.3" font-family="Times,serif" font-size="14.00">at_server_spec</text>
</g>
<!-- at_daemon_server&#45;&gt;at_server_spec -->
<g id="edge66" class="edge">
<title>at_daemon_server&#45;&gt;at_server_spec</title>
<path fill="none" stroke="#e6f023" d="M325.99,-3238.96C303.52,-3155.48 207.66,-2780.92 207.66,-2468 207.66,-2468 207.66,-2468 207.66,-2071 207.66,-1767.52 318.64,-1410.11 351.56,-1310.77"/>
<polygon fill="#e6f023" stroke="#e6f023" points="354.91,-1311.8 354.76,-1301.21 348.27,-1309.58 354.91,-1311.8"/>
</g>
<!-- at_dump_atKeys -->
<g id="node20" class="node">
<title>at_dump_atKeys</title>
<polygon fill="none" stroke="#80b159" points="3517.16,-3669 3384.16,-3669 3384.16,-3633 3517.16,-3633 3517.16,-3669"/>
<text text-anchor="middle" x="3450.66" y="-3647.3" font-family="Times,serif" font-size="14.00">at_dump_atKeys</text>
</g>
<!-- at_pkam -->
<g id="node34" class="node">
<title>at_pkam</title>
<polygon fill="none" stroke="#d549ec" points="3489.16,-3275 3412.16,-3275 3412.16,-3239 3489.16,-3239 3489.16,-3275"/>
<text text-anchor="middle" x="3450.66" y="-3253.3" font-family="Times,serif" font-size="14.00">at_pkam</text>
</g>
<!-- at_dump_atKeys&#45;&gt;at_pkam -->
<g id="edge69" class="edge">
<title>at_dump_atKeys&#45;&gt;at_pkam</title>
<path fill="none" stroke="#d549ec" stroke-dasharray="1,5" d="M3450.66,-3632.9C3450.66,-3571.39 3450.66,-3360.94 3450.66,-3285.33"/>
<polygon fill="#d549ec" stroke="#d549ec" points="3454.16,-3285.19 3450.66,-3275.19 3447.16,-3285.19 3454.16,-3285.19"/>
</g>
<!-- at_events_flutter -->
<g id="node21" class="node">
<title>at_events_flutter</title>
<polygon fill="none" stroke="#5b74f7" points="2512.16,-3669 2375.16,-3669 2375.16,-3633 2512.16,-3633 2512.16,-3669"/>
<text text-anchor="middle" x="2443.66" y="-3647.3" font-family="Times,serif" font-size="14.00">at_events_flutter</text>
</g>
<!-- at_events_flutter&#45;&gt;at_client -->
<g id="edge70" class="edge">
<title>at_events_flutter&#45;&gt;at_client</title>
<path fill="none" stroke="#61d4fc" d="M2415.82,-3632.88C2300.83,-3560.1 1863.99,-3262.51 1757.66,-2880 1715.42,-2728.04 1803.18,-2223.14 1825.62,-2100.18"/>
<polygon fill="#61d4fc" stroke="#61d4fc" points="1829.1,-2100.57 1827.46,-2090.11 1822.22,-2099.31 1829.1,-2100.57"/>
</g>
<!-- at_events_flutter&#45;&gt;at_client_mobile -->
<g id="edge71" class="edge">
<title>at_events_flutter&#45;&gt;at_client_mobile</title>
<path fill="none" stroke="#d9577c" d="M2431.21,-3632.74C2394.83,-3581.29 2288.26,-3423.39 2240.66,-3275 2181.69,-3091.17 2213.63,-3035.16 2186.66,-2844 2168.2,-2713.15 2142.58,-2557.27 2132.25,-2495.33"/>
<polygon fill="#d9577c" stroke="#d9577c" points="2135.66,-2494.5 2130.56,-2485.21 2128.75,-2495.65 2135.66,-2494.5"/>
</g>
<!-- at_events_flutter&#45;&gt;at_common_flutter -->
<g id="edge72" class="edge">
<title>at_events_flutter&#45;&gt;at_common_flutter</title>
<path fill="none" stroke="#bf681f" d="M2461.71,-3632.94C2541.99,-3555.66 2867.42,-3227.07 2975.66,-2880 3019.18,-2740.44 2970.7,-2562.26 2949.04,-2495.17"/>
<polygon fill="#bf681f" stroke="#bf681f" points="2952.26,-2493.78 2945.81,-2485.38 2945.62,-2495.97 2952.26,-2493.78"/>
</g>
<!-- at_events_flutter&#45;&gt;at_commons -->
<g id="edge73" class="edge">
<title>at_events_flutter&#45;&gt;at_commons</title>
<path fill="none" stroke="#7eceb0" d="M2502.46,-3632.93C2708.25,-3569.2 3383.66,-3324.86 3383.66,-2863 3383.66,-2863 3383.66,-2863 3383.66,-887 3383.66,-700.88 3424.12,-620.98 3308.66,-475 3101.63,-213.25 2674.79,-130.09 2514.41,-107.47"/>
<polygon fill="#7eceb0" stroke="#7eceb0" points="2514.62,-103.96 2504.23,-106.06 2513.66,-110.9 2514.62,-103.96"/>
</g>
<!-- at_events_flutter&#45;&gt;at_contact -->
<g id="edge74" class="edge">
<title>at_events_flutter&#45;&gt;at_contact</title>
<path fill="none" stroke="#250aa2" d="M2419.24,-3632.89C2315.39,-3558.45 1909.5,-3249.83 1770.66,-2880 1711.73,-2723.03 1893.57,-2553.13 1968.21,-2491.77"/>
<polygon fill="#250aa2" stroke="#250aa2" points="1970.79,-2494.19 1976.34,-2485.17 1966.37,-2488.76 1970.79,-2494.19"/>
</g>
<!-- at_events_flutter&#45;&gt;at_contacts_flutter -->
<g id="edge75" class="edge">
<title>at_events_flutter&#45;&gt;at_contacts_flutter</title>
<path fill="none" stroke="#1267b5" d="M2460.64,-3632.62C2512.72,-3577.17 2664.11,-3398.67 2620.66,-3239 2580.87,-3092.76 2468.2,-2945.35 2420.94,-2887.99"/>
<polygon fill="#1267b5" stroke="#1267b5" points="2423.54,-2885.65 2414.46,-2880.2 2418.16,-2890.12 2423.54,-2885.65"/>
</g>
<!-- at_events_flutter&#45;&gt;at_contacts_group_flutter -->
<g id="edge76" class="edge">
<title>at_events_flutter&#45;&gt;at_contacts_group_flutter</title>
<path fill="none" stroke="#dae1d2" d="M2439.52,-3632.9C2424.61,-3571.39 2373.61,-3360.94 2355.28,-3285.33"/>
<polygon fill="#dae1d2" stroke="#dae1d2" points="2358.58,-3284.08 2352.83,-3275.19 2351.78,-3285.73 2358.58,-3284.08"/>
</g>
<!-- at_location_flutter -->
<g id="node25" class="node">
<title>at_location_flutter</title>
<polygon fill="none" stroke="#283e9c" points="2611.66,-3275 2465.66,-3275 2465.66,-3239 2611.66,-3239 2611.66,-3275"/>
<text text-anchor="middle" x="2538.66" y="-3253.3" font-family="Times,serif" font-size="14.00">at_location_flutter</text>
</g>
<!-- at_events_flutter&#45;&gt;at_location_flutter -->
<g id="edge77" class="edge">
<title>at_events_flutter&#45;&gt;at_location_flutter</title>
<path fill="none" stroke="#283e9c" d="M2447.8,-3632.9C2462.71,-3571.39 2513.71,-3360.94 2532.04,-3285.33"/>
<polygon fill="#283e9c" stroke="#283e9c" points="2535.54,-3285.73 2534.5,-3275.19 2528.74,-3284.08 2535.54,-3285.73"/>
</g>
<!-- at_events_flutter&#45;&gt;at_lookup -->
<g id="edge78" class="edge">
<title>at_events_flutter&#45;&gt;at_lookup</title>
<path fill="none" stroke="#94d42d" d="M2486.96,-3632.98C2660.4,-3561.74 3292.62,-3271.16 3228.66,-2844 3142.16,-2266.29 2923.39,-2174.74 2588.66,-1696 2486.8,-1550.32 2365.92,-1374.64 2321.32,-1309.72"/>
<polygon fill="#94d42d" stroke="#94d42d" points="2324.09,-1307.57 2315.55,-1301.31 2318.32,-1311.54 2324.09,-1307.57"/>
</g>
<!-- at_events_flutter&#45;&gt;at_utils -->
<g id="edge79" class="edge">
<title>at_events_flutter&#45;&gt;at_utils</title>
<path fill="none" stroke="#75e849" d="M2374.89,-3647.09C2174.13,-3635.17 1580.64,-3575 1224.66,-3275 938.24,-3033.62 981.66,-2842.57 981.66,-2468 981.66,-2468 981.66,-2468 981.66,-1282 981.66,-1095.21 962.67,-1026.49 1064.66,-870 1189.7,-678.15 1449.79,-554.77 1553.54,-511.41"/>
<polygon fill="#75e849" stroke="#75e849" points="1555.18,-514.51 1563.08,-507.46 1552.5,-508.05 1555.18,-514.51"/>
</g>
<!-- at_follows_flutter -->
<g id="node22" class="node">
<title>at_follows_flutter</title>
<polygon fill="none" stroke="#13b24b" points="1919.66,-2880 1779.66,-2880 1779.66,-2844 1919.66,-2844 1919.66,-2880"/>
<text text-anchor="middle" x="1849.66" y="-2858.3" font-family="Times,serif" font-size="14.00">at_follows_flutter</text>
</g>
<!-- at_follows_flutter&#45;&gt;at_client -->
<g id="edge80" class="edge">
<title>at_follows_flutter&#45;&gt;at_client</title>
<path fill="none" stroke="#61d4fc" d="M1849.25,-2843.81C1846.81,-2742.76 1834.36,-2226.27 1831.33,-2100.59"/>
<polygon fill="#61d4fc" stroke="#61d4fc" points="1834.82,-2100.21 1831.08,-2090.3 1827.82,-2100.38 1834.82,-2100.21"/>
</g>
<!-- at_follows_flutter&#45;&gt;at_client_mobile -->
<g id="edge81" class="edge">
<title>at_follows_flutter&#45;&gt;at_client_mobile</title>
<path fill="none" stroke="#d9577c" d="M1861.78,-2843.86C1905.77,-2781.68 2057.11,-2567.74 2109.58,-2493.56"/>
<polygon fill="#d9577c" stroke="#d9577c" points="2112.56,-2495.41 2115.47,-2485.23 2106.84,-2491.37 2112.56,-2495.41"/>
</g>
<!-- at_follows_flutter&#45;&gt;at_commons -->
<g id="edge82" class="edge">
<title>at_follows_flutter&#45;&gt;at_commons</title>
<path fill="none" stroke="#7eceb0" d="M1888.01,-2843.92C1988.72,-2797.67 2265.36,-2661.53 2445.66,-2485 2857.58,-2081.68 2935.66,-1860.49 2935.66,-1284 2935.66,-1284 2935.66,-1284 2935.66,-887 2935.66,-702.98 2980.25,-637.9 2894.66,-475 2801.89,-298.42 2587.71,-170.7 2495.35,-121.86"/>
<polygon fill="#7eceb0" stroke="#7eceb0" points="2496.76,-118.65 2486.28,-117.11 2493.51,-124.85 2496.76,-118.65"/>
</g>
<!-- at_follows_flutter&#45;&gt;at_lookup -->
<g id="edge83" class="edge">
<title>at_follows_flutter&#45;&gt;at_lookup</title>
<path fill="none" stroke="#94d42d" d="M1907.72,-2843.9C2030.38,-2804.24 2313.86,-2693.14 2426.66,-2485 2484.56,-2378.16 2336.62,-1479.3 2308.26,-1311.07"/>
<polygon fill="#94d42d" stroke="#94d42d" points="2311.69,-1310.34 2306.57,-1301.06 2304.79,-1311.5 2311.69,-1310.34"/>
</g>
<!-- at_server_status -->
<g id="node40" class="node">
<title>at_server_status</title>
<polygon fill="none" stroke="#320113" points="915.66,-2485 781.66,-2485 781.66,-2449 915.66,-2449 915.66,-2485"/>
<text text-anchor="middle" x="848.66" y="-2463.3" font-family="Times,serif" font-size="14.00">at_server_status</text>
</g>
<!-- at_follows_flutter&#45;&gt;at_server_status -->
<g id="edge84" class="edge">
<title>at_follows_flutter&#45;&gt;at_server_status</title>
<path fill="none" stroke="#320113" d="M1806.33,-2843.99C1644.75,-2780.55 1077.64,-2557.9 901.36,-2488.69"/>
<polygon fill="#320113" stroke="#320113" points="902.62,-2485.42 892.03,-2485.03 900.06,-2491.94 902.62,-2485.42"/>
</g>
<!-- at_follows_flutter&#45;&gt;at_utils -->
<g id="edge85" class="edge">
<title>at_follows_flutter&#45;&gt;at_utils</title>
<path fill="none" stroke="#75e849" d="M1848.17,-2843.69C1835.74,-2699.91 1747.32,-1688.4 1649.66,-870 1634.04,-739.14 1611.09,-583.26 1601.8,-521.33"/>
<polygon fill="#75e849" stroke="#75e849" points="1605.22,-520.58 1600.27,-511.21 1598.3,-521.62 1605.22,-520.58"/>
</g>
<!-- at_hive_recovery -->
<g id="node23" class="node">
<title>at_hive_recovery</title>
<polygon fill="none" stroke="#f0efbc" points="1337.16,-1696 1200.16,-1696 1200.16,-1660 1337.16,-1660 1337.16,-1696"/>
<text text-anchor="middle" x="1268.66" y="-1674.3" font-family="Times,serif" font-size="14.00">at_hive_recovery</text>
</g>
<!-- at_hive_recovery&#45;&gt;at_persistence_secondary_server -->
<g id="edge86" class="edge">
<title>at_hive_recovery&#45;&gt;at_persistence_secondary_server</title>
<path fill="none" stroke="#9760d3" d="M1269.49,-1659.86C1272.47,-1598.19 1282.67,-1387.2 1286.34,-1311.4"/>
<polygon fill="#9760d3" stroke="#9760d3" points="1289.84,-1311.39 1286.83,-1301.23 1282.85,-1311.05 1289.84,-1311.39"/>
</g>
<!-- at_invitation_flutter -->
<g id="node24" class="node">
<title>at_invitation_flutter</title>
<polygon fill="none" stroke="#b653c9" points="3203.66,-2880 3045.66,-2880 3045.66,-2844 3203.66,-2844 3203.66,-2880"/>
<text text-anchor="middle" x="3124.66" y="-2858.3" font-family="Times,serif" font-size="14.00">at_invitation_flutter</text>
</g>
<!-- at_invitation_flutter&#45;&gt;at_client_mobile -->
<g id="edge87" class="edge">
<title>at_invitation_flutter&#45;&gt;at_client_mobile</title>
<path fill="none" stroke="#d9577c" d="M3081.5,-2843.99C2920.65,-2780.58 2356.29,-2558.12 2180.41,-2488.79"/>
<polygon fill="#d9577c" stroke="#d9577c" points="2181.44,-2485.44 2170.85,-2485.03 2178.87,-2491.95 2181.44,-2485.44"/>
</g>
<!-- at_invitation_flutter&#45;&gt;at_common_flutter -->
<g id="edge88" class="edge">
<title>at_invitation_flutter&#45;&gt;at_common_flutter</title>
<path fill="none" stroke="#bf681f" d="M3116.59,-2843.86C3087.44,-2781.93 2987.43,-2569.47 2952.12,-2494.47"/>
<polygon fill="#bf681f" stroke="#bf681f" points="2955.2,-2492.79 2947.77,-2485.23 2948.86,-2495.77 2955.2,-2492.79"/>
</g>
<!-- at_invitation_flutter&#45;&gt;at_commons -->
<g id="edge89" class="edge">
<title>at_invitation_flutter&#45;&gt;at_commons</title>
<path fill="none" stroke="#7eceb0" d="M3127.28,-2843.86C3139.89,-2759.88 3193.66,-2383.36 3193.66,-2073 3193.66,-2073 3193.66,-2073 3193.66,-887 3193.66,-691.67 3163.44,-626.92 3040.66,-475 2890.4,-289.07 2622.12,-167.07 2506.81,-120.83"/>
<polygon fill="#7eceb0" stroke="#7eceb0" points="2508.04,-117.56 2497.46,-117.11 2505.46,-124.06 2508.04,-117.56"/>
</g>
<!-- at_invitation_flutter&#45;&gt;at_lookup -->
<g id="edge90" class="edge">
<title>at_invitation_flutter&#45;&gt;at_lookup</title>
<path fill="none" stroke="#94d42d" d="M3122.77,-2843.74C3115.93,-2785.65 3089.24,-2592.76 3022.66,-2449 2849.26,-2074.6 2682.61,-2055.24 2479.66,-1696 2401.58,-1557.79 2336.14,-1378.11 2312.81,-1310.91"/>
<polygon fill="#94d42d" stroke="#94d42d" points="2316,-1309.43 2309.43,-1301.11 2309.38,-1311.71 2316,-1309.43"/>
</g>
<!-- at_invitation_flutter&#45;&gt;at_utils -->
<g id="edge91" class="edge">
<title>at_invitation_flutter&#45;&gt;at_utils</title>
<path fill="none" stroke="#75e849" d="M3123.5,-2843.93C3119.15,-2786.42 3101.04,-2595.16 3044.66,-2449 2903.85,-2083.97 2762.06,-2046.73 2588.66,-1696 2413.89,-1342.5 2523.39,-1167.6 2264.66,-870 2084.36,-662.62 1760.31,-544.98 1642.24,-507.38"/>
<polygon fill="#75e849" stroke="#75e849" points="1643.04,-503.96 1632.45,-504.29 1640.94,-510.64 1643.04,-503.96"/>
</g>
<!-- at_location_flutter&#45;&gt;at_client -->
<g id="edge92" class="edge">
<title>at_location_flutter&#45;&gt;at_client</title>
<path fill="none" stroke="#61d4fc" d="M2487.74,-3239C2329.88,-3185.16 1854.29,-3014.06 1770.66,-2880 1749.55,-2846.16 1813.11,-2237.28 1827.73,-2100.24"/>
<polygon fill="#61d4fc" stroke="#61d4fc" points="1831.23,-2100.48 1828.81,-2090.16 1824.27,-2099.73 1831.23,-2100.48"/>
</g>
<!-- at_location_flutter&#45;&gt;at_client_mobile -->
<g id="edge93" class="edge">
<title>at_location_flutter&#45;&gt;at_client_mobile</title>
<path fill="none" stroke="#d9577c" d="M2527.53,-3238.76C2493.73,-3186.1 2390.03,-3022.25 2315.66,-2880 2241.34,-2737.84 2166.07,-2560.59 2138.57,-2494.47"/>
<polygon fill="#d9577c" stroke="#d9577c" points="2141.79,-2493.08 2134.72,-2485.19 2135.32,-2495.77 2141.79,-2493.08"/>
</g>
<!-- at_location_flutter&#45;&gt;at_common_flutter -->
<g id="edge94" class="edge">
<title>at_location_flutter&#45;&gt;at_common_flutter</title>
<path fill="none" stroke="#bf681f" d="M2572.05,-3238.92C2655.9,-3193.86 2874.45,-3062.59 2955.66,-2880 3015.17,-2746.21 2969.36,-2563.18 2948.55,-2495.02"/>
<polygon fill="#bf681f" stroke="#bf681f" points="2951.77,-2493.59 2945.44,-2485.09 2945.09,-2495.68 2951.77,-2493.59"/>
</g>
<!-- at_location_flutter&#45;&gt;at_commons -->
<g id="edge95" class="edge">
<title>at_location_flutter&#45;&gt;at_commons</title>
<path fill="none" stroke="#7eceb0" d="M2611.82,-3243.78C2766.68,-3213.6 3126.26,-3119.82 3283.66,-2880 3384.3,-2726.65 3307.66,-2651.42 3307.66,-2468 3307.66,-2468 3307.66,-2468 3307.66,-887 3307.66,-703.58 3387.65,-626.1 3283.66,-475 3099.09,-206.8 2674.76,-127.55 2514.49,-106.71"/>
<polygon fill="#7eceb0" stroke="#7eceb0" points="2514.69,-103.21 2504.33,-105.42 2513.81,-110.15 2514.69,-103.21"/>
</g>
<!-- at_location_flutter&#45;&gt;at_contact -->
<g id="edge96" class="edge">
<title>at_location_flutter&#45;&gt;at_contact</title>
<path fill="none" stroke="#250aa2" d="M2489.22,-3238.99C2378.26,-3197.8 2110.84,-3081.02 2004.66,-2880 1936.16,-2750.31 1973.54,-2564.08 1991.13,-2495.07"/>
<polygon fill="#250aa2" stroke="#250aa2" points="1994.62,-2495.59 1993.77,-2485.03 1987.85,-2493.81 1994.62,-2495.59"/>
</g>
<!-- at_location_flutter&#45;&gt;at_contacts_flutter -->
<g id="edge97" class="edge">
<title>at_location_flutter&#45;&gt;at_contacts_flutter</title>
<path fill="none" stroke="#1267b5" d="M2532.6,-3238.86C2510.74,-3177.06 2435.86,-2965.34 2409.19,-2889.93"/>
<polygon fill="#1267b5" stroke="#1267b5" points="2412.39,-2888.49 2405.75,-2880.23 2405.79,-2890.82 2412.39,-2888.49"/>
</g>
<!-- at_location_flutter&#45;&gt;at_lookup -->
<g id="edge98" class="edge">
<title>at_location_flutter&#45;&gt;at_lookup</title>
<path fill="none" stroke="#94d42d" d="M2611.87,-3246.72C2797.7,-3219.03 3269.12,-3120.99 3212.66,-2844 3095.25,-2267.97 2869.15,-2193.31 2555.66,-1696 2464.46,-1551.32 2358.62,-1375.65 2319.36,-1310.21"/>
<polygon fill="#94d42d" stroke="#94d42d" points="2322.2,-1308.15 2314.06,-1301.37 2316.2,-1311.75 2322.2,-1308.15"/>
</g>
<!-- at_location_flutter&#45;&gt;at_utils -->
<g id="edge99" class="edge">
<title>at_location_flutter&#45;&gt;at_utils</title>
<path fill="none" stroke="#75e849" d="M2487.89,-3238.92C2329.86,-3184.67 1851.94,-3012.1 1762.66,-2880 1753.95,-2867.11 1616.77,-784.7 1599.45,-521.28"/>
<polygon fill="#75e849" stroke="#75e849" points="1602.93,-520.82 1598.78,-511.07 1595.95,-521.28 1602.93,-520.82"/>
</g>
<!-- at_login_flutter -->
<g id="node26" class="node">
<title>at_login_flutter</title>
<polygon fill="none" stroke="#7ceee7" points="751.16,-2880 626.16,-2880 626.16,-2844 751.16,-2844 751.16,-2880"/>
<text text-anchor="middle" x="688.66" y="-2858.3" font-family="Times,serif" font-size="14.00">at_login_flutter</text>
</g>
<!-- at_login_flutter&#45;&gt;at_client -->
<g id="edge100" class="edge">
<title>at_login_flutter&#45;&gt;at_client</title>
<path fill="none" stroke="#61d4fc" d="M686.72,-2843.98C680.71,-2782.45 668.54,-2568.86 772.66,-2449 1049.07,-2130.8 1613.32,-2081.88 1781.99,-2074.37"/>
<polygon fill="#61d4fc" stroke="#61d4fc" points="1782.21,-2077.86 1792.06,-2073.95 1781.92,-2070.86 1782.21,-2077.86"/>
</g>
<!-- at_login_flutter&#45;&gt;at_client_mobile -->
<g id="edge101" class="edge">
<title>at_login_flutter&#45;&gt;at_client_mobile</title>
<path fill="none" stroke="#d9577c" d="M750.95,-2843.99C984.39,-2780.24 1806.61,-2555.68 2055.65,-2487.67"/>
<polygon fill="#d9577c" stroke="#d9577c" points="2056.59,-2491.04 2065.32,-2485.03 2054.75,-2484.28 2056.59,-2491.04"/>
</g>
<!-- at_login_flutter&#45;&gt;at_commons -->
<g id="edge102" class="edge">
<title>at_login_flutter&#45;&gt;at_commons</title>
<path fill="none" stroke="#7eceb0" d="M682.6,-2843.72C613.82,-2646.06 -10.54,-813.48 365.66,-475 675.85,-195.91 2073.68,-117 2388.54,-102.63"/>
<polygon fill="#7eceb0" stroke="#7eceb0" points="2389.01,-106.11 2398.84,-102.17 2388.7,-99.12 2389.01,-106.11"/>
</g>
<!-- at_login_flutter&#45;&gt;at_server_status -->
<g id="edge103" class="edge">
<title>at_login_flutter&#45;&gt;at_server_status</title>
<path fill="none" stroke="#320113" d="M695.64,-2843.86C720.8,-2782.06 807,-2570.34 837.7,-2494.93"/>
<polygon fill="#320113" stroke="#320113" points="841.12,-2495.81 841.65,-2485.23 834.63,-2493.17 841.12,-2495.81"/>
</g>
<!-- at_login_flutter&#45;&gt;at_utils -->
<g id="edge104" class="edge">
<title>at_login_flutter&#45;&gt;at_utils</title>
<path fill="none" stroke="#75e849" d="M689.67,-2843.96C700.73,-2659.94 800.83,-1044.45 917.66,-870 1074.46,-635.88 1428.09,-533.49 1552.96,-503.73"/>
<polygon fill="#75e849" stroke="#75e849" points="1554,-507.08 1562.94,-501.39 1552.41,-500.27 1554,-507.08"/>
</g>
<!-- at_lookup&#45;&gt;at_chops -->
<g id="edge107" class="edge">
<title>at_lookup&#45;&gt;at_chops</title>
<path fill="none" stroke="#8fb4d4" d="M2289.27,-1264.86C2236.95,-1202.55 2056.68,-987.87 1994.75,-914.11"/>
<polygon fill="#8fb4d4" stroke="#8fb4d4" points="1997.24,-911.64 1988.13,-906.23 1991.88,-916.14 1997.24,-911.64"/>
</g>
<!-- at_lookup&#45;&gt;at_commons -->
<g id="edge106" class="edge">
<title>at_lookup&#45;&gt;at_commons</title>
<path fill="none" stroke="#7eceb0" d="M2305.81,-1264.84C2322.23,-1133.71 2427.72,-291.19 2448.21,-127.52"/>
<polygon fill="#7eceb0" stroke="#7eceb0" points="2451.72,-127.69 2449.49,-117.33 2444.78,-126.82 2451.72,-127.69"/>
</g>
<!-- at_lookup&#45;&gt;at_utils -->
<g id="edge105" class="edge">
<title>at_lookup&#45;&gt;at_utils</title>
<path fill="none" stroke="#75e849" d="M2305.97,-1264.86C2313.13,-1204.67 2329.55,-999.61 2241.66,-870 2090.93,-647.7 1761.58,-538.77 1642.09,-505.45"/>
<polygon fill="#75e849" stroke="#75e849" points="1642.76,-502.01 1632.19,-502.73 1640.9,-508.76 1642.76,-502.01"/>
</g>
<!-- at_notify_flutter -->
<g id="node28" class="node">
<title>at_notify_flutter</title>
<polygon fill="none" stroke="#19e4c3" points="2761.16,-2880 2630.16,-2880 2630.16,-2844 2761.16,-2844 2761.16,-2880"/>
<text text-anchor="middle" x="2695.66" y="-2858.3" font-family="Times,serif" font-size="14.00">at_notify_flutter</text>
</g>
<!-- at_notify_flutter&#45;&gt;at_client -->
<g id="edge108" class="edge">
<title>at_notify_flutter&#45;&gt;at_client</title>
<path fill="none" stroke="#61d4fc" d="M2676.79,-2843.81C2564.87,-2741.85 1988.6,-2216.88 1857.31,-2097.27"/>
<polygon fill="#61d4fc" stroke="#61d4fc" points="1859.4,-2094.45 1849.65,-2090.3 1854.69,-2099.62 1859.4,-2094.45"/>
</g>
<!-- at_notify_flutter&#45;&gt;at_client_mobile -->
<g id="edge109" class="edge">
<title>at_notify_flutter&#45;&gt;at_client_mobile</title>
<path fill="none" stroke="#d9577c" d="M2670.89,-2843.86C2579.91,-2780.91 2264.15,-2562.44 2160.73,-2490.88"/>
<polygon fill="#d9577c" stroke="#d9577c" points="2162.46,-2487.82 2152.24,-2485.01 2158.47,-2493.58 2162.46,-2487.82"/>
</g>
<!-- at_notify_flutter&#45;&gt;at_common_flutter -->
<g id="edge110" class="edge">
<title>at_notify_flutter&#45;&gt;at_common_flutter</title>
<path fill="none" stroke="#bf681f" d="M2706.3,-2843.86C2744.83,-2781.81 2877.2,-2568.6 2923.51,-2494.02"/>
<polygon fill="#bf681f" stroke="#bf681f" points="2926.66,-2495.57 2928.96,-2485.23 2920.72,-2491.88 2926.66,-2495.57"/>
</g>
<!-- at_notify_flutter&#45;&gt;at_commons -->
<g id="edge111" class="edge">
<title>at_notify_flutter&#45;&gt;at_commons</title>
<path fill="none" stroke="#7eceb0" d="M2702.57,-2843.82C2751.99,-2719.41 3049.66,-1942.7 3049.66,-1284 3049.66,-1284 3049.66,-1284 3049.66,-887 3049.66,-702.21 3090.3,-632.51 2993.66,-475 2876.5,-284.04 2621.51,-165.83 2508.05,-120.78"/>
<polygon fill="#7eceb0" stroke="#7eceb0" points="2509.09,-117.43 2498.5,-117.03 2506.53,-123.94 2509.09,-117.43"/>
</g>
<!-- at_onboarding_cli&#45;&gt;at_auth -->
<g id="edge112" class="edge">
<title>at_onboarding_cli&#45;&gt;at_auth</title>
<path fill="none" stroke="#0f9477" d="M1120.08,-2843.79C1129.6,-2728.38 1184.27,-2071.09 1195.66,-2054 1277.52,-1931.2 1711.32,-1752.58 1853.5,-1696.51"/>
<polygon fill="#0f9477" stroke="#0f9477" points="1855.2,-1699.6 1863.22,-1692.69 1852.63,-1693.09 1855.2,-1699.6"/>
</g>
<!-- at_onboarding_cli&#45;&gt;at_chops -->
<g id="edge113" class="edge">
<title>at_onboarding_cli&#45;&gt;at_chops</title>
<path fill="none" stroke="#8fb4d4" d="M1118.35,-2843.89C1116.75,-2740.52 1112.02,-2198.91 1185.66,-2054 1294.2,-1840.42 1444.67,-1887.47 1588.66,-1696 1794.08,-1422.85 1930.93,-1022.63 1965.22,-915.95"/>
<polygon fill="#8fb4d4" stroke="#8fb4d4" points="1968.6,-916.88 1968.3,-906.28 1961.93,-914.75 1968.6,-916.88"/>
</g>
<!-- at_onboarding_cli&#45;&gt;at_cli_commons -->
<g id="edge119" class="edge">
<title>at_onboarding_cli&#45;&gt;at_cli_commons</title>
<path fill="none" stroke="#c99192" d="M1123.67,-2843.86C1147.69,-2781.93 1246.41,-2569.47 1285.73,-2494.47"/>
<polygon fill="#c99192" stroke="#c99192" points="1289.05,-2495.7 1290.66,-2485.23 1282.87,-2492.41 1289.05,-2495.7"/>
</g>
<!-- at_onboarding_cli&#45;&gt;at_client -->
<g id="edge114" class="edge">
<title>at_onboarding_cli&#45;&gt;at_client</title>
<path fill="none" stroke="#61d4fc" d="M1134.19,-2843.81C1226.14,-2742.05 1698.77,-2218.97 1808.08,-2097.99"/>
<polygon fill="#61d4fc" stroke="#61d4fc" points="1810.92,-2100.07 1815.03,-2090.3 1805.73,-2095.38 1810.92,-2100.07"/>
</g>
<!-- at_onboarding_cli&#45;&gt;at_commons -->
<g id="edge115" class="edge">
<title>at_onboarding_cli&#45;&gt;at_commons</title>
<path fill="none" stroke="#7eceb0" d="M1098.41,-2843.82C1040.54,-2793.83 872.2,-2641.94 772.66,-2485 468.35,-2005.21 399.8,-1858.57 290.66,-1301 287.59,-1285.3 290.46,-1281 290.66,-1265 295.15,-910.41 143.08,-716.61 402.66,-475 702.69,-195.75 2077.86,-117.02 2388.97,-102.64"/>
<polygon fill="#7eceb0" stroke="#7eceb0" points="2389.33,-106.13 2399.16,-102.18 2389.01,-99.14 2389.33,-106.13"/>
</g>
<!-- at_onboarding_cli&#45;&gt;at_lookup -->
<g id="edge116" class="edge">
<title>at_onboarding_cli&#45;&gt;at_lookup</title>
<path fill="none" stroke="#94d42d" d="M1120.2,-2843.78C1126.08,-2785.01 1150.8,-2588.25 1228.66,-2449 1453.75,-2046.46 1631.97,-2036.84 1942.66,-1696 2074.45,-1551.43 2227.53,-1373.18 2282.59,-1308.72"/>
<polygon fill="#94d42d" stroke="#94d42d" points="2285.28,-1310.96 2289.11,-1301.09 2279.96,-1306.42 2285.28,-1310.96"/>
</g>
<!-- at_onboarding_cli&#45;&gt;at_persistence_secondary_server -->
<g id="edge120" class="edge">
<title>at_onboarding_cli&#45;&gt;at_persistence_secondary_server</title>
<path fill="none" stroke="#9760d3" d="M1117.56,-2843.91C1112.32,-2758.57 1091.21,-2370.06 1119.66,-2054 1135.61,-1876.78 1152.63,-1833.82 1190.66,-1660 1219.54,-1528.02 1262.65,-1372.25 1280.01,-1310.82"/>
<polygon fill="#9760d3" stroke="#9760d3" points="1283.4,-1311.71 1282.76,-1301.13 1276.66,-1309.8 1283.4,-1311.71"/>
</g>
<!-- at_onboarding_cli&#45;&gt;at_server_status -->
<g id="edge117" class="edge">
<title>at_onboarding_cli&#45;&gt;at_server_status</title>
<path fill="none" stroke="#320113" d="M1106.89,-2843.86C1064.17,-2781.68 917.18,-2567.74 866.22,-2493.56"/>
<polygon fill="#320113" stroke="#320113" points="869.05,-2491.49 860.5,-2485.23 863.28,-2495.45 869.05,-2491.49"/>
</g>
<!-- at_onboarding_cli&#45;&gt;at_utils -->
<g id="edge118" class="edge">
<title>at_onboarding_cli&#45;&gt;at_utils</title>
<path fill="none" stroke="#75e849" d="M1116.34,-2843.85C1105.2,-2759.82 1057.66,-2383.11 1057.66,-2073 1057.66,-2073 1057.66,-2073 1057.66,-1282 1057.66,-1097.8 1011.94,-1030.31 1102.66,-870 1209.51,-681.2 1453.76,-557.07 1553.75,-512.46"/>
<polygon fill="#75e849" stroke="#75e849" points="1555.23,-515.63 1562.97,-508.39 1552.41,-509.22 1555.23,-515.63"/>
</g>
<!-- at_onboarding_flutter -->
<g id="node30" class="node">
<title>at_onboarding_flutter</title>
<polygon fill="none" stroke="#a801a6" points="1403.66,-3275 1233.66,-3275 1233.66,-3239 1403.66,-3239 1403.66,-3275"/>
<text text-anchor="middle" x="1318.66" y="-3253.3" font-family="Times,serif" font-size="14.00">at_onboarding_flutter</text>
</g>
<!-- at_onboarding_flutter&#45;&gt;at_auth -->
<g id="edge128" class="edge">
<title>at_onboarding_flutter&#45;&gt;at_auth</title>
<path fill="none" stroke="#0f9477" d="M1316.01,-3238.8C1307.79,-3181.65 1285.28,-2993.29 1320.66,-2844 1437.75,-2349.96 1795.12,-1824.94 1880.3,-1704.57"/>
<polygon fill="#0f9477" stroke="#0f9477" points="1883.23,-1706.48 1886.17,-1696.3 1877.53,-1702.43 1883.23,-1706.48"/>
</g>
<!-- at_onboarding_flutter&#45;&gt;at_backupkey_flutter -->
<g id="edge121" class="edge">
<title>at_onboarding_flutter&#45;&gt;at_backupkey_flutter</title>
<path fill="none" stroke="#590b92" d="M1322.76,-3238.86C1337.51,-3177.19 1387.98,-2966.2 1406.11,-2890.4"/>
<polygon fill="#590b92" stroke="#590b92" points="1409.62,-2890.77 1408.54,-2880.23 1402.81,-2889.14 1409.62,-2890.77"/>
</g>
<!-- at_onboarding_flutter&#45;&gt;at_client -->
<g id="edge122" class="edge">
<title>at_onboarding_flutter&#45;&gt;at_client</title>
<path fill="none" stroke="#61d4fc" d="M1327.46,-3238.91C1354.6,-3186.01 1439.11,-3020.07 1503.66,-2880 1583.65,-2706.42 1601.84,-2662.12 1673.66,-2485 1732.09,-2340.91 1796.65,-2166.08 1820.82,-2100.02"/>
<polygon fill="#61d4fc" stroke="#61d4fc" points="1824.2,-2100.97 1824.34,-2090.37 1817.62,-2098.56 1824.2,-2100.97"/>
</g>
<!-- at_onboarding_flutter&#45;&gt;at_client_mobile -->
<g id="edge123" class="edge">
<title>at_onboarding_flutter&#45;&gt;at_client_mobile</title>
<path fill="none" stroke="#d9577c" d="M1403.91,-3247.77C1582.08,-3225.44 1991.68,-3146.17 2164.66,-2880 2245.41,-2755.74 2171.94,-2564.11 2140.41,-2494.46"/>
<polygon fill="#d9577c" stroke="#d9577c" points="2143.45,-2492.7 2136.08,-2485.09 2137.1,-2495.63 2143.45,-2492.7"/>
</g>
<!-- at_onboarding_flutter&#45;&gt;at_commons -->
<g id="edge124" class="edge">
<title>at_onboarding_flutter&#45;&gt;at_commons</title>
<path fill="none" stroke="#7eceb0" d="M1247.34,-3238.98C1104.04,-3200.93 780.87,-3094.91 616.66,-2880 74.53,-2170.46 275.37,-1798.34 242.66,-906 235.49,-710.44 190.95,-609.95 332.66,-475 639.8,-182.52 2068.92,-113.87 2388.26,-102.08"/>
<polygon fill="#7eceb0" stroke="#7eceb0" points="2388.84,-105.56 2398.71,-101.7 2388.59,-98.57 2388.84,-105.56"/>
</g>
<!-- at_onboarding_flutter&#45;&gt;at_server_status -->
<g id="edge125" class="edge">
<title>at_onboarding_flutter&#45;&gt;at_server_status</title>
<path fill="none" stroke="#320113" d="M1270.67,-3238.85C1162.35,-3197.18 900.42,-3079.16 798.66,-2880 731.32,-2748.21 804.23,-2562.68 835.68,-2494.48"/>
<polygon fill="#320113" stroke="#320113" points="838.91,-2495.83 840,-2485.29 832.58,-2492.85 838.91,-2495.83"/>
</g>
<!-- at_sync_ui_flutter -->
<g id="node41" class="node">
<title>at_sync_ui_flutter</title>
<polygon fill="none" stroke="#27d02d" points="2155.66,-2880 2013.66,-2880 2013.66,-2844 2155.66,-2844 2155.66,-2880"/>
<text text-anchor="middle" x="2084.66" y="-2858.3" font-family="Times,serif" font-size="14.00">at_sync_ui_flutter</text>
</g>
<!-- at_onboarding_flutter&#45;&gt;at_sync_ui_flutter -->
<g id="edge126" class="edge">
<title>at_onboarding_flutter&#45;&gt;at_sync_ui_flutter</title>
<path fill="none" stroke="#27d02d" d="M1352.07,-3238.86C1475.5,-3175.53 1905.74,-2954.79 2042.55,-2884.6"/>
<polygon fill="#27d02d" stroke="#27d02d" points="2044.21,-2887.69 2051.51,-2880.01 2041.02,-2881.46 2044.21,-2887.69"/>
</g>
<!-- at_onboarding_flutter&#45;&gt;at_utils -->
<g id="edge127" class="edge">
<title>at_onboarding_flutter&#45;&gt;at_utils</title>
<path fill="none" stroke="#75e849" d="M1299.6,-3238.83C1246.3,-3189.43 1095.88,-3040.19 1038.66,-2880 977,-2707.38 1019.66,-2651.31 1019.66,-2468 1019.66,-2468 1019.66,-2468 1019.66,-1282 1019.66,-1096.62 988.18,-1028.29 1084.66,-870 1200.46,-680.01 1451.79,-556.16 1553.55,-512.04"/>
<polygon fill="#75e849" stroke="#75e849" points="1555.12,-515.17 1562.93,-508.01 1552.36,-508.74 1555.12,-515.17"/>
</g>
<!-- at_persistence_root_server -->
<g id="node31" class="node">
<title>at_persistence_root_server</title>
<polygon fill="none" stroke="#831d2e" points="687.16,-1301 478.16,-1301 478.16,-1265 687.16,-1265 687.16,-1301"/>
<text text-anchor="middle" x="582.66" y="-1279.3" font-family="Times,serif" font-size="14.00">at_persistence_root_server</text>
</g>
<!-- at_persistence_root_server&#45;&gt;at_commons -->
<g id="edge129" class="edge">
<title>at_persistence_root_server&#45;&gt;at_commons</title>
<path fill="none" stroke="#7eceb0" d="M577.12,-1264.75C559.57,-1207.45 508.68,-1018.67 548.66,-870 601.36,-674.04 614.04,-595.03 777.66,-475 1045.43,-278.58 2117,-139.8 2388.76,-107.29"/>
<polygon fill="#7eceb0" stroke="#7eceb0" points="2389.33,-110.75 2398.84,-106.09 2388.5,-103.8 2389.33,-110.75"/>
</g>
<!-- at_persistence_root_server&#45;&gt;at_persistence_spec -->
<g id="edge131" class="edge">
<title>at_persistence_root_server&#45;&gt;at_persistence_spec</title>
<path fill="none" stroke="#3bfcef" d="M618.33,-1264.99C750.88,-1201.77 1214.92,-980.45 1361.76,-910.42"/>
<polygon fill="#3bfcef" stroke="#3bfcef" points="1363.44,-913.49 1370.96,-906.03 1360.43,-907.17 1363.44,-913.49"/>
</g>
<!-- at_persistence_root_server&#45;&gt;at_utils -->
<g id="edge130" class="edge">
<title>at_persistence_root_server&#45;&gt;at_utils</title>
<path fill="none" stroke="#75e849" d="M580.71,-1264.71C574.74,-1203.17 562.83,-991.89 663.66,-870 903.57,-579.97 1400.71,-511.82 1552.6,-497.49"/>
<polygon fill="#75e849" stroke="#75e849" points="1553.29,-500.95 1562.93,-496.55 1552.66,-493.97 1553.29,-500.95"/>
</g>
<!-- redis -->
<g id="node47" class="node">
<title>redis</title>
<polygon fill="none" stroke="#5cceca" points="611.66,-906 557.66,-906 557.66,-870 611.66,-870 611.66,-906"/>
<text text-anchor="middle" x="584.66" y="-884.3" font-family="Times,serif" font-size="14.00">redis</text>
</g>
<!-- at_persistence_root_server&#45;&gt;redis -->
<g id="edge132" class="edge">
<title>at_persistence_root_server&#45;&gt;redis</title>
<path fill="none" stroke="#5cceca" d="M582.75,-1264.86C583.06,-1203.19 584.14,-992.2 584.52,-916.4"/>
<polygon fill="#5cceca" stroke="#5cceca" points="588.02,-916.25 584.57,-906.23 581.02,-916.21 588.02,-916.25"/>
</g>
<!-- at_persistence_secondary_server&#45;&gt;at_commons -->
<g id="edge133" class="edge">
<title>at_persistence_secondary_server&#45;&gt;at_commons</title>
<path fill="none" stroke="#7eceb0" d="M1285.7,-1264.73C1279.74,-1207.39 1264.52,-1018.47 1303.66,-870 1354.03,-678.94 1361.23,-607.66 1507.66,-475 1777.28,-230.73 2225.41,-136.63 2389.23,-109.29"/>
<polygon fill="#7eceb0" stroke="#7eceb0" points="2389.85,-112.74 2399.15,-107.66 2388.71,-105.83 2389.85,-112.74"/>
</g>
<!-- at_persistence_secondary_server&#45;&gt;at_persistence_spec -->
<g id="edge135" class="edge">
<title>at_persistence_secondary_server&#45;&gt;at_persistence_spec</title>
<path fill="none" stroke="#3bfcef" d="M1292.85,-1264.86C1311.56,-1203.06 1375.67,-991.34 1398.51,-915.93"/>
<polygon fill="#3bfcef" stroke="#3bfcef" points="1401.9,-916.81 1401.44,-906.23 1395.2,-914.79 1401.9,-916.81"/>
</g>
<!-- at_persistence_secondary_server&#45;&gt;at_utils -->
<g id="edge134" class="edge">
<title>at_persistence_secondary_server&#45;&gt;at_utils</title>
<path fill="none" stroke="#75e849" d="M1285.58,-1264.8C1279.27,-1206.89 1263.86,-1014.5 1317.66,-870 1374.46,-717.43 1513.43,-573.74 1571.5,-518.19"/>
<polygon fill="#75e849" stroke="#75e849" points="1573.97,-520.67 1578.81,-511.25 1569.15,-515.59 1573.97,-520.67"/>
</g>
<!-- at_repl -->
<g id="node35" class="node">
<title>at_repl</title>
<polygon fill="none" stroke="#1494d0" points="976.66,-3275 910.66,-3275 910.66,-3239 976.66,-3239 976.66,-3275"/>
<text text-anchor="middle" x="943.66" y="-3253.3" font-family="Times,serif" font-size="14.00">at_repl</text>
</g>
<!-- at_repl&#45;&gt;at_client -->
<g id="edge136" class="edge">
<title>at_repl&#45;&gt;at_client</title>
<path fill="none" stroke="#61d4fc" d="M959.35,-3238.8C1059.56,-3128.94 1606.72,-2528.53 1635.66,-2485 1725.47,-2349.92 1796.48,-2167.02 1821.21,-2099.48"/>
<polygon fill="#61d4fc" stroke="#61d4fc" points="1824.53,-2100.6 1824.65,-2090.01 1817.95,-2098.21 1824.53,-2100.6"/>
</g>
<!-- at_repl&#45;&gt;at_commons -->
<g id="edge137" class="edge">
<title>at_repl&#45;&gt;at_commons</title>
<path fill="none" stroke="#7eceb0" d="M925.22,-3238.76C870.8,-3187.39 707.68,-3029.58 594.66,-2880 470.82,-2716.11 436.32,-2673.49 354.66,-2485 177.03,-2074.96 -16.12,-795.12 295.66,-475 597.22,-165.36 2065.85,-109.9 2388.78,-101.39"/>
<polygon fill="#7eceb0" stroke="#7eceb0" points="2388.99,-104.89 2398.89,-101.13 2388.81,-97.89 2388.99,-104.89"/>
</g>
<!-- at_repl&#45;&gt;at_onboarding_cli -->
<g id="edge138" class="edge">
<title>at_repl&#45;&gt;at_onboarding_cli</title>
<path fill="none" stroke="#514d2d" d="M951.29,-3238.86C978.87,-3176.93 1073.48,-2964.47 1106.87,-2889.47"/>
<polygon fill="#514d2d" stroke="#514d2d" points="1110.12,-2890.79 1110.99,-2880.23 1103.72,-2887.94 1110.12,-2890.79"/>
</g>
<!-- at_repl&#45;&gt;at_utils -->
<g id="edge139" class="edge">
<title>at_repl&#45;&gt;at_utils</title>
<path fill="none" stroke="#75e849" d="M919.67,-3238.73C855.32,-3190.73 679.55,-3048.13 616.66,-2880 611.06,-2865.01 615.62,-2859.97 616.66,-2844 645.38,-2401.87 634.98,-1227.52 896.66,-870 1067.23,-636.95 1426.9,-533.75 1552.91,-503.76"/>
<polygon fill="#75e849" stroke="#75e849" points="1554.03,-507.09 1562.97,-501.41 1552.44,-500.28 1554.03,-507.09"/>
</g>
<!-- at_root_server -->
<g id="node36" class="node">
<title>at_root_server</title>
<polygon fill="none" stroke="#9dd431" points="601.16,-1696 482.16,-1696 482.16,-1660 601.16,-1660 601.16,-1696"/>
<text text-anchor="middle" x="541.66" y="-1674.3" font-family="Times,serif" font-size="14.00">at_root_server</text>
</g>
<!-- at_root_server&#45;&gt;at_commons -->
<g id="edge140" class="edge">
<title>at_root_server&#45;&gt;at_commons</title>
<path fill="none" stroke="#7eceb0" d="M537.13,-1659.93C523.36,-1607.09 482.16,-1441.33 468.66,-1301 431.8,-917.77 427.27,-713.3 729.66,-475 998.21,-263.37 2110.39,-135.44 2388.44,-106.36"/>
<polygon fill="#7eceb0" stroke="#7eceb0" points="2389.16,-109.81 2398.74,-105.29 2388.44,-102.85 2389.16,-109.81"/>
</g>
<!-- at_root_server&#45;&gt;at_persistence_root_server -->
<g id="edge143" class="edge">
<title>at_root_server&#45;&gt;at_persistence_root_server</title>
<path fill="none" stroke="#831d2e" d="M543.45,-1659.86C549.88,-1598.19 571.89,-1387.2 579.8,-1311.4"/>
<polygon fill="#831d2e" stroke="#831d2e" points="583.31,-1311.54 580.86,-1301.23 576.34,-1310.81 583.31,-1311.54"/>
</g>
<!-- at_root_server&#45;&gt;at_server_spec -->
<g id="edge142" class="edge">
<title>at_root_server&#45;&gt;at_server_spec</title>
<path fill="none" stroke="#e6f023" d="M533.77,-1659.86C505.25,-1597.93 407.39,-1385.47 372.85,-1310.47"/>
<polygon fill="#e6f023" stroke="#e6f023" points="375.96,-1308.85 368.6,-1301.23 369.6,-1311.78 375.96,-1308.85"/>
</g>
<!-- at_root_server&#45;&gt;at_utils -->
<g id="edge141" class="edge">
<title>at_root_server&#45;&gt;at_utils</title>
<path fill="none" stroke="#75e849" d="M551.5,-1659.75C580.58,-1607.7 665.9,-1446.83 695.66,-1301 733.97,-1113.3 594.49,-1028.79 701.66,-870 904.88,-568.9 1400.16,-508.31 1552.4,-496.66"/>
<polygon fill="#75e849" stroke="#75e849" points="1553.04,-500.12 1562.75,-495.9 1552.53,-493.14 1553.04,-500.12"/>
</g>
<!-- at_secondary -->
<g id="node37" class="node">
<title>at_secondary</title>
<polygon fill="none" stroke="#1b8948" points="1579.66,-1696 1469.66,-1696 1469.66,-1660 1579.66,-1660 1579.66,-1696"/>
<text text-anchor="middle" x="1524.66" y="-1674.3" font-family="Times,serif" font-size="14.00">at_secondary</text>
</g>
<!-- at_secondary&#45;&gt;at_chops -->
<g id="edge146" class="edge">
<title>at_secondary&#45;&gt;at_chops</title>
<path fill="none" stroke="#8fb4d4" d="M1534.46,-1659.81C1592.26,-1558.36 1888.7,-1038.1 1958.79,-915.09"/>
<polygon fill="#8fb4d4" stroke="#8fb4d4" points="1961.89,-916.72 1963.8,-906.3 1955.81,-913.26 1961.89,-916.72"/>
</g>
<!-- at_secondary&#45;&gt;at_commons -->
<g id="edge144" class="edge">
<title>at_secondary&#45;&gt;at_commons</title>
<path fill="none" stroke="#7eceb0" d="M1523.96,-1659.81C1518.44,-1520.35 1483.86,-577.1 1553.66,-475 1751.76,-185.24 2219.75,-118.81 2389.11,-104.06"/>
<polygon fill="#7eceb0" stroke="#7eceb0" points="2389.44,-107.55 2399.11,-103.22 2388.85,-100.57 2389.44,-107.55"/>
</g>
<!-- at_secondary&#45;&gt;at_lookup -->
<g id="edge147" class="edge">
<title>at_secondary&#45;&gt;at_lookup</title>
<path fill="none" stroke="#94d42d" d="M1558.38,-1659.99C1683.56,-1596.83 2121.52,-1375.89 2260.79,-1305.63"/>
<polygon fill="#94d42d" stroke="#94d42d" points="2262.56,-1308.66 2269.91,-1301.03 2259.41,-1302.41 2262.56,-1308.66"/>
</g>
<!-- at_secondary&#45;&gt;at_persistence_secondary_server -->
<g id="edge150" class="edge">
<title>at_secondary&#45;&gt;at_persistence_secondary_server</title>
<path fill="none" stroke="#9760d3" d="M1514.32,-1659.86C1476.9,-1597.81 1348.33,-1384.6 1303.35,-1310.02"/>
<polygon fill="#9760d3" stroke="#9760d3" points="1306.21,-1307.99 1298.05,-1301.23 1300.22,-1311.6 1306.21,-1307.99"/>
</g>
<!-- at_secondary&#45;&gt;at_persistence_spec -->
<g id="edge149" class="edge">
<title>at_secondary&#45;&gt;at_persistence_spec</title>
<path fill="none" stroke="#3bfcef" d="M1522.09,-1659.81C1506.94,-1558.66 1429.46,-1041.23 1410.74,-916.21"/>
<polygon fill="#3bfcef" stroke="#3bfcef" points="1414.19,-915.67 1409.25,-906.3 1407.27,-916.71 1414.19,-915.67"/>
</g>
<!-- at_secondary&#45;&gt;at_server_spec -->
<g id="edge148" class="edge">
<title>at_secondary&#45;&gt;at_server_spec</title>
<path fill="none" stroke="#e6f023" d="M1474.27,-1659.99C1286.01,-1596.42 624.3,-1373.01 420.72,-1304.28"/>
<polygon fill="#e6f023" stroke="#e6f023" points="421.68,-1300.91 411.09,-1301.03 419.44,-1307.54 421.68,-1300.91"/>
</g>
<!-- at_secondary&#45;&gt;at_utils -->
<g id="edge145" class="edge">
<title>at_secondary&#45;&gt;at_utils</title>
<path fill="none" stroke="#75e849" d="M1525.72,-1659.82C1533.82,-1528.58 1585.85,-685.35 1595.96,-521.55"/>
<polygon fill="#75e849" stroke="#75e849" points="1599.47,-521.55 1596.59,-511.35 1592.48,-521.11 1599.47,-521.55"/>
</g>
<!-- at_secondary_proxy -->
<g id="node38" class="node">
<title>at_secondary_proxy</title>
<polygon fill="none" stroke="#35c7f7" points="2755.66,-1696 2597.66,-1696 2597.66,-1660 2755.66,-1660 2755.66,-1696"/>
<text text-anchor="middle" x="2676.66" y="-1674.3" font-family="Times,serif" font-size="14.00">at_secondary_proxy</text>
</g>
<!-- at_secondary_proxy&#45;&gt;at_commons -->
<g id="edge151" class="edge">
<title>at_secondary_proxy&#45;&gt;at_commons</title>
<path fill="none" stroke="#7eceb0" d="M2675.85,-1659.68C2673.1,-1602.91 2663.17,-1417.41 2644.66,-1265 2589.07,-807.2 2482.16,-254.44 2457.04,-127.06"/>
<polygon fill="#7eceb0" stroke="#7eceb0" points="2460.43,-126.15 2455.05,-117.02 2453.56,-127.51 2460.43,-126.15"/>
</g>
<!-- at_secondary_proxy&#45;&gt;at_lookup -->
<g id="edge153" class="edge">
<title>at_secondary_proxy&#45;&gt;at_lookup</title>
<path fill="none" stroke="#94d42d" d="M2660.39,-1659.86C2601.14,-1597.43 2396.67,-1381.99 2327.07,-1308.67"/>
<polygon fill="#94d42d" stroke="#94d42d" points="2329.44,-1306.07 2320.01,-1301.23 2324.36,-1310.89 2329.44,-1306.07"/>
</g>
<!-- at_secondary_proxy&#45;&gt;at_utils -->
<g id="edge152" class="edge">
<title>at_secondary_proxy&#45;&gt;at_utils</title>
<path fill="none" stroke="#75e849" d="M2674.9,-1659.83C2663.35,-1548.77 2597.4,-934.37 2545.66,-870 2306.02,-571.87 1795.72,-509.15 1642.24,-496.83"/>
<polygon fill="#75e849" stroke="#75e849" points="1642.47,-493.34 1632.23,-496.06 1641.93,-500.32 1642.47,-493.34"/>
</g>
<!-- at_server_spec&#45;&gt;at_commons -->
<g id="edge154" class="edge">
<title>at_server_spec&#45;&gt;at_commons</title>
<path fill="none" stroke="#7eceb0" d="M355.74,-1264.91C329.83,-1170.95 218.44,-713 435.66,-475 707.51,-177.14 2077.07,-112.79 2388.56,-101.92"/>
<polygon fill="#7eceb0" stroke="#7eceb0" points="2388.89,-105.41 2398.76,-101.57 2388.65,-98.42 2388.89,-105.41"/>
</g>
<!-- at_server_status&#45;&gt;at_commons -->
<g id="edge155" class="edge">
<title>at_server_status&#45;&gt;at_commons</title>
<path fill="none" stroke="#7eceb0" d="M845.39,-2448.7C825.25,-2338.25 724.18,-1721.79 885.66,-1265 1031.19,-853.33 1121.93,-739.07 1469.66,-475 1769.5,-247.3 2223.82,-143.06 2388.91,-111.17"/>
<polygon fill="#7eceb0" stroke="#7eceb0" points="2389.73,-114.57 2398.9,-109.26 2388.42,-107.7 2389.73,-114.57"/>
</g>
<!-- at_server_status&#45;&gt;at_lookup -->
<g id="edge157" class="edge">
<title>at_server_status&#45;&gt;at_lookup</title>
<path fill="none" stroke="#94d42d" d="M860.02,-2448.87C899.86,-2389.56 1038.82,-2189.2 1185.66,-2054 1564.79,-1704.92 2111.96,-1390.38 2263.46,-1306.07"/>
<polygon fill="#94d42d" stroke="#94d42d" points="2265.41,-1309 2272.46,-1301.08 2262.01,-1302.88 2265.41,-1309"/>
</g>
<!-- at_server_status&#45;&gt;at_utils -->
<g id="edge156" class="edge">
<title>at_server_status&#45;&gt;at_utils</title>
<path fill="none" stroke="#75e849" d="M849.06,-2448.91C852.99,-2281.58 885.84,-940.76 929.66,-870 1076,-633.66 1428.25,-532.68 1552.97,-503.51"/>
<polygon fill="#75e849" stroke="#75e849" points="1553.98,-506.87 1562.94,-501.21 1552.41,-500.04 1553.98,-506.87"/>
</g>
<!-- at_sync_ui_flutter&#45;&gt;at_client -->
<g id="edge158" class="edge">
<title>at_sync_ui_flutter&#45;&gt;at_client</title>
<path fill="none" stroke="#61d4fc" d="M2075.03,-2843.97C2046,-2791.92 1958.41,-2629.61 1911.66,-2485 1866.1,-2344.06 1841.84,-2167.3 1833.76,-2100.37"/>
<polygon fill="#61d4fc" stroke="#61d4fc" points="1837.22,-2099.76 1832.56,-2090.24 1830.26,-2100.58 1837.22,-2099.76"/>
</g>
<!-- at_sync_ui_flutter&#45;&gt;at_client_mobile -->
<g id="edge159" class="edge">
<title>at_sync_ui_flutter&#45;&gt;at_client_mobile</title>
<path fill="none" stroke="#d9577c" d="M2086.54,-2843.86C2093.28,-2782.19 2116.37,-2571.2 2124.66,-2495.4"/>
<polygon fill="#d9577c" stroke="#d9577c" points="2128.17,-2495.55 2125.78,-2485.23 2121.21,-2494.79 2128.17,-2495.55"/>
</g>
<!-- at_sync_ui_flutter&#45;&gt;at_common_flutter -->
<g id="edge160" class="edge">
<title>at_sync_ui_flutter&#45;&gt;at_common_flutter</title>
<path fill="none" stroke="#bf681f" d="M2121.67,-2843.99C2259.34,-2780.71 2741.67,-2559.01 2893.52,-2489.21"/>
<polygon fill="#bf681f" stroke="#bf681f" points="2894.99,-2492.38 2902.62,-2485.03 2892.07,-2486.02 2894.99,-2492.38"/>
</g>
<!-- at_theme_flutter -->
<g id="node42" class="node">
<title>at_theme_flutter</title>
<polygon fill="none" stroke="#2ec850" points="2913.66,-2880 2779.66,-2880 2779.66,-2844 2913.66,-2844 2913.66,-2880"/>
<text text-anchor="middle" x="2846.66" y="-2858.3" font-family="Times,serif" font-size="14.00">at_theme_flutter</text>
</g>
<!-- at_theme_flutter&#45;&gt;at_client_mobile -->
<g id="edge161" class="edge">
<title>at_theme_flutter&#45;&gt;at_client_mobile</title>
<path fill="none" stroke="#d9577c" d="M2815.3,-2843.86C2699.56,-2780.6 2296.41,-2560.24 2167.57,-2489.82"/>
<polygon fill="#d9577c" stroke="#d9577c" points="2169.23,-2486.73 2158.78,-2485.01 2165.87,-2492.88 2169.23,-2486.73"/>
</g>
<!-- at_theme_flutter&#45;&gt;at_common_flutter -->
<g id="edge162" class="edge">
<title>at_theme_flutter&#45;&gt;at_common_flutter</title>
<path fill="none" stroke="#bf681f" d="M2850.72,-2843.86C2865.31,-2782.19 2915.24,-2571.2 2933.18,-2495.4"/>
<polygon fill="#bf681f" stroke="#bf681f" points="2936.69,-2495.77 2935.58,-2485.23 2929.87,-2494.15 2936.69,-2495.77"/>
</g>
<!-- at_theme_flutter&#45;&gt;at_commons -->
<g id="edge163" class="edge">
<title>at_theme_flutter&#45;&gt;at_commons</title>
<path fill="none" stroke="#7eceb0" d="M2857.63,-2843.9C2890.08,-2792.29 2985.64,-2632.5 3022.66,-2485 3152.8,-1966.53 3087.66,-1818.56 3087.66,-1284 3087.66,-1284 3087.66,-1284 3087.66,-887 3087.66,-701.11 3117.3,-630.64 3015.66,-475 2889.96,-282.52 2627.32,-165.32 2510.2,-120.68"/>
<polygon fill="#7eceb0" stroke="#7eceb0" points="2511.27,-117.34 2500.68,-117.09 2508.8,-123.89 2511.27,-117.34"/>
</g>
<!-- at_theme_flutter&#45;&gt;at_utils -->
<g id="edge164" class="edge">
<title>at_theme_flutter&#45;&gt;at_utils</title>
<path fill="none" stroke="#75e849" d="M2808.81,-2843.9C2715.12,-2799.49 2471.57,-2670.87 2354.66,-2485 2348.07,-2474.53 2189.66,-1681.4 2189.66,-1679 2189.66,-1679 2189.66,-1679 2189.66,-1282 2189.66,-1090.78 2172.55,-1028.56 2065.66,-870 1949.63,-697.88 1730.89,-566 1639.47,-515.92"/>
<polygon fill="#75e849" stroke="#75e849" points="1640.97,-512.75 1630.51,-511.05 1637.63,-518.9 1640.97,-512.75"/>
</g>
<!-- at_utils&#45;&gt;at_commons -->
<g id="edge165" class="edge">
<title>at_utils&#45;&gt;at_commons</title>
<path fill="none" stroke="#7eceb0" d="M1632.2,-476.15C1766.22,-414.63 2252.06,-191.62 2405.14,-121.36"/>
<polygon fill="#7eceb0" stroke="#7eceb0" points="2406.68,-124.5 2414.31,-117.15 2403.76,-118.14 2406.68,-124.5"/>
</g>
<!-- at_ve_doctor -->
<g id="node44" class="node">
<title>at_ve_doctor</title>
<polygon fill="none" stroke="#193e4e" points="915.16,-2880 808.16,-2880 808.16,-2844 915.16,-2844 915.16,-2880"/>
<text text-anchor="middle" x="861.66" y="-2858.3" font-family="Times,serif" font-size="14.00">at_ve_doctor</text>
</g>
<!-- at_ve_doctor&#45;&gt;at_server_status -->
<g id="edge166" class="edge">
<title>at_ve_doctor&#45;&gt;at_server_status</title>
<path fill="none" stroke="#320113" d="M861.09,-2843.86C859.05,-2782.19 852.07,-2571.2 849.57,-2495.4"/>
<polygon fill="#320113" stroke="#320113" points="853.06,-2495.11 849.23,-2485.23 846.06,-2495.34 853.06,-2495.11"/>
</g>
<!-- base2e15 -->
<g id="node45" class="node">
<title>base2e15</title>
<polygon fill="none" stroke="#2bcf07" points="3620.16,-3669 3535.16,-3669 3535.16,-3633 3620.16,-3633 3620.16,-3669"/>
<text text-anchor="middle" x="3577.66" y="-3647.3" font-family="Times,serif" font-size="14.00">base2e15</text>
</g>
<!-- dart_utf7 -->
<g id="node46" class="node">
<title>dart_utf7</title>
<polygon fill="none" stroke="#f889f9" points="3721.16,-3669 3638.16,-3669 3638.16,-3633 3721.16,-3633 3721.16,-3669"/>
<text text-anchor="middle" x="3679.66" y="-3647.3" font-family="Times,serif" font-size="14.00">dart_utf7</text>
</g>
<!-- \n -->
<g id="node48" class="node">
<title>\n</title>
<ellipse fill="none" stroke="black" cx="3766.66" cy="-3651" rx="27" ry="18"/>
</g>
</g>
</svg>
