<?xml version="1.0" encoding="UTF-8" standalone="no"?>
<!DOCTYPE svg PUBLIC "-//W3C//DTD SVG 1.1//EN"
 "http://www.w3.org/Graphics/SVG/1.1/DTD/svg11.dtd">
<!-- Generated by graphviz version 2.43.0 (0)
 -->
<!-- Title: packages Pages: 1 -->
<svg width="720pt" height="655pt"
 viewBox="0.00 0.00 720.00 655.29" xmlns="http://www.w3.org/2000/svg" xmlns:xlink="http://www.w3.org/1999/xlink">
<g id="graph0" class="graph" transform="scale(0.20542006269592475 0.20542006269592475) rotate(0) translate(4 3186)">
<title>packages</title>
<polygon fill="white" stroke="transparent" points="-4,4 -4,-3186 3501.01,-3186 3501.01,4 -4,4"/>
<!-- at_app -->
<g id="node1" class="node">
<title>at_app</title>
<polygon fill="none" stroke="#319b3c" points="567.01,-700 503.01,-700 503.01,-664 567.01,-664 567.01,-700"/>
<text text-anchor="middle" x="535.01" y="-678.3" font-family="Times,serif" font-size="14.00">at_app</text>
</g>
<!-- at_app_create -->
<g id="node3" class="node">
<title>at_app_create</title>
<polygon fill="none" stroke="#a04433" points="619.01,-397 503.01,-397 503.01,-361 619.01,-361 619.01,-397"/>
<text text-anchor="middle" x="561.01" y="-375.3" font-family="Times,serif" font-size="14.00">at_app_create</text>
</g>
<!-- at_app&#45;&gt;at_app_create -->
<g id="edge1" class="edge">
<title>at_app&#45;&gt;at_app_create</title>
<path fill="none" stroke="#a04433" d="M536.48,-663.95C540.79,-614.09 553.39,-468.2 558.65,-407.25"/>
<polygon fill="#a04433" stroke="#a04433" points="562.14,-407.5 559.52,-397.23 555.17,-406.89 562.14,-407.5"/>
</g>
<!-- at_commons -->
<g id="node13" class="node">
<title>at_commons</title>
<polygon fill="none" stroke="#7eceb0" points="2077.51,-94 1972.51,-94 1972.51,-58 2077.51,-58 2077.51,-94"/>
<text text-anchor="middle" x="2025.01" y="-72.3" font-family="Times,serif" font-size="14.00">at_commons</text>
</g>
<!-- at_app&#45;&gt;at_commons -->
<g id="edge2" class="edge">
<title>at_app&#45;&gt;at_commons</title>
<path fill="none" stroke="#7eceb0" d="M536.82,-663.86C543.48,-609.95 571.67,-442.63 671.01,-361 874.55,-193.75 1723.45,-104.6 1962.26,-82.51"/>
<polygon fill="#7eceb0" stroke="#7eceb0" points="1962.86,-85.97 1972.5,-81.57 1962.22,-79 1962.86,-85.97"/>
</g>
<!-- at_utils -->
<g id="node46" class="node">
<title>at_utils</title>
<polygon fill="none" stroke="#75e849" points="1726.51,-397 1657.51,-397 1657.51,-361 1726.51,-361 1726.51,-397"/>
<text text-anchor="middle" x="1692.01" y="-375.3" font-family="Times,serif" font-size="14.00">at_utils</text>
</g>
<!-- at_app&#45;&gt;at_utils -->
<g id="edge3" class="edge">
<title>at_app&#45;&gt;at_utils</title>
<path fill="none" stroke="#75e849" d="M567.16,-672.64C729.5,-630.4 1458.78,-440.68 1647.37,-391.61"/>
<polygon fill="#75e849" stroke="#75e849" points="1648.43,-394.95 1657.23,-389.05 1646.67,-388.18 1648.43,-394.95"/>
</g>
<!-- at_app_bundler -->
<g id="node2" class="node">
<title>at_app_bundler</title>
<polygon fill="none" stroke="#1313a7" points="2488.01,-3124 2362.01,-3124 2362.01,-3088 2488.01,-3088 2488.01,-3124"/>
<text text-anchor="middle" x="2425.01" y="-3102.3" font-family="Times,serif" font-size="14.00">at_app_bundler</text>
</g>
<!-- at_app_flutter -->
<g id="node4" class="node">
<title>at_app_flutter</title>
<polygon fill="none" stroke="#fda7a2" points="2344.01,-3124 2228.01,-3124 2228.01,-3088 2344.01,-3088 2344.01,-3124"/>
<text text-anchor="middle" x="2286.01" y="-3102.3" font-family="Times,serif" font-size="14.00">at_app_flutter</text>
</g>
<!-- at_onboarding_flutter -->
<g id="node33" class="node">
<title>at_onboarding_flutter</title>
<polygon fill="none" stroke="#a801a6" points="2200.01,-2821 2030.01,-2821 2030.01,-2785 2200.01,-2785 2200.01,-2821"/>
<text text-anchor="middle" x="2115.01" y="-2799.3" font-family="Times,serif" font-size="14.00">at_onboarding_flutter</text>
</g>
<!-- at_app_flutter&#45;&gt;at_onboarding_flutter -->
<g id="edge4" class="edge">
<title>at_app_flutter&#45;&gt;at_onboarding_flutter</title>
<path fill="none" stroke="#a801a6" d="M2276.32,-3087.95C2247.82,-3037.78 2164.08,-2890.39 2129.85,-2830.13"/>
<polygon fill="#a801a6" stroke="#a801a6" points="2132.78,-2828.2 2124.8,-2821.23 2126.69,-2831.66 2132.78,-2828.2"/>
</g>
<!-- at_app_flutter&#45;&gt;at_utils -->
<g id="edge5" class="edge">
<title>at_app_flutter&#45;&gt;at_utils</title>
<path fill="none" stroke="#75e849" d="M2288.33,-3087.69C2308.18,-2935.15 2441.4,-1806.06 2157.01,-967 2109.39,-826.5 2105.92,-782.75 2017.01,-664 1931,-549.14 1791.82,-447.21 1727.13,-403.13"/>
<polygon fill="#75e849" stroke="#75e849" points="1728.76,-400 1718.51,-397.3 1724.83,-405.8 1728.76,-400"/>
</g>
<!-- at_backupkey_flutter -->
<g id="node5" class="node">
<title>at_backupkey_flutter</title>
<polygon fill="none" stroke="#590b92" points="1794.51,-2518 1629.51,-2518 1629.51,-2482 1794.51,-2482 1794.51,-2518"/>
<text text-anchor="middle" x="1712.01" y="-2496.3" font-family="Times,serif" font-size="14.00">at_backupkey_flutter</text>
</g>
<!-- at_client_mobile -->
<g id="node11" class="node">
<title>at_client_mobile</title>
<polygon fill="none" stroke="#d9577c" points="1281.01,-2215 1149.01,-2215 1149.01,-2179 1281.01,-2179 1281.01,-2215"/>
<text text-anchor="middle" x="1215.01" y="-2193.3" font-family="Times,serif" font-size="14.00">at_client_mobile</text>
</g>
<!-- at_backupkey_flutter&#45;&gt;at_client_mobile -->
<g id="edge7" class="edge">
<title>at_backupkey_flutter&#45;&gt;at_client_mobile</title>
<path fill="none" stroke="#d9577c" d="M1683.86,-2481.95C1599.22,-2430.69 1346.97,-2277.92 1251.85,-2220.32"/>
<polygon fill="#d9577c" stroke="#d9577c" points="1253.52,-2217.23 1243.15,-2215.04 1249.89,-2223.22 1253.52,-2217.23"/>
</g>
<!-- at_backupkey_flutter&#45;&gt;at_utils -->
<g id="edge6" class="edge">
<title>at_backupkey_flutter&#45;&gt;at_utils</title>
<path fill="none" stroke="#75e849" d="M1689.24,-2481.88C1638.18,-2441.91 1515.4,-2336.55 1469.01,-2215 1271.21,-1696.76 1392.17,-1518.13 1455.01,-967 1470.66,-829.68 1473.83,-792.39 1525.01,-664 1565.58,-562.21 1638.95,-453.72 1673.31,-405.57"/>
<polygon fill="#75e849" stroke="#75e849" points="1676.26,-407.45 1679.25,-397.29 1670.58,-403.37 1676.26,-407.45"/>
</g>
<!-- at_chat_flutter -->
<g id="node6" class="node">
<title>at_chat_flutter</title>
<polygon fill="none" stroke="#463830" points="997.01,-2518 877.01,-2518 877.01,-2482 997.01,-2482 997.01,-2518"/>
<text text-anchor="middle" x="937.01" y="-2496.3" font-family="Times,serif" font-size="14.00">at_chat_flutter</text>
</g>
<!-- at_client -->
<g id="node10" class="node">
<title>at_client</title>
<polygon fill="none" stroke="#61d4fc" points="1575.51,-1912 1498.51,-1912 1498.51,-1876 1575.51,-1876 1575.51,-1912"/>
<text text-anchor="middle" x="1537.01" y="-1890.3" font-family="Times,serif" font-size="14.00">at_client</text>
</g>
<!-- at_chat_flutter&#45;&gt;at_client -->
<g id="edge13" class="edge">
<title>at_chat_flutter&#45;&gt;at_client</title>
<path fill="none" stroke="#61d4fc" d="M935.15,-2481.71C930.54,-2430.15 923.61,-2275.03 994.01,-2179 1119.68,-2007.57 1379.96,-1930.73 1488.17,-1905.26"/>
<polygon fill="#61d4fc" stroke="#61d4fc" points="1489.2,-1908.62 1498.15,-1902.96 1487.62,-1901.8 1489.2,-1908.62"/>
</g>
<!-- at_chat_flutter&#45;&gt;at_client_mobile -->
<g id="edge11" class="edge">
<title>at_chat_flutter&#45;&gt;at_client_mobile</title>
<path fill="none" stroke="#d9577c" d="M952.75,-2481.95C999.47,-2431.37 1137.47,-2281.96 1192.23,-2222.66"/>
<polygon fill="#d9577c" stroke="#d9577c" points="1194.88,-2224.95 1199.09,-2215.23 1189.74,-2220.2 1194.88,-2224.95"/>
</g>
<!-- at_common_flutter -->
<g id="node12" class="node">
<title>at_common_flutter</title>
<polygon fill="none" stroke="#bf681f" points="719.51,-2215 570.51,-2215 570.51,-2179 719.51,-2179 719.51,-2215"/>
<text text-anchor="middle" x="645.01" y="-2193.3" font-family="Times,serif" font-size="14.00">at_common_flutter</text>
</g>
<!-- at_chat_flutter&#45;&gt;at_common_flutter -->
<g id="edge9" class="edge">
<title>at_chat_flutter&#45;&gt;at_common_flutter</title>
<path fill="none" stroke="#bf681f" d="M920.47,-2481.95C871.4,-2431.37 726.45,-2281.96 668.93,-2222.66"/>
<polygon fill="#bf681f" stroke="#bf681f" points="671.2,-2219.97 661.72,-2215.23 666.17,-2224.85 671.2,-2219.97"/>
</g>
<!-- at_chat_flutter&#45;&gt;at_commons -->
<g id="edge10" class="edge">
<title>at_chat_flutter&#45;&gt;at_commons</title>
<path fill="none" stroke="#7eceb0" d="M929.98,-2481.79C863.8,-2316.72 366.09,-1005.78 979.01,-361 1118.05,-214.73 1758.47,-114.19 1962.43,-85.44"/>
<polygon fill="#7eceb0" stroke="#7eceb0" points="1962.96,-88.9 1972.38,-84.04 1961.99,-81.96 1962.96,-88.9"/>
</g>
<!-- at_contact -->
<g id="node14" class="node">
<title>at_contact</title>
<polygon fill="none" stroke="#250aa2" points="1093.01,-2215 1003.01,-2215 1003.01,-2179 1093.01,-2179 1093.01,-2215"/>
<text text-anchor="middle" x="1048.01" y="-2193.3" font-family="Times,serif" font-size="14.00">at_contact</text>
</g>
<!-- at_chat_flutter&#45;&gt;at_contact -->
<g id="edge8" class="edge">
<title>at_chat_flutter&#45;&gt;at_contact</title>
<path fill="none" stroke="#250aa2" d="M943.29,-2481.95C961.72,-2431.99 1015.7,-2285.6 1038.1,-2224.88"/>
<polygon fill="#250aa2" stroke="#250aa2" points="1041.48,-2225.83 1041.65,-2215.23 1034.91,-2223.4 1041.48,-2225.83"/>
</g>
<!-- at_lookup -->
<g id="node30" class="node">
<title>at_lookup</title>
<polygon fill="none" stroke="#94d42d" points="1171.51,-700 1086.51,-700 1086.51,-664 1171.51,-664 1171.51,-700"/>
<text text-anchor="middle" x="1129.01" y="-678.3" font-family="Times,serif" font-size="14.00">at_lookup</text>
</g>
<!-- at_chat_flutter&#45;&gt;at_lookup -->
<g id="edge12" class="edge">
<title>at_chat_flutter&#45;&gt;at_lookup</title>
<path fill="none" stroke="#94d42d" d="M938.85,-2481.77C950.45,-2372.56 1013.01,-1775.5 1013.01,-1592 1013.01,-1592 1013.01,-1592 1013.01,-1287 1013.01,-1059.96 1093.03,-793.39 1120.15,-709.58"/>
<polygon fill="#94d42d" stroke="#94d42d" points="1123.48,-710.66 1123.25,-700.07 1116.82,-708.49 1123.48,-710.66"/>
</g>
<!-- at_chops -->
<g id="node7" class="node">
<title>at_chops</title>
<polygon fill="none" stroke="#8fb4d4" points="1576.51,-1609 1497.51,-1609 1497.51,-1573 1576.51,-1573 1576.51,-1609"/>
<text text-anchor="middle" x="1537.01" y="-1587.3" font-family="Times,serif" font-size="14.00">at_chops</text>
</g>
<!-- at_chops&#45;&gt;at_commons -->
<g id="edge14" class="edge">
<title>at_chops&#45;&gt;at_commons</title>
<path fill="none" stroke="#7eceb0" d="M1534.09,-1572.7C1518.87,-1479.09 1451.94,-1024.04 1525.01,-664 1553.91,-521.56 1559.43,-476.23 1648.01,-361 1743.27,-237.08 1905.87,-140.16 1982.58,-98.8"/>
<polygon fill="#7eceb0" stroke="#7eceb0" points="1984.33,-101.83 1991.5,-94.03 1981.03,-95.66 1984.33,-101.83"/>
</g>
<!-- at_onboarding_cli -->
<g id="node32" class="node">
<title>at_onboarding_cli</title>
<polygon fill="none" stroke="#514d2d" points="1852.01,-1306 1710.01,-1306 1710.01,-1270 1852.01,-1270 1852.01,-1306"/>
<text text-anchor="middle" x="1781.01" y="-1284.3" font-family="Times,serif" font-size="14.00">at_onboarding_cli</text>
</g>
<!-- at_chops&#45;&gt;at_onboarding_cli -->
<g id="edge15" class="edge">
<title>at_chops&#45;&gt;at_onboarding_cli</title>
<path fill="none" stroke="#514d2d" d="M1547.49,-1572.95C1584.07,-1522.47 1704.58,-1373.56 1756.79,-1314.02"/>
<polygon fill="#514d2d" stroke="#514d2d" points="1759.67,-1316.04 1763.68,-1306.23 1754.43,-1311.4 1759.67,-1316.04"/>
</g>
<!-- at_chops&#45;&gt;at_utils -->
<g id="edge16" class="edge">
<title>at_chops&#45;&gt;at_utils</title>
<path fill="none" stroke="#75e849" d="M1535.27,-1572.96C1526.24,-1479.78 1488.12,-1022.97 1569.01,-664 1591.6,-563.75 1649.08,-454.78 1676.72,-406.08"/>
<polygon fill="#75e849" stroke="#75e849" points="1679.89,-407.57 1681.83,-397.16 1673.82,-404.09 1679.89,-407.57"/>
</g>
<!-- at_cli -->
<g id="node8" class="node">
<title>at_cli</title>
<polygon fill="none" stroke="#34bd05" points="2039.01,-2215 1985.01,-2215 1985.01,-2179 2039.01,-2179 2039.01,-2215"/>
<text text-anchor="middle" x="2012.01" y="-2193.3" font-family="Times,serif" font-size="14.00">at_cli</text>
</g>
<!-- at_cli&#45;&gt;at_client -->
<g id="edge18" class="edge">
<title>at_cli&#45;&gt;at_client</title>
<path fill="none" stroke="#61d4fc" d="M1985.11,-2178.95C1904.29,-2127.74 1663.62,-1975.23 1572.5,-1917.49"/>
<polygon fill="#61d4fc" stroke="#61d4fc" points="1574.22,-1914.44 1563.9,-1912.04 1570.48,-1920.35 1574.22,-1914.44"/>
</g>
<!-- at_cli&#45;&gt;at_commons -->
<g id="edge19" class="edge">
<title>at_cli&#45;&gt;at_commons</title>
<path fill="none" stroke="#7eceb0" d="M2017.17,-2178.7C2053.52,-2055.08 2268.28,-1292.71 2229.01,-664 2220.55,-528.54 2234.58,-489.54 2191.01,-361 2155.88,-257.38 2080.36,-149.8 2044.58,-102.22"/>
<polygon fill="#7eceb0" stroke="#7eceb0" points="2047.21,-99.9 2038.38,-94.05 2041.64,-104.13 2047.21,-99.9"/>
</g>
<!-- at_cli&#45;&gt;at_lookup -->
<g id="edge17" class="edge">
<title>at_cli&#45;&gt;at_lookup</title>
<path fill="none" stroke="#94d42d" d="M1991.81,-2178.79C1914.38,-2112.04 1632.05,-1861.43 1456.01,-1609 1370.05,-1485.75 1363.44,-1444.86 1306.01,-1306 1251.7,-1174.7 1242.93,-1139.66 1204.01,-1003 1173.45,-895.73 1145.83,-765.71 1134.48,-710.22"/>
<polygon fill="#94d42d" stroke="#94d42d" points="1137.85,-709.25 1132.43,-700.14 1130.99,-710.64 1137.85,-709.25"/>
</g>
<!-- at_cli&#45;&gt;at_utils -->
<g id="edge20" class="edge">
<title>at_cli&#45;&gt;at_utils</title>
<path fill="none" stroke="#75e849" d="M2009.32,-2178.79C1995.33,-2088.4 1930.2,-1659.36 1899.01,-1306 1873.89,-1021.42 1951.71,-936.84 1867.01,-664 1834.12,-558.08 1752.51,-451.71 1713.47,-404.83"/>
<polygon fill="#75e849" stroke="#75e849" points="1716.04,-402.44 1706.92,-397.04 1710.68,-406.95 1716.04,-402.44"/>
</g>
<!-- at_cli_commons -->
<g id="node9" class="node">
<title>at_cli_commons</title>
<polygon fill="none" stroke="#c99192" points="1845.01,-2215 1717.01,-2215 1717.01,-2179 1845.01,-2179 1845.01,-2215"/>
<text text-anchor="middle" x="1781.01" y="-2193.3" font-family="Times,serif" font-size="14.00">at_cli_commons</text>
</g>
<!-- at_cli_commons&#45;&gt;at_client -->
<g id="edge21" class="edge">
<title>at_cli_commons&#45;&gt;at_client</title>
<path fill="none" stroke="#61d4fc" d="M1767.19,-2178.95C1726.27,-2128.47 1605.56,-1979.56 1557.29,-1920.02"/>
<polygon fill="#61d4fc" stroke="#61d4fc" points="1559.99,-1917.8 1550.98,-1912.23 1554.55,-1922.2 1559.99,-1917.8"/>
</g>
<!-- at_cli_commons&#45;&gt;at_onboarding_cli -->
<g id="edge22" class="edge">
<title>at_cli_commons&#45;&gt;at_onboarding_cli</title>
<path fill="none" stroke="#514d2d" d="M1781.01,-2178.69C1781.01,-2067.45 1781.01,-1453.42 1781.01,-1316.2"/>
<polygon fill="#514d2d" stroke="#514d2d" points="1784.51,-1316.12 1781.01,-1306.12 1777.51,-1316.12 1784.51,-1316.12"/>
</g>
<!-- at_cli_commons&#45;&gt;at_utils -->
<g id="edge23" class="edge">
<title>at_cli_commons&#45;&gt;at_utils</title>
<path fill="none" stroke="#75e849" d="M1775.25,-2178.98C1751.98,-2109.35 1664.52,-1838.98 1630.01,-1609 1587.62,-1326.56 1580.3,-1251.78 1602.01,-967 1618.6,-749.35 1669.3,-490.21 1686.35,-407.08"/>
<polygon fill="#75e849" stroke="#75e849" points="1689.8,-407.68 1688.39,-397.18 1682.94,-406.26 1689.8,-407.68"/>
</g>
<!-- at_client&#45;&gt;at_chops -->
<g id="edge26" class="edge">
<title>at_client&#45;&gt;at_chops</title>
<path fill="none" stroke="#8fb4d4" d="M1537.01,-1875.95C1537.01,-1826.09 1537.01,-1680.2 1537.01,-1619.25"/>
<polygon fill="#8fb4d4" stroke="#8fb4d4" points="1540.51,-1619.23 1537.01,-1609.23 1533.51,-1619.23 1540.51,-1619.23"/>
</g>
<!-- at_client&#45;&gt;at_commons -->
<g id="edge24" class="edge">
<title>at_client&#45;&gt;at_commons</title>
<path fill="none" stroke="#7eceb0" d="M1526.37,-1875.98C1470.11,-1783.82 1213.06,-1335.06 1303.01,-967 1375.07,-672.13 1417.75,-589.12 1618.01,-361 1726.65,-237.24 1899.94,-139.97 1980.78,-98.62"/>
<polygon fill="#7eceb0" stroke="#7eceb0" points="1982.38,-101.74 1989.71,-94.09 1979.21,-95.5 1982.38,-101.74"/>
</g>
<!-- at_client&#45;&gt;at_lookup -->
<g id="edge27" class="edge">
<title>at_client&#45;&gt;at_lookup</title>
<path fill="none" stroke="#94d42d" d="M1519.29,-1875.98C1452.6,-1810.39 1217.13,-1564.8 1151.01,-1306 1093.79,-1082.03 1116.73,-798.11 1125.91,-710.19"/>
<polygon fill="#94d42d" stroke="#94d42d" points="1129.39,-710.54 1126.98,-700.23 1122.43,-709.8 1129.39,-710.54"/>
</g>
<!-- at_persistence_secondary_server -->
<g id="node35" class="node">
<title>at_persistence_secondary_server</title>
<polygon fill="none" stroke="#9760d3" points="2799.01,-700 2547.01,-700 2547.01,-664 2799.01,-664 2799.01,-700"/>
<text text-anchor="middle" x="2673.01" y="-678.3" font-family="Times,serif" font-size="14.00">at_persistence_secondary_server</text>
</g>
<!-- at_client&#45;&gt;at_persistence_secondary_server -->
<g id="edge29" class="edge">
<title>at_client&#45;&gt;at_persistence_secondary_server</title>
<path fill="none" stroke="#9760d3" d="M1553.07,-1875.9C1678.51,-1742.28 2500.37,-866.88 2649.74,-707.78"/>
<polygon fill="#9760d3" stroke="#9760d3" points="2652.43,-710.03 2656.72,-700.34 2647.33,-705.24 2652.43,-710.03"/>
</g>
<!-- at_persistence_spec -->
<g id="node36" class="node">
<title>at_persistence_spec</title>
<polygon fill="none" stroke="#3bfcef" points="2875.51,-397 2716.51,-397 2716.51,-361 2875.51,-361 2875.51,-397"/>
<text text-anchor="middle" x="2796.01" y="-375.3" font-family="Times,serif" font-size="14.00">at_persistence_spec</text>
</g>
<!-- at_client&#45;&gt;at_persistence_spec -->
<g id="edge28" class="edge">
<title>at_client&#45;&gt;at_persistence_spec</title>
<path fill="none" stroke="#3bfcef" d="M1575.69,-1877.51C1746.65,-1806.85 2439.73,-1497.23 2751.01,-1003 2875.53,-805.29 2822.32,-499.05 2802.34,-407.04"/>
<polygon fill="#3bfcef" stroke="#3bfcef" points="2805.73,-406.14 2800.14,-397.13 2798.9,-407.66 2805.73,-406.14"/>
</g>
<!-- at_client&#45;&gt;at_utils -->
<g id="edge25" class="edge">
<title>at_client&#45;&gt;at_utils</title>
<path fill="none" stroke="#75e849" d="M1533.35,-1875.81C1524.12,-1831.71 1499.78,-1710.89 1488.01,-1609 1471.65,-1467.47 1469.01,-1431.47 1469.01,-1289 1469.01,-1289 1469.01,-1289 1469.01,-984 1469.01,-746.67 1622.4,-487.55 1674.74,-406.03"/>
<polygon fill="#75e849" stroke="#75e849" points="1677.83,-407.7 1680.33,-397.4 1671.96,-403.89 1677.83,-407.7"/>
</g>
<!-- at_client_mobile&#45;&gt;at_chops -->
<g id="edge32" class="edge">
<title>at_client_mobile&#45;&gt;at_chops</title>
<path fill="none" stroke="#8fb4d4" d="M1224.12,-2178.9C1269.19,-2094.37 1468.13,-1721.2 1522.97,-1618.33"/>
<polygon fill="#8fb4d4" stroke="#8fb4d4" points="1526.2,-1619.71 1527.81,-1609.24 1520.02,-1616.42 1526.2,-1619.71"/>
</g>
<!-- at_client_mobile&#45;&gt;at_client -->
<g id="edge34" class="edge">
<title>at_client_mobile&#45;&gt;at_client</title>
<path fill="none" stroke="#61d4fc" d="M1233.24,-2178.95C1287.46,-2128.27 1447.85,-1978.34 1511.02,-1919.29"/>
<polygon fill="#61d4fc" stroke="#61d4fc" points="1513.66,-1921.62 1518.57,-1912.23 1508.88,-1916.5 1513.66,-1921.62"/>
</g>
<!-- at_client_mobile&#45;&gt;at_commons -->
<g id="edge30" class="edge">
<title>at_client_mobile&#45;&gt;at_commons</title>
<path fill="none" stroke="#7eceb0" d="M1202.62,-2178.79C1139.96,-2090 861.01,-1673.13 861.01,-1289 861.01,-1289 861.01,-1289 861.01,-681 861.01,-180.21 1720.38,-94.09 1962.31,-79.77"/>
<polygon fill="#7eceb0" stroke="#7eceb0" points="1962.57,-83.26 1972.35,-79.19 1962.17,-76.27 1962.57,-83.26"/>
</g>
<!-- at_client_mobile&#45;&gt;at_lookup -->
<g id="edge33" class="edge">
<title>at_client_mobile&#45;&gt;at_lookup</title>
<path fill="none" stroke="#94d42d" d="M1206.65,-2178.68C1173.23,-2107.8 1051.01,-1832.13 1051.01,-1592 1051.01,-1592 1051.01,-1592 1051.01,-1287 1051.01,-1144.38 1056.32,-1108.39 1075.01,-967 1087.59,-871.77 1111.54,-760.2 1122.83,-709.94"/>
<polygon fill="#94d42d" stroke="#94d42d" points="1126.24,-710.7 1125.04,-700.18 1119.42,-709.16 1126.24,-710.7"/>
</g>
<!-- at_client_mobile&#45;&gt;at_utils -->
<g id="edge31" class="edge">
<title>at_client_mobile&#45;&gt;at_utils</title>
<path fill="none" stroke="#75e849" d="M1210.59,-2178.92C1177.94,-2048.82 984.17,-1205.11 1303.01,-664 1384.98,-524.88 1564.62,-434.05 1647.95,-397.81"/>
<polygon fill="#75e849" stroke="#75e849" points="1649.57,-400.93 1657.38,-393.77 1646.81,-394.49 1649.57,-400.93"/>
</g>
<!-- at_contact&#45;&gt;at_client -->
<g id="edge35" class="edge">
<title>at_contact&#45;&gt;at_client</title>
<path fill="none" stroke="#61d4fc" d="M1075.7,-2178.95C1158.98,-2127.69 1407.17,-1974.92 1500.75,-1917.32"/>
<polygon fill="#61d4fc" stroke="#61d4fc" points="1502.64,-1920.27 1509.32,-1912.04 1498.97,-1914.31 1502.64,-1920.27"/>
</g>
<!-- at_contact&#45;&gt;at_commons -->
<g id="edge36" class="edge">
<title>at_contact&#45;&gt;at_commons</title>
<path fill="none" stroke="#7eceb0" d="M1035.04,-2178.72C1002.34,-2134.91 914.29,-2015.6 847.01,-1912 761.69,-1780.63 725.03,-1754.5 667.01,-1609 513.57,-1224.22 507.07,-1111.68 461.01,-700 444.25,-550.27 364.45,-476.66 461.01,-361 657.78,-125.28 1694.21,-84.77 1961.87,-78.21"/>
<polygon fill="#7eceb0" stroke="#7eceb0" points="1962.27,-81.7 1972.19,-77.96 1962.11,-74.7 1962.27,-81.7"/>
</g>
<!-- at_contact&#45;&gt;at_utils -->
<g id="edge37" class="edge">
<title>at_contact&#45;&gt;at_utils</title>
<path fill="none" stroke="#75e849" d="M1042.5,-2178.91C1020.1,-2107.82 937.01,-1828.16 937.01,-1592 937.01,-1592 937.01,-1592 937.01,-984 937.01,-828.76 968.35,-774.87 1077.01,-664 1245.23,-492.34 1536.81,-413.76 1647.58,-389.05"/>
<polygon fill="#75e849" stroke="#75e849" points="1648.4,-392.45 1657.42,-386.89 1646.9,-385.61 1648.4,-392.45"/>
</g>
<!-- at_contacts_flutter -->
<g id="node15" class="node">
<title>at_contacts_flutter</title>
<polygon fill="none" stroke="#1267b5" points="859.51,-2518 710.51,-2518 710.51,-2482 859.51,-2482 859.51,-2518"/>
<text text-anchor="middle" x="785.01" y="-2496.3" font-family="Times,serif" font-size="14.00">at_contacts_flutter</text>
</g>
<!-- at_contacts_flutter&#45;&gt;at_client -->
<g id="edge43" class="edge">
<title>at_contacts_flutter&#45;&gt;at_client</title>
<path fill="none" stroke="#61d4fc" d="M791,-2481.8C809.87,-2429.8 872.79,-2272.15 972.01,-2179 1130.96,-2029.77 1383.31,-1941.16 1488.49,-1908.93"/>
<polygon fill="#61d4fc" stroke="#61d4fc" points="1489.65,-1912.23 1498.21,-1905.98 1487.62,-1905.53 1489.65,-1912.23"/>
</g>
<!-- at_contacts_flutter&#45;&gt;at_client_mobile -->
<g id="edge38" class="edge">
<title>at_contacts_flutter&#45;&gt;at_client_mobile</title>
<path fill="none" stroke="#d9577c" d="M809.36,-2481.95C882.37,-2430.85 1099.51,-2278.85 1182.38,-2220.84"/>
<polygon fill="#d9577c" stroke="#d9577c" points="1184.47,-2223.65 1190.66,-2215.04 1180.46,-2217.91 1184.47,-2223.65"/>
</g>
<!-- at_contacts_flutter&#45;&gt;at_common_flutter -->
<g id="edge42" class="edge">
<title>at_contacts_flutter&#45;&gt;at_common_flutter</title>
<path fill="none" stroke="#bf681f" d="M777.08,-2481.95C753.79,-2431.89 685.47,-2284.99 657.33,-2224.5"/>
<polygon fill="#bf681f" stroke="#bf681f" points="660.41,-2222.82 653.02,-2215.23 654.07,-2225.77 660.41,-2222.82"/>
</g>
<!-- at_contacts_flutter&#45;&gt;at_commons -->
<g id="edge39" class="edge">
<title>at_contacts_flutter&#45;&gt;at_commons</title>
<path fill="none" stroke="#7eceb0" d="M782.15,-2481.97C774.1,-2434.14 750.33,-2294.52 728.01,-2179 650.34,-1777.12 169.2,-674.81 432.01,-361 633.13,-120.85 1692.7,-83.59 1962.47,-77.97"/>
<polygon fill="#7eceb0" stroke="#7eceb0" points="1962.56,-81.47 1972.48,-77.77 1962.41,-74.47 1962.56,-81.47"/>
</g>
<!-- at_contacts_flutter&#45;&gt;at_contact -->
<g id="edge41" class="edge">
<title>at_contacts_flutter&#45;&gt;at_contact</title>
<path fill="none" stroke="#250aa2" d="M799.9,-2481.95C844.01,-2431.47 974.12,-2282.56 1026.14,-2223.02"/>
<polygon fill="#250aa2" stroke="#250aa2" points="1029.01,-2225.06 1032.95,-2215.23 1023.74,-2220.46 1029.01,-2225.06"/>
</g>
<!-- at_contacts_flutter&#45;&gt;at_lookup -->
<g id="edge40" class="edge">
<title>at_contacts_flutter&#45;&gt;at_lookup</title>
<path fill="none" stroke="#94d42d" d="M787.09,-2481.83C802.34,-2357.6 900.17,-1583.68 1044.01,-967 1066.38,-871.07 1102.81,-759.85 1119.77,-709.81"/>
<polygon fill="#94d42d" stroke="#94d42d" points="1123.17,-710.68 1123.08,-700.09 1116.55,-708.43 1123.17,-710.68"/>
</g>
<!-- at_contacts_flutter&#45;&gt;at_utils -->
<g id="edge44" class="edge">
<title>at_contacts_flutter&#45;&gt;at_utils</title>
<path fill="none" stroke="#75e849" d="M785.01,-2481.7C785.01,-2409.78 785.01,-2127.27 785.01,-1895 785.01,-1895 785.01,-1895 785.01,-1287 785.01,-987.31 833.21,-878.01 1043.01,-664 1220.19,-483.26 1531.89,-409.58 1647.35,-387.63"/>
<polygon fill="#75e849" stroke="#75e849" points="1648.07,-391.06 1657.26,-385.78 1646.78,-384.18 1648.07,-391.06"/>
</g>
<!-- at_contacts_group_flutter -->
<g id="node16" class="node">
<title>at_contacts_group_flutter</title>
<polygon fill="none" stroke="#dae1d2" points="992.01,-2821 794.01,-2821 794.01,-2785 992.01,-2785 992.01,-2821"/>
<text text-anchor="middle" x="893.01" y="-2799.3" font-family="Times,serif" font-size="14.00">at_contacts_group_flutter</text>
</g>
<!-- at_contacts_group_flutter&#45;&gt;at_client_mobile -->
<g id="edge45" class="edge">
<title>at_contacts_group_flutter&#45;&gt;at_client_mobile</title>
<path fill="none" stroke="#d9577c" d="M943.32,-2784.97C1034.81,-2750.94 1226.07,-2664.89 1303.01,-2518 1356.17,-2416.5 1273.64,-2279.6 1234.15,-2223.54"/>
<polygon fill="#d9577c" stroke="#d9577c" points="1236.88,-2221.34 1228.21,-2215.25 1231.19,-2225.42 1236.88,-2221.34"/>
</g>
<!-- at_contacts_group_flutter&#45;&gt;at_common_flutter -->
<g id="edge47" class="edge">
<title>at_contacts_group_flutter&#45;&gt;at_common_flutter</title>
<path fill="none" stroke="#bf681f" d="M877.54,-2784.93C840.47,-2742.96 746.25,-2630.03 701.01,-2518 659.62,-2415.53 648.78,-2282.46 645.97,-2225.66"/>
<polygon fill="#bf681f" stroke="#bf681f" points="649.46,-2225.18 645.51,-2215.35 642.46,-2225.49 649.46,-2225.18"/>
</g>
<!-- at_contacts_group_flutter&#45;&gt;at_commons -->
<g id="edge46" class="edge">
<title>at_contacts_group_flutter&#45;&gt;at_commons</title>
<path fill="none" stroke="#7eceb0" d="M793.95,-2792.15C642.22,-2771.23 355.81,-2707.48 222.01,-2518 139.82,-2401.62 203.01,-2340.47 203.01,-2198 203.01,-2198 203.01,-2198 203.01,-681 203.01,-521.19 238.2,-455.59 367.01,-361 629.33,-168.36 1691.66,-95.88 1962.12,-80.36"/>
<polygon fill="#7eceb0" stroke="#7eceb0" points="1962.37,-83.85 1972.16,-79.79 1961.97,-76.86 1962.37,-83.85"/>
</g>
<!-- at_contacts_group_flutter&#45;&gt;at_contact -->
<g id="edge49" class="edge">
<title>at_contacts_group_flutter&#45;&gt;at_contact</title>
<path fill="none" stroke="#250aa2" d="M905.37,-2784.85C935.23,-2742.28 1010.93,-2627.27 1039.01,-2518 1066.1,-2412.53 1056.99,-2281.05 1051.23,-2225.16"/>
<polygon fill="#250aa2" stroke="#250aa2" points="1054.69,-2224.59 1050.13,-2215.02 1047.73,-2225.34 1054.69,-2224.59"/>
</g>
<!-- at_contacts_group_flutter&#45;&gt;at_contacts_flutter -->
<g id="edge48" class="edge">
<title>at_contacts_group_flutter&#45;&gt;at_contacts_flutter</title>
<path fill="none" stroke="#1267b5" d="M886.89,-2784.95C868.96,-2734.99 816.44,-2588.6 794.65,-2527.88"/>
<polygon fill="#1267b5" stroke="#1267b5" points="797.86,-2526.46 791.19,-2518.23 791.27,-2528.83 797.86,-2526.46"/>
</g>
<!-- at_contacts_group_flutter&#45;&gt;at_utils -->
<g id="edge50" class="edge">
<title>at_contacts_group_flutter&#45;&gt;at_utils</title>
<path fill="none" stroke="#75e849" d="M946.74,-2784.94C1042.42,-2751.35 1240.13,-2666.68 1324.01,-2518 1427.27,-2334.96 1342.45,-1782.34 1361.01,-1573 1373.01,-1437.58 1383.69,-1404.57 1403.01,-1270 1422.35,-1135.24 1424.78,-1101.15 1448.01,-967 1471.43,-831.73 1456.43,-791.22 1508.01,-664 1550.28,-559.74 1632.27,-452.54 1670.9,-405.14"/>
<polygon fill="#75e849" stroke="#75e849" points="1673.73,-407.22 1677.37,-397.27 1668.32,-402.77 1673.73,-407.22"/>
</g>
<!-- at_cram -->
<g id="node17" class="node">
<title>at_cram</title>
<polygon fill="none" stroke="#c89a29" points="2580.01,-3124 2506.01,-3124 2506.01,-3088 2580.01,-3088 2580.01,-3124"/>
<text text-anchor="middle" x="2543.01" y="-3102.3" font-family="Times,serif" font-size="14.00">at_cram</text>
</g>
<!-- at_daemon_cli -->
<g id="node18" class="node">
<title>at_daemon_cli</title>
<polygon fill="none" stroke="#8e17d5" points="2780.51,-2518 2663.51,-2518 2663.51,-2482 2780.51,-2482 2780.51,-2518"/>
<text text-anchor="middle" x="2722.01" y="-2496.3" font-family="Times,serif" font-size="14.00">at_daemon_cli</text>
</g>
<!-- at_daemon_cli&#45;&gt;at_client -->
<g id="edge51" class="edge">
<title>at_daemon_cli&#45;&gt;at_client</title>
<path fill="none" stroke="#61d4fc" d="M2663.35,-2498.03C2495.58,-2492.31 2006.64,-2454.8 1708.01,-2215 1657.21,-2174.21 1576.88,-1990.46 1547.89,-1921.37"/>
<polygon fill="#61d4fc" stroke="#61d4fc" points="1551.08,-1919.92 1543.99,-1912.04 1544.62,-1922.61 1551.08,-1919.92"/>
</g>
<!-- at_daemon_cli&#45;&gt;at_commons -->
<g id="edge56" class="edge">
<title>at_daemon_cli&#45;&gt;at_commons</title>
<path fill="none" stroke="#7eceb0" d="M2780.73,-2482.7C2958.63,-2430.95 3479.01,-2252.34 3479.01,-1895 3479.01,-1895 3479.01,-1895 3479.01,-681 3479.01,-523.74 3451.12,-458.85 3328.01,-361 3129.47,-203.21 2320.24,-108.45 2087.71,-83.59"/>
<polygon fill="#7eceb0" stroke="#7eceb0" points="2088.04,-80.11 2077.73,-82.53 2087.3,-87.07 2088.04,-80.11"/>
</g>
<!-- at_daemon_cli&#45;&gt;at_commons -->
<g id="edge59" class="edge">
<title>at_daemon_cli&#45;&gt;at_commons</title>
<path fill="none" stroke="#7eceb0" stroke-dasharray="1,5" d="M2780.52,-2484.91C2961.11,-2436.2 3497.01,-2257.63 3497.01,-1895 3497.01,-1895 3497.01,-1895 3497.01,-681 3497.01,-523.74 3469.12,-458.85 3346.01,-361 3145.56,-201.69 2322.61,-106.63 2087.78,-82.89"/>
<polygon fill="#7eceb0" stroke="#7eceb0" points="2088,-79.4 2077.7,-81.88 2087.3,-86.36 2088,-79.4"/>
</g>
<!-- at_daemon_core -->
<g id="node20" class="node">
<title>at_daemon_core</title>
<polygon fill="none" stroke="#c16272" points="2697.51,-1912 2566.51,-1912 2566.51,-1876 2697.51,-1876 2697.51,-1912"/>
<text text-anchor="middle" x="2632.01" y="-1890.3" font-family="Times,serif" font-size="14.00">at_daemon_core</text>
</g>
<!-- at_daemon_cli&#45;&gt;at_daemon_core -->
<g id="edge53" class="edge">
<title>at_daemon_cli&#45;&gt;at_daemon_core</title>
<path fill="none" stroke="#c16272" d="M2717.14,-2481.91C2710.08,-2433.92 2702.51,-2293.95 2685.01,-2179 2670.5,-2083.71 2643.13,-1972.53 2633.9,-1922.21"/>
<polygon fill="#c16272" stroke="#c16272" points="2637.32,-1921.41 2632.18,-1912.15 2630.42,-1922.59 2637.32,-1921.41"/>
</g>
<!-- at_daemon_cli&#45;&gt;at_daemon_core -->
<g id="edge57" class="edge">
<title>at_daemon_cli&#45;&gt;at_daemon_core</title>
<path fill="none" stroke="#c16272" stroke-dasharray="1,5" d="M2725.42,-2481.91C2728.08,-2433.92 2720.51,-2293.95 2703.01,-2179 2688.47,-2083.51 2661.01,-1972.07 2644.32,-1921.89"/>
<polygon fill="#c16272" stroke="#c16272" points="2647.52,-1920.44 2640.93,-1912.15 2640.91,-1922.74 2647.52,-1920.44"/>
</g>
<!-- at_daemon_server -->
<g id="node22" class="node">
<title>at_daemon_server</title>
<polygon fill="none" stroke="#4bd261" points="2905.01,-2215 2759.01,-2215 2759.01,-2179 2905.01,-2179 2905.01,-2215"/>
<text text-anchor="middle" x="2832.01" y="-2193.3" font-family="Times,serif" font-size="14.00">at_daemon_server</text>
</g>
<!-- at_daemon_cli&#45;&gt;at_daemon_server -->
<g id="edge54" class="edge">
<title>at_daemon_cli&#45;&gt;at_daemon_server</title>
<path fill="none" stroke="#4bd261" d="M2724.9,-2481.95C2738.89,-2431.89 2792.34,-2284.99 2818.29,-2224.5"/>
<polygon fill="#4bd261" stroke="#4bd261" points="2821.54,-2225.8 2822.36,-2215.23 2815.13,-2222.98 2821.54,-2225.8"/>
</g>
<!-- at_daemon_cli&#45;&gt;at_daemon_server -->
<g id="edge58" class="edge">
<title>at_daemon_cli&#45;&gt;at_daemon_server</title>
<path fill="none" stroke="#4bd261" stroke-dasharray="1,5" d="M2731.57,-2481.95C2754.13,-2431.99 2807.87,-2285.6 2826.24,-2224.88"/>
<polygon fill="#4bd261" stroke="#4bd261" points="2829.62,-2225.81 2829.06,-2215.23 2822.9,-2223.85 2829.62,-2225.81"/>
</g>
<!-- at_daemon_cli&#45;&gt;at_onboarding_cli -->
<g id="edge52" class="edge">
<title>at_daemon_cli&#45;&gt;at_onboarding_cli</title>
<path fill="none" stroke="#514d2d" d="M2708.7,-2481.9C2604.9,-2348.42 1925.36,-1474.62 1800.65,-1314.26"/>
<polygon fill="#514d2d" stroke="#514d2d" points="1803.4,-1312.09 1794.5,-1306.34 1797.87,-1316.39 1803.4,-1312.09"/>
</g>
<!-- at_daemon_cli&#45;&gt;at_utils -->
<g id="edge55" class="edge">
<title>at_daemon_cli&#45;&gt;at_utils</title>
<path fill="none" stroke="#75e849" d="M2706.09,-2481.77C2668.51,-2439.91 2574.58,-2327.95 2536.01,-2215 2446.1,-1951.74 2519.17,-1233.08 2438.01,-967 2392.89,-819.1 2379.32,-770.29 2267.01,-664 2103.84,-509.57 1840.66,-422.15 1736.5,-392.04"/>
<polygon fill="#75e849" stroke="#75e849" points="1737.21,-388.6 1726.63,-389.22 1735.29,-395.33 1737.21,-388.6"/>
</g>
<!-- at_daemon_client -->
<g id="node19" class="node">
<title>at_daemon_client</title>
<polygon fill="none" stroke="#dbe812" points="2685.01,-2215 2545.01,-2215 2545.01,-2179 2685.01,-2179 2685.01,-2215"/>
<text text-anchor="middle" x="2615.01" y="-2193.3" font-family="Times,serif" font-size="14.00">at_daemon_client</text>
</g>
<!-- at_daemon_client&#45;&gt;at_daemon_core -->
<g id="edge60" class="edge">
<title>at_daemon_client&#45;&gt;at_daemon_core</title>
<path fill="none" stroke="#c16272" d="M2612.63,-2178.95C2611.16,-2129.09 2619.15,-1983.2 2626.39,-1922.25"/>
<polygon fill="#c16272" stroke="#c16272" points="2629.87,-1922.6 2627.68,-1912.23 2622.93,-1921.7 2629.87,-1922.6"/>
</g>
<!-- at_daemon_client&#45;&gt;at_daemon_core -->
<g id="edge61" class="edge">
<title>at_daemon_client&#45;&gt;at_daemon_core</title>
<path fill="none" stroke="#c16272" stroke-dasharray="1,5" d="M2619.31,-2178.95C2626.41,-2129.09 2634.9,-1983.2 2634.55,-1922.25"/>
<polygon fill="#c16272" stroke="#c16272" points="2638.05,-1922.17 2634.39,-1912.23 2631.05,-1922.29 2638.05,-1922.17"/>
</g>
<!-- at_daemon_core&#45;&gt;at_commons -->
<g id="edge63" class="edge">
<title>at_daemon_core&#45;&gt;at_commons</title>
<path fill="none" stroke="#7eceb0" d="M2643.25,-1875.9C2706.96,-1789.33 3020.81,-1388.49 3155.01,-1003 3248.9,-733.31 3327.33,-566.47 3129.01,-361 2980.39,-207.04 2298.75,-111.62 2087.53,-84.8"/>
<polygon fill="#7eceb0" stroke="#7eceb0" points="2087.89,-81.32 2077.53,-83.53 2087.02,-88.26 2087.89,-81.32"/>
</g>
<!-- at_daemon_core&#45;&gt;at_commons -->
<g id="edge64" class="edge">
<title>at_daemon_core&#45;&gt;at_commons</title>
<path fill="none" stroke="#7eceb0" stroke-dasharray="1,5" d="M2648.75,-1875.9C2724.96,-1789.33 3038.81,-1388.49 3173.01,-1003 3266.9,-733.31 3345.33,-566.47 3147.01,-361 2996.77,-205.36 2301.85,-109.55 2087.84,-83.94"/>
<polygon fill="#7eceb0" stroke="#7eceb0" points="2088.06,-80.45 2077.72,-82.74 2087.24,-87.4 2088.06,-80.45"/>
</g>
<!-- at_daemon_core&#45;&gt;at_utils -->
<g id="edge62" class="edge">
<title>at_daemon_core&#45;&gt;at_utils</title>
<path fill="none" stroke="#75e849" d="M2630,-1875.78C2618.95,-1782.57 2562.88,-1329.25 2476.01,-967 2443.1,-829.76 2476.36,-768.05 2381.01,-664 2199.45,-465.89 1858.97,-402.3 1736.95,-385.36"/>
<polygon fill="#75e849" stroke="#75e849" points="1737.22,-381.86 1726.84,-383.99 1736.29,-388.8 1737.22,-381.86"/>
</g>
<!-- at_daemon_desktop -->
<g id="node21" class="node">
<title>at_daemon_desktop</title>
<polygon fill="none" stroke="#89d485" points="2755.51,-3124 2598.51,-3124 2598.51,-3088 2755.51,-3088 2755.51,-3124"/>
<text text-anchor="middle" x="2677.01" y="-3102.3" font-family="Times,serif" font-size="14.00">at_daemon_desktop</text>
</g>
<!-- at_daemon_server&#45;&gt;at_client -->
<g id="edge65" class="edge">
<title>at_daemon_server&#45;&gt;at_client</title>
<path fill="none" stroke="#61d4fc" d="M2758.67,-2178.95C2521.88,-2123.92 1781.7,-1951.87 1585.27,-1906.22"/>
<polygon fill="#61d4fc" stroke="#61d4fc" points="1586.05,-1902.81 1575.52,-1903.95 1584.47,-1909.62 1586.05,-1902.81"/>
</g>
<!-- at_daemon_server&#45;&gt;at_commons -->
<g id="edge70" class="edge">
<title>at_daemon_server&#45;&gt;at_commons</title>
<path fill="none" stroke="#7eceb0" stroke-dasharray="1,5" d="M2874.35,-2178.92C3012.45,-2120.09 3441.01,-1911.79 3441.01,-1592 3441.01,-1592 3441.01,-1592 3441.01,-681 3441.01,-526.29 3423.09,-459.76 3304.01,-361 3113.04,-202.62 2318.8,-107.94 2088.1,-83.4"/>
<polygon fill="#7eceb0" stroke="#7eceb0" points="2088.18,-79.89 2077.87,-82.32 2087.44,-86.85 2088.18,-79.89"/>
</g>
<!-- at_daemon_server&#45;&gt;at_daemon_core -->
<g id="edge66" class="edge">
<title>at_daemon_server&#45;&gt;at_daemon_core</title>
<path fill="none" stroke="#c16272" d="M2817.34,-2178.95C2779.69,-2128.78 2681.53,-1981.39 2645.36,-1921.13"/>
<polygon fill="#c16272" stroke="#c16272" points="2648.2,-1919.06 2640.1,-1912.23 2642.18,-1922.62 2648.2,-1919.06"/>
</g>
<!-- at_daemon_server&#45;&gt;at_daemon_core -->
<g id="edge69" class="edge">
<title>at_daemon_server&#45;&gt;at_daemon_core</title>
<path fill="none" stroke="#c16272" stroke-dasharray="1,5" d="M2824.02,-2178.95C2794.88,-2128.58 2696.48,-1980.17 2652.84,-1920.39"/>
<polygon fill="#c16272" stroke="#c16272" points="2655.57,-1918.19 2646.81,-1912.23 2649.94,-1922.35 2655.57,-1918.19"/>
</g>
<!-- at_daemon_server&#45;&gt;at_onboarding_cli -->
<g id="edge68" class="edge">
<title>at_daemon_server&#45;&gt;at_onboarding_cli</title>
<path fill="none" stroke="#514d2d" d="M2829.2,-2178.82C2820.06,-2127.54 2787.03,-1973.13 2707.01,-1876 2453.61,-1568.42 1995.33,-1371.32 1836.77,-1309.72"/>
<polygon fill="#514d2d" stroke="#514d2d" points="1837.8,-1306.37 1827.21,-1306.03 1835.28,-1312.9 1837.8,-1306.37"/>
</g>
<!-- at_server_spec -->
<g id="node42" class="node">
<title>at_server_spec</title>
<polygon fill="none" stroke="#e6f023" points="3413.01,-700 3291.01,-700 3291.01,-664 3413.01,-664 3413.01,-700"/>
<text text-anchor="middle" x="3352.01" y="-678.3" font-family="Times,serif" font-size="14.00">at_server_spec</text>
</g>
<!-- at_daemon_server&#45;&gt;at_server_spec -->
<g id="edge67" class="edge">
<title>at_daemon_server&#45;&gt;at_server_spec</title>
<path fill="none" stroke="#e6f023" d="M2862.66,-2178.93C2970.8,-2116.23 3328.01,-1886.78 3328.01,-1592 3328.01,-1592 3328.01,-1592 3328.01,-1287 3328.01,-1064.31 3344.5,-795.8 3350.14,-710.44"/>
<polygon fill="#e6f023" stroke="#e6f023" points="3353.64,-710.5 3350.82,-700.29 3346.66,-710.03 3353.64,-710.5"/>
</g>
<!-- at_dump_atKeys -->
<g id="node23" class="node">
<title>at_dump_atKeys</title>
<polygon fill="none" stroke="#80b159" points="2906.51,-3124 2773.51,-3124 2773.51,-3088 2906.51,-3088 2906.51,-3124"/>
<text text-anchor="middle" x="2840.01" y="-3102.3" font-family="Times,serif" font-size="14.00">at_dump_atKeys</text>
</g>
<!-- at_pkam -->
<g id="node37" class="node">
<title>at_pkam</title>
<polygon fill="none" stroke="#d549ec" points="2878.51,-2821 2801.51,-2821 2801.51,-2785 2878.51,-2785 2878.51,-2821"/>
<text text-anchor="middle" x="2840.01" y="-2799.3" font-family="Times,serif" font-size="14.00">at_pkam</text>
</g>
<!-- at_dump_atKeys&#45;&gt;at_pkam -->
<g id="edge71" class="edge">
<title>at_dump_atKeys&#45;&gt;at_pkam</title>
<path fill="none" stroke="#d549ec" stroke-dasharray="1,5" d="M2840.01,-3087.95C2840.01,-3038.09 2840.01,-2892.2 2840.01,-2831.25"/>
<polygon fill="#d549ec" stroke="#d549ec" points="2843.51,-2831.23 2840.01,-2821.23 2836.51,-2831.23 2843.51,-2831.23"/>
</g>
<!-- at_events_flutter -->
<g id="node24" class="node">
<title>at_events_flutter</title>
<polygon fill="none" stroke="#5b74f7" points="784.51,-3124 647.51,-3124 647.51,-3088 784.51,-3088 784.51,-3124"/>
<text text-anchor="middle" x="716.01" y="-3102.3" font-family="Times,serif" font-size="14.00">at_events_flutter</text>
</g>
<!-- at_events_flutter&#45;&gt;at_client -->
<g id="edge77" class="edge">
<title>at_events_flutter&#45;&gt;at_client</title>
<path fill="none" stroke="#61d4fc" d="M784.54,-3093.38C987.32,-3054.88 1584.86,-2910.84 1821.01,-2518 1829.25,-2504.29 1826.51,-2497.02 1821.01,-2482 1767.52,-2336.02 1661.35,-2355.6 1595.01,-2215 1547.59,-2114.5 1538.8,-1979.39 1537.27,-1922.29"/>
<polygon fill="#61d4fc" stroke="#61d4fc" points="1540.77,-1922.17 1537.06,-1912.25 1533.77,-1922.32 1540.77,-1922.17"/>
</g>
<!-- at_events_flutter&#45;&gt;at_client_mobile -->
<g id="edge73" class="edge">
<title>at_events_flutter&#45;&gt;at_client_mobile</title>
<path fill="none" stroke="#d9577c" d="M747.05,-3087.95C853.41,-3027.46 1203.21,-2811 1324.01,-2518 1368.28,-2410.61 1278.95,-2278.01 1236.13,-2223.36"/>
<polygon fill="#d9577c" stroke="#d9577c" points="1238.66,-2220.92 1229.69,-2215.28 1233.19,-2225.28 1238.66,-2220.92"/>
</g>
<!-- at_events_flutter&#45;&gt;at_common_flutter -->
<g id="edge81" class="edge">
<title>at_events_flutter&#45;&gt;at_common_flutter</title>
<path fill="none" stroke="#bf681f" d="M705.47,-3087.61C664.45,-3018.71 515.67,-2756.9 474.01,-2518 452.76,-2396.16 564.69,-2272.98 618.02,-2222.18"/>
<polygon fill="#bf681f" stroke="#bf681f" points="620.54,-2224.62 625.43,-2215.22 615.75,-2219.51 620.54,-2224.62"/>
</g>
<!-- at_events_flutter&#45;&gt;at_commons -->
<g id="edge72" class="edge">
<title>at_events_flutter&#45;&gt;at_commons</title>
<path fill="none" stroke="#7eceb0" d="M647.47,-3097.83C509.6,-3079.44 199.35,-3017.28 52.01,-2821 -34.01,-2706.42 13.01,-2644.27 13.01,-2501 13.01,-2501 13.01,-2501 13.01,-681 13.01,-498.31 113.05,-452.79 271.01,-361 569.07,-187.8 1683.61,-100.56 1961.79,-81.2"/>
<polygon fill="#7eceb0" stroke="#7eceb0" points="1962.37,-84.66 1972.1,-80.48 1961.89,-77.68 1962.37,-84.66"/>
</g>
<!-- at_events_flutter&#45;&gt;at_contact -->
<g id="edge74" class="edge">
<title>at_events_flutter&#45;&gt;at_contact</title>
<path fill="none" stroke="#250aa2" d="M741.6,-3087.92C798.56,-3048.41 935.88,-2944.59 1001.01,-2821 1109.6,-2614.91 1069.07,-2316.13 1053.19,-2225.24"/>
<polygon fill="#250aa2" stroke="#250aa2" points="1056.6,-2224.43 1051.39,-2215.2 1049.71,-2225.66 1056.6,-2224.43"/>
</g>
<!-- at_events_flutter&#45;&gt;at_contacts_flutter -->
<g id="edge79" class="edge">
<title>at_events_flutter&#45;&gt;at_contacts_flutter</title>
<path fill="none" stroke="#1267b5" d="M717.96,-3087.9C727.59,-3003.62 769.99,-2632.45 781.89,-2528.27"/>
<polygon fill="#1267b5" stroke="#1267b5" points="785.38,-2528.58 783.04,-2518.24 778.42,-2527.78 785.38,-2528.58"/>
</g>
<!-- at_events_flutter&#45;&gt;at_contacts_group_flutter -->
<g id="edge78" class="edge">
<title>at_events_flutter&#45;&gt;at_contacts_group_flutter</title>
<path fill="none" stroke="#dae1d2" d="M726.03,-3087.95C755.53,-3037.78 842.21,-2890.39 877.64,-2830.13"/>
<polygon fill="#dae1d2" stroke="#dae1d2" points="880.82,-2831.63 882.87,-2821.23 874.79,-2828.08 880.82,-2831.63"/>
</g>
<!-- at_location_flutter -->
<g id="node28" class="node">
<title>at_location_flutter</title>
<polygon fill="none" stroke="#283e9c" points="738.01,-2821 592.01,-2821 592.01,-2785 738.01,-2785 738.01,-2821"/>
<text text-anchor="middle" x="665.01" y="-2799.3" font-family="Times,serif" font-size="14.00">at_location_flutter</text>
</g>
<!-- at_events_flutter&#45;&gt;at_location_flutter -->
<g id="edge80" class="edge">
<title>at_events_flutter&#45;&gt;at_location_flutter</title>
<path fill="none" stroke="#283e9c" d="M713.12,-3087.95C704.67,-3038.09 679.95,-2892.2 669.62,-2831.25"/>
<polygon fill="#283e9c" stroke="#283e9c" points="673.05,-2830.51 667.93,-2821.23 666.15,-2831.68 673.05,-2830.51"/>
</g>
<!-- at_events_flutter&#45;&gt;at_lookup -->
<g id="edge75" class="edge">
<title>at_events_flutter&#45;&gt;at_lookup</title>
<path fill="none" stroke="#94d42d" d="M647.27,-3098.33C510.18,-3080.9 204.79,-3020.45 75.01,-2821 -7.17,-2694.71 56.54,-2631.53 75.01,-2482 177.44,-1652.59 952.34,-856.03 1103.49,-707.63"/>
<polygon fill="#94d42d" stroke="#94d42d" points="1106.29,-709.78 1111,-700.29 1101.4,-704.78 1106.29,-709.78"/>
</g>
<!-- at_events_flutter&#45;&gt;at_utils -->
<g id="edge76" class="edge">
<title>at_events_flutter&#45;&gt;at_utils</title>
<path fill="none" stroke="#75e849" d="M692.51,-3087.95C607.43,-3024.54 315.16,-2791.91 214.01,-2518 208.46,-2502.99 211.92,-2497.86 214.01,-2482 220.83,-2430.17 664.36,-701.29 701.01,-664 839.08,-523.51 1472.43,-414.64 1647.22,-386.89"/>
<polygon fill="#75e849" stroke="#75e849" points="1648.02,-390.31 1657.35,-385.29 1646.92,-383.39 1648.02,-390.31"/>
</g>
<!-- at_follows_flutter -->
<g id="node25" class="node">
<title>at_follows_flutter</title>
<polygon fill="none" stroke="#13b24b" points="2067.01,-2518 1927.01,-2518 1927.01,-2482 2067.01,-2482 2067.01,-2518"/>
<text text-anchor="middle" x="1997.01" y="-2496.3" font-family="Times,serif" font-size="14.00">at_follows_flutter</text>
</g>
<!-- at_follows_flutter&#45;&gt;at_client -->
<g id="edge84" class="edge">
<title>at_follows_flutter&#45;&gt;at_client</title>
<path fill="none" stroke="#61d4fc" d="M1963.71,-2481.87C1892.86,-2443.72 1726.38,-2344.83 1637.01,-2215 1571.74,-2120.19 1547.64,-1980.9 1540.05,-1922.43"/>
<polygon fill="#61d4fc" stroke="#61d4fc" points="1543.48,-1921.66 1538.78,-1912.17 1536.53,-1922.52 1543.48,-1921.66"/>
</g>
<!-- at_follows_flutter&#45;&gt;at_client_mobile -->
<g id="edge85" class="edge">
<title>at_follows_flutter&#45;&gt;at_client_mobile</title>
<path fill="none" stroke="#d9577c" d="M1952.72,-2481.95C1818.33,-2430.23 1415.42,-2275.14 1268.97,-2218.77"/>
<polygon fill="#d9577c" stroke="#d9577c" points="1269.88,-2215.37 1259.29,-2215.04 1267.36,-2221.9 1269.88,-2215.37"/>
</g>
<!-- at_follows_flutter&#45;&gt;at_commons -->
<g id="edge83" class="edge">
<title>at_follows_flutter&#45;&gt;at_commons</title>
<path fill="none" stroke="#7eceb0" d="M2001.79,-2481.89C2039.33,-2345.73 2284.22,-1423.06 2243.01,-664 2235.66,-528.74 2255.56,-488.58 2210.01,-361 2172.12,-254.87 2087.39,-148.6 2047.1,-101.79"/>
<polygon fill="#7eceb0" stroke="#7eceb0" points="2049.55,-99.27 2040.35,-94.01 2044.26,-103.86 2049.55,-99.27"/>
</g>
<!-- at_follows_flutter&#45;&gt;at_lookup -->
<g id="edge87" class="edge">
<title>at_follows_flutter&#45;&gt;at_lookup</title>
<path fill="none" stroke="#94d42d" d="M1965.88,-2481.95C1896.05,-2442.52 1724.47,-2338.83 1615.01,-2215 1313.24,-1873.63 1255.33,-1747.05 1141.01,-1306 1083.03,-1082.33 1113.44,-798.21 1125.11,-710.21"/>
<polygon fill="#94d42d" stroke="#94d42d" points="1128.59,-710.62 1126.47,-700.24 1121.65,-709.68 1128.59,-710.62"/>
</g>
<!-- at_server_status -->
<g id="node43" class="node">
<title>at_server_status</title>
<polygon fill="none" stroke="#320113" points="2111.01,-1003 1977.01,-1003 1977.01,-967 2111.01,-967 2111.01,-1003"/>
<text text-anchor="middle" x="2044.01" y="-981.3" font-family="Times,serif" font-size="14.00">at_server_status</text>
</g>
<!-- at_follows_flutter&#45;&gt;at_server_status -->
<g id="edge86" class="edge">
<title>at_follows_flutter&#45;&gt;at_server_status</title>
<path fill="none" stroke="#320113" d="M2001.19,-2481.86C2011.67,-2437.87 2038.9,-2317.29 2048.01,-2215 2049.43,-2199.06 2048.03,-2195 2048.01,-2179 2047.22,-1712.6 2044.72,-1143.63 2044.13,-1013.42"/>
<polygon fill="#320113" stroke="#320113" points="2047.63,-1013.15 2044.09,-1003.17 2040.63,-1013.18 2047.63,-1013.15"/>
</g>
<!-- at_follows_flutter&#45;&gt;at_utils -->
<g id="edge82" class="edge">
<title>at_follows_flutter&#45;&gt;at_utils</title>
<path fill="none" stroke="#75e849" d="M1989.9,-2481.95C1971.83,-2438.19 1923.37,-2318.1 1892.01,-2215 1771.71,-1819.51 1729.43,-1717.94 1695.01,-1306 1682.09,-1151.42 1789.28,-1121.71 1778.01,-967 1762.16,-749.51 1713.7,-490.27 1697.41,-407.09"/>
<polygon fill="#75e849" stroke="#75e849" points="1700.83,-406.32 1695.46,-397.19 1693.96,-407.67 1700.83,-406.32"/>
</g>
<!-- at_hive_recovery -->
<g id="node26" class="node">
<title>at_hive_recovery</title>
<polygon fill="none" stroke="#f0efbc" points="2741.51,-1003 2604.51,-1003 2604.51,-967 2741.51,-967 2741.51,-1003"/>
<text text-anchor="middle" x="2673.01" y="-981.3" font-family="Times,serif" font-size="14.00">at_hive_recovery</text>
</g>
<!-- at_hive_recovery&#45;&gt;at_persistence_secondary_server -->
<g id="edge88" class="edge">
<title>at_hive_recovery&#45;&gt;at_persistence_secondary_server</title>
<path fill="none" stroke="#9760d3" d="M2673.01,-966.95C2673.01,-917.09 2673.01,-771.2 2673.01,-710.25"/>
<polygon fill="#9760d3" stroke="#9760d3" points="2676.51,-710.23 2673.01,-700.23 2669.51,-710.23 2676.51,-710.23"/>
</g>
<!-- at_invitation_flutter -->
<g id="node27" class="node">
<title>at_invitation_flutter</title>
<polygon fill="none" stroke="#b653c9" points="389.01,-2518 231.01,-2518 231.01,-2482 389.01,-2482 389.01,-2518"/>
<text text-anchor="middle" x="310.01" y="-2496.3" font-family="Times,serif" font-size="14.00">at_invitation_flutter</text>
</g>
<!-- at_invitation_flutter&#45;&gt;at_client_mobile -->
<g id="edge89" class="edge">
<title>at_invitation_flutter&#45;&gt;at_client_mobile</title>
<path fill="none" stroke="#d9577c" d="M361.26,-2481.95C517.25,-2430.07 985.87,-2274.21 1154.07,-2218.27"/>
<polygon fill="#d9577c" stroke="#d9577c" points="1155.38,-2221.52 1163.76,-2215.04 1153.17,-2214.88 1155.38,-2221.52"/>
</g>
<!-- at_invitation_flutter&#45;&gt;at_common_flutter -->
<g id="edge90" class="edge">
<title>at_invitation_flutter&#45;&gt;at_common_flutter</title>
<path fill="none" stroke="#bf681f" d="M328.98,-2481.95C385.51,-2431.16 552.93,-2280.73 618.37,-2221.94"/>
<polygon fill="#bf681f" stroke="#bf681f" points="620.73,-2224.52 625.83,-2215.23 616.05,-2219.31 620.73,-2224.52"/>
</g>
<!-- at_invitation_flutter&#45;&gt;at_commons -->
<g id="edge91" class="edge">
<title>at_invitation_flutter&#45;&gt;at_commons</title>
<path fill="none" stroke="#7eceb0" d="M309.06,-2481.71C305.23,-2409.81 291.01,-2127.38 291.01,-1895 291.01,-1895 291.01,-1895 291.01,-681 291.01,-529.72 291.15,-458.27 407.01,-361 650.17,-156.85 1694.26,-92.99 1962.17,-79.81"/>
<polygon fill="#7eceb0" stroke="#7eceb0" points="1962.66,-83.29 1972.48,-79.31 1962.33,-76.3 1962.66,-83.29"/>
</g>
<!-- at_invitation_flutter&#45;&gt;at_lookup -->
<g id="edge92" class="edge">
<title>at_invitation_flutter&#45;&gt;at_lookup</title>
<path fill="none" stroke="#94d42d" d="M317.72,-2481.9C394.61,-2311.4 1022.49,-919.18 1117.09,-709.42"/>
<polygon fill="#94d42d" stroke="#94d42d" points="1120.38,-710.63 1121.3,-700.08 1114,-707.76 1120.38,-710.63"/>
</g>
<!-- at_invitation_flutter&#45;&gt;at_utils -->
<g id="edge93" class="edge">
<title>at_invitation_flutter&#45;&gt;at_utils</title>
<path fill="none" stroke="#75e849" d="M314.69,-2481.82C339.18,-2391.58 454.49,-1963.19 533.01,-1609 595.9,-1325.28 594.08,-1250.71 657.01,-967 687.07,-831.46 636.92,-764.22 733.01,-664 864.97,-526.35 1476.41,-415.84 1647.45,-387.23"/>
<polygon fill="#75e849" stroke="#75e849" points="1648.08,-390.67 1657.37,-385.58 1646.93,-383.77 1648.08,-390.67"/>
</g>
<!-- at_location_flutter&#45;&gt;at_client -->
<g id="edge99" class="edge">
<title>at_location_flutter&#45;&gt;at_client</title>
<path fill="none" stroke="#61d4fc" d="M738.04,-2789.12C978.75,-2745.94 1735.63,-2604.26 1803.01,-2518 1812.86,-2505.39 1809.77,-2496.5 1803.01,-2482 1725.04,-2314.73 1562.97,-2382.27 1485.01,-2215 1437.91,-2113.97 1494.8,-1977.75 1522.98,-1921.24"/>
<polygon fill="#61d4fc" stroke="#61d4fc" points="1526.13,-1922.76 1527.55,-1912.26 1519.89,-1919.58 1526.13,-1922.76"/>
</g>
<!-- at_location_flutter&#45;&gt;at_client_mobile -->
<g id="edge94" class="edge">
<title>at_location_flutter&#45;&gt;at_client_mobile</title>
<path fill="none" stroke="#d9577c" d="M738.06,-2792.68C871.1,-2771.32 1150.08,-2705.34 1269.01,-2518 1329.22,-2423.15 1262.87,-2281.92 1230.59,-2224.1"/>
<polygon fill="#d9577c" stroke="#d9577c" points="1233.53,-2222.2 1225.54,-2215.24 1227.45,-2225.67 1233.53,-2222.2"/>
</g>
<!-- at_location_flutter&#45;&gt;at_common_flutter -->
<g id="edge100" class="edge">
<title>at_location_flutter&#45;&gt;at_common_flutter</title>
<path fill="none" stroke="#bf681f" d="M664.44,-2784.9C661.65,-2700.62 649.36,-2329.45 645.91,-2225.27"/>
<polygon fill="#bf681f" stroke="#bf681f" points="649.41,-2225.12 645.58,-2215.24 642.41,-2225.35 649.41,-2225.12"/>
</g>
<!-- at_location_flutter&#45;&gt;at_commons -->
<g id="edge96" class="edge">
<title>at_location_flutter&#45;&gt;at_commons</title>
<path fill="none" stroke="#7eceb0" d="M615.81,-2784.95C522.63,-2750.07 320.24,-2661.54 214.01,-2518 126.33,-2399.53 127.01,-2345.38 127.01,-2198 127.01,-2198 127.01,-2198 127.01,-681 127.01,-514.68 183.32,-454.29 321.01,-361 598.17,-173.22 1687.87,-96.97 1962.1,-80.53"/>
<polygon fill="#7eceb0" stroke="#7eceb0" points="1962.5,-84.02 1972.27,-79.93 1962.08,-77.03 1962.5,-84.02"/>
</g>
<!-- at_location_flutter&#45;&gt;at_contact -->
<g id="edge97" class="edge">
<title>at_location_flutter&#45;&gt;at_contact</title>
<path fill="none" stroke="#250aa2" d="M699.33,-2784.88C770.32,-2747.46 932.78,-2650.95 1006.01,-2518 1059.34,-2421.17 1055.41,-2283.54 1050.81,-2225.5"/>
<polygon fill="#250aa2" stroke="#250aa2" points="1054.27,-2224.96 1049.92,-2215.3 1047.3,-2225.56 1054.27,-2224.96"/>
</g>
<!-- at_location_flutter&#45;&gt;at_contacts_flutter -->
<g id="edge101" class="edge">
<title>at_location_flutter&#45;&gt;at_contacts_flutter</title>
<path fill="none" stroke="#1267b5" d="M671.8,-2784.95C691.72,-2734.99 750.08,-2588.6 774.29,-2527.88"/>
<polygon fill="#1267b5" stroke="#1267b5" points="777.68,-2528.82 778.14,-2518.23 771.18,-2526.22 777.68,-2528.82"/>
</g>
<!-- at_location_flutter&#45;&gt;at_lookup -->
<g id="edge95" class="edge">
<title>at_location_flutter&#45;&gt;at_lookup</title>
<path fill="none" stroke="#94d42d" d="M591.88,-2786.23C455.43,-2752.39 179.45,-2660.95 222.01,-2482 408.87,-1696.28 996.51,-864.4 1109.95,-708.83"/>
<polygon fill="#94d42d" stroke="#94d42d" points="1113.08,-710.48 1116.16,-700.34 1107.43,-706.35 1113.08,-710.48"/>
</g>
<!-- at_location_flutter&#45;&gt;at_utils -->
<g id="edge98" class="edge">
<title>at_location_flutter&#45;&gt;at_utils</title>
<path fill="none" stroke="#75e849" d="M644.02,-2784.99C591.59,-2740.37 460.09,-2614.23 474.01,-2482 546.09,-1797.13 559.26,-1612.57 799.01,-967 852.24,-823.65 847.46,-765.31 962.01,-664 1174.07,-476.45 1523.99,-406.12 1647.31,-386.39"/>
<polygon fill="#75e849" stroke="#75e849" points="1648.17,-389.8 1657.51,-384.8 1647.09,-382.89 1648.17,-389.8"/>
</g>
<!-- at_login_flutter -->
<g id="node29" class="node">
<title>at_login_flutter</title>
<polygon fill="none" stroke="#7ceee7" points="2210.51,-2518 2085.51,-2518 2085.51,-2482 2210.51,-2482 2210.51,-2518"/>
<text text-anchor="middle" x="2148.01" y="-2496.3" font-family="Times,serif" font-size="14.00">at_login_flutter</text>
</g>
<!-- at_login_flutter&#45;&gt;at_client -->
<g id="edge102" class="edge">
<title>at_login_flutter&#45;&gt;at_client</title>
<path fill="none" stroke="#61d4fc" d="M2100.46,-2481.98C2006.97,-2446.31 1797.65,-2355.23 1675.01,-2215 1595.89,-2124.54 1556.47,-1981.8 1542.77,-1922.37"/>
<polygon fill="#61d4fc" stroke="#61d4fc" points="1546.11,-1921.27 1540.51,-1912.28 1539.28,-1922.8 1546.11,-1921.27"/>
</g>
<!-- at_login_flutter&#45;&gt;at_client_mobile -->
<g id="edge103" class="edge">
<title>at_login_flutter&#45;&gt;at_client_mobile</title>
<path fill="none" stroke="#d9577c" d="M2095.17,-2481.95C1934.27,-2430.05 1450.76,-2274.06 1277.57,-2218.18"/>
<polygon fill="#d9577c" stroke="#d9577c" points="1278.43,-2214.78 1267.84,-2215.04 1276.28,-2221.45 1278.43,-2214.78"/>
</g>
<!-- at_login_flutter&#45;&gt;at_commons -->
<g id="edge104" class="edge">
<title>at_login_flutter&#45;&gt;at_commons</title>
<path fill="none" stroke="#7eceb0" d="M2156.06,-2481.85C2197.64,-2391.7 2386.01,-1962.77 2386.01,-1592 2386.01,-1592 2386.01,-1592 2386.01,-1287 2386.01,-869.57 2389.8,-746.22 2229.01,-361 2184.24,-253.76 2092.36,-148.1 2048.85,-101.62"/>
<polygon fill="#7eceb0" stroke="#7eceb0" points="2051.22,-99.03 2041.81,-94.16 2046.13,-103.84 2051.22,-99.03"/>
</g>
<!-- at_login_flutter&#45;&gt;at_server_status -->
<g id="edge105" class="edge">
<title>at_login_flutter&#45;&gt;at_server_status</title>
<path fill="none" stroke="#320113" d="M2146.82,-2481.75C2136.3,-2328.65 2058.98,-1203.79 2045.89,-1013.35"/>
<polygon fill="#320113" stroke="#320113" points="2049.38,-1013.07 2045.2,-1003.33 2042.39,-1013.55 2049.38,-1013.07"/>
</g>
<!-- at_login_flutter&#45;&gt;at_utils -->
<g id="edge106" class="edge">
<title>at_login_flutter&#45;&gt;at_utils</title>
<path fill="none" stroke="#75e849" d="M2148.85,-2481.87C2155.97,-2334.07 2203.62,-1272.32 2120.01,-967 2049.58,-709.81 1803.54,-477.05 1720.01,-403.8"/>
<polygon fill="#75e849" stroke="#75e849" points="1722.28,-401.14 1712.44,-397.21 1717.68,-406.42 1722.28,-401.14"/>
</g>
<!-- at_lookup&#45;&gt;at_chops -->
<g id="edge109" class="edge">
<title>at_lookup&#45;&gt;at_chops</title>
<path fill="none" stroke="#8fb4d4" d="M1150.14,-700.3C1198.26,-741.04 1315.96,-848.58 1369.01,-967 1431.21,-1105.87 1376.39,-1159.35 1417.01,-1306 1444.4,-1404.9 1498.07,-1514.95 1523.29,-1563.98"/>
<polygon fill="#8fb4d4" stroke="#8fb4d4" points="1520.23,-1565.68 1527.94,-1572.95 1526.45,-1562.46 1520.23,-1565.68"/>
</g>
<!-- at_lookup&#45;&gt;at_commons -->
<g id="edge108" class="edge">
<title>at_lookup&#45;&gt;at_commons</title>
<path fill="none" stroke="#7eceb0" d="M1129.15,-663.78C1130.54,-611.06 1141.88,-450.03 1227.01,-361 1432.83,-145.76 1812.39,-93.34 1962.01,-80.82"/>
<polygon fill="#7eceb0" stroke="#7eceb0" points="1962.7,-84.28 1972.38,-79.99 1962.14,-77.3 1962.7,-84.28"/>
</g>
<!-- at_lookup&#45;&gt;at_utils -->
<g id="edge107" class="edge">
<title>at_lookup&#45;&gt;at_utils</title>
<path fill="none" stroke="#75e849" d="M1160.89,-663.95C1257.06,-612.54 1544.25,-459 1651.24,-401.8"/>
<polygon fill="#75e849" stroke="#75e849" points="1652.96,-404.85 1660.13,-397.04 1649.66,-398.67 1652.96,-404.85"/>
</g>
<!-- at_notify_flutter -->
<g id="node31" class="node">
<title>at_notify_flutter</title>
<polygon fill="none" stroke="#19e4c3" points="1260.51,-2518 1129.51,-2518 1129.51,-2482 1260.51,-2482 1260.51,-2518"/>
<text text-anchor="middle" x="1195.01" y="-2496.3" font-family="Times,serif" font-size="14.00">at_notify_flutter</text>
</g>
<!-- at_notify_flutter&#45;&gt;at_client -->
<g id="edge111" class="edge">
<title>at_notify_flutter&#45;&gt;at_client</title>
<path fill="none" stroke="#61d4fc" d="M1204.69,-2481.9C1252.6,-2397.28 1464.28,-2023.45 1522.27,-1921.02"/>
<polygon fill="#61d4fc" stroke="#61d4fc" points="1525.36,-1922.67 1527.24,-1912.24 1519.27,-1919.22 1525.36,-1922.67"/>
</g>
<!-- at_notify_flutter&#45;&gt;at_client_mobile -->
<g id="edge110" class="edge">
<title>at_notify_flutter&#45;&gt;at_client_mobile</title>
<path fill="none" stroke="#d9577c" d="M1196.14,-2481.95C1199.45,-2432.09 1209.15,-2286.2 1213.2,-2225.25"/>
<polygon fill="#d9577c" stroke="#d9577c" points="1216.69,-2225.44 1213.86,-2215.23 1209.71,-2224.98 1216.69,-2225.44"/>
</g>
<!-- at_notify_flutter&#45;&gt;at_common_flutter -->
<g id="edge113" class="edge">
<title>at_notify_flutter&#45;&gt;at_common_flutter</title>
<path fill="none" stroke="#bf681f" d="M1163.86,-2481.95C1070,-2430.59 789.92,-2277.31 685.15,-2219.97"/>
<polygon fill="#bf681f" stroke="#bf681f" points="686.6,-2216.78 676.15,-2215.04 683.24,-2222.92 686.6,-2216.78"/>
</g>
<!-- at_notify_flutter&#45;&gt;at_commons -->
<g id="edge112" class="edge">
<title>at_notify_flutter&#45;&gt;at_commons</title>
<path fill="none" stroke="#7eceb0" d="M1190.7,-2481.8C1178.47,-2433.52 1141.83,-2292.86 1102.01,-2179 867.39,-1508.13 631.73,-1397.24 494.01,-700 464.81,-552.19 397.67,-476.85 494.01,-361 686.11,-129.99 1698.86,-86.03 1962.32,-78.46"/>
<polygon fill="#7eceb0" stroke="#7eceb0" points="1962.57,-81.95 1972.47,-78.18 1962.38,-74.96 1962.57,-81.95"/>
</g>
<!-- at_onboarding_cli&#45;&gt;at_chops -->
<g id="edge119" class="edge">
<title>at_onboarding_cli&#45;&gt;at_chops</title>
<path fill="none" stroke="#8fb4d4" d="M1770.39,-1306.23C1733.61,-1356.95 1613.08,-1505.87 1561.04,-1565.2"/>
<polygon fill="#8fb4d4" stroke="#8fb4d4" points="1558.17,-1563.15 1554.16,-1572.95 1563.41,-1567.79 1558.17,-1563.15"/>
</g>
<!-- at_onboarding_cli&#45;&gt;at_client -->
<g id="edge115" class="edge">
<title>at_onboarding_cli&#45;&gt;at_client</title>
<path fill="none" stroke="#61d4fc" d="M1774.04,-1306.24C1739.8,-1391 1589.32,-1763.51 1547.7,-1866.52"/>
<polygon fill="#61d4fc" stroke="#61d4fc" points="1544.42,-1865.31 1543.92,-1875.9 1550.91,-1867.94 1544.42,-1865.31"/>
</g>
<!-- at_onboarding_cli&#45;&gt;at_commons -->
<g id="edge117" class="edge">
<title>at_onboarding_cli&#45;&gt;at_commons</title>
<path fill="none" stroke="#7eceb0" d="M1787.35,-1269.95C1803.42,-1226.19 1846.23,-1106.1 1871.01,-1003 1955.22,-652.59 2008.85,-216.6 2021.9,-104.35"/>
<polygon fill="#7eceb0" stroke="#7eceb0" points="2025.4,-104.56 2023.07,-94.23 2018.45,-103.76 2025.4,-104.56"/>
</g>
<!-- at_onboarding_cli&#45;&gt;at_lookup -->
<g id="edge116" class="edge">
<title>at_onboarding_cli&#45;&gt;at_lookup</title>
<path fill="none" stroke="#94d42d" d="M1762.54,-1269.9C1670.65,-1184.77 1262.77,-806.92 1155.13,-707.2"/>
<polygon fill="#94d42d" stroke="#94d42d" points="1157.33,-704.47 1147.62,-700.24 1152.58,-709.61 1157.33,-704.47"/>
</g>
<!-- at_onboarding_cli&#45;&gt;at_server_status -->
<g id="edge118" class="edge">
<title>at_onboarding_cli&#45;&gt;at_server_status</title>
<path fill="none" stroke="#320113" d="M1795.9,-1269.95C1840.01,-1219.47 1970.12,-1070.56 2022.14,-1011.02"/>
<polygon fill="#320113" stroke="#320113" points="2025.01,-1013.06 2028.95,-1003.23 2019.74,-1008.46 2025.01,-1013.06"/>
</g>
<!-- at_onboarding_cli&#45;&gt;at_utils -->
<g id="edge114" class="edge">
<title>at_onboarding_cli&#45;&gt;at_utils</title>
<path fill="none" stroke="#75e849" d="M1787.3,-1269.83C1813.47,-1195.97 1909.49,-898.41 1849.01,-664 1822.11,-559.75 1747.88,-452.88 1711.97,-405.4"/>
<polygon fill="#75e849" stroke="#75e849" points="1714.59,-403.06 1705.73,-397.24 1709.03,-407.31 1714.59,-403.06"/>
</g>
<!-- at_onboarding_flutter&#45;&gt;at_backupkey_flutter -->
<g id="edge120" class="edge">
<title>at_onboarding_flutter&#45;&gt;at_backupkey_flutter</title>
<path fill="none" stroke="#590b92" d="M2092.19,-2784.95C2023.91,-2733.96 1821.14,-2582.51 1743.1,-2524.22"/>
<polygon fill="#590b92" stroke="#590b92" points="1745.18,-2521.41 1735.08,-2518.23 1741,-2527.02 1745.18,-2521.41"/>
</g>
<!-- at_onboarding_flutter&#45;&gt;at_client -->
<g id="edge121" class="edge">
<title>at_onboarding_flutter&#45;&gt;at_client</title>
<path fill="none" stroke="#61d4fc" d="M2103.25,-2784.75C2069.62,-2735.78 1969.37,-2592.27 1875.01,-2482 1767.32,-2356.15 1695.23,-2359.91 1615.01,-2215 1560.37,-2116.3 1543.62,-1979.68 1538.81,-1922.2"/>
<polygon fill="#61d4fc" stroke="#61d4fc" points="1542.29,-1921.8 1538.02,-1912.11 1535.31,-1922.35 1542.29,-1921.8"/>
</g>
<!-- at_onboarding_flutter&#45;&gt;at_client_mobile -->
<g id="edge122" class="edge">
<title>at_onboarding_flutter&#45;&gt;at_client_mobile</title>
<path fill="none" stroke="#d9577c" d="M2078.72,-2784.92C1994.35,-2744.42 1779.98,-2637.02 1620.01,-2518 1601.34,-2504.11 1599.67,-2497.14 1582.01,-2482 1462.57,-2379.65 1311.85,-2268.24 1247.04,-2221.11"/>
<polygon fill="#d9577c" stroke="#d9577c" points="1248.98,-2218.2 1238.83,-2215.16 1244.87,-2223.86 1248.98,-2218.2"/>
</g>
<!-- at_onboarding_flutter&#45;&gt;at_commons -->
<g id="edge123" class="edge">
<title>at_onboarding_flutter&#45;&gt;at_commons</title>
<path fill="none" stroke="#7eceb0" d="M2124.46,-2784.88C2148.12,-2741.43 2210.68,-2622.9 2248.01,-2518 2481.97,-1860.51 2626.25,-1652.04 2493.01,-967 2437.54,-681.83 2393.6,-612.4 2248.01,-361 2187.57,-256.64 2092.04,-148.76 2048.29,-101.57"/>
<polygon fill="#7eceb0" stroke="#7eceb0" points="2050.61,-98.93 2041.23,-94 2045.49,-103.71 2050.61,-98.93"/>
</g>
<!-- at_onboarding_flutter&#45;&gt;at_server_status -->
<g id="edge124" class="edge">
<title>at_onboarding_flutter&#45;&gt;at_server_status</title>
<path fill="none" stroke="#320113" d="M2123.75,-2784.99C2145.38,-2741.8 2201.07,-2623.82 2220.01,-2518 2222.83,-2502.25 2220.52,-2497.99 2220.01,-2482 2211.34,-2212.25 2210.23,-2144.3 2181.01,-1876 2143.73,-1533.8 2069.23,-1121.85 2049.11,-1013.29"/>
<polygon fill="#320113" stroke="#320113" points="2052.5,-1012.38 2047.23,-1003.19 2045.62,-1013.66 2052.5,-1012.38"/>
</g>
<!-- at_sync_ui_flutter -->
<g id="node44" class="node">
<title>at_sync_ui_flutter</title>
<polygon fill="none" stroke="#27d02d" points="1573.01,-2518 1431.01,-2518 1431.01,-2482 1573.01,-2482 1573.01,-2518"/>
<text text-anchor="middle" x="1502.01" y="-2496.3" font-family="Times,serif" font-size="14.00">at_sync_ui_flutter</text>
</g>
<!-- at_onboarding_flutter&#45;&gt;at_sync_ui_flutter -->
<g id="edge126" class="edge">
<title>at_onboarding_flutter&#45;&gt;at_sync_ui_flutter</title>
<path fill="none" stroke="#27d02d" d="M2080.29,-2784.95C1975.47,-2733.48 1662.26,-2579.69 1546.04,-2522.62"/>
<polygon fill="#27d02d" stroke="#27d02d" points="1547.24,-2519.31 1536.72,-2518.04 1544.15,-2525.59 1547.24,-2519.31"/>
</g>
<!-- at_onboarding_flutter&#45;&gt;at_utils -->
<g id="edge125" class="edge">
<title>at_onboarding_flutter&#45;&gt;at_utils</title>
<path fill="none" stroke="#75e849" d="M2125.08,-2784.84C2149.71,-2741.78 2212.51,-2624.92 2234.01,-2518 2237.16,-2502.31 2234.3,-2498 2234.01,-2482 2221.77,-1807.46 2315.34,-1618.2 2139.01,-967 2099.73,-821.96 2077.99,-785.09 1989.01,-664 1907.67,-553.31 1780.69,-448.48 1722.72,-403.3"/>
<polygon fill="#75e849" stroke="#75e849" points="1724.73,-400.43 1714.69,-397.08 1720.45,-405.97 1724.73,-400.43"/>
</g>
<!-- at_persistence_root_server -->
<g id="node34" class="node">
<title>at_persistence_root_server</title>
<polygon fill="none" stroke="#831d2e" points="3178.51,-700 2969.51,-700 2969.51,-664 3178.51,-664 3178.51,-700"/>
<text text-anchor="middle" x="3074.01" y="-678.3" font-family="Times,serif" font-size="14.00">at_persistence_root_server</text>
</g>
<!-- at_persistence_root_server&#45;&gt;at_commons -->
<g id="edge127" class="edge">
<title>at_persistence_root_server&#45;&gt;at_commons</title>
<path fill="none" stroke="#7eceb0" d="M3070.58,-663.86C3059.03,-610.67 3016.61,-446.86 2917.01,-361 2664.96,-143.72 2245.47,-92.33 2087.63,-80.46"/>
<polygon fill="#7eceb0" stroke="#7eceb0" points="2087.84,-76.97 2077.61,-79.74 2087.34,-83.95 2087.84,-76.97"/>
</g>
<!-- at_persistence_root_server&#45;&gt;at_persistence_spec -->
<g id="edge129" class="edge">
<title>at_persistence_root_server&#45;&gt;at_persistence_spec</title>
<path fill="none" stroke="#3bfcef" d="M3058.26,-663.95C3011.55,-613.37 2873.55,-463.96 2818.78,-404.66"/>
<polygon fill="#3bfcef" stroke="#3bfcef" points="2821.28,-402.2 2811.92,-397.23 2816.14,-406.95 2821.28,-402.2"/>
</g>
<!-- at_persistence_root_server&#45;&gt;at_utils -->
<g id="edge128" class="edge">
<title>at_persistence_root_server&#45;&gt;at_utils</title>
<path fill="none" stroke="#75e849" d="M2995.74,-663.95C2740.1,-608.27 1934.64,-432.85 1736.41,-389.67"/>
<polygon fill="#75e849" stroke="#75e849" points="1737.15,-386.25 1726.63,-387.54 1735.66,-393.09 1737.15,-386.25"/>
</g>
<!-- redis -->
<g id="node50" class="node">
<title>redis</title>
<polygon fill="none" stroke="#5cceca" points="3101.01,-397 3047.01,-397 3047.01,-361 3101.01,-361 3101.01,-397"/>
<text text-anchor="middle" x="3074.01" y="-375.3" font-family="Times,serif" font-size="14.00">redis</text>
</g>
<!-- at_persistence_root_server&#45;&gt;redis -->
<g id="edge130" class="edge">
<title>at_persistence_root_server&#45;&gt;redis</title>
<path fill="none" stroke="#5cceca" d="M3074.01,-663.95C3074.01,-614.09 3074.01,-468.2 3074.01,-407.25"/>
<polygon fill="#5cceca" stroke="#5cceca" points="3077.51,-407.23 3074.01,-397.23 3070.51,-407.23 3077.51,-407.23"/>
</g>
<!-- at_persistence_secondary_server&#45;&gt;at_commons -->
<g id="edge131" class="edge">
<title>at_persistence_secondary_server&#45;&gt;at_commons</title>
<path fill="none" stroke="#7eceb0" d="M2667.07,-663.76C2648.67,-612.33 2588.14,-457.54 2495.01,-361 2369.26,-230.65 2171.31,-137.37 2077.58,-97.92"/>
<polygon fill="#7eceb0" stroke="#7eceb0" points="2078.87,-94.66 2068.29,-94.04 2076.17,-101.12 2078.87,-94.66"/>
</g>
<!-- at_persistence_secondary_server&#45;&gt;at_persistence_spec -->
<g id="edge133" class="edge">
<title>at_persistence_secondary_server&#45;&gt;at_persistence_spec</title>
<path fill="none" stroke="#3bfcef" d="M2679.97,-663.95C2700.43,-613.89 2760.46,-466.99 2785.18,-406.5"/>
<polygon fill="#3bfcef" stroke="#3bfcef" points="2788.42,-407.81 2788.97,-397.23 2781.94,-405.16 2788.42,-407.81"/>
</g>
<!-- at_persistence_secondary_server&#45;&gt;at_utils -->
<g id="edge132" class="edge">
<title>at_persistence_secondary_server&#45;&gt;at_utils</title>
<path fill="none" stroke="#75e849" d="M2617.45,-663.95C2441.16,-609.86 1896.53,-442.75 1736.6,-393.68"/>
<polygon fill="#75e849" stroke="#75e849" points="1737.21,-390.21 1726.63,-390.62 1735.16,-396.9 1737.21,-390.21"/>
</g>
<!-- at_repl -->
<g id="node38" class="node">
<title>at_repl</title>
<polygon fill="none" stroke="#1494d0" points="1967.01,-2215 1901.01,-2215 1901.01,-2179 1967.01,-2179 1967.01,-2215"/>
<text text-anchor="middle" x="1934.01" y="-2193.3" font-family="Times,serif" font-size="14.00">at_repl</text>
</g>
<!-- at_repl&#45;&gt;at_client -->
<g id="edge134" class="edge">
<title>at_repl&#45;&gt;at_client</title>
<path fill="none" stroke="#61d4fc" d="M1911.52,-2178.95C1844.4,-2128.06 1645.32,-1977.12 1568.1,-1918.58"/>
<polygon fill="#61d4fc" stroke="#61d4fc" points="1569.82,-1915.48 1559.73,-1912.23 1565.59,-1921.06 1569.82,-1915.48"/>
</g>
<!-- at_repl&#45;&gt;at_commons -->
<g id="edge135" class="edge">
<title>at_repl&#45;&gt;at_commons</title>
<path fill="none" stroke="#7eceb0" d="M1939.31,-2178.8C1972.24,-2070.1 2146.61,-1466.94 2120.01,-967 2101.82,-625.33 2044.64,-213 2029,-104.32"/>
<polygon fill="#7eceb0" stroke="#7eceb0" points="2032.43,-103.61 2027.53,-94.21 2025.5,-104.61 2032.43,-103.61"/>
</g>
<!-- at_repl&#45;&gt;at_onboarding_cli -->
<g id="edge136" class="edge">
<title>at_repl&#45;&gt;at_onboarding_cli</title>
<path fill="none" stroke="#514d2d" d="M1931.09,-2178.69C1912.32,-2067.45 1808.74,-1453.42 1785.6,-1316.2"/>
<polygon fill="#514d2d" stroke="#514d2d" points="1789.01,-1315.4 1783.9,-1306.12 1782.11,-1316.57 1789.01,-1315.4"/>
</g>
<!-- at_repl&#45;&gt;at_utils -->
<g id="edge137" class="edge">
<title>at_repl&#45;&gt;at_utils</title>
<path fill="none" stroke="#75e849" d="M1927.71,-2178.76C1895.35,-2089.11 1747.4,-1666.39 1701.01,-1306 1682.72,-1163.91 1783.19,-1143.54 1811.01,-1003 1840.26,-855.2 1840.7,-811.71 1811.01,-664 1790.86,-563.77 1734.4,-454.79 1707.13,-406.08"/>
<polygon fill="#75e849" stroke="#75e849" points="1710.05,-404.14 1702.08,-397.16 1703.96,-407.59 1710.05,-404.14"/>
</g>
<!-- at_root_server -->
<g id="node39" class="node">
<title>at_root_server</title>
<polygon fill="none" stroke="#9dd431" points="3154.51,-1003 3035.51,-1003 3035.51,-967 3154.51,-967 3154.51,-1003"/>
<text text-anchor="middle" x="3095.01" y="-981.3" font-family="Times,serif" font-size="14.00">at_root_server</text>
</g>
<!-- at_root_server&#45;&gt;at_commons -->
<g id="edge138" class="edge">
<title>at_root_server&#45;&gt;at_commons</title>
<path fill="none" stroke="#7eceb0" d="M3102.75,-966.86C3121.93,-923.38 3171.29,-804.77 3188.01,-700 3208.81,-569.62 3182.82,-434.11 3110.01,-361 2962.22,-212.61 2296.67,-113.07 2087.87,-85.06"/>
<polygon fill="#7eceb0" stroke="#7eceb0" points="2088.07,-81.56 2077.69,-83.7 2087.14,-88.5 2088.07,-81.56"/>
</g>
<!-- at_root_server&#45;&gt;at_persistence_root_server -->
<g id="edge141" class="edge">
<title>at_root_server&#45;&gt;at_persistence_root_server</title>
<path fill="none" stroke="#831d2e" d="M3093.82,-966.95C3090.34,-917.09 3080.16,-771.2 3075.91,-710.25"/>
<polygon fill="#831d2e" stroke="#831d2e" points="3079.4,-709.96 3075.21,-700.23 3072.41,-710.45 3079.4,-709.96"/>
</g>
<!-- at_root_server&#45;&gt;at_server_spec -->
<g id="edge140" class="edge">
<title>at_root_server&#45;&gt;at_server_spec</title>
<path fill="none" stroke="#e6f023" d="M3109.56,-966.95C3152.66,-916.47 3279.8,-767.56 3330.64,-708.02"/>
<polygon fill="#e6f023" stroke="#e6f023" points="3333.46,-710.11 3337.29,-700.23 3328.14,-705.56 3333.46,-710.11"/>
</g>
<!-- at_root_server&#45;&gt;at_utils -->
<g id="edge139" class="edge">
<title>at_root_server&#45;&gt;at_utils</title>
<path fill="none" stroke="#75e849" d="M3084.94,-966.92C3052.37,-913.19 2943.98,-746.33 2808.01,-664 2437.71,-439.79 1895.45,-391.69 1737.02,-382.18"/>
<polygon fill="#75e849" stroke="#75e849" points="1736.9,-378.67 1726.71,-381.59 1736.49,-385.66 1736.9,-378.67"/>
</g>
<!-- at_secondary -->
<g id="node40" class="node">
<title>at_secondary</title>
<polygon fill="none" stroke="#1b8948" points="2864.01,-1912 2754.01,-1912 2754.01,-1876 2864.01,-1876 2864.01,-1912"/>
<text text-anchor="middle" x="2809.01" y="-1890.3" font-family="Times,serif" font-size="14.00">at_secondary</text>
</g>
<!-- at_secondary&#45;&gt;at_chops -->
<g id="edge144" class="edge">
<title>at_secondary&#45;&gt;at_chops</title>
<path fill="none" stroke="#8fb4d4" d="M2753.94,-1879.97C2543.03,-1830.06 1788.33,-1651.47 1586.78,-1603.78"/>
<polygon fill="#8fb4d4" stroke="#8fb4d4" points="1587.32,-1600.31 1576.78,-1601.41 1585.7,-1607.12 1587.32,-1600.31"/>
</g>
<!-- at_secondary&#45;&gt;at_commons -->
<g id="edge142" class="edge">
<title>at_secondary&#45;&gt;at_commons</title>
<path fill="none" stroke="#7eceb0" d="M2813.67,-1875.86C2832.64,-1804.53 2903.01,-1524.06 2903.01,-1289 2903.01,-1289 2903.01,-1289 2903.01,-681 2903.01,-538.55 2971.67,-474.05 2885.01,-361 2784.37,-229.72 2268.26,-122.4 2087.57,-88.33"/>
<polygon fill="#7eceb0" stroke="#7eceb0" points="2088.16,-84.88 2077.69,-86.47 2086.87,-91.76 2088.16,-84.88"/>
</g>
<!-- at_secondary&#45;&gt;at_lookup -->
<g id="edge145" class="edge">
<title>at_secondary&#45;&gt;at_lookup</title>
<path fill="none" stroke="#94d42d" d="M2753.77,-1882.64C2509.72,-1836.68 1537.92,-1651.58 1488.01,-1609 1338.76,-1481.66 1171.16,-848.96 1135.78,-710.01"/>
<polygon fill="#94d42d" stroke="#94d42d" points="1139.14,-709.01 1133.29,-700.17 1132.35,-710.73 1139.14,-709.01"/>
</g>
<!-- at_secondary&#45;&gt;at_persistence_secondary_server -->
<g id="edge148" class="edge">
<title>at_secondary&#45;&gt;at_persistence_secondary_server</title>
<path fill="none" stroke="#9760d3" d="M2809.24,-1875.81C2810.23,-1782.74 2811.57,-1330.05 2751.01,-967 2734.9,-870.48 2699.28,-759.54 2682.33,-709.7"/>
<polygon fill="#9760d3" stroke="#9760d3" points="2685.56,-708.34 2679.01,-700.01 2678.94,-710.61 2685.56,-708.34"/>
</g>
<!-- at_secondary&#45;&gt;at_persistence_spec -->
<g id="edge147" class="edge">
<title>at_secondary&#45;&gt;at_persistence_spec</title>
<path fill="none" stroke="#3bfcef" d="M2811.78,-1875.76C2823.08,-1804.04 2865.01,-1522.26 2865.01,-1289 2865.01,-1289 2865.01,-1289 2865.01,-984 2865.01,-759.81 2817.5,-491.82 2801.33,-407.07"/>
<polygon fill="#3bfcef" stroke="#3bfcef" points="2804.76,-406.37 2799.43,-397.21 2797.88,-407.7 2804.76,-406.37"/>
</g>
<!-- at_secondary&#45;&gt;at_server_spec -->
<g id="edge146" class="edge">
<title>at_secondary&#45;&gt;at_server_spec</title>
<path fill="none" stroke="#e6f023" d="M2818.09,-1875.73C2865.18,-1785.91 3085.06,-1362.48 3236.01,-1003 3280.82,-896.28 3324.97,-765.53 3343.23,-710"/>
<polygon fill="#e6f023" stroke="#e6f023" points="3346.65,-710.82 3346.43,-700.23 3339.99,-708.64 3346.65,-710.82"/>
</g>
<!-- at_secondary&#45;&gt;at_utils -->
<g id="edge143" class="edge">
<title>at_secondary&#45;&gt;at_utils</title>
<path fill="none" stroke="#75e849" d="M2805.47,-1875.63C2777.67,-1740.49 2590.48,-857.18 2409.01,-664 2217.53,-460.17 1861.18,-399.89 1736.48,-384.61"/>
<polygon fill="#75e849" stroke="#75e849" points="1736.87,-381.13 1726.52,-383.42 1736.04,-388.08 1736.87,-381.13"/>
</g>
<!-- at_secondary_proxy -->
<g id="node41" class="node">
<title>at_secondary_proxy</title>
<polygon fill="none" stroke="#35c7f7" points="1769.01,-1003 1611.01,-1003 1611.01,-967 1769.01,-967 1769.01,-1003"/>
<text text-anchor="middle" x="1690.01" y="-981.3" font-family="Times,serif" font-size="14.00">at_secondary_proxy</text>
</g>
<!-- at_secondary_proxy&#45;&gt;at_commons -->
<g id="edge149" class="edge">
<title>at_secondary_proxy&#45;&gt;at_commons</title>
<path fill="none" stroke="#7eceb0" d="M1696.4,-966.69C1737.53,-855.34 1964.73,-240.19 2015.11,-103.79"/>
<polygon fill="#7eceb0" stroke="#7eceb0" points="2018.5,-104.72 2018.68,-94.12 2011.93,-102.29 2018.5,-104.72"/>
</g>
<!-- at_secondary_proxy&#45;&gt;at_lookup -->
<g id="edge151" class="edge">
<title>at_secondary_proxy&#45;&gt;at_lookup</title>
<path fill="none" stroke="#94d42d" d="M1658.24,-966.95C1562.4,-915.54 1276.24,-762 1169.63,-704.8"/>
<polygon fill="#94d42d" stroke="#94d42d" points="1171.24,-701.69 1160.77,-700.04 1167.93,-707.86 1171.24,-701.69"/>
</g>
<!-- at_secondary_proxy&#45;&gt;at_utils -->
<g id="edge150" class="edge">
<title>at_secondary_proxy&#45;&gt;at_utils</title>
<path fill="none" stroke="#75e849" d="M1690.06,-966.9C1690.34,-882.62 1691.57,-511.45 1691.92,-407.27"/>
<polygon fill="#75e849" stroke="#75e849" points="1695.42,-407.25 1691.95,-397.24 1688.42,-407.23 1695.42,-407.25"/>
</g>
<!-- at_server_spec&#45;&gt;at_commons -->
<g id="edge152" class="edge">
<title>at_server_spec&#45;&gt;at_commons</title>
<path fill="none" stroke="#7eceb0" d="M3353.7,-663.82C3357.93,-610.52 3363.05,-446.43 3277.01,-361 3104.49,-189.71 2316.86,-104.12 2087.72,-82.56"/>
<polygon fill="#7eceb0" stroke="#7eceb0" points="2087.83,-79.05 2077.55,-81.61 2087.18,-86.02 2087.83,-79.05"/>
</g>
<!-- at_server_status&#45;&gt;at_commons -->
<g id="edge153" class="edge">
<title>at_server_status&#45;&gt;at_commons</title>
<path fill="none" stroke="#7eceb0" d="M2044.13,-966.65C2044.59,-893.26 2045.88,-601.02 2039.01,-361 2036.31,-266.76 2029.84,-155.06 2026.73,-104.41"/>
<polygon fill="#7eceb0" stroke="#7eceb0" points="2030.22,-104.04 2026.11,-94.28 2023.23,-104.48 2030.22,-104.04"/>
</g>
<!-- at_server_status&#45;&gt;at_lookup -->
<g id="edge155" class="edge">
<title>at_server_status&#45;&gt;at_lookup</title>
<path fill="none" stroke="#94d42d" d="M1992.19,-966.95C1831.48,-914.09 1342.6,-753.26 1181.28,-700.19"/>
<polygon fill="#94d42d" stroke="#94d42d" points="1182.17,-696.8 1171.58,-697 1179.98,-703.45 1182.17,-696.8"/>
</g>
<!-- at_server_status&#45;&gt;at_utils -->
<g id="edge154" class="edge">
<title>at_server_status&#45;&gt;at_utils</title>
<path fill="none" stroke="#75e849" d="M2039.78,-966.82C2027.18,-917.42 1986.87,-771.67 1925.01,-664 1863.91,-557.67 1763.13,-450.84 1716.76,-404.25"/>
<polygon fill="#75e849" stroke="#75e849" points="1719.09,-401.63 1709.54,-397.04 1714.14,-406.59 1719.09,-401.63"/>
</g>
<!-- at_sync_ui_flutter&#45;&gt;at_client -->
<g id="edge156" class="edge">
<title>at_sync_ui_flutter&#45;&gt;at_client</title>
<path fill="none" stroke="#61d4fc" d="M1495.04,-2481.69C1476.6,-2433.7 1429.09,-2294.87 1447.01,-2179 1462.13,-2081.21 1504.92,-1970.96 1525.57,-1921.5"/>
<polygon fill="#61d4fc" stroke="#61d4fc" points="1528.85,-1922.74 1529.51,-1912.17 1522.4,-1920.02 1528.85,-1922.74"/>
</g>
<!-- at_sync_ui_flutter&#45;&gt;at_client_mobile -->
<g id="edge157" class="edge">
<title>at_sync_ui_flutter&#45;&gt;at_client_mobile</title>
<path fill="none" stroke="#d9577c" d="M1485.75,-2481.95C1437.52,-2431.37 1295.06,-2281.96 1238.52,-2222.66"/>
<polygon fill="#d9577c" stroke="#d9577c" points="1240.87,-2220.05 1231.44,-2215.23 1235.8,-2224.88 1240.87,-2220.05"/>
</g>
<!-- at_sync_ui_flutter&#45;&gt;at_common_flutter -->
<g id="edge158" class="edge">
<title>at_sync_ui_flutter&#45;&gt;at_common_flutter</title>
<path fill="none" stroke="#bf681f" d="M1453.48,-2481.95C1305.9,-2430.12 862.88,-2274.52 703.19,-2218.43"/>
<polygon fill="#bf681f" stroke="#bf681f" points="704.13,-2215.06 693.54,-2215.04 701.81,-2221.66 704.13,-2215.06"/>
</g>
<!-- at_theme_flutter -->
<g id="node45" class="node">
<title>at_theme_flutter</title>
<polygon fill="none" stroke="#2ec850" points="617.01,-2518 483.01,-2518 483.01,-2482 617.01,-2482 617.01,-2518"/>
<text text-anchor="middle" x="550.01" y="-2496.3" font-family="Times,serif" font-size="14.00">at_theme_flutter</text>
</g>
<!-- at_theme_flutter&#45;&gt;at_client_mobile -->
<g id="edge159" class="edge">
<title>at_theme_flutter&#45;&gt;at_client_mobile</title>
<path fill="none" stroke="#d9577c" d="M587.67,-2481.95C701.61,-2430.38 1042.53,-2276.07 1167.99,-2219.28"/>
<polygon fill="#d9577c" stroke="#d9577c" points="1169.68,-2222.36 1177.35,-2215.04 1166.8,-2215.98 1169.68,-2222.36"/>
</g>
<!-- at_theme_flutter&#45;&gt;at_common_flutter -->
<g id="edge160" class="edge">
<title>at_theme_flutter&#45;&gt;at_common_flutter</title>
<path fill="none" stroke="#bf681f" d="M555.39,-2481.95C571.16,-2431.99 617.36,-2285.6 636.52,-2224.88"/>
<polygon fill="#bf681f" stroke="#bf681f" points="639.9,-2225.82 639.57,-2215.23 633.22,-2223.71 639.9,-2225.82"/>
</g>
<!-- at_theme_flutter&#45;&gt;at_commons -->
<g id="edge161" class="edge">
<title>at_theme_flutter&#45;&gt;at_commons</title>
<path fill="none" stroke="#7eceb0" d="M548.44,-2481.97C533.54,-2316.35 421.44,-991.37 619.01,-664 917.33,-169.68 1729.04,-91.57 1961.83,-79.28"/>
<polygon fill="#7eceb0" stroke="#7eceb0" points="1962.34,-82.76 1972.15,-78.76 1961.98,-75.77 1962.34,-82.76"/>
</g>
<!-- at_theme_flutter&#45;&gt;at_utils -->
<g id="edge162" class="edge">
<title>at_theme_flutter&#45;&gt;at_utils</title>
<path fill="none" stroke="#75e849" d="M549.58,-2481.92C548.59,-2433.97 547.21,-2294.08 561.01,-2179 569.19,-2110.73 786.14,-1030.71 812.01,-967 872.07,-819.06 882.66,-766.59 1005.01,-664 1209,-492.94 1530.29,-413.16 1647.41,-388.62"/>
<polygon fill="#75e849" stroke="#75e849" points="1648.36,-392 1657.44,-386.55 1646.94,-385.14 1648.36,-392"/>
</g>
<!-- at_utils&#45;&gt;at_commons -->
<g id="edge163" class="edge">
<title>at_utils&#45;&gt;at_commons</title>
<path fill="none" stroke="#7eceb0" d="M1710.86,-360.95C1766.94,-310.27 1932.8,-160.34 1998.13,-101.29"/>
<polygon fill="#7eceb0" stroke="#7eceb0" points="2000.87,-103.53 2005.94,-94.23 1996.18,-98.34 2000.87,-103.53"/>
</g>
<!-- at_ve_doctor -->
<g id="node47" class="node">
<title>at_ve_doctor</title>
<polygon fill="none" stroke="#193e4e" points="2015.51,-1306 1908.51,-1306 1908.51,-1270 2015.51,-1270 2015.51,-1306"/>
<text text-anchor="middle" x="1962.01" y="-1284.3" font-family="Times,serif" font-size="14.00">at_ve_doctor</text>
</g>
<!-- at_ve_doctor&#45;&gt;at_server_status -->
<g id="edge164" class="edge">
<title>at_ve_doctor&#45;&gt;at_server_status</title>
<path fill="none" stroke="#320113" d="M1966.65,-1269.95C1980.23,-1220.09 2019.98,-1074.2 2036.58,-1013.25"/>
<polygon fill="#320113" stroke="#320113" points="2040.06,-1013.8 2039.31,-1003.23 2033.31,-1011.96 2040.06,-1013.8"/>
</g>
<!-- base2e15 -->
<g id="node48" class="node">
<title>base2e15</title>
<polygon fill="none" stroke="#2bcf07" points="3009.51,-3124 2924.51,-3124 2924.51,-3088 3009.51,-3088 3009.51,-3124"/>
<text text-anchor="middle" x="2967.01" y="-3102.3" font-family="Times,serif" font-size="14.00">base2e15</text>
</g>
<!-- dart_utf7 -->
<g id="node49" class="node">
<title>dart_utf7</title>
<polygon fill="none" stroke="#f889f9" points="3110.51,-3124 3027.51,-3124 3027.51,-3088 3110.51,-3088 3110.51,-3124"/>
<text text-anchor="middle" x="3069.01" y="-3102.3" font-family="Times,serif" font-size="14.00">dart_utf7</text>
</g>
<!-- \n -->
<g id="node51" class="node">
<title>\n</title>
<ellipse fill="none" stroke="black" cx="3156.01" cy="-3106" rx="27" ry="18"/>
</g>
</g>
</svg>
