<?xml version="1.0" encoding="UTF-8" standalone="no"?>
<!DOCTYPE svg PUBLIC "-//W3C//DTD SVG 1.1//EN"
 "http://www.w3.org/Graphics/SVG/1.1/DTD/svg11.dtd">
<!-- Generated by graphviz version 2.43.0 (0)
 -->
<!-- Title: packages Pages: 1 -->
<svg width="720pt" height="613pt"
 viewBox="0.00 0.00 720.00 613.37" xmlns="http://www.w3.org/2000/svg" xmlns:xlink="http://www.w3.org/1999/xlink">
<g id="graph0" class="graph" transform="scale(0.15952284943258607 0.15952284943258607) rotate(0) translate(4 3841)">
<title>packages</title>
<polygon fill="white" stroke="transparent" points="-4,4 -4,-3841 4509.46,-3841 4509.46,4 -4,4"/>
<g id="clust1" class="cluster">
<title>cluster modules/at_widgets/packages</title>
<polygon fill="none" stroke="#43032a" points="1806.71,-1669.81 1806.71,-3780.16 2991.71,-3780.16 2991.71,-1669.81 1806.71,-1669.81"/>
<text text-anchor="middle" x="2399.21" y="-3764.96" font-family="Times,serif" font-size="14.00">modules/at_widgets/packages</text>
</g>
<g id="clust2" class="cluster">
<title>cluster modules/at_libraries/packages</title>
<polygon fill="none" stroke="#5bc800" points="2999.71,-56.84 2999.71,-2202.72 3626.71,-2202.72 3626.71,-56.84 2999.71,-56.84"/>
<text text-anchor="middle" x="3313.21" y="-2187.52" font-family="Times,serif" font-size="14.00">modules/at_libraries/packages</text>
</g>
<g id="clust3" class="cluster">
<title>cluster modules/at_tools/packages</title>
<polygon fill="none" stroke="#b27a62" points="1388.71,-56.84 1388.71,-1612.96 2066.71,-1612.96 2066.71,-56.84 1388.71,-56.84"/>
<text text-anchor="middle" x="1727.71" y="-1597.76" font-family="Times,serif" font-size="14.00">modules/at_tools/packages</text>
</g>
<g id="clust4" class="cluster">
<title>cluster modules/at_client_sdk/packages</title>
<polygon fill="none" stroke="#d2798d" points="3664.71,-1080.04 3664.71,-2202.72 3908.71,-2202.72 3908.71,-1080.04 3664.71,-1080.04"/>
<text text-anchor="middle" x="3786.71" y="-2187.52" font-family="Times,serif" font-size="14.00">modules/at_client_sdk/packages</text>
</g>
<g id="clust5" class="cluster">
<title>cluster modules/at_services/packages</title>
<polygon fill="none" stroke="#4cce65" points="895.71,-1080.04 895.71,-2735.64 1380.71,-2735.64 1380.71,-1080.04 895.71,-1080.04"/>
<text text-anchor="middle" x="1138.21" y="-2720.44" font-family="Times,serif" font-size="14.00">modules/at_services/packages</text>
</g>
<g id="clust6" class="cluster">
<title>cluster modules/at_server/packages</title>
<polygon fill="none" stroke="#98c326" points="87.71,-568.44 87.71,-2202.72 743.71,-2202.72 743.71,-568.44 87.71,-568.44"/>
<text text-anchor="middle" x="415.71" y="-2187.52" font-family="Times,serif" font-size="14.00">modules/at_server/packages</text>
</g>
<!-- at_backupkey_flutter -->
<g id="node1" class="node">
<title>at_backupkey_flutter</title>
<polygon fill="none" stroke="#590b92" points="2983.21,-2405.84 2818.21,-2405.84 2818.21,-2369.84 2983.21,-2369.84 2983.21,-2405.84"/>
<text text-anchor="middle" x="2900.71" y="-2384.14" font-family="Times,serif" font-size="14.00">at_backupkey_flutter</text>
</g>
<!-- at_client_mobile -->
<g id="node7" class="node">
<title>at_client_mobile</title>
<polygon fill="none" stroke="#d9577c" points="3806.71,-1872.84 3674.71,-1872.84 3674.71,-1836.84 3806.71,-1836.84 3806.71,-1872.84"/>
<text text-anchor="middle" x="3740.71" y="-1851.14" font-family="Times,serif" font-size="14.00">at_client_mobile</text>
</g>
<!-- at_backupkey_flutter&#45;&gt;at_client_mobile -->
<g id="edge2" class="edge">
<title>at_backupkey_flutter&#45;&gt;at_client_mobile</title>
<path fill="none" stroke="#d9577c" d="M2927.71,-2369.78C3051.5,-2291.53 3564.8,-1967.05 3705.12,-1878.34"/>
<polygon fill="#d9577c" stroke="#d9577c" points="3707.24,-1881.15 3713.82,-1872.85 3703.49,-1875.23 3707.24,-1881.15"/>
</g>
<!-- at_utils -->
<g id="node42" class="node">
<title>at_utils</title>
<polygon fill="none" stroke="#75e849" points="2058.21,-770.84 1989.21,-770.84 1989.21,-734.84 2058.21,-734.84 2058.21,-770.84"/>
<text text-anchor="middle" x="2023.71" y="-749.14" font-family="Times,serif" font-size="14.00">at_utils</text>
</g>
<!-- at_backupkey_flutter&#45;&gt;at_utils -->
<g id="edge1" class="edge">
<title>at_backupkey_flutter&#45;&gt;at_utils</title>
<path fill="none" stroke="#75e849" d="M2891.85,-2369.55C2837.72,-2264.04 2545.71,-1696.26 2296.71,-1238.84 2200.55,-1062.19 2080.28,-852.16 2038.68,-779.82"/>
<polygon fill="#75e849" stroke="#75e849" points="2041.58,-777.85 2033.56,-770.93 2035.52,-781.34 2041.58,-777.85"/>
</g>
<!-- at_chat_flutter -->
<g id="node2" class="node">
<title>at_chat_flutter</title>
<polygon fill="none" stroke="#463830" points="2322.71,-2405.84 2202.71,-2405.84 2202.71,-2369.84 2322.71,-2369.84 2322.71,-2405.84"/>
<text text-anchor="middle" x="2262.71" y="-2384.14" font-family="Times,serif" font-size="14.00">at_chat_flutter</text>
</g>
<!-- at_client -->
<g id="node6" class="node">
<title>at_client</title>
<polygon fill="none" stroke="#61d4fc" points="3750.21,-1282.84 3673.21,-1282.84 3673.21,-1246.84 3750.21,-1246.84 3750.21,-1282.84"/>
<text text-anchor="middle" x="3711.71" y="-1261.14" font-family="Times,serif" font-size="14.00">at_client</text>
</g>
<!-- at_chat_flutter&#45;&gt;at_client -->
<g id="edge8" class="edge">
<title>at_chat_flutter&#45;&gt;at_client</title>
<path fill="none" stroke="#61d4fc" d="M2275.69,-2369.74C2330.9,-2297.7 2553.89,-2014.21 2781.71,-1828.84 2822.73,-1795.47 3504.76,-1389 3673.96,-1288.3"/>
<polygon fill="#61d4fc" stroke="#61d4fc" points="3675.97,-1291.18 3682.77,-1283.06 3672.39,-1285.16 3675.97,-1291.18"/>
</g>
<!-- at_chat_flutter&#45;&gt;at_client_mobile -->
<g id="edge6" class="edge">
<title>at_chat_flutter&#45;&gt;at_client_mobile</title>
<path fill="none" stroke="#d9577c" d="M2315.4,-2369.76C2498.65,-2310.04 3124.57,-2103.33 3630.71,-1903.84 3651.79,-1895.54 3674.8,-1885.63 3694.3,-1876.98"/>
<polygon fill="#d9577c" stroke="#d9577c" points="3695.87,-1880.12 3703.57,-1872.85 3693.01,-1873.72 3695.87,-1880.12"/>
</g>
<!-- at_common_flutter -->
<g id="node8" class="node">
<title>at_common_flutter</title>
<polygon fill="none" stroke="#bf681f" points="2180.21,-1872.84 2031.21,-1872.84 2031.21,-1836.84 2180.21,-1836.84 2180.21,-1872.84"/>
<text text-anchor="middle" x="2105.71" y="-1851.14" font-family="Times,serif" font-size="14.00">at_common_flutter</text>
</g>
<!-- at_chat_flutter&#45;&gt;at_common_flutter -->
<g id="edge4" class="edge">
<title>at_chat_flutter&#45;&gt;at_common_flutter</title>
<path fill="none" stroke="#bf681f" d="M2257.67,-2369.78C2234.88,-2292.7 2141.45,-1976.71 2113.59,-1882.48"/>
<polygon fill="#bf681f" stroke="#bf681f" points="2116.93,-1881.44 2110.74,-1872.85 2110.22,-1883.43 2116.93,-1881.44"/>
</g>
<!-- at_commons -->
<g id="node9" class="node">
<title>at_commons</title>
<polygon fill="none" stroke="#7eceb0" points="2058.21,-259.84 1953.21,-259.84 1953.21,-223.84 2058.21,-223.84 2058.21,-259.84"/>
<text text-anchor="middle" x="2005.71" y="-238.14" font-family="Times,serif" font-size="14.00">at_commons</text>
</g>
<!-- at_chat_flutter&#45;&gt;at_commons -->
<g id="edge5" class="edge">
<title>at_chat_flutter&#45;&gt;at_commons</title>
<path fill="none" stroke="#7eceb0" d="M2270.83,-2369.66C2319.01,-2265.89 2564.4,-1711.51 2537.71,-1238.84 2524.8,-1010.2 2578.06,-933.66 2479.71,-726.84 2375.48,-507.64 2131.25,-327.31 2040.49,-265.64"/>
<polygon fill="#7eceb0" stroke="#7eceb0" points="2042.19,-262.57 2031.94,-259.88 2038.28,-268.37 2042.19,-262.57"/>
</g>
<!-- at_contact -->
<g id="node10" class="node">
<title>at_contact</title>
<polygon fill="none" stroke="#250aa2" points="3618.71,-1872.84 3528.71,-1872.84 3528.71,-1836.84 3618.71,-1836.84 3618.71,-1872.84"/>
<text text-anchor="middle" x="3573.71" y="-1851.14" font-family="Times,serif" font-size="14.00">at_contact</text>
</g>
<!-- at_chat_flutter&#45;&gt;at_contact -->
<g id="edge3" class="edge">
<title>at_chat_flutter&#45;&gt;at_contact</title>
<path fill="none" stroke="#250aa2" d="M2322.83,-2372.04C2510.07,-2324.23 3095.59,-2161.98 3519.71,-1903.84 3530.49,-1897.29 3541.13,-1888.48 3550.08,-1880.19"/>
<polygon fill="#250aa2" stroke="#250aa2" points="3552.66,-1882.56 3557.47,-1873.12 3547.83,-1877.51 3552.66,-1882.56"/>
</g>
<!-- at_lookup -->
<g id="node26" class="node">
<title>at_lookup</title>
<polygon fill="none" stroke="#94d42d" points="3093.21,-259.84 3008.21,-259.84 3008.21,-223.84 3093.21,-223.84 3093.21,-259.84"/>
<text text-anchor="middle" x="3050.71" y="-238.14" font-family="Times,serif" font-size="14.00">at_lookup</text>
</g>
<!-- at_chat_flutter&#45;&gt;at_lookup -->
<g id="edge7" class="edge">
<title>at_chat_flutter&#45;&gt;at_lookup</title>
<path fill="none" stroke="#94d42d" d="M2274.56,-2369.76C2341.75,-2271.98 2677.8,-1771.71 2841.71,-1313.84 2878.46,-1211.19 3018.15,-426.98 3045.9,-270.11"/>
<polygon fill="#94d42d" stroke="#94d42d" points="3049.41,-270.37 3047.7,-259.91 3042.52,-269.15 3049.41,-270.37"/>
</g>
<!-- at_chops -->
<g id="node3" class="node">
<title>at_chops</title>
<polygon fill="none" stroke="#8fb4d4" points="3510.21,-1872.84 3431.21,-1872.84 3431.21,-1836.84 3510.21,-1836.84 3510.21,-1872.84"/>
<text text-anchor="middle" x="3470.71" y="-1851.14" font-family="Times,serif" font-size="14.00">at_chops</text>
</g>
<!-- at_chops&#45;&gt;at_commons -->
<g id="edge9" class="edge">
<title>at_chops&#45;&gt;at_commons</title>
<path fill="none" stroke="#7eceb0" d="M3500.89,-1836.77C3617.62,-1768.32 4027.58,-1504.69 3912.71,-1238.84 3579.45,-467.52 2359.33,-282.69 2068.33,-249.2"/>
<polygon fill="#7eceb0" stroke="#7eceb0" points="2068.71,-245.72 2058.38,-248.08 2067.92,-252.68 2068.71,-245.72"/>
</g>
<!-- at_onboarding_cli -->
<g id="node28" class="node">
<title>at_onboarding_cli</title>
<polygon fill="none" stroke="#514d2d" points="3187.71,-1282.84 3045.71,-1282.84 3045.71,-1246.84 3187.71,-1246.84 3187.71,-1282.84"/>
<text text-anchor="middle" x="3116.71" y="-1261.14" font-family="Times,serif" font-size="14.00">at_onboarding_cli</text>
</g>
<!-- at_chops&#45;&gt;at_onboarding_cli -->
<g id="edge10" class="edge">
<title>at_chops&#45;&gt;at_onboarding_cli</title>
<path fill="none" stroke="#514d2d" d="M3457.83,-1836.57C3402.14,-1753.23 3184.92,-1392.7 3129.48,-1292.04"/>
<polygon fill="#514d2d" stroke="#514d2d" points="3132.49,-1290.24 3124.63,-1283.12 3126.34,-1293.58 3132.49,-1290.24"/>
</g>
<!-- at_chops&#45;&gt;at_utils -->
<g id="edge11" class="edge">
<title>at_chops&#45;&gt;at_utils</title>
<path fill="none" stroke="#75e849" d="M3449.16,-1836.77C3357.12,-1763.96 2987.77,-1472.43 2679.71,-1238.84 2441.95,-1058.56 2151.25,-846.54 2055.77,-777.12"/>
<polygon fill="#75e849" stroke="#75e849" points="2057.55,-774.09 2047.4,-771.04 2053.43,-779.75 2057.55,-774.09"/>
</g>
<!-- at_cli -->
<g id="node4" class="node">
<title>at_cli</title>
<polygon fill="none" stroke="#34bd05" points="1841.71,-1282.84 1787.71,-1282.84 1787.71,-1246.84 1841.71,-1246.84 1841.71,-1282.84"/>
<text text-anchor="middle" x="1814.71" y="-1261.14" font-family="Times,serif" font-size="14.00">at_cli</text>
</g>
<!-- at_cli&#45;&gt;at_client -->
<g id="edge13" class="edge">
<title>at_cli&#45;&gt;at_client</title>
<path fill="none" stroke="#61d4fc" d="M1810.44,-1283.05C1798.95,-1337.05 1773.84,-1497.16 1859.71,-1571.34 2160.72,-1831.39 3341.82,-1823.19 3649.71,-1571.34 3733.36,-1502.93 3724.41,-1355.61 3716.29,-1293.44"/>
<polygon fill="#61d4fc" stroke="#61d4fc" points="3719.71,-1292.62 3714.86,-1283.2 3712.78,-1293.59 3719.71,-1292.62"/>
</g>
<!-- at_cli&#45;&gt;at_commons -->
<g id="edge14" class="edge">
<title>at_cli&#45;&gt;at_commons</title>
<path fill="none" stroke="#7eceb0" d="M1817.95,-1246.55C1840.4,-1126.52 1972.95,-417.97 2000.65,-269.94"/>
<polygon fill="#7eceb0" stroke="#7eceb0" points="2004.12,-270.37 2002.52,-259.9 1997.24,-269.09 2004.12,-270.37"/>
</g>
<!-- at_cli&#45;&gt;at_lookup -->
<g id="edge12" class="edge">
<title>at_cli&#45;&gt;at_lookup</title>
<path fill="none" stroke="#94d42d" d="M1835.39,-1246.76C1981.16,-1126.35 2853.16,-406.03 3022.31,-266.31"/>
<polygon fill="#94d42d" stroke="#94d42d" points="3024.56,-268.99 3030.05,-259.92 3020.11,-263.59 3024.56,-268.99"/>
</g>
<!-- at_cli&#45;&gt;at_utils -->
<g id="edge15" class="edge">
<title>at_cli&#45;&gt;at_utils</title>
<path fill="none" stroke="#75e849" d="M1821.79,-1246.58C1852.61,-1171.37 1975.34,-871.9 2012.8,-780.48"/>
<polygon fill="#75e849" stroke="#75e849" points="2016.09,-781.68 2016.64,-771.1 2009.61,-779.03 2016.09,-781.68"/>
</g>
<!-- at_cli_commons -->
<g id="node5" class="node">
<title>at_cli_commons</title>
<polygon fill="none" stroke="#c99192" points="3412.71,-1872.84 3284.71,-1872.84 3284.71,-1836.84 3412.71,-1836.84 3412.71,-1872.84"/>
<text text-anchor="middle" x="3348.71" y="-1851.14" font-family="Times,serif" font-size="14.00">at_cli_commons</text>
</g>
<!-- at_cli_commons&#45;&gt;at_client -->
<g id="edge16" class="edge">
<title>at_cli_commons&#45;&gt;at_client</title>
<path fill="none" stroke="#61d4fc" d="M3359.38,-1836.57C3410.88,-1753.14 3633.85,-1391.97 3695.73,-1291.73"/>
<polygon fill="#61d4fc" stroke="#61d4fc" points="3698.77,-1293.47 3701.05,-1283.12 3692.82,-1289.8 3698.77,-1293.47"/>
</g>
<!-- at_cli_commons&#45;&gt;at_onboarding_cli -->
<g id="edge17" class="edge">
<title>at_cli_commons&#45;&gt;at_onboarding_cli</title>
<path fill="none" stroke="#514d2d" d="M3341.9,-1836.57C3309.08,-1753.39 3167.34,-1394.15 3127.29,-1292.65"/>
<polygon fill="#514d2d" stroke="#514d2d" points="3130.46,-1291.14 3123.53,-1283.12 3123.95,-1293.71 3130.46,-1291.14"/>
</g>
<!-- at_cli_commons&#45;&gt;at_utils -->
<g id="edge18" class="edge">
<title>at_cli_commons&#45;&gt;at_utils</title>
<path fill="none" stroke="#75e849" d="M3328.17,-1836.79C3176.37,-1710.76 2229.82,-924.95 2052.36,-777.63"/>
<polygon fill="#75e849" stroke="#75e849" points="2054.43,-774.8 2044.5,-771.1 2049.96,-780.18 2054.43,-774.8"/>
</g>
<!-- at_client&#45;&gt;at_chops -->
<g id="edge21" class="edge">
<title>at_client&#45;&gt;at_chops</title>
<path fill="none" stroke="#8fb4d4" d="M3704.63,-1283.12C3670.54,-1366.3 3523.3,-1725.54 3481.7,-1827.04"/>
<polygon fill="#8fb4d4" stroke="#8fb4d4" points="3478.35,-1825.98 3477.8,-1836.57 3484.83,-1828.64 3478.35,-1825.98"/>
</g>
<!-- at_client&#45;&gt;at_commons -->
<g id="edge19" class="edge">
<title>at_client&#45;&gt;at_commons</title>
<path fill="none" stroke="#7eceb0" d="M3683.17,-1246.76C3481.38,-1126 2271.21,-401.74 2042.86,-265.08"/>
<polygon fill="#7eceb0" stroke="#7eceb0" points="2044.62,-262.05 2034.24,-259.92 2041.03,-268.06 2044.62,-262.05"/>
</g>
<!-- at_client&#45;&gt;at_lookup -->
<g id="edge22" class="edge">
<title>at_client&#45;&gt;at_lookup</title>
<path fill="none" stroke="#94d42d" d="M3700.84,-1246.64C3658.53,-1179.74 3500.74,-930.64 3368.71,-726.84 3254.69,-550.84 3115.37,-340.34 3067.67,-268.4"/>
<polygon fill="#94d42d" stroke="#94d42d" points="3070.5,-266.34 3062.06,-259.94 3064.67,-270.21 3070.5,-266.34"/>
</g>
<!-- at_persistence_secondary_server -->
<g id="node31" class="node">
<title>at_persistence_secondary_server</title>
<polygon fill="none" stroke="#9760d3" points="347.71,-1282.84 95.71,-1282.84 95.71,-1246.84 347.71,-1246.84 347.71,-1282.84"/>
<text text-anchor="middle" x="221.71" y="-1261.14" font-family="Times,serif" font-size="14.00">at_persistence_secondary_server</text>
</g>
<!-- at_client&#45;&gt;at_persistence_secondary_server -->
<g id="edge24" class="edge">
<title>at_client&#45;&gt;at_persistence_secondary_server</title>
<path fill="none" stroke="#9760d3" d="M3714.86,-1283.2C3723.01,-1337.63 3738.38,-1498.82 3649.71,-1571.34 3369,-1800.96 696.82,-1757.72 385.71,-1571.34 281.96,-1509.19 240.15,-1356.51 226.88,-1293.14"/>
<polygon fill="#9760d3" stroke="#9760d3" points="230.26,-1292.18 224.86,-1283.07 223.39,-1293.56 230.26,-1292.18"/>
</g>
<!-- at_persistence_spec -->
<g id="node32" class="node">
<title>at_persistence_spec</title>
<polygon fill="none" stroke="#3bfcef" points="723.21,-770.84 564.21,-770.84 564.21,-734.84 723.21,-734.84 723.21,-770.84"/>
<text text-anchor="middle" x="643.71" y="-749.14" font-family="Times,serif" font-size="14.00">at_persistence_spec</text>
</g>
<!-- at_client&#45;&gt;at_persistence_spec -->
<g id="edge23" class="edge">
<title>at_client&#45;&gt;at_persistence_spec</title>
<path fill="none" stroke="#3bfcef" d="M3672.87,-1250.66C3659.61,-1246.48 3644.61,-1242.1 3630.71,-1238.84 2500.94,-974.12 1097.2,-805.17 733.2,-763.78"/>
<polygon fill="#3bfcef" stroke="#3bfcef" points="733.58,-760.3 723.25,-762.65 732.79,-767.26 733.58,-760.3"/>
</g>
<!-- at_client&#45;&gt;at_utils -->
<g id="edge20" class="edge">
<title>at_client&#45;&gt;at_utils</title>
<path fill="none" stroke="#75e849" d="M3673,-1251.84C3659.61,-1247.71 3644.51,-1243.05 3630.71,-1238.84 3011.48,-1049.84 2256.76,-823.62 2068.06,-767.12"/>
<polygon fill="#75e849" stroke="#75e849" points="2068.81,-763.69 2058.23,-764.17 2066.8,-770.39 2068.81,-763.69"/>
</g>
<!-- at_client_mobile&#45;&gt;at_chops -->
<g id="edge27" class="edge">
<title>at_client_mobile&#45;&gt;at_chops</title>
<path fill="none" stroke="#8fb4d4" d="M3739.58,-1872.91C3735.21,-1924.91 3714.7,-2075.15 3621.71,-2136.84 3587.27,-2159.69 3560.75,-2162.96 3528.71,-2136.84 3452.49,-2074.7 3459.17,-1941.5 3466.35,-1883.18"/>
<polygon fill="#8fb4d4" stroke="#8fb4d4" points="3469.83,-1883.57 3467.67,-1873.2 3462.89,-1882.65 3469.83,-1883.57"/>
</g>
<!-- at_client_mobile&#45;&gt;at_client -->
<g id="edge29" class="edge">
<title>at_client_mobile&#45;&gt;at_client</title>
<path fill="none" stroke="#61d4fc" d="M3739.86,-1836.57C3735.77,-1753.56 3718.11,-1395.6 3713.07,-1293.27"/>
<polygon fill="#61d4fc" stroke="#61d4fc" points="3716.55,-1292.94 3712.57,-1283.12 3709.56,-1293.28 3716.55,-1292.94"/>
</g>
<!-- at_client_mobile&#45;&gt;at_commons -->
<g id="edge25" class="edge">
<title>at_client_mobile&#45;&gt;at_commons</title>
<path fill="none" stroke="#7eceb0" d="M3750.58,-1836.42C3787.14,-1770.7 3914.99,-1530.49 3956.71,-1313.84 4013.15,-1020.81 3868.89,-906.65 3630.71,-726.84 3118.5,-340.16 2300.1,-261.07 2068.57,-246.11"/>
<polygon fill="#7eceb0" stroke="#7eceb0" points="2068.51,-242.6 2058.31,-245.46 2068.07,-249.58 2068.51,-242.6"/>
</g>
<!-- at_client_mobile&#45;&gt;at_lookup -->
<g id="edge28" class="edge">
<title>at_client_mobile&#45;&gt;at_lookup</title>
<path fill="none" stroke="#94d42d" d="M3759.73,-1836.69C3826.97,-1774.6 4053.51,-1552.62 4130.71,-1313.84 4210.98,-1065.61 4272.54,-945.82 4130.71,-726.84 3889.25,-354.03 3285.46,-265.72 3103.45,-247.27"/>
<polygon fill="#94d42d" stroke="#94d42d" points="3103.63,-243.77 3093.34,-246.27 3102.95,-250.74 3103.63,-243.77"/>
</g>
<!-- at_client_mobile&#45;&gt;at_utils -->
<g id="edge26" class="edge">
<title>at_client_mobile&#45;&gt;at_utils</title>
<path fill="none" stroke="#75e849" d="M3748.2,-1836.62C3781.06,-1758.09 3904.53,-1429.66 3759.71,-1238.84 3542.56,-952.71 2318.75,-789.73 2068.44,-759.13"/>
<polygon fill="#75e849" stroke="#75e849" points="2068.61,-755.63 2058.26,-757.9 2067.76,-762.58 2068.61,-755.63"/>
</g>
<!-- at_contact&#45;&gt;at_client -->
<g id="edge30" class="edge">
<title>at_contact&#45;&gt;at_client</title>
<path fill="none" stroke="#61d4fc" d="M3577.77,-1836.57C3597.27,-1753.48 3681.43,-1394.88 3705.35,-1292.96"/>
<polygon fill="#61d4fc" stroke="#61d4fc" points="3708.78,-1293.66 3707.66,-1283.12 3701.97,-1292.06 3708.78,-1293.66"/>
</g>
<!-- at_contact&#45;&gt;at_commons -->
<g id="edge31" class="edge">
<title>at_contact&#45;&gt;at_commons</title>
<path fill="none" stroke="#7eceb0" d="M3590.97,-1836.81C3652.92,-1774.28 3864.28,-1548.7 3935.71,-1313.84 4025.94,-1017.23 3734.42,-874.45 3517.71,-726.84 3025.23,-391.39 2286.22,-277.34 2068.3,-249.98"/>
<polygon fill="#7eceb0" stroke="#7eceb0" points="2068.67,-246.5 2058.32,-248.74 2067.81,-253.45 2068.67,-246.5"/>
</g>
<!-- at_contact&#45;&gt;at_utils -->
<g id="edge32" class="edge">
<title>at_contact&#45;&gt;at_utils</title>
<path fill="none" stroke="#75e849" d="M3550.97,-1836.66C3453.85,-1763.39 3063.93,-1470.23 2736.71,-1238.84 2478.68,-1056.38 2161.38,-845.05 2058.01,-776.53"/>
<polygon fill="#75e849" stroke="#75e849" points="2059.79,-773.52 2049.52,-770.91 2055.93,-779.35 2059.79,-773.52"/>
</g>
<!-- at_contacts_flutter -->
<g id="node11" class="node">
<title>at_contacts_flutter</title>
<polygon fill="none" stroke="#1267b5" points="2490.21,-2405.84 2341.21,-2405.84 2341.21,-2369.84 2490.21,-2369.84 2490.21,-2405.84"/>
<text text-anchor="middle" x="2415.71" y="-2384.14" font-family="Times,serif" font-size="14.00">at_contacts_flutter</text>
</g>
<!-- at_contacts_flutter&#45;&gt;at_client -->
<g id="edge38" class="edge">
<title>at_contacts_flutter&#45;&gt;at_client</title>
<path fill="none" stroke="#61d4fc" d="M2426.22,-2369.72C2471.04,-2297.63 2653.14,-2013.91 2854.71,-1828.84 2999.05,-1696.33 3528.88,-1375.4 3674.48,-1288.09"/>
<polygon fill="#61d4fc" stroke="#61d4fc" points="3676.33,-1291.06 3683.11,-1282.92 3672.73,-1285.05 3676.33,-1291.06"/>
</g>
<!-- at_contacts_flutter&#45;&gt;at_client_mobile -->
<g id="edge33" class="edge">
<title>at_contacts_flutter&#45;&gt;at_client_mobile</title>
<path fill="none" stroke="#d9577c" d="M2460.06,-2369.83C2619.18,-2308.63 3176.05,-2093.35 3630.71,-1903.84 3651.29,-1895.27 3673.88,-1885.48 3693.21,-1876.98"/>
<polygon fill="#d9577c" stroke="#d9577c" points="3694.67,-1880.16 3702.41,-1872.93 3691.85,-1873.76 3694.67,-1880.16"/>
</g>
<!-- at_contacts_flutter&#45;&gt;at_common_flutter -->
<g id="edge37" class="edge">
<title>at_contacts_flutter&#45;&gt;at_common_flutter</title>
<path fill="none" stroke="#bf681f" d="M2405.75,-2369.78C2360.61,-2292.46 2175.15,-1974.79 2120.77,-1881.63"/>
<polygon fill="#bf681f" stroke="#bf681f" points="2123.7,-1879.72 2115.64,-1872.85 2117.66,-1883.25 2123.7,-1879.72"/>
</g>
<!-- at_contacts_flutter&#45;&gt;at_commons -->
<g id="edge34" class="edge">
<title>at_contacts_flutter&#45;&gt;at_commons</title>
<path fill="none" stroke="#7eceb0" d="M2422.45,-2369.7C2474.08,-2235.38 2797.32,-1341.2 2501.71,-726.84 2394.2,-503.39 2138.31,-326.03 2042.65,-265.37"/>
<polygon fill="#7eceb0" stroke="#7eceb0" points="2044.23,-262.23 2033.9,-259.87 2040.5,-268.16 2044.23,-262.23"/>
</g>
<!-- at_contacts_flutter&#45;&gt;at_contact -->
<g id="edge36" class="edge">
<title>at_contacts_flutter&#45;&gt;at_contact</title>
<path fill="none" stroke="#250aa2" d="M2470.41,-2369.76C2636.62,-2316.47 3147.08,-2142.44 3519.71,-1903.84 3530.34,-1897.04 3540.94,-1888.18 3549.91,-1879.92"/>
<polygon fill="#250aa2" stroke="#250aa2" points="3552.48,-1882.31 3557.33,-1872.89 3547.66,-1877.23 3552.48,-1882.31"/>
</g>
<!-- at_contacts_flutter&#45;&gt;at_lookup -->
<g id="edge35" class="edge">
<title>at_contacts_flutter&#45;&gt;at_lookup</title>
<path fill="none" stroke="#94d42d" d="M2425.06,-2369.76C2478.68,-2271 2749.26,-1762.04 2879.71,-1313.84 2910,-1209.79 3024.11,-426.7 3046.78,-270.07"/>
<polygon fill="#94d42d" stroke="#94d42d" points="3050.29,-270.29 3048.26,-259.89 3043.36,-269.28 3050.29,-270.29"/>
</g>
<!-- at_contacts_flutter&#45;&gt;at_utils -->
<g id="edge39" class="edge">
<title>at_contacts_flutter&#45;&gt;at_utils</title>
<path fill="none" stroke="#75e849" d="M2415.83,-2369.52C2416.09,-2262.65 2410.88,-1683.06 2273.71,-1238.84 2215.8,-1051.31 2087.87,-849.63 2041.19,-779.56"/>
<polygon fill="#75e849" stroke="#75e849" points="2043.89,-777.29 2035.41,-770.93 2038.07,-781.18 2043.89,-777.29"/>
</g>
<!-- at_contacts_group_flutter -->
<g id="node12" class="node">
<title>at_contacts_group_flutter</title>
<polygon fill="none" stroke="#dae1d2" points="2508.71,-2938.84 2310.71,-2938.84 2310.71,-2902.84 2508.71,-2902.84 2508.71,-2938.84"/>
<text text-anchor="middle" x="2409.71" y="-2917.14" font-family="Times,serif" font-size="14.00">at_contacts_group_flutter</text>
</g>
<!-- at_contacts_group_flutter&#45;&gt;at_client_mobile -->
<g id="edge40" class="edge">
<title>at_contacts_group_flutter&#45;&gt;at_client_mobile</title>
<path fill="none" stroke="#d9577c" d="M2432.51,-2902.81C2514.92,-2841.14 2804.84,-2623.32 3038.71,-2436.84 3304.64,-2224.81 3619,-1959.16 3712.91,-1879.48"/>
<polygon fill="#d9577c" stroke="#d9577c" points="3715.19,-1882.13 3720.55,-1872.99 3710.66,-1876.8 3715.19,-1882.13"/>
</g>
<!-- at_contacts_group_flutter&#45;&gt;at_common_flutter -->
<g id="edge42" class="edge">
<title>at_contacts_group_flutter&#45;&gt;at_common_flutter</title>
<path fill="none" stroke="#bf681f" d="M2386.69,-2902.71C2312.99,-2846.25 2083.11,-2657.01 2002.71,-2436.84 1927.85,-2231.82 2048.95,-1965.62 2091.68,-1882.09"/>
<polygon fill="#bf681f" stroke="#bf681f" points="2094.87,-1883.53 2096.37,-1873.04 2088.66,-1880.31 2094.87,-1883.53"/>
</g>
<!-- at_contacts_group_flutter&#45;&gt;at_commons -->
<g id="edge41" class="edge">
<title>at_contacts_group_flutter&#45;&gt;at_commons</title>
<path fill="none" stroke="#7eceb0" d="M2310.68,-2905.51C1989.46,-2856.84 986.33,-2686.82 797.71,-2436.84 717.42,-2330.44 799.32,-1356.64 861.71,-1238.84 1134.19,-724.42 1789.11,-355.75 1962.82,-264.69"/>
<polygon fill="#7eceb0" stroke="#7eceb0" points="1964.67,-267.68 1971.92,-259.95 1961.43,-261.47 1964.67,-267.68"/>
</g>
<!-- at_contacts_group_flutter&#45;&gt;at_contact -->
<g id="edge44" class="edge">
<title>at_contacts_group_flutter&#45;&gt;at_contact</title>
<path fill="none" stroke="#250aa2" d="M2431.77,-2902.79C2510.19,-2841.91 2782.07,-2628.66 2992.71,-2436.84 3219.04,-2230.76 3474.15,-1961.96 3550.78,-1880.37"/>
<polygon fill="#250aa2" stroke="#250aa2" points="3553.34,-1882.75 3557.63,-1873.07 3548.24,-1877.96 3553.34,-1882.75"/>
</g>
<!-- at_contacts_group_flutter&#45;&gt;at_contacts_flutter -->
<g id="edge43" class="edge">
<title>at_contacts_group_flutter&#45;&gt;at_contacts_flutter</title>
<path fill="none" stroke="#1267b5" d="M2409.91,-2902.78C2410.78,-2825.85 2414.33,-2510.99 2415.41,-2416.06"/>
<polygon fill="#1267b5" stroke="#1267b5" points="2418.91,-2415.89 2415.52,-2405.85 2411.91,-2415.81 2418.91,-2415.89"/>
</g>
<!-- at_contacts_group_flutter&#45;&gt;at_utils -->
<g id="edge45" class="edge">
<title>at_contacts_group_flutter&#45;&gt;at_utils</title>
<path fill="none" stroke="#75e849" d="M2310.46,-2905.09C1992.15,-2855.56 1007.04,-2684.32 823.71,-2436.84 744.35,-2329.71 812.05,-1345.75 891.71,-1238.84 1172.46,-862.08 1805.39,-774.77 1978.96,-757.6"/>
<polygon fill="#75e849" stroke="#75e849" points="1979.4,-761.07 1989.02,-756.63 1978.73,-754.11 1979.4,-761.07"/>
</g>
<!-- at_cram -->
<g id="node13" class="node">
<title>at_cram</title>
<polygon fill="none" stroke="#c89a29" points="1933.71,-1282.84 1859.71,-1282.84 1859.71,-1246.84 1933.71,-1246.84 1933.71,-1282.84"/>
<text text-anchor="middle" x="1896.71" y="-1261.14" font-family="Times,serif" font-size="14.00">at_cram</text>
</g>
<!-- at_daemon_cli -->
<g id="node14" class="node">
<title>at_daemon_cli</title>
<polygon fill="none" stroke="#8e17d5" points="1021.21,-2405.84 904.21,-2405.84 904.21,-2369.84 1021.21,-2369.84 1021.21,-2405.84"/>
<text text-anchor="middle" x="962.71" y="-2384.14" font-family="Times,serif" font-size="14.00">at_daemon_cli</text>
</g>
<!-- at_daemon_cli&#45;&gt;at_client -->
<g id="edge46" class="edge">
<title>at_daemon_cli&#45;&gt;at_client</title>
<path fill="none" stroke="#61d4fc" d="M988.99,-2369.65C1084.02,-2307.42 1418.65,-2087.93 1692.71,-1903.84 1741.83,-1870.85 1749.09,-1853.86 1802.71,-1828.84 2567.64,-1471.98 2854.85,-1646.26 3630.71,-1313.84 3647.01,-1306.86 3664.05,-1297.18 3678.26,-1288.33"/>
<polygon fill="#61d4fc" stroke="#61d4fc" points="3680.15,-1291.28 3686.72,-1282.97 3676.4,-1285.37 3680.15,-1291.28"/>
</g>
<!-- at_daemon_cli&#45;&gt;at_commons -->
<g id="edge51" class="edge">
<title>at_daemon_cli&#45;&gt;at_commons</title>
<path fill="none" stroke="#7eceb0" d="M985.44,-2369.71C1142.11,-2256.78 2058.17,-1614.8 2199.71,-1313.84 2310.82,-1077.61 2276.85,-981.79 2220.71,-726.84 2179.55,-539.87 2058.74,-339.18 2018.55,-268.91"/>
<polygon fill="#7eceb0" stroke="#7eceb0" points="2021.41,-266.85 2013.43,-259.87 2015.32,-270.3 2021.41,-266.85"/>
</g>
<!-- at_daemon_cli&#45;&gt;at_commons -->
<g id="edge54" class="edge">
<title>at_daemon_cli&#45;&gt;at_commons</title>
<path fill="none" stroke="#7eceb0" stroke-dasharray="1,5" d="M989.87,-2369.71C1160.11,-2256.78 2076.17,-1614.8 2217.71,-1313.84 2328.82,-1077.61 2294.85,-981.79 2238.71,-726.84 2197.38,-539.1 2075.75,-337.54 2026.46,-268.05"/>
<polygon fill="#7eceb0" stroke="#7eceb0" points="2029.24,-265.93 2020.54,-259.87 2023.57,-270.03 2029.24,-265.93"/>
</g>
<!-- at_daemon_core -->
<g id="node16" class="node">
<title>at_daemon_core</title>
<polygon fill="none" stroke="#c16272" points="1365.21,-1282.84 1234.21,-1282.84 1234.21,-1246.84 1365.21,-1246.84 1365.21,-1282.84"/>
<text text-anchor="middle" x="1299.71" y="-1261.14" font-family="Times,serif" font-size="14.00">at_daemon_core</text>
</g>
<!-- at_daemon_cli&#45;&gt;at_daemon_core -->
<g id="edge48" class="edge">
<title>at_daemon_cli&#45;&gt;at_daemon_core</title>
<path fill="none" stroke="#c16272" d="M969.88,-2369.65C1001.89,-2308.71 1127.96,-2096.38 1188.71,-1903.84 1225.88,-1786.08 1274.57,-1398.91 1293.19,-1292.89"/>
<polygon fill="#c16272" stroke="#c16272" points="1296.65,-1293.45 1295,-1282.99 1289.76,-1292.2 1296.65,-1293.45"/>
</g>
<!-- at_daemon_cli&#45;&gt;at_daemon_core -->
<g id="edge52" class="edge">
<title>at_daemon_cli&#45;&gt;at_daemon_core</title>
<path fill="none" stroke="#c16272" stroke-dasharray="1,5" d="M976.99,-2369.65C1019.89,-2308.71 1145.96,-2096.38 1206.71,-1903.84 1243.84,-1786.2 1292.47,-1399.69 1299.72,-1293.22"/>
<polygon fill="#c16272" stroke="#c16272" points="1303.23,-1293.18 1300.33,-1282.99 1296.24,-1292.76 1303.23,-1293.18"/>
</g>
<!-- at_daemon_server -->
<g id="node18" class="node">
<title>at_daemon_server</title>
<polygon fill="none" stroke="#4bd261" points="1372.71,-1872.84 1226.71,-1872.84 1226.71,-1836.84 1372.71,-1836.84 1372.71,-1872.84"/>
<text text-anchor="middle" x="1299.71" y="-1851.14" font-family="Times,serif" font-size="14.00">at_daemon_server</text>
</g>
<!-- at_daemon_cli&#45;&gt;at_daemon_server -->
<g id="edge49" class="edge">
<title>at_daemon_cli&#45;&gt;at_daemon_server</title>
<path fill="none" stroke="#4bd261" d="M970.96,-2369.78C1014.75,-2292.31 1216.91,-1973.5 1280.62,-1881.07"/>
<polygon fill="#4bd261" stroke="#4bd261" points="1283.5,-1883.05 1286.34,-1872.85 1277.75,-1879.06 1283.5,-1883.05"/>
</g>
<!-- at_daemon_cli&#45;&gt;at_daemon_server -->
<g id="edge53" class="edge">
<title>at_daemon_cli&#45;&gt;at_daemon_server</title>
<path fill="none" stroke="#4bd261" stroke-dasharray="1,5" d="M976.13,-2369.78C1030.57,-2292.46 1232.36,-1974.79 1286.47,-1881.63"/>
<polygon fill="#4bd261" stroke="#4bd261" points="1289.57,-1883.26 1291.51,-1872.85 1283.5,-1879.78 1289.57,-1883.26"/>
</g>
<!-- at_daemon_cli&#45;&gt;at_onboarding_cli -->
<g id="edge47" class="edge">
<title>at_daemon_cli&#45;&gt;at_onboarding_cli</title>
<path fill="none" stroke="#514d2d" d="M985,-2369.67C1094.06,-2285.8 1572.8,-1919.67 1736.71,-1828.84 2217.71,-1562.32 2851.14,-1350.31 3052.44,-1285.98"/>
<polygon fill="#514d2d" stroke="#514d2d" points="3053.51,-1289.32 3061.97,-1282.94 3051.38,-1282.65 3053.51,-1289.32"/>
</g>
<!-- at_daemon_cli&#45;&gt;at_utils -->
<g id="edge50" class="edge">
<title>at_daemon_cli&#45;&gt;at_utils</title>
<path fill="none" stroke="#75e849" d="M982.13,-2369.69C1124.8,-2243.44 2007.4,-1458.75 2068.71,-1313.84 2149.35,-1123.28 2065.43,-863.97 2034.32,-780.73"/>
<polygon fill="#75e849" stroke="#75e849" points="2037.54,-779.36 2030.72,-771.25 2031,-781.84 2037.54,-779.36"/>
</g>
<!-- at_daemon_client -->
<g id="node15" class="node">
<title>at_daemon_client</title>
<polygon fill="none" stroke="#dbe812" points="1188.71,-1872.84 1048.71,-1872.84 1048.71,-1836.84 1188.71,-1836.84 1188.71,-1872.84"/>
<text text-anchor="middle" x="1118.71" y="-1851.14" font-family="Times,serif" font-size="14.00">at_daemon_client</text>
</g>
<!-- at_daemon_client&#45;&gt;at_daemon_core -->
<g id="edge55" class="edge">
<title>at_daemon_client&#45;&gt;at_daemon_core</title>
<path fill="none" stroke="#c16272" d="M1121.55,-1836.57C1141.65,-1753.39 1252.05,-1394.15 1288.43,-1292.65"/>
<polygon fill="#c16272" stroke="#c16272" points="1291.77,-1293.72 1291.91,-1283.12 1285.19,-1291.32 1291.77,-1293.72"/>
</g>
<!-- at_daemon_client&#45;&gt;at_daemon_core -->
<g id="edge56" class="edge">
<title>at_daemon_client&#45;&gt;at_daemon_core</title>
<path fill="none" stroke="#c16272" stroke-dasharray="1,5" d="M1126.52,-1836.57C1157.59,-1753.48 1268.16,-1394.88 1294.42,-1292.96"/>
<polygon fill="#c16272" stroke="#c16272" points="1297.84,-1293.68 1296.88,-1283.12 1291.05,-1291.97 1297.84,-1293.68"/>
</g>
<!-- at_daemon_core&#45;&gt;at_commons -->
<g id="edge58" class="edge">
<title>at_daemon_core&#45;&gt;at_commons</title>
<path fill="none" stroke="#7eceb0" d="M1307.46,-1246.51C1344.9,-1179.14 1506.03,-928.5 1645.71,-726.84 1768.96,-548.92 1924.31,-339.72 1982.56,-268.25"/>
<polygon fill="#7eceb0" stroke="#7eceb0" points="1985.51,-270.17 1989.17,-260.23 1980.11,-265.72 1985.51,-270.17"/>
</g>
<!-- at_daemon_core&#45;&gt;at_commons -->
<g id="edge59" class="edge">
<title>at_daemon_core&#45;&gt;at_commons</title>
<path fill="none" stroke="#7eceb0" stroke-dasharray="1,5" d="M1314.11,-1246.51C1362.9,-1179.14 1524.03,-928.5 1663.71,-726.84 1786.71,-549.28 1941.68,-340.57 1990.53,-268.69"/>
<polygon fill="#7eceb0" stroke="#7eceb0" points="1993.54,-270.48 1996.21,-260.23 1987.73,-266.58 1993.54,-270.48"/>
</g>
<!-- at_daemon_core&#45;&gt;at_utils -->
<g id="edge57" class="edge">
<title>at_daemon_core&#45;&gt;at_utils</title>
<path fill="none" stroke="#75e849" d="M1324.22,-1246.58C1432.41,-1170.37 1867.38,-863.97 1990.87,-776.98"/>
<polygon fill="#75e849" stroke="#75e849" points="1993.06,-779.72 1999.22,-771.1 1989.03,-774 1993.06,-779.72"/>
</g>
<!-- at_daemon_desktop -->
<g id="node17" class="node">
<title>at_daemon_desktop</title>
<polygon fill="none" stroke="#89d485" points="1196.21,-2405.84 1039.21,-2405.84 1039.21,-2369.84 1196.21,-2369.84 1196.21,-2405.84"/>
<text text-anchor="middle" x="1117.71" y="-2384.14" font-family="Times,serif" font-size="14.00">at_daemon_desktop</text>
</g>
<!-- at_daemon_server&#45;&gt;at_client -->
<g id="edge60" class="edge">
<title>at_daemon_server&#45;&gt;at_client</title>
<path fill="none" stroke="#61d4fc" d="M1372.96,-1845.21C1666.22,-1808.91 2780.77,-1654.6 3630.71,-1313.84 3647.3,-1307.2 3664.49,-1297.47 3678.74,-1288.51"/>
<polygon fill="#61d4fc" stroke="#61d4fc" points="3680.69,-1291.42 3687.21,-1283.07 3676.9,-1285.54 3680.69,-1291.42"/>
</g>
<!-- at_daemon_server&#45;&gt;at_commons -->
<g id="edge65" class="edge">
<title>at_daemon_server&#45;&gt;at_commons</title>
<path fill="none" stroke="#7eceb0" stroke-dasharray="1,5" d="M1366.84,-1836.83C1539.49,-1789.02 1997.96,-1635.43 2177.71,-1313.84 2385.02,-942.96 2093.31,-393.92 2021.16,-268.84"/>
<polygon fill="#7eceb0" stroke="#7eceb0" points="2024.04,-266.82 2015.98,-259.94 2017.99,-270.34 2024.04,-266.82"/>
</g>
<!-- at_daemon_server&#45;&gt;at_daemon_core -->
<g id="edge61" class="edge">
<title>at_daemon_server&#45;&gt;at_daemon_core</title>
<path fill="none" stroke="#c16272" d="M1297.23,-1836.57C1291.74,-1753.56 1291.55,-1395.6 1296.65,-1293.27"/>
<polygon fill="#c16272" stroke="#c16272" points="1300.15,-1293.31 1297.23,-1283.12 1293.17,-1292.91 1300.15,-1293.31"/>
</g>
<!-- at_daemon_server&#45;&gt;at_daemon_core -->
<g id="edge64" class="edge">
<title>at_daemon_server&#45;&gt;at_daemon_core</title>
<path fill="none" stroke="#c16272" stroke-dasharray="1,5" d="M1302.2,-1836.57C1307.69,-1753.56 1307.88,-1395.6 1302.78,-1293.27"/>
<polygon fill="#c16272" stroke="#c16272" points="1306.26,-1292.91 1302.2,-1283.12 1299.27,-1293.31 1306.26,-1292.91"/>
</g>
<!-- at_daemon_server&#45;&gt;at_onboarding_cli -->
<g id="edge63" class="edge">
<title>at_daemon_server&#45;&gt;at_onboarding_cli</title>
<path fill="none" stroke="#514d2d" d="M1352.62,-1836.72C1614.66,-1751.92 2772.17,-1377.34 3054.47,-1285.99"/>
<polygon fill="#514d2d" stroke="#514d2d" points="3055.7,-1289.27 3064.14,-1282.86 3053.55,-1282.61 3055.7,-1289.27"/>
</g>
<!-- at_server_spec -->
<g id="node38" class="node">
<title>at_server_spec</title>
<polygon fill="none" stroke="#e6f023" points="507.71,-1282.84 385.71,-1282.84 385.71,-1246.84 507.71,-1246.84 507.71,-1282.84"/>
<text text-anchor="middle" x="446.71" y="-1261.14" font-family="Times,serif" font-size="14.00">at_server_spec</text>
</g>
<!-- at_daemon_server&#45;&gt;at_server_spec -->
<g id="edge62" class="edge">
<title>at_daemon_server&#45;&gt;at_server_spec</title>
<path fill="none" stroke="#e6f023" d="M1274.65,-1836.57C1152.53,-1752.39 620.16,-1385.41 480.41,-1289.07"/>
<polygon fill="#e6f023" stroke="#e6f023" points="482,-1285.92 471.78,-1283.12 478.03,-1291.68 482,-1285.92"/>
</g>
<!-- at_dump_atKeys -->
<g id="node19" class="node">
<title>at_dump_atKeys</title>
<polygon fill="none" stroke="#80b159" points="1685.21,-1282.84 1552.21,-1282.84 1552.21,-1246.84 1685.21,-1246.84 1685.21,-1282.84"/>
<text text-anchor="middle" x="1618.71" y="-1261.14" font-family="Times,serif" font-size="14.00">at_dump_atKeys</text>
</g>
<!-- at_pkam -->
<g id="node33" class="node">
<title>at_pkam</title>
<polygon fill="none" stroke="#d549ec" points="1740.21,-770.84 1663.21,-770.84 1663.21,-734.84 1740.21,-734.84 1740.21,-770.84"/>
<text text-anchor="middle" x="1701.71" y="-749.14" font-family="Times,serif" font-size="14.00">at_pkam</text>
</g>
<!-- at_dump_atKeys&#45;&gt;at_pkam -->
<g id="edge66" class="edge">
<title>at_dump_atKeys&#45;&gt;at_pkam</title>
<path fill="none" stroke="#d549ec" stroke-dasharray="1,5" d="M1621.52,-1246.58C1633.74,-1171.52 1682.3,-873.11 1697.29,-781.04"/>
<polygon fill="#d549ec" stroke="#d549ec" points="1700.75,-781.53 1698.91,-771.1 1693.84,-780.41 1700.75,-781.53"/>
</g>
<!-- at_events_flutter -->
<g id="node20" class="node">
<title>at_events_flutter</title>
<polygon fill="none" stroke="#5b74f7" points="2681.21,-3449.84 2544.21,-3449.84 2544.21,-3413.84 2681.21,-3413.84 2681.21,-3449.84"/>
<text text-anchor="middle" x="2612.71" y="-3428.14" font-family="Times,serif" font-size="14.00">at_events_flutter</text>
</g>
<!-- at_events_flutter&#45;&gt;at_client -->
<g id="edge72" class="edge">
<title>at_events_flutter&#45;&gt;at_client</title>
<path fill="none" stroke="#61d4fc" d="M2639.73,-3413.79C2731.92,-3354.88 3040.34,-3151.85 3255.71,-2938.84 3457.18,-2739.6 3516.89,-2687.66 3648.71,-2436.84 3779.09,-2188.79 3841.27,-2107.91 3815.71,-1828.84 3796.63,-1620.44 3738.59,-1374.01 3718.58,-1293.08"/>
<polygon fill="#61d4fc" stroke="#61d4fc" points="3721.93,-1292.05 3716.12,-1283.19 3715.14,-1293.74 3721.93,-1292.05"/>
</g>
<!-- at_events_flutter&#45;&gt;at_client_mobile -->
<g id="edge68" class="edge">
<title>at_events_flutter&#45;&gt;at_client_mobile</title>
<path fill="none" stroke="#d9577c" d="M2639.19,-3413.77C2770.35,-3327.67 3354.79,-2925.9 3620.71,-2436.84 3725.46,-2244.21 3738.98,-1970.16 3740.56,-1883.33"/>
<polygon fill="#d9577c" stroke="#d9577c" points="3744.06,-1883.29 3740.71,-1873.24 3737.06,-1883.19 3744.06,-1883.29"/>
</g>
<!-- at_events_flutter&#45;&gt;at_common_flutter -->
<g id="edge76" class="edge">
<title>at_events_flutter&#45;&gt;at_common_flutter</title>
<path fill="none" stroke="#bf681f" d="M2596.39,-3413.83C2510.68,-3323.19 2111.77,-2884.37 1981.71,-2436.84 1920.59,-2226.51 2046.21,-1965.32 2090.81,-1882.39"/>
<polygon fill="#bf681f" stroke="#bf681f" points="2094.12,-1883.64 2095.83,-1873.18 2087.97,-1880.29 2094.12,-1883.64"/>
</g>
<!-- at_events_flutter&#45;&gt;at_commons -->
<g id="edge67" class="edge">
<title>at_events_flutter&#45;&gt;at_commons</title>
<path fill="none" stroke="#7eceb0" d="M2641.88,-3413.81C2741.46,-3354.95 3075.14,-3152.08 3314.71,-2938.84 3920.26,-2399.88 4191.99,-2020.12 3975.71,-1238.84 3904.93,-983.13 3878.82,-888.88 3668.71,-726.84 3148.15,-325.38 2303.85,-256.63 2068.42,-245.11"/>
<polygon fill="#7eceb0" stroke="#7eceb0" points="2068.48,-241.61 2058.32,-244.63 2068.15,-248.6 2068.48,-241.61"/>
</g>
<!-- at_events_flutter&#45;&gt;at_contact -->
<g id="edge69" class="edge">
<title>at_events_flutter&#45;&gt;at_contact</title>
<path fill="none" stroke="#250aa2" d="M2627.62,-3413.75C2680.87,-3352.24 2865.34,-3135.38 2992.71,-2938.84 3253.7,-2536.14 3504.55,-2005.11 3561.64,-1882.07"/>
<polygon fill="#250aa2" stroke="#250aa2" points="3564.82,-1883.52 3565.84,-1872.98 3558.47,-1880.58 3564.82,-1883.52"/>
</g>
<!-- at_events_flutter&#45;&gt;at_contacts_flutter -->
<g id="edge74" class="edge">
<title>at_events_flutter&#45;&gt;at_contacts_flutter</title>
<path fill="none" stroke="#1267b5" d="M2609.71,-3413.5C2598.2,-3347.18 2555.63,-3103.26 2517.71,-2902.84 2482.5,-2716.68 2437.08,-2493.25 2421.36,-2416.38"/>
<polygon fill="#1267b5" stroke="#1267b5" points="2424.69,-2415.22 2419.26,-2406.13 2417.84,-2416.63 2424.69,-2415.22"/>
</g>
<!-- at_events_flutter&#45;&gt;at_contacts_group_flutter -->
<g id="edge73" class="edge">
<title>at_events_flutter&#45;&gt;at_contacts_group_flutter</title>
<path fill="none" stroke="#dae1d2" d="M2605.84,-3413.62C2575.9,-3338.55 2456.7,-3039.67 2420.32,-2948.43"/>
<polygon fill="#dae1d2" stroke="#dae1d2" points="2423.54,-2947.06 2416.58,-2939.07 2417.04,-2949.65 2423.54,-2947.06"/>
</g>
<!-- at_location_flutter -->
<g id="node24" class="node">
<title>at_location_flutter</title>
<polygon fill="none" stroke="#283e9c" points="2692.71,-2938.84 2546.71,-2938.84 2546.71,-2902.84 2692.71,-2902.84 2692.71,-2938.84"/>
<text text-anchor="middle" x="2619.71" y="-2917.14" font-family="Times,serif" font-size="14.00">at_location_flutter</text>
</g>
<!-- at_events_flutter&#45;&gt;at_location_flutter -->
<g id="edge75" class="edge">
<title>at_events_flutter&#45;&gt;at_location_flutter</title>
<path fill="none" stroke="#283e9c" d="M2612.95,-3413.62C2613.98,-3338.77 2618.07,-3041.48 2619.34,-2949.27"/>
<polygon fill="#283e9c" stroke="#283e9c" points="2622.84,-2949.11 2619.48,-2939.07 2615.84,-2949.02 2622.84,-2949.11"/>
</g>
<!-- at_events_flutter&#45;&gt;at_lookup -->
<g id="edge70" class="edge">
<title>at_events_flutter&#45;&gt;at_lookup</title>
<path fill="none" stroke="#94d42d" d="M2681.44,-3415.57C2933.3,-3358.23 3800.46,-3148.34 3978.71,-2938.84 4454.87,-2379.25 4214.87,-2045.46 4282.71,-1313.84 4307.36,-1048.06 4327.78,-930.91 4155.71,-726.84 3864.99,-382.07 3281.52,-274.86 3103.49,-249.5"/>
<polygon fill="#94d42d" stroke="#94d42d" points="3103.73,-246 3093.34,-248.08 3102.76,-252.94 3103.73,-246"/>
</g>
<!-- at_events_flutter&#45;&gt;at_utils -->
<g id="edge71" class="edge">
<title>at_events_flutter&#45;&gt;at_utils</title>
<path fill="none" stroke="#75e849" d="M2642.29,-3413.66C2740.89,-3355.48 3064.66,-3157.35 3285.71,-2938.84 3672.2,-2556.82 3801.81,-2430.26 3936.71,-1903.84 4010.1,-1617.47 4133.48,-1472 3951.71,-1238.84 3706.7,-924.56 2335.03,-782.64 2068.56,-757.85"/>
<polygon fill="#75e849" stroke="#75e849" points="2068.76,-754.35 2058.48,-756.92 2068.12,-761.32 2068.76,-754.35"/>
</g>
<!-- at_follows_flutter -->
<g id="node21" class="node">
<title>at_follows_flutter</title>
<polygon fill="none" stroke="#13b24b" points="2839.71,-3449.84 2699.71,-3449.84 2699.71,-3413.84 2839.71,-3413.84 2839.71,-3449.84"/>
<text text-anchor="middle" x="2769.71" y="-3428.14" font-family="Times,serif" font-size="14.00">at_follows_flutter</text>
</g>
<!-- at_follows_flutter&#45;&gt;at_client -->
<g id="edge79" class="edge">
<title>at_follows_flutter&#45;&gt;at_client</title>
<path fill="none" stroke="#61d4fc" d="M2834.14,-3413.84C3059.84,-3352.82 3808.37,-3138 3940.71,-2938.84 4131.1,-2652.34 3779.97,-1485.16 3720.17,-1292.76"/>
<polygon fill="#61d4fc" stroke="#61d4fc" points="3723.49,-1291.64 3717.17,-1283.14 3716.81,-1293.73 3723.49,-1291.64"/>
</g>
<!-- at_follows_flutter&#45;&gt;at_client_mobile -->
<g id="edge80" class="edge">
<title>at_follows_flutter&#45;&gt;at_client_mobile</title>
<path fill="none" stroke="#d9577c" d="M2815.68,-3413.76C2988.93,-3348.37 3597.99,-3109.14 3704.71,-2938.84 3930.15,-2579.13 3786.13,-2012.09 3748.82,-1882.72"/>
<polygon fill="#d9577c" stroke="#d9577c" points="3752.1,-1881.48 3745.94,-1872.86 3745.38,-1883.44 3752.1,-1881.48"/>
</g>
<!-- at_follows_flutter&#45;&gt;at_commons -->
<g id="edge78" class="edge">
<title>at_follows_flutter&#45;&gt;at_commons</title>
<path fill="none" stroke="#7eceb0" d="M2840.04,-3415.25C3092.55,-3357.82 3947.49,-3150.4 4116.71,-2938.84 4425.4,-2552.94 4255.75,-2317.45 4181.71,-1828.84 4101.87,-1301.87 4127.74,-1056.22 3708.71,-726.84 3179.22,-310.63 2308.5,-252.33 2068.6,-244.17"/>
<polygon fill="#7eceb0" stroke="#7eceb0" points="2068.43,-240.66 2058.33,-243.84 2068.21,-247.66 2068.43,-240.66"/>
</g>
<!-- at_follows_flutter&#45;&gt;at_lookup -->
<g id="edge82" class="edge">
<title>at_follows_flutter&#45;&gt;at_lookup</title>
<path fill="none" stroke="#94d42d" d="M2834.1,-3413.77C3106.17,-3341.04 4151.92,-3055.54 4246.71,-2938.84 4705.12,-2374.53 4392.87,-2039.68 4434.71,-1313.84 4449.73,-1053.39 4585.7,-939.6 4434.71,-726.84 4269.96,-494.69 3336.56,-298.73 3103.46,-252.94"/>
<polygon fill="#94d42d" stroke="#94d42d" points="3104.02,-249.49 3093.53,-251 3102.68,-256.35 3104.02,-249.49"/>
</g>
<!-- at_server_status -->
<g id="node39" class="node">
<title>at_server_status</title>
<polygon fill="none" stroke="#320113" points="3359.71,-770.84 3225.71,-770.84 3225.71,-734.84 3359.71,-734.84 3359.71,-770.84"/>
<text text-anchor="middle" x="3292.71" y="-749.14" font-family="Times,serif" font-size="14.00">at_server_status</text>
</g>
<!-- at_follows_flutter&#45;&gt;at_server_status -->
<g id="edge81" class="edge">
<title>at_follows_flutter&#45;&gt;at_server_status</title>
<path fill="none" stroke="#320113" d="M2839.94,-3415.44C3091.03,-3358.87 3937.6,-3154.54 4094.71,-2938.84 4205.92,-2786.16 4190.65,-1400.36 4092.71,-1238.84 3924.66,-961.67 3532.44,-821.9 3367.69,-773.75"/>
<polygon fill="#320113" stroke="#320113" points="3368.22,-770.26 3357.65,-770.84 3366.28,-776.98 3368.22,-770.26"/>
</g>
<!-- at_follows_flutter&#45;&gt;at_utils -->
<g id="edge77" class="edge">
<title>at_follows_flutter&#45;&gt;at_utils</title>
<path fill="none" stroke="#75e849" d="M2834.99,-3413.77C3063.74,-3352.52 3822.88,-3137.02 3963.71,-2938.84 4146.64,-2681.44 4236.16,-1552.9 3989.71,-1238.84 3738.87,-919.19 2338.03,-781.36 2068.56,-757.63"/>
<polygon fill="#75e849" stroke="#75e849" points="2068.64,-754.12 2058.37,-756.74 2068.03,-761.09 2068.64,-754.12"/>
</g>
<!-- at_hive_recovery -->
<g id="node22" class="node">
<title>at_hive_recovery</title>
<polygon fill="none" stroke="#f0efbc" points="1534.21,-1282.84 1397.21,-1282.84 1397.21,-1246.84 1534.21,-1246.84 1534.21,-1282.84"/>
<text text-anchor="middle" x="1465.71" y="-1261.14" font-family="Times,serif" font-size="14.00">at_hive_recovery</text>
</g>
<!-- at_hive_recovery&#45;&gt;at_persistence_secondary_server -->
<g id="edge83" class="edge">
<title>at_hive_recovery&#45;&gt;at_persistence_secondary_server</title>
<path fill="none" stroke="#9760d3" d="M1467.01,-1283.04C1469.79,-1337.7 1469.61,-1501.05 1375.71,-1571.34 1023.47,-1835.02 763.16,-1797.47 385.71,-1571.34 281.96,-1509.19 240.15,-1356.51 226.88,-1293.14"/>
<polygon fill="#9760d3" stroke="#9760d3" points="230.26,-1292.18 224.86,-1283.07 223.39,-1293.56 230.26,-1292.18"/>
</g>
<!-- at_invitation_flutter -->
<g id="node23" class="node">
<title>at_invitation_flutter</title>
<polygon fill="none" stroke="#b653c9" points="2184.71,-2405.84 2026.71,-2405.84 2026.71,-2369.84 2184.71,-2369.84 2184.71,-2405.84"/>
<text text-anchor="middle" x="2105.71" y="-2384.14" font-family="Times,serif" font-size="14.00">at_invitation_flutter</text>
</g>
<!-- at_invitation_flutter&#45;&gt;at_client_mobile -->
<g id="edge84" class="edge">
<title>at_invitation_flutter&#45;&gt;at_client_mobile</title>
<path fill="none" stroke="#d9577c" d="M2167.52,-2369.79C2376.02,-2311.73 3071.7,-2113.68 3630.71,-1903.84 3652.09,-1895.82 3675.32,-1885.87 3694.9,-1877.12"/>
<polygon fill="#d9577c" stroke="#d9577c" points="3696.51,-1880.23 3704.19,-1872.93 3693.64,-1873.85 3696.51,-1880.23"/>
</g>
<!-- at_invitation_flutter&#45;&gt;at_common_flutter -->
<g id="edge85" class="edge">
<title>at_invitation_flutter&#45;&gt;at_common_flutter</title>
<path fill="none" stroke="#bf681f" d="M2105.71,-2369.78C2105.71,-2292.85 2105.71,-1977.99 2105.71,-1883.06"/>
<polygon fill="#bf681f" stroke="#bf681f" points="2109.21,-1882.85 2105.71,-1872.85 2102.21,-1882.85 2109.21,-1882.85"/>
</g>
<!-- at_invitation_flutter&#45;&gt;at_commons -->
<g id="edge86" class="edge">
<title>at_invitation_flutter&#45;&gt;at_commons</title>
<path fill="none" stroke="#7eceb0" d="M2116.86,-2369.45C2200.36,-2236.79 2718.04,-1372.71 2461.71,-726.84 2373.93,-505.65 2131.86,-326.86 2040.88,-265.6"/>
<polygon fill="#7eceb0" stroke="#7eceb0" points="2042.57,-262.52 2032.31,-259.88 2038.68,-268.34 2042.57,-262.52"/>
</g>
<!-- at_invitation_flutter&#45;&gt;at_lookup -->
<g id="edge87" class="edge">
<title>at_invitation_flutter&#45;&gt;at_lookup</title>
<path fill="none" stroke="#94d42d" d="M2116.48,-2369.65C2155,-2307.85 2288.72,-2090.78 2384.71,-1903.84 2711.78,-1266.92 2989.7,-430.68 3041.91,-270.13"/>
<polygon fill="#94d42d" stroke="#94d42d" points="3045.4,-270.74 3045.15,-260.15 3038.74,-268.58 3045.4,-270.74"/>
</g>
<!-- at_invitation_flutter&#45;&gt;at_utils -->
<g id="edge88" class="edge">
<title>at_invitation_flutter&#45;&gt;at_utils</title>
<path fill="none" stroke="#75e849" d="M2112.33,-2369.78C2152.24,-2264.5 2355.88,-1692.7 2253.71,-1238.84 2211.31,-1050.47 2086.88,-849.31 2040.98,-779.46"/>
<polygon fill="#75e849" stroke="#75e849" points="2043.73,-777.27 2035.29,-770.86 2037.89,-781.13 2043.73,-777.27"/>
</g>
<!-- at_location_flutter&#45;&gt;at_client -->
<g id="edge94" class="edge">
<title>at_location_flutter&#45;&gt;at_client</title>
<path fill="none" stroke="#61d4fc" d="M2546.47,-2904.79C2230.68,-2839.16 996.72,-2575.22 891.71,-2436.84 810.04,-2329.21 805.45,-1932.84 891.71,-1828.84 1682.53,-875.48 2471.63,-1750.66 3630.71,-1313.84 3647.69,-1307.45 3665.17,-1297.58 3679.52,-1288.45"/>
<polygon fill="#61d4fc" stroke="#61d4fc" points="3681.57,-1291.29 3688.02,-1282.9 3677.74,-1285.43 3681.57,-1291.29"/>
</g>
<!-- at_location_flutter&#45;&gt;at_client_mobile -->
<g id="edge89" class="edge">
<title>at_location_flutter&#45;&gt;at_client_mobile</title>
<path fill="none" stroke="#d9577c" d="M2640.86,-2902.73C2716.04,-2841.65 2976.7,-2627.82 3178.71,-2436.84 3397.1,-2230.4 3643.38,-1962.79 3718.07,-1880.8"/>
<polygon fill="#d9577c" stroke="#d9577c" points="3721.01,-1882.77 3725.15,-1873.02 3715.83,-1878.06 3721.01,-1882.77"/>
</g>
<!-- at_location_flutter&#45;&gt;at_common_flutter -->
<g id="edge95" class="edge">
<title>at_location_flutter&#45;&gt;at_common_flutter</title>
<path fill="none" stroke="#bf681f" d="M2578.95,-2902.7C2464.22,-2851.87 2138.99,-2689.64 2017.71,-2436.84 1969.45,-2336.24 2067.93,-1983.32 2097.6,-1882.77"/>
<polygon fill="#bf681f" stroke="#bf681f" points="2100.99,-1883.64 2100.49,-1873.06 2094.28,-1881.65 2100.99,-1883.64"/>
</g>
<!-- at_location_flutter&#45;&gt;at_commons -->
<g id="edge91" class="edge">
<title>at_location_flutter&#45;&gt;at_commons</title>
<path fill="none" stroke="#7eceb0" d="M2546.64,-2905.22C2227.19,-2840.56 964.63,-2577.48 856.71,-2436.84 774.46,-2329.65 779.11,-1941.49 853.71,-1828.84 1177.55,-1339.85 1744.87,-1802.84 2068.71,-1313.84 2300.77,-963.44 2074.81,-398.7 2017.95,-269.68"/>
<polygon fill="#7eceb0" stroke="#7eceb0" points="2020.98,-267.88 2013.72,-260.17 2014.59,-270.73 2020.98,-267.88"/>
</g>
<!-- at_location_flutter&#45;&gt;at_contact -->
<g id="edge92" class="edge">
<title>at_location_flutter&#45;&gt;at_contact</title>
<path fill="none" stroke="#250aa2" d="M2640.81,-2902.65C2713.94,-2842.57 2961.85,-2634.82 3139.71,-2436.84 3319.76,-2236.44 3502.04,-1965.14 3557.03,-1881.47"/>
<polygon fill="#250aa2" stroke="#250aa2" points="3560.11,-1883.15 3562.67,-1872.86 3554.26,-1879.31 3560.11,-1883.15"/>
</g>
<!-- at_location_flutter&#45;&gt;at_contacts_flutter -->
<g id="edge96" class="edge">
<title>at_location_flutter&#45;&gt;at_contacts_flutter</title>
<path fill="none" stroke="#1267b5" d="M2613.16,-2902.78C2583.51,-2825.62 2461.9,-2509.07 2425.84,-2415.2"/>
<polygon fill="#1267b5" stroke="#1267b5" points="2429.1,-2413.93 2422.25,-2405.85 2422.57,-2416.44 2429.1,-2413.93"/>
</g>
<!-- at_location_flutter&#45;&gt;at_lookup -->
<g id="edge90" class="edge">
<title>at_location_flutter&#45;&gt;at_lookup</title>
<path fill="none" stroke="#94d42d" d="M2641.61,-2902.68C2712.2,-2845.77 2933.66,-2654.48 3010.71,-2436.84 3020.65,-2408.77 3012.12,-2399.59 3010.71,-2369.84 3000.93,-2162.04 2976.5,-2111.65 2966.71,-1903.84 2935.47,-1240.54 3028.16,-428.5 3047.32,-270.28"/>
<polygon fill="#94d42d" stroke="#94d42d" points="3050.83,-270.38 3048.57,-260.03 3043.88,-269.53 3050.83,-270.38"/>
</g>
<!-- at_location_flutter&#45;&gt;at_utils -->
<g id="edge93" class="edge">
<title>at_location_flutter&#45;&gt;at_utils</title>
<path fill="none" stroke="#75e849" d="M2646.96,-2902.7C2743.29,-2839.68 3058.62,-2611.97 2992.71,-2369.84 2892.17,-2000.47 2165.52,-955.75 2041.65,-779.3"/>
<polygon fill="#75e849" stroke="#75e849" points="2044.51,-777.29 2035.9,-771.12 2038.78,-781.31 2044.51,-777.29"/>
</g>
<!-- at_login_flutter -->
<g id="node25" class="node">
<title>at_login_flutter</title>
<polygon fill="none" stroke="#7ceee7" points="2983.21,-3449.84 2858.21,-3449.84 2858.21,-3413.84 2983.21,-3413.84 2983.21,-3449.84"/>
<text text-anchor="middle" x="2920.71" y="-3428.14" font-family="Times,serif" font-size="14.00">at_login_flutter</text>
</g>
<!-- at_login_flutter&#45;&gt;at_client -->
<g id="edge97" class="edge">
<title>at_login_flutter&#45;&gt;at_client</title>
<path fill="none" stroke="#61d4fc" d="M2976.4,-3413.83C3128.55,-3364.71 3556.13,-3208.71 3799.71,-2938.84 3962.58,-2758.41 3967.47,-2674.87 4016.71,-2436.84 4071.46,-2172.23 4083.11,-2090.78 4016.71,-1828.84 3959.12,-1601.61 3789.46,-1366.73 3731.44,-1290.98"/>
<polygon fill="#61d4fc" stroke="#61d4fc" points="3734.12,-1288.72 3725.24,-1282.94 3728.57,-1292.99 3734.12,-1288.72"/>
</g>
<!-- at_login_flutter&#45;&gt;at_client_mobile -->
<g id="edge98" class="edge">
<title>at_login_flutter&#45;&gt;at_client_mobile</title>
<path fill="none" stroke="#d9577c" d="M2983.24,-3417.59C3149.49,-3378.59 3601.96,-3247.04 3780.71,-2938.84 3993.71,-2571.6 3800.16,-2010.38 3751.26,-1882.43"/>
<polygon fill="#d9577c" stroke="#d9577c" points="3754.48,-1881.07 3747.61,-1873 3747.95,-1883.59 3754.48,-1881.07"/>
</g>
<!-- at_login_flutter&#45;&gt;at_commons -->
<g id="edge99" class="edge">
<title>at_login_flutter&#45;&gt;at_commons</title>
<path fill="none" stroke="#7eceb0" d="M2983.31,-3431.75C3211.45,-3431.24 4002.64,-3395.54 4341.71,-2938.84 4605.19,-2583.96 4188.63,-1423.3 4106.71,-1238.84 3993.7,-984.38 3973.29,-887.26 3745.71,-726.84 3184.15,-331.02 2309.16,-258.2 2068.69,-245.44"/>
<polygon fill="#7eceb0" stroke="#7eceb0" points="2068.56,-241.93 2058.39,-244.91 2068.2,-248.92 2068.56,-241.93"/>
</g>
<!-- at_login_flutter&#45;&gt;at_server_status -->
<g id="edge100" class="edge">
<title>at_login_flutter&#45;&gt;at_server_status</title>
<path fill="none" stroke="#320113" d="M2983.35,-3418.73C3233.84,-3368.87 4157.97,-3171.26 4322.71,-2938.84 4391.06,-2842.42 4330.4,-1427.51 4206.71,-1238.84 4007.35,-934.74 3551.8,-808.32 3369.86,-768.72"/>
<polygon fill="#320113" stroke="#320113" points="3370.35,-765.25 3359.84,-766.57 3368.88,-772.09 3370.35,-765.25"/>
</g>
<!-- at_login_flutter&#45;&gt;at_utils -->
<g id="edge101" class="edge">
<title>at_login_flutter&#45;&gt;at_utils</title>
<path fill="none" stroke="#75e849" d="M2972.74,-3413.75C3186.58,-3340.01 3995.35,-3025.87 4181.71,-2436.84 4343.7,-1924.86 4399.82,-1623.12 4024.71,-1238.84 3736.12,-943.2 2337.17,-786.02 2068.42,-758.31"/>
<polygon fill="#75e849" stroke="#75e849" points="2068.56,-754.8 2058.26,-757.26 2067.85,-761.77 2068.56,-754.8"/>
</g>
<!-- at_lookup&#45;&gt;at_chops -->
<g id="edge104" class="edge">
<title>at_lookup&#45;&gt;at_chops</title>
<path fill="none" stroke="#8fb4d4" d="M3055.15,-259.85C3096.39,-418.02 3412.56,-1630.78 3463.73,-1827.05"/>
<polygon fill="#8fb4d4" stroke="#8fb4d4" points="3460.37,-1828.05 3466.28,-1836.84 3467.15,-1826.28 3460.37,-1828.05"/>
</g>
<!-- at_lookup&#45;&gt;at_commons -->
<g id="edge103" class="edge">
<title>at_lookup&#45;&gt;at_commons</title>
<path fill="none" stroke="#7eceb0" d="M3008.07,-241.84C2694.87,-241.84 2381.67,-241.84 2068.47,-241.84"/>
<polygon fill="#7eceb0" stroke="#7eceb0" points="2068.27,-238.34 2058.27,-241.84 2068.27,-245.34 2068.27,-238.34"/>
</g>
<!-- at_lookup&#45;&gt;at_utils -->
<g id="edge102" class="edge">
<title>at_lookup&#45;&gt;at_utils</title>
<path fill="none" stroke="#75e849" d="M3016.19,-259.96C2862.19,-336.28 2238.02,-645.63 2067.14,-730.32"/>
<polygon fill="#75e849" stroke="#75e849" points="2065.58,-727.19 2058.18,-734.76 2068.69,-733.46 2065.58,-727.19"/>
</g>
<!-- at_notify_flutter -->
<g id="node27" class="node">
<title>at_notify_flutter</title>
<polygon fill="none" stroke="#19e4c3" points="2639.21,-2405.84 2508.21,-2405.84 2508.21,-2369.84 2639.21,-2369.84 2639.21,-2405.84"/>
<text text-anchor="middle" x="2573.71" y="-2384.14" font-family="Times,serif" font-size="14.00">at_notify_flutter</text>
</g>
<!-- at_notify_flutter&#45;&gt;at_client -->
<g id="edge106" class="edge">
<title>at_notify_flutter&#45;&gt;at_client</title>
<path fill="none" stroke="#61d4fc" d="M2581.16,-2369.68C2613.12,-2297.42 2744.9,-2013.15 2917.71,-1828.84 3044.67,-1693.45 3538.41,-1375.85 3675.96,-1288.45"/>
<polygon fill="#61d4fc" stroke="#61d4fc" points="3677.93,-1291.35 3684.5,-1283.03 3674.18,-1285.44 3677.93,-1291.35"/>
</g>
<!-- at_notify_flutter&#45;&gt;at_client_mobile -->
<g id="edge105" class="edge">
<title>at_notify_flutter&#45;&gt;at_client_mobile</title>
<path fill="none" stroke="#d9577c" d="M2611.22,-2369.78C2784.06,-2291.13 3503.45,-1963.8 3694.15,-1877.03"/>
<polygon fill="#d9577c" stroke="#d9577c" points="3695.69,-1880.17 3703.35,-1872.85 3692.8,-1873.8 3695.69,-1880.17"/>
</g>
<!-- at_notify_flutter&#45;&gt;at_common_flutter -->
<g id="edge108" class="edge">
<title>at_notify_flutter&#45;&gt;at_common_flutter</title>
<path fill="none" stroke="#bf681f" d="M2558.67,-2369.78C2490.25,-2292.15 2208.28,-1972.21 2127.46,-1880.51"/>
<polygon fill="#bf681f" stroke="#bf681f" points="2129.94,-1878.03 2120.7,-1872.85 2124.69,-1882.66 2129.94,-1878.03"/>
</g>
<!-- at_notify_flutter&#45;&gt;at_commons -->
<g id="edge107" class="edge">
<title>at_notify_flutter&#45;&gt;at_commons</title>
<path fill="none" stroke="#7eceb0" d="M2578.73,-2369.72C2617.53,-2233.76 2859.32,-1318.77 2520.71,-726.84 2395,-507.08 2137.36,-327.14 2042.14,-265.61"/>
<polygon fill="#7eceb0" stroke="#7eceb0" points="2043.75,-262.48 2033.44,-260.02 2039.96,-268.37 2043.75,-262.48"/>
</g>
<!-- at_onboarding_cli&#45;&gt;at_chops -->
<g id="edge114" class="edge">
<title>at_onboarding_cli&#45;&gt;at_chops</title>
<path fill="none" stroke="#8fb4d4" d="M3129.6,-1283.12C3185.29,-1366.47 3402.51,-1726.99 3457.95,-1827.65"/>
<polygon fill="#8fb4d4" stroke="#8fb4d4" points="3454.94,-1829.45 3462.8,-1836.57 3461.09,-1826.11 3454.94,-1829.45"/>
</g>
<!-- at_onboarding_cli&#45;&gt;at_client -->
<g id="edge110" class="edge">
<title>at_onboarding_cli&#45;&gt;at_client</title>
<path fill="none" stroke="#61d4fc" d="M3187.89,-1264.84C3346.15,-1264.84 3504.41,-1264.84 3662.67,-1264.84"/>
<polygon fill="#61d4fc" stroke="#61d4fc" points="3663.09,-1268.34 3673.09,-1264.84 3663.09,-1261.34 3663.09,-1268.34"/>
</g>
<!-- at_onboarding_cli&#45;&gt;at_commons -->
<g id="edge112" class="edge">
<title>at_onboarding_cli&#45;&gt;at_commons</title>
<path fill="none" stroke="#7eceb0" d="M3108.15,-1246.76C3072.09,-1176.06 2926.22,-901.96 2746.71,-726.84 2518.39,-504.1 2173.11,-324.34 2050.69,-264.32"/>
<polygon fill="#7eceb0" stroke="#7eceb0" points="2052.1,-261.12 2041.58,-259.88 2049.03,-267.41 2052.1,-261.12"/>
</g>
<!-- at_onboarding_cli&#45;&gt;at_lookup -->
<g id="edge111" class="edge">
<title>at_onboarding_cli&#45;&gt;at_lookup</title>
<path fill="none" stroke="#94d42d" d="M3115.6,-1246.55C3107.84,-1126.52 3062.03,-417.97 3052.47,-269.94"/>
<polygon fill="#94d42d" stroke="#94d42d" points="3055.95,-269.65 3051.82,-259.9 3048.97,-270.11 3055.95,-269.65"/>
</g>
<!-- at_onboarding_cli&#45;&gt;at_server_status -->
<g id="edge113" class="edge">
<title>at_onboarding_cli&#45;&gt;at_server_status</title>
<path fill="none" stroke="#320113" d="M3122.67,-1246.58C3148.6,-1171.44 3251.76,-872.5 3283.43,-780.76"/>
<polygon fill="#320113" stroke="#320113" points="3286.81,-781.7 3286.76,-771.1 3280.19,-779.41 3286.81,-781.7"/>
</g>
<!-- at_onboarding_cli&#45;&gt;at_utils -->
<g id="edge109" class="edge">
<title>at_onboarding_cli&#45;&gt;at_utils</title>
<path fill="none" stroke="#75e849" d="M3080.04,-1246.73C2915.45,-1169.94 2245.39,-857.28 2067.34,-774.2"/>
<polygon fill="#75e849" stroke="#75e849" points="2068.8,-771.02 2058.26,-769.96 2065.84,-777.36 2068.8,-771.02"/>
</g>
<!-- at_onboarding_flutter -->
<g id="node29" class="node">
<title>at_onboarding_flutter</title>
<polygon fill="none" stroke="#a801a6" points="2983.71,-2938.84 2813.71,-2938.84 2813.71,-2902.84 2983.71,-2902.84 2983.71,-2938.84"/>
<text text-anchor="middle" x="2898.71" y="-2917.14" font-family="Times,serif" font-size="14.00">at_onboarding_flutter</text>
</g>
<!-- at_onboarding_flutter&#45;&gt;at_backupkey_flutter -->
<g id="edge115" class="edge">
<title>at_onboarding_flutter&#45;&gt;at_backupkey_flutter</title>
<path fill="none" stroke="#590b92" d="M2898.78,-2902.78C2899.07,-2825.85 2900.25,-2510.99 2900.61,-2416.06"/>
<polygon fill="#590b92" stroke="#590b92" points="2904.11,-2415.86 2900.65,-2405.85 2897.11,-2415.83 2904.11,-2415.86"/>
</g>
<!-- at_onboarding_flutter&#45;&gt;at_client -->
<g id="edge116" class="edge">
<title>at_onboarding_flutter&#45;&gt;at_client</title>
<path fill="none" stroke="#61d4fc" d="M2908.94,-2902.68C2944.52,-2841.86 3062.8,-2629.89 3101.71,-2436.84 3155.92,-2167.96 2875.85,-2075.57 2995.71,-1828.84 3071.2,-1673.47 3539.34,-1373.24 3674.95,-1288.57"/>
<polygon fill="#61d4fc" stroke="#61d4fc" points="3677.12,-1291.34 3683.76,-1283.08 3673.42,-1285.39 3677.12,-1291.34"/>
</g>
<!-- at_onboarding_flutter&#45;&gt;at_client_mobile -->
<g id="edge117" class="edge">
<title>at_onboarding_flutter&#45;&gt;at_client_mobile</title>
<path fill="none" stroke="#d9577c" d="M2941.58,-2902.78C3063.67,-2851.9 3415.62,-2688.94 3590.71,-2436.84 3717.66,-2254.07 3737.19,-1971.79 3740.18,-1883.32"/>
<polygon fill="#d9577c" stroke="#d9577c" points="3743.69,-1883.15 3740.48,-1873.06 3736.69,-1882.95 3743.69,-1883.15"/>
</g>
<!-- at_onboarding_flutter&#45;&gt;at_commons -->
<g id="edge118" class="edge">
<title>at_onboarding_flutter&#45;&gt;at_commons</title>
<path fill="none" stroke="#7eceb0" d="M2906.65,-2902.42C2936.56,-2834.63 3039.41,-2581.8 3010.71,-2369.84 2908.89,-1617.8 2952.18,-1367.72 2545.71,-726.84 2406.28,-506.99 2139.75,-326.51 2042.44,-265.25"/>
<polygon fill="#7eceb0" stroke="#7eceb0" points="2044.17,-262.2 2033.83,-259.86 2040.45,-268.13 2044.17,-262.2"/>
</g>
<!-- at_onboarding_flutter&#45;&gt;at_server_status -->
<g id="edge119" class="edge">
<title>at_onboarding_flutter&#45;&gt;at_server_status</title>
<path fill="none" stroke="#320113" d="M2917.86,-2902.65C3017.32,-2811.87 3476.32,-2374.53 3627.71,-1903.84 3771.51,-1456.78 3400.91,-903.56 3311.57,-779.37"/>
<polygon fill="#320113" stroke="#320113" points="3314.33,-777.22 3305.63,-771.18 3308.66,-781.33 3314.33,-777.22"/>
</g>
<!-- at_sync_ui_flutter -->
<g id="node40" class="node">
<title>at_sync_ui_flutter</title>
<polygon fill="none" stroke="#27d02d" points="2799.71,-2405.84 2657.71,-2405.84 2657.71,-2369.84 2799.71,-2369.84 2799.71,-2405.84"/>
<text text-anchor="middle" x="2728.71" y="-2384.14" font-family="Times,serif" font-size="14.00">at_sync_ui_flutter</text>
</g>
<!-- at_onboarding_flutter&#45;&gt;at_sync_ui_flutter -->
<g id="edge121" class="edge">
<title>at_onboarding_flutter&#45;&gt;at_sync_ui_flutter</title>
<path fill="none" stroke="#27d02d" d="M2893.25,-2902.78C2868.57,-2825.7 2767.41,-2509.71 2737.24,-2415.48"/>
<polygon fill="#27d02d" stroke="#27d02d" points="2740.54,-2414.3 2734.16,-2405.85 2733.87,-2416.44 2740.54,-2414.3"/>
</g>
<!-- at_onboarding_flutter&#45;&gt;at_utils -->
<g id="edge120" class="edge">
<title>at_onboarding_flutter&#45;&gt;at_utils</title>
<path fill="none" stroke="#75e849" d="M2936.65,-2902.65C3052.2,-2848.74 3405.11,-2672.41 3620.71,-2436.84 3803.08,-2237.59 3845.73,-2165.52 3912.71,-1903.84 3986.01,-1617.52 4093.86,-1472.38 3912.71,-1238.84 3673.37,-930.28 2331.69,-784.01 2068.51,-758.09"/>
<polygon fill="#75e849" stroke="#75e849" points="2068.84,-754.6 2058.55,-757.11 2068.16,-761.57 2068.84,-754.6"/>
</g>
<!-- at_persistence_root_server -->
<g id="node30" class="node">
<title>at_persistence_root_server</title>
<polygon fill="none" stroke="#831d2e" points="735.21,-1282.84 526.21,-1282.84 526.21,-1246.84 735.21,-1246.84 735.21,-1282.84"/>
<text text-anchor="middle" x="630.71" y="-1261.14" font-family="Times,serif" font-size="14.00">at_persistence_root_server</text>
</g>
<!-- at_persistence_root_server&#45;&gt;at_commons -->
<g id="edge122" class="edge">
<title>at_persistence_root_server&#45;&gt;at_commons</title>
<path fill="none" stroke="#7eceb0" d="M620.35,-1246.43C579.01,-1174.46 433.83,-896.02 555.71,-726.84 727.55,-488.33 1687.89,-300.16 1943.31,-253.83"/>
<polygon fill="#7eceb0" stroke="#7eceb0" points="1943.95,-257.27 1953.17,-252.05 1942.7,-250.38 1943.95,-257.27"/>
</g>
<!-- at_persistence_root_server&#45;&gt;at_persistence_spec -->
<g id="edge124" class="edge">
<title>at_persistence_root_server&#45;&gt;at_persistence_spec</title>
<path fill="none" stroke="#3bfcef" d="M631.15,-1246.58C633.07,-1171.59 640.66,-873.72 643.01,-781.32"/>
<polygon fill="#3bfcef" stroke="#3bfcef" points="646.52,-781.19 643.27,-771.1 639.52,-781.01 646.52,-781.19"/>
</g>
<!-- at_persistence_root_server&#45;&gt;at_utils -->
<g id="edge123" class="edge">
<title>at_persistence_root_server&#45;&gt;at_utils</title>
<path fill="none" stroke="#75e849" d="M677.46,-1246.73C890.91,-1168.58 1771.45,-846.2 1979.51,-770.03"/>
<polygon fill="#75e849" stroke="#75e849" points="1981,-773.21 1989.19,-766.49 1978.59,-766.64 1981,-773.21"/>
</g>
<!-- redis -->
<g id="node46" class="node">
<title>redis</title>
<polygon fill="none" stroke="#5cceca" points="3061.71,-1872.84 3007.71,-1872.84 3007.71,-1836.84 3061.71,-1836.84 3061.71,-1872.84"/>
<text text-anchor="middle" x="3034.71" y="-1851.14" font-family="Times,serif" font-size="14.00">redis</text>
</g>
<!-- at_persistence_root_server&#45;&gt;redis -->
<g id="edge125" class="edge">
<title>at_persistence_root_server&#45;&gt;redis</title>
<path fill="none" stroke="#5cceca" d="M719.73,-1282.87C1096.91,-1355.65 2563.7,-1645.24 2995.71,-1828.84 2997.76,-1829.71 2999.82,-1830.69 3001.86,-1831.73"/>
<polygon fill="#5cceca" stroke="#5cceca" points="3000.22,-1834.82 3010.65,-1836.66 3003.64,-1828.72 3000.22,-1834.82"/>
</g>
<!-- at_persistence_secondary_server&#45;&gt;at_commons -->
<g id="edge126" class="edge">
<title>at_persistence_secondary_server&#45;&gt;at_commons</title>
<path fill="none" stroke="#7eceb0" d="M225.59,-1246.41C243.03,-1171.97 321.36,-877.68 499.71,-726.84 954.6,-342.12 1719.97,-261.87 1942.98,-246.34"/>
<polygon fill="#7eceb0" stroke="#7eceb0" points="1943.44,-249.82 1953.18,-245.65 1942.97,-242.83 1943.44,-249.82"/>
</g>
<!-- at_persistence_secondary_server&#45;&gt;at_persistence_spec -->
<g id="edge128" class="edge">
<title>at_persistence_secondary_server&#45;&gt;at_persistence_spec</title>
<path fill="none" stroke="#3bfcef" d="M236,-1246.58C298.61,-1170.91 549.05,-868.25 623.03,-778.84"/>
<polygon fill="#3bfcef" stroke="#3bfcef" points="625.76,-781.04 629.44,-771.1 620.36,-776.57 625.76,-781.04"/>
</g>
<!-- at_persistence_secondary_server&#45;&gt;at_utils -->
<g id="edge127" class="edge">
<title>at_persistence_secondary_server&#45;&gt;at_utils</title>
<path fill="none" stroke="#75e849" d="M281.93,-1246.8C562.2,-1167.48 1735.64,-835.37 1979.3,-766.42"/>
<polygon fill="#75e849" stroke="#75e849" points="1980.54,-769.7 1989.21,-763.61 1978.64,-762.96 1980.54,-769.7"/>
</g>
<!-- at_repl -->
<g id="node34" class="node">
<title>at_repl</title>
<polygon fill="none" stroke="#1494d0" points="1769.71,-1282.84 1703.71,-1282.84 1703.71,-1246.84 1769.71,-1246.84 1769.71,-1282.84"/>
<text text-anchor="middle" x="1736.71" y="-1261.14" font-family="Times,serif" font-size="14.00">at_repl</text>
</g>
<!-- at_repl&#45;&gt;at_client -->
<g id="edge129" class="edge">
<title>at_repl&#45;&gt;at_client</title>
<path fill="none" stroke="#61d4fc" d="M1732.84,-1283.11C1722.54,-1337.26 1700.88,-1497.76 1787.71,-1571.34 2103.4,-1838.84 3329.43,-1833.32 3649.71,-1571.34 3733.36,-1502.93 3724.41,-1355.61 3716.29,-1293.44"/>
<polygon fill="#61d4fc" stroke="#61d4fc" points="3719.71,-1292.62 3714.86,-1283.2 3712.78,-1293.59 3719.71,-1292.62"/>
</g>
<!-- at_repl&#45;&gt;at_commons -->
<g id="edge130" class="edge">
<title>at_repl&#45;&gt;at_commons</title>
<path fill="none" stroke="#7eceb0" d="M1741.27,-1246.55C1772.89,-1126.52 1959.58,-417.97 1998.57,-269.94"/>
<polygon fill="#7eceb0" stroke="#7eceb0" points="2002.06,-270.46 2001.22,-259.9 1995.29,-268.68 2002.06,-270.46"/>
</g>
<!-- at_repl&#45;&gt;at_onboarding_cli -->
<g id="edge131" class="edge">
<title>at_repl&#45;&gt;at_onboarding_cli</title>
<path fill="none" stroke="#514d2d" d="M1732.84,-1283.11C1722.54,-1337.26 1700.88,-1497.76 1787.71,-1571.34 2206.48,-1926.19 2581.34,-1897.64 3022.71,-1571.34 3112.01,-1505.33 3119.21,-1356.04 3118.05,-1293.38"/>
<polygon fill="#514d2d" stroke="#514d2d" points="3121.54,-1292.96 3117.76,-1283.06 3114.54,-1293.16 3121.54,-1292.96"/>
</g>
<!-- at_repl&#45;&gt;at_utils -->
<g id="edge132" class="edge">
<title>at_repl&#45;&gt;at_utils</title>
<path fill="none" stroke="#75e849" d="M1746.43,-1246.58C1788.84,-1171.21 1957.96,-870.68 2009.04,-779.93"/>
<polygon fill="#75e849" stroke="#75e849" points="2012.15,-781.53 2014,-771.1 2006.05,-778.1 2012.15,-781.53"/>
</g>
<!-- at_root_server -->
<g id="node35" class="node">
<title>at_root_server</title>
<polygon fill="none" stroke="#9dd431" points="624.21,-1872.84 505.21,-1872.84 505.21,-1836.84 624.21,-1836.84 624.21,-1872.84"/>
<text text-anchor="middle" x="564.71" y="-1851.14" font-family="Times,serif" font-size="14.00">at_root_server</text>
</g>
<!-- at_root_server&#45;&gt;at_commons -->
<g id="edge133" class="edge">
<title>at_root_server&#45;&gt;at_commons</title>
<path fill="none" stroke="#7eceb0" d="M540.08,-1836.73C456.33,-1776.82 182.45,-1566.44 86.71,-1313.84 -15.03,-1045.4 117.34,-972.46 459.71,-726.84 955.18,-371.41 1720.29,-270.87 1942.94,-248.41"/>
<polygon fill="#7eceb0" stroke="#7eceb0" points="1943.53,-251.87 1953.13,-247.4 1942.84,-244.9 1943.53,-251.87"/>
</g>
<!-- at_root_server&#45;&gt;at_persistence_root_server -->
<g id="edge136" class="edge">
<title>at_root_server&#45;&gt;at_persistence_root_server</title>
<path fill="none" stroke="#831d2e" d="M566.65,-1836.57C575.97,-1753.56 616.15,-1395.6 627.64,-1293.27"/>
<polygon fill="#831d2e" stroke="#831d2e" points="631.14,-1293.45 628.77,-1283.12 624.18,-1292.67 631.14,-1293.45"/>
</g>
<!-- at_root_server&#45;&gt;at_server_spec -->
<g id="edge135" class="edge">
<title>at_root_server&#45;&gt;at_server_spec</title>
<path fill="none" stroke="#e6f023" d="M561.25,-1836.57C544.57,-1753.48 472.61,-1394.88 452.16,-1292.96"/>
<polygon fill="#e6f023" stroke="#e6f023" points="455.58,-1292.24 450.18,-1283.12 448.72,-1293.62 455.58,-1292.24"/>
</g>
<!-- at_root_server&#45;&gt;at_utils -->
<g id="edge134" class="edge">
<title>at_root_server&#45;&gt;at_utils</title>
<path fill="none" stroke="#75e849" d="M568.32,-1836.78C585.91,-1757.61 669.79,-1422.11 863.71,-1238.84 1210.63,-911 1811.26,-789.36 1979.04,-760.86"/>
<polygon fill="#75e849" stroke="#75e849" points="1979.72,-764.3 1989.01,-759.19 1978.57,-757.39 1979.72,-764.3"/>
</g>
<!-- at_secondary -->
<g id="node36" class="node">
<title>at_secondary</title>
<polygon fill="none" stroke="#1b8948" points="421.71,-1872.84 311.71,-1872.84 311.71,-1836.84 421.71,-1836.84 421.71,-1872.84"/>
<text text-anchor="middle" x="366.71" y="-1851.14" font-family="Times,serif" font-size="14.00">at_secondary</text>
</g>
<!-- at_secondary&#45;&gt;at_chops -->
<g id="edge139" class="edge">
<title>at_secondary&#45;&gt;at_chops</title>
<path fill="none" stroke="#8fb4d4" d="M369.14,-1873.02C377.2,-1925.33 408.38,-2076.31 505.71,-2136.84 779.99,-2307.44 3162.37,-2340.94 3412.71,-2136.84 3488.94,-2074.7 3482.26,-1941.5 3475.08,-1883.18"/>
<polygon fill="#8fb4d4" stroke="#8fb4d4" points="3478.54,-1882.65 3473.75,-1873.2 3471.6,-1883.57 3478.54,-1882.65"/>
</g>
<!-- at_secondary&#45;&gt;at_commons -->
<g id="edge137" class="edge">
<title>at_secondary&#45;&gt;at_commons</title>
<path fill="none" stroke="#7eceb0" d="M349.98,-1836.7C289.87,-1773.77 84.83,-1547.01 15.71,-1313.84 -68.87,-1028.51 208.23,-860.13 398.71,-726.84 918.03,-363.46 1715.12,-268.17 1942.94,-247.73"/>
<polygon fill="#7eceb0" stroke="#7eceb0" points="1943.38,-251.21 1953.04,-246.84 1942.77,-244.23 1943.38,-251.21"/>
</g>
<!-- at_secondary&#45;&gt;at_lookup -->
<g id="edge140" class="edge">
<title>at_secondary&#45;&gt;at_lookup</title>
<path fill="none" stroke="#94d42d" d="M347.96,-1836.79C271.58,-1765.17 -7.55,-1481.31 86.71,-1238.84 198.54,-951.22 286.45,-877.6 555.71,-726.84 1000.86,-477.61 2677.66,-283.72 2997.74,-248.55"/>
<polygon fill="#94d42d" stroke="#94d42d" points="2998.56,-251.98 3008.12,-247.42 2997.79,-245.03 2998.56,-251.98"/>
</g>
<!-- at_secondary&#45;&gt;at_persistence_secondary_server -->
<g id="edge143" class="edge">
<title>at_secondary&#45;&gt;at_persistence_secondary_server</title>
<path fill="none" stroke="#9760d3" d="M362.45,-1836.57C341.96,-1753.48 253.53,-1394.88 228.4,-1292.96"/>
<polygon fill="#9760d3" stroke="#9760d3" points="231.77,-1292 225.98,-1283.12 224.97,-1293.67 231.77,-1292"/>
</g>
<!-- at_secondary&#45;&gt;at_persistence_spec -->
<g id="edge142" class="edge">
<title>at_secondary&#45;&gt;at_persistence_spec</title>
<path fill="none" stroke="#3bfcef" d="M364.05,-1836.8C353.19,-1763.52 315.69,-1468.47 376.71,-1238.84 427.85,-1046.42 571.04,-847.86 623.84,-779.07"/>
<polygon fill="#3bfcef" stroke="#3bfcef" points="626.75,-781.02 630.1,-770.97 621.22,-776.74 626.75,-781.02"/>
</g>
<!-- at_secondary&#45;&gt;at_server_spec -->
<g id="edge141" class="edge">
<title>at_secondary&#45;&gt;at_server_spec</title>
<path fill="none" stroke="#e6f023" d="M369.07,-1836.57C380.36,-1753.56 429.06,-1395.6 442.98,-1293.27"/>
<polygon fill="#e6f023" stroke="#e6f023" points="446.48,-1293.51 444.36,-1283.12 439.55,-1292.56 446.48,-1293.51"/>
</g>
<!-- at_secondary&#45;&gt;at_utils -->
<g id="edge138" class="edge">
<title>at_secondary&#45;&gt;at_utils</title>
<path fill="none" stroke="#75e849" d="M378.82,-1836.61C425.88,-1769.61 601.13,-1519.95 744.71,-1313.84 767.9,-1280.56 764.93,-1264.05 796.71,-1238.84 1190.02,-926.93 1809.12,-793.63 1979.21,-761.71"/>
<polygon fill="#75e849" stroke="#75e849" points="1979.87,-765.15 1989.06,-759.88 1978.59,-758.27 1979.87,-765.15"/>
</g>
<!-- at_secondary_proxy -->
<g id="node37" class="node">
<title>at_secondary_proxy</title>
<polygon fill="none" stroke="#35c7f7" points="1372.71,-2405.84 1214.71,-2405.84 1214.71,-2369.84 1372.71,-2369.84 1372.71,-2405.84"/>
<text text-anchor="middle" x="1293.71" y="-2384.14" font-family="Times,serif" font-size="14.00">at_secondary_proxy</text>
</g>
<!-- at_secondary_proxy&#45;&gt;at_commons -->
<g id="edge144" class="edge">
<title>at_secondary_proxy&#45;&gt;at_commons</title>
<path fill="none" stroke="#7eceb0" d="M1308.89,-2369.74C1369.94,-2301.02 1603.83,-2038.71 1802.71,-1828.84 2023.65,-1595.71 2187.96,-1611.07 2309.71,-1313.84 2408.61,-1072.43 2381.92,-977.54 2309.71,-726.84 2252.85,-529.39 2089.06,-334.68 2028.54,-267.48"/>
<polygon fill="#7eceb0" stroke="#7eceb0" points="2031,-264.98 2021.69,-259.92 2025.82,-269.68 2031,-264.98"/>
</g>
<!-- at_secondary_proxy&#45;&gt;at_lookup -->
<g id="edge146" class="edge">
<title>at_secondary_proxy&#45;&gt;at_lookup</title>
<path fill="none" stroke="#94d42d" d="M1316.73,-2369.73C1392.59,-2312.22 1637.66,-2117.51 1774.71,-1903.84 1793.92,-1873.9 1783.22,-1858.61 1802.71,-1828.84 1983.22,-1553.3 2124.61,-1566.71 2335.71,-1313.84 2658.27,-927.46 2966.48,-392.36 3036.11,-268.95"/>
<polygon fill="#94d42d" stroke="#94d42d" points="3039.2,-270.58 3041.06,-260.15 3033.1,-267.15 3039.2,-270.58"/>
</g>
<!-- at_secondary_proxy&#45;&gt;at_utils -->
<g id="edge145" class="edge">
<title>at_secondary_proxy&#45;&gt;at_utils</title>
<path fill="none" stroke="#75e849" d="M1302.88,-2369.71C1340.55,-2299.82 1488.64,-2030.43 1639.71,-1828.84 1824.12,-1582.78 1991.78,-1601.01 2101.71,-1313.84 2176.24,-1119.16 2073.44,-862.11 2036.23,-780.14"/>
<polygon fill="#75e849" stroke="#75e849" points="2039.4,-778.64 2032.04,-771.02 2033.04,-781.57 2039.4,-778.64"/>
</g>
<!-- at_server_spec&#45;&gt;at_commons -->
<g id="edge147" class="edge">
<title>at_server_spec&#45;&gt;at_commons</title>
<path fill="none" stroke="#7eceb0" d="M443.55,-1246.39C431.31,-1173.09 394.22,-886.53 529.71,-726.84 910.12,-278.53 1713.15,-242.78 1943.02,-242.04"/>
<polygon fill="#7eceb0" stroke="#7eceb0" points="1943.22,-245.54 1953.21,-242.03 1943.21,-238.54 1943.22,-245.54"/>
</g>
<!-- at_server_status&#45;&gt;at_commons -->
<g id="edge148" class="edge">
<title>at_server_status&#45;&gt;at_commons</title>
<path fill="none" stroke="#7eceb0" d="M3249.53,-734.76C3056.11,-658.27 2269.83,-347.3 2058.32,-263.65"/>
<polygon fill="#7eceb0" stroke="#7eceb0" points="2059.56,-260.38 2048.98,-259.96 2056.99,-266.89 2059.56,-260.38"/>
</g>
<!-- at_server_status&#45;&gt;at_lookup -->
<g id="edge150" class="edge">
<title>at_server_status&#45;&gt;at_lookup</title>
<path fill="none" stroke="#94d42d" d="M3284.52,-734.62C3248.8,-659.47 3106.44,-360.06 3063.22,-269.15"/>
<polygon fill="#94d42d" stroke="#94d42d" points="3066.36,-267.6 3058.9,-260.07 3060.04,-270.6 3066.36,-267.6"/>
</g>
<!-- at_server_status&#45;&gt;at_utils -->
<g id="edge149" class="edge">
<title>at_server_status&#45;&gt;at_utils</title>
<path fill="none" stroke="#75e849" d="M3225.51,-752.84C2839.9,-752.84 2454.29,-752.84 2068.67,-752.84"/>
<polygon fill="#75e849" stroke="#75e849" points="2068.41,-749.34 2058.41,-752.84 2068.41,-756.34 2068.41,-749.34"/>
</g>
<!-- at_sync_ui_flutter&#45;&gt;at_client -->
<g id="edge151" class="edge">
<title>at_sync_ui_flutter&#45;&gt;at_client</title>
<path fill="none" stroke="#61d4fc" d="M2734.6,-2369.79C2763.57,-2286.5 2892.43,-1922.69 2965.71,-1828.84 3075.17,-1688.67 3544.18,-1375.74 3676.71,-1288.7"/>
<polygon fill="#61d4fc" stroke="#61d4fc" points="3678.86,-1291.47 3685.3,-1283.06 3675.02,-1285.62 3678.86,-1291.47"/>
</g>
<!-- at_sync_ui_flutter&#45;&gt;at_client_mobile -->
<g id="edge152" class="edge">
<title>at_sync_ui_flutter&#45;&gt;at_client_mobile</title>
<path fill="none" stroke="#d9577c" d="M2761.24,-2369.78C2910.82,-2291.29 3532.48,-1965.1 3699.34,-1877.55"/>
<polygon fill="#d9577c" stroke="#d9577c" points="3701.08,-1880.59 3708.31,-1872.85 3697.83,-1874.39 3701.08,-1880.59"/>
</g>
<!-- at_sync_ui_flutter&#45;&gt;at_common_flutter -->
<g id="edge153" class="edge">
<title>at_sync_ui_flutter&#45;&gt;at_common_flutter</title>
<path fill="none" stroke="#bf681f" d="M2708.69,-2369.78C2617.25,-2291.84 2239.22,-1969.64 2133.37,-1879.42"/>
<polygon fill="#bf681f" stroke="#bf681f" points="2135.54,-1876.67 2125.66,-1872.85 2131,-1882 2135.54,-1876.67"/>
</g>
<!-- at_theme_flutter -->
<g id="node41" class="node">
<title>at_theme_flutter</title>
<polygon fill="none" stroke="#2ec850" points="1948.71,-2405.84 1814.71,-2405.84 1814.71,-2369.84 1948.71,-2369.84 1948.71,-2405.84"/>
<text text-anchor="middle" x="1881.71" y="-2384.14" font-family="Times,serif" font-size="14.00">at_theme_flutter</text>
</g>
<!-- at_theme_flutter&#45;&gt;at_client_mobile -->
<g id="edge154" class="edge">
<title>at_theme_flutter&#45;&gt;at_client_mobile</title>
<path fill="none" stroke="#d9577c" d="M1949.09,-2371.89C2184.22,-2318.92 2988.97,-2131.18 3630.71,-1903.84 3652.49,-1896.13 3676.03,-1886.1 3695.73,-1877.2"/>
<polygon fill="#d9577c" stroke="#d9577c" points="3697.42,-1880.27 3705.07,-1872.94 3694.51,-1873.91 3697.42,-1880.27"/>
</g>
<!-- at_theme_flutter&#45;&gt;at_common_flutter -->
<g id="edge155" class="edge">
<title>at_theme_flutter&#45;&gt;at_common_flutter</title>
<path fill="none" stroke="#bf681f" d="M1888.91,-2369.78C1921.46,-2292.62 2055,-1976.07 2094.6,-1882.2"/>
<polygon fill="#bf681f" stroke="#bf681f" points="2097.88,-1883.42 2098.54,-1872.85 2091.43,-1880.7 2097.88,-1883.42"/>
</g>
<!-- at_theme_flutter&#45;&gt;at_commons -->
<g id="edge156" class="edge">
<title>at_theme_flutter&#45;&gt;at_commons</title>
<path fill="none" stroke="#7eceb0" d="M1883.73,-2369.66C1892.42,-2299.56 1930.51,-2029.5 2022.71,-1828.84 2139.64,-1574.39 2301.09,-1580.79 2385.71,-1313.84 2464.55,-1065.15 2470.94,-973.42 2385.71,-726.84 2313.65,-518.37 2110.63,-331.33 2034.78,-266.77"/>
<polygon fill="#7eceb0" stroke="#7eceb0" points="2036.91,-263.98 2027.01,-260.2 2032.39,-269.33 2036.91,-263.98"/>
</g>
<!-- at_theme_flutter&#45;&gt;at_utils -->
<g id="edge157" class="edge">
<title>at_theme_flutter&#45;&gt;at_utils</title>
<path fill="none" stroke="#75e849" d="M1864.86,-2369.5C1800.34,-2300.94 1576.84,-2042.18 1660.71,-1828.84 1775.09,-1537.93 2025.34,-1604.76 2139.71,-1313.84 2216.86,-1117.61 2086.19,-861.58 2039.4,-780"/>
<polygon fill="#75e849" stroke="#75e849" points="2042.18,-777.82 2034.13,-770.93 2036.13,-781.34 2042.18,-777.82"/>
</g>
<!-- at_utils&#45;&gt;at_commons -->
<g id="edge158" class="edge">
<title>at_utils&#45;&gt;at_commons</title>
<path fill="none" stroke="#7eceb0" d="M2023.11,-734.62C2020.46,-659.77 2009.95,-362.48 2006.68,-270.27"/>
<polygon fill="#7eceb0" stroke="#7eceb0" points="2010.17,-269.94 2006.32,-260.07 2003.18,-270.18 2010.17,-269.94"/>
</g>
<!-- at_ve_doctor -->
<g id="node43" class="node">
<title>at_ve_doctor</title>
<polygon fill="none" stroke="#193e4e" points="2059.21,-1282.84 1952.21,-1282.84 1952.21,-1246.84 2059.21,-1246.84 2059.21,-1282.84"/>
<text text-anchor="middle" x="2005.71" y="-1261.14" font-family="Times,serif" font-size="14.00">at_ve_doctor</text>
</g>
<!-- at_ve_doctor&#45;&gt;at_server_status -->
<g id="edge159" class="edge">
<title>at_ve_doctor&#45;&gt;at_server_status</title>
<path fill="none" stroke="#320113" d="M2048.9,-1246.73C2242.42,-1170.04 3029.48,-858.16 3240.46,-774.55"/>
<polygon fill="#320113" stroke="#320113" points="3241.77,-777.8 3249.78,-770.86 3239.19,-771.29 3241.77,-777.8"/>
</g>
<!-- base2e15 -->
<g id="node44" class="node">
<title>base2e15</title>
<polygon fill="none" stroke="#2bcf07" points="3266.21,-1872.84 3181.21,-1872.84 3181.21,-1836.84 3266.21,-1836.84 3266.21,-1872.84"/>
<text text-anchor="middle" x="3223.71" y="-1851.14" font-family="Times,serif" font-size="14.00">base2e15</text>
</g>
<!-- dart_utf7 -->
<g id="node45" class="node">
<title>dart_utf7</title>
<polygon fill="none" stroke="#f889f9" points="3163.21,-1872.84 3080.21,-1872.84 3080.21,-1836.84 3163.21,-1836.84 3163.21,-1872.84"/>
<text text-anchor="middle" x="3121.71" y="-1851.14" font-family="Times,serif" font-size="14.00">dart_utf7</text>
</g>
</g>
</svg>
