<?xml version="1.0" encoding="UTF-8" standalone="no"?>
<!DOCTYPE svg PUBLIC "-//W3C//DTD SVG 1.1//EN"
 "http://www.w3.org/Graphics/SVG/1.1/DTD/svg11.dtd">
<!-- Generated by graphviz version 2.43.0 (0)
 -->
<!-- Title: packages Pages: 1 -->
<svg width="720pt" height="699pt"
 viewBox="0.00 0.00 720.00 698.80" xmlns="http://www.w3.org/2000/svg" xmlns:xlink="http://www.w3.org/1999/xlink">
<g id="graph0" class="graph" transform="scale(0.19552322327923893 0.19552322327923893) rotate(0) translate(4 3570)">
<title>packages</title>
<polygon fill="white" stroke="transparent" points="-4,4 -4,-3570 3678.41,-3570 3678.41,4 -4,4"/>
<!-- at_auth -->
<g id="node1" class="node">
<title>at_auth</title>
<polygon fill="none" stroke="#0f9477" points="1884.41,-1613 1814.41,-1613 1814.41,-1577 1884.41,-1577 1884.41,-1613"/>
<text text-anchor="middle" x="1849.41" y="-1591.3" font-family="Times,serif" font-size="14.00">at_auth</text>
</g>
<!-- at_chops -->
<g id="node4" class="node">
<title>at_chops</title>
<polygon fill="none" stroke="#8fb4d4" points="2035.91,-863 1956.91,-863 1956.91,-827 2035.91,-827 2035.91,-863"/>
<text text-anchor="middle" x="1996.41" y="-841.3" font-family="Times,serif" font-size="14.00">at_chops</text>
</g>
<!-- at_auth&#45;&gt;at_chops -->
<g id="edge3" class="edge">
<title>at_auth&#45;&gt;at_chops</title>
<path fill="none" stroke="#8fb4d4" d="M1854.38,-1576.73C1868.96,-1525.46 1912.31,-1369.54 1938.41,-1238 1965.38,-1102.13 1985.81,-937.49 1993.3,-873.39"/>
<polygon fill="#8fb4d4" stroke="#8fb4d4" points="1996.8,-873.63 1994.47,-863.3 1989.84,-872.83 1996.8,-873.63"/>
</g>
<!-- at_commons -->
<g id="node10" class="node">
<title>at_commons</title>
<polygon fill="none" stroke="#7eceb0" points="2010.91,-112 1905.91,-112 1905.91,-76 2010.91,-76 2010.91,-112"/>
<text text-anchor="middle" x="1958.41" y="-90.3" font-family="Times,serif" font-size="14.00">at_commons</text>
</g>
<!-- at_auth&#45;&gt;at_commons -->
<g id="edge1" class="edge">
<title>at_auth&#45;&gt;at_commons</title>
<path fill="none" stroke="#7eceb0" d="M1851.43,-1576.98C1857.45,-1525.78 1875.51,-1368.66 1886.41,-1238 1923.52,-793.22 1950.91,-249.63 1957.1,-122.5"/>
<polygon fill="#7eceb0" stroke="#7eceb0" points="1960.61,-122.29 1957.6,-112.14 1953.62,-121.96 1960.61,-122.29"/>
</g>
<!-- at_lookup -->
<g id="node27" class="node">
<title>at_lookup</title>
<polygon fill="none" stroke="#94d42d" points="2220.91,-1238 2135.91,-1238 2135.91,-1202 2220.91,-1202 2220.91,-1238"/>
<text text-anchor="middle" x="2178.41" y="-1216.3" font-family="Times,serif" font-size="14.00">at_lookup</text>
</g>
<!-- at_auth&#45;&gt;at_lookup -->
<g id="edge2" class="edge">
<title>at_auth&#45;&gt;at_lookup</title>
<path fill="none" stroke="#94d42d" d="M1864.84,-1576.51C1918.18,-1516.04 2094.87,-1315.71 2156.77,-1245.54"/>
<polygon fill="#94d42d" stroke="#94d42d" points="2159.41,-1247.84 2163.4,-1238.02 2154.16,-1243.21 2159.41,-1247.84"/>
</g>
<!-- at_utils -->
<g id="node43" class="node">
<title>at_utils</title>
<polygon fill="none" stroke="#75e849" points="1446.91,-487 1377.91,-487 1377.91,-451 1446.91,-451 1446.91,-487"/>
<text text-anchor="middle" x="1412.41" y="-465.3" font-family="Times,serif" font-size="14.00">at_utils</text>
</g>
<!-- at_auth&#45;&gt;at_utils -->
<g id="edge4" class="edge">
<title>at_auth&#45;&gt;at_utils</title>
<path fill="none" stroke="#75e849" d="M1852.25,-1576.96C1865.66,-1491.22 1916.91,-1100.41 1786.41,-827 1710.1,-667.09 1529.11,-541.53 1450.24,-492.42"/>
<polygon fill="#75e849" stroke="#75e849" points="1451.94,-489.36 1441.59,-487.09 1448.27,-495.32 1451.94,-489.36"/>
</g>
<!-- at_backupkey_flutter -->
<g id="node2" class="node">
<title>at_backupkey_flutter</title>
<polygon fill="none" stroke="#590b92" points="1450.91,-2739 1285.91,-2739 1285.91,-2703 1450.91,-2703 1450.91,-2739"/>
<text text-anchor="middle" x="1368.41" y="-2717.3" font-family="Times,serif" font-size="14.00">at_backupkey_flutter</text>
</g>
<!-- at_client_mobile -->
<g id="node8" class="node">
<title>at_client_mobile</title>
<polygon fill="none" stroke="#d9577c" points="2110.41,-2364 1978.41,-2364 1978.41,-2328 2110.41,-2328 2110.41,-2364"/>
<text text-anchor="middle" x="2044.41" y="-2342.3" font-family="Times,serif" font-size="14.00">at_client_mobile</text>
</g>
<!-- at_backupkey_flutter&#45;&gt;at_client_mobile -->
<g id="edge6" class="edge">
<title>at_backupkey_flutter&#45;&gt;at_client_mobile</title>
<path fill="none" stroke="#d9577c" d="M1399.66,-2702.76C1510,-2641.87 1881.3,-2437 2004.39,-2369.08"/>
<polygon fill="#d9577c" stroke="#d9577c" points="2006.43,-2371.96 2013.5,-2364.06 2003.05,-2365.83 2006.43,-2371.96"/>
</g>
<!-- at_backupkey_flutter&#45;&gt;at_utils -->
<g id="edge5" class="edge">
<title>at_backupkey_flutter&#45;&gt;at_utils</title>
<path fill="none" stroke="#75e849" d="M1366.06,-2702.93C1354.59,-2620.14 1302.71,-2252.14 1246.41,-1953 1217.81,-1801.02 1195.28,-1765.95 1172.41,-1613 1145.33,-1431.83 1133.62,-1385.02 1141.41,-1202 1148.53,-1034.88 1118.02,-984.83 1173.41,-827 1222.5,-687.14 1339.4,-549.29 1389.25,-494.61"/>
<polygon fill="#75e849" stroke="#75e849" points="1391.91,-496.89 1396.1,-487.16 1386.76,-492.15 1391.91,-496.89"/>
</g>
<!-- at_chat_flutter -->
<g id="node3" class="node">
<title>at_chat_flutter</title>
<polygon fill="none" stroke="#463830" points="2756.41,-2739 2636.41,-2739 2636.41,-2703 2756.41,-2703 2756.41,-2739"/>
<text text-anchor="middle" x="2696.41" y="-2717.3" font-family="Times,serif" font-size="14.00">at_chat_flutter</text>
</g>
<!-- at_client -->
<g id="node7" class="node">
<title>at_client</title>
<polygon fill="none" stroke="#61d4fc" points="1498.91,-1989 1421.91,-1989 1421.91,-1953 1498.91,-1953 1498.91,-1989"/>
<text text-anchor="middle" x="1460.41" y="-1967.3" font-family="Times,serif" font-size="14.00">at_client</text>
</g>
<!-- at_chat_flutter&#45;&gt;at_client -->
<g id="edge7" class="edge">
<title>at_chat_flutter&#45;&gt;at_client</title>
<path fill="none" stroke="#61d4fc" d="M2636.26,-2705.37C2487.76,-2667.26 2095.98,-2554.46 1821.41,-2364 1816.27,-2360.43 1561.08,-2081.93 1482.92,-1996.59"/>
<polygon fill="#61d4fc" stroke="#61d4fc" points="1485.47,-1994.18 1476.14,-1989.17 1480.31,-1998.91 1485.47,-1994.18"/>
</g>
<!-- at_chat_flutter&#45;&gt;at_client_mobile -->
<g id="edge8" class="edge">
<title>at_chat_flutter&#45;&gt;at_client_mobile</title>
<path fill="none" stroke="#d9577c" d="M2666.27,-2702.76C2559.85,-2641.87 2201.74,-2437 2083.02,-2369.08"/>
<polygon fill="#d9577c" stroke="#d9577c" points="2084.65,-2365.99 2074.23,-2364.06 2081.18,-2372.06 2084.65,-2365.99"/>
</g>
<!-- at_common_flutter -->
<g id="node9" class="node">
<title>at_common_flutter</title>
<polygon fill="none" stroke="#bf681f" points="2762.91,-2364 2613.91,-2364 2613.91,-2328 2762.91,-2328 2762.91,-2364"/>
<text text-anchor="middle" x="2688.41" y="-2342.3" font-family="Times,serif" font-size="14.00">at_common_flutter</text>
</g>
<!-- at_chat_flutter&#45;&gt;at_common_flutter -->
<g id="edge9" class="edge">
<title>at_chat_flutter&#45;&gt;at_common_flutter</title>
<path fill="none" stroke="#bf681f" d="M2696.04,-2702.51C2694.76,-2642.78 2690.55,-2446.57 2689,-2374.16"/>
<polygon fill="#bf681f" stroke="#bf681f" points="2692.49,-2373.95 2688.78,-2364.02 2685.49,-2374.1 2692.49,-2373.95"/>
</g>
<!-- at_chat_flutter&#45;&gt;at_commons -->
<g id="edge10" class="edge">
<title>at_chat_flutter&#45;&gt;at_commons</title>
<path fill="none" stroke="#7eceb0" d="M2700.97,-2702.98C2714.64,-2651.79 2756.42,-2494.69 2789.41,-2364 2915.85,-1863.13 3000.41,-1737.58 3000.41,-1221 3000.41,-1221 3000.41,-1221 3000.41,-844 3000.41,-668.56 3071.27,-589.37 2963.41,-451 2724.52,-144.53 2201.63,-101.3 2021.15,-95.66"/>
<polygon fill="#7eceb0" stroke="#7eceb0" points="2021.12,-92.16 2011.03,-95.38 2020.92,-99.16 2021.12,-92.16"/>
</g>
<!-- at_contact -->
<g id="node11" class="node">
<title>at_contact</title>
<polygon fill="none" stroke="#250aa2" points="2595.41,-2364 2505.41,-2364 2505.41,-2328 2595.41,-2328 2595.41,-2364"/>
<text text-anchor="middle" x="2550.41" y="-2342.3" font-family="Times,serif" font-size="14.00">at_contact</text>
</g>
<!-- at_chat_flutter&#45;&gt;at_contact -->
<g id="edge11" class="edge">
<title>at_chat_flutter&#45;&gt;at_contact</title>
<path fill="none" stroke="#250aa2" d="M2689.57,-2702.51C2666.14,-2642.66 2589.07,-2445.76 2560.87,-2373.72"/>
<polygon fill="#250aa2" stroke="#250aa2" points="2563.98,-2372.06 2557.08,-2364.02 2557.46,-2374.61 2563.98,-2372.06"/>
</g>
<!-- at_chat_flutter&#45;&gt;at_lookup -->
<g id="edge12" class="edge">
<title>at_chat_flutter&#45;&gt;at_lookup</title>
<path fill="none" stroke="#94d42d" d="M2705.12,-2702.98C2732.07,-2648.06 2810.02,-2470.81 2771.41,-2328 2747.42,-2239.22 2396.47,-1694.79 2354.41,-1613 2285.27,-1478.55 2215.3,-1311.31 2189.15,-1247.45"/>
<polygon fill="#94d42d" stroke="#94d42d" points="2192.35,-1246.05 2185.33,-1238.11 2185.87,-1248.69 2192.35,-1246.05"/>
</g>
<!-- at_chops&#45;&gt;at_commons -->
<g id="edge13" class="edge">
<title>at_chops&#45;&gt;at_commons</title>
<path fill="none" stroke="#7eceb0" d="M1995.55,-826.95C1990.61,-729.5 1965.93,-243.19 1959.8,-122.26"/>
<polygon fill="#7eceb0" stroke="#7eceb0" points="1963.28,-121.83 1959.28,-112.02 1956.29,-122.19 1963.28,-121.83"/>
</g>
<!-- at_chops&#45;&gt;at_utils -->
<g id="edge14" class="edge">
<title>at_chops&#45;&gt;at_utils</title>
<path fill="none" stroke="#75e849" d="M1969.8,-826.96C1875.17,-766.36 1554.91,-561.26 1447.71,-492.6"/>
<polygon fill="#75e849" stroke="#75e849" points="1449.49,-489.59 1439.18,-487.14 1445.72,-495.48 1449.49,-489.59"/>
</g>
<!-- at_cli -->
<g id="node5" class="node">
<title>at_cli</title>
<polygon fill="none" stroke="#34bd05" points="1884.41,-2364 1830.41,-2364 1830.41,-2328 1884.41,-2328 1884.41,-2364"/>
<text text-anchor="middle" x="1857.41" y="-2342.3" font-family="Times,serif" font-size="14.00">at_cli</text>
</g>
<!-- at_cli&#45;&gt;at_client -->
<g id="edge16" class="edge">
<title>at_cli&#45;&gt;at_client</title>
<path fill="none" stroke="#61d4fc" d="M1839.06,-2327.76C1774.91,-2267.48 1560.56,-2066.1 1486.14,-1996.17"/>
<polygon fill="#61d4fc" stroke="#61d4fc" points="1488.26,-1993.36 1478.57,-1989.06 1483.46,-1998.46 1488.26,-1993.36"/>
</g>
<!-- at_cli&#45;&gt;at_commons -->
<g id="edge17" class="edge">
<title>at_cli&#45;&gt;at_commons</title>
<path fill="none" stroke="#7eceb0" d="M1882.43,-2327.84C2013.32,-2237.46 2617.03,-1813.36 2715.41,-1613 2792.3,-1456.43 2734.41,-1395.43 2734.41,-1221 2734.41,-1221 2734.41,-1221 2734.41,-844 2734.41,-442.04 2188.72,-187.52 2012.55,-115.83"/>
<polygon fill="#7eceb0" stroke="#7eceb0" points="2013.79,-112.55 2003.21,-112.06 2011.17,-119.05 2013.79,-112.55"/>
</g>
<!-- at_cli&#45;&gt;at_lookup -->
<g id="edge15" class="edge">
<title>at_cli&#45;&gt;at_lookup</title>
<path fill="none" stroke="#94d42d" d="M1856.6,-2327.63C1854.53,-2271.66 1852.14,-2091.57 1898.41,-1953 1954.24,-1785.85 2039.35,-1777.55 2102.41,-1613 2152.6,-1482.05 2170.93,-1313.27 2176.41,-1248.23"/>
<polygon fill="#94d42d" stroke="#94d42d" points="2179.92,-1248.26 2177.24,-1238.01 2172.94,-1247.69 2179.92,-1248.26"/>
</g>
<!-- at_cli&#45;&gt;at_utils -->
<g id="edge18" class="edge">
<title>at_cli&#45;&gt;at_utils</title>
<path fill="none" stroke="#75e849" d="M1843.72,-2327.72C1759.34,-2221.2 1313.25,-1656.88 1298.41,-1613 1190.78,-1294.71 1339.63,-1194.66 1393.41,-863 1415.43,-727.23 1414.57,-561.91 1413.2,-497.52"/>
<polygon fill="#75e849" stroke="#75e849" points="1416.69,-497.3 1412.96,-487.38 1409.69,-497.46 1416.69,-497.3"/>
</g>
<!-- at_cli_commons -->
<g id="node6" class="node">
<title>at_cli_commons</title>
<polygon fill="none" stroke="#c99192" points="786.41,-2364 658.41,-2364 658.41,-2328 786.41,-2328 786.41,-2364"/>
<text text-anchor="middle" x="722.41" y="-2342.3" font-family="Times,serif" font-size="14.00">at_cli_commons</text>
</g>
<!-- at_cli_commons&#45;&gt;at_client -->
<g id="edge19" class="edge">
<title>at_cli_commons&#45;&gt;at_client</title>
<path fill="none" stroke="#61d4fc" d="M756.53,-2327.76C877.23,-2266.75 1283.96,-2061.18 1417.52,-1993.68"/>
<polygon fill="#61d4fc" stroke="#61d4fc" points="1419.31,-1996.69 1426.66,-1989.06 1416.16,-1990.45 1419.31,-1996.69"/>
</g>
<!-- at_onboarding_cli -->
<g id="node29" class="node">
<title>at_onboarding_cli</title>
<polygon fill="none" stroke="#514d2d" points="770.41,-2739 628.41,-2739 628.41,-2703 770.41,-2703 770.41,-2739"/>
<text text-anchor="middle" x="699.41" y="-2717.3" font-family="Times,serif" font-size="14.00">at_onboarding_cli</text>
</g>
<!-- at_cli_commons&#45;&gt;at_onboarding_cli -->
<g id="edge20" class="edge">
<title>at_cli_commons&#45;&gt;at_onboarding_cli</title>
<path fill="none" stroke="#514d2d" d="M724.4,-2364.02C725.46,-2423.04 713.6,-2619.21 704.88,-2692.27"/>
<polygon fill="#514d2d" stroke="#514d2d" points="701.37,-2692.15 703.56,-2702.51 708.31,-2693.04 701.37,-2692.15"/>
</g>
<!-- at_cli_commons&#45;&gt;at_utils -->
<g id="edge21" class="edge">
<title>at_cli_commons&#45;&gt;at_utils</title>
<path fill="none" stroke="#75e849" d="M727.23,-2327.87C749.55,-2247.8 843.94,-1902.19 892.41,-1613 921.45,-1439.8 890.92,-981.5 974.41,-827 1066.51,-656.58 1277.14,-536.65 1368.64,-490.73"/>
<polygon fill="#75e849" stroke="#75e849" points="1370.23,-493.84 1377.63,-486.26 1367.12,-487.57 1370.23,-493.84"/>
</g>
<!-- at_client&#45;&gt;at_auth -->
<g id="edge26" class="edge">
<title>at_client&#45;&gt;at_auth</title>
<path fill="none" stroke="#0f9477" d="M1478.14,-1952.96C1540.67,-1892.84 1751.08,-1690.54 1824.16,-1620.28"/>
<polygon fill="#0f9477" stroke="#0f9477" points="1826.8,-1622.6 1831.58,-1613.14 1821.95,-1617.55 1826.8,-1622.6"/>
</g>
<!-- at_client&#45;&gt;at_chops -->
<g id="edge24" class="edge">
<title>at_client&#45;&gt;at_chops</title>
<path fill="none" stroke="#8fb4d4" d="M1497.3,-1952.93C1586.33,-1909.73 1813.97,-1786.97 1926.41,-1613 2085.88,-1366.27 2023.19,-978.11 2002.21,-873"/>
<polygon fill="#8fb4d4" stroke="#8fb4d4" points="2005.64,-872.29 2000.2,-863.19 1998.78,-873.69 2005.64,-872.29"/>
</g>
<!-- at_client&#45;&gt;at_commons -->
<g id="edge22" class="edge">
<title>at_client&#45;&gt;at_commons</title>
<path fill="none" stroke="#7eceb0" d="M1439.95,-1952.92C1384.96,-1905.64 1234.01,-1766.33 1172.41,-1613 1041.77,-1287.77 1004,-1161.58 1108.41,-827 1232.28,-430.1 1740.73,-186.09 1906.15,-116.01"/>
<polygon fill="#7eceb0" stroke="#7eceb0" points="1907.76,-119.13 1915.62,-112.03 1905.04,-112.68 1907.76,-119.13"/>
</g>
<!-- at_client&#45;&gt;at_lookup -->
<g id="edge25" class="edge">
<title>at_client&#45;&gt;at_lookup</title>
<path fill="none" stroke="#94d42d" d="M1499.05,-1959.31C1608.33,-1927 1921.84,-1819.66 2078.41,-1613 2165,-1498.72 2177.08,-1317.44 2178.43,-1248.68"/>
<polygon fill="#94d42d" stroke="#94d42d" points="2181.93,-1248.32 2178.56,-1238.27 2174.93,-1248.22 2181.93,-1248.32"/>
</g>
<!-- at_persistence_secondary_server -->
<g id="node32" class="node">
<title>at_persistence_secondary_server</title>
<polygon fill="none" stroke="#9760d3" points="1592.41,-1238 1340.41,-1238 1340.41,-1202 1592.41,-1202 1592.41,-1238"/>
<text text-anchor="middle" x="1466.41" y="-1216.3" font-family="Times,serif" font-size="14.00">at_persistence_secondary_server</text>
</g>
<!-- at_client&#45;&gt;at_persistence_secondary_server -->
<g id="edge28" class="edge">
<title>at_client&#45;&gt;at_persistence_secondary_server</title>
<path fill="none" stroke="#9760d3" d="M1452.36,-1952.95C1427.65,-1898.64 1355.65,-1724.58 1374.41,-1577 1390.4,-1451.25 1436.94,-1306.38 1457.02,-1247.72"/>
<polygon fill="#9760d3" stroke="#9760d3" points="1460.38,-1248.7 1460.33,-1238.11 1453.76,-1246.42 1460.38,-1248.7"/>
</g>
<!-- at_persistence_spec -->
<g id="node33" class="node">
<title>at_persistence_spec</title>
<polygon fill="none" stroke="#3bfcef" points="1384.91,-863 1225.91,-863 1225.91,-827 1384.91,-827 1384.91,-863"/>
<text text-anchor="middle" x="1305.41" y="-841.3" font-family="Times,serif" font-size="14.00">at_persistence_spec</text>
</g>
<!-- at_client&#45;&gt;at_persistence_spec -->
<g id="edge27" class="edge">
<title>at_client&#45;&gt;at_persistence_spec</title>
<path fill="none" stroke="#3bfcef" d="M1446.46,-1952.85C1407.49,-1903.7 1297.91,-1756.67 1260.41,-1613 1186.95,-1331.57 1271.29,-973.09 1297.9,-873.01"/>
<polygon fill="#3bfcef" stroke="#3bfcef" points="1301.34,-873.68 1300.57,-863.11 1294.59,-871.86 1301.34,-873.68"/>
</g>
<!-- at_client&#45;&gt;at_utils -->
<g id="edge23" class="edge">
<title>at_client&#45;&gt;at_utils</title>
<path fill="none" stroke="#75e849" d="M1440.11,-1952.98C1385.65,-1905.83 1236.95,-1766.84 1184.41,-1613 1127.97,-1447.71 1135.44,-994.66 1184.41,-827 1225.39,-686.72 1340.14,-549.1 1389.44,-494.55"/>
<polygon fill="#75e849" stroke="#75e849" points="1392.07,-496.86 1396.22,-487.11 1386.89,-492.14 1392.07,-496.86"/>
</g>
<!-- at_client_mobile&#45;&gt;at_auth -->
<g id="edge34" class="edge">
<title>at_client_mobile&#45;&gt;at_auth</title>
<path fill="none" stroke="#0f9477" d="M2041.58,-2327.65C2032.4,-2272.45 2001.94,-2096.11 1964.41,-1953 1931.61,-1827.93 1880.5,-1682.08 1859.23,-1622.95"/>
<polygon fill="#0f9477" stroke="#0f9477" points="1862.41,-1621.48 1855.73,-1613.26 1855.83,-1623.85 1862.41,-1621.48"/>
</g>
<!-- at_client_mobile&#45;&gt;at_chops -->
<g id="edge31" class="edge">
<title>at_client_mobile&#45;&gt;at_chops</title>
<path fill="none" stroke="#8fb4d4" d="M2045.32,-2327.85C2050.66,-2223.2 2076.77,-1659.81 2045.41,-1202 2036.97,-1078.66 2012.24,-932.95 2001.49,-873.41"/>
<polygon fill="#8fb4d4" stroke="#8fb4d4" points="2004.89,-872.54 1999.66,-863.32 1998,-873.79 2004.89,-872.54"/>
</g>
<!-- at_client_mobile&#45;&gt;at_client -->
<g id="edge33" class="edge">
<title>at_client_mobile&#45;&gt;at_client</title>
<path fill="none" stroke="#61d4fc" d="M2017.42,-2327.76C1922.29,-2267 1602.62,-2062.82 1495.63,-1994.49"/>
<polygon fill="#61d4fc" stroke="#61d4fc" points="1497.44,-1991.49 1487.12,-1989.06 1493.67,-1997.39 1497.44,-1991.49"/>
</g>
<!-- at_client_mobile&#45;&gt;at_commons -->
<g id="edge29" class="edge">
<title>at_client_mobile&#45;&gt;at_commons</title>
<path fill="none" stroke="#7eceb0" d="M2066.62,-2327.92C2130.49,-2278.41 2319.14,-2129.36 2460.41,-1989 2617.31,-1833.11 2702.79,-1817.76 2786.41,-1613 2852.41,-1451.41 2810.41,-1395.55 2810.41,-1221 2810.41,-1221 2810.41,-1221 2810.41,-844 2810.41,-669.01 2887.07,-594.14 2786.41,-451 2601.57,-188.14 2180.44,-117.92 2021.08,-100.42"/>
<polygon fill="#7eceb0" stroke="#7eceb0" points="2021.28,-96.92 2010.97,-99.34 2020.54,-103.88 2021.28,-96.92"/>
</g>
<!-- at_client_mobile&#45;&gt;at_lookup -->
<g id="edge32" class="edge">
<title>at_client_mobile&#45;&gt;at_lookup</title>
<path fill="none" stroke="#94d42d" d="M2050.47,-2327.93C2079.01,-2245.85 2198.43,-1883.14 2192.41,-1577 2190,-1454.16 2182.9,-1307.62 2179.84,-1248.11"/>
<polygon fill="#94d42d" stroke="#94d42d" points="2183.34,-1247.84 2179.32,-1238.04 2176.34,-1248.21 2183.34,-1247.84"/>
</g>
<!-- at_client_mobile&#45;&gt;at_persistence_secondary_server -->
<g id="edge35" class="edge">
<title>at_client_mobile&#45;&gt;at_persistence_secondary_server</title>
<path fill="none" stroke="#9760d3" d="M2036.06,-2327.74C2007.94,-2270.59 1912.13,-2083.72 1800.41,-1953 1650.36,-1777.42 1503.44,-1823.05 1407.41,-1613 1349.17,-1485.59 1420.85,-1312.97 1452.66,-1247.58"/>
<polygon fill="#9760d3" stroke="#9760d3" points="1455.92,-1248.89 1457.23,-1238.38 1449.65,-1245.78 1455.92,-1248.89"/>
</g>
<!-- at_client_mobile&#45;&gt;at_utils -->
<g id="edge30" class="edge">
<title>at_client_mobile&#45;&gt;at_utils</title>
<path fill="none" stroke="#75e849" d="M2021.5,-2327.76C1925.58,-2254.18 1553.66,-1954.49 1391.41,-1613 1312.19,-1446.26 1310.33,-1385.39 1331.41,-1202 1349.09,-1048.31 1392.35,-1016.65 1410.41,-863 1426.45,-726.56 1418.5,-561.63 1414.37,-497.43"/>
<polygon fill="#75e849" stroke="#75e849" points="1417.86,-497.07 1413.7,-487.32 1410.87,-497.53 1417.86,-497.07"/>
</g>
<!-- at_contact&#45;&gt;at_client -->
<g id="edge36" class="edge">
<title>at_contact&#45;&gt;at_client</title>
<path fill="none" stroke="#61d4fc" d="M2505.31,-2329.57C2329.36,-2269.36 1689.93,-2050.54 1508.63,-1988.5"/>
<polygon fill="#61d4fc" stroke="#61d4fc" points="1509.69,-1985.16 1499.09,-1985.24 1507.42,-1991.79 1509.69,-1985.16"/>
</g>
<!-- at_contact&#45;&gt;at_commons -->
<g id="edge37" class="edge">
<title>at_contact&#45;&gt;at_commons</title>
<path fill="none" stroke="#7eceb0" d="M2567.96,-2327.83C2616.64,-2279.22 2754.76,-2134.71 2829.41,-1989 2987.36,-1680.69 2962.41,-1567.41 2962.41,-1221 2962.41,-1221 2962.41,-1221 2962.41,-844 2962.41,-669.01 3043.15,-591.19 2938.41,-451 2711.37,-147.12 2199.36,-102.19 2021.06,-95.89"/>
<polygon fill="#7eceb0" stroke="#7eceb0" points="2021.16,-92.4 2011.05,-95.57 2020.94,-99.39 2021.16,-92.4"/>
</g>
<!-- at_contact&#45;&gt;at_utils -->
<g id="edge38" class="edge">
<title>at_contact&#45;&gt;at_utils</title>
<path fill="none" stroke="#75e849" d="M2550.14,-2327.93C2547.1,-2194.48 2510.5,-1310.92 2072.41,-827 1891.89,-627.59 1573.21,-517.61 1456.68,-482.52"/>
<polygon fill="#75e849" stroke="#75e849" points="1457.6,-479.14 1447.01,-479.64 1455.6,-485.85 1457.6,-479.14"/>
</g>
<!-- at_contacts_flutter -->
<g id="node12" class="node">
<title>at_contacts_flutter</title>
<polygon fill="none" stroke="#1267b5" points="2504.91,-2739 2355.91,-2739 2355.91,-2703 2504.91,-2703 2504.91,-2739"/>
<text text-anchor="middle" x="2430.41" y="-2717.3" font-family="Times,serif" font-size="14.00">at_contacts_flutter</text>
</g>
<!-- at_contacts_flutter&#45;&gt;at_client -->
<g id="edge39" class="edge">
<title>at_contacts_flutter&#45;&gt;at_client</title>
<path fill="none" stroke="#61d4fc" d="M2387.72,-2702.88C2279.66,-2658.25 1989.64,-2530.14 1788.41,-2364 1647.58,-2247.72 1521.19,-2065.03 1477.05,-1997.88"/>
<polygon fill="#61d4fc" stroke="#61d4fc" points="1479.77,-1995.65 1471.37,-1989.19 1473.91,-1999.47 1479.77,-1995.65"/>
</g>
<!-- at_contacts_flutter&#45;&gt;at_client_mobile -->
<g id="edge40" class="edge">
<title>at_contacts_flutter&#45;&gt;at_client_mobile</title>
<path fill="none" stroke="#d9577c" d="M2412.57,-2702.76C2350.2,-2642.48 2141.79,-2441.1 2069.42,-2371.17"/>
<polygon fill="#d9577c" stroke="#d9577c" points="2071.69,-2368.49 2062.07,-2364.06 2066.83,-2373.53 2071.69,-2368.49"/>
</g>
<!-- at_contacts_flutter&#45;&gt;at_common_flutter -->
<g id="edge41" class="edge">
<title>at_contacts_flutter&#45;&gt;at_common_flutter</title>
<path fill="none" stroke="#bf681f" d="M2442.51,-2702.51C2484.17,-2642.29 2621.78,-2443.34 2670.84,-2372.4"/>
<polygon fill="#bf681f" stroke="#bf681f" points="2673.83,-2374.24 2676.64,-2364.02 2668.07,-2370.26 2673.83,-2374.24"/>
</g>
<!-- at_contacts_flutter&#45;&gt;at_commons -->
<g id="edge42" class="edge">
<title>at_contacts_flutter&#45;&gt;at_commons</title>
<path fill="none" stroke="#7eceb0" d="M2431.8,-2702.85C2436.59,-2647.55 2454.49,-2469.25 2496.41,-2328 2595.02,-1995.79 2719.25,-1948.13 2807.41,-1613 2851.98,-1443.59 2848.41,-1396.17 2848.41,-1221 2848.41,-1221 2848.41,-1221 2848.41,-844 2848.41,-668.56 2915.43,-592.28 2811.41,-451 2615.56,-184.99 2183.13,-116.59 2021.23,-100.01"/>
<polygon fill="#7eceb0" stroke="#7eceb0" points="2021.26,-96.49 2010.97,-98.99 2020.57,-103.46 2021.26,-96.49"/>
</g>
<!-- at_contacts_flutter&#45;&gt;at_contact -->
<g id="edge43" class="edge">
<title>at_contacts_flutter&#45;&gt;at_contact</title>
<path fill="none" stroke="#250aa2" d="M2436.04,-2702.51C2455.3,-2642.66 2518.64,-2445.76 2541.82,-2373.72"/>
<polygon fill="#250aa2" stroke="#250aa2" points="2545.21,-2374.61 2544.94,-2364.02 2538.54,-2372.47 2545.21,-2374.61"/>
</g>
<!-- at_contacts_flutter&#45;&gt;at_lookup -->
<g id="edge44" class="edge">
<title>at_contacts_flutter&#45;&gt;at_lookup</title>
<path fill="none" stroke="#94d42d" d="M2427.54,-2702.91C2402.04,-2551.22 2214.69,-1436.77 2182.97,-1248.1"/>
<polygon fill="#94d42d" stroke="#94d42d" points="2186.41,-1247.45 2181.3,-1238.17 2179.51,-1248.61 2186.41,-1247.45"/>
</g>
<!-- at_contacts_flutter&#45;&gt;at_utils -->
<g id="edge45" class="edge">
<title>at_contacts_flutter&#45;&gt;at_utils</title>
<path fill="none" stroke="#75e849" d="M2417.46,-2702.93C2343.22,-2604.14 1969.43,-2093.39 1805.41,-1613 1691.36,-1278.94 1830.08,-1151.61 1691.41,-827 1630.03,-683.3 1495.91,-547.64 1438.9,-494.08"/>
<polygon fill="#75e849" stroke="#75e849" points="1441.08,-491.33 1431.38,-487.08 1436.31,-496.45 1441.08,-491.33"/>
</g>
<!-- at_contacts_group_flutter -->
<g id="node13" class="node">
<title>at_contacts_group_flutter</title>
<polygon fill="none" stroke="#dae1d2" points="2542.41,-3115 2344.41,-3115 2344.41,-3079 2542.41,-3079 2542.41,-3115"/>
<text text-anchor="middle" x="2443.41" y="-3093.3" font-family="Times,serif" font-size="14.00">at_contacts_group_flutter</text>
</g>
<!-- at_contacts_group_flutter&#45;&gt;at_client_mobile -->
<g id="edge46" class="edge">
<title>at_contacts_group_flutter&#45;&gt;at_client_mobile</title>
<path fill="none" stroke="#d9577c" d="M2405.37,-3078.94C2316.25,-3036.58 2095.25,-2917.03 2011.41,-2739 1952.17,-2613.19 2008.04,-2439.54 2033.39,-2373.73"/>
<polygon fill="#d9577c" stroke="#d9577c" points="2036.77,-2374.7 2037.17,-2364.12 2030.25,-2372.14 2036.77,-2374.7"/>
</g>
<!-- at_contacts_group_flutter&#45;&gt;at_common_flutter -->
<g id="edge47" class="edge">
<title>at_contacts_group_flutter&#45;&gt;at_common_flutter</title>
<path fill="none" stroke="#bf681f" d="M2468.41,-3078.83C2532.82,-3032.86 2703.73,-2899.49 2765.41,-2739 2816.06,-2607.22 2737.49,-2437.17 2703.16,-2373.03"/>
<polygon fill="#bf681f" stroke="#bf681f" points="2706.11,-2371.11 2698.25,-2364 2699.96,-2374.46 2706.11,-2371.11"/>
</g>
<!-- at_contacts_group_flutter&#45;&gt;at_commons -->
<g id="edge48" class="edge">
<title>at_contacts_group_flutter&#45;&gt;at_commons</title>
<path fill="none" stroke="#7eceb0" d="M2510.8,-3078.98C2641.53,-3042.03 2927.89,-2941.06 3055.41,-2739 3237.98,-2449.72 3119.41,-2314.07 3119.41,-1972 3119.41,-1972 3119.41,-1972 3119.41,-844 3119.41,-663.32 3138.88,-582.92 3015.41,-451 2737.32,-153.87 2203.42,-104.67 2021.18,-96.58"/>
<polygon fill="#7eceb0" stroke="#7eceb0" points="2021.1,-93.07 2010.96,-96.15 2020.81,-100.06 2021.1,-93.07"/>
</g>
<!-- at_contacts_group_flutter&#45;&gt;at_contact -->
<g id="edge49" class="edge">
<title>at_contacts_group_flutter&#45;&gt;at_contact</title>
<path fill="none" stroke="#250aa2" d="M2447.46,-3078.65C2459.31,-3027.15 2494.35,-2870.58 2513.41,-2739 2533.15,-2602.78 2544.73,-2438.34 2548.77,-2374.34"/>
<polygon fill="#250aa2" stroke="#250aa2" points="2552.27,-2374.47 2549.4,-2364.27 2545.29,-2374.03 2552.27,-2374.47"/>
</g>
<!-- at_contacts_group_flutter&#45;&gt;at_contacts_flutter -->
<g id="edge50" class="edge">
<title>at_contacts_group_flutter&#45;&gt;at_contacts_flutter</title>
<path fill="none" stroke="#1267b5" d="M2442.82,-3078.96C2440.76,-3019.7 2433.9,-2822.25 2431.36,-2749.35"/>
<polygon fill="#1267b5" stroke="#1267b5" points="2434.86,-2749.01 2431.01,-2739.14 2427.86,-2749.26 2434.86,-2749.01"/>
</g>
<!-- at_contacts_group_flutter&#45;&gt;at_utils -->
<g id="edge51" class="edge">
<title>at_contacts_group_flutter&#45;&gt;at_utils</title>
<path fill="none" stroke="#75e849" d="M2344.26,-3086.53C2158.73,-3063.23 1759.55,-2985.67 1556.41,-2739 1330.64,-2464.85 1292.78,-2287.39 1412.41,-1953 1478.26,-1768.95 1625.57,-1797.05 1691.41,-1613 1716.22,-1543.66 1824.23,-2233.64 1637.41,-1202 1607.01,-1034.13 1605.53,-990.08 1555.41,-827 1516.39,-700 1451.63,-554.74 1424.73,-496.34"/>
<polygon fill="#75e849" stroke="#75e849" points="1427.82,-494.7 1420.45,-487.09 1421.47,-497.64 1427.82,-494.7"/>
</g>
<!-- at_cram -->
<g id="node14" class="node">
<title>at_cram</title>
<polygon fill="none" stroke="#c89a29" points="2721.41,-3490 2647.41,-3490 2647.41,-3454 2721.41,-3454 2721.41,-3490"/>
<text text-anchor="middle" x="2684.41" y="-3468.3" font-family="Times,serif" font-size="14.00">at_cram</text>
</g>
<!-- at_daemon_cli -->
<g id="node15" class="node">
<title>at_daemon_cli</title>
<polygon fill="none" stroke="#8e17d5" points="397.91,-3490 280.91,-3490 280.91,-3454 397.91,-3454 397.91,-3490"/>
<text text-anchor="middle" x="339.41" y="-3468.3" font-family="Times,serif" font-size="14.00">at_daemon_cli</text>
</g>
<!-- at_daemon_cli&#45;&gt;at_client -->
<g id="edge52" class="edge">
<title>at_daemon_cli&#45;&gt;at_client</title>
<path fill="none" stroke="#61d4fc" d="M366.02,-3453.76C504.3,-3362.36 1143.24,-2917.67 1367.41,-2364 1420.39,-2233.15 1447.64,-2064.98 1456.8,-1999.66"/>
<polygon fill="#61d4fc" stroke="#61d4fc" points="1460.32,-1999.76 1458.21,-1989.38 1453.38,-1998.81 1460.32,-1999.76"/>
</g>
<!-- at_daemon_cli&#45;&gt;at_commons -->
<g id="edge57" class="edge">
<title>at_daemon_cli&#45;&gt;at_commons</title>
<path fill="none" stroke="#7eceb0" d="M322.85,-3453.86C277.04,-3405.31 148.04,-3260.97 88.41,-3115 21.5,-2951.17 24.41,-2898.97 24.41,-2722 24.41,-2722 24.41,-2722 24.41,-844 24.41,-668.29 -51.95,-579.94 67.41,-451 323.38,-174.5 1596.49,-108.87 1895.48,-97.17"/>
<polygon fill="#7eceb0" stroke="#7eceb0" points="1895.84,-100.66 1905.7,-96.78 1895.57,-93.67 1895.84,-100.66"/>
</g>
<!-- at_daemon_core -->
<g id="node17" class="node">
<title>at_daemon_core</title>
<polygon fill="none" stroke="#c16272" points="243.91,-2739 112.91,-2739 112.91,-2703 243.91,-2703 243.91,-2739"/>
<text text-anchor="middle" x="178.41" y="-2717.3" font-family="Times,serif" font-size="14.00">at_daemon_core</text>
</g>
<!-- at_daemon_cli&#45;&gt;at_daemon_core -->
<g id="edge54" class="edge">
<title>at_daemon_cli&#45;&gt;at_daemon_core</title>
<path fill="none" stroke="#c16272" d="M317.87,-3453.78C265.84,-3405.62 135.73,-3263.27 90.41,-3115 49.11,-2979.84 123.05,-2811.81 159.88,-2748.12"/>
<polygon fill="#c16272" stroke="#c16272" points="163.11,-2749.53 165.24,-2739.15 157.1,-2745.94 163.11,-2749.53"/>
</g>
<!-- at_daemon_cli&#45;&gt;at_daemon_core -->
<g id="edge58" class="edge">
<title>at_daemon_cli&#45;&gt;at_daemon_core</title>
<path fill="none" stroke="#c16272" stroke-dasharray="1,5" d="M326.22,-3453.78C283.84,-3405.62 153.73,-3263.27 108.41,-3115 67.2,-2980.12 140.74,-2812.5 168.72,-2748.51"/>
<polygon fill="#c16272" stroke="#c16272" points="172.01,-2749.72 172.79,-2739.15 165.59,-2746.92 172.01,-2749.72"/>
</g>
<!-- at_daemon_server -->
<g id="node19" class="node">
<title>at_daemon_server</title>
<polygon fill="none" stroke="#4bd261" points="412.41,-3115 266.41,-3115 266.41,-3079 412.41,-3079 412.41,-3115"/>
<text text-anchor="middle" x="339.41" y="-3093.3" font-family="Times,serif" font-size="14.00">at_daemon_server</text>
</g>
<!-- at_daemon_cli&#45;&gt;at_daemon_server -->
<g id="edge55" class="edge">
<title>at_daemon_cli&#45;&gt;at_daemon_server</title>
<path fill="none" stroke="#4bd261" d="M336.34,-3453.51C331.67,-3393.78 331.45,-3197.57 335.69,-3125.16"/>
<polygon fill="#4bd261" stroke="#4bd261" points="339.19,-3125.24 336.38,-3115.02 332.21,-3124.76 339.19,-3125.24"/>
</g>
<!-- at_daemon_cli&#45;&gt;at_daemon_server -->
<g id="edge59" class="edge">
<title>at_daemon_cli&#45;&gt;at_daemon_server</title>
<path fill="none" stroke="#4bd261" stroke-dasharray="1,5" d="M342.49,-3453.51C347.16,-3393.78 347.38,-3197.57 343.14,-3125.16"/>
<polygon fill="#4bd261" stroke="#4bd261" points="346.62,-3124.76 342.45,-3115.02 339.63,-3125.24 346.62,-3124.76"/>
</g>
<!-- at_daemon_cli&#45;&gt;at_onboarding_cli -->
<g id="edge53" class="edge">
<title>at_daemon_cli&#45;&gt;at_onboarding_cli</title>
<path fill="none" stroke="#514d2d" d="M355.01,-3453.89C398.9,-3404.88 524.65,-3258.25 592.41,-3115 653.71,-2985.42 685.02,-2814.63 695.4,-2749.15"/>
<polygon fill="#514d2d" stroke="#514d2d" points="698.87,-2749.64 696.94,-2739.22 691.95,-2748.56 698.87,-2749.64"/>
</g>
<!-- at_daemon_cli&#45;&gt;at_utils -->
<g id="edge56" class="edge">
<title>at_daemon_cli&#45;&gt;at_utils</title>
<path fill="none" stroke="#75e849" d="M343.48,-3453.99C355.66,-3402.81 392.83,-3245.74 421.41,-3115 643.56,-2098.96 325.66,-1685.72 912.41,-827 1032.82,-650.79 1270.45,-531.94 1368.51,-488.43"/>
<polygon fill="#75e849" stroke="#75e849" points="1370.08,-491.56 1377.83,-484.34 1367.27,-485.16 1370.08,-491.56"/>
</g>
<!-- at_daemon_client -->
<g id="node16" class="node">
<title>at_daemon_client</title>
<polygon fill="none" stroke="#dbe812" points="248.41,-3115 108.41,-3115 108.41,-3079 248.41,-3079 248.41,-3115"/>
<text text-anchor="middle" x="178.41" y="-3093.3" font-family="Times,serif" font-size="14.00">at_daemon_client</text>
</g>
<!-- at_daemon_client&#45;&gt;at_daemon_core -->
<g id="edge60" class="edge">
<title>at_daemon_client&#45;&gt;at_daemon_core</title>
<path fill="none" stroke="#c16272" d="M175.38,-3078.96C170.67,-3019.7 170.44,-2822.25 174.68,-2749.35"/>
<polygon fill="#c16272" stroke="#c16272" points="178.19,-2749.36 175.37,-2739.14 171.21,-2748.88 178.19,-2749.36"/>
</g>
<!-- at_daemon_client&#45;&gt;at_daemon_core -->
<g id="edge61" class="edge">
<title>at_daemon_client&#45;&gt;at_daemon_core</title>
<path fill="none" stroke="#c16272" stroke-dasharray="1,5" d="M181.45,-3078.96C186.16,-3019.7 186.39,-2822.25 182.14,-2749.35"/>
<polygon fill="#c16272" stroke="#c16272" points="185.62,-2748.88 181.45,-2739.14 178.64,-2749.36 185.62,-2748.88"/>
</g>
<!-- at_daemon_core&#45;&gt;at_commons -->
<g id="edge63" class="edge">
<title>at_daemon_core&#45;&gt;at_commons</title>
<path fill="none" stroke="#7eceb0" d="M174.05,-2702.74C153.84,-2621.31 70.41,-2267.22 70.41,-1972 70.41,-1972 70.41,-1972 70.41,-844 70.41,-669.01 -21.17,-582.38 94.41,-451 339.73,-172.17 1598.64,-108.35 1895.6,-97.09"/>
<polygon fill="#7eceb0" stroke="#7eceb0" points="1895.89,-100.58 1905.76,-96.71 1895.63,-93.58 1895.89,-100.58"/>
</g>
<!-- at_daemon_core&#45;&gt;at_utils -->
<g id="edge62" class="edge">
<title>at_daemon_core&#45;&gt;at_utils</title>
<path fill="none" stroke="#75e849" d="M183.31,-2702.96C236.19,-2519.09 700.84,-907.5 766.41,-827 933.51,-621.86 1251.32,-515.39 1368.01,-481.88"/>
<polygon fill="#75e849" stroke="#75e849" points="1369.03,-485.23 1377.69,-479.13 1367.12,-478.49 1369.03,-485.23"/>
</g>
<!-- at_daemon_desktop -->
<g id="node18" class="node">
<title>at_daemon_desktop</title>
<polygon fill="none" stroke="#89d485" points="3129.91,-3490 2972.91,-3490 2972.91,-3454 3129.91,-3454 3129.91,-3490"/>
<text text-anchor="middle" x="3051.41" y="-3468.3" font-family="Times,serif" font-size="14.00">at_daemon_desktop</text>
</g>
<!-- at_daemon_server&#45;&gt;at_client -->
<g id="edge64" class="edge">
<title>at_daemon_server&#45;&gt;at_client</title>
<path fill="none" stroke="#61d4fc" d="M410.49,-3078.94C554.88,-3041.02 885.72,-2937.03 1085.41,-2739 1203.53,-2621.87 1402.81,-2120.5 1450.12,-1998.73"/>
<polygon fill="#61d4fc" stroke="#61d4fc" points="1453.51,-1999.66 1453.86,-1989.07 1446.98,-1997.13 1453.51,-1999.66"/>
</g>
<!-- at_daemon_server&#45;&gt;at_daemon_core -->
<g id="edge65" class="edge">
<title>at_daemon_server&#45;&gt;at_daemon_core</title>
<path fill="none" stroke="#c16272" d="M329.05,-3078.96C298.76,-3019.57 213.24,-2821.43 186.29,-2748.9"/>
<polygon fill="#c16272" stroke="#c16272" points="189.45,-2747.35 182.75,-2739.14 182.87,-2749.74 189.45,-2747.35"/>
</g>
<!-- at_daemon_server&#45;&gt;at_daemon_core -->
<g id="edge68" class="edge">
<title>at_daemon_server&#45;&gt;at_daemon_core</title>
<path fill="none" stroke="#c16272" stroke-dasharray="1,5" d="M335.11,-3078.96C314.23,-3019.45 228.85,-2820.62 193.48,-2748.46"/>
<polygon fill="#c16272" stroke="#c16272" points="196.43,-2746.53 188.83,-2739.14 190.17,-2749.65 196.43,-2746.53"/>
</g>
<!-- at_daemon_server&#45;&gt;at_onboarding_cli -->
<g id="edge67" class="edge">
<title>at_daemon_server&#45;&gt;at_onboarding_cli</title>
<path fill="none" stroke="#514d2d" d="M355.82,-3078.96C413.57,-3018.97 607.62,-2817.36 675.63,-2746.71"/>
<polygon fill="#514d2d" stroke="#514d2d" points="678.5,-2748.77 682.91,-2739.14 673.46,-2743.92 678.5,-2748.77"/>
</g>
<!-- at_server_spec -->
<g id="node39" class="node">
<title>at_server_spec</title>
<polygon fill="none" stroke="#e6f023" points="296.41,-1238 174.41,-1238 174.41,-1202 296.41,-1202 296.41,-1238"/>
<text text-anchor="middle" x="235.41" y="-1216.3" font-family="Times,serif" font-size="14.00">at_server_spec</text>
</g>
<!-- at_daemon_server&#45;&gt;at_server_spec -->
<g id="edge66" class="edge">
<title>at_daemon_server&#45;&gt;at_server_spec</title>
<path fill="none" stroke="#e6f023" d="M338.86,-3078.86C336.25,-2997.25 325.41,-2639.95 325.41,-2347 325.41,-2347 325.41,-2347 325.41,-1970 325.41,-1685.65 260.68,-1344.89 241.01,-1247.92"/>
<polygon fill="#e6f023" stroke="#e6f023" points="244.43,-1247.15 239,-1238.05 237.57,-1248.55 244.43,-1247.15"/>
</g>
<!-- at_dump_atKeys -->
<g id="node20" class="node">
<title>at_dump_atKeys</title>
<polygon fill="none" stroke="#80b159" points="3397.91,-3490 3264.91,-3490 3264.91,-3454 3397.91,-3454 3397.91,-3490"/>
<text text-anchor="middle" x="3331.41" y="-3468.3" font-family="Times,serif" font-size="14.00">at_dump_atKeys</text>
</g>
<!-- at_pkam -->
<g id="node34" class="node">
<title>at_pkam</title>
<polygon fill="none" stroke="#d549ec" points="3369.91,-3115 3292.91,-3115 3292.91,-3079 3369.91,-3079 3369.91,-3115"/>
<text text-anchor="middle" x="3331.41" y="-3093.3" font-family="Times,serif" font-size="14.00">at_pkam</text>
</g>
<!-- at_dump_atKeys&#45;&gt;at_pkam -->
<g id="edge69" class="edge">
<title>at_dump_atKeys&#45;&gt;at_pkam</title>
<path fill="none" stroke="#d549ec" stroke-dasharray="1,5" d="M3331.41,-3453.51C3331.41,-3393.78 3331.41,-3197.57 3331.41,-3125.16"/>
<polygon fill="#d549ec" stroke="#d549ec" points="3334.91,-3125.02 3331.41,-3115.02 3327.91,-3125.02 3334.91,-3125.02"/>
</g>
<!-- at_events_flutter -->
<g id="node21" class="node">
<title>at_events_flutter</title>
<polygon fill="none" stroke="#5b74f7" points="2569.91,-3490 2432.91,-3490 2432.91,-3454 2569.91,-3454 2569.91,-3490"/>
<text text-anchor="middle" x="2501.41" y="-3468.3" font-family="Times,serif" font-size="14.00">at_events_flutter</text>
</g>
<!-- at_events_flutter&#45;&gt;at_client -->
<g id="edge70" class="edge">
<title>at_events_flutter&#45;&gt;at_client</title>
<path fill="none" stroke="#61d4fc" d="M2432.79,-3461.83C2196.07,-3428.64 1420.27,-3306.61 1276.41,-3115 1166.48,-2968.56 1236.37,-2881.68 1276.41,-2703 1312.85,-2540.43 1395.02,-2525.38 1436.41,-2364 1470.6,-2230.7 1465.8,-2063.94 1462.24,-1999.33"/>
<polygon fill="#61d4fc" stroke="#61d4fc" points="1465.72,-1998.94 1461.64,-1989.17 1458.73,-1999.35 1465.72,-1998.94"/>
</g>
<!-- at_events_flutter&#45;&gt;at_client_mobile -->
<g id="edge71" class="edge">
<title>at_events_flutter&#45;&gt;at_client_mobile</title>
<path fill="none" stroke="#d9577c" d="M2483.25,-3453.78C2405.32,-3378.49 2098.69,-3067.35 1996.41,-2739 1955.09,-2606.34 2009.27,-2438.05 2033.65,-2373.69"/>
<polygon fill="#d9577c" stroke="#d9577c" points="2036.95,-2374.86 2037.29,-2364.27 2030.42,-2372.34 2036.95,-2374.86"/>
</g>
<!-- at_events_flutter&#45;&gt;at_common_flutter -->
<g id="edge72" class="edge">
<title>at_events_flutter&#45;&gt;at_common_flutter</title>
<path fill="none" stroke="#bf681f" d="M2518.05,-3453.87C2564.07,-3405.37 2693.62,-3261.12 2753.41,-3115 2823.52,-2943.68 2845.75,-2885.44 2814.41,-2703 2792.38,-2574.73 2728.75,-2431.32 2701.29,-2373.39"/>
<polygon fill="#bf681f" stroke="#bf681f" points="2704.37,-2371.72 2696.9,-2364.21 2698.06,-2374.74 2704.37,-2371.72"/>
</g>
<!-- at_events_flutter&#45;&gt;at_commons -->
<g id="edge73" class="edge">
<title>at_events_flutter&#45;&gt;at_commons</title>
<path fill="none" stroke="#7eceb0" d="M2544.9,-3453.95C2706.67,-3387.35 3264.41,-3128.28 3264.41,-2722 3264.41,-2722 3264.41,-2722 3264.41,-844 3264.41,-649.99 3220.96,-578.14 3074.41,-451 2751.22,-170.59 2205.45,-110.63 2021.27,-98.17"/>
<polygon fill="#7eceb0" stroke="#7eceb0" points="2021.42,-94.67 2011.22,-97.51 2020.97,-101.66 2021.42,-94.67"/>
</g>
<!-- at_events_flutter&#45;&gt;at_contact -->
<g id="edge74" class="edge">
<title>at_events_flutter&#45;&gt;at_contact</title>
<path fill="none" stroke="#250aa2" d="M2504.72,-3453.68C2514.35,-3402.29 2542.26,-3246.06 2551.41,-3115 2571.64,-2825.58 2556.76,-2473.31 2551.84,-2374.13"/>
<polygon fill="#250aa2" stroke="#250aa2" points="2555.33,-2373.87 2551.33,-2364.06 2548.34,-2374.22 2555.33,-2373.87"/>
</g>
<!-- at_events_flutter&#45;&gt;at_contacts_flutter -->
<g id="edge75" class="edge">
<title>at_events_flutter&#45;&gt;at_contacts_flutter</title>
<path fill="none" stroke="#1267b5" d="M2490.03,-3453.84C2457.82,-3404.09 2366.34,-3254.48 2335.41,-3115 2304.63,-2976.16 2382.07,-2810.93 2415.72,-2748.04"/>
<polygon fill="#1267b5" stroke="#1267b5" points="2418.83,-2749.64 2420.53,-2739.18 2412.68,-2746.3 2418.83,-2749.64"/>
</g>
<!-- at_events_flutter&#45;&gt;at_contacts_group_flutter -->
<g id="edge76" class="edge">
<title>at_events_flutter&#45;&gt;at_contacts_group_flutter</title>
<path fill="none" stroke="#dae1d2" d="M2498.69,-3453.51C2489.41,-3393.78 2458.9,-3197.57 2447.64,-3125.16"/>
<polygon fill="#dae1d2" stroke="#dae1d2" points="2451.06,-3124.37 2446.06,-3115.02 2444.14,-3125.44 2451.06,-3124.37"/>
</g>
<!-- at_location_flutter -->
<g id="node25" class="node">
<title>at_location_flutter</title>
<polygon fill="none" stroke="#283e9c" points="2744.41,-3115 2598.41,-3115 2598.41,-3079 2744.41,-3079 2744.41,-3115"/>
<text text-anchor="middle" x="2671.41" y="-3093.3" font-family="Times,serif" font-size="14.00">at_location_flutter</text>
</g>
<!-- at_events_flutter&#45;&gt;at_location_flutter -->
<g id="edge77" class="edge">
<title>at_events_flutter&#45;&gt;at_location_flutter</title>
<path fill="none" stroke="#283e9c" d="M2509.39,-3453.51C2536.72,-3393.53 2626.77,-3195.96 2659.44,-3124.27"/>
<polygon fill="#283e9c" stroke="#283e9c" points="2662.69,-3125.57 2663.66,-3115.02 2656.32,-3122.67 2662.69,-3125.57"/>
</g>
<!-- at_events_flutter&#45;&gt;at_lookup -->
<g id="edge78" class="edge">
<title>at_events_flutter&#45;&gt;at_lookup</title>
<path fill="none" stroke="#94d42d" d="M2531.71,-3453.97C2661.23,-3378.69 3158.12,-3063.46 3072.41,-2703 2913.63,-2035.17 2326.31,-1379.08 2201.73,-1245.59"/>
<polygon fill="#94d42d" stroke="#94d42d" points="2204.24,-1243.15 2194.84,-1238.24 2199.13,-1247.93 2204.24,-1243.15"/>
</g>
<!-- at_events_flutter&#45;&gt;at_utils -->
<g id="edge79" class="edge">
<title>at_events_flutter&#45;&gt;at_utils</title>
<path fill="none" stroke="#75e849" d="M2432.61,-3461.85C2193.32,-3428.55 1403.65,-3305.62 1250.41,-3115 1184.96,-3033.58 1139.58,-1342.42 1136.41,-1238 1131.56,-1078.04 1138.04,-884.86 1158.41,-827 1208.49,-684.76 1333.34,-548.72 1387.11,-494.59"/>
<polygon fill="#75e849" stroke="#75e849" points="1389.91,-496.75 1394.52,-487.21 1384.96,-491.79 1389.91,-496.75"/>
</g>
<!-- at_follows_flutter -->
<g id="node22" class="node">
<title>at_follows_flutter</title>
<polygon fill="none" stroke="#13b24b" points="1723.41,-2739 1583.41,-2739 1583.41,-2703 1723.41,-2703 1723.41,-2739"/>
<text text-anchor="middle" x="1653.41" y="-2717.3" font-family="Times,serif" font-size="14.00">at_follows_flutter</text>
</g>
<!-- at_follows_flutter&#45;&gt;at_client -->
<g id="edge80" class="edge">
<title>at_follows_flutter&#45;&gt;at_client</title>
<path fill="none" stroke="#61d4fc" d="M1649.02,-2702.97C1623.88,-2605.55 1498.35,-2119.01 1467.34,-1998.86"/>
<polygon fill="#61d4fc" stroke="#61d4fc" points="1470.69,-1997.81 1464.8,-1989 1463.91,-1999.56 1470.69,-1997.81"/>
</g>
<!-- at_follows_flutter&#45;&gt;at_client_mobile -->
<g id="edge81" class="edge">
<title>at_follows_flutter&#45;&gt;at_client_mobile</title>
<path fill="none" stroke="#d9577c" d="M1671.49,-2702.76C1734.67,-2642.48 1945.78,-2441.1 2019.08,-2371.17"/>
<polygon fill="#d9577c" stroke="#d9577c" points="2021.71,-2373.49 2026.53,-2364.06 2016.88,-2368.43 2021.71,-2373.49"/>
</g>
<!-- at_follows_flutter&#45;&gt;at_commons -->
<g id="edge82" class="edge">
<title>at_follows_flutter&#45;&gt;at_commons</title>
<path fill="none" stroke="#7eceb0" d="M1665.24,-2702.95C1704.82,-2646.44 1837.58,-2461.33 1969.41,-2328 2135.9,-2159.63 2207.24,-2150.49 2380.41,-1989 2548.94,-1831.84 2642.55,-1823.01 2737.41,-1613 2809.42,-1453.59 2772.41,-1395.92 2772.41,-1221 2772.41,-1221 2772.41,-1221 2772.41,-844 2772.41,-432.94 2203.36,-185.65 2016.84,-115.64"/>
<polygon fill="#7eceb0" stroke="#7eceb0" points="2017.79,-112.26 2007.2,-112.05 2015.35,-118.82 2017.79,-112.26"/>
</g>
<!-- at_follows_flutter&#45;&gt;at_lookup -->
<g id="edge83" class="edge">
<title>at_follows_flutter&#45;&gt;at_lookup</title>
<path fill="none" stroke="#94d42d" d="M1667.65,-2702.98C1708.29,-2653.63 1826.26,-2504.98 1893.41,-2364 2043.49,-2048.97 2046.63,-1953.62 2122.41,-1613 2152.48,-1477.88 2169.89,-1312.81 2175.96,-1248.49"/>
<polygon fill="#94d42d" stroke="#94d42d" points="2179.46,-1248.65 2176.9,-1238.37 2172.49,-1248 2179.46,-1248.65"/>
</g>
<!-- at_server_status -->
<g id="node40" class="node">
<title>at_server_status</title>
<polygon fill="none" stroke="#320113" points="1128.41,-2364 994.41,-2364 994.41,-2328 1128.41,-2328 1128.41,-2364"/>
<text text-anchor="middle" x="1061.41" y="-2342.3" font-family="Times,serif" font-size="14.00">at_server_status</text>
</g>
<!-- at_follows_flutter&#45;&gt;at_server_status -->
<g id="edge84" class="edge">
<title>at_follows_flutter&#45;&gt;at_server_status</title>
<path fill="none" stroke="#320113" d="M1626.05,-2702.76C1529.61,-2642 1205.56,-2437.82 1097.12,-2369.49"/>
<polygon fill="#320113" stroke="#320113" points="1098.82,-2366.43 1088.49,-2364.06 1095.09,-2372.35 1098.82,-2366.43"/>
</g>
<!-- at_follows_flutter&#45;&gt;at_utils -->
<g id="edge85" class="edge">
<title>at_follows_flutter&#45;&gt;at_utils</title>
<path fill="none" stroke="#75e849" d="M1655.31,-2702.8C1673.47,-2535.42 1813.2,-1195.19 1672.41,-827 1618.01,-684.73 1491.48,-548.29 1437.52,-494.3"/>
<polygon fill="#75e849" stroke="#75e849" points="1439.96,-491.79 1430.4,-487.23 1435.03,-496.76 1439.96,-491.79"/>
</g>
<!-- at_hive_recovery -->
<g id="node23" class="node">
<title>at_hive_recovery</title>
<polygon fill="none" stroke="#f0efbc" points="1553.91,-1613 1416.91,-1613 1416.91,-1577 1553.91,-1577 1553.91,-1613"/>
<text text-anchor="middle" x="1485.41" y="-1591.3" font-family="Times,serif" font-size="14.00">at_hive_recovery</text>
</g>
<!-- at_hive_recovery&#45;&gt;at_persistence_secondary_server -->
<g id="edge86" class="edge">
<title>at_hive_recovery&#45;&gt;at_persistence_secondary_server</title>
<path fill="none" stroke="#9760d3" d="M1484.52,-1576.51C1481.48,-1516.78 1471.49,-1320.57 1467.8,-1248.16"/>
<polygon fill="#9760d3" stroke="#9760d3" points="1471.29,-1247.83 1467.28,-1238.02 1464.29,-1248.19 1471.29,-1247.83"/>
</g>
<!-- at_invitation_flutter -->
<g id="node24" class="node">
<title>at_invitation_flutter</title>
<polygon fill="none" stroke="#b653c9" points="3046.41,-2739 2888.41,-2739 2888.41,-2703 3046.41,-2703 3046.41,-2739"/>
<text text-anchor="middle" x="2967.41" y="-2717.3" font-family="Times,serif" font-size="14.00">at_invitation_flutter</text>
</g>
<!-- at_invitation_flutter&#45;&gt;at_client_mobile -->
<g id="edge87" class="edge">
<title>at_invitation_flutter&#45;&gt;at_client_mobile</title>
<path fill="none" stroke="#d9577c" d="M2925.05,-2702.88C2773.89,-2641.79 2261.25,-2434.63 2096.12,-2367.9"/>
<polygon fill="#d9577c" stroke="#d9577c" points="2097.26,-2364.58 2086.67,-2364.08 2094.63,-2371.07 2097.26,-2364.58"/>
</g>
<!-- at_invitation_flutter&#45;&gt;at_common_flutter -->
<g id="edge88" class="edge">
<title>at_invitation_flutter&#45;&gt;at_common_flutter</title>
<path fill="none" stroke="#bf681f" d="M2954.33,-2702.51C2909.29,-2642.29 2760.47,-2443.34 2707.41,-2372.4"/>
<polygon fill="#bf681f" stroke="#bf681f" points="2709.94,-2369.93 2701.15,-2364.02 2704.33,-2374.13 2709.94,-2369.93"/>
</g>
<!-- at_invitation_flutter&#45;&gt;at_commons -->
<g id="edge89" class="edge">
<title>at_invitation_flutter&#45;&gt;at_commons</title>
<path fill="none" stroke="#7eceb0" d="M2968.83,-2702.98C2978.84,-2581.41 3038.41,-1831.95 3038.41,-1221 3038.41,-1221 3038.41,-1221 3038.41,-844 3038.41,-667.98 3100.26,-587.74 2989.41,-451 2738.65,-141.65 2204.16,-100.31 2021.3,-95.41"/>
<polygon fill="#7eceb0" stroke="#7eceb0" points="2021.13,-91.9 2011.05,-95.16 2020.96,-98.9 2021.13,-91.9"/>
</g>
<!-- at_invitation_flutter&#45;&gt;at_lookup -->
<g id="edge90" class="edge">
<title>at_invitation_flutter&#45;&gt;at_lookup</title>
<path fill="none" stroke="#94d42d" d="M2960.23,-2702.97C2936.94,-2648.02 2860.87,-2470.68 2789.41,-2328 2626.65,-2003 2568.51,-1930.97 2392.41,-1613 2316.31,-1475.58 2226.63,-1310.15 2192.53,-1247.12"/>
<polygon fill="#94d42d" stroke="#94d42d" points="2195.56,-1245.37 2187.73,-1238.24 2189.41,-1248.7 2195.56,-1245.37"/>
</g>
<!-- at_invitation_flutter&#45;&gt;at_utils -->
<g id="edge91" class="edge">
<title>at_invitation_flutter&#45;&gt;at_utils</title>
<path fill="none" stroke="#75e849" d="M2960.79,-2702.74C2939.65,-2647.8 2871.74,-2472.15 2812.41,-2328 2680.85,-2008.36 2642.12,-1930.9 2506.41,-1613 2428.47,-1430.41 2422.79,-1378.26 2331.41,-1202 2241.21,-1028.01 2243.08,-960.3 2099.41,-827 1895.96,-638.22 1573.78,-521.72 1456.75,-483.72"/>
<polygon fill="#75e849" stroke="#75e849" points="1457.64,-480.32 1447.04,-480.59 1455.49,-486.99 1457.64,-480.32"/>
</g>
<!-- at_location_flutter&#45;&gt;at_client -->
<g id="edge92" class="edge">
<title>at_location_flutter&#45;&gt;at_client</title>
<path fill="none" stroke="#61d4fc" d="M2598.27,-3082.51C2375.41,-3039.88 1711.65,-2901.31 1574.41,-2739 1525.38,-2681 1474.21,-2129.22 1462.77,-1999.3"/>
<polygon fill="#61d4fc" stroke="#61d4fc" points="1466.23,-1998.7 1461.87,-1989.04 1459.26,-1999.31 1466.23,-1998.7"/>
</g>
<!-- at_location_flutter&#45;&gt;at_client_mobile -->
<g id="edge93" class="edge">
<title>at_location_flutter&#45;&gt;at_client_mobile</title>
<path fill="none" stroke="#d9577c" d="M2598.26,-3079.75C2460.59,-3044.78 2165.92,-2948 2044.41,-2739 1974.61,-2618.93 2016.1,-2441.17 2035.8,-2374.01"/>
<polygon fill="#d9577c" stroke="#d9577c" points="2039.22,-2374.79 2038.76,-2364.21 2032.52,-2372.77 2039.22,-2374.79"/>
</g>
<!-- at_location_flutter&#45;&gt;at_common_flutter -->
<g id="edge94" class="edge">
<title>at_location_flutter&#45;&gt;at_common_flutter</title>
<path fill="none" stroke="#bf681f" d="M2679.97,-3078.75C2704.51,-3028.15 2774.92,-2875.13 2798.41,-2739 2822.71,-2598.21 2740.07,-2435.37 2704.21,-2373.07"/>
<polygon fill="#bf681f" stroke="#bf681f" points="2707.14,-2371.16 2699.08,-2364.29 2701.1,-2374.69 2707.14,-2371.16"/>
</g>
<!-- at_location_flutter&#45;&gt;at_commons -->
<g id="edge95" class="edge">
<title>at_location_flutter&#45;&gt;at_commons</title>
<path fill="none" stroke="#7eceb0" d="M2700.59,-3078.87C2775.88,-3033.22 2978.53,-2901.05 3089.41,-2739 3193.64,-2586.69 3226.41,-2531.56 3226.41,-2347 3226.41,-2347 3226.41,-2347 3226.41,-844 3226.41,-651.33 3187.5,-578.92 3043.41,-451 2732.37,-174.86 2202.42,-112.23 2021.28,-98.62"/>
<polygon fill="#7eceb0" stroke="#7eceb0" points="2021.35,-95.11 2011.12,-97.88 2020.84,-102.1 2021.35,-95.11"/>
</g>
<!-- at_location_flutter&#45;&gt;at_contact -->
<g id="edge96" class="edge">
<title>at_location_flutter&#45;&gt;at_contact</title>
<path fill="none" stroke="#250aa2" d="M2668.66,-3078.95C2652.92,-2981.5 2574.35,-2495.19 2554.82,-2374.26"/>
<polygon fill="#250aa2" stroke="#250aa2" points="2558.21,-2373.34 2553.16,-2364.02 2551.3,-2374.45 2558.21,-2373.34"/>
</g>
<!-- at_location_flutter&#45;&gt;at_contacts_flutter -->
<g id="edge97" class="edge">
<title>at_location_flutter&#45;&gt;at_contacts_flutter</title>
<path fill="none" stroke="#1267b5" d="M2660.43,-3078.96C2621.93,-3019.21 2492.92,-2818.99 2446.9,-2747.58"/>
<polygon fill="#1267b5" stroke="#1267b5" points="2449.82,-2745.65 2441.46,-2739.14 2443.93,-2749.44 2449.82,-2745.65"/>
</g>
<!-- at_location_flutter&#45;&gt;at_lookup -->
<g id="edge98" class="edge">
<title>at_location_flutter&#45;&gt;at_lookup</title>
<path fill="none" stroke="#94d42d" d="M2714.74,-3078.92C2825.59,-3032.21 3107.21,-2893.05 3055.41,-2703 3009.32,-2533.87 2311.55,-1430.69 2194.9,-1246.93"/>
<polygon fill="#94d42d" stroke="#94d42d" points="2197.81,-1244.98 2189.49,-1238.42 2191.9,-1248.74 2197.81,-1244.98"/>
</g>
<!-- at_location_flutter&#45;&gt;at_utils -->
<g id="edge99" class="edge">
<title>at_location_flutter&#45;&gt;at_utils</title>
<path fill="none" stroke="#75e849" d="M2717.34,-3078.94C2831.83,-3033.24 3117.57,-2898.16 3072.41,-2703 2950.84,-2177.62 2768.56,-2101.15 2539.41,-1613 2454.29,-1431.67 2446.69,-1379.8 2354.41,-1202 2265.19,-1030.09 2274.35,-958.78 2132.41,-827 1919.83,-629.64 1577.66,-517.38 1456.59,-482.17"/>
<polygon fill="#75e849" stroke="#75e849" points="1457.49,-478.79 1446.92,-479.38 1455.56,-485.51 1457.49,-478.79"/>
</g>
<!-- at_login_flutter -->
<g id="node26" class="node">
<title>at_login_flutter</title>
<polygon fill="none" stroke="#7ceee7" points="1076.91,-2739 951.91,-2739 951.91,-2703 1076.91,-2703 1076.91,-2739"/>
<text text-anchor="middle" x="1014.41" y="-2717.3" font-family="Times,serif" font-size="14.00">at_login_flutter</text>
</g>
<!-- at_login_flutter&#45;&gt;at_client -->
<g id="edge100" class="edge">
<title>at_login_flutter&#45;&gt;at_client</title>
<path fill="none" stroke="#61d4fc" d="M1024.57,-2702.97C1082.83,-2605.26 1374.51,-2116.07 1445.04,-1997.78"/>
<polygon fill="#61d4fc" stroke="#61d4fc" points="1448.16,-1999.38 1450.28,-1989 1442.15,-1995.8 1448.16,-1999.38"/>
</g>
<!-- at_login_flutter&#45;&gt;at_client_mobile -->
<g id="edge101" class="edge">
<title>at_login_flutter&#45;&gt;at_client_mobile</title>
<path fill="none" stroke="#d9577c" d="M1061.69,-2702.88C1230.71,-2641.67 1804.73,-2433.8 1987.81,-2367.5"/>
<polygon fill="#d9577c" stroke="#d9577c" points="1989.04,-2370.77 1997.26,-2364.08 1986.66,-2364.19 1989.04,-2370.77"/>
</g>
<!-- at_login_flutter&#45;&gt;at_commons -->
<g id="edge102" class="edge">
<title>at_login_flutter&#45;&gt;at_commons</title>
<path fill="none" stroke="#7eceb0" d="M1008.2,-2702.95C956.9,-2559.43 613.45,-1540.65 931.41,-827 1015.78,-637.64 1047.55,-582.97 1207.41,-451 1428.59,-268.41 1759.08,-154.74 1895.77,-113.04"/>
<polygon fill="#7eceb0" stroke="#7eceb0" points="1897.11,-116.29 1905.66,-110.05 1895.08,-109.59 1897.11,-116.29"/>
</g>
<!-- at_login_flutter&#45;&gt;at_server_status -->
<g id="edge103" class="edge">
<title>at_login_flutter&#45;&gt;at_server_status</title>
<path fill="none" stroke="#320113" d="M1016.62,-2702.51C1024.14,-2642.78 1048.87,-2446.57 1057.99,-2374.16"/>
<polygon fill="#320113" stroke="#320113" points="1061.49,-2374.38 1059.27,-2364.02 1054.55,-2373.51 1061.49,-2374.38"/>
</g>
<!-- at_login_flutter&#45;&gt;at_utils -->
<g id="edge104" class="edge">
<title>at_login_flutter&#45;&gt;at_utils</title>
<path fill="none" stroke="#75e849" d="M1024.82,-2702.99C1056.42,-2649.47 1148.45,-2479.17 1137.41,-2328 1114.02,-2007.67 1055.81,-1933.33 1032.41,-1613 1019.11,-1430.82 1023.19,-1384.43 1032.41,-1202 1040.87,-1034.69 1000.2,-979.1 1070.41,-827 1141.62,-672.74 1307.2,-543.59 1378.62,-492.95"/>
<polygon fill="#75e849" stroke="#75e849" points="1380.68,-495.78 1386.85,-487.16 1376.66,-490.05 1380.68,-495.78"/>
</g>
<!-- at_lookup&#45;&gt;at_chops -->
<g id="edge107" class="edge">
<title>at_lookup&#45;&gt;at_chops</title>
<path fill="none" stroke="#8fb4d4" d="M2169.88,-1201.51C2140.62,-1141.53 2044.21,-943.96 2009.23,-872.27"/>
<polygon fill="#8fb4d4" stroke="#8fb4d4" points="2012.25,-870.48 2004.72,-863.02 2005.96,-873.55 2012.25,-870.48"/>
</g>
<!-- at_lookup&#45;&gt;at_commons -->
<g id="edge106" class="edge">
<title>at_lookup&#45;&gt;at_commons</title>
<path fill="none" stroke="#7eceb0" d="M2175.05,-1201.79C2150.13,-1074.49 1994.52,-279.46 1963.71,-122.06"/>
<polygon fill="#7eceb0" stroke="#7eceb0" points="1967.14,-121.38 1961.79,-112.24 1960.27,-122.72 1967.14,-121.38"/>
</g>
<!-- at_lookup&#45;&gt;at_utils -->
<g id="edge105" class="edge">
<title>at_lookup&#45;&gt;at_utils</title>
<path fill="none" stroke="#75e849" d="M2176.85,-1201.62C2170.7,-1142.51 2143.43,-946.24 2044.41,-827 1878.94,-627.72 1571.76,-518.3 1457.1,-482.91"/>
<polygon fill="#75e849" stroke="#75e849" points="1457.84,-479.48 1447.25,-479.91 1455.8,-486.18 1457.84,-479.48"/>
</g>
<!-- at_notify_flutter -->
<g id="node28" class="node">
<title>at_notify_flutter</title>
<polygon fill="none" stroke="#19e4c3" points="2184.91,-2739 2053.91,-2739 2053.91,-2703 2184.91,-2703 2184.91,-2739"/>
<text text-anchor="middle" x="2119.41" y="-2717.3" font-family="Times,serif" font-size="14.00">at_notify_flutter</text>
</g>
<!-- at_notify_flutter&#45;&gt;at_client -->
<g id="edge108" class="edge">
<title>at_notify_flutter&#45;&gt;at_client</title>
<path fill="none" stroke="#61d4fc" d="M2090.94,-2702.94C2015.24,-2656.5 1805.86,-2520.73 1674.41,-2364 1572.52,-2242.51 1496.86,-2064.97 1470.54,-1998.46"/>
<polygon fill="#61d4fc" stroke="#61d4fc" points="1473.79,-1997.15 1466.88,-1989.11 1467.27,-1999.7 1473.79,-1997.15"/>
</g>
<!-- at_notify_flutter&#45;&gt;at_client_mobile -->
<g id="edge109" class="edge">
<title>at_notify_flutter&#45;&gt;at_client_mobile</title>
<path fill="none" stroke="#d9577c" d="M2115.9,-2702.51C2103.89,-2642.78 2064.44,-2446.57 2049.88,-2374.16"/>
<polygon fill="#d9577c" stroke="#d9577c" points="2053.24,-2373.14 2047.84,-2364.02 2046.38,-2374.52 2053.24,-2373.14"/>
</g>
<!-- at_notify_flutter&#45;&gt;at_common_flutter -->
<g id="edge110" class="edge">
<title>at_notify_flutter&#45;&gt;at_common_flutter</title>
<path fill="none" stroke="#bf681f" d="M2145.72,-2702.76C2238.31,-2642.06 2549.24,-2438.23 2653.79,-2369.7"/>
<polygon fill="#bf681f" stroke="#bf681f" points="2655.95,-2372.47 2662.39,-2364.06 2652.11,-2366.61 2655.95,-2372.47"/>
</g>
<!-- at_notify_flutter&#45;&gt;at_commons -->
<g id="edge111" class="edge">
<title>at_notify_flutter&#45;&gt;at_commons</title>
<path fill="none" stroke="#7eceb0" d="M2131.35,-2702.72C2214.76,-2581.75 2709.73,-1859.37 2807.41,-1613 2872.92,-1447.79 2886.41,-1398.72 2886.41,-1221 2886.41,-1221 2886.41,-1221 2886.41,-844 2886.41,-669.01 2965.27,-592.57 2862.41,-451 2656.66,-167.8 2190.41,-109.81 2021.24,-98"/>
<polygon fill="#7eceb0" stroke="#7eceb0" points="2021.22,-94.49 2011,-97.31 2020.75,-101.47 2021.22,-94.49"/>
</g>
<!-- at_onboarding_cli&#45;&gt;at_auth -->
<g id="edge112" class="edge">
<title>at_onboarding_cli&#45;&gt;at_auth</title>
<path fill="none" stroke="#0f9477" d="M704.17,-2702.81C732.87,-2600.18 885.55,-2069.09 1003.41,-1953 1243.9,-1716.14 1665.3,-1626.88 1803.85,-1603.09"/>
<polygon fill="#0f9477" stroke="#0f9477" points="1804.81,-1606.47 1814.09,-1601.36 1803.65,-1599.57 1804.81,-1606.47"/>
</g>
<!-- at_onboarding_cli&#45;&gt;at_chops -->
<g id="edge113" class="edge">
<title>at_onboarding_cli&#45;&gt;at_chops</title>
<path fill="none" stroke="#8fb4d4" d="M707.02,-2702.85C732.64,-2646.05 820.14,-2460.13 924.41,-2328 1074.98,-2137.22 1128.4,-2099.38 1322.41,-1953 1558.2,-1775.11 1726.62,-1856.76 1893.41,-1613 2060.12,-1369.37 2016.54,-978.92 2000.84,-873.16"/>
<polygon fill="#8fb4d4" stroke="#8fb4d4" points="2004.26,-872.38 1999.29,-863.02 1997.34,-873.44 2004.26,-872.38"/>
</g>
<!-- at_onboarding_cli&#45;&gt;at_cli_commons -->
<g id="edge119" class="edge">
<title>at_onboarding_cli&#45;&gt;at_cli_commons</title>
<path fill="none" stroke="#c99192" d="M697.42,-2702.51C696.43,-2642.78 708.31,-2446.57 717.02,-2374.16"/>
<polygon fill="#c99192" stroke="#c99192" points="720.52,-2374.39 718.33,-2364.02 713.57,-2373.49 720.52,-2374.39"/>
</g>
<!-- at_onboarding_cli&#45;&gt;at_client -->
<g id="edge114" class="edge">
<title>at_onboarding_cli&#45;&gt;at_client</title>
<path fill="none" stroke="#61d4fc" d="M709.28,-2702.97C742.93,-2645.78 858.17,-2456.89 985.41,-2328 1130.37,-2181.17 1339.11,-2046.27 1423.22,-1994.44"/>
<polygon fill="#61d4fc" stroke="#61d4fc" points="1425.21,-1997.32 1431.9,-1989.11 1421.55,-1991.35 1425.21,-1997.32"/>
</g>
<!-- at_onboarding_cli&#45;&gt;at_commons -->
<g id="edge115" class="edge">
<title>at_onboarding_cli&#45;&gt;at_commons</title>
<path fill="none" stroke="#7eceb0" d="M690.51,-2702.63C629.74,-2583.05 275.41,-1867.74 165.41,-1238 135.01,-1063.92 151.62,-573.05 279.41,-451 520.09,-221.15 1619.11,-121.37 1895.29,-99.67"/>
<polygon fill="#7eceb0" stroke="#7eceb0" points="1895.84,-103.14 1905.54,-98.87 1895.29,-96.16 1895.84,-103.14"/>
</g>
<!-- at_onboarding_cli&#45;&gt;at_lookup -->
<g id="edge116" class="edge">
<title>at_onboarding_cli&#45;&gt;at_lookup</title>
<path fill="none" stroke="#94d42d" d="M708.43,-2702.87C738.72,-2646.14 841.3,-2460.41 954.41,-2328 1116.09,-2138.74 1170.94,-2101.9 1370.41,-1953 1602.53,-1779.74 1719.31,-1815.5 1926.41,-1613 2045.23,-1496.82 2135.61,-1314.72 2166.7,-1247.28"/>
<polygon fill="#94d42d" stroke="#94d42d" points="2169.88,-1248.73 2170.85,-1238.18 2163.51,-1245.82 2169.88,-1248.73"/>
</g>
<!-- at_onboarding_cli&#45;&gt;at_server_status -->
<g id="edge117" class="edge">
<title>at_onboarding_cli&#45;&gt;at_server_status</title>
<path fill="none" stroke="#320113" d="M716.39,-2702.51C775.07,-2642.04 969.49,-2441.71 1037.6,-2371.54"/>
<polygon fill="#320113" stroke="#320113" points="1040.44,-2373.64 1044.89,-2364.02 1035.42,-2368.76 1040.44,-2373.64"/>
</g>
<!-- at_onboarding_cli&#45;&gt;at_utils -->
<g id="edge118" class="edge">
<title>at_onboarding_cli&#45;&gt;at_utils</title>
<path fill="none" stroke="#75e849" d="M694.41,-2702.84C679.08,-2648.21 634.7,-2473.39 649.41,-2328 649.55,-2326.68 955.71,-828.13 956.41,-827 1061.02,-657.97 1276.03,-537.09 1368.53,-490.81"/>
<polygon fill="#75e849" stroke="#75e849" points="1370.21,-493.88 1377.61,-486.3 1367.1,-487.61 1370.21,-493.88"/>
</g>
<!-- at_onboarding_flutter -->
<g id="node30" class="node">
<title>at_onboarding_flutter</title>
<polygon fill="none" stroke="#a801a6" points="1455.41,-3115 1285.41,-3115 1285.41,-3079 1455.41,-3079 1455.41,-3115"/>
<text text-anchor="middle" x="1370.41" y="-3093.3" font-family="Times,serif" font-size="14.00">at_onboarding_flutter</text>
</g>
<!-- at_onboarding_flutter&#45;&gt;at_backupkey_flutter -->
<g id="edge120" class="edge">
<title>at_onboarding_flutter&#45;&gt;at_backupkey_flutter</title>
<path fill="none" stroke="#590b92" d="M1370.32,-3078.96C1370.01,-3019.7 1368.95,-2822.25 1368.56,-2749.35"/>
<polygon fill="#590b92" stroke="#590b92" points="1372.06,-2749.12 1368.51,-2739.14 1365.06,-2749.16 1372.06,-2749.12"/>
</g>
<!-- at_onboarding_flutter&#45;&gt;at_client -->
<g id="edge121" class="edge">
<title>at_onboarding_flutter&#45;&gt;at_client</title>
<path fill="none" stroke="#61d4fc" d="M1376.04,-3078.79C1392.47,-3027.69 1440.37,-2872.1 1459.41,-2739 1500.46,-2452.18 1472.45,-2098.82 1463.13,-1999.24"/>
<polygon fill="#61d4fc" stroke="#61d4fc" points="1466.59,-1998.75 1462.16,-1989.13 1459.63,-1999.42 1466.59,-1998.75"/>
</g>
<!-- at_onboarding_flutter&#45;&gt;at_client_mobile -->
<g id="edge122" class="edge">
<title>at_onboarding_flutter&#45;&gt;at_client_mobile</title>
<path fill="none" stroke="#d9577c" d="M1389.27,-3078.91C1444.28,-3028.77 1608.48,-2876.84 1732.41,-2739 1851.27,-2606.8 1979.22,-2435.82 2025.98,-2372.26"/>
<polygon fill="#d9577c" stroke="#d9577c" points="2028.93,-2374.15 2032.03,-2364.01 2023.29,-2370 2028.93,-2374.15"/>
</g>
<!-- at_onboarding_flutter&#45;&gt;at_commons -->
<g id="edge123" class="edge">
<title>at_onboarding_flutter&#45;&gt;at_commons</title>
<path fill="none" stroke="#7eceb0" d="M1285.17,-3085.25C1120.94,-3059.44 763.58,-2977.29 612.41,-2739 504.27,-2568.53 651.9,-1975.54 815.41,-1202 891.46,-842.26 882.18,-689.03 1162.41,-451 1394.25,-254.08 1752.52,-146.97 1895.94,-110"/>
<polygon fill="#7eceb0" stroke="#7eceb0" points="1897.06,-113.32 1905.89,-107.46 1895.33,-106.54 1897.06,-113.32"/>
</g>
<!-- at_onboarding_flutter&#45;&gt;at_server_status -->
<g id="edge124" class="edge">
<title>at_onboarding_flutter&#45;&gt;at_server_status</title>
<path fill="none" stroke="#320113" d="M1311.63,-3078.92C1192.48,-3040.73 924.69,-2935.94 817.41,-2739 738.64,-2594.37 943.44,-2429.42 1027.41,-2369.9"/>
<polygon fill="#320113" stroke="#320113" points="1029.44,-2372.76 1035.62,-2364.15 1025.42,-2367.03 1029.44,-2372.76"/>
</g>
<!-- at_sync_ui_flutter -->
<g id="node41" class="node">
<title>at_sync_ui_flutter</title>
<polygon fill="none" stroke="#27d02d" points="1921.41,-2739 1779.41,-2739 1779.41,-2703 1921.41,-2703 1921.41,-2739"/>
<text text-anchor="middle" x="1850.41" y="-2717.3" font-family="Times,serif" font-size="14.00">at_sync_ui_flutter</text>
</g>
<!-- at_onboarding_flutter&#45;&gt;at_sync_ui_flutter -->
<g id="edge125" class="edge">
<title>at_onboarding_flutter&#45;&gt;at_sync_ui_flutter</title>
<path fill="none" stroke="#27d02d" d="M1392.29,-3078.96C1469.75,-3018.6 1731.18,-2814.9 1820.34,-2745.44"/>
<polygon fill="#27d02d" stroke="#27d02d" points="1822.68,-2748.05 1828.41,-2739.14 1818.37,-2742.53 1822.68,-2748.05"/>
</g>
<!-- at_onboarding_flutter&#45;&gt;at_utils -->
<g id="edge126" class="edge">
<title>at_onboarding_flutter&#45;&gt;at_utils</title>
<path fill="none" stroke="#75e849" d="M1285.3,-3084.88C1122.25,-3058.49 768.82,-2975.46 619.41,-2739 610.87,-2725.47 618.9,-2718.99 619.41,-2703 624.75,-2536.08 622.29,-2493.67 643.41,-2328 669.2,-2125.78 905.6,-892.14 946.41,-827 1053.79,-655.62 1274.69,-535.43 1368.61,-490.04"/>
<polygon fill="#75e849" stroke="#75e849" points="1370.32,-493.1 1377.83,-485.63 1367.3,-486.79 1370.32,-493.1"/>
</g>
<!-- at_persistence_root_server -->
<g id="node31" class="node">
<title>at_persistence_root_server</title>
<polygon fill="none" stroke="#831d2e" points="561.91,-1238 352.91,-1238 352.91,-1202 561.91,-1202 561.91,-1238"/>
<text text-anchor="middle" x="457.41" y="-1216.3" font-family="Times,serif" font-size="14.00">at_persistence_root_server</text>
</g>
<!-- at_persistence_root_server&#45;&gt;at_commons -->
<g id="edge127" class="edge">
<title>at_persistence_root_server&#45;&gt;at_commons</title>
<path fill="none" stroke="#7eceb0" d="M452.68,-1201.98C428.37,-1110.41 326.57,-672.3 538.41,-451 732.35,-248.41 1647.21,-130.55 1895.89,-101.89"/>
<polygon fill="#7eceb0" stroke="#7eceb0" points="1896.31,-105.36 1905.85,-100.75 1895.51,-98.41 1896.31,-105.36"/>
</g>
<!-- at_persistence_root_server&#45;&gt;at_persistence_spec -->
<g id="edge129" class="edge">
<title>at_persistence_root_server&#45;&gt;at_persistence_spec</title>
<path fill="none" stroke="#3bfcef" d="M496.33,-1201.88C634.94,-1140.92 1104.33,-934.45 1257,-867.3"/>
<polygon fill="#3bfcef" stroke="#3bfcef" points="1258.84,-870.31 1266.59,-863.08 1256.03,-863.9 1258.84,-870.31"/>
</g>
<!-- at_persistence_root_server&#45;&gt;at_utils -->
<g id="edge128" class="edge">
<title>at_persistence_root_server&#45;&gt;at_utils</title>
<path fill="none" stroke="#75e849" d="M463.51,-1201.79C485.32,-1142.37 564.92,-943.17 690.41,-827 903.75,-629.5 1246.77,-517.33 1368.13,-482.15"/>
<polygon fill="#75e849" stroke="#75e849" points="1369.18,-485.49 1377.83,-479.37 1367.25,-478.76 1369.18,-485.49"/>
</g>
<!-- redis -->
<g id="node47" class="node">
<title>redis</title>
<polygon fill="none" stroke="#5cceca" points="524.41,-863 470.41,-863 470.41,-827 524.41,-827 524.41,-863"/>
<text text-anchor="middle" x="497.41" y="-841.3" font-family="Times,serif" font-size="14.00">redis</text>
</g>
<!-- at_persistence_root_server&#45;&gt;redis -->
<g id="edge130" class="edge">
<title>at_persistence_root_server&#45;&gt;redis</title>
<path fill="none" stroke="#5cceca" d="M459.29,-1201.51C465.7,-1141.78 486.74,-945.57 494.5,-873.16"/>
<polygon fill="#5cceca" stroke="#5cceca" points="498,-873.34 495.59,-863.02 491.04,-872.59 498,-873.34"/>
</g>
<!-- at_persistence_secondary_server&#45;&gt;at_commons -->
<g id="edge131" class="edge">
<title>at_persistence_secondary_server&#45;&gt;at_commons</title>
<path fill="none" stroke="#7eceb0" d="M1473.6,-1201.91C1508.48,-1119.03 1663.89,-750.61 1796.41,-451 1851.07,-327.43 1918.64,-180.87 1946.02,-121.72"/>
<polygon fill="#7eceb0" stroke="#7eceb0" points="1949.33,-122.9 1950.36,-112.35 1942.98,-119.95 1949.33,-122.9"/>
</g>
<!-- at_persistence_secondary_server&#45;&gt;at_persistence_spec -->
<g id="edge133" class="edge">
<title>at_persistence_secondary_server&#45;&gt;at_persistence_spec</title>
<path fill="none" stroke="#3bfcef" d="M1458.86,-1201.51C1432.98,-1141.53 1347.7,-943.96 1316.76,-872.27"/>
<polygon fill="#3bfcef" stroke="#3bfcef" points="1319.94,-870.82 1312.76,-863.02 1313.51,-873.59 1319.94,-870.82"/>
</g>
<!-- at_persistence_secondary_server&#45;&gt;at_utils -->
<g id="edge132" class="edge">
<title>at_persistence_secondary_server&#45;&gt;at_utils</title>
<path fill="none" stroke="#75e849" d="M1467.18,-1201.77C1469.44,-1146.93 1475.26,-971.55 1464.41,-827 1455.13,-703.23 1429.06,-557.16 1417.76,-497.48"/>
<polygon fill="#75e849" stroke="#75e849" points="1421.14,-496.53 1415.82,-487.36 1414.26,-497.84 1421.14,-496.53"/>
</g>
<!-- at_repl -->
<g id="node35" class="node">
<title>at_repl</title>
<polygon fill="none" stroke="#1494d0" points="583.41,-3115 517.41,-3115 517.41,-3079 583.41,-3079 583.41,-3115"/>
<text text-anchor="middle" x="550.41" y="-3093.3" font-family="Times,serif" font-size="14.00">at_repl</text>
</g>
<!-- at_repl&#45;&gt;at_client -->
<g id="edge134" class="edge">
<title>at_repl&#45;&gt;at_client</title>
<path fill="none" stroke="#61d4fc" d="M583.71,-3082.44C678.29,-3042.53 952.49,-2917 1119.41,-2739 1338.91,-2504.95 1433.09,-2106.1 1455.15,-1999.09"/>
<polygon fill="#61d4fc" stroke="#61d4fc" points="1458.61,-1999.61 1457.17,-1989.11 1451.75,-1998.22 1458.61,-1999.61"/>
</g>
<!-- at_repl&#45;&gt;at_commons -->
<g id="edge135" class="edge">
<title>at_repl&#45;&gt;at_commons</title>
<path fill="none" stroke="#7eceb0" d="M544.93,-3078.93C478.9,-2871.67 -154.74,-840.43 249.41,-451 493.57,-215.74 1616.44,-119.77 1895.5,-99.33"/>
<polygon fill="#7eceb0" stroke="#7eceb0" points="1896.12,-102.79 1905.84,-98.57 1895.61,-95.81 1896.12,-102.79"/>
</g>
<!-- at_repl&#45;&gt;at_onboarding_cli -->
<g id="edge136" class="edge">
<title>at_repl&#45;&gt;at_onboarding_cli</title>
<path fill="none" stroke="#514d2d" d="M557.2,-3078.96C580.91,-3019.45 660.12,-2820.62 688.87,-2748.46"/>
<polygon fill="#514d2d" stroke="#514d2d" points="692.14,-2749.73 692.59,-2739.14 685.63,-2747.14 692.14,-2749.73"/>
</g>
<!-- at_repl&#45;&gt;at_utils -->
<g id="edge137" class="edge">
<title>at_repl&#45;&gt;at_utils</title>
<path fill="none" stroke="#75e849" d="M551.96,-3078.93C559.54,-2996.12 594.04,-2628 635.41,-2328 658.64,-2159.6 838.24,-969.18 931.41,-827 1044.92,-653.81 1272.85,-534.06 1368.54,-489.39"/>
<polygon fill="#75e849" stroke="#75e849" points="1370.04,-492.55 1377.65,-485.18 1367.1,-486.2 1370.04,-492.55"/>
</g>
<!-- at_root_server -->
<g id="node36" class="node">
<title>at_root_server</title>
<polygon fill="none" stroke="#9dd431" points="494.91,-1613 375.91,-1613 375.91,-1577 494.91,-1577 494.91,-1613"/>
<text text-anchor="middle" x="435.41" y="-1591.3" font-family="Times,serif" font-size="14.00">at_root_server</text>
</g>
<!-- at_root_server&#45;&gt;at_commons -->
<g id="edge138" class="edge">
<title>at_root_server&#45;&gt;at_commons</title>
<path fill="none" stroke="#7eceb0" d="M429.33,-1576.89C411.64,-1526.08 360.36,-1371.3 343.41,-1238 298.37,-883.65 250.46,-700.15 506.41,-451 711.87,-251.01 1644.19,-131.06 1895.72,-101.95"/>
<polygon fill="#7eceb0" stroke="#7eceb0" points="1896.25,-105.41 1905.79,-100.79 1895.45,-98.46 1896.25,-105.41"/>
</g>
<!-- at_root_server&#45;&gt;at_persistence_root_server -->
<g id="edge141" class="edge">
<title>at_root_server&#45;&gt;at_persistence_root_server</title>
<path fill="none" stroke="#831d2e" d="M436.45,-1576.51C439.97,-1516.78 451.54,-1320.57 455.81,-1248.16"/>
<polygon fill="#831d2e" stroke="#831d2e" points="459.32,-1248.21 456.41,-1238.02 452.33,-1247.8 459.32,-1248.21"/>
</g>
<!-- at_root_server&#45;&gt;at_server_spec -->
<g id="edge140" class="edge">
<title>at_root_server&#45;&gt;at_server_spec</title>
<path fill="none" stroke="#e6f023" d="M426.04,-1576.51C393.81,-1516.41 287.5,-1318.15 249.27,-1246.84"/>
<polygon fill="#e6f023" stroke="#e6f023" points="252.35,-1245.18 244.54,-1238.02 246.18,-1248.49 252.35,-1245.18"/>
</g>
<!-- at_root_server&#45;&gt;at_utils -->
<g id="edge139" class="edge">
<title>at_root_server&#45;&gt;at_utils</title>
<path fill="none" stroke="#75e849" d="M441.86,-1577C484.56,-1464.42 724.96,-830.88 728.41,-827 913.18,-619.43 1247.67,-513.84 1367.88,-481.25"/>
<polygon fill="#75e849" stroke="#75e849" points="1369.08,-484.55 1377.84,-478.59 1367.28,-477.79 1369.08,-484.55"/>
</g>
<!-- at_secondary -->
<g id="node37" class="node">
<title>at_secondary</title>
<polygon fill="none" stroke="#1b8948" points="1682.41,-1613 1572.41,-1613 1572.41,-1577 1682.41,-1577 1682.41,-1613"/>
<text text-anchor="middle" x="1627.41" y="-1591.3" font-family="Times,serif" font-size="14.00">at_secondary</text>
</g>
<!-- at_secondary&#45;&gt;at_chops -->
<g id="edge144" class="edge">
<title>at_secondary&#45;&gt;at_chops</title>
<path fill="none" stroke="#8fb4d4" d="M1637.62,-1576.89C1667.78,-1526.07 1758.48,-1371.27 1824.41,-1238 1891.2,-1103.01 1960.04,-936.08 1985.82,-872.38"/>
<polygon fill="#8fb4d4" stroke="#8fb4d4" points="1989.09,-873.65 1989.58,-863.07 1982.6,-871.03 1989.09,-873.65"/>
</g>
<!-- at_secondary&#45;&gt;at_commons -->
<g id="edge142" class="edge">
<title>at_secondary&#45;&gt;at_commons</title>
<path fill="none" stroke="#7eceb0" d="M1631.19,-1576.91C1664.68,-1425.22 1910.77,-310.77 1952.43,-122.1"/>
<polygon fill="#7eceb0" stroke="#7eceb0" points="1955.88,-122.69 1954.62,-112.17 1949.05,-121.18 1955.88,-122.69"/>
</g>
<!-- at_secondary&#45;&gt;at_lookup -->
<g id="edge145" class="edge">
<title>at_secondary&#45;&gt;at_lookup</title>
<path fill="none" stroke="#94d42d" d="M1652.89,-1576.76C1742.55,-1516.06 2043.64,-1312.23 2144.88,-1243.7"/>
<polygon fill="#94d42d" stroke="#94d42d" points="2146.89,-1246.56 2153.21,-1238.06 2142.97,-1240.77 2146.89,-1246.56"/>
</g>
<!-- at_secondary&#45;&gt;at_persistence_secondary_server -->
<g id="edge148" class="edge">
<title>at_secondary&#45;&gt;at_persistence_secondary_server</title>
<path fill="none" stroke="#9760d3" d="M1619.86,-1576.51C1593.98,-1516.53 1508.7,-1318.96 1477.76,-1247.27"/>
<polygon fill="#9760d3" stroke="#9760d3" points="1480.94,-1245.82 1473.76,-1238.02 1474.51,-1248.59 1480.94,-1245.82"/>
</g>
<!-- at_secondary&#45;&gt;at_persistence_spec -->
<g id="edge147" class="edge">
<title>at_secondary&#45;&gt;at_persistence_spec</title>
<path fill="none" stroke="#3bfcef" d="M1629.92,-1576.75C1637.34,-1520.4 1655.54,-1337.55 1601.41,-1202 1542.36,-1054.12 1397.45,-921.93 1334.92,-869.7"/>
<polygon fill="#3bfcef" stroke="#3bfcef" points="1336.95,-866.83 1327.01,-863.15 1332.49,-872.22 1336.95,-866.83"/>
</g>
<!-- at_secondary&#45;&gt;at_server_spec -->
<g id="edge146" class="edge">
<title>at_secondary&#45;&gt;at_server_spec</title>
<path fill="none" stroke="#e6f023" d="M1571.99,-1579.15C1353.29,-1520.55 550.32,-1305.38 306.25,-1239.98"/>
<polygon fill="#e6f023" stroke="#e6f023" points="307,-1236.56 296.43,-1237.35 305.18,-1243.32 307,-1236.56"/>
</g>
<!-- at_secondary&#45;&gt;at_utils -->
<g id="edge143" class="edge">
<title>at_secondary&#45;&gt;at_utils</title>
<path fill="none" stroke="#75e849" d="M1628.76,-1576.68C1632.69,-1521.55 1642.61,-1345.42 1621.41,-1202 1579.57,-918.8 1458.91,-590.79 1422.76,-496.55"/>
<polygon fill="#75e849" stroke="#75e849" points="1426.02,-495.26 1419.16,-487.19 1419.49,-497.78 1426.02,-495.26"/>
</g>
<!-- at_secondary_proxy -->
<g id="node38" class="node">
<title>at_secondary_proxy</title>
<polygon fill="none" stroke="#35c7f7" points="2706.41,-1613 2548.41,-1613 2548.41,-1577 2706.41,-1577 2706.41,-1613"/>
<text text-anchor="middle" x="2627.41" y="-1591.3" font-family="Times,serif" font-size="14.00">at_secondary_proxy</text>
</g>
<!-- at_secondary_proxy&#45;&gt;at_commons -->
<g id="edge149" class="edge">
<title>at_secondary_proxy&#45;&gt;at_commons</title>
<path fill="none" stroke="#7eceb0" d="M2629.83,-1576.71C2636.98,-1520.98 2655.16,-1341.55 2614.41,-1202 2474.24,-721.86 2077.47,-234.81 1980.16,-120.21"/>
<polygon fill="#7eceb0" stroke="#7eceb0" points="1982.58,-117.65 1973.43,-112.31 1977.25,-122.19 1982.58,-117.65"/>
</g>
<!-- at_secondary_proxy&#45;&gt;at_lookup -->
<g id="edge151" class="edge">
<title>at_secondary_proxy&#45;&gt;at_lookup</title>
<path fill="none" stroke="#94d42d" d="M2606.66,-1576.76C2533.89,-1516.3 2290.21,-1313.87 2206.74,-1244.53"/>
<polygon fill="#94d42d" stroke="#94d42d" points="2208.88,-1241.76 2198.95,-1238.06 2204.41,-1247.14 2208.88,-1241.76"/>
</g>
<!-- at_secondary_proxy&#45;&gt;at_utils -->
<g id="edge150" class="edge">
<title>at_secondary_proxy&#45;&gt;at_utils</title>
<path fill="none" stroke="#75e849" d="M2626.44,-1576.97C2620.18,-1469.42 2584.09,-886.98 2534.41,-827 2389.18,-651.64 1647.05,-511.13 1456.86,-477.62"/>
<polygon fill="#75e849" stroke="#75e849" points="1457.39,-474.16 1446.93,-475.88 1456.18,-481.05 1457.39,-474.16"/>
</g>
<!-- at_server_spec&#45;&gt;at_commons -->
<g id="edge152" class="edge">
<title>at_server_spec&#45;&gt;at_commons</title>
<path fill="none" stroke="#7eceb0" d="M230.7,-1201.93C206.7,-1111.03 107.02,-679.33 310.41,-451 527.87,-206.88 1620.58,-117.73 1895.54,-98.98"/>
<polygon fill="#7eceb0" stroke="#7eceb0" points="1896,-102.45 1905.74,-98.29 1895.53,-95.47 1896,-102.45"/>
</g>
<!-- at_server_status&#45;&gt;at_commons -->
<g id="edge153" class="edge">
<title>at_server_status&#45;&gt;at_commons</title>
<path fill="none" stroke="#7eceb0" d="M1054.49,-2327.98C1004.23,-2201.71 703.97,-1399.54 946.41,-827 1126.03,-402.83 1704.4,-178.58 1896.06,-114.53"/>
<polygon fill="#7eceb0" stroke="#7eceb0" points="1897.31,-117.8 1905.7,-111.34 1895.11,-111.16 1897.31,-117.8"/>
</g>
<!-- at_server_status&#45;&gt;at_lookup -->
<g id="edge155" class="edge">
<title>at_server_status&#45;&gt;at_lookup</title>
<path fill="none" stroke="#94d42d" d="M1073.51,-2327.98C1115.32,-2270.03 1259.55,-2077.04 1412.41,-1953 1647.43,-1762.31 1799.46,-1837.51 2002.41,-1613 2104.75,-1499.8 2155.91,-1317.22 2172.35,-1248.41"/>
<polygon fill="#94d42d" stroke="#94d42d" points="2175.82,-1248.91 2174.69,-1238.37 2169.01,-1247.32 2175.82,-1248.91"/>
</g>
<!-- at_server_status&#45;&gt;at_utils -->
<g id="edge154" class="edge">
<title>at_server_status&#45;&gt;at_utils</title>
<path fill="none" stroke="#75e849" d="M1057.79,-2327.95C1040.87,-2246.75 970.41,-1891.06 970.41,-1596 970.41,-1596 970.41,-1596 970.41,-1219 970.41,-1044.45 916.53,-983.21 994.41,-827 1078.11,-659.14 1279.68,-538.6 1368.79,-491.66"/>
<polygon fill="#75e849" stroke="#75e849" points="1370.57,-494.68 1377.82,-486.96 1367.33,-488.47 1370.57,-494.68"/>
</g>
<!-- at_sync_ui_flutter&#45;&gt;at_client -->
<g id="edge156" class="edge">
<title>at_sync_ui_flutter&#45;&gt;at_client</title>
<path fill="none" stroke="#61d4fc" d="M1838.96,-2702.65C1805.63,-2651.79 1706.56,-2498.21 1636.41,-2364 1566.38,-2230.01 1496.93,-2062.5 1471.03,-1998.51"/>
<polygon fill="#61d4fc" stroke="#61d4fc" points="1474.24,-1997.12 1467.26,-1989.15 1467.75,-1999.74 1474.24,-1997.12"/>
</g>
<!-- at_sync_ui_flutter&#45;&gt;at_client_mobile -->
<g id="edge157" class="edge">
<title>at_sync_ui_flutter&#45;&gt;at_client_mobile</title>
<path fill="none" stroke="#d9577c" d="M1859.51,-2702.51C1890.71,-2642.53 1993.47,-2444.96 2030.75,-2373.27"/>
<polygon fill="#d9577c" stroke="#d9577c" points="2034.05,-2374.51 2035.56,-2364.02 2027.84,-2371.28 2034.05,-2374.51"/>
</g>
<!-- at_sync_ui_flutter&#45;&gt;at_common_flutter -->
<g id="edge158" class="edge">
<title>at_sync_ui_flutter&#45;&gt;at_common_flutter</title>
<path fill="none" stroke="#bf681f" d="M1888.88,-2702.88C2025.84,-2641.92 2489.7,-2435.45 2640.57,-2368.3"/>
<polygon fill="#bf681f" stroke="#bf681f" points="2642.33,-2371.34 2650.05,-2364.08 2639.49,-2364.95 2642.33,-2371.34"/>
</g>
<!-- at_theme_flutter -->
<g id="node42" class="node">
<title>at_theme_flutter</title>
<polygon fill="none" stroke="#2ec850" points="2337.41,-2739 2203.41,-2739 2203.41,-2703 2337.41,-2703 2337.41,-2739"/>
<text text-anchor="middle" x="2270.41" y="-2717.3" font-family="Times,serif" font-size="14.00">at_theme_flutter</text>
</g>
<!-- at_theme_flutter&#45;&gt;at_client_mobile -->
<g id="edge159" class="edge">
<title>at_theme_flutter&#45;&gt;at_client_mobile</title>
<path fill="none" stroke="#d9577c" d="M2259.82,-2702.51C2223.4,-2642.41 2103.28,-2444.15 2060.07,-2372.84"/>
<polygon fill="#d9577c" stroke="#d9577c" points="2062.9,-2370.76 2054.73,-2364.02 2056.92,-2374.39 2062.9,-2370.76"/>
</g>
<!-- at_theme_flutter&#45;&gt;at_common_flutter -->
<g id="edge160" class="edge">
<title>at_theme_flutter&#45;&gt;at_common_flutter</title>
<path fill="none" stroke="#bf681f" d="M2289.74,-2702.76C2357.42,-2642.36 2583.88,-2440.28 2661.81,-2370.74"/>
<polygon fill="#bf681f" stroke="#bf681f" points="2664.17,-2373.33 2669.3,-2364.06 2659.5,-2368.11 2664.17,-2373.33"/>
</g>
<!-- at_theme_flutter&#45;&gt;at_commons -->
<g id="edge161" class="edge">
<title>at_theme_flutter&#45;&gt;at_commons</title>
<path fill="none" stroke="#7eceb0" d="M2281.01,-2702.76C2342.51,-2602.03 2656.85,-2077.9 2828.41,-1613 2890.51,-1444.72 2924.41,-1400.37 2924.41,-1221 2924.41,-1221 2924.41,-1221 2924.41,-844 2924.41,-668.56 2993.5,-590.73 2887.41,-451 2670.18,-164.86 2192.66,-108.68 2021.23,-97.67"/>
<polygon fill="#7eceb0" stroke="#7eceb0" points="2021.31,-94.17 2011.12,-97.05 2020.88,-101.16 2021.31,-94.17"/>
</g>
<!-- at_theme_flutter&#45;&gt;at_utils -->
<g id="edge162" class="edge">
<title>at_theme_flutter&#45;&gt;at_utils</title>
<path fill="none" stroke="#75e849" d="M2244.06,-2702.92C2171.46,-2655.09 1964.43,-2513.54 1821.41,-2364 1750.51,-2289.86 1319.88,-1709.25 1284.41,-1613 1163.17,-1283.99 1129.31,-1166.65 1216.41,-827 1251.26,-691.13 1349.81,-551.45 1392.4,-495.46"/>
<polygon fill="#75e849" stroke="#75e849" points="1395.42,-497.27 1398.73,-487.21 1389.87,-493.01 1395.42,-497.27"/>
</g>
<!-- at_utils&#45;&gt;at_commons -->
<g id="edge163" class="edge">
<title>at_utils&#45;&gt;at_commons</title>
<path fill="none" stroke="#7eceb0" d="M1437.65,-450.76C1526.42,-390.12 1824.27,-186.64 1924.88,-117.91"/>
<polygon fill="#7eceb0" stroke="#7eceb0" points="1927.16,-120.59 1933.44,-112.06 1923.21,-114.81 1927.16,-120.59"/>
</g>
<!-- at_ve_doctor -->
<g id="node44" class="node">
<title>at_ve_doctor</title>
<polygon fill="none" stroke="#193e4e" points="933.91,-2739 826.91,-2739 826.91,-2703 933.91,-2703 933.91,-2739"/>
<text text-anchor="middle" x="880.41" y="-2717.3" font-family="Times,serif" font-size="14.00">at_ve_doctor</text>
</g>
<!-- at_ve_doctor&#45;&gt;at_server_status -->
<g id="edge164" class="edge">
<title>at_ve_doctor&#45;&gt;at_server_status</title>
<path fill="none" stroke="#320113" d="M888.9,-2702.51C918.01,-2642.53 1013.88,-2444.96 1048.66,-2373.27"/>
<polygon fill="#320113" stroke="#320113" points="1051.94,-2374.55 1053.15,-2364.02 1045.64,-2371.49 1051.94,-2374.55"/>
</g>
<!-- base2e15 -->
<g id="node45" class="node">
<title>base2e15</title>
<polygon fill="none" stroke="#2bcf07" points="3500.91,-3490 3415.91,-3490 3415.91,-3454 3500.91,-3454 3500.91,-3490"/>
<text text-anchor="middle" x="3458.41" y="-3468.3" font-family="Times,serif" font-size="14.00">base2e15</text>
</g>
<!-- dart_utf7 -->
<g id="node46" class="node">
<title>dart_utf7</title>
<polygon fill="none" stroke="#f889f9" points="3601.91,-3490 3518.91,-3490 3518.91,-3454 3601.91,-3454 3601.91,-3490"/>
<text text-anchor="middle" x="3560.41" y="-3468.3" font-family="Times,serif" font-size="14.00">dart_utf7</text>
</g>
<!-- \n -->
<g id="node48" class="node">
<title>\n</title>
<ellipse fill="none" stroke="black" cx="3647.41" cy="-3472" rx="27" ry="18"/>
</g>
</g>
</svg>
