<?xml version="1.0" encoding="UTF-8" standalone="no"?>
<!DOCTYPE svg PUBLIC "-//W3C//DTD SVG 1.1//EN"
 "http://www.w3.org/Graphics/SVG/1.1/DTD/svg11.dtd">
<!-- Generated by graphviz version 2.43.0 (0)
 -->
<!-- Title: packages Pages: 1 -->
<svg width="720pt" height="665pt"
 viewBox="0.00 0.00 720.00 664.98" xmlns="http://www.w3.org/2000/svg" xmlns:xlink="http://www.w3.org/1999/xlink">
<g id="graph0" class="graph" transform="scale(0.15417955065226516 0.15417955065226516) rotate(0) translate(4 4309)">
<title>packages</title>
<polygon fill="white" stroke="transparent" points="-4,4 -4,-4309 4665.88,-4309 4665.88,4 -4,4"/>
<g id="clust1" class="cluster">
<title>cluster modules/dart/at_libraries/packages</title>
<polygon fill="none" stroke="#5d6fbf" points="1842,-56.55 1842,-3718.28 2263,-3718.28 2263,-56.55 1842,-56.55"/>
<text text-anchor="middle" x="2052.5" y="-3703.08" font-family="Times,serif" font-size="14.00">modules/dart/at_libraries/packages</text>
</g>
<g id="clust2" class="cluster">
<title>cluster modules/dart/at_widgets/packages</title>
<polygon fill="none" stroke="#b80dd6" points="3113,-2092.41 3113,-4248.45 4297,-4248.45 4297,-2092.41 3113,-2092.41"/>
<text text-anchor="middle" x="3705" y="-4233.25" font-family="Times,serif" font-size="14.00">modules/dart/at_widgets/packages</text>
</g>
<g id="clust3" class="cluster">
<title>cluster modules/dart/at_tools/packages</title>
<polygon fill="none" stroke="#a24674" points="8,-2679.14 8,-3718.28 687,-3718.28 687,-2679.14 8,-2679.14"/>
<text text-anchor="middle" x="347.5" y="-3703.08" font-family="Times,serif" font-size="14.00">modules/dart/at_tools/packages</text>
</g>
<g id="clust4" class="cluster">
<title>cluster modules/dart/at_client_sdk/packages</title>
<polygon fill="none" stroke="#0ace14" points="2827,-1583.45 2827,-2622.59 3105,-2622.59 3105,-1583.45 2827,-1583.45"/>
<text text-anchor="middle" x="2966" y="-2607.39" font-family="Times,serif" font-size="14.00">modules/dart/at_client_sdk/packages</text>
</g>
<g id="clust5" class="cluster">
<title>cluster modules/dart/at_services/packages</title>
<polygon fill="none" stroke="#d8a73c" points="1282,-2092.41 1282,-3718.28 1767,-3718.28 1767,-2092.41 1282,-2092.41"/>
<text text-anchor="middle" x="1524.5" y="-3703.08" font-family="Times,serif" font-size="14.00">modules/dart/at_services/packages</text>
</g>
<g id="clust6" class="cluster">
<title>cluster modules/dart/at_server/packages</title>
<polygon fill="none" stroke="#8b5078" points="476,-1074.48 476,-2622.59 1132,-2622.59 1132,-1074.48 476,-1074.48"/>
<text text-anchor="middle" x="804" y="-2607.39" font-family="Times,serif" font-size="14.00">modules/dart/at_server/packages</text>
</g>
<!-- at_auth -->
<g id="node1" class="node">
<title>at_auth</title>
<polygon fill="none" stroke="#0f9477" points="2039,-2294.55 1969,-2294.55 1969,-2258.55 2039,-2258.55 2039,-2294.55"/>
<text text-anchor="middle" x="2004" y="-2272.85" font-family="Times,serif" font-size="14.00">at_auth</text>
</g>
<!-- at_chops -->
<g id="node4" class="node">
<title>at_chops</title>
<polygon fill="none" stroke="#8fb4d4" points="2107.5,-1276.55 2028.5,-1276.55 2028.5,-1240.55 2107.5,-1240.55 2107.5,-1276.55"/>
<text text-anchor="middle" x="2068" y="-1254.85" font-family="Times,serif" font-size="14.00">at_chops</text>
</g>
<!-- at_auth&#45;&gt;at_chops -->
<g id="edge3" class="edge">
<title>at_auth&#45;&gt;at_chops</title>
<path fill="none" stroke="#8fb4d4" d="M2005.08,-2258.34C2012.6,-2139.03 2056.93,-1435.32 2066.27,-1286.99"/>
<polygon fill="#8fb4d4" stroke="#8fb4d4" points="2069.77,-1287.12 2066.91,-1276.92 2062.78,-1286.68 2069.77,-1287.12"/>
</g>
<!-- at_commons -->
<g id="node10" class="node">
<title>at_commons</title>
<polygon fill="none" stroke="#7eceb0" points="2090.5,-258.55 1985.5,-258.55 1985.5,-222.55 2090.5,-222.55 2090.5,-258.55"/>
<text text-anchor="middle" x="2038" y="-236.85" font-family="Times,serif" font-size="14.00">at_commons</text>
</g>
<!-- at_auth&#45;&gt;at_commons -->
<g id="edge1" class="edge">
<title>at_auth&#45;&gt;at_commons</title>
<path fill="none" stroke="#7eceb0" d="M2002.34,-2258.38C1990.6,-2134.09 1921.75,-1359.36 1967,-731.55 1979.81,-553.82 2018.43,-342.62 2032.66,-268.7"/>
<polygon fill="#7eceb0" stroke="#7eceb0" points="2036.11,-269.3 2034.58,-258.81 2029.24,-267.96 2036.11,-269.3"/>
</g>
<!-- at_lookup -->
<g id="node27" class="node">
<title>at_lookup</title>
<polygon fill="none" stroke="#94d42d" points="2230.5,-1785.55 2145.5,-1785.55 2145.5,-1749.55 2230.5,-1749.55 2230.5,-1785.55"/>
<text text-anchor="middle" x="2188" y="-1763.85" font-family="Times,serif" font-size="14.00">at_lookup</text>
</g>
<!-- at_auth&#45;&gt;at_lookup -->
<g id="edge2" class="edge">
<title>at_auth&#45;&gt;at_lookup</title>
<path fill="none" stroke="#94d42d" d="M2010.23,-2258.39C2037.34,-2183.69 2145.19,-1886.51 2178.29,-1795.31"/>
<polygon fill="#94d42d" stroke="#94d42d" points="2181.65,-1796.3 2181.77,-1785.71 2175.07,-1793.91 2181.65,-1796.3"/>
</g>
<!-- at_utils -->
<g id="node43" class="node">
<title>at_utils</title>
<polygon fill="none" stroke="#75e849" points="2044.5,-767.55 1975.5,-767.55 1975.5,-731.55 2044.5,-731.55 2044.5,-767.55"/>
<text text-anchor="middle" x="2010" y="-745.85" font-family="Times,serif" font-size="14.00">at_utils</text>
</g>
<!-- at_auth&#45;&gt;at_utils -->
<g id="edge4" class="edge">
<title>at_auth&#45;&gt;at_utils</title>
<path fill="none" stroke="#75e849" d="M2003.08,-2258.2C1999.79,-2194.94 1988.59,-1970.68 1985,-1785.55 1980.24,-1539.82 1978.63,-1478.25 1985,-1232.55 1989.49,-1059.26 2003.05,-851.27 2008.09,-777.84"/>
<polygon fill="#75e849" stroke="#75e849" points="2011.6,-777.83 2008.79,-767.62 2004.61,-777.35 2011.6,-777.83"/>
</g>
<!-- at_backupkey_flutter -->
<g id="node2" class="node">
<title>at_backupkey_flutter</title>
<polygon fill="none" stroke="#590b92" points="3584.5,-2880.55 3419.5,-2880.55 3419.5,-2844.55 3584.5,-2844.55 3584.5,-2880.55"/>
<text text-anchor="middle" x="3502" y="-2858.85" font-family="Times,serif" font-size="14.00">at_backupkey_flutter</text>
</g>
<!-- at_client_mobile -->
<g id="node8" class="node">
<title>at_client_mobile</title>
<polygon fill="none" stroke="#d9577c" points="3057,-2294.55 2925,-2294.55 2925,-2258.55 3057,-2258.55 3057,-2294.55"/>
<text text-anchor="middle" x="2991" y="-2272.85" font-family="Times,serif" font-size="14.00">at_client_mobile</text>
</g>
<!-- at_backupkey_flutter&#45;&gt;at_client_mobile -->
<g id="edge6" class="edge">
<title>at_backupkey_flutter&#45;&gt;at_client_mobile</title>
<path fill="none" stroke="#d9577c" d="M3486.98,-2844.39C3414.27,-2761.28 3098.71,-2400.65 3012.72,-2302.37"/>
<polygon fill="#d9577c" stroke="#d9577c" points="3015.24,-2299.94 3006.02,-2294.71 3009.97,-2304.54 3015.24,-2299.94"/>
</g>
<!-- at_backupkey_flutter&#45;&gt;at_utils -->
<g id="edge5" class="edge">
<title>at_backupkey_flutter&#45;&gt;at_utils</title>
<path fill="none" stroke="#75e849" d="M3505.06,-2844.26C3528.93,-2703.25 3672.67,-1734.65 3213,-1232.55 2878.75,-867.45 2230.52,-773.89 2054.84,-754.8"/>
<polygon fill="#75e849" stroke="#75e849" points="2054.98,-751.3 2044.67,-753.73 2054.24,-758.26 2054.98,-751.3"/>
</g>
<!-- at_chat_flutter -->
<g id="node3" class="node">
<title>at_chat_flutter</title>
<polygon fill="none" stroke="#463830" points="3401,-2880.55 3281,-2880.55 3281,-2844.55 3401,-2844.55 3401,-2880.55"/>
<text text-anchor="middle" x="3341" y="-2858.85" font-family="Times,serif" font-size="14.00">at_chat_flutter</text>
</g>
<!-- at_client -->
<g id="node7" class="node">
<title>at_client</title>
<polygon fill="none" stroke="#61d4fc" points="2912.5,-1785.55 2835.5,-1785.55 2835.5,-1749.55 2912.5,-1749.55 2912.5,-1785.55"/>
<text text-anchor="middle" x="2874" y="-1763.85" font-family="Times,serif" font-size="14.00">at_client</text>
</g>
<!-- at_chat_flutter&#45;&gt;at_client -->
<g id="edge7" class="edge">
<title>at_chat_flutter&#45;&gt;at_client</title>
<path fill="none" stroke="#61d4fc" d="M3334.16,-2844.47C3305.19,-2772.21 3189.46,-2484.64 3089,-2250.55 3014.11,-2076.04 2919.56,-1868.18 2886.27,-1795.34"/>
<polygon fill="#61d4fc" stroke="#61d4fc" points="2889.33,-1793.62 2881.99,-1785.98 2882.97,-1796.53 2889.33,-1793.62"/>
</g>
<!-- at_chat_flutter&#45;&gt;at_client_mobile -->
<g id="edge8" class="edge">
<title>at_chat_flutter&#45;&gt;at_client_mobile</title>
<path fill="none" stroke="#d9577c" d="M3330.71,-2844.39C3281.11,-2761.62 3066.51,-2403.55 3006.59,-2303.57"/>
<polygon fill="#d9577c" stroke="#d9577c" points="3009.43,-2301.49 3001.29,-2294.71 3003.42,-2305.09 3009.43,-2301.49"/>
</g>
<!-- at_common_flutter -->
<g id="node9" class="node">
<title>at_common_flutter</title>
<polygon fill="none" stroke="#bf681f" points="3489.5,-2294.55 3340.5,-2294.55 3340.5,-2258.55 3489.5,-2258.55 3489.5,-2294.55"/>
<text text-anchor="middle" x="3415" y="-2272.85" font-family="Times,serif" font-size="14.00">at_common_flutter</text>
</g>
<!-- at_chat_flutter&#45;&gt;at_common_flutter -->
<g id="edge9" class="edge">
<title>at_chat_flutter&#45;&gt;at_common_flutter</title>
<path fill="none" stroke="#bf681f" d="M3343.17,-2844.39C3353.62,-2761.95 3398.67,-2406.43 3411.55,-2304.79"/>
<polygon fill="#bf681f" stroke="#bf681f" points="3415.04,-2305.08 3412.83,-2294.71 3408.1,-2304.2 3415.04,-2305.08"/>
</g>
<!-- at_chat_flutter&#45;&gt;at_commons -->
<g id="edge10" class="edge">
<title>at_chat_flutter&#45;&gt;at_commons</title>
<path fill="none" stroke="#7eceb0" d="M3355.11,-2844.45C3434.39,-2746.54 3821,-2244.71 3821,-1768.55 3821,-1768.55 3821,-1768.55 3821,-1257.55 3821,-1023.53 3942.76,-914.64 3797,-731.55 3575.27,-453.03 2388.65,-286.06 2100.89,-249.29"/>
<polygon fill="#7eceb0" stroke="#7eceb0" points="2101,-245.77 2090.64,-247.98 2100.12,-252.72 2101,-245.77"/>
</g>
<!-- at_contact -->
<g id="node11" class="node">
<title>at_contact</title>
<polygon fill="none" stroke="#250aa2" points="2255,-1276.55 2165,-1276.55 2165,-1240.55 2255,-1240.55 2255,-1276.55"/>
<text text-anchor="middle" x="2210" y="-1254.85" font-family="Times,serif" font-size="14.00">at_contact</text>
</g>
<!-- at_chat_flutter&#45;&gt;at_contact -->
<g id="edge11" class="edge">
<title>at_chat_flutter&#45;&gt;at_contact</title>
<path fill="none" stroke="#250aa2" d="M3352.54,-2844.34C3399.84,-2771.58 3572.99,-2482.26 3499,-2250.55 3414.55,-1986.11 3346.42,-1923.77 3137,-1741.55 2851.78,-1493.39 2416.53,-1329.82 2264.6,-1277.59"/>
<polygon fill="#250aa2" stroke="#250aa2" points="2265.6,-1274.24 2255,-1274.31 2263.34,-1280.86 2265.6,-1274.24"/>
</g>
<!-- at_chat_flutter&#45;&gt;at_lookup -->
<g id="edge12" class="edge">
<title>at_chat_flutter&#45;&gt;at_lookup</title>
<path fill="none" stroke="#94d42d" d="M3321.89,-2844.42C3248.24,-2778.3 2975.98,-2533.13 2757,-2325.55 2543.12,-2122.82 2290.88,-1871.48 2212.48,-1793.07"/>
<polygon fill="#94d42d" stroke="#94d42d" points="2214.57,-1790.22 2205.03,-1785.62 2209.62,-1795.16 2214.57,-1790.22"/>
</g>
<!-- at_chops&#45;&gt;at_commons -->
<g id="edge13" class="edge">
<title>at_chops&#45;&gt;at_commons</title>
<path fill="none" stroke="#7eceb0" d="M2067.58,-1240.3C2065.96,-1174.3 2059.93,-931.52 2054,-731.55 2048.78,-555.54 2041.55,-344.01 2038.97,-269.31"/>
<polygon fill="#7eceb0" stroke="#7eceb0" points="2042.45,-268.78 2038.6,-258.91 2035.45,-269.03 2042.45,-268.78"/>
</g>
<!-- at_chops&#45;&gt;at_utils -->
<g id="edge14" class="edge">
<title>at_chops&#45;&gt;at_utils</title>
<path fill="none" stroke="#75e849" d="M2066.04,-1240.39C2057.51,-1165.84 2023.63,-869.72 2013.12,-777.87"/>
<polygon fill="#75e849" stroke="#75e849" points="2016.58,-777.24 2011.96,-767.71 2009.62,-778.04 2016.58,-777.24"/>
</g>
<!-- at_cli -->
<g id="node5" class="node">
<title>at_cli</title>
<polygon fill="none" stroke="#34bd05" points="222,-3389.55 168,-3389.55 168,-3353.55 222,-3353.55 222,-3389.55"/>
<text text-anchor="middle" x="195" y="-3367.85" font-family="Times,serif" font-size="14.00">at_cli</text>
</g>
<!-- at_cli&#45;&gt;at_client -->
<g id="edge16" class="edge">
<title>at_cli&#45;&gt;at_client</title>
<path fill="none" stroke="#61d4fc" d="M211.45,-3353.3C344.72,-3213.57 1243.8,-2271.42 1278,-2250.55 1825.99,-1916.28 2622.27,-1799.44 2825.42,-1774.17"/>
<polygon fill="#61d4fc" stroke="#61d4fc" points="2825.97,-1777.63 2835.47,-1772.94 2825.12,-1770.68 2825.97,-1777.63"/>
</g>
<!-- at_cli&#45;&gt;at_commons -->
<g id="edge17" class="edge">
<title>at_cli&#45;&gt;at_commons</title>
<path fill="none" stroke="#7eceb0" d="M191.12,-3353.3C177.11,-3290.37 128.68,-3067.12 104,-2880.55 68.74,-2614.03 56,-2546.4 56,-2277.55 56,-2277.55 56,-2277.55 56,-1257.55 56,-373.02 1638.58,-258.03 1975.43,-243.57"/>
<polygon fill="#7eceb0" stroke="#7eceb0" points="1975.65,-247.06 1985.5,-243.15 1975.36,-240.07 1975.65,-247.06"/>
</g>
<!-- at_cli&#45;&gt;at_lookup -->
<g id="edge15" class="edge">
<title>at_cli&#45;&gt;at_lookup</title>
<path fill="none" stroke="#94d42d" d="M210.33,-3353.3C332.86,-3215.49 1149.94,-2297.35 1212,-2250.55 1529.06,-2011.44 1983.22,-1840.11 2135.78,-1786.4"/>
<polygon fill="#94d42d" stroke="#94d42d" points="2137.1,-1789.64 2145.38,-1783.03 2134.79,-1783.03 2137.1,-1789.64"/>
</g>
<!-- at_cli&#45;&gt;at_utils -->
<g id="edge18" class="edge">
<title>at_cli&#45;&gt;at_utils</title>
<path fill="none" stroke="#75e849" d="M195.49,-3353.51C200.32,-3185.2 239.63,-1825.59 252,-1741.55 286.08,-1510.12 223.18,-1400.52 386,-1232.55 619.72,-991.44 1728.67,-796.96 1965.45,-757.77"/>
<polygon fill="#75e849" stroke="#75e849" points="1966.13,-761.2 1975.43,-756.12 1964.99,-754.29 1966.13,-761.2"/>
</g>
<!-- at_cli_commons -->
<g id="node6" class="node">
<title>at_cli_commons</title>
<polygon fill="none" stroke="#c99192" points="2255,-3389.55 2127,-3389.55 2127,-3353.55 2255,-3353.55 2255,-3389.55"/>
<text text-anchor="middle" x="2191" y="-3367.85" font-family="Times,serif" font-size="14.00">at_cli_commons</text>
</g>
<!-- at_cli_commons&#45;&gt;at_client -->
<g id="edge19" class="edge">
<title>at_cli_commons&#45;&gt;at_client</title>
<path fill="none" stroke="#61d4fc" d="M2193.99,-3353.33C2212.87,-3247.19 2321.46,-2672.46 2529,-2250.55 2623.28,-2058.89 2791.48,-1861.16 2851.75,-1793.2"/>
<polygon fill="#61d4fc" stroke="#61d4fc" points="2854.51,-1795.36 2858.55,-1785.57 2849.28,-1790.71 2854.51,-1795.36"/>
</g>
<!-- at_onboarding_cli -->
<g id="node29" class="node">
<title>at_onboarding_cli</title>
<polygon fill="none" stroke="#514d2d" points="2089,-2880.55 1947,-2880.55 1947,-2844.55 2089,-2844.55 2089,-2880.55"/>
<text text-anchor="middle" x="2018" y="-2858.85" font-family="Times,serif" font-size="14.00">at_onboarding_cli</text>
</g>
<!-- at_cli_commons&#45;&gt;at_onboarding_cli -->
<g id="edge20" class="edge">
<title>at_cli_commons&#45;&gt;at_onboarding_cli</title>
<path fill="none" stroke="#514d2d" d="M2182.49,-3353.39C2151.77,-3278.77 2050.35,-2982.12 2023.97,-2890.59"/>
<polygon fill="#514d2d" stroke="#514d2d" points="2027.27,-2889.39 2021.2,-2880.71 2020.53,-2891.28 2027.27,-2889.39"/>
</g>
<!-- at_cli_commons&#45;&gt;at_utils -->
<g id="edge21" class="edge">
<title>at_cli_commons&#45;&gt;at_utils</title>
<path fill="none" stroke="#75e849" d="M2178.34,-3353.53C2134.27,-3293.11 1987.66,-3081.79 1938,-2880.55 1731.16,-2042.29 1961.23,-962.44 2003.55,-777.93"/>
<polygon fill="#75e849" stroke="#75e849" points="2007.01,-778.51 2005.85,-767.98 2000.19,-776.94 2007.01,-778.51"/>
</g>
<!-- at_client&#45;&gt;at_auth -->
<g id="edge26" class="edge">
<title>at_client&#45;&gt;at_auth</title>
<path fill="none" stroke="#0f9477" d="M2844.53,-1785.72C2714.02,-1861.78 2188.07,-2168.28 2041.87,-2253.48"/>
<polygon fill="#0f9477" stroke="#0f9477" points="2040.07,-2250.48 2033.2,-2258.54 2043.6,-2256.53 2040.07,-2250.48"/>
</g>
<!-- at_client&#45;&gt;at_chops -->
<g id="edge24" class="edge">
<title>at_client&#45;&gt;at_chops</title>
<path fill="none" stroke="#8fb4d4" d="M2846.72,-1749.39C2726.04,-1673.48 2240.1,-1367.81 2103.74,-1282.03"/>
<polygon fill="#8fb4d4" stroke="#8fb4d4" points="2105.6,-1279.07 2095.27,-1276.71 2101.87,-1284.99 2105.6,-1279.07"/>
</g>
<!-- at_client&#45;&gt;at_commons -->
<g id="edge22" class="edge">
<title>at_client&#45;&gt;at_commons</title>
<path fill="none" stroke="#7eceb0" d="M2835.14,-1757.67C2696.34,-1723.67 2222.52,-1587.82 2020,-1276.55 1799.31,-937.36 1980.77,-394.13 2027.68,-268.21"/>
<polygon fill="#7eceb0" stroke="#7eceb0" points="2031.05,-269.19 2031.3,-258.59 2024.5,-266.72 2031.05,-269.19"/>
</g>
<!-- at_client&#45;&gt;at_lookup -->
<g id="edge25" class="edge">
<title>at_client&#45;&gt;at_lookup</title>
<path fill="none" stroke="#94d42d" d="M2835.35,-1767.55C2637.1,-1767.55 2438.84,-1767.55 2240.58,-1767.55"/>
<polygon fill="#94d42d" stroke="#94d42d" points="2240.54,-1764.05 2230.54,-1767.55 2240.54,-1771.05 2240.54,-1764.05"/>
</g>
<!-- at_persistence_secondary_server -->
<g id="node32" class="node">
<title>at_persistence_secondary_server</title>
<polygon fill="none" stroke="#9760d3" points="876,-1785.55 624,-1785.55 624,-1749.55 876,-1749.55 876,-1785.55"/>
<text text-anchor="middle" x="750" y="-1763.85" font-family="Times,serif" font-size="14.00">at_persistence_secondary_server</text>
</g>
<!-- at_client&#45;&gt;at_persistence_secondary_server -->
<g id="edge28" class="edge">
<title>at_client&#45;&gt;at_persistence_secondary_server</title>
<path fill="none" stroke="#9760d3" d="M2849.85,-1785.76C2782.52,-1835.22 2585.23,-1971.47 2396,-2018.05 1748.23,-2177.5 1472.92,-2351.28 895,-2018.05 810.52,-1969.34 770.8,-1850.53 756.52,-1795.89"/>
<polygon fill="#9760d3" stroke="#9760d3" points="759.83,-1794.71 754,-1785.86 753.04,-1796.41 759.83,-1794.71"/>
</g>
<!-- at_persistence_spec -->
<g id="node33" class="node">
<title>at_persistence_spec</title>
<polygon fill="none" stroke="#3bfcef" points="1124.5,-1276.55 965.5,-1276.55 965.5,-1240.55 1124.5,-1240.55 1124.5,-1276.55"/>
<text text-anchor="middle" x="1045" y="-1254.85" font-family="Times,serif" font-size="14.00">at_persistence_spec</text>
</g>
<!-- at_client&#45;&gt;at_persistence_spec -->
<g id="edge27" class="edge">
<title>at_client&#45;&gt;at_persistence_spec</title>
<path fill="none" stroke="#3bfcef" d="M2835.38,-1755.85C2605.94,-1692.25 1421.87,-1364.02 1116.77,-1279.45"/>
<polygon fill="#3bfcef" stroke="#3bfcef" points="1117.29,-1275.96 1106.72,-1276.66 1115.42,-1282.7 1117.29,-1275.96"/>
</g>
<!-- at_client&#45;&gt;at_utils -->
<g id="edge23" class="edge">
<title>at_client&#45;&gt;at_utils</title>
<path fill="none" stroke="#75e849" d="M2860.55,-1749.22C2808.21,-1681.9 2612.56,-1431.64 2443,-1232.55 2290.6,-1053.62 2098.52,-845.67 2033.06,-775.28"/>
<polygon fill="#75e849" stroke="#75e849" points="2035.44,-772.7 2026.07,-767.76 2030.32,-777.47 2035.44,-772.7"/>
</g>
<!-- at_client_mobile&#45;&gt;at_auth -->
<g id="edge34" class="edge">
<title>at_client_mobile&#45;&gt;at_auth</title>
<path fill="none" stroke="#0f9477" d="M2987.07,-2294.72C2974.01,-2350 2926.36,-2516.4 2814,-2581.05 2530.09,-2744.41 2334.2,-2783.88 2077,-2581.05 1992.03,-2514.05 1995.06,-2367.15 2000.62,-2305.11"/>
<polygon fill="#0f9477" stroke="#0f9477" points="2004.13,-2305.18 2001.62,-2294.89 1997.16,-2304.49 2004.13,-2305.18"/>
</g>
<!-- at_client_mobile&#45;&gt;at_chops -->
<g id="edge31" class="edge">
<title>at_client_mobile&#45;&gt;at_chops</title>
<path fill="none" stroke="#8fb4d4" d="M2993.88,-2258.43C3004.83,-2187.61 3037.67,-1913.29 2922,-1741.55 2720.49,-1442.36 2267.53,-1308.25 2117.39,-1270.91"/>
<polygon fill="#8fb4d4" stroke="#8fb4d4" points="2118.08,-1267.47 2107.53,-1268.48 2116.41,-1274.27 2118.08,-1267.47"/>
</g>
<!-- at_client_mobile&#45;&gt;at_client -->
<g id="edge33" class="edge">
<title>at_client_mobile&#45;&gt;at_client</title>
<path fill="none" stroke="#61d4fc" d="M2987.04,-2258.39C2969.82,-2183.77 2901.36,-1887.12 2880.24,-1795.59"/>
<polygon fill="#61d4fc" stroke="#61d4fc" points="2883.62,-1794.66 2877.96,-1785.71 2876.8,-1796.24 2883.62,-1794.66"/>
</g>
<!-- at_client_mobile&#45;&gt;at_commons -->
<g id="edge29" class="edge">
<title>at_client_mobile&#45;&gt;at_commons</title>
<path fill="none" stroke="#7eceb0" d="M2993.29,-2258.41C3001.68,-2190.79 3027.28,-1936.61 2967,-1741.55 2760.17,-1072.25 2181.49,-401.7 2060.39,-266.26"/>
<polygon fill="#7eceb0" stroke="#7eceb0" points="2062.99,-263.92 2053.71,-258.81 2057.78,-268.59 2062.99,-263.92"/>
</g>
<!-- at_client_mobile&#45;&gt;at_lookup -->
<g id="edge32" class="edge">
<title>at_client_mobile&#45;&gt;at_lookup</title>
<path fill="none" stroke="#94d42d" d="M2963.82,-2258.39C2843.71,-2182.56 2360.43,-1877.42 2224.02,-1791.29"/>
<polygon fill="#94d42d" stroke="#94d42d" points="2225.49,-1788.09 2215.17,-1785.71 2221.76,-1794.01 2225.49,-1788.09"/>
</g>
<!-- at_client_mobile&#45;&gt;at_persistence_secondary_server -->
<g id="edge35" class="edge">
<title>at_client_mobile&#45;&gt;at_persistence_secondary_server</title>
<path fill="none" stroke="#9760d3" d="M2924.84,-2260.58C2602.47,-2187.65 1197.08,-1869.7 835.22,-1787.83"/>
<polygon fill="#9760d3" stroke="#9760d3" points="835.86,-1784.39 825.33,-1785.59 834.31,-1791.22 835.86,-1784.39"/>
</g>
<!-- at_client_mobile&#45;&gt;at_utils -->
<g id="edge30" class="edge">
<title>at_client_mobile&#45;&gt;at_utils</title>
<path fill="none" stroke="#75e849" d="M2993.43,-2258.42C3002.37,-2189.77 3028.88,-1929.21 2946,-1741.55 2734.12,-1261.8 2187.66,-870.03 2044.66,-773.42"/>
<polygon fill="#75e849" stroke="#75e849" points="2046.47,-770.42 2036.22,-767.75 2042.57,-776.23 2046.47,-770.42"/>
</g>
<!-- at_contact&#45;&gt;at_client -->
<g id="edge36" class="edge">
<title>at_contact&#45;&gt;at_client</title>
<path fill="none" stroke="#61d4fc" d="M2232.47,-1276.71C2331.58,-1352.38 2729.81,-1656.45 2843.53,-1743.29"/>
<polygon fill="#61d4fc" stroke="#61d4fc" points="2841.45,-1746.11 2851.53,-1749.39 2845.7,-1740.54 2841.45,-1746.11"/>
</g>
<!-- at_contact&#45;&gt;at_commons -->
<g id="edge37" class="edge">
<title>at_contact&#45;&gt;at_commons</title>
<path fill="none" stroke="#7eceb0" d="M2208.78,-1240.2C2203.97,-1173.83 2184.88,-929.92 2151,-731.55 2120.53,-553.15 2065.31,-342.37 2045.4,-268.63"/>
<polygon fill="#7eceb0" stroke="#7eceb0" points="2048.72,-267.5 2042.73,-258.77 2041.97,-269.33 2048.72,-267.5"/>
</g>
<!-- at_contact&#45;&gt;at_utils -->
<g id="edge38" class="edge">
<title>at_contact&#45;&gt;at_utils</title>
<path fill="none" stroke="#75e849" d="M2203.23,-1240.39C2173.73,-1165.62 2056.3,-867.91 2020.45,-777.03"/>
<polygon fill="#75e849" stroke="#75e849" points="2023.69,-775.72 2016.77,-767.71 2017.18,-778.29 2023.69,-775.72"/>
</g>
<!-- at_contacts_flutter -->
<g id="node12" class="node">
<title>at_contacts_flutter</title>
<polygon fill="none" stroke="#1267b5" points="3751.5,-2880.55 3602.5,-2880.55 3602.5,-2844.55 3751.5,-2844.55 3751.5,-2880.55"/>
<text text-anchor="middle" x="3677" y="-2858.85" font-family="Times,serif" font-size="14.00">at_contacts_flutter</text>
</g>
<!-- at_contacts_flutter&#45;&gt;at_client -->
<g id="edge39" class="edge">
<title>at_contacts_flutter&#45;&gt;at_client</title>
<path fill="none" stroke="#61d4fc" d="M3663.01,-2844.23C3609.59,-2777.91 3413.73,-2533.45 3261,-2325.55 3112.98,-2124.07 2944.29,-1873.66 2891.03,-1794.07"/>
<polygon fill="#61d4fc" stroke="#61d4fc" points="2893.86,-1792.01 2885.39,-1785.64 2888.04,-1795.9 2893.86,-1792.01"/>
</g>
<!-- at_contacts_flutter&#45;&gt;at_client_mobile -->
<g id="edge40" class="edge">
<title>at_contacts_flutter&#45;&gt;at_client_mobile</title>
<path fill="none" stroke="#d9577c" d="M3656.84,-2844.39C3558.83,-2760.95 3132.2,-2397.75 3018.78,-2301.2"/>
<polygon fill="#d9577c" stroke="#d9577c" points="3021.04,-2298.53 3011.16,-2294.71 3016.51,-2303.86 3021.04,-2298.53"/>
</g>
<!-- at_contacts_flutter&#45;&gt;at_common_flutter -->
<g id="edge41" class="edge">
<title>at_contacts_flutter&#45;&gt;at_common_flutter</title>
<path fill="none" stroke="#bf681f" d="M3669.3,-2844.39C3632.2,-2761.7 3471.85,-2404.27 3426.81,-2303.87"/>
<polygon fill="#bf681f" stroke="#bf681f" points="3429.99,-2302.41 3422.7,-2294.71 3423.6,-2305.27 3429.99,-2302.41"/>
</g>
<!-- at_contacts_flutter&#45;&gt;at_commons -->
<g id="edge42" class="edge">
<title>at_contacts_flutter&#45;&gt;at_commons</title>
<path fill="none" stroke="#7eceb0" d="M3679.95,-2844.26C3697.07,-2742.2 3783,-2207.99 3783,-1768.55 3783,-1768.55 3783,-1768.55 3783,-1257.55 3783,-462.48 2413.39,-278.73 2100.93,-247.16"/>
<polygon fill="#7eceb0" stroke="#7eceb0" points="2101,-243.65 2090.7,-246.14 2100.3,-250.61 2101,-243.65"/>
</g>
<!-- at_contacts_flutter&#45;&gt;at_contact -->
<g id="edge43" class="edge">
<title>at_contacts_flutter&#45;&gt;at_contact</title>
<path fill="none" stroke="#250aa2" d="M3663.69,-2844.45C3613.96,-2779.9 3436.54,-2543.59 3332,-2325.55 3213.69,-2078.81 3314.7,-1949.64 3137,-1741.55 2889.61,-1451.86 2424.25,-1313.09 2265.04,-1272.58"/>
<polygon fill="#250aa2" stroke="#250aa2" points="2265.56,-1269.1 2255,-1270.05 2263.85,-1275.89 2265.56,-1269.1"/>
</g>
<!-- at_contacts_flutter&#45;&gt;at_lookup -->
<g id="edge44" class="edge">
<title>at_contacts_flutter&#45;&gt;at_lookup</title>
<path fill="none" stroke="#94d42d" d="M3639.84,-2844.34C3513.04,-2784.57 3089.03,-2575.85 2795,-2325.55 2761.63,-2297.15 2761.68,-2281.84 2731,-2250.55 2546.29,-2062.2 2300.69,-1859.68 2217.2,-1792.03"/>
<polygon fill="#94d42d" stroke="#94d42d" points="2219.38,-1789.3 2209.4,-1785.73 2214.98,-1794.74 2219.38,-1789.3"/>
</g>
<!-- at_contacts_flutter&#45;&gt;at_utils -->
<g id="edge45" class="edge">
<title>at_contacts_flutter&#45;&gt;at_utils</title>
<path fill="none" stroke="#75e849" d="M3674.89,-2844.23C3659.59,-2719.89 3564.56,-1961.78 3494,-1741.55 3417.04,-1501.35 3428.81,-1403.12 3243,-1232.55 2870.91,-890.98 2229.03,-780.65 2054.76,-756.26"/>
<polygon fill="#75e849" stroke="#75e849" points="2055.06,-752.77 2044.67,-754.87 2054.1,-759.7 2055.06,-752.77"/>
</g>
<!-- at_contacts_group_flutter -->
<g id="node13" class="node">
<title>at_contacts_group_flutter</title>
<polygon fill="none" stroke="#dae1d2" points="3776,-3389.55 3578,-3389.55 3578,-3353.55 3776,-3353.55 3776,-3389.55"/>
<text text-anchor="middle" x="3677" y="-3367.85" font-family="Times,serif" font-size="14.00">at_contacts_group_flutter</text>
</g>
<!-- at_contacts_group_flutter&#45;&gt;at_client_mobile -->
<g id="edge46" class="edge">
<title>at_contacts_group_flutter&#45;&gt;at_client_mobile</title>
<path fill="none" stroke="#d9577c" d="M3645.28,-3353.38C3547.78,-3298.79 3250.65,-3118.72 3112,-2880.55 2997,-2683.01 2989.72,-2394.19 2990.42,-2304.88"/>
<polygon fill="#d9577c" stroke="#d9577c" points="2993.92,-2304.81 2990.54,-2294.77 2986.92,-2304.73 2993.92,-2304.81"/>
</g>
<!-- at_contacts_group_flutter&#45;&gt;at_common_flutter -->
<g id="edge47" class="edge">
<title>at_contacts_group_flutter&#45;&gt;at_common_flutter</title>
<path fill="none" stroke="#bf681f" d="M3710.71,-3353.51C3828.72,-3291.4 4210.18,-3068.67 4100,-2836.55 3963.09,-2548.11 3596.43,-2359.35 3463.76,-2298.71"/>
<polygon fill="#bf681f" stroke="#bf681f" points="3465.17,-2295.51 3454.62,-2294.57 3462.28,-2301.88 3465.17,-2295.51"/>
</g>
<!-- at_contacts_group_flutter&#45;&gt;at_commons -->
<g id="edge48" class="edge">
<title>at_contacts_group_flutter&#45;&gt;at_commons</title>
<path fill="none" stroke="#7eceb0" d="M3718.29,-3353.53C3836.34,-3302.41 4175.88,-3137.7 4318,-2880.55 4463.83,-2616.69 4434.45,-1409.93 4369,-1232.55 4021.06,-289.58 2436.21,-240.47 2100.57,-240.77"/>
<polygon fill="#7eceb0" stroke="#7eceb0" points="2100.53,-237.27 2090.54,-240.79 2100.55,-244.27 2100.53,-237.27"/>
</g>
<!-- at_contacts_group_flutter&#45;&gt;at_contact -->
<g id="edge49" class="edge">
<title>at_contacts_group_flutter&#45;&gt;at_contact</title>
<path fill="none" stroke="#250aa2" d="M3735.19,-3353.55C3910.66,-3298.87 4415.51,-3114.73 4298,-2836.55 3894.89,-1882.25 2553.07,-1376.74 2264.83,-1277.72"/>
<polygon fill="#250aa2" stroke="#250aa2" points="2265.62,-1274.29 2255.03,-1274.37 2263.36,-1280.91 2265.62,-1274.29"/>
</g>
<!-- at_contacts_group_flutter&#45;&gt;at_contacts_flutter -->
<g id="edge50" class="edge">
<title>at_contacts_group_flutter&#45;&gt;at_contacts_flutter</title>
<path fill="none" stroke="#1267b5" d="M3677,-3353.39C3677,-3278.84 3677,-2982.72 3677,-2890.87"/>
<polygon fill="#1267b5" stroke="#1267b5" points="3680.5,-2890.71 3677,-2880.71 3673.5,-2890.71 3680.5,-2890.71"/>
</g>
<!-- at_contacts_group_flutter&#45;&gt;at_utils -->
<g id="edge51" class="edge">
<title>at_contacts_group_flutter&#45;&gt;at_utils</title>
<path fill="none" stroke="#75e849" d="M3648.7,-3353.39C3556.69,-3296.41 3261.69,-3104.4 3084,-2880.55 2575.35,-2239.79 2636.95,-1960.7 2264,-1232.55 2174.24,-1057.31 2062.52,-848.38 2023.89,-776.4"/>
<polygon fill="#75e849" stroke="#75e849" points="2026.96,-774.71 2019.14,-767.55 2020.79,-778.02 2026.96,-774.71"/>
</g>
<!-- at_cram -->
<g id="node14" class="node">
<title>at_cram</title>
<polygon fill="none" stroke="#c89a29" points="554,-3389.55 480,-3389.55 480,-3353.55 554,-3353.55 554,-3389.55"/>
<text text-anchor="middle" x="517" y="-3367.85" font-family="Times,serif" font-size="14.00">at_cram</text>
</g>
<!-- at_daemon_cli -->
<g id="node15" class="node">
<title>at_daemon_cli</title>
<polygon fill="none" stroke="#8e17d5" points="1407.5,-3389.55 1290.5,-3389.55 1290.5,-3353.55 1407.5,-3353.55 1407.5,-3389.55"/>
<text text-anchor="middle" x="1349" y="-3367.85" font-family="Times,serif" font-size="14.00">at_daemon_cli</text>
</g>
<!-- at_daemon_cli&#45;&gt;at_client -->
<g id="edge52" class="edge">
<title>at_daemon_cli&#45;&gt;at_client</title>
<path fill="none" stroke="#61d4fc" d="M1360.14,-3353.35C1399.89,-3291.48 1536.88,-3073.73 1623,-2880.55 1743.47,-2610.33 1640.24,-2470.6 1838,-2250.55 2123.29,-1933.11 2660.8,-1808.79 2825.08,-1777.2"/>
<polygon fill="#61d4fc" stroke="#61d4fc" points="2826.18,-1780.56 2835.35,-1775.26 2824.87,-1773.68 2826.18,-1780.56"/>
</g>
<!-- at_daemon_cli&#45;&gt;at_commons -->
<g id="edge57" class="edge">
<title>at_daemon_cli&#45;&gt;at_commons</title>
<path fill="none" stroke="#7eceb0" d="M1324.07,-3353.42C1155.13,-3235.04 188.09,-2520.2 299,-1741.55 372.18,-1227.76 464.78,-1036.09 885,-731.55 1254.68,-463.64 1793.3,-305.64 1975.28,-257.43"/>
<polygon fill="#7eceb0" stroke="#7eceb0" points="1976.43,-260.75 1985.21,-254.81 1974.65,-253.98 1976.43,-260.75"/>
</g>
<!-- at_daemon_core -->
<g id="node17" class="node">
<title>at_daemon_core</title>
<polygon fill="none" stroke="#c16272" points="1560.5,-2294.55 1429.5,-2294.55 1429.5,-2258.55 1560.5,-2258.55 1560.5,-2294.55"/>
<text text-anchor="middle" x="1495" y="-2272.85" font-family="Times,serif" font-size="14.00">at_daemon_core</text>
</g>
<!-- at_daemon_cli&#45;&gt;at_daemon_core -->
<g id="edge54" class="edge">
<title>at_daemon_cli&#45;&gt;at_daemon_core</title>
<path fill="none" stroke="#c16272" d="M1349.27,-3353.28C1357.3,-3290.3 1404.28,-3066.91 1430,-2880.55 1460.5,-2659.54 1478.91,-2390.62 1489.45,-2305.06"/>
<polygon fill="#c16272" stroke="#c16272" points="1492.95,-2305.26 1490.79,-2294.89 1486.01,-2304.34 1492.95,-2305.26"/>
</g>
<!-- at_daemon_cli&#45;&gt;at_daemon_core -->
<g id="edge58" class="edge">
<title>at_daemon_cli&#45;&gt;at_daemon_core</title>
<path fill="none" stroke="#c16272" stroke-dasharray="1,5" d="M1356.23,-3353.28C1375.3,-3290.3 1422.28,-3066.91 1448,-2880.55 1478.5,-2659.54 1496.91,-2390.62 1497.2,-2305.06"/>
<polygon fill="#c16272" stroke="#c16272" points="1500.69,-2304.86 1497.13,-2294.89 1493.69,-2304.91 1500.69,-2304.86"/>
</g>
<!-- at_daemon_server -->
<g id="node19" class="node">
<title>at_daemon_server</title>
<polygon fill="none" stroke="#4bd261" points="1614,-2880.55 1468,-2880.55 1468,-2844.55 1614,-2844.55 1614,-2880.55"/>
<text text-anchor="middle" x="1541" y="-2858.85" font-family="Times,serif" font-size="14.00">at_daemon_server</text>
</g>
<!-- at_daemon_cli&#45;&gt;at_daemon_server -->
<g id="edge55" class="edge">
<title>at_daemon_cli&#45;&gt;at_daemon_server</title>
<path fill="none" stroke="#4bd261" d="M1352.85,-3353.39C1375.9,-3278.62 1488.45,-2980.91 1527.75,-2890.03"/>
<polygon fill="#4bd261" stroke="#4bd261" points="1531.03,-2891.27 1531.85,-2880.71 1524.62,-2888.45 1531.03,-2891.27"/>
</g>
<!-- at_daemon_cli&#45;&gt;at_daemon_server -->
<g id="edge59" class="edge">
<title>at_daemon_cli&#45;&gt;at_daemon_server</title>
<path fill="none" stroke="#4bd261" stroke-dasharray="1,5" d="M1358.15,-3353.39C1391.7,-3278.69 1504.44,-2981.51 1534.1,-2890.31"/>
<polygon fill="#4bd261" stroke="#4bd261" points="1537.46,-2891.3 1537.15,-2880.71 1530.79,-2889.18 1537.46,-2891.3"/>
</g>
<!-- at_daemon_cli&#45;&gt;at_onboarding_cli -->
<g id="edge53" class="edge">
<title>at_daemon_cli&#45;&gt;at_onboarding_cli</title>
<path fill="none" stroke="#514d2d" d="M1371.64,-3353.39C1471.51,-3277.71 1872.74,-2973.64 1987.31,-2886.81"/>
<polygon fill="#514d2d" stroke="#514d2d" points="1989.51,-2889.54 1995.36,-2880.71 1985.28,-2883.96 1989.51,-2889.54"/>
</g>
<!-- at_daemon_cli&#45;&gt;at_utils -->
<g id="edge56" class="edge">
<title>at_daemon_cli&#45;&gt;at_utils</title>
<path fill="none" stroke="#75e849" d="M1341.87,-3353.11C1312.82,-3283.27 1197.9,-3018.82 1051,-2836.55 835.63,-2569.32 616.34,-2636.95 472,-2325.55 369.86,-2105.18 326.1,-1426.74 472,-1232.55 663.51,-977.66 1732.68,-794.64 1965.32,-757.5"/>
<polygon fill="#75e849" stroke="#75e849" points="1966.12,-760.91 1975.44,-755.89 1965.02,-754 1966.12,-760.91"/>
</g>
<!-- at_daemon_client -->
<g id="node16" class="node">
<title>at_daemon_client</title>
<polygon fill="none" stroke="#dbe812" points="1430,-2880.55 1290,-2880.55 1290,-2844.55 1430,-2844.55 1430,-2880.55"/>
<text text-anchor="middle" x="1360" y="-2858.85" font-family="Times,serif" font-size="14.00">at_daemon_client</text>
</g>
<!-- at_daemon_client&#45;&gt;at_daemon_core -->
<g id="edge60" class="edge">
<title>at_daemon_client&#45;&gt;at_daemon_core</title>
<path fill="none" stroke="#c16272" d="M1361.48,-2844.39C1375.07,-2761.87 1457.21,-2405.71 1485.73,-2304.48"/>
<polygon fill="#c16272" stroke="#c16272" points="1489.14,-2305.29 1488.55,-2294.71 1482.41,-2303.35 1489.14,-2305.29"/>
</g>
<!-- at_daemon_client&#45;&gt;at_daemon_core -->
<g id="edge61" class="edge">
<title>at_daemon_client&#45;&gt;at_daemon_core</title>
<path fill="none" stroke="#c16272" stroke-dasharray="1,5" d="M1366.45,-2844.39C1391,-2761.95 1473.37,-2406.43 1491.77,-2304.79"/>
<polygon fill="#c16272" stroke="#c16272" points="1495.25,-2305.17 1493.52,-2294.71 1488.36,-2303.97 1495.25,-2305.17"/>
</g>
<!-- at_daemon_core&#45;&gt;at_commons -->
<g id="edge63" class="edge">
<title>at_daemon_core&#45;&gt;at_commons</title>
<path fill="none" stroke="#7eceb0" d="M1495.07,-2258.15C1496.11,-2130.68 1511.54,-1329.21 1733,-731.55 1805.26,-536.53 1960.85,-335.63 2017.14,-266.59"/>
<polygon fill="#7eceb0" stroke="#7eceb0" points="2019.86,-268.79 2023.5,-258.84 2014.45,-264.35 2019.86,-268.79"/>
</g>
<!-- at_daemon_core&#45;&gt;at_utils -->
<g id="edge62" class="edge">
<title>at_daemon_core&#45;&gt;at_utils</title>
<path fill="none" stroke="#75e849" d="M1502.61,-2258.44C1530.23,-2196 1626.85,-1974.22 1691,-1785.55 1773.2,-1543.77 1771.4,-1476.48 1847,-1232.55 1901.08,-1058.04 1974.17,-850.89 2000.26,-777.75"/>
<polygon fill="#75e849" stroke="#75e849" points="2003.69,-778.55 2003.75,-767.95 1997.1,-776.2 2003.69,-778.55"/>
</g>
<!-- at_daemon_desktop -->
<g id="node18" class="node">
<title>at_daemon_desktop</title>
<polygon fill="none" stroke="#89d485" points="1582.5,-3389.55 1425.5,-3389.55 1425.5,-3353.55 1582.5,-3353.55 1582.5,-3389.55"/>
<text text-anchor="middle" x="1504" y="-3367.85" font-family="Times,serif" font-size="14.00">at_daemon_desktop</text>
</g>
<!-- at_daemon_server&#45;&gt;at_client -->
<g id="edge64" class="edge">
<title>at_daemon_server&#45;&gt;at_client</title>
<path fill="none" stroke="#61d4fc" d="M1540.01,-2844.5C1536.39,-2766.1 1531.56,-2436.11 1692,-2250.55 2008.55,-1884.45 2645.19,-1792.21 2825.45,-1773"/>
<polygon fill="#61d4fc" stroke="#61d4fc" points="2825.84,-1776.48 2835.42,-1771.96 2825.11,-1769.52 2825.84,-1776.48"/>
</g>
<!-- at_daemon_server&#45;&gt;at_daemon_core -->
<g id="edge65" class="edge">
<title>at_daemon_server&#45;&gt;at_daemon_core</title>
<path fill="none" stroke="#c16272" d="M1537.16,-2844.39C1525.18,-2761.95 1496.99,-2406.43 1494.08,-2304.79"/>
<polygon fill="#c16272" stroke="#c16272" points="1497.58,-2304.64 1493.87,-2294.71 1490.58,-2304.79 1497.58,-2304.64"/>
</g>
<!-- at_daemon_server&#45;&gt;at_daemon_core -->
<g id="edge68" class="edge">
<title>at_daemon_server&#45;&gt;at_daemon_core</title>
<path fill="none" stroke="#c16272" stroke-dasharray="1,5" d="M1542.13,-2844.39C1541.13,-2761.95 1513.32,-2406.43 1500.21,-2304.79"/>
<polygon fill="#c16272" stroke="#c16272" points="1503.65,-2304.15 1498.84,-2294.71 1496.72,-2305.1 1503.65,-2304.15"/>
</g>
<!-- at_daemon_server&#45;&gt;at_onboarding_cli -->
<g id="edge67" class="edge">
<title>at_daemon_server&#45;&gt;at_onboarding_cli</title>
<path fill="none" stroke="#514d2d" d="M1614.13,-2862.55C1721.61,-2862.55 1829.08,-2862.55 1936.55,-2862.55"/>
<polygon fill="#514d2d" stroke="#514d2d" points="1936.61,-2866.05 1946.61,-2862.55 1936.61,-2859.05 1936.61,-2866.05"/>
</g>
<!-- at_server_spec -->
<g id="node39" class="node">
<title>at_server_spec</title>
<polygon fill="none" stroke="#e6f023" points="606,-1785.55 484,-1785.55 484,-1749.55 606,-1749.55 606,-1785.55"/>
<text text-anchor="middle" x="545" y="-1763.85" font-family="Times,serif" font-size="14.00">at_server_spec</text>
</g>
<!-- at_daemon_server&#45;&gt;at_server_spec -->
<g id="edge66" class="edge">
<title>at_daemon_server&#45;&gt;at_server_spec</title>
<path fill="none" stroke="#e6f023" d="M1531.99,-2844.48C1491.83,-2769.27 1322.61,-2461.78 1131,-2250.55 946.69,-2047.37 674.46,-1855.8 579.32,-1791.4"/>
<polygon fill="#e6f023" stroke="#e6f023" points="581.18,-1788.43 570.94,-1785.74 577.27,-1794.24 581.18,-1788.43"/>
</g>
<!-- at_dump_atKeys -->
<g id="node20" class="node">
<title>at_dump_atKeys</title>
<polygon fill="none" stroke="#80b159" points="149.5,-3389.55 16.5,-3389.55 16.5,-3353.55 149.5,-3353.55 149.5,-3389.55"/>
<text text-anchor="middle" x="83" y="-3367.85" font-family="Times,serif" font-size="14.00">at_dump_atKeys</text>
</g>
<!-- at_pkam -->
<g id="node34" class="node">
<title>at_pkam</title>
<polygon fill="none" stroke="#d549ec" points="199.5,-2880.55 122.5,-2880.55 122.5,-2844.55 199.5,-2844.55 199.5,-2880.55"/>
<text text-anchor="middle" x="161" y="-2858.85" font-family="Times,serif" font-size="14.00">at_pkam</text>
</g>
<!-- at_dump_atKeys&#45;&gt;at_pkam -->
<g id="edge69" class="edge">
<title>at_dump_atKeys&#45;&gt;at_pkam</title>
<path fill="none" stroke="#d549ec" stroke-dasharray="1,5" d="M85.64,-3353.39C97.11,-3278.84 142.67,-2982.72 156.8,-2890.87"/>
<polygon fill="#d549ec" stroke="#d549ec" points="160.3,-2891.12 158.36,-2880.71 153.38,-2890.06 160.3,-2891.12"/>
</g>
<!-- at_events_flutter -->
<g id="node21" class="node">
<title>at_events_flutter</title>
<polygon fill="none" stroke="#5b74f7" points="3593.5,-3920.55 3456.5,-3920.55 3456.5,-3884.55 3593.5,-3884.55 3593.5,-3920.55"/>
<text text-anchor="middle" x="3525" y="-3898.85" font-family="Times,serif" font-size="14.00">at_events_flutter</text>
</g>
<!-- at_events_flutter&#45;&gt;at_client -->
<g id="edge70" class="edge">
<title>at_events_flutter&#45;&gt;at_client</title>
<path fill="none" stroke="#61d4fc" d="M3503.33,-3884.24C3431.92,-3826.14 3201.2,-3629.95 3072,-3420.55 2799.93,-2979.61 2762.27,-2835.75 2672,-2325.55 2634.12,-2111.47 2796.48,-1871.22 2854.26,-1793.93"/>
<polygon fill="#61d4fc" stroke="#61d4fc" points="2857.22,-1795.82 2860.45,-1785.73 2851.63,-1791.6 2857.22,-1795.82"/>
</g>
<!-- at_events_flutter&#45;&gt;at_client_mobile -->
<g id="edge71" class="edge">
<title>at_events_flutter&#45;&gt;at_client_mobile</title>
<path fill="none" stroke="#d9577c" d="M3505.3,-3884.5C3439.45,-3826.45 3224.84,-3628.56 3112,-3420.55 2983.78,-3184.2 2945.12,-3105.29 2954,-2836.55 2960.75,-2632.3 2981.35,-2386.76 2988.51,-2305.3"/>
<polygon fill="#d9577c" stroke="#d9577c" points="2992.03,-2305.19 2989.43,-2294.92 2985.06,-2304.57 2992.03,-2305.19"/>
</g>
<!-- at_events_flutter&#45;&gt;at_common_flutter -->
<g id="edge72" class="edge">
<title>at_events_flutter&#45;&gt;at_common_flutter</title>
<path fill="none" stroke="#bf681f" d="M3548.4,-3884.37C3680.61,-3785.11 4320.84,-3274.23 4111,-2836.55 3971.79,-2546.2 3600.12,-2358.95 3464.99,-2298.69"/>
<polygon fill="#bf681f" stroke="#bf681f" points="3466.24,-2295.41 3455.68,-2294.57 3463.41,-2301.81 3466.24,-2295.41"/>
</g>
<!-- at_events_flutter&#45;&gt;at_commons -->
<g id="edge73" class="edge">
<title>at_events_flutter&#45;&gt;at_commons</title>
<path fill="none" stroke="#7eceb0" d="M3593.51,-3894.45C3788.77,-3870.14 4349.48,-3771.29 4590,-3420.55 4730.22,-3216.07 4621,-3111.49 4621,-2863.55 4621,-2863.55 4621,-2863.55 4621,-1257.55 4621,-926.94 4383.6,-892.84 4095,-731.55 3384.66,-334.56 2362.24,-257.69 2100.75,-244.21"/>
<polygon fill="#7eceb0" stroke="#7eceb0" points="2100.84,-240.71 2090.68,-243.7 2100.49,-247.7 2100.84,-240.71"/>
</g>
<!-- at_events_flutter&#45;&gt;at_contact -->
<g id="edge74" class="edge">
<title>at_events_flutter&#45;&gt;at_contact</title>
<path fill="none" stroke="#250aa2" d="M3503.48,-3884.37C3430.72,-3825.51 3189.68,-3624.42 3033,-3420.55 2692.47,-2977.46 2607.62,-2850.13 2415,-2325.55 2269.5,-1929.29 2221.67,-1410.37 2211.99,-1286.8"/>
<polygon fill="#250aa2" stroke="#250aa2" points="2215.47,-1286.41 2211.21,-1276.7 2208.49,-1286.94 2215.47,-1286.41"/>
</g>
<!-- at_events_flutter&#45;&gt;at_contacts_flutter -->
<g id="edge75" class="edge">
<title>at_events_flutter&#45;&gt;at_contacts_flutter</title>
<path fill="none" stroke="#1267b5" d="M3525.52,-3884.41C3527.77,-3816.67 3537.93,-3561.22 3569,-3353.55 3595.72,-3174.95 3649.99,-2964.29 3669.66,-2890.61"/>
<polygon fill="#1267b5" stroke="#1267b5" points="3673.1,-2891.32 3672.31,-2880.75 3666.34,-2889.5 3673.1,-2891.32"/>
</g>
<!-- at_events_flutter&#45;&gt;at_contacts_group_flutter -->
<g id="edge76" class="edge">
<title>at_events_flutter&#45;&gt;at_contacts_group_flutter</title>
<path fill="none" stroke="#dae1d2" d="M3529.89,-3884.55C3551.93,-3807.84 3642.2,-3493.66 3669.28,-3399.4"/>
<polygon fill="#dae1d2" stroke="#dae1d2" points="3672.66,-3400.33 3672.06,-3389.76 3665.93,-3398.4 3672.66,-3400.33"/>
</g>
<!-- at_location_flutter -->
<g id="node25" class="node">
<title>at_location_flutter</title>
<polygon fill="none" stroke="#283e9c" points="3267,-3389.55 3121,-3389.55 3121,-3353.55 3267,-3353.55 3267,-3389.55"/>
<text text-anchor="middle" x="3194" y="-3367.85" font-family="Times,serif" font-size="14.00">at_location_flutter</text>
</g>
<!-- at_events_flutter&#45;&gt;at_location_flutter -->
<g id="edge77" class="edge">
<title>at_events_flutter&#45;&gt;at_location_flutter</title>
<path fill="none" stroke="#283e9c" d="M3514.36,-3884.55C3466.17,-3807.53 3268.18,-3491.11 3210.09,-3398.27"/>
<polygon fill="#283e9c" stroke="#283e9c" points="3213.04,-3396.38 3204.76,-3389.76 3207.1,-3400.09 3213.04,-3396.38"/>
</g>
<!-- at_events_flutter&#45;&gt;at_lookup -->
<g id="edge78" class="edge">
<title>at_events_flutter&#45;&gt;at_lookup</title>
<path fill="none" stroke="#94d42d" d="M3456.44,-3885.34C3284.63,-3841.25 2831.8,-3703.04 2585,-3420.55 2357.39,-3160.03 2213.58,-1989.98 2191.1,-1795.88"/>
<polygon fill="#94d42d" stroke="#94d42d" points="2194.57,-1795.46 2189.95,-1785.93 2187.62,-1796.26 2194.57,-1795.46"/>
</g>
<!-- at_events_flutter&#45;&gt;at_utils -->
<g id="edge79" class="edge">
<title>at_events_flutter&#45;&gt;at_utils</title>
<path fill="none" stroke="#75e849" d="M3593.51,-3893.65C3785.38,-3867.47 4329.05,-3764.57 4559,-3420.55 4696.7,-3214.55 4583,-3111.34 4583,-2863.55 4583,-2863.55 4583,-2863.55 4583,-2275.55 4583,-1050.44 2397.61,-788.2 2054.96,-754.61"/>
<polygon fill="#75e849" stroke="#75e849" points="2055.2,-751.12 2044.91,-753.64 2054.53,-758.09 2055.2,-751.12"/>
</g>
<!-- at_follows_flutter -->
<g id="node22" class="node">
<title>at_follows_flutter</title>
<polygon fill="none" stroke="#13b24b" points="3405,-3920.55 3265,-3920.55 3265,-3884.55 3405,-3884.55 3405,-3920.55"/>
<text text-anchor="middle" x="3335" y="-3898.85" font-family="Times,serif" font-size="14.00">at_follows_flutter</text>
</g>
<!-- at_follows_flutter&#45;&gt;at_client -->
<g id="edge80" class="edge">
<title>at_follows_flutter&#45;&gt;at_client</title>
<path fill="none" stroke="#61d4fc" d="M3296.27,-3884.5C3183.75,-3832.82 2855.01,-3666.28 2699,-3420.55 2419.39,-2980.14 2465.06,-2753.11 2605,-2250.55 2658.25,-2059.32 2801.44,-1861.99 2854.16,-1793.63"/>
<polygon fill="#61d4fc" stroke="#61d4fc" points="2857.05,-1795.62 2860.42,-1785.57 2851.52,-1791.32 2857.05,-1795.62"/>
</g>
<!-- at_follows_flutter&#45;&gt;at_client_mobile -->
<g id="edge81" class="edge">
<title>at_follows_flutter&#45;&gt;at_client_mobile</title>
<path fill="none" stroke="#d9577c" d="M3298.51,-3884.42C3192.93,-3832.51 2887.47,-3665.42 2775,-3420.55 2584.22,-3005.19 2899.63,-2430.83 2975.29,-2303.31"/>
<polygon fill="#d9577c" stroke="#d9577c" points="2978.38,-2304.96 2980.5,-2294.58 2972.37,-2301.37 2978.38,-2304.96"/>
</g>
<!-- at_follows_flutter&#45;&gt;at_commons -->
<g id="edge82" class="edge">
<title>at_follows_flutter&#45;&gt;at_commons</title>
<path fill="none" stroke="#7eceb0" d="M3401.02,-3884.54C3628.75,-3824.45 4375.13,-3615.27 4514,-3420.55 4657.96,-3218.69 4545,-3111.49 4545,-2863.55 4545,-2863.55 4545,-2863.55 4545,-1257.55 4545,-938.66 4332.07,-892.89 4057,-731.55 3368.12,-327.49 2360.53,-255.83 2100.87,-243.84"/>
<polygon fill="#7eceb0" stroke="#7eceb0" points="2101.01,-240.34 2090.86,-243.39 2100.7,-247.34 2101.01,-240.34"/>
</g>
<!-- at_follows_flutter&#45;&gt;at_lookup -->
<g id="edge83" class="edge">
<title>at_follows_flutter&#45;&gt;at_lookup</title>
<path fill="none" stroke="#94d42d" d="M3290.61,-3884.49C3123.23,-3819.25 2534.07,-3581.21 2421,-3420.55 2322.84,-3281.07 2208.06,-1999.75 2190.35,-1795.85"/>
<polygon fill="#94d42d" stroke="#94d42d" points="2193.82,-1795.36 2189.47,-1785.7 2186.84,-1795.96 2193.82,-1795.36"/>
</g>
<!-- at_server_status -->
<g id="node40" class="node">
<title>at_server_status</title>
<polygon fill="none" stroke="#320113" points="2211,-2294.55 2077,-2294.55 2077,-2258.55 2211,-2258.55 2211,-2294.55"/>
<text text-anchor="middle" x="2144" y="-2272.85" font-family="Times,serif" font-size="14.00">at_server_status</text>
</g>
<!-- at_follows_flutter&#45;&gt;at_server_status -->
<g id="edge84" class="edge">
<title>at_follows_flutter&#45;&gt;at_server_status</title>
<path fill="none" stroke="#320113" d="M3289.12,-3884.51C3116.08,-3819.33 2506.51,-3581.5 2383,-3420.55 2103.31,-3056.09 2131.51,-2441.23 2141.67,-2304.87"/>
<polygon fill="#320113" stroke="#320113" points="2145.16,-2305.1 2142.45,-2294.86 2138.18,-2304.56 2145.16,-2305.1"/>
</g>
<!-- at_follows_flutter&#45;&gt;at_utils -->
<g id="edge85" class="edge">
<title>at_follows_flutter&#45;&gt;at_utils</title>
<path fill="none" stroke="#75e849" d="M3398.62,-3884.54C3619.83,-3824.04 4349.2,-3612.59 4483,-3420.55 4624.65,-3217.25 4507,-3111.34 4507,-2863.55 4507,-2863.55 4507,-2863.55 4507,-2275.55 4507,-1700.67 4248.68,-1504.14 3742,-1232.55 3124.83,-901.74 2259.19,-780.57 2054.58,-755.66"/>
<polygon fill="#75e849" stroke="#75e849" points="2054.85,-752.17 2044.51,-754.45 2054.02,-759.12 2054.85,-752.17"/>
</g>
<!-- at_hive_recovery -->
<g id="node23" class="node">
<title>at_hive_recovery</title>
<polygon fill="none" stroke="#f0efbc" points="461.5,-3389.55 324.5,-3389.55 324.5,-3353.55 461.5,-3353.55 461.5,-3389.55"/>
<text text-anchor="middle" x="393" y="-3367.85" font-family="Times,serif" font-size="14.00">at_hive_recovery</text>
</g>
<!-- at_hive_recovery&#45;&gt;at_persistence_secondary_server -->
<g id="edge86" class="edge">
<title>at_hive_recovery&#45;&gt;at_persistence_secondary_server</title>
<path fill="none" stroke="#9760d3" d="M396.83,-3353.38C432.1,-3195.07 700.34,-1991.42 744,-1795.47"/>
<polygon fill="#9760d3" stroke="#9760d3" points="747.42,-1796.22 746.18,-1785.7 740.59,-1794.69 747.42,-1796.22"/>
</g>
<!-- at_invitation_flutter -->
<g id="node24" class="node">
<title>at_invitation_flutter</title>
<polygon fill="none" stroke="#b653c9" points="3927,-2880.55 3769,-2880.55 3769,-2844.55 3927,-2844.55 3927,-2880.55"/>
<text text-anchor="middle" x="3848" y="-2858.85" font-family="Times,serif" font-size="14.00">at_invitation_flutter</text>
</g>
<!-- at_invitation_flutter&#45;&gt;at_client_mobile -->
<g id="edge87" class="edge">
<title>at_invitation_flutter&#45;&gt;at_client_mobile</title>
<path fill="none" stroke="#d9577c" d="M3822.82,-2844.39C3700.13,-2760.78 3165.26,-2396.3 3024.85,-2300.62"/>
<polygon fill="#d9577c" stroke="#d9577c" points="3026.42,-2297.45 3016.19,-2294.71 3022.48,-2303.24 3026.42,-2297.45"/>
</g>
<!-- at_invitation_flutter&#45;&gt;at_common_flutter -->
<g id="edge88" class="edge">
<title>at_invitation_flutter&#45;&gt;at_common_flutter</title>
<path fill="none" stroke="#bf681f" d="M3835.28,-2844.39C3773.78,-2761.45 3507.35,-2402.1 3433.84,-2302.96"/>
<polygon fill="#bf681f" stroke="#bf681f" points="3436.49,-2300.66 3427.73,-2294.71 3430.87,-2304.83 3436.49,-2300.66"/>
</g>
<!-- at_invitation_flutter&#45;&gt;at_commons -->
<g id="edge89" class="edge">
<title>at_invitation_flutter&#45;&gt;at_commons</title>
<path fill="none" stroke="#7eceb0" d="M3848.3,-2844.53C3850.06,-2742.95 3859,-2206.44 3859,-1768.55 3859,-1768.55 3859,-1768.55 3859,-1257.55 3859,-1023.2 3970.54,-912.82 3822,-731.55 3593.26,-452.41 2391.4,-285.76 2101.14,-249.21"/>
<polygon fill="#7eceb0" stroke="#7eceb0" points="2101.16,-245.68 2090.8,-247.91 2100.29,-252.63 2101.16,-245.68"/>
</g>
<!-- at_invitation_flutter&#45;&gt;at_lookup -->
<g id="edge90" class="edge">
<title>at_invitation_flutter&#45;&gt;at_lookup</title>
<path fill="none" stroke="#94d42d" d="M3792.83,-2844.5C3628.19,-2791.35 3132.67,-2614.75 2823,-2325.55 2794.42,-2298.86 2802.71,-2280.01 2777,-2250.55 2596.28,-2043.48 2320.38,-1854.7 2223.29,-1791.19"/>
<polygon fill="#94d42d" stroke="#94d42d" points="2225.01,-1788.14 2214.72,-1785.61 2221.19,-1794 2225.01,-1788.14"/>
</g>
<!-- at_invitation_flutter&#45;&gt;at_utils -->
<g id="edge91" class="edge">
<title>at_invitation_flutter&#45;&gt;at_utils</title>
<path fill="none" stroke="#75e849" d="M3842.96,-2844.16C3804.31,-2710.89 3555.27,-1853.59 3513,-1741.55 3425.11,-1508.6 3460.93,-1402.53 3279,-1232.55 2899.32,-877.82 2232.34,-776.59 2054.58,-755.33"/>
<polygon fill="#75e849" stroke="#75e849" points="2054.88,-751.84 2044.54,-754.15 2054.07,-758.79 2054.88,-751.84"/>
</g>
<!-- at_location_flutter&#45;&gt;at_client -->
<g id="edge92" class="edge">
<title>at_location_flutter&#45;&gt;at_client</title>
<path fill="none" stroke="#61d4fc" d="M3178.7,-3353.17C3125.93,-3292.38 2949.36,-3082.13 2851,-2880.55 2737.86,-2648.7 2719.2,-2580.69 2681,-2325.55 2648.97,-2111.63 2801.38,-1871.27 2855.52,-1793.95"/>
<polygon fill="#61d4fc" stroke="#61d4fc" points="2858.4,-1795.93 2861.32,-1785.74 2852.69,-1791.88 2858.4,-1795.93"/>
</g>
<!-- at_location_flutter&#45;&gt;at_client_mobile -->
<g id="edge93" class="edge">
<title>at_location_flutter&#45;&gt;at_client_mobile</title>
<path fill="none" stroke="#d9577c" d="M3182.48,-3353.33C3142.39,-3292.25 3009.09,-3079.01 2965,-2880.55 2916.62,-2662.78 2966.69,-2390.19 2984.92,-2304.56"/>
<polygon fill="#d9577c" stroke="#d9577c" points="2988.38,-2305.13 2987.08,-2294.62 2981.54,-2303.65 2988.38,-2305.13"/>
</g>
<!-- at_location_flutter&#45;&gt;at_common_flutter -->
<g id="edge94" class="edge">
<title>at_location_flutter&#45;&gt;at_common_flutter</title>
<path fill="none" stroke="#bf681f" d="M3237.77,-3353.46C3403.4,-3287.83 3987.37,-3047.26 4086,-2880.55 4256.48,-2592.4 3674.38,-2365.02 3477.68,-2297.84"/>
<polygon fill="#bf681f" stroke="#bf681f" points="3478.65,-2294.48 3468.05,-2294.58 3476.4,-2301.11 3478.65,-2294.48"/>
</g>
<!-- at_location_flutter&#45;&gt;at_commons -->
<g id="edge95" class="edge">
<title>at_location_flutter&#45;&gt;at_commons</title>
<path fill="none" stroke="#7eceb0" d="M3177.69,-3353.33C3119.29,-3291.39 2916.05,-3073.42 2764,-2880.55 2274.54,-2259.7 2165.1,-2048.62 1995,-1276.55 1942.28,-1037.27 1881.25,-974.63 1912,-731.55 1934.85,-550.9 2003.32,-341.51 2028.54,-268.39"/>
<polygon fill="#7eceb0" stroke="#7eceb0" points="2031.96,-269.2 2031.93,-258.61 2025.35,-266.9 2031.96,-269.2"/>
</g>
<!-- at_location_flutter&#45;&gt;at_contact -->
<g id="edge96" class="edge">
<title>at_location_flutter&#45;&gt;at_contact</title>
<path fill="none" stroke="#250aa2" d="M3188.46,-3353.45C3168.59,-3291.04 3100.86,-3069.34 3079,-2880.55 3020.76,-2377.51 3369.06,-2176.07 3109,-1741.55 2916.8,-1420.43 2429.31,-1301.02 2265.02,-1269.13"/>
<polygon fill="#250aa2" stroke="#250aa2" points="2265.61,-1265.68 2255.13,-1267.24 2264.3,-1272.55 2265.61,-1265.68"/>
</g>
<!-- at_location_flutter&#45;&gt;at_contacts_flutter -->
<g id="edge97" class="edge">
<title>at_location_flutter&#45;&gt;at_contacts_flutter</title>
<path fill="none" stroke="#1267b5" d="M3210.35,-3353.39C3282.09,-3278.09 3569.23,-2976.68 3653.58,-2888.13"/>
<polygon fill="#1267b5" stroke="#1267b5" points="3656.29,-2890.36 3660.66,-2880.71 3651.23,-2885.53 3656.29,-2890.36"/>
</g>
<!-- at_location_flutter&#45;&gt;at_lookup -->
<g id="edge98" class="edge">
<title>at_location_flutter&#45;&gt;at_lookup</title>
<path fill="none" stroke="#94d42d" d="M3178.61,-3353.51C3092.95,-3258.01 2669.77,-2777.44 2415,-2325.55 2306.31,-2132.77 2222,-1877.43 2196.2,-1795.24"/>
<polygon fill="#94d42d" stroke="#94d42d" points="2199.53,-1794.17 2193.21,-1785.67 2192.85,-1796.25 2199.53,-1794.17"/>
</g>
<!-- at_location_flutter&#45;&gt;at_utils -->
<g id="edge99" class="edge">
<title>at_location_flutter&#45;&gt;at_utils</title>
<path fill="none" stroke="#75e849" d="M3190.05,-3353.32C3175.86,-3290.48 3127.54,-3067.51 3112,-2880.55 3088.67,-2599.75 3203.32,-2531.59 3183,-2250.55 3166.51,-2022.55 3209.12,-1947.06 3109,-1741.55 2860.27,-1230.99 2221.64,-863.24 2051.93,-772.36"/>
<polygon fill="#75e849" stroke="#75e849" points="2053.52,-769.24 2043.05,-767.63 2050.23,-775.42 2053.52,-769.24"/>
</g>
<!-- at_login_flutter -->
<g id="node26" class="node">
<title>at_login_flutter</title>
<polygon fill="none" stroke="#7ceee7" points="3246.5,-3920.55 3121.5,-3920.55 3121.5,-3884.55 3246.5,-3884.55 3246.5,-3920.55"/>
<text text-anchor="middle" x="3184" y="-3898.85" font-family="Times,serif" font-size="14.00">at_login_flutter</text>
</g>
<!-- at_login_flutter&#45;&gt;at_client -->
<g id="edge100" class="edge">
<title>at_login_flutter&#45;&gt;at_client</title>
<path fill="none" stroke="#61d4fc" d="M3138.77,-3884.38C3015.7,-3834.84 2675.48,-3678.57 2547,-3420.55 2315.17,-2955 2413,-2747.3 2567,-2250.55 2627.84,-2054.31 2791.13,-1860.16 2851.32,-1793.13"/>
<polygon fill="#61d4fc" stroke="#61d4fc" points="2854.02,-1795.36 2858.13,-1785.59 2848.83,-1790.66 2854.02,-1795.36"/>
</g>
<!-- at_login_flutter&#45;&gt;at_client_mobile -->
<g id="edge101" class="edge">
<title>at_login_flutter&#45;&gt;at_client_mobile</title>
<path fill="none" stroke="#d9577c" d="M3157.92,-3884.53C3076.28,-3829.46 2825.8,-3646.55 2737,-3420.55 2568.92,-2992.79 2895.85,-2429.07 2974.53,-2303.19"/>
<polygon fill="#d9577c" stroke="#d9577c" points="2977.59,-2304.9 2979.96,-2294.57 2971.67,-2301.17 2977.59,-2304.9"/>
</g>
<!-- at_login_flutter&#45;&gt;at_commons -->
<g id="edge102" class="edge">
<title>at_login_flutter&#45;&gt;at_commons</title>
<path fill="none" stroke="#7eceb0" d="M3246.85,-3884.93C3504.84,-3812.55 4469,-3499.49 4469,-2863.55 4469,-2863.55 4469,-2863.55 4469,-1257.55 4469,-950.18 4281.51,-893.07 4020,-731.55 3352.97,-319.57 2359.01,-253.71 2100.99,-243.42"/>
<polygon fill="#7eceb0" stroke="#7eceb0" points="2100.82,-239.91 2090.69,-243.02 2100.55,-246.9 2100.82,-239.91"/>
</g>
<!-- at_login_flutter&#45;&gt;at_server_status -->
<g id="edge103" class="edge">
<title>at_login_flutter&#45;&gt;at_server_status</title>
<path fill="none" stroke="#320113" d="M3121.2,-3887.63C2956.55,-3847.55 2511.07,-3715.42 2307,-3420.55 2048.76,-3047.42 2119.78,-2440.37 2139.67,-2304.92"/>
<polygon fill="#320113" stroke="#320113" points="2143.19,-2305.04 2141.22,-2294.63 2136.27,-2304 2143.19,-2305.04"/>
</g>
<!-- at_login_flutter&#45;&gt;at_utils -->
<g id="edge104" class="edge">
<title>at_login_flutter&#45;&gt;at_utils</title>
<path fill="none" stroke="#75e849" d="M3121.32,-3900.28C2868.48,-3892.37 1907.06,-3835.1 1278,-3420.55 1022.26,-3252.02 556.89,-2609.06 441,-2325.55 257.19,-1875.89 128.06,-1603.25 442,-1232.55 651.7,-984.94 1730.45,-796.24 1964.97,-757.76"/>
<polygon fill="#75e849" stroke="#75e849" points="1965.87,-761.16 1975.18,-756.09 1964.74,-754.25 1965.87,-761.16"/>
</g>
<!-- at_lookup&#45;&gt;at_chops -->
<g id="edge107" class="edge">
<title>at_lookup&#45;&gt;at_chops</title>
<path fill="none" stroke="#8fb4d4" d="M2183.94,-1749.39C2166.28,-1674.77 2096.06,-1378.12 2074.4,-1286.59"/>
<polygon fill="#8fb4d4" stroke="#8fb4d4" points="2077.77,-1285.63 2072.06,-1276.71 2070.96,-1287.24 2077.77,-1285.63"/>
</g>
<!-- at_lookup&#45;&gt;at_commons -->
<g id="edge106" class="edge">
<title>at_lookup&#45;&gt;at_commons</title>
<path fill="none" stroke="#7eceb0" d="M2186.74,-1749.2C2182.19,-1685.94 2166.29,-1461.69 2156,-1276.55 2142.54,-1034.45 2159.23,-972.38 2131,-731.55 2110.1,-553.27 2062.06,-342.41 2044.55,-268.64"/>
<polygon fill="#7eceb0" stroke="#7eceb0" points="2047.92,-267.69 2042.19,-258.77 2041.11,-269.31 2047.92,-267.69"/>
</g>
<!-- at_lookup&#45;&gt;at_utils -->
<g id="edge105" class="edge">
<title>at_lookup&#45;&gt;at_utils</title>
<path fill="none" stroke="#75e849" d="M2179.85,-1749.28C2151.04,-1687.18 2053.91,-1468.73 2020,-1276.55 1986.8,-1088.42 2001.18,-856.58 2007.55,-778.04"/>
<polygon fill="#75e849" stroke="#75e849" points="2011.04,-778.25 2008.39,-767.99 2004.07,-777.67 2011.04,-778.25"/>
</g>
<!-- at_notify_flutter -->
<g id="node28" class="node">
<title>at_notify_flutter</title>
<polygon fill="none" stroke="#19e4c3" points="4076.5,-2880.55 3945.5,-2880.55 3945.5,-2844.55 4076.5,-2844.55 4076.5,-2880.55"/>
<text text-anchor="middle" x="4011" y="-2858.85" font-family="Times,serif" font-size="14.00">at_notify_flutter</text>
</g>
<!-- at_notify_flutter&#45;&gt;at_client -->
<g id="edge108" class="edge">
<title>at_notify_flutter&#45;&gt;at_client</title>
<path fill="none" stroke="#61d4fc" d="M3985.38,-2844.34C3892.29,-2781.23 3565.27,-2554.22 3332,-2325.55 3140.93,-2138.26 2949.69,-1875.49 2891.72,-1793.79"/>
<polygon fill="#61d4fc" stroke="#61d4fc" points="2894.56,-1791.74 2885.92,-1785.6 2888.84,-1795.78 2894.56,-1791.74"/>
</g>
<!-- at_notify_flutter&#45;&gt;at_client_mobile -->
<g id="edge109" class="edge">
<title>at_notify_flutter&#45;&gt;at_client_mobile</title>
<path fill="none" stroke="#d9577c" d="M3981.3,-2844.55C3835.38,-2761 3194.79,-2394.23 3029.85,-2299.79"/>
<polygon fill="#d9577c" stroke="#d9577c" points="3031.42,-2296.66 3021.01,-2294.73 3027.95,-2302.74 3031.42,-2296.66"/>
</g>
<!-- at_notify_flutter&#45;&gt;at_common_flutter -->
<g id="edge110" class="edge">
<title>at_notify_flutter&#45;&gt;at_common_flutter</title>
<path fill="none" stroke="#bf681f" d="M3993.49,-2844.39C3908.5,-2761.12 3539.15,-2399.2 3439.73,-2301.78"/>
<polygon fill="#bf681f" stroke="#bf681f" points="3442.11,-2299.21 3432.52,-2294.71 3437.21,-2304.21 3442.11,-2299.21"/>
</g>
<!-- at_notify_flutter&#45;&gt;at_commons -->
<g id="edge111" class="edge">
<title>at_notify_flutter&#45;&gt;at_commons</title>
<path fill="none" stroke="#7eceb0" d="M4009.45,-2844.55C4000.31,-2743.07 3954,-2207.01 3954,-1768.55 3954,-1768.55 3954,-1768.55 3954,-1257.55 3954,-1019.07 4011.01,-905.61 3848,-731.55 3597.84,-464.43 2390.97,-288.56 2100.82,-249.69"/>
<polygon fill="#7eceb0" stroke="#7eceb0" points="2101.27,-246.22 2090.89,-248.37 2100.34,-253.16 2101.27,-246.22"/>
</g>
<!-- at_onboarding_cli&#45;&gt;at_auth -->
<g id="edge112" class="edge">
<title>at_onboarding_cli&#45;&gt;at_auth</title>
<path fill="none" stroke="#0f9477" d="M2017.59,-2844.39C2015.61,-2761.95 2007.09,-2406.43 2004.65,-2304.79"/>
<polygon fill="#0f9477" stroke="#0f9477" points="2008.15,-2304.63 2004.41,-2294.71 2001.15,-2304.8 2008.15,-2304.63"/>
</g>
<!-- at_onboarding_cli&#45;&gt;at_chops -->
<g id="edge113" class="edge">
<title>at_onboarding_cli&#45;&gt;at_chops</title>
<path fill="none" stroke="#8fb4d4" d="M2015.47,-2844.48C2005.8,-2778.1 1971.07,-2530.7 1960,-2325.55 1937.6,-1910.4 2036.64,-1407.61 2062.14,-1286.65"/>
<polygon fill="#8fb4d4" stroke="#8fb4d4" points="2065.59,-1287.27 2064.24,-1276.76 2058.74,-1285.81 2065.59,-1287.27"/>
</g>
<!-- at_onboarding_cli&#45;&gt;at_cli_commons -->
<g id="edge119" class="edge">
<title>at_onboarding_cli&#45;&gt;at_cli_commons</title>
<path fill="none" stroke="#c99192" d="M2026.5,-2880.71C2057.22,-2955.32 2158.65,-3251.97 2185.02,-3343.51"/>
<polygon fill="#c99192" stroke="#c99192" points="2181.73,-3344.71 2187.8,-3353.39 2188.47,-3342.82 2181.73,-3344.71"/>
</g>
<!-- at_onboarding_cli&#45;&gt;at_client -->
<g id="edge114" class="edge">
<title>at_onboarding_cli&#45;&gt;at_client</title>
<path fill="none" stroke="#61d4fc" d="M2031.09,-2844.48C2086.48,-2772.28 2307.21,-2484.88 2491,-2250.55 2628.86,-2074.78 2796.9,-1864.74 2853.95,-1793.55"/>
<polygon fill="#61d4fc" stroke="#61d4fc" points="2856.83,-1795.56 2860.35,-1785.57 2851.37,-1791.18 2856.83,-1795.56"/>
</g>
<!-- at_onboarding_cli&#45;&gt;at_commons -->
<g id="edge115" class="edge">
<title>at_onboarding_cli&#45;&gt;at_commons</title>
<path fill="none" stroke="#7eceb0" d="M2015,-2844.26C1997.56,-2742.21 1910,-2208.07 1910,-1768.55 1910,-1768.55 1910,-1768.55 1910,-1257.55 1910,-861.89 2006.74,-386.31 2032.02,-268.79"/>
<polygon fill="#7eceb0" stroke="#7eceb0" points="2035.47,-269.36 2034.17,-258.84 2028.63,-267.88 2035.47,-269.36"/>
</g>
<!-- at_onboarding_cli&#45;&gt;at_lookup -->
<g id="edge116" class="edge">
<title>at_onboarding_cli&#45;&gt;at_lookup</title>
<path fill="none" stroke="#94d42d" d="M2018.38,-2844.42C2020.23,-2771.96 2029.7,-2483.7 2068,-2250.55 2096.91,-2074.55 2157.44,-1868.32 2179.62,-1795.59"/>
<polygon fill="#94d42d" stroke="#94d42d" points="2183.02,-1796.43 2182.61,-1785.85 2176.33,-1794.38 2183.02,-1796.43"/>
</g>
<!-- at_onboarding_cli&#45;&gt;at_server_status -->
<g id="edge117" class="edge">
<title>at_onboarding_cli&#45;&gt;at_server_status</title>
<path fill="none" stroke="#320113" d="M2021.7,-2844.39C2039.49,-2761.95 2116.19,-2406.43 2138.12,-2304.79"/>
<polygon fill="#320113" stroke="#320113" points="2141.61,-2305.23 2140.3,-2294.71 2134.77,-2303.75 2141.61,-2305.23"/>
</g>
<!-- at_onboarding_cli&#45;&gt;at_utils -->
<g id="edge118" class="edge">
<title>at_onboarding_cli&#45;&gt;at_utils</title>
<path fill="none" stroke="#75e849" d="M2015.17,-2844.5C2004.32,-2778.17 1965.41,-2530.93 1953,-2325.55 1923.7,-1840.52 1957.2,-1717.98 1979,-1232.55 1986.78,-1059.25 2002.23,-851.27 2007.87,-777.84"/>
<polygon fill="#75e849" stroke="#75e849" points="2011.38,-777.85 2008.66,-767.61 2004.4,-777.32 2011.38,-777.85"/>
</g>
<!-- at_onboarding_flutter -->
<g id="node30" class="node">
<title>at_onboarding_flutter</title>
<polygon fill="none" stroke="#a801a6" points="3455,-3389.55 3285,-3389.55 3285,-3353.55 3455,-3353.55 3455,-3389.55"/>
<text text-anchor="middle" x="3370" y="-3367.85" font-family="Times,serif" font-size="14.00">at_onboarding_flutter</text>
</g>
<!-- at_onboarding_flutter&#45;&gt;at_backupkey_flutter -->
<g id="edge120" class="edge">
<title>at_onboarding_flutter&#45;&gt;at_backupkey_flutter</title>
<path fill="none" stroke="#590b92" d="M3374.47,-3353.39C3393.9,-3278.77 3471.13,-2982.12 3494.96,-2890.59"/>
<polygon fill="#590b92" stroke="#590b92" points="3498.4,-2891.27 3497.53,-2880.71 3491.63,-2889.5 3498.4,-2891.27"/>
</g>
<!-- at_onboarding_flutter&#45;&gt;at_client -->
<g id="edge121" class="edge">
<title>at_onboarding_flutter&#45;&gt;at_client</title>
<path fill="none" stroke="#61d4fc" d="M3353.89,-3353.52C3298.47,-3293.9 3114.23,-3087 3026,-2880.55 2853.75,-2477.51 2866.85,-1924.2 2872.56,-1795.88"/>
<polygon fill="#61d4fc" stroke="#61d4fc" points="2876.07,-1795.91 2873.04,-1785.76 2869.07,-1795.58 2876.07,-1795.91"/>
</g>
<!-- at_onboarding_flutter&#45;&gt;at_client_mobile -->
<g id="edge122" class="edge">
<title>at_onboarding_flutter&#45;&gt;at_client_mobile</title>
<path fill="none" stroke="#d9577c" d="M3353.38,-3353.29C3297.24,-3293.71 3114.02,-3088.94 3041,-2880.55 2967.05,-2669.49 2981.52,-2392.45 2988.49,-2305.13"/>
<polygon fill="#d9577c" stroke="#d9577c" points="2991.99,-2305.25 2989.33,-2294.99 2985.01,-2304.66 2991.99,-2305.25"/>
</g>
<!-- at_onboarding_flutter&#45;&gt;at_commons -->
<g id="edge123" class="edge">
<title>at_onboarding_flutter&#45;&gt;at_commons</title>
<path fill="none" stroke="#7eceb0" d="M3455.29,-3355.82C3648.78,-3317.36 4119.94,-3194.28 4323,-2880.55 4468.83,-2655.25 4355,-2545.93 4355,-2277.55 4355,-2277.55 4355,-2277.55 4355,-1257.55 4355,-949.61 4165.01,-894.97 3904,-731.55 3279.2,-340.35 2349.51,-259.63 2100.97,-244.68"/>
<polygon fill="#7eceb0" stroke="#7eceb0" points="2100.87,-241.17 2090.69,-244.07 2100.46,-248.16 2100.87,-241.17"/>
</g>
<!-- at_onboarding_flutter&#45;&gt;at_server_status -->
<g id="edge124" class="edge">
<title>at_onboarding_flutter&#45;&gt;at_server_status</title>
<path fill="none" stroke="#320113" d="M3350.74,-3353.38C3209.64,-3227.59 2336.25,-2448.94 2170.97,-2301.6"/>
<polygon fill="#320113" stroke="#320113" points="2173.01,-2298.72 2163.22,-2294.68 2168.35,-2303.95 2173.01,-2298.72"/>
</g>
<!-- at_sync_ui_flutter -->
<g id="node41" class="node">
<title>at_sync_ui_flutter</title>
<polygon fill="none" stroke="#27d02d" points="3263,-2880.55 3121,-2880.55 3121,-2844.55 3263,-2844.55 3263,-2880.55"/>
<text text-anchor="middle" x="3192" y="-2858.85" font-family="Times,serif" font-size="14.00">at_sync_ui_flutter</text>
</g>
<!-- at_onboarding_flutter&#45;&gt;at_sync_ui_flutter -->
<g id="edge125" class="edge">
<title>at_onboarding_flutter&#45;&gt;at_sync_ui_flutter</title>
<path fill="none" stroke="#27d02d" d="M3363.98,-3353.39C3337.75,-3278.69 3233.41,-2981.51 3201.39,-2890.31"/>
<polygon fill="#27d02d" stroke="#27d02d" points="3204.64,-2888.98 3198.02,-2880.71 3198.03,-2891.3 3204.64,-2888.98"/>
</g>
<!-- at_onboarding_flutter&#45;&gt;at_utils -->
<g id="edge126" class="edge">
<title>at_onboarding_flutter&#45;&gt;at_utils</title>
<path fill="none" stroke="#75e849" d="M3455.01,-3355.06C3645.43,-3315.31 4104.63,-3190.2 4298,-2880.55 4440.03,-2653.12 4317,-2545.68 4317,-2277.55 4317,-2277.55 4317,-2277.55 4317,-1766.55 4317,-1252.71 2375.86,-826.67 2054.74,-759.71"/>
<polygon fill="#75e849" stroke="#75e849" points="2055.36,-756.26 2044.86,-757.65 2053.94,-763.12 2055.36,-756.26"/>
</g>
<!-- at_persistence_root_server -->
<g id="node31" class="node">
<title>at_persistence_root_server</title>
<polygon fill="none" stroke="#831d2e" points="1103.5,-1785.55 894.5,-1785.55 894.5,-1749.55 1103.5,-1749.55 1103.5,-1785.55"/>
<text text-anchor="middle" x="999" y="-1763.85" font-family="Times,serif" font-size="14.00">at_persistence_root_server</text>
</g>
<!-- at_persistence_root_server&#45;&gt;at_commons -->
<g id="edge127" class="edge">
<title>at_persistence_root_server&#45;&gt;at_commons</title>
<path fill="none" stroke="#7eceb0" d="M990.64,-1749.45C958.4,-1680.89 847.97,-1420.66 932,-1232.55 1164.17,-712.79 1818.6,-352.41 1994.19,-263.13"/>
<polygon fill="#7eceb0" stroke="#7eceb0" points="1995.8,-266.23 2003.15,-258.6 1992.64,-259.99 1995.8,-266.23"/>
</g>
<!-- at_persistence_root_server&#45;&gt;at_persistence_spec -->
<g id="edge129" class="edge">
<title>at_persistence_root_server&#45;&gt;at_persistence_spec</title>
<path fill="none" stroke="#3bfcef" d="M1000.56,-1749.39C1007.32,-1674.84 1034.19,-1378.72 1042.52,-1286.87"/>
<polygon fill="#3bfcef" stroke="#3bfcef" points="1046.03,-1286.98 1043.44,-1276.71 1039.05,-1286.35 1046.03,-1286.98"/>
</g>
<!-- at_persistence_root_server&#45;&gt;at_utils -->
<g id="edge128" class="edge">
<title>at_persistence_root_server&#45;&gt;at_utils</title>
<path fill="none" stroke="#75e849" d="M990.85,-1749.51C958.45,-1679.04 845.71,-1405.88 957,-1232.55 1194.93,-861.97 1796.59,-772.68 1965.37,-754.62"/>
<polygon fill="#75e849" stroke="#75e849" points="1965.81,-758.09 1975.39,-753.58 1965.08,-751.13 1965.81,-758.09"/>
</g>
<!-- redis -->
<g id="node47" class="node">
<title>redis</title>
<polygon fill="none" stroke="#5cceca" points="1904,-3389.55 1850,-3389.55 1850,-3353.55 1904,-3353.55 1904,-3389.55"/>
<text text-anchor="middle" x="1877" y="-3367.85" font-family="Times,serif" font-size="14.00">redis</text>
</g>
<!-- at_persistence_root_server&#45;&gt;redis -->
<g id="edge130" class="edge">
<title>at_persistence_root_server&#45;&gt;redis</title>
<path fill="none" stroke="#5cceca" d="M1058.71,-1785.6C1208.59,-1831.86 1600.83,-1975.17 1771,-2250.55 1888.82,-2441.21 1880.58,-3190.19 1877.61,-3343.17"/>
<polygon fill="#5cceca" stroke="#5cceca" points="1874.11,-3343.45 1877.4,-3353.52 1881.11,-3343.6 1874.11,-3343.45"/>
</g>
<!-- at_persistence_secondary_server&#45;&gt;at_commons -->
<g id="edge131" class="edge">
<title>at_persistence_secondary_server&#45;&gt;at_commons</title>
<path fill="none" stroke="#7eceb0" d="M752.32,-1749.54C762.1,-1681.35 803.97,-1422.32 899,-1232.55 1024.87,-981.22 1078.49,-922.25 1285,-731.55 1523.71,-511.12 1872.56,-324.96 1994.21,-263.27"/>
<polygon fill="#7eceb0" stroke="#7eceb0" points="1995.91,-266.34 2003.25,-258.7 1992.75,-260.09 1995.91,-266.34"/>
</g>
<!-- at_persistence_secondary_server&#45;&gt;at_persistence_spec -->
<g id="edge133" class="edge">
<title>at_persistence_secondary_server&#45;&gt;at_persistence_spec</title>
<path fill="none" stroke="#3bfcef" d="M759.98,-1749.39C803.58,-1674.46 977.42,-1375.7 1029.91,-1285.48"/>
<polygon fill="#3bfcef" stroke="#3bfcef" points="1033.01,-1287.11 1035.02,-1276.71 1026.96,-1283.59 1033.01,-1287.11"/>
</g>
<!-- at_persistence_secondary_server&#45;&gt;at_utils -->
<g id="edge132" class="edge">
<title>at_persistence_secondary_server&#45;&gt;at_utils</title>
<path fill="none" stroke="#75e849" d="M751.02,-1749.3C756.21,-1676.8 785.48,-1393.21 932,-1232.55 1232.77,-902.76 1801.66,-785.29 1965.07,-757.54"/>
<polygon fill="#75e849" stroke="#75e849" points="1965.96,-760.94 1975.24,-755.84 1964.8,-754.04 1965.96,-760.94"/>
</g>
<!-- at_repl -->
<g id="node35" class="node">
<title>at_repl</title>
<polygon fill="none" stroke="#1494d0" points="306,-3389.55 240,-3389.55 240,-3353.55 306,-3353.55 306,-3389.55"/>
<text text-anchor="middle" x="273" y="-3367.85" font-family="Times,serif" font-size="14.00">at_repl</text>
</g>
<!-- at_repl&#45;&gt;at_client -->
<g id="edge134" class="edge">
<title>at_repl&#45;&gt;at_client</title>
<path fill="none" stroke="#61d4fc" d="M287.34,-3353.49C400.42,-3219.05 1147.66,-2333.43 1278,-2250.55 1819.66,-1906.12 2620.58,-1796.72 2825.08,-1773.63"/>
<polygon fill="#61d4fc" stroke="#61d4fc" points="2825.65,-1777.08 2835.2,-1772.5 2824.87,-1770.13 2825.65,-1777.08"/>
</g>
<!-- at_repl&#45;&gt;at_commons -->
<g id="edge135" class="edge">
<title>at_repl&#45;&gt;at_commons</title>
<path fill="none" stroke="#7eceb0" d="M265.39,-3353.21C238.45,-3290.87 147.5,-3071.72 114,-2880.55 67.72,-2616.43 94,-2545.7 94,-2277.55 94,-2277.55 94,-2277.55 94,-1257.55 94,-387.79 1641.35,-261.28 1975.06,-244.11"/>
<polygon fill="#7eceb0" stroke="#7eceb0" points="1975.69,-247.58 1985.5,-243.58 1975.34,-240.59 1975.69,-247.58"/>
</g>
<!-- at_repl&#45;&gt;at_onboarding_cli -->
<g id="edge136" class="edge">
<title>at_repl&#45;&gt;at_onboarding_cli</title>
<path fill="none" stroke="#514d2d" d="M306.22,-3357.05C309.51,-3355.83 312.81,-3354.64 316,-3353.55 933.93,-3143 1697.53,-2944.67 1940.19,-2883.1"/>
<polygon fill="#514d2d" stroke="#514d2d" points="1941.14,-2886.47 1949.98,-2880.62 1939.42,-2879.68 1941.14,-2886.47"/>
</g>
<!-- at_repl&#45;&gt;at_utils -->
<g id="edge137" class="edge">
<title>at_repl&#45;&gt;at_utils</title>
<path fill="none" stroke="#75e849" d="M270.97,-3353.28C249.68,-3168.38 73.93,-1554.48 386,-1232.55 619.72,-991.44 1728.67,-796.96 1965.45,-757.77"/>
<polygon fill="#75e849" stroke="#75e849" points="1966.13,-761.2 1975.43,-756.12 1964.99,-754.29 1966.13,-761.2"/>
</g>
<!-- at_root_server -->
<g id="node36" class="node">
<title>at_root_server</title>
<polygon fill="none" stroke="#9dd431" points="890.5,-2294.55 771.5,-2294.55 771.5,-2258.55 890.5,-2258.55 890.5,-2294.55"/>
<text text-anchor="middle" x="831" y="-2272.85" font-family="Times,serif" font-size="14.00">at_root_server</text>
</g>
<!-- at_root_server&#45;&gt;at_commons -->
<g id="edge138" class="edge">
<title>at_root_server&#45;&gt;at_commons</title>
<path fill="none" stroke="#7eceb0" d="M810.82,-2258.16C744.78,-2199.75 535.24,-2002.02 463,-1785.55 400.49,-1598.22 176.36,-1985 672,-1232.55 843.5,-972.19 915.37,-920.97 1163,-731.55 1451.66,-510.75 1851.34,-324.24 1989.06,-262.91"/>
<polygon fill="#7eceb0" stroke="#7eceb0" points="1990.8,-265.97 1998.52,-258.71 1987.96,-259.57 1990.8,-265.97"/>
</g>
<!-- at_root_server&#45;&gt;at_persistence_root_server -->
<g id="edge141" class="edge">
<title>at_root_server&#45;&gt;at_persistence_root_server</title>
<path fill="none" stroke="#831d2e" d="M836.69,-2258.39C861.44,-2183.69 959.91,-1886.51 990.13,-1795.31"/>
<polygon fill="#831d2e" stroke="#831d2e" points="993.49,-1796.3 993.32,-1785.71 986.85,-1794.1 993.49,-1796.3"/>
</g>
<!-- at_root_server&#45;&gt;at_server_spec -->
<g id="edge140" class="edge">
<title>at_root_server&#45;&gt;at_server_spec</title>
<path fill="none" stroke="#e6f023" d="M821.32,-2258.39C779.05,-2183.46 610.52,-1884.7 559.63,-1794.48"/>
<polygon fill="#e6f023" stroke="#e6f023" points="562.64,-1792.7 554.68,-1785.71 556.54,-1796.14 562.64,-1792.7"/>
</g>
<!-- at_root_server&#45;&gt;at_utils -->
<g id="edge139" class="edge">
<title>at_root_server&#45;&gt;at_utils</title>
<path fill="none" stroke="#75e849" d="M803.67,-2258.41C707.17,-2195.55 392.52,-1969.43 475,-1741.55 720.34,-1063.71 1739.75,-808.38 1965.57,-759.59"/>
<polygon fill="#75e849" stroke="#75e849" points="1966.37,-763 1975.42,-757.49 1964.91,-756.15 1966.37,-763"/>
</g>
<!-- at_secondary -->
<g id="node37" class="node">
<title>at_secondary</title>
<polygon fill="none" stroke="#1b8948" points="1122,-2294.55 1012,-2294.55 1012,-2258.55 1122,-2258.55 1122,-2294.55"/>
<text text-anchor="middle" x="1067" y="-2272.85" font-family="Times,serif" font-size="14.00">at_secondary</text>
</g>
<!-- at_secondary&#45;&gt;at_chops -->
<g id="edge144" class="edge">
<title>at_secondary&#45;&gt;at_chops</title>
<path fill="none" stroke="#8fb4d4" d="M1093.82,-2258.54C1184.58,-2200.16 1485.99,-1999.74 1691,-1785.55 1855.61,-1613.57 2006,-1365.94 2052.94,-1285.7"/>
<polygon fill="#8fb4d4" stroke="#8fb4d4" points="2056.14,-1287.17 2058.14,-1276.77 2050.09,-1283.65 2056.14,-1287.17"/>
</g>
<!-- at_secondary&#45;&gt;at_commons -->
<g id="edge142" class="edge">
<title>at_secondary&#45;&gt;at_commons</title>
<path fill="none" stroke="#7eceb0" d="M1012.93,-2258.51C851.45,-2204.21 389.08,-2022.13 475,-1741.55 637.4,-1211.21 791.73,-1098.09 1208,-731.55 1468.93,-501.8 1853.01,-322.23 1988.49,-262.72"/>
<polygon fill="#7eceb0" stroke="#7eceb0" points="1990.05,-265.85 1997.81,-258.64 1987.25,-259.44 1990.05,-265.85"/>
</g>
<!-- at_secondary&#45;&gt;at_lookup -->
<g id="edge145" class="edge">
<title>at_secondary&#45;&gt;at_lookup</title>
<path fill="none" stroke="#94d42d" d="M1104.62,-2258.54C1272.75,-2182.5 1955.24,-1873.82 2141.08,-1789.77"/>
<polygon fill="#94d42d" stroke="#94d42d" points="2142.65,-1792.91 2150.32,-1785.6 2139.76,-1786.53 2142.65,-1792.91"/>
</g>
<!-- at_secondary&#45;&gt;at_persistence_secondary_server -->
<g id="edge148" class="edge">
<title>at_secondary&#45;&gt;at_persistence_secondary_server</title>
<path fill="none" stroke="#9760d3" d="M1056.27,-2258.39C1009.38,-2183.39 822.25,-1884.1 766.04,-1794.21"/>
<polygon fill="#9760d3" stroke="#9760d3" points="769,-1792.33 760.73,-1785.71 763.06,-1796.04 769,-1792.33"/>
</g>
<!-- at_secondary&#45;&gt;at_persistence_spec -->
<g id="edge147" class="edge">
<title>at_secondary&#45;&gt;at_persistence_spec</title>
<path fill="none" stroke="#3bfcef" d="M1070.41,-2258.51C1083.26,-2192.23 1127.3,-1945.3 1113,-1741.55 1100.79,-1567.55 1064.06,-1360.8 1050.29,-1287.22"/>
<polygon fill="#3bfcef" stroke="#3bfcef" points="1053.65,-1286.14 1048.36,-1276.97 1046.77,-1287.44 1053.65,-1286.14"/>
</g>
<!-- at_secondary&#45;&gt;at_server_spec -->
<g id="edge146" class="edge">
<title>at_secondary&#45;&gt;at_server_spec</title>
<path fill="none" stroke="#e6f023" d="M1049.33,-2258.39C971.72,-2183.01 660.85,-1881.07 570.03,-1792.86"/>
<polygon fill="#e6f023" stroke="#e6f023" points="572.27,-1790.16 562.66,-1785.71 567.4,-1795.18 572.27,-1790.16"/>
</g>
<!-- at_secondary&#45;&gt;at_utils -->
<g id="edge143" class="edge">
<title>at_secondary&#45;&gt;at_utils</title>
<path fill="none" stroke="#75e849" d="M1077.59,-2258.43C1172.61,-2104.77 1877.62,-964.63 1993.81,-776.73"/>
<polygon fill="#75e849" stroke="#75e849" points="1996.9,-778.39 1999.19,-768.04 1990.95,-774.7 1996.9,-778.39"/>
</g>
<!-- at_secondary_proxy -->
<g id="node38" class="node">
<title>at_secondary_proxy</title>
<polygon fill="none" stroke="#35c7f7" points="1759,-3389.55 1601,-3389.55 1601,-3353.55 1759,-3353.55 1759,-3389.55"/>
<text text-anchor="middle" x="1680" y="-3367.85" font-family="Times,serif" font-size="14.00">at_secondary_proxy</text>
</g>
<!-- at_secondary_proxy&#45;&gt;at_commons -->
<g id="edge149" class="edge">
<title>at_secondary_proxy&#45;&gt;at_commons</title>
<path fill="none" stroke="#7eceb0" d="M1659.87,-3353.51C1503.63,-3221.18 490.36,-2362.15 472,-2325.55 254.23,-1891.32 241.59,-1660.21 472,-1232.55 808.41,-608.15 1726.65,-324.27 1975.23,-257.46"/>
<polygon fill="#7eceb0" stroke="#7eceb0" points="1976.42,-260.76 1985.18,-254.8 1974.62,-254 1976.42,-260.76"/>
</g>
<!-- at_secondary_proxy&#45;&gt;at_lookup -->
<g id="edge151" class="edge">
<title>at_secondary_proxy&#45;&gt;at_lookup</title>
<path fill="none" stroke="#94d42d" d="M1686.3,-3353.41C1709.13,-3290.85 1788.66,-3068.73 1837,-2880.55 1907.98,-2604.24 1870.98,-2521.59 1960,-2250.55 2019.85,-2068.32 2132.17,-1865.33 2172.83,-1794.56"/>
<polygon fill="#94d42d" stroke="#94d42d" points="2175.89,-1796.25 2177.86,-1785.84 2169.83,-1792.75 2175.89,-1796.25"/>
</g>
<!-- at_secondary_proxy&#45;&gt;at_utils -->
<g id="edge150" class="edge">
<title>at_secondary_proxy&#45;&gt;at_utils</title>
<path fill="none" stroke="#75e849" d="M1681.18,-3353.34C1691.58,-3203.88 1770.41,-2110.14 1909,-1232.55 1936.58,-1057.88 1985.52,-850.83 2003.31,-777.74"/>
<polygon fill="#75e849" stroke="#75e849" points="2006.72,-778.49 2005.7,-767.94 1999.92,-776.83 2006.72,-778.49"/>
</g>
<!-- at_server_spec&#45;&gt;at_commons -->
<g id="edge152" class="edge">
<title>at_server_spec&#45;&gt;at_commons</title>
<path fill="none" stroke="#7eceb0" d="M552.9,-1749.28C602.15,-1643.08 877.18,-1071.95 1247,-731.55 1493.98,-504.22 1861.18,-323.09 1990.7,-262.95"/>
<polygon fill="#7eceb0" stroke="#7eceb0" points="1992.37,-266.03 1999.97,-258.66 1989.43,-259.68 1992.37,-266.03"/>
</g>
<!-- at_server_status&#45;&gt;at_commons -->
<g id="edge153" class="edge">
<title>at_server_status&#45;&gt;at_commons</title>
<path fill="none" stroke="#7eceb0" d="M2143.9,-2258.34C2143.25,-2158.96 2138.95,-1648.59 2117,-1232.55 2096.8,-849.78 2052.19,-385.31 2040.73,-268.97"/>
<polygon fill="#7eceb0" stroke="#7eceb0" points="2044.19,-268.42 2039.72,-258.81 2037.23,-269.1 2044.19,-268.42"/>
</g>
<!-- at_server_status&#45;&gt;at_lookup -->
<g id="edge155" class="edge">
<title>at_server_status&#45;&gt;at_lookup</title>
<path fill="none" stroke="#94d42d" d="M2145.49,-2258.39C2151.96,-2183.84 2177.66,-1887.72 2185.63,-1795.87"/>
<polygon fill="#94d42d" stroke="#94d42d" points="2189.13,-1795.97 2186.51,-1785.71 2182.16,-1795.37 2189.13,-1795.97"/>
</g>
<!-- at_server_status&#45;&gt;at_utils -->
<g id="edge154" class="edge">
<title>at_server_status&#45;&gt;at_utils</title>
<path fill="none" stroke="#75e849" d="M2140.83,-2258.54C2123.08,-2162.4 2035.96,-1677.3 2009,-1276.55 2007.69,-1257.04 2008.98,-1252.11 2009,-1232.55 2009.18,-1059.43 2009.72,-851.34 2009.92,-777.86"/>
<polygon fill="#75e849" stroke="#75e849" points="2013.42,-777.64 2009.95,-767.63 2006.42,-777.62 2013.42,-777.64"/>
</g>
<!-- at_sync_ui_flutter&#45;&gt;at_client -->
<g id="edge156" class="edge">
<title>at_sync_ui_flutter&#45;&gt;at_client</title>
<path fill="none" stroke="#61d4fc" d="M3189.58,-2844.27C3179.09,-2771.21 3135.04,-2480.87 3066,-2250.55 3012.4,-2071.73 2919.75,-1866.54 2886.4,-1794.88"/>
<polygon fill="#61d4fc" stroke="#61d4fc" points="2889.51,-1793.25 2882.1,-1785.67 2883.16,-1796.21 2889.51,-1793.25"/>
</g>
<!-- at_sync_ui_flutter&#45;&gt;at_client_mobile -->
<g id="edge157" class="edge">
<title>at_sync_ui_flutter&#45;&gt;at_client_mobile</title>
<path fill="none" stroke="#d9577c" d="M3186.09,-2844.39C3157.66,-2761.79 3034.86,-2404.99 3000.16,-2304.17"/>
<polygon fill="#d9577c" stroke="#d9577c" points="3003.47,-2303.03 2996.91,-2294.71 2996.85,-2305.31 3003.47,-2303.03"/>
</g>
<!-- at_sync_ui_flutter&#45;&gt;at_common_flutter -->
<g id="edge158" class="edge">
<title>at_sync_ui_flutter&#45;&gt;at_common_flutter</title>
<path fill="none" stroke="#bf681f" d="M3198.55,-2844.39C3230.1,-2761.79 3366.34,-2404.99 3404.83,-2304.17"/>
<polygon fill="#bf681f" stroke="#bf681f" points="3408.15,-2305.31 3408.45,-2294.71 3401.61,-2302.81 3408.15,-2305.31"/>
</g>
<!-- at_theme_flutter -->
<g id="node42" class="node">
<title>at_theme_flutter</title>
<polygon fill="none" stroke="#2ec850" points="4289,-2880.55 4155,-2880.55 4155,-2844.55 4289,-2844.55 4289,-2880.55"/>
<text text-anchor="middle" x="4222" y="-2858.85" font-family="Times,serif" font-size="14.00">at_theme_flutter</text>
</g>
<!-- at_theme_flutter&#45;&gt;at_client_mobile -->
<g id="edge159" class="edge">
<title>at_theme_flutter&#45;&gt;at_client_mobile</title>
<path fill="none" stroke="#d9577c" d="M4186.16,-2844.55C4009.51,-2760.75 3232.24,-2392 3036.08,-2298.94"/>
<polygon fill="#d9577c" stroke="#d9577c" points="3037.45,-2295.72 3026.92,-2294.59 3034.45,-2302.04 3037.45,-2295.72"/>
</g>
<!-- at_theme_flutter&#45;&gt;at_common_flutter -->
<g id="edge160" class="edge">
<title>at_theme_flutter&#45;&gt;at_common_flutter</title>
<path fill="none" stroke="#bf681f" d="M4198.29,-2844.39C4082.75,-2760.78 3579.09,-2396.3 3446.88,-2300.62"/>
<polygon fill="#bf681f" stroke="#bf681f" points="3448.87,-2297.74 3438.72,-2294.71 3444.77,-2303.41 3448.87,-2297.74"/>
</g>
<!-- at_theme_flutter&#45;&gt;at_commons -->
<g id="edge161" class="edge">
<title>at_theme_flutter&#45;&gt;at_commons</title>
<path fill="none" stroke="#7eceb0" d="M4218,-2844.31C4194.74,-2742.54 4078,-2209.72 4078,-1768.55 4078,-1768.55 4078,-1768.55 4078,-1257.55 4078,-1006.97 4061.47,-898.95 3875,-731.55 3598.89,-483.67 2390.82,-293.24 2100.77,-250.55"/>
<polygon fill="#7eceb0" stroke="#7eceb0" points="2101.25,-247.08 2090.85,-249.09 2100.23,-254.01 2101.25,-247.08"/>
</g>
<!-- at_theme_flutter&#45;&gt;at_utils -->
<g id="edge162" class="edge">
<title>at_theme_flutter&#45;&gt;at_utils</title>
<path fill="none" stroke="#75e849" d="M4217.37,-2844.21C4178.74,-2702.81 3896.85,-1731.68 3314,-1232.55 2909.58,-886.22 2233.82,-778.85 2054.7,-755.78"/>
<polygon fill="#75e849" stroke="#75e849" points="2054.95,-752.29 2044.59,-754.5 2054.07,-759.23 2054.95,-752.29"/>
</g>
<!-- at_utils&#45;&gt;at_commons -->
<g id="edge163" class="edge">
<title>at_utils&#45;&gt;at_commons</title>
<path fill="none" stroke="#7eceb0" d="M2010.95,-731.39C2015.06,-656.84 2031.42,-360.72 2036.49,-268.87"/>
<polygon fill="#7eceb0" stroke="#7eceb0" points="2040,-268.88 2037.05,-258.71 2033.01,-268.5 2040,-268.88"/>
</g>
<!-- at_ve_doctor -->
<g id="node44" class="node">
<title>at_ve_doctor</title>
<polygon fill="none" stroke="#193e4e" points="679.5,-3389.55 572.5,-3389.55 572.5,-3353.55 679.5,-3353.55 679.5,-3389.55"/>
<text text-anchor="middle" x="626" y="-3367.85" font-family="Times,serif" font-size="14.00">at_ve_doctor</text>
</g>
<!-- at_ve_doctor&#45;&gt;at_server_status -->
<g id="edge164" class="edge">
<title>at_ve_doctor&#45;&gt;at_server_status</title>
<path fill="none" stroke="#320113" d="M679.72,-3359.75C855.14,-3322.16 1420.07,-3182.55 1771,-2880.55 1972.67,-2707 2099.7,-2396.65 2134.36,-2304.22"/>
<polygon fill="#320113" stroke="#320113" points="2137.67,-2305.36 2137.87,-2294.77 2131.11,-2302.93 2137.67,-2305.36"/>
</g>
<!-- base2e15 -->
<g id="node45" class="node">
<title>base2e15</title>
<polygon fill="none" stroke="#2bcf07" points="2108.5,-3389.55 2023.5,-3389.55 2023.5,-3353.55 2108.5,-3353.55 2108.5,-3389.55"/>
<text text-anchor="middle" x="2066" y="-3367.85" font-family="Times,serif" font-size="14.00">base2e15</text>
</g>
<!-- dart_utf7 -->
<g id="node46" class="node">
<title>dart_utf7</title>
<polygon fill="none" stroke="#f889f9" points="2005.5,-3389.55 1922.5,-3389.55 1922.5,-3353.55 2005.5,-3353.55 2005.5,-3389.55"/>
<text text-anchor="middle" x="1964" y="-3367.85" font-family="Times,serif" font-size="14.00">dart_utf7</text>
</g>
</g>
</svg>
