<?xml version="1.0" encoding="UTF-8" standalone="no"?>
<!DOCTYPE svg PUBLIC "-//W3C//DTD SVG 1.1//EN"
 "http://www.w3.org/Graphics/SVG/1.1/DTD/svg11.dtd">
<!-- Generated by graphviz version 2.43.0 (0)
 -->
<!-- Title: packages Pages: 1 -->
<svg width="720pt" height="684pt"
 viewBox="0.00 0.00 720.00 683.58" xmlns="http://www.w3.org/2000/svg" xmlns:xlink="http://www.w3.org/1999/xlink">
<g id="graph0" class="graph" transform="scale(0.13176175790285274 0.13176175790285274) rotate(0) translate(4 5184)">
<title>packages</title>
<polygon fill="white" stroke="transparent" points="-4,4 -4,-5184 5460.4,-5184 5460.4,4 -4,4"/>
<g id="clust1" class="cluster">
<title>cluster modules/at_app/packages</title>
<polygon fill="none" stroke="#6e880a" points="26.06,-3714.85 26.06,-5104.38 384.06,-5104.38 384.06,-3714.85 26.06,-3714.85"/>
<text text-anchor="middle" x="205.06" y="-5089.18" font-family="Times,serif" font-size="14.00">modules/at_app/packages</text>
</g>
<g id="clust2" class="cluster">
<title>cluster modules/at_widgets/packages</title>
<polygon fill="none" stroke="#43032a" points="1438.06,-2221.35 1438.06,-5104.38 2623.06,-5104.38 2623.06,-2221.35 1438.06,-2221.35"/>
<text text-anchor="middle" x="2030.56" y="-5089.18" font-family="Times,serif" font-size="14.00">modules/at_widgets/packages</text>
</g>
<g id="clust3" class="cluster">
<title>cluster modules/at_libraries/packages</title>
<polygon fill="none" stroke="#5bc800" points="4011.06,-75.62 4011.06,-2930.29 4637.06,-2930.29 4637.06,-75.62 4011.06,-75.62"/>
<text text-anchor="middle" x="4324.06" y="-2915.09" font-family="Times,serif" font-size="14.00">modules/at_libraries/packages</text>
</g>
<g id="clust4" class="cluster">
<title>cluster modules/at_tools/packages</title>
<polygon fill="none" stroke="#b27a62" points="3103.06,-75.62 3103.06,-2145.73 3782.06,-2145.73 3782.06,-75.62 3103.06,-75.62"/>
<text text-anchor="middle" x="3442.56" y="-2130.53" font-family="Times,serif" font-size="14.00">modules/at_tools/packages</text>
</g>
<g id="clust5" class="cluster">
<title>cluster modules/at_client_sdk/packages</title>
<polygon fill="none" stroke="#d2798d" points="2631.06,-1436.79 2631.06,-2930.29 2875.06,-2930.29 2875.06,-1436.79 2631.06,-1436.79"/>
<text text-anchor="middle" x="2753.06" y="-2915.09" font-family="Times,serif" font-size="14.00">modules/at_client_sdk/packages</text>
</g>
<g id="clust6" class="cluster">
<title>cluster modules/at_services/packages</title>
<polygon fill="none" stroke="#4cce65" points="4705.06,-1436.79 4705.06,-3639.23 5190.06,-3639.23 5190.06,-1436.79 4705.06,-1436.79"/>
<text text-anchor="middle" x="4947.56" y="-3624.03" font-family="Times,serif" font-size="14.00">modules/at_services/packages</text>
</g>
<g id="clust7" class="cluster">
<title>cluster modules/at_server/packages</title>
<polygon fill="none" stroke="#98c326" points="746.06,-756.2 746.06,-2930.29 1402.06,-2930.29 1402.06,-756.2 746.06,-756.2"/>
<text text-anchor="middle" x="1074.06" y="-2915.09" font-family="Times,serif" font-size="14.00">modules/at_server/packages</text>
</g>
<!-- at_app -->
<g id="node1" class="node">
<title>at_app</title>
<polygon fill="none" stroke="#319b3c" points="98.06,-4659.62 34.06,-4659.62 34.06,-4623.62 98.06,-4623.62 98.06,-4659.62"/>
<text text-anchor="middle" x="66.06" y="-4637.92" font-family="Times,serif" font-size="14.00">at_app</text>
</g>
<!-- at_app_create -->
<g id="node3" class="node">
<title>at_app_create</title>
<polygon fill="none" stroke="#a04433" points="150.06,-3978.62 34.06,-3978.62 34.06,-3942.62 150.06,-3942.62 150.06,-3978.62"/>
<text text-anchor="middle" x="92.06" y="-3956.92" font-family="Times,serif" font-size="14.00">at_app_create</text>
</g>
<!-- at_app&#45;&gt;at_app_create -->
<g id="edge1" class="edge">
<title>at_app&#45;&gt;at_app_create</title>
<path fill="none" stroke="#a04433" d="M66.71,-4623.5C70.21,-4532.13 86.68,-4102.01 91.01,-3988.92"/>
<polygon fill="#a04433" stroke="#a04433" points="94.52,-3988.82 91.4,-3978.7 87.52,-3988.56 94.52,-3988.82"/>
</g>
<!-- at_commons -->
<g id="node13" class="node">
<title>at_commons</title>
<polygon fill="none" stroke="#7eceb0" points="3216.56,-339.62 3111.56,-339.62 3111.56,-303.62 3216.56,-303.62 3216.56,-339.62"/>
<text text-anchor="middle" x="3164.06" y="-317.92" font-family="Times,serif" font-size="14.00">at_commons</text>
</g>
<!-- at_app&#45;&gt;at_commons -->
<g id="edge2" class="edge">
<title>at_app&#45;&gt;at_commons</title>
<path fill="none" stroke="#7eceb0" d="M64.75,-4623.5C59.05,-4547.79 36.05,-4235.46 25.06,-3978.62 9.81,-3622.4 6.06,-3533.16 6.06,-3176.62 6.06,-3176.62 6.06,-3176.62 6.06,-1681.62 6.06,-1358.13 -49.09,-1200.91 183.06,-975.62 623.76,-547.94 2710.85,-359.35 3101.11,-327.55"/>
<polygon fill="#7eceb0" stroke="#7eceb0" points="3101.67,-331.01 3111.36,-326.72 3101.11,-324.04 3101.67,-331.01"/>
</g>
<!-- at_utils -->
<g id="node46" class="node">
<title>at_utils</title>
<polygon fill="none" stroke="#75e849" points="3180.56,-1019.62 3111.56,-1019.62 3111.56,-983.62 3180.56,-983.62 3180.56,-1019.62"/>
<text text-anchor="middle" x="3146.06" y="-997.92" font-family="Times,serif" font-size="14.00">at_utils</text>
</g>
<!-- at_app&#45;&gt;at_utils -->
<g id="edge3" class="edge">
<title>at_app&#45;&gt;at_utils</title>
<path fill="none" stroke="#75e849" d="M78.83,-4623.47C186.27,-4478.74 946.23,-3443.82 1406.06,-2515.62 1421.85,-2483.74 1414.95,-2470.64 1434.06,-2440.62 1696.31,-2028.61 1830.71,-1971.49 2204.06,-1656.62 2532.89,-1379.29 2977.67,-1104.22 3108.44,-1025.15"/>
<polygon fill="#75e849" stroke="#75e849" points="3110.56,-1027.97 3117.31,-1019.8 3106.94,-1021.97 3110.56,-1027.97"/>
</g>
<!-- at_app_bundler -->
<g id="node2" class="node">
<title>at_app_bundler</title>
<polygon fill="none" stroke="#1313a7" points="242.06,-4659.62 116.06,-4659.62 116.06,-4623.62 242.06,-4623.62 242.06,-4659.62"/>
<text text-anchor="middle" x="179.06" y="-4637.92" font-family="Times,serif" font-size="14.00">at_app_bundler</text>
</g>
<!-- at_app_flutter -->
<g id="node4" class="node">
<title>at_app_flutter</title>
<polygon fill="none" stroke="#fda7a2" points="376.06,-4659.62 260.06,-4659.62 260.06,-4623.62 376.06,-4623.62 376.06,-4659.62"/>
<text text-anchor="middle" x="318.06" y="-4637.92" font-family="Times,serif" font-size="14.00">at_app_flutter</text>
</g>
<!-- at_onboarding_flutter -->
<g id="node33" class="node">
<title>at_onboarding_flutter</title>
<polygon fill="none" stroke="#a801a6" points="1677.06,-3978.62 1507.06,-3978.62 1507.06,-3942.62 1677.06,-3942.62 1677.06,-3978.62"/>
<text text-anchor="middle" x="1592.06" y="-3956.92" font-family="Times,serif" font-size="14.00">at_onboarding_flutter</text>
</g>
<!-- at_app_flutter&#45;&gt;at_onboarding_flutter -->
<g id="edge4" class="edge">
<title>at_app_flutter&#45;&gt;at_onboarding_flutter</title>
<path fill="none" stroke="#a801a6" d="M350.19,-4623.5C524.46,-4530.61 1355.7,-4087.59 1550.94,-3983.53"/>
<polygon fill="#a801a6" stroke="#a801a6" points="1552.83,-3986.49 1560.01,-3978.7 1549.54,-3980.31 1552.83,-3986.49"/>
</g>
<!-- at_app_flutter&#45;&gt;at_utils -->
<g id="edge5" class="edge">
<title>at_app_flutter&#45;&gt;at_utils</title>
<path fill="none" stroke="#75e849" d="M314.2,-4623.34C271.51,-4427.01 -95.92,-2605.98 742.06,-1656.62 1076.2,-1278.06 2800.52,-1046.02 3101.28,-1008.12"/>
<polygon fill="#75e849" stroke="#75e849" points="3101.89,-1011.58 3111.38,-1006.86 3101.02,-1004.63 3101.89,-1011.58"/>
</g>
<!-- at_backupkey_flutter -->
<g id="node5" class="node">
<title>at_backupkey_flutter</title>
<polygon fill="none" stroke="#590b92" points="2614.56,-3193.62 2449.56,-3193.62 2449.56,-3157.62 2614.56,-3157.62 2614.56,-3193.62"/>
<text text-anchor="middle" x="2532.06" y="-3171.92" font-family="Times,serif" font-size="14.00">at_backupkey_flutter</text>
</g>
<!-- at_client_mobile -->
<g id="node11" class="node">
<title>at_client_mobile</title>
<polygon fill="none" stroke="#d9577c" points="2778.06,-2484.62 2646.06,-2484.62 2646.06,-2448.62 2778.06,-2448.62 2778.06,-2484.62"/>
<text text-anchor="middle" x="2712.06" y="-2462.92" font-family="Times,serif" font-size="14.00">at_client_mobile</text>
</g>
<!-- at_backupkey_flutter&#45;&gt;at_client_mobile -->
<g id="edge7" class="edge">
<title>at_backupkey_flutter&#45;&gt;at_client_mobile</title>
<path fill="none" stroke="#d9577c" d="M2536.42,-3157.49C2560.34,-3063.53 2675.65,-2610.6 2705.16,-2494.69"/>
<polygon fill="#d9577c" stroke="#d9577c" points="2708.6,-2495.39 2707.67,-2484.84 2701.81,-2493.66 2708.6,-2495.39"/>
</g>
<!-- at_backupkey_flutter&#45;&gt;at_utils -->
<g id="edge6" class="edge">
<title>at_backupkey_flutter&#45;&gt;at_utils</title>
<path fill="none" stroke="#75e849" d="M2529.38,-3157.35C2510.51,-3030.83 2404.6,-2235.91 2627.06,-1656.62 2738.28,-1366.99 3026.32,-1104.5 3117.76,-1026.23"/>
<polygon fill="#75e849" stroke="#75e849" points="3120.15,-1028.79 3125.49,-1019.65 3115.61,-1023.46 3120.15,-1028.79"/>
</g>
<!-- at_chat_flutter -->
<g id="node6" class="node">
<title>at_chat_flutter</title>
<polygon fill="none" stroke="#463830" points="2088.06,-3193.62 1968.06,-3193.62 1968.06,-3157.62 2088.06,-3157.62 2088.06,-3193.62"/>
<text text-anchor="middle" x="2028.06" y="-3171.92" font-family="Times,serif" font-size="14.00">at_chat_flutter</text>
</g>
<!-- at_client -->
<g id="node10" class="node">
<title>at_client</title>
<polygon fill="none" stroke="#61d4fc" points="2826.56,-1700.62 2749.56,-1700.62 2749.56,-1664.62 2826.56,-1664.62 2826.56,-1700.62"/>
<text text-anchor="middle" x="2788.06" y="-1678.92" font-family="Times,serif" font-size="14.00">at_client</text>
</g>
<!-- at_chat_flutter&#45;&gt;at_client -->
<g id="edge13" class="edge">
<title>at_chat_flutter&#45;&gt;at_client</title>
<path fill="none" stroke="#61d4fc" d="M2007.64,-3157.57C1913.07,-3076.45 1528.35,-2721.9 1677.06,-2440.62 1915.8,-1989.06 2558.28,-1756.33 2739.74,-1698.29"/>
<polygon fill="#61d4fc" stroke="#61d4fc" points="2740.8,-1701.62 2749.28,-1695.26 2738.69,-1694.95 2740.8,-1701.62"/>
</g>
<!-- at_chat_flutter&#45;&gt;at_client_mobile -->
<g id="edge11" class="edge">
<title>at_chat_flutter&#45;&gt;at_client_mobile</title>
<path fill="none" stroke="#d9577c" d="M2044.62,-3157.49C2136.17,-3062.87 2579.92,-2604.2 2688.19,-2492.29"/>
<polygon fill="#d9577c" stroke="#d9577c" points="2690.96,-2494.46 2695.4,-2484.84 2685.93,-2489.59 2690.96,-2494.46"/>
</g>
<!-- at_common_flutter -->
<g id="node12" class="node">
<title>at_common_flutter</title>
<polygon fill="none" stroke="#bf681f" points="1862.56,-2484.62 1713.56,-2484.62 1713.56,-2448.62 1862.56,-2448.62 1862.56,-2484.62"/>
<text text-anchor="middle" x="1788.06" y="-2462.92" font-family="Times,serif" font-size="14.00">at_common_flutter</text>
</g>
<!-- at_chat_flutter&#45;&gt;at_common_flutter -->
<g id="edge9" class="edge">
<title>at_chat_flutter&#45;&gt;at_common_flutter</title>
<path fill="none" stroke="#bf681f" d="M2022.24,-3157.49C1990.31,-3063.43 1836.28,-2609.69 1797.13,-2494.34"/>
<polygon fill="#bf681f" stroke="#bf681f" points="1800.43,-2493.18 1793.9,-2484.84 1793.8,-2495.43 1800.43,-2493.18"/>
</g>
<!-- at_chat_flutter&#45;&gt;at_commons -->
<g id="edge10" class="edge">
<title>at_chat_flutter&#45;&gt;at_commons</title>
<path fill="none" stroke="#7eceb0" d="M1978.59,-3157.57C1751.89,-3078.58 814.55,-2742.42 611.06,-2515.62 379.86,-2257.95 154.87,-1241.93 376.06,-975.62 743.35,-533.4 2722.42,-357.25 3101.32,-327.34"/>
<polygon fill="#7eceb0" stroke="#7eceb0" points="3101.85,-330.81 3111.54,-326.54 3101.3,-323.83 3101.85,-330.81"/>
</g>
<!-- at_contact -->
<g id="node14" class="node">
<title>at_contact</title>
<polygon fill="none" stroke="#250aa2" points="4386.06,-2484.62 4296.06,-2484.62 4296.06,-2448.62 4386.06,-2448.62 4386.06,-2484.62"/>
<text text-anchor="middle" x="4341.06" y="-2462.92" font-family="Times,serif" font-size="14.00">at_contact</text>
</g>
<!-- at_chat_flutter&#45;&gt;at_contact -->
<g id="edge8" class="edge">
<title>at_chat_flutter&#45;&gt;at_contact</title>
<path fill="none" stroke="#250aa2" d="M2088.24,-3158.76C2426.37,-3069.46 4081.78,-2629.17 4287.06,-2515.62 4298.26,-2509.42 4309.12,-2500.53 4318.12,-2492.09"/>
<polygon fill="#250aa2" stroke="#250aa2" points="4320.81,-2494.35 4325.52,-2484.86 4315.92,-2489.34 4320.81,-2494.35"/>
</g>
<!-- at_lookup -->
<g id="node30" class="node">
<title>at_lookup</title>
<polygon fill="none" stroke="#94d42d" points="4104.56,-339.62 4019.56,-339.62 4019.56,-303.62 4104.56,-303.62 4104.56,-339.62"/>
<text text-anchor="middle" x="4062.06" y="-317.92" font-family="Times,serif" font-size="14.00">at_lookup</text>
</g>
<!-- at_chat_flutter&#45;&gt;at_lookup -->
<g id="edge12" class="edge">
<title>at_chat_flutter&#45;&gt;at_lookup</title>
<path fill="none" stroke="#94d42d" d="M2025.27,-3157.41C2008.16,-3052.49 1916.64,-2501.43 1872.06,-2440.62 1493.72,-1924.6 941.39,-2284.36 619.06,-1731.62 564.64,-1638.3 209.78,-1492.35 670.06,-975.62 905.74,-711.03 3597.23,-378.43 4009.27,-328.9"/>
<polygon fill="#94d42d" stroke="#94d42d" points="4009.9,-332.35 4019.42,-327.69 4009.07,-325.4 4009.9,-332.35"/>
</g>
<!-- at_chops -->
<g id="node7" class="node">
<title>at_chops</title>
<polygon fill="none" stroke="#8fb4d4" points="4629.56,-2484.62 4550.56,-2484.62 4550.56,-2448.62 4629.56,-2448.62 4629.56,-2484.62"/>
<text text-anchor="middle" x="4590.06" y="-2462.92" font-family="Times,serif" font-size="14.00">at_chops</text>
</g>
<!-- at_chops&#45;&gt;at_commons -->
<g id="edge14" class="edge">
<title>at_chops&#45;&gt;at_commons</title>
<path fill="none" stroke="#7eceb0" d="M4560.07,-2448.62C4553.92,-2445.62 4547.38,-2442.77 4541.06,-2440.62 2915.1,-1887.07 1839.53,-3052.86 742.06,-1731.62 527.37,-1473.16 537.72,-1242.35 742.06,-975.62 1045.96,-578.93 2751.38,-368.7 3101.3,-329.41"/>
<polygon fill="#7eceb0" stroke="#7eceb0" points="3101.95,-332.86 3111.5,-328.28 3101.17,-325.91 3101.95,-332.86"/>
</g>
<!-- at_onboarding_cli -->
<g id="node32" class="node">
<title>at_onboarding_cli</title>
<polygon fill="none" stroke="#514d2d" points="4283.06,-1700.62 4141.06,-1700.62 4141.06,-1664.62 4283.06,-1664.62 4283.06,-1700.62"/>
<text text-anchor="middle" x="4212.06" y="-1678.92" font-family="Times,serif" font-size="14.00">at_onboarding_cli</text>
</g>
<!-- at_chops&#45;&gt;at_onboarding_cli -->
<g id="edge15" class="edge">
<title>at_chops&#45;&gt;at_onboarding_cli</title>
<path fill="none" stroke="#514d2d" d="M4579.64,-2448.56C4525.13,-2348.08 4276.31,-1833.65 4222.27,-1710.25"/>
<polygon fill="#514d2d" stroke="#514d2d" points="4225.36,-1708.58 4218.18,-1700.79 4218.94,-1711.36 4225.36,-1708.58"/>
</g>
<!-- at_chops&#45;&gt;at_utils -->
<g id="edge16" class="edge">
<title>at_chops&#45;&gt;at_utils</title>
<path fill="none" stroke="#75e849" d="M4556.88,-2448.61C4551.59,-2445.93 4546.18,-2443.19 4541.06,-2440.62 3904.12,-2121.14 3479.37,-2336.72 3103.06,-1731.62 2956.44,-1495.86 3092.11,-1130.03 3134.42,-1029.16"/>
<polygon fill="#75e849" stroke="#75e849" points="3137.74,-1030.29 3138.43,-1019.72 3131.3,-1027.55 3137.74,-1030.29"/>
</g>
<!-- at_cli -->
<g id="node8" class="node">
<title>at_cli</title>
<polygon fill="none" stroke="#34bd05" points="3557.06,-1700.62 3503.06,-1700.62 3503.06,-1664.62 3557.06,-1664.62 3557.06,-1700.62"/>
<text text-anchor="middle" x="3530.06" y="-1678.92" font-family="Times,serif" font-size="14.00">at_cli</text>
</g>
<!-- at_cli&#45;&gt;at_client -->
<g id="edge18" class="edge">
<title>at_cli&#45;&gt;at_client</title>
<path fill="none" stroke="#61d4fc" d="M3535.18,-1700.76C3552.12,-1765.12 3599.05,-1984.13 3485.06,-2086.12 3360.18,-2197.84 3258.92,-2159.02 3108.06,-2086.12 2940.1,-2004.96 2833.37,-1788.09 2799.62,-1710.61"/>
<polygon fill="#61d4fc" stroke="#61d4fc" points="2802.67,-1708.86 2795.51,-1701.05 2796.24,-1711.62 2802.67,-1708.86"/>
</g>
<!-- at_cli&#45;&gt;at_commons -->
<g id="edge19" class="edge">
<title>at_cli&#45;&gt;at_commons</title>
<path fill="none" stroke="#7eceb0" d="M3530.63,-1664.57C3532.86,-1585.01 3537.65,-1242.8 3466.06,-975.62 3396.81,-717.2 3232.02,-434.07 3180.05,-348.5"/>
<polygon fill="#7eceb0" stroke="#7eceb0" points="3183.02,-346.66 3174.82,-339.94 3177.05,-350.3 3183.02,-346.66"/>
</g>
<!-- at_cli&#45;&gt;at_lookup -->
<g id="edge17" class="edge">
<title>at_cli&#45;&gt;at_lookup</title>
<path fill="none" stroke="#94d42d" d="M3536.78,-1664.44C3592.89,-1521.12 3982.73,-525.27 4051.65,-349.19"/>
<polygon fill="#94d42d" stroke="#94d42d" points="4054.91,-350.47 4055.3,-339.88 4048.4,-347.91 4054.91,-350.47"/>
</g>
<!-- at_cli&#45;&gt;at_utils -->
<g id="edge20" class="edge">
<title>at_cli&#45;&gt;at_utils</title>
<path fill="none" stroke="#75e849" d="M3520.37,-1664.5C3468.49,-1572.76 3223.48,-1139.53 3160.73,-1028.56"/>
<polygon fill="#75e849" stroke="#75e849" points="3163.68,-1026.68 3155.71,-1019.7 3157.59,-1030.13 3163.68,-1026.68"/>
</g>
<!-- at_cli_commons -->
<g id="node9" class="node">
<title>at_cli_commons</title>
<polygon fill="none" stroke="#c99192" points="4532.06,-2484.62 4404.06,-2484.62 4404.06,-2448.62 4532.06,-2448.62 4532.06,-2484.62"/>
<text text-anchor="middle" x="4468.06" y="-2462.92" font-family="Times,serif" font-size="14.00">at_cli_commons</text>
</g>
<!-- at_cli_commons&#45;&gt;at_client -->
<g id="edge21" class="edge">
<title>at_cli_commons&#45;&gt;at_client</title>
<path fill="none" stroke="#61d4fc" d="M4431.4,-2448.56C4212.28,-2346.56 3076.79,-1818.02 2833.84,-1704.93"/>
<polygon fill="#61d4fc" stroke="#61d4fc" points="2835.13,-1701.67 2824.58,-1700.62 2832.17,-1708.02 2835.13,-1701.67"/>
</g>
<!-- at_cli_commons&#45;&gt;at_onboarding_cli -->
<g id="edge22" class="edge">
<title>at_cli_commons&#45;&gt;at_onboarding_cli</title>
<path fill="none" stroke="#514d2d" d="M4462.47,-2448.56C4429.61,-2348.18 4261.51,-1834.69 4220.9,-1710.63"/>
<polygon fill="#514d2d" stroke="#514d2d" points="4224.11,-1709.21 4217.68,-1700.79 4217.46,-1711.38 4224.11,-1709.21"/>
</g>
<!-- at_cli_commons&#45;&gt;at_utils -->
<g id="edge23" class="edge">
<title>at_cli_commons&#45;&gt;at_utils</title>
<path fill="none" stroke="#75e849" d="M4421.16,-2448.53C4195.89,-2365.42 3229.33,-1996.7 3069.06,-1731.62 2924.88,-1493.16 3083.66,-1129.31 3132.63,-1029.01"/>
<polygon fill="#75e849" stroke="#75e849" points="3135.85,-1030.4 3137.14,-1019.88 3129.57,-1027.3 3135.85,-1030.4"/>
</g>
<!-- at_client&#45;&gt;at_chops -->
<g id="edge26" class="edge">
<title>at_client&#45;&gt;at_chops</title>
<path fill="none" stroke="#8fb4d4" d="M2826.71,-1699.23C3015.95,-1775.9 3863.12,-2121.7 4541.06,-2440.62 4543.36,-2441.71 4545.72,-2442.84 4548.09,-2443.99"/>
<polygon fill="#8fb4d4" stroke="#8fb4d4" points="4546.74,-2447.22 4557.25,-2448.52 4549.84,-2440.95 4546.74,-2447.22"/>
</g>
<!-- at_client&#45;&gt;at_commons -->
<g id="edge24" class="edge">
<title>at_client&#45;&gt;at_commons</title>
<path fill="none" stroke="#7eceb0" d="M2792.81,-1664.44C2832.42,-1521.26 3107.44,-527.25 3156.56,-349.72"/>
<polygon fill="#7eceb0" stroke="#7eceb0" points="3159.99,-350.45 3159.28,-339.88 3153.24,-348.58 3159.99,-350.45"/>
</g>
<!-- at_client&#45;&gt;at_lookup -->
<g id="edge27" class="edge">
<title>at_client&#45;&gt;at_lookup</title>
<path fill="none" stroke="#94d42d" d="M2791.88,-1664.39C2811.25,-1580.34 2905.23,-1208.12 3099.06,-975.62 3374.3,-645.46 3857.34,-412.99 4012.55,-343.93"/>
<polygon fill="#94d42d" stroke="#94d42d" points="4014.13,-347.05 4021.86,-339.81 4011.3,-340.65 4014.13,-347.05"/>
</g>
<!-- at_persistence_secondary_server -->
<g id="node35" class="node">
<title>at_persistence_secondary_server</title>
<polygon fill="none" stroke="#9760d3" points="1026.06,-1700.62 774.06,-1700.62 774.06,-1664.62 1026.06,-1664.62 1026.06,-1700.62"/>
<text text-anchor="middle" x="900.06" y="-1678.92" font-family="Times,serif" font-size="14.00">at_persistence_secondary_server</text>
</g>
<!-- at_client&#45;&gt;at_persistence_secondary_server -->
<g id="edge29" class="edge">
<title>at_client&#45;&gt;at_persistence_secondary_server</title>
<path fill="none" stroke="#9760d3" d="M2785.23,-1700.75C2773.83,-1767.02 2724.47,-1996.86 2577.06,-2086.12 1994.25,-2439.04 1600.94,-2478.67 1044.06,-2086.12 918.03,-1997.28 901.68,-1787.73 900.02,-1711.22"/>
<polygon fill="#9760d3" stroke="#9760d3" points="903.52,-1710.88 899.88,-1700.93 896.52,-1710.98 903.52,-1710.88"/>
</g>
<!-- at_persistence_spec -->
<g id="node36" class="node">
<title>at_persistence_spec</title>
<polygon fill="none" stroke="#3bfcef" points="1173.56,-1019.62 1014.56,-1019.62 1014.56,-983.62 1173.56,-983.62 1173.56,-1019.62"/>
<text text-anchor="middle" x="1094.06" y="-997.92" font-family="Times,serif" font-size="14.00">at_persistence_spec</text>
</g>
<!-- at_client&#45;&gt;at_persistence_spec -->
<g id="edge28" class="edge">
<title>at_client&#45;&gt;at_persistence_spec</title>
<path fill="none" stroke="#3bfcef" d="M2749.49,-1666.16C2526.43,-1576.75 1402.55,-1126.27 1146.18,-1023.51"/>
<polygon fill="#3bfcef" stroke="#3bfcef" points="1147.3,-1020.19 1136.72,-1019.72 1144.7,-1026.69 1147.3,-1020.19"/>
</g>
<!-- at_client&#45;&gt;at_utils -->
<g id="edge25" class="edge">
<title>at_client&#45;&gt;at_utils</title>
<path fill="none" stroke="#75e849" d="M2797.08,-1664.5C2845.45,-1572.76 3073.87,-1139.53 3132.38,-1028.56"/>
<polygon fill="#75e849" stroke="#75e849" points="3135.48,-1030.18 3137.05,-1019.7 3129.29,-1026.91 3135.48,-1030.18"/>
</g>
<!-- at_client_mobile&#45;&gt;at_chops -->
<g id="edge32" class="edge">
<title>at_client_mobile&#45;&gt;at_chops</title>
<path fill="none" stroke="#8fb4d4" d="M2748.8,-2484.84C2880.96,-2549.22 3346.09,-2765.9 3758.06,-2836.62 4097.1,-2894.82 4270.65,-3060.24 4532.06,-2836.62 4633.33,-2749.98 4609.61,-2564.87 4596.13,-2494.53"/>
<polygon fill="#8fb4d4" stroke="#8fb4d4" points="4599.55,-2493.75 4594.16,-2484.63 4592.68,-2495.12 4599.55,-2493.75"/>
</g>
<!-- at_client_mobile&#45;&gt;at_client -->
<g id="edge34" class="edge">
<title>at_client_mobile&#45;&gt;at_client</title>
<path fill="none" stroke="#61d4fc" d="M2713.71,-2448.56C2723.46,-2348.28 2773.27,-1835.72 2785.39,-1711"/>
<polygon fill="#61d4fc" stroke="#61d4fc" points="2788.9,-1711.08 2786.39,-1700.79 2781.94,-1710.41 2788.9,-1711.08"/>
</g>
<!-- at_client_mobile&#45;&gt;at_commons -->
<g id="edge30" class="edge">
<title>at_client_mobile&#45;&gt;at_commons</title>
<path fill="none" stroke="#7eceb0" d="M2767.04,-2448.61C2952.68,-2387.79 3557.36,-2161.59 3784.06,-1731.62 4070.6,-1188.15 3342.55,-484.54 3191.04,-346.65"/>
<polygon fill="#7eceb0" stroke="#7eceb0" points="3193.23,-343.91 3183.47,-339.79 3188.53,-349.1 3193.23,-343.91"/>
</g>
<!-- at_client_mobile&#45;&gt;at_lookup -->
<g id="edge33" class="edge">
<title>at_client_mobile&#45;&gt;at_lookup</title>
<path fill="none" stroke="#94d42d" d="M2762.08,-2448.59C2938.82,-2385.61 3537.84,-2147.78 3810.06,-1731.62 3968.2,-1489.85 4046.96,-524.93 4060.08,-349.92"/>
<polygon fill="#94d42d" stroke="#94d42d" points="4063.58,-349.99 4060.83,-339.76 4056.6,-349.48 4063.58,-349.99"/>
</g>
<!-- at_client_mobile&#45;&gt;at_utils -->
<g id="edge31" class="edge">
<title>at_client_mobile&#45;&gt;at_utils</title>
<path fill="none" stroke="#75e849" d="M2714.39,-2448.53C2726.39,-2362.4 2784.33,-1967.71 2879.06,-1656.62 2955.59,-1405.27 3091.03,-1116.57 3133.17,-1029.08"/>
<polygon fill="#75e849" stroke="#75e849" points="3136.42,-1030.4 3137.62,-1019.88 3130.12,-1027.36 3136.42,-1030.4"/>
</g>
<!-- at_contact&#45;&gt;at_client -->
<g id="edge35" class="edge">
<title>at_contact&#45;&gt;at_client</title>
<path fill="none" stroke="#61d4fc" d="M4307.18,-2448.56C4104.82,-2346.66 3057.04,-1819.06 2831.05,-1705.27"/>
<polygon fill="#61d4fc" stroke="#61d4fc" points="2832.33,-1701.99 2821.82,-1700.62 2829.18,-1708.25 2832.33,-1701.99"/>
</g>
<!-- at_contact&#45;&gt;at_commons -->
<g id="edge36" class="edge">
<title>at_contact&#45;&gt;at_commons</title>
<path fill="none" stroke="#7eceb0" d="M4307.57,-2448.59C4300.89,-2445.63 4293.84,-2442.81 4287.06,-2440.62 2698.82,-1928.74 1729.64,-2959.86 600.06,-1731.62 371.46,-1483.06 315.9,-1241.53 524.06,-975.62 859.61,-546.96 2732.69,-360.71 3101.14,-327.97"/>
<polygon fill="#7eceb0" stroke="#7eceb0" points="3101.69,-331.44 3111.34,-327.07 3101.07,-324.46 3101.69,-331.44"/>
</g>
<!-- at_contact&#45;&gt;at_utils -->
<g id="edge37" class="edge">
<title>at_contact&#45;&gt;at_utils</title>
<path fill="none" stroke="#75e849" d="M4305.94,-2448.61C4104.95,-2350.9 3106.88,-1861.02 3031.06,-1731.62 2889.08,-1489.32 3074.51,-1127.54 3130.79,-1028.49"/>
<polygon fill="#75e849" stroke="#75e849" points="3133.87,-1030.15 3135.82,-1019.73 3127.8,-1026.66 3133.87,-1030.15"/>
</g>
<!-- at_contacts_flutter -->
<g id="node15" class="node">
<title>at_contacts_flutter</title>
<polygon fill="none" stroke="#1267b5" points="2255.56,-3193.62 2106.56,-3193.62 2106.56,-3157.62 2255.56,-3157.62 2255.56,-3193.62"/>
<text text-anchor="middle" x="2181.06" y="-3171.92" font-family="Times,serif" font-size="14.00">at_contacts_flutter</text>
</g>
<!-- at_contacts_flutter&#45;&gt;at_client -->
<g id="edge43" class="edge">
<title>at_contacts_flutter&#45;&gt;at_client</title>
<path fill="none" stroke="#61d4fc" d="M2153.64,-3157.49C2031.27,-3078.77 1547.66,-2742.66 1705.06,-2440.62 1936.55,-1996.37 2561.13,-1759.21 2739.74,-1699.08"/>
<polygon fill="#61d4fc" stroke="#61d4fc" points="2741.01,-1702.35 2749.39,-1695.86 2738.8,-1695.71 2741.01,-1702.35"/>
</g>
<!-- at_contacts_flutter&#45;&gt;at_client_mobile -->
<g id="edge38" class="edge">
<title>at_contacts_flutter&#45;&gt;at_client_mobile</title>
<path fill="none" stroke="#d9577c" d="M2193.92,-3157.49C2264.85,-3063.06 2608.1,-2606.03 2693.02,-2492.96"/>
<polygon fill="#d9577c" stroke="#d9577c" points="2695.92,-2494.93 2699.13,-2484.84 2690.32,-2490.73 2695.92,-2494.93"/>
</g>
<!-- at_contacts_flutter&#45;&gt;at_common_flutter -->
<g id="edge42" class="edge">
<title>at_contacts_flutter&#45;&gt;at_common_flutter</title>
<path fill="none" stroke="#bf681f" d="M2171.54,-3157.49C2119.15,-3063.24 1866.01,-2607.86 1802.52,-2493.65"/>
<polygon fill="#bf681f" stroke="#bf681f" points="1805.54,-2491.88 1797.63,-2484.84 1799.43,-2495.28 1805.54,-2491.88"/>
</g>
<!-- at_contacts_flutter&#45;&gt;at_commons -->
<g id="edge39" class="edge">
<title>at_contacts_flutter&#45;&gt;at_commons</title>
<path fill="none" stroke="#7eceb0" d="M2127.77,-3157.55C1885.81,-3079.16 892.81,-2747.56 671.06,-2515.62 431.12,-2264.65 184.37,-1242.02 407.06,-975.62 771.56,-539.56 2724.49,-358.66 3101.16,-327.58"/>
<polygon fill="#7eceb0" stroke="#7eceb0" points="3101.64,-331.05 3111.32,-326.75 3101.07,-324.08 3101.64,-331.05"/>
</g>
<!-- at_contacts_flutter&#45;&gt;at_contact -->
<g id="edge41" class="edge">
<title>at_contacts_flutter&#45;&gt;at_contact</title>
<path fill="none" stroke="#250aa2" d="M2248.66,-3157.58C2566.39,-3076.86 3911.54,-2728.12 4287.06,-2515.62 4298.2,-2509.31 4309.05,-2500.4 4318.06,-2491.97"/>
<polygon fill="#250aa2" stroke="#250aa2" points="4320.74,-2494.24 4325.46,-2484.76 4315.86,-2489.22 4320.74,-2494.24"/>
</g>
<!-- at_contacts_flutter&#45;&gt;at_lookup -->
<g id="edge40" class="edge">
<title>at_contacts_flutter&#45;&gt;at_lookup</title>
<path fill="none" stroke="#94d42d" d="M2174.88,-3157.27C2136.32,-3049.11 1929.49,-2470.84 1904.06,-2440.62 1504.46,-1965.77 1008.95,-2270.47 701.06,-1731.62 650.42,-1643 246.35,-1528.42 704.06,-975.62 927.79,-705.41 3599.02,-377.73 4009.31,-328.84"/>
<polygon fill="#94d42d" stroke="#94d42d" points="4009.9,-332.3 4019.41,-327.64 4009.07,-325.34 4009.9,-332.3"/>
</g>
<!-- at_contacts_flutter&#45;&gt;at_utils -->
<g id="edge44" class="edge">
<title>at_contacts_flutter&#45;&gt;at_utils</title>
<path fill="none" stroke="#75e849" d="M2182.51,-3157.48C2193.85,-3030.33 2275.96,-2223.02 2575.06,-1656.62 2725.88,-1371.01 3024.28,-1105.32 3117.52,-1026.31"/>
<polygon fill="#75e849" stroke="#75e849" points="3120.01,-1028.79 3125.4,-1019.67 3115.5,-1023.44 3120.01,-1028.79"/>
</g>
<!-- at_contacts_group_flutter -->
<g id="node16" class="node">
<title>at_contacts_group_flutter</title>
<polygon fill="none" stroke="#dae1d2" points="2371.06,-3978.62 2173.06,-3978.62 2173.06,-3942.62 2371.06,-3942.62 2371.06,-3978.62"/>
<text text-anchor="middle" x="2272.06" y="-3956.92" font-family="Times,serif" font-size="14.00">at_contacts_group_flutter</text>
</g>
<!-- at_contacts_group_flutter&#45;&gt;at_client_mobile -->
<g id="edge45" class="edge">
<title>at_contacts_group_flutter&#45;&gt;at_client_mobile</title>
<path fill="none" stroke="#d9577c" d="M2284.46,-3942.58C2340.19,-3864.94 2568.65,-3534.95 2657.06,-3224.62 2735.61,-2948.87 2720.36,-2594.98 2714.02,-2495"/>
<polygon fill="#d9577c" stroke="#d9577c" points="2717.5,-2494.6 2713.35,-2484.85 2710.51,-2495.06 2717.5,-2494.6"/>
</g>
<!-- at_contacts_group_flutter&#45;&gt;at_common_flutter -->
<g id="edge47" class="edge">
<title>at_contacts_group_flutter&#45;&gt;at_common_flutter</title>
<path fill="none" stroke="#bf681f" d="M2255.31,-3942.61C2182.15,-3866.96 1889.97,-3550.47 1792.06,-3224.62 1709.59,-2950.16 1764.71,-2594.04 1782.86,-2494.49"/>
<polygon fill="#bf681f" stroke="#bf681f" points="1786.3,-2495.12 1784.69,-2484.65 1779.42,-2493.84 1786.3,-2495.12"/>
</g>
<!-- at_contacts_group_flutter&#45;&gt;at_commons -->
<g id="edge46" class="edge">
<title>at_contacts_group_flutter&#45;&gt;at_commons</title>
<path fill="none" stroke="#7eceb0" d="M2230.64,-3942.58C1999.83,-3845.19 866.21,-3334.42 404.06,-2515.62 234.98,-2216.07 22.59,-1235.4 248.06,-975.62 642.11,-521.6 2712.65,-354.45 3101.19,-326.86"/>
<polygon fill="#7eceb0" stroke="#7eceb0" points="3101.66,-330.34 3111.39,-326.14 3101.17,-323.36 3101.66,-330.34"/>
</g>
<!-- at_contacts_group_flutter&#45;&gt;at_contact -->
<g id="edge49" class="edge">
<title>at_contacts_group_flutter&#45;&gt;at_contact</title>
<path fill="none" stroke="#250aa2" d="M2298.1,-3942.47C2473.79,-3826.49 3502.43,-3142.65 4287.06,-2515.62 4296.36,-2508.19 4306.19,-2499.66 4314.87,-2491.88"/>
<polygon fill="#250aa2" stroke="#250aa2" points="4317.42,-2494.31 4322.48,-2485 4312.72,-2489.11 4317.42,-2494.31"/>
</g>
<!-- at_contacts_group_flutter&#45;&gt;at_contacts_flutter -->
<g id="edge48" class="edge">
<title>at_contacts_group_flutter&#45;&gt;at_contacts_flutter</title>
<path fill="none" stroke="#1267b5" d="M2270.07,-3942.54C2258.4,-3842.13 2198.76,-3328.91 2184.24,-3204.04"/>
<polygon fill="#1267b5" stroke="#1267b5" points="2187.69,-3203.34 2183.05,-3193.81 2180.73,-3204.15 2187.69,-3203.34"/>
</g>
<!-- at_contacts_group_flutter&#45;&gt;at_utils -->
<g id="edge50" class="edge">
<title>at_contacts_group_flutter&#45;&gt;at_utils</title>
<path fill="none" stroke="#75e849" d="M2295.33,-3942.56C2392.6,-3869.68 2768.03,-3572.21 2907.06,-3224.62 3166.16,-2576.81 2881.31,-2346.87 2983.06,-1656.62 3019.58,-1408.83 3108.98,-1118.19 3137.3,-1029.59"/>
<polygon fill="#75e849" stroke="#75e849" points="3140.72,-1030.39 3140.44,-1019.8 3134.05,-1028.25 3140.72,-1030.39"/>
</g>
<!-- at_cram -->
<g id="node17" class="node">
<title>at_cram</title>
<polygon fill="none" stroke="#c89a29" points="3649.06,-1700.62 3575.06,-1700.62 3575.06,-1664.62 3649.06,-1664.62 3649.06,-1700.62"/>
<text text-anchor="middle" x="3612.06" y="-1678.92" font-family="Times,serif" font-size="14.00">at_cram</text>
</g>
<!-- at_daemon_cli -->
<g id="node18" class="node">
<title>at_daemon_cli</title>
<polygon fill="none" stroke="#8e17d5" points="4830.56,-3193.62 4713.56,-3193.62 4713.56,-3157.62 4830.56,-3157.62 4830.56,-3193.62"/>
<text text-anchor="middle" x="4772.06" y="-3171.92" font-family="Times,serif" font-size="14.00">at_daemon_cli</text>
</g>
<!-- at_daemon_cli&#45;&gt;at_client -->
<g id="edge51" class="edge">
<title>at_daemon_cli&#45;&gt;at_client</title>
<path fill="none" stroke="#61d4fc" d="M4749.92,-3157.39C4645.51,-3076.19 4191.6,-2723.76 3815.06,-2440.62 3425.24,-2147.5 2946.22,-1798.58 2819.84,-1706.71"/>
<polygon fill="#61d4fc" stroke="#61d4fc" points="2821.84,-1703.83 2811.69,-1700.78 2817.72,-1709.49 2821.84,-1703.83"/>
</g>
<!-- at_daemon_cli&#45;&gt;at_commons -->
<g id="edge56" class="edge">
<title>at_daemon_cli&#45;&gt;at_commons</title>
<path fill="none" stroke="#7eceb0" d="M4769.82,-3157.44C4751.45,-2953.33 4648.6,-999.44 4632.06,-975.62 4284,-474.44 3460.22,-353.46 3226.69,-328.45"/>
<polygon fill="#7eceb0" stroke="#7eceb0" points="3226.98,-324.96 3216.67,-327.4 3226.25,-331.93 3226.98,-324.96"/>
</g>
<!-- at_daemon_cli&#45;&gt;at_commons -->
<g id="edge59" class="edge">
<title>at_daemon_cli&#45;&gt;at_commons</title>
<path fill="none" stroke="#7eceb0" stroke-dasharray="1,5" d="M4772.49,-3157.44C4769.45,-2953.33 4666.6,-999.44 4650.06,-975.62 4298.65,-469.62 3462.33,-351.16 3226.74,-327.76"/>
<polygon fill="#7eceb0" stroke="#7eceb0" points="3226.92,-324.26 3216.63,-326.78 3226.24,-331.23 3226.92,-324.26"/>
</g>
<!-- at_daemon_core -->
<g id="node20" class="node">
<title>at_daemon_core</title>
<polygon fill="none" stroke="#c16272" points="4949.56,-1700.62 4818.56,-1700.62 4818.56,-1664.62 4949.56,-1664.62 4949.56,-1700.62"/>
<text text-anchor="middle" x="4884.06" y="-1678.92" font-family="Times,serif" font-size="14.00">at_daemon_core</text>
</g>
<!-- at_daemon_cli&#45;&gt;at_daemon_core -->
<g id="edge53" class="edge">
<title>at_daemon_cli&#45;&gt;at_daemon_core</title>
<path fill="none" stroke="#c16272" d="M4781.05,-3157.4C4825.8,-3084.32 5020.57,-2790.91 5084.06,-2515.62 5157.57,-2196.84 4951.04,-1812.55 4896.62,-1709.88"/>
<polygon fill="#c16272" stroke="#c16272" points="4899.61,-1708.04 4891.84,-1700.84 4893.42,-1711.31 4899.61,-1708.04"/>
</g>
<!-- at_daemon_cli&#45;&gt;at_daemon_core -->
<g id="edge57" class="edge">
<title>at_daemon_cli&#45;&gt;at_daemon_core</title>
<path fill="none" stroke="#c16272" stroke-dasharray="1,5" d="M4787.31,-3157.4C4843.8,-3084.32 5038.57,-2790.91 5102.06,-2515.62 5175.72,-2196.19 4968.21,-1811 4902.85,-1709.26"/>
<polygon fill="#c16272" stroke="#c16272" points="4905.74,-1707.28 4897.34,-1700.84 4899.89,-1711.12 4905.74,-1707.28"/>
</g>
<!-- at_daemon_server -->
<g id="node22" class="node">
<title>at_daemon_server</title>
<polygon fill="none" stroke="#4bd261" points="4926.06,-2484.62 4780.06,-2484.62 4780.06,-2448.62 4926.06,-2448.62 4926.06,-2484.62"/>
<text text-anchor="middle" x="4853.06" y="-2462.92" font-family="Times,serif" font-size="14.00">at_daemon_server</text>
</g>
<!-- at_daemon_cli&#45;&gt;at_daemon_server -->
<g id="edge54" class="edge">
<title>at_daemon_cli&#45;&gt;at_daemon_server</title>
<path fill="none" stroke="#4bd261" d="M4771.75,-3157.49C4776.72,-3063.62 4828.33,-2611.51 4847.1,-2495.04"/>
<polygon fill="#4bd261" stroke="#4bd261" points="4850.6,-2495.28 4848.81,-2484.84 4843.7,-2494.12 4850.6,-2495.28"/>
</g>
<!-- at_daemon_cli&#45;&gt;at_daemon_server -->
<g id="edge58" class="edge">
<title>at_daemon_cli&#45;&gt;at_daemon_server</title>
<path fill="none" stroke="#4bd261" stroke-dasharray="1,5" d="M4776.29,-3157.49C4792.83,-3063.62 4844.81,-2611.51 4852.73,-2495.04"/>
<polygon fill="#4bd261" stroke="#4bd261" points="4856.24,-2495.03 4853.36,-2484.84 4849.25,-2494.6 4856.24,-2495.03"/>
</g>
<!-- at_daemon_cli&#45;&gt;at_onboarding_cli -->
<g id="edge52" class="edge">
<title>at_daemon_cli&#45;&gt;at_onboarding_cli</title>
<path fill="none" stroke="#514d2d" d="M4771.06,-3157.54C4765.88,-3075.59 4738.21,-2715.31 4639.06,-2440.62 4527.64,-2131.95 4297.35,-1801.39 4230.58,-1708.91"/>
<polygon fill="#514d2d" stroke="#514d2d" points="4233.34,-1706.75 4224.64,-1700.71 4227.67,-1710.86 4233.34,-1706.75"/>
</g>
<!-- at_daemon_cli&#45;&gt;at_utils -->
<g id="edge55" class="edge">
<title>at_daemon_cli&#45;&gt;at_utils</title>
<path fill="none" stroke="#75e849" d="M4784.55,-3157.47C4836.73,-3084.66 5037.5,-2792.19 5103.06,-2515.62 5172.48,-2222.71 5498.92,-2293.53 4959.06,-1656.62 4710.31,-1363.16 3445.77,-1069.25 3190.87,-1012.45"/>
<polygon fill="#75e849" stroke="#75e849" points="3191.38,-1008.98 3180.86,-1010.23 3189.86,-1015.81 3191.38,-1008.98"/>
</g>
<!-- at_daemon_client -->
<g id="node19" class="node">
<title>at_daemon_client</title>
<polygon fill="none" stroke="#dbe812" points="5084.06,-2484.62 4944.06,-2484.62 4944.06,-2448.62 5084.06,-2448.62 5084.06,-2484.62"/>
<text text-anchor="middle" x="5014.06" y="-2462.92" font-family="Times,serif" font-size="14.00">at_daemon_client</text>
</g>
<!-- at_daemon_client&#45;&gt;at_daemon_core -->
<g id="edge60" class="edge">
<title>at_daemon_client&#45;&gt;at_daemon_core</title>
<path fill="none" stroke="#c16272" d="M5009.06,-2448.56C4986.45,-2348.28 4901.07,-1835.72 4885.92,-1711"/>
<polygon fill="#c16272" stroke="#c16272" points="4889.36,-1710.32 4884.74,-1700.79 4882.41,-1711.13 4889.36,-1710.32"/>
</g>
<!-- at_daemon_client&#45;&gt;at_daemon_core -->
<g id="edge61" class="edge">
<title>at_daemon_client&#45;&gt;at_daemon_core</title>
<path fill="none" stroke="#c16272" stroke-dasharray="1,5" d="M5013.38,-2448.56C5002.64,-2348.18 4917.44,-1834.69 4891.22,-1710.63"/>
<polygon fill="#c16272" stroke="#c16272" points="4894.63,-1709.82 4889.08,-1700.79 4887.79,-1711.31 4894.63,-1709.82"/>
</g>
<!-- at_daemon_core&#45;&gt;at_commons -->
<g id="edge63" class="edge">
<title>at_daemon_core&#45;&gt;at_commons</title>
<path fill="none" stroke="#7eceb0" d="M4885.1,-1664.5C4896.77,-1579.45 4964.67,-1197.65 4795.06,-975.62 4386.98,-441.43 3474.18,-343.26 3226.84,-326.09"/>
<polygon fill="#7eceb0" stroke="#7eceb0" points="3226.81,-322.58 3216.6,-325.4 3226.34,-329.57 3226.81,-322.58"/>
</g>
<!-- at_daemon_core&#45;&gt;at_commons -->
<g id="edge64" class="edge">
<title>at_daemon_core&#45;&gt;at_commons</title>
<path fill="none" stroke="#7eceb0" stroke-dasharray="1,5" d="M4890.64,-1664.5C4914.77,-1579.45 4982.67,-1197.65 4813.06,-975.62 4401.54,-436.93 3476.76,-341.63 3227.12,-325.68"/>
<polygon fill="#7eceb0" stroke="#7eceb0" points="3226.98,-322.16 3216.79,-325.04 3226.55,-329.15 3226.98,-322.16"/>
</g>
<!-- at_daemon_core&#45;&gt;at_utils -->
<g id="edge62" class="edge">
<title>at_daemon_core&#45;&gt;at_utils</title>
<path fill="none" stroke="#75e849" d="M4840.22,-1664.5C4598.76,-1570.16 3432.9,-1114.68 3190.32,-1019.92"/>
<polygon fill="#75e849" stroke="#75e849" points="3191.36,-1016.56 3180.77,-1016.18 3188.81,-1023.08 3191.36,-1016.56"/>
</g>
<!-- at_daemon_desktop -->
<g id="node21" class="node">
<title>at_daemon_desktop</title>
<polygon fill="none" stroke="#89d485" points="5005.56,-3193.62 4848.56,-3193.62 4848.56,-3157.62 5005.56,-3157.62 5005.56,-3193.62"/>
<text text-anchor="middle" x="4927.06" y="-3171.92" font-family="Times,serif" font-size="14.00">at_daemon_desktop</text>
</g>
<!-- at_daemon_server&#45;&gt;at_client -->
<g id="edge65" class="edge">
<title>at_daemon_server&#45;&gt;at_client</title>
<path fill="none" stroke="#61d4fc" d="M4808.01,-2448.56C4536.08,-2345.58 3116.05,-1807.83 2836.04,-1701.79"/>
<polygon fill="#61d4fc" stroke="#61d4fc" points="2837.15,-1698.47 2826.56,-1698.2 2834.67,-1705.02 2837.15,-1698.47"/>
</g>
<!-- at_daemon_server&#45;&gt;at_commons -->
<g id="edge70" class="edge">
<title>at_daemon_server&#45;&gt;at_commons</title>
<path fill="none" stroke="#7eceb0" stroke-dasharray="1,5" d="M4852.05,-2448.55C4847.33,-2368.06 4826.8,-2018.34 4810.06,-1731.62 4790.44,-1395.62 4961.87,-1249.36 4766.06,-975.62 4381.47,-437.99 3474.09,-342.14 3227.08,-325.83"/>
<polygon fill="#7eceb0" stroke="#7eceb0" points="3227.05,-322.32 3216.85,-325.17 3226.61,-329.3 3227.05,-322.32"/>
</g>
<!-- at_daemon_server&#45;&gt;at_daemon_core -->
<g id="edge66" class="edge">
<title>at_daemon_server&#45;&gt;at_daemon_core</title>
<path fill="none" stroke="#c16272" d="M4851.57,-2448.56C4849.61,-2348.28 4869.75,-1835.72 4880.28,-1711"/>
<polygon fill="#c16272" stroke="#c16272" points="4883.79,-1711.07 4881.2,-1700.79 4876.82,-1710.43 4883.79,-1711.07"/>
</g>
<!-- at_daemon_server&#45;&gt;at_daemon_core -->
<g id="edge69" class="edge">
<title>at_daemon_server&#45;&gt;at_daemon_core</title>
<path fill="none" stroke="#c16272" stroke-dasharray="1,5" d="M4855.9,-2448.56C4865.8,-2348.28 4886.3,-1835.72 4885.66,-1711"/>
<polygon fill="#c16272" stroke="#c16272" points="4889.16,-1710.75 4885.55,-1700.79 4882.16,-1710.83 4889.16,-1710.75"/>
</g>
<!-- at_daemon_server&#45;&gt;at_onboarding_cli -->
<g id="edge68" class="edge">
<title>at_daemon_server&#45;&gt;at_onboarding_cli</title>
<path fill="none" stroke="#514d2d" d="M4839.07,-2448.56C4756.38,-2347.68 4331.65,-1829.52 4232.68,-1708.79"/>
<polygon fill="#514d2d" stroke="#514d2d" points="4235.18,-1706.31 4226.13,-1700.79 4229.76,-1710.74 4235.18,-1706.31"/>
</g>
<!-- at_server_spec -->
<g id="node42" class="node">
<title>at_server_spec</title>
<polygon fill="none" stroke="#e6f023" points="1166.06,-1700.62 1044.06,-1700.62 1044.06,-1664.62 1166.06,-1664.62 1166.06,-1700.62"/>
<text text-anchor="middle" x="1105.06" y="-1678.92" font-family="Times,serif" font-size="14.00">at_server_spec</text>
</g>
<!-- at_daemon_server&#45;&gt;at_server_spec -->
<g id="edge67" class="edge">
<title>at_daemon_server&#45;&gt;at_server_spec</title>
<path fill="none" stroke="#e6f023" d="M4779.8,-2455.04C4323.93,-2388.63 1872.43,-2022.56 1176.06,-1731.62 1161.11,-1725.38 1146.03,-1715.76 1133.64,-1706.77"/>
<polygon fill="#e6f023" stroke="#e6f023" points="1135.63,-1703.89 1125.53,-1700.7 1131.44,-1709.49 1135.63,-1703.89"/>
</g>
<!-- at_dump_atKeys -->
<g id="node23" class="node">
<title>at_dump_atKeys</title>
<polygon fill="none" stroke="#80b159" points="3484.56,-1700.62 3351.56,-1700.62 3351.56,-1664.62 3484.56,-1664.62 3484.56,-1700.62"/>
<text text-anchor="middle" x="3418.06" y="-1678.92" font-family="Times,serif" font-size="14.00">at_dump_atKeys</text>
</g>
<!-- at_pkam -->
<g id="node37" class="node">
<title>at_pkam</title>
<polygon fill="none" stroke="#d549ec" points="3456.56,-1019.62 3379.56,-1019.62 3379.56,-983.62 3456.56,-983.62 3456.56,-1019.62"/>
<text text-anchor="middle" x="3418.06" y="-997.92" font-family="Times,serif" font-size="14.00">at_pkam</text>
</g>
<!-- at_dump_atKeys&#45;&gt;at_pkam -->
<g id="edge71" class="edge">
<title>at_dump_atKeys&#45;&gt;at_pkam</title>
<path fill="none" stroke="#d549ec" stroke-dasharray="1,5" d="M3418.06,-1664.5C3418.06,-1573.13 3418.06,-1143.01 3418.06,-1029.92"/>
<polygon fill="#d549ec" stroke="#d549ec" points="3421.56,-1029.7 3418.06,-1019.7 3414.56,-1029.7 3421.56,-1029.7"/>
</g>
<!-- at_events_flutter -->
<g id="node24" class="node">
<title>at_events_flutter</title>
<polygon fill="none" stroke="#5b74f7" points="2313.56,-4659.62 2176.56,-4659.62 2176.56,-4623.62 2313.56,-4623.62 2313.56,-4659.62"/>
<text text-anchor="middle" x="2245.06" y="-4637.92" font-family="Times,serif" font-size="14.00">at_events_flutter</text>
</g>
<!-- at_events_flutter&#45;&gt;at_client -->
<g id="edge77" class="edge">
<title>at_events_flutter&#45;&gt;at_client</title>
<path fill="none" stroke="#61d4fc" d="M2255.28,-4623.37C2298.94,-4548.96 2471.81,-4247.08 2564.06,-3978.62 2869.06,-3090.99 2803.28,-1904.31 2790.05,-1710.8"/>
<polygon fill="#61d4fc" stroke="#61d4fc" points="2793.53,-1710.4 2789.34,-1700.67 2786.54,-1710.89 2793.53,-1710.4"/>
</g>
<!-- at_events_flutter&#45;&gt;at_client_mobile -->
<g id="edge73" class="edge">
<title>at_events_flutter&#45;&gt;at_client_mobile</title>
<path fill="none" stroke="#d9577c" d="M2254.37,-4623.5C2294.56,-4549.04 2455.06,-4245.06 2544.06,-3978.62 2652.86,-3652.89 2675.27,-3565.96 2713.06,-3224.62 2716.33,-3195.02 2713.08,-3187.4 2713.06,-3157.62 2712.87,-2899.77 2712.29,-2587.72 2712.11,-2494.9"/>
<polygon fill="#d9577c" stroke="#d9577c" points="2715.61,-2494.68 2712.09,-2484.69 2708.61,-2494.7 2715.61,-2494.68"/>
</g>
<!-- at_events_flutter&#45;&gt;at_common_flutter -->
<g id="edge81" class="edge">
<title>at_events_flutter&#45;&gt;at_common_flutter</title>
<path fill="none" stroke="#bf681f" d="M2236.99,-4623.57C2182.64,-4507.66 1869.19,-3821.97 1772.06,-3224.62 1767.28,-3195.23 1771.71,-3187.4 1772.06,-3157.62 1775.05,-2899.72 1784.32,-2587.7 1787.2,-2494.9"/>
<polygon fill="#bf681f" stroke="#bf681f" points="1790.7,-2494.79 1787.51,-2484.69 1783.7,-2494.57 1790.7,-2494.79"/>
</g>
<!-- at_events_flutter&#45;&gt;at_commons -->
<g id="edge72" class="edge">
<title>at_events_flutter&#45;&gt;at_commons</title>
<path fill="none" stroke="#7eceb0" d="M2258.69,-4623.59C2392.54,-4455.19 3473.83,-3066.28 3810.06,-1731.62 3862.77,-1522.36 4103.76,-1820.97 3731.06,-975.62 3601.57,-681.94 3292.97,-423.4 3194.68,-346.09"/>
<polygon fill="#7eceb0" stroke="#7eceb0" points="3196.67,-343.2 3186.63,-339.8 3192.36,-348.72 3196.67,-343.2"/>
</g>
<!-- at_events_flutter&#45;&gt;at_contact -->
<g id="edge74" class="edge">
<title>at_events_flutter&#45;&gt;at_contact</title>
<path fill="none" stroke="#250aa2" d="M2313.86,-4623.61C2528.63,-4567.35 3195.57,-4368.32 3587.06,-3978.62 4066.4,-3501.47 4294.13,-2657.21 4334.46,-2495"/>
<polygon fill="#250aa2" stroke="#250aa2" points="4337.96,-2495.46 4336.95,-2484.91 4331.16,-2493.78 4337.96,-2495.46"/>
</g>
<!-- at_events_flutter&#45;&gt;at_contacts_flutter -->
<g id="edge79" class="edge">
<title>at_events_flutter&#45;&gt;at_contacts_flutter</title>
<path fill="none" stroke="#1267b5" d="M2242.19,-4623.56C2229.68,-4548.09 2179.78,-4236.64 2164.06,-3978.62 2145.56,-3675.17 2170.97,-3306.08 2178.85,-3203.94"/>
<polygon fill="#1267b5" stroke="#1267b5" points="2182.35,-3204.1 2179.64,-3193.85 2175.37,-3203.55 2182.35,-3204.1"/>
</g>
<!-- at_events_flutter&#45;&gt;at_contacts_group_flutter -->
<g id="edge78" class="edge">
<title>at_events_flutter&#45;&gt;at_contacts_group_flutter</title>
<path fill="none" stroke="#dae1d2" d="M2245.74,-4623.5C2249.37,-4532.13 2266.47,-4102.01 2270.97,-3988.92"/>
<polygon fill="#dae1d2" stroke="#dae1d2" points="2274.48,-3988.83 2271.38,-3978.7 2267.48,-3988.55 2274.48,-3988.83"/>
</g>
<!-- at_location_flutter -->
<g id="node28" class="node">
<title>at_location_flutter</title>
<polygon fill="none" stroke="#283e9c" points="2535.06,-3978.62 2389.06,-3978.62 2389.06,-3942.62 2535.06,-3942.62 2535.06,-3978.62"/>
<text text-anchor="middle" x="2462.06" y="-3956.92" font-family="Times,serif" font-size="14.00">at_location_flutter</text>
</g>
<!-- at_events_flutter&#45;&gt;at_location_flutter -->
<g id="edge80" class="edge">
<title>at_events_flutter&#45;&gt;at_location_flutter</title>
<path fill="none" stroke="#283e9c" d="M2250.53,-4623.5C2279.79,-4531.95 2417.75,-4100.27 2453.55,-3988.24"/>
<polygon fill="#283e9c" stroke="#283e9c" points="2456.89,-3989.29 2456.6,-3978.7 2450.22,-3987.16 2456.89,-3989.29"/>
</g>
<!-- at_events_flutter&#45;&gt;at_lookup -->
<g id="edge75" class="edge">
<title>at_events_flutter&#45;&gt;at_lookup</title>
<path fill="none" stroke="#94d42d" d="M2298.83,-4623.59C2670.68,-4504.68 4855.91,-3786.78 5219.06,-3224.62 5408.16,-2931.88 5346.49,-1991.53 5250.06,-1656.62 5153.49,-1321.24 5084.64,-1241.93 4859.06,-975.62 4610.62,-682.33 4217.74,-421.35 4097.92,-345.06"/>
<polygon fill="#94d42d" stroke="#94d42d" points="4099.76,-342.08 4089.45,-339.68 4096.01,-347.99 4099.76,-342.08"/>
</g>
<!-- at_events_flutter&#45;&gt;at_utils -->
<g id="edge76" class="edge">
<title>at_events_flutter&#45;&gt;at_utils</title>
<path fill="none" stroke="#75e849" d="M2287.31,-4623.53C2634.94,-4482.56 5014.67,-3509.75 5194.06,-3224.62 5286.83,-3077.16 5296.82,-1797.31 5194.06,-1656.62 4938.93,-1307.34 3467.1,-1054.44 3190.77,-1009.7"/>
<polygon fill="#75e849" stroke="#75e849" points="3191.14,-1006.22 3180.71,-1008.08 3190.02,-1013.13 3191.14,-1006.22"/>
</g>
<!-- at_follows_flutter -->
<g id="node25" class="node">
<title>at_follows_flutter</title>
<polygon fill="none" stroke="#13b24b" points="2615.06,-4659.62 2475.06,-4659.62 2475.06,-4623.62 2615.06,-4623.62 2615.06,-4659.62"/>
<text text-anchor="middle" x="2545.06" y="-4637.92" font-family="Times,serif" font-size="14.00">at_follows_flutter</text>
</g>
<!-- at_follows_flutter&#45;&gt;at_client -->
<g id="edge84" class="edge">
<title>at_follows_flutter&#45;&gt;at_client</title>
<path fill="none" stroke="#61d4fc" d="M2615.09,-4626.01C2825.99,-4577.8 3455.59,-4402.05 3701.06,-3978.62 4043.88,-3387.25 3991.76,-3059.28 3701.06,-2440.62 3512.6,-2039.56 2995.76,-1777.82 2835.85,-1704.6"/>
<polygon fill="#61d4fc" stroke="#61d4fc" points="2837.27,-1701.41 2826.72,-1700.45 2834.37,-1707.78 2837.27,-1701.41"/>
</g>
<!-- at_follows_flutter&#45;&gt;at_client_mobile -->
<g id="edge85" class="edge">
<title>at_follows_flutter&#45;&gt;at_client_mobile</title>
<path fill="none" stroke="#d9577c" d="M2554.77,-4623.47C2596.04,-4549.46 2757.13,-4248.98 2809.06,-3978.62 2922.59,-3387.45 2755.38,-2644.82 2718.85,-2494.76"/>
<polygon fill="#d9577c" stroke="#d9577c" points="2722.24,-2493.87 2716.45,-2484.99 2715.44,-2495.54 2722.24,-2493.87"/>
</g>
<!-- at_follows_flutter&#45;&gt;at_commons -->
<g id="edge83" class="edge">
<title>at_follows_flutter&#45;&gt;at_commons</title>
<path fill="none" stroke="#7eceb0" d="M2608.73,-4623.55C2806.25,-4567.29 3413.95,-4368.59 3726.06,-3978.62 3944.58,-3705.58 3900.53,-3570.66 3951.06,-3224.62 3987.16,-2977.34 4036.9,-1202 3931.06,-975.62 3774.12,-639.95 3351.55,-412.6 3210.56,-344.21"/>
<polygon fill="#7eceb0" stroke="#7eceb0" points="3211.82,-340.93 3201.3,-339.75 3208.79,-347.24 3211.82,-340.93"/>
</g>
<!-- at_follows_flutter&#45;&gt;at_lookup -->
<g id="edge87" class="edge">
<title>at_follows_flutter&#45;&gt;at_lookup</title>
<path fill="none" stroke="#94d42d" d="M2615.23,-4638.5C3053.66,-4621.24 5398.06,-4468.55 5398.06,-3176.62 5398.06,-3176.62 5398.06,-3176.62 5398.06,-1681.62 5398.06,-1367.66 5543.87,-1239.69 5374.06,-975.62 5071.25,-504.74 4319.72,-360.9 4114.53,-329.78"/>
<polygon fill="#94d42d" stroke="#94d42d" points="4115.02,-326.32 4104.61,-328.3 4113.99,-333.24 4115.02,-326.32"/>
</g>
<!-- at_server_status -->
<g id="node43" class="node">
<title>at_server_status</title>
<polygon fill="none" stroke="#320113" points="4193.06,-1019.62 4059.06,-1019.62 4059.06,-983.62 4193.06,-983.62 4193.06,-1019.62"/>
<text text-anchor="middle" x="4126.06" y="-997.92" font-family="Times,serif" font-size="14.00">at_server_status</text>
</g>
<!-- at_follows_flutter&#45;&gt;at_server_status -->
<g id="edge86" class="edge">
<title>at_follows_flutter&#45;&gt;at_server_status</title>
<path fill="none" stroke="#320113" d="M2615.23,-4634.34C2859.85,-4608.22 3677.79,-4484.54 4005.06,-3978.62 4376.33,-3404.68 3981.44,-3123.58 4010.06,-2440.62 4033.97,-1869.92 4107.34,-1174.81 4123.07,-1029.88"/>
<polygon fill="#320113" stroke="#320113" points="4126.57,-1030 4124.18,-1019.68 4119.61,-1029.24 4126.57,-1030"/>
</g>
<!-- at_follows_flutter&#45;&gt;at_utils -->
<g id="edge82" class="edge">
<title>at_follows_flutter&#45;&gt;at_utils</title>
<path fill="none" stroke="#75e849" d="M2615.08,-4631.29C2980.06,-4578.42 4670.7,-4280.19 5275.06,-3224.62 5332.81,-3123.75 5315.87,-1680.65 5298.06,-1656.62 5027.88,-1292.14 3475.01,-1050.48 3190.74,-1008.99"/>
<polygon fill="#75e849" stroke="#75e849" points="3191.19,-1005.52 3180.79,-1007.54 3190.18,-1012.44 3191.19,-1005.52"/>
</g>
<!-- at_hive_recovery -->
<g id="node26" class="node">
<title>at_hive_recovery</title>
<polygon fill="none" stroke="#f0efbc" points="3248.56,-1700.62 3111.56,-1700.62 3111.56,-1664.62 3248.56,-1664.62 3248.56,-1700.62"/>
<text text-anchor="middle" x="3180.06" y="-1678.92" font-family="Times,serif" font-size="14.00">at_hive_recovery</text>
</g>
<!-- at_hive_recovery&#45;&gt;at_persistence_secondary_server -->
<g id="edge88" class="edge">
<title>at_hive_recovery&#45;&gt;at_persistence_secondary_server</title>
<path fill="none" stroke="#9760d3" d="M3182.73,-1700.64C3191.21,-1765.55 3210.22,-1988.67 3088.06,-2086.12 2732.96,-2369.36 1415.31,-2347.82 1044.06,-2086.12 918.03,-1997.28 901.68,-1787.73 900.02,-1711.22"/>
<polygon fill="#9760d3" stroke="#9760d3" points="903.52,-1710.88 899.88,-1700.93 896.52,-1710.98 903.52,-1710.88"/>
</g>
<!-- at_invitation_flutter -->
<g id="node27" class="node">
<title>at_invitation_flutter</title>
<polygon fill="none" stroke="#b653c9" points="2431.06,-3193.62 2273.06,-3193.62 2273.06,-3157.62 2431.06,-3157.62 2431.06,-3193.62"/>
<text text-anchor="middle" x="2352.06" y="-3171.92" font-family="Times,serif" font-size="14.00">at_invitation_flutter</text>
</g>
<!-- at_invitation_flutter&#45;&gt;at_client_mobile -->
<g id="edge89" class="edge">
<title>at_invitation_flutter&#45;&gt;at_client_mobile</title>
<path fill="none" stroke="#d9577c" d="M2360.78,-3157.49C2408.72,-3063.34 2640.18,-2608.78 2698.63,-2493.99"/>
<polygon fill="#d9577c" stroke="#d9577c" points="2701.87,-2495.34 2703.29,-2484.84 2695.63,-2492.16 2701.87,-2495.34"/>
</g>
<!-- at_invitation_flutter&#45;&gt;at_common_flutter -->
<g id="edge90" class="edge">
<title>at_invitation_flutter&#45;&gt;at_common_flutter</title>
<path fill="none" stroke="#bf681f" d="M2338.39,-3157.49C2263.06,-3063.06 1898.47,-2606.03 1808.27,-2492.96"/>
<polygon fill="#bf681f" stroke="#bf681f" points="1810.76,-2490.47 1801.79,-2484.84 1805.29,-2494.84 1810.76,-2490.47"/>
</g>
<!-- at_invitation_flutter&#45;&gt;at_commons -->
<g id="edge91" class="edge">
<title>at_invitation_flutter&#45;&gt;at_commons</title>
<path fill="none" stroke="#7eceb0" d="M2294.65,-3157.52C2036.36,-3079.64 984.09,-2752.2 742.06,-2515.62 470.2,-2249.9 477.69,-2103.76 400.06,-1731.62 348.89,-1486.35 25.25,-1470.01 438.06,-975.62 798.25,-544.24 2727.36,-359.72 3101.27,-327.76"/>
<polygon fill="#7eceb0" stroke="#7eceb0" points="3101.69,-331.23 3111.36,-326.9 3101.1,-324.26 3101.69,-331.23"/>
</g>
<!-- at_invitation_flutter&#45;&gt;at_lookup -->
<g id="edge92" class="edge">
<title>at_invitation_flutter&#45;&gt;at_lookup</title>
<path fill="none" stroke="#94d42d" d="M2346.28,-3157.34C2316.54,-3070.6 2173.23,-2677.47 1942.06,-2440.62 1509.37,-1997.31 1049.09,-2269.64 742.06,-1731.62 575.52,-1439.8 528.62,-1235.12 742.06,-975.62 962.36,-707.77 3601.37,-378.42 4009.25,-328.96"/>
<polygon fill="#94d42d" stroke="#94d42d" points="4009.79,-332.42 4019.3,-327.74 4008.95,-325.47 4009.79,-332.42"/>
</g>
<!-- at_invitation_flutter&#45;&gt;at_utils -->
<g id="edge93" class="edge">
<title>at_invitation_flutter&#45;&gt;at_utils</title>
<path fill="none" stroke="#75e849" d="M2351.59,-3157.58C2348.78,-3031.18 2342.01,-2228.23 2603.06,-1656.62 2734.27,-1369.29 3025.66,-1105.25 3117.65,-1026.41"/>
<polygon fill="#75e849" stroke="#75e849" points="3120.09,-1028.94 3125.42,-1019.79 3115.54,-1023.61 3120.09,-1028.94"/>
</g>
<!-- at_location_flutter&#45;&gt;at_client -->
<g id="edge99" class="edge">
<title>at_location_flutter&#45;&gt;at_client</title>
<path fill="none" stroke="#61d4fc" d="M2411.59,-3942.52C2236.51,-3880.11 1654.24,-3645.89 1438.06,-3224.62 1424.46,-3198.13 1435.31,-3187.27 1438.06,-3157.62 1467.96,-2834.82 1389.18,-2708.3 1572.06,-2440.62 1879.92,-1990 2553.6,-1755.66 2739.63,-1697.94"/>
<polygon fill="#61d4fc" stroke="#61d4fc" points="2740.87,-1701.22 2749.4,-1694.94 2738.81,-1694.53 2740.87,-1701.22"/>
</g>
<!-- at_location_flutter&#45;&gt;at_client_mobile -->
<g id="edge94" class="edge">
<title>at_location_flutter&#45;&gt;at_client_mobile</title>
<path fill="none" stroke="#d9577c" d="M2469.53,-3942.44C2503.74,-3862.83 2645.78,-3521.07 2695.06,-3224.62 2741.91,-2942.76 2721.46,-2593.83 2714.21,-2494.9"/>
<polygon fill="#d9577c" stroke="#d9577c" points="2717.7,-2494.55 2713.46,-2484.84 2710.72,-2495.08 2717.7,-2494.55"/>
</g>
<!-- at_location_flutter&#45;&gt;at_common_flutter -->
<g id="edge100" class="edge">
<title>at_location_flutter&#45;&gt;at_common_flutter</title>
<path fill="none" stroke="#bf681f" d="M2437.5,-3942.6C2335.8,-3870.42 1946.41,-3577.09 1807.06,-3224.62 1753.09,-3088.13 1778.81,-2613.87 1786.26,-2494.87"/>
<polygon fill="#bf681f" stroke="#bf681f" points="1789.76,-2494.99 1786.9,-2484.78 1782.78,-2494.54 1789.76,-2494.99"/>
</g>
<!-- at_location_flutter&#45;&gt;at_commons -->
<g id="edge96" class="edge">
<title>at_location_flutter&#45;&gt;at_commons</title>
<path fill="none" stroke="#7eceb0" d="M2420.39,-3942.58C2185.3,-3844.25 1015.36,-3325.34 451.06,-2515.62 254.2,-2233.15 56.26,-1236.41 281.06,-975.62 669.13,-525.41 2715.32,-355.3 3101.24,-327"/>
<polygon fill="#7eceb0" stroke="#7eceb0" points="3101.66,-330.48 3111.38,-326.27 3101.15,-323.5 3101.66,-330.48"/>
</g>
<!-- at_location_flutter&#45;&gt;at_contact -->
<g id="edge97" class="edge">
<title>at_location_flutter&#45;&gt;at_contact</title>
<path fill="none" stroke="#250aa2" d="M2511.03,-3942.59C2698.08,-3875.73 3378.79,-3615.5 3815.06,-3224.62 4077.74,-2989.26 4277.98,-2598.09 4328.6,-2493.82"/>
<polygon fill="#250aa2" stroke="#250aa2" points="4331.84,-2495.17 4333.03,-2484.64 4325.53,-2492.13 4331.84,-2495.17"/>
</g>
<!-- at_location_flutter&#45;&gt;at_contacts_flutter -->
<g id="edge101" class="edge">
<title>at_location_flutter&#45;&gt;at_contacts_flutter</title>
<path fill="none" stroke="#1267b5" d="M2455.93,-3942.54C2419.82,-3841.93 2234.97,-3326.85 2190.63,-3203.29"/>
<polygon fill="#1267b5" stroke="#1267b5" points="2193.9,-3202.04 2187.23,-3193.81 2187.31,-3204.41 2193.9,-3202.04"/>
</g>
<!-- at_location_flutter&#45;&gt;at_lookup -->
<g id="edge95" class="edge">
<title>at_location_flutter&#45;&gt;at_lookup</title>
<path fill="none" stroke="#94d42d" d="M2475.99,-3942.59C2594.69,-3796.57 3441.48,-2736.63 3841.06,-1731.62 4049.91,-1206.32 4062.01,-497.35 4062.19,-350.09"/>
<polygon fill="#94d42d" stroke="#94d42d" points="4065.69,-349.73 4062.18,-339.73 4058.69,-349.73 4065.69,-349.73"/>
</g>
<!-- at_location_flutter&#45;&gt;at_utils -->
<g id="edge98" class="edge">
<title>at_location_flutter&#45;&gt;at_utils</title>
<path fill="none" stroke="#75e849" d="M2478.7,-3942.57C2551.4,-3866.74 2842.16,-3549.6 2945.06,-3224.62 3155.52,-2559.9 2905.09,-2348.03 2995.06,-1656.62 3027.24,-1409.28 3111.17,-1118.34 3137.81,-1029.63"/>
<polygon fill="#75e849" stroke="#75e849" points="3141.23,-1030.41 3140.77,-1019.83 3134.53,-1028.39 3141.23,-1030.41"/>
</g>
<!-- at_login_flutter -->
<g id="node29" class="node">
<title>at_login_flutter</title>
<polygon fill="none" stroke="#7ceee7" points="2456.56,-4659.62 2331.56,-4659.62 2331.56,-4623.62 2456.56,-4623.62 2456.56,-4659.62"/>
<text text-anchor="middle" x="2394.06" y="-4637.92" font-family="Times,serif" font-size="14.00">at_login_flutter</text>
</g>
<!-- at_login_flutter&#45;&gt;at_client -->
<g id="edge102" class="edge">
<title>at_login_flutter&#45;&gt;at_client</title>
<path fill="none" stroke="#61d4fc" d="M2421.17,-4623.54C2524.27,-4556.77 2892.6,-4301.04 3021.06,-3978.62 3369.08,-3105.06 2882.7,-1903.32 2799.75,-1710.26"/>
<polygon fill="#61d4fc" stroke="#61d4fc" points="2802.87,-1708.66 2795.69,-1700.87 2796.44,-1711.44 2802.87,-1708.66"/>
</g>
<!-- at_login_flutter&#45;&gt;at_client_mobile -->
<g id="edge103" class="edge">
<title>at_login_flutter&#45;&gt;at_client_mobile</title>
<path fill="none" stroke="#d9577c" d="M2408.67,-4623.22C2468.61,-4550.54 2696.07,-4261.82 2771.06,-3978.62 2849.3,-3683.13 2736.37,-2674.9 2715.33,-2495.15"/>
<polygon fill="#d9577c" stroke="#d9577c" points="2718.77,-2494.49 2714.13,-2484.96 2711.82,-2495.3 2718.77,-2494.49"/>
</g>
<!-- at_login_flutter&#45;&gt;at_commons -->
<g id="edge104" class="edge">
<title>at_login_flutter&#45;&gt;at_commons</title>
<path fill="none" stroke="#7eceb0" d="M2415.33,-4623.45C2502.52,-4552.24 2837.5,-4270.15 3041.06,-3978.62 3453.5,-3387.93 3528.89,-3204.72 3739.06,-2515.62 3938.98,-1860.11 4096.86,-1601.22 3817.06,-975.62 3677.5,-663.6 3317.5,-418.39 3201.01,-345.11"/>
<polygon fill="#7eceb0" stroke="#7eceb0" points="3202.75,-342.07 3192.41,-339.74 3199.04,-348.01 3202.75,-342.07"/>
</g>
<!-- at_login_flutter&#45;&gt;at_server_status -->
<g id="edge105" class="edge">
<title>at_login_flutter&#45;&gt;at_server_status</title>
<path fill="none" stroke="#320113" d="M2445.36,-4623.54C2674.86,-4546.1 3603.69,-4221.17 3777.06,-3978.62 3788.47,-3962.65 4088.98,-1327.97 4122.94,-1029.96"/>
<polygon fill="#320113" stroke="#320113" points="4126.46,-1029.96 4124.12,-1019.63 4119.51,-1029.17 4126.46,-1029.96"/>
</g>
<!-- at_login_flutter&#45;&gt;at_utils -->
<g id="edge106" class="edge">
<title>at_login_flutter&#45;&gt;at_utils</title>
<path fill="none" stroke="#75e849" d="M2444.77,-4623.61C2798.82,-4503.77 4896.7,-3775.1 5233.06,-3224.62 5323.9,-3075.95 5328.47,-1794.58 5222.06,-1656.62 4954.46,-1309.7 3468.23,-1054.65 3190.7,-1009.7"/>
<polygon fill="#75e849" stroke="#75e849" points="3191.03,-1006.21 3180.6,-1008.07 3189.91,-1013.12 3191.03,-1006.21"/>
</g>
<!-- at_lookup&#45;&gt;at_chops -->
<g id="edge109" class="edge">
<title>at_lookup&#45;&gt;at_chops</title>
<path fill="none" stroke="#8fb4d4" d="M4066.31,-339.87C4112.77,-528.47 4525.83,-2204.96 4583.41,-2438.63"/>
<polygon fill="#8fb4d4" stroke="#8fb4d4" points="4580.02,-2439.5 4585.81,-2448.37 4586.81,-2437.82 4580.02,-2439.5"/>
</g>
<!-- at_lookup&#45;&gt;at_commons -->
<g id="edge108" class="edge">
<title>at_lookup&#45;&gt;at_commons</title>
<path fill="none" stroke="#7eceb0" d="M4019.54,-321.62C3755.31,-321.62 3491.09,-321.62 3226.87,-321.62"/>
<polygon fill="#7eceb0" stroke="#7eceb0" points="3226.67,-318.12 3216.67,-321.62 3226.67,-325.12 3226.67,-318.12"/>
</g>
<!-- at_lookup&#45;&gt;at_utils -->
<g id="edge107" class="edge">
<title>at_lookup&#45;&gt;at_utils</title>
<path fill="none" stroke="#75e849" d="M4039.02,-339.67C3914.43,-431.89 3321.55,-870.73 3177.6,-977.27"/>
<polygon fill="#75e849" stroke="#75e849" points="3175.11,-974.76 3169.16,-983.52 3179.28,-980.39 3175.11,-974.76"/>
</g>
<!-- at_notify_flutter -->
<g id="node31" class="node">
<title>at_notify_flutter</title>
<polygon fill="none" stroke="#19e4c3" points="1577.56,-3193.62 1446.56,-3193.62 1446.56,-3157.62 1577.56,-3157.62 1577.56,-3193.62"/>
<text text-anchor="middle" x="1512.06" y="-3171.92" font-family="Times,serif" font-size="14.00">at_notify_flutter</text>
</g>
<!-- at_notify_flutter&#45;&gt;at_client -->
<g id="edge111" class="edge">
<title>at_notify_flutter&#45;&gt;at_client</title>
<path fill="none" stroke="#61d4fc" d="M1509.56,-3157.41C1498.08,-3071.81 1457.28,-2686.25 1614.06,-2440.62 1899.93,-1992.74 2556.38,-1757.01 2739.72,-1698.36"/>
<polygon fill="#61d4fc" stroke="#61d4fc" points="2740.88,-1701.66 2749.35,-1695.3 2738.76,-1694.99 2740.88,-1701.66"/>
</g>
<!-- at_notify_flutter&#45;&gt;at_client_mobile -->
<g id="edge110" class="edge">
<title>at_notify_flutter&#45;&gt;at_client_mobile</title>
<path fill="none" stroke="#d9577c" d="M1541.12,-3157.49C1702.95,-3062.15 2492.03,-2597.25 2674.39,-2489.81"/>
<polygon fill="#d9577c" stroke="#d9577c" points="2676.26,-2492.77 2683.1,-2484.68 2672.71,-2486.74 2676.26,-2492.77"/>
</g>
<!-- at_notify_flutter&#45;&gt;at_common_flutter -->
<g id="edge113" class="edge">
<title>at_notify_flutter&#45;&gt;at_common_flutter</title>
<path fill="none" stroke="#bf681f" d="M1518.74,-3157.49C1555.46,-3063.43 1732.59,-2609.69 1777.63,-2494.34"/>
<polygon fill="#bf681f" stroke="#bf681f" points="1780.96,-2495.43 1781.33,-2484.84 1774.44,-2492.88 1780.96,-2495.43"/>
</g>
<!-- at_notify_flutter&#45;&gt;at_commons -->
<g id="edge112" class="edge">
<title>at_notify_flutter&#45;&gt;at_commons</title>
<path fill="none" stroke="#7eceb0" d="M1464.24,-3157.59C1302.08,-3097.34 768.14,-2878.26 497.06,-2515.62 290.7,-2239.57 88.73,-1237.28 313.06,-975.62 695.64,-529.37 2717.95,-356.2 3101.3,-327.15"/>
<polygon fill="#7eceb0" stroke="#7eceb0" points="3101.66,-330.63 3111.37,-326.39 3101.14,-323.65 3101.66,-330.63"/>
</g>
<!-- at_onboarding_cli&#45;&gt;at_chops -->
<g id="edge119" class="edge">
<title>at_onboarding_cli&#45;&gt;at_chops</title>
<path fill="none" stroke="#8fb4d4" d="M4222.53,-1700.79C4277.18,-1801.57 4526.01,-2316.01 4579.9,-2439.12"/>
<polygon fill="#8fb4d4" stroke="#8fb4d4" points="4576.8,-2440.77 4583.97,-2448.56 4583.22,-2437.99 4576.8,-2440.77"/>
</g>
<!-- at_onboarding_cli&#45;&gt;at_client -->
<g id="edge115" class="edge">
<title>at_onboarding_cli&#45;&gt;at_client</title>
<path fill="none" stroke="#61d4fc" d="M4212.52,-1700.9C4213.07,-1766.69 4205.05,-1992.48 4074.06,-2086.12 3724.79,-2335.8 3494.62,-2272.92 3108.06,-2086.12 2940.1,-2004.96 2833.37,-1788.09 2799.62,-1710.61"/>
<polygon fill="#61d4fc" stroke="#61d4fc" points="2802.67,-1708.86 2795.51,-1701.05 2796.24,-1711.62 2802.67,-1708.86"/>
</g>
<!-- at_onboarding_cli&#45;&gt;at_commons -->
<g id="edge117" class="edge">
<title>at_onboarding_cli&#45;&gt;at_commons</title>
<path fill="none" stroke="#7eceb0" d="M4209.7,-1664.42C4197.66,-1581.3 4136.79,-1215.41 3969.06,-975.62 3748.96,-660.97 3336.5,-417.18 3205.26,-344.73"/>
<polygon fill="#7eceb0" stroke="#7eceb0" points="3206.76,-341.56 3196.31,-339.81 3203.39,-347.69 3206.76,-341.56"/>
</g>
<!-- at_onboarding_cli&#45;&gt;at_lookup -->
<g id="edge116" class="edge">
<title>at_onboarding_cli&#45;&gt;at_lookup</title>
<path fill="none" stroke="#94d42d" d="M4213.04,-1664.6C4217.36,-1585.86 4233,-1249.07 4202.06,-975.62 4174.15,-729.02 4095.03,-438.28 4069.85,-349.61"/>
<polygon fill="#94d42d" stroke="#94d42d" points="4073.17,-348.47 4067.06,-339.82 4066.44,-350.4 4073.17,-348.47"/>
</g>
<!-- at_onboarding_cli&#45;&gt;at_server_status -->
<g id="edge118" class="edge">
<title>at_onboarding_cli&#45;&gt;at_server_status</title>
<path fill="none" stroke="#320113" d="M4209.89,-1664.5C4198.32,-1573.13 4143.84,-1143.01 4129.51,-1029.92"/>
<polygon fill="#320113" stroke="#320113" points="4132.95,-1029.18 4128.22,-1019.7 4126,-1030.06 4132.95,-1029.18"/>
</g>
<!-- at_onboarding_cli&#45;&gt;at_utils -->
<g id="edge114" class="edge">
<title>at_onboarding_cli&#45;&gt;at_utils</title>
<path fill="none" stroke="#75e849" d="M4185.17,-1664.5C4039.71,-1571.84 3347.27,-1130.79 3181.69,-1025.32"/>
<polygon fill="#75e849" stroke="#75e849" points="3183.18,-1022.12 3172.87,-1019.7 3179.42,-1028.02 3183.18,-1022.12"/>
</g>
<!-- at_onboarding_flutter&#45;&gt;at_backupkey_flutter -->
<g id="edge120" class="edge">
<title>at_onboarding_flutter&#45;&gt;at_backupkey_flutter</title>
<path fill="none" stroke="#590b92" d="M1612.56,-3942.54C1734.31,-3841.12 2361.67,-3318.55 2503.52,-3200.39"/>
<polygon fill="#590b92" stroke="#590b92" points="2505.97,-3202.9 2511.42,-3193.81 2501.49,-3197.52 2505.97,-3202.9"/>
</g>
<!-- at_onboarding_flutter&#45;&gt;at_client -->
<g id="edge121" class="edge">
<title>at_onboarding_flutter&#45;&gt;at_client</title>
<path fill="none" stroke="#61d4fc" d="M1584.44,-3942.36C1527.76,-3810.95 1183.02,-2959.83 1526.06,-2440.62 1836.5,-1970.73 2548,-1748.79 2739.72,-1696.19"/>
<polygon fill="#61d4fc" stroke="#61d4fc" points="2740.77,-1699.53 2749.5,-1693.53 2738.94,-1692.77 2740.77,-1699.53"/>
</g>
<!-- at_onboarding_flutter&#45;&gt;at_client_mobile -->
<g id="edge122" class="edge">
<title>at_onboarding_flutter&#45;&gt;at_client_mobile</title>
<path fill="none" stroke="#d9577c" d="M1638.83,-3942.58C1806.56,-3878.77 2380.76,-3636.24 2624.06,-3224.62 2699.3,-3097.32 2710.23,-2615.21 2711.8,-2494.93"/>
<polygon fill="#d9577c" stroke="#d9577c" points="2715.3,-2494.79 2711.92,-2484.75 2708.3,-2494.71 2715.3,-2494.79"/>
</g>
<!-- at_onboarding_flutter&#45;&gt;at_commons -->
<g id="edge123" class="edge">
<title>at_onboarding_flutter&#45;&gt;at_commons</title>
<path fill="none" stroke="#7eceb0" d="M1577.41,-3942.57C1508.33,-3862.14 1208.33,-3512.61 964.06,-3224.62 697.59,-2910.47 556.04,-2881.65 367.06,-2515.62 209.29,-2210.06 -10.09,-1235.55 215.06,-975.62 613.21,-515.95 2710.69,-353.19 3101.37,-326.66"/>
<polygon fill="#7eceb0" stroke="#7eceb0" points="3101.62,-330.15 3111.36,-325.98 3101.15,-323.17 3101.62,-330.15"/>
</g>
<!-- at_onboarding_flutter&#45;&gt;at_server_status -->
<g id="edge124" class="edge">
<title>at_onboarding_flutter&#45;&gt;at_server_status</title>
<path fill="none" stroke="#320113" d="M1583.86,-3942.56C1522.73,-3812.63 1149.37,-2970.4 1478.06,-2440.62 2100.01,-1438.15 3681.05,-1085.96 4048.8,-1016.29"/>
<polygon fill="#320113" stroke="#320113" points="4049.63,-1019.7 4058.81,-1014.41 4048.33,-1012.82 4049.63,-1019.7"/>
</g>
<!-- at_sync_ui_flutter -->
<g id="node44" class="node">
<title>at_sync_ui_flutter</title>
<polygon fill="none" stroke="#27d02d" points="1738.06,-3193.62 1596.06,-3193.62 1596.06,-3157.62 1738.06,-3157.62 1738.06,-3193.62"/>
<text text-anchor="middle" x="1667.06" y="-3171.92" font-family="Times,serif" font-size="14.00">at_sync_ui_flutter</text>
</g>
<!-- at_onboarding_flutter&#45;&gt;at_sync_ui_flutter -->
<g id="edge126" class="edge">
<title>at_onboarding_flutter&#45;&gt;at_sync_ui_flutter</title>
<path fill="none" stroke="#27d02d" d="M1593.69,-3942.54C1603.31,-3842.13 1652.47,-3328.91 1664.43,-3204.04"/>
<polygon fill="#27d02d" stroke="#27d02d" points="1667.94,-3204.1 1665.41,-3193.81 1660.97,-3203.43 1667.94,-3204.1"/>
</g>
<!-- at_onboarding_flutter&#45;&gt;at_utils -->
<g id="edge125" class="edge">
<title>at_onboarding_flutter&#45;&gt;at_utils</title>
<path fill="none" stroke="#75e849" d="M1633.9,-3942.52C1791.84,-3875.84 2357.51,-3617.47 2649.06,-3224.62 3072.98,-2653.39 2839.76,-2355.93 2970.06,-1656.62 3016.2,-1408.95 3108.4,-1117.72 3137.23,-1029.35"/>
<polygon fill="#75e849" stroke="#75e849" points="3140.56,-1030.41 3140.35,-1019.82 3133.91,-1028.24 3140.56,-1030.41"/>
</g>
<!-- at_persistence_root_server -->
<g id="node34" class="node">
<title>at_persistence_root_server</title>
<polygon fill="none" stroke="#831d2e" points="1393.56,-1700.62 1184.56,-1700.62 1184.56,-1664.62 1393.56,-1664.62 1393.56,-1700.62"/>
<text text-anchor="middle" x="1289.06" y="-1678.92" font-family="Times,serif" font-size="14.00">at_persistence_root_server</text>
</g>
<!-- at_persistence_root_server&#45;&gt;at_commons -->
<g id="edge127" class="edge">
<title>at_persistence_root_server&#45;&gt;at_commons</title>
<path fill="none" stroke="#7eceb0" d="M1270.69,-1664.4C1184.14,-1581.2 828.39,-1215 1006.06,-975.62 1271.74,-617.65 2773.04,-379.74 3100.84,-331.63"/>
<polygon fill="#7eceb0" stroke="#7eceb0" points="3101.71,-335.04 3111.1,-330.13 3100.7,-328.11 3101.71,-335.04"/>
</g>
<!-- at_persistence_root_server&#45;&gt;at_persistence_spec -->
<g id="edge129" class="edge">
<title>at_persistence_root_server&#45;&gt;at_persistence_spec</title>
<path fill="none" stroke="#3bfcef" d="M1284.14,-1664.5C1257.87,-1573.04 1134.12,-1142.14 1101.8,-1029.58"/>
<polygon fill="#3bfcef" stroke="#3bfcef" points="1105.08,-1028.34 1098.96,-1019.7 1098.36,-1030.28 1105.08,-1028.34"/>
</g>
<!-- at_persistence_root_server&#45;&gt;at_utils -->
<g id="edge128" class="edge">
<title>at_persistence_root_server&#45;&gt;at_utils</title>
<path fill="none" stroke="#75e849" d="M1335.89,-1664.5C1594.84,-1569.81 2848.87,-1111.28 3101.61,-1018.87"/>
<polygon fill="#75e849" stroke="#75e849" points="3103.01,-1022.09 3111.2,-1015.36 3100.61,-1015.51 3103.01,-1022.09"/>
</g>
<!-- redis -->
<g id="node50" class="node">
<title>redis</title>
<polygon fill="none" stroke="#5cceca" points="4073.06,-2484.62 4019.06,-2484.62 4019.06,-2448.62 4073.06,-2448.62 4073.06,-2484.62"/>
<text text-anchor="middle" x="4046.06" y="-2462.92" font-family="Times,serif" font-size="14.00">redis</text>
</g>
<!-- at_persistence_root_server&#45;&gt;redis -->
<g id="edge130" class="edge">
<title>at_persistence_root_server&#45;&gt;redis</title>
<path fill="none" stroke="#5cceca" d="M1349.08,-1700.65C1721.62,-1806.31 3711.72,-2370.79 4008.92,-2455.09"/>
<polygon fill="#5cceca" stroke="#5cceca" points="4008.19,-2458.52 4018.77,-2457.88 4010.1,-2451.78 4008.19,-2458.52"/>
</g>
<!-- at_persistence_secondary_server&#45;&gt;at_commons -->
<g id="edge131" class="edge">
<title>at_persistence_secondary_server&#45;&gt;at_commons</title>
<path fill="none" stroke="#7eceb0" d="M895.21,-1664.56C872,-1579 780.49,-1192.2 956.06,-975.62 1243.06,-621.58 2770.57,-380.16 3100.99,-331.63"/>
<polygon fill="#7eceb0" stroke="#7eceb0" points="3101.94,-335.03 3111.33,-330.11 3100.93,-328.1 3101.94,-335.03"/>
</g>
<!-- at_persistence_secondary_server&#45;&gt;at_persistence_spec -->
<g id="edge133" class="edge">
<title>at_persistence_secondary_server&#45;&gt;at_persistence_spec</title>
<path fill="none" stroke="#3bfcef" d="M904.95,-1664.5C931.08,-1573.04 1054.19,-1142.14 1086.35,-1029.58"/>
<polygon fill="#3bfcef" stroke="#3bfcef" points="1089.79,-1030.27 1089.18,-1019.7 1083.06,-1028.35 1089.79,-1030.27"/>
</g>
<!-- at_persistence_secondary_server&#45;&gt;at_utils -->
<g id="edge132" class="edge">
<title>at_persistence_secondary_server&#45;&gt;at_utils</title>
<path fill="none" stroke="#75e849" d="M956.42,-1664.58C1272.31,-1569.08 2818.91,-1101.52 3101.64,-1016.05"/>
<polygon fill="#75e849" stroke="#75e849" points="3102.97,-1019.3 3111.53,-1013.06 3100.95,-1012.6 3102.97,-1019.3"/>
</g>
<!-- at_repl -->
<g id="node38" class="node">
<title>at_repl</title>
<polygon fill="none" stroke="#1494d0" points="3333.06,-1700.62 3267.06,-1700.62 3267.06,-1664.62 3333.06,-1664.62 3333.06,-1700.62"/>
<text text-anchor="middle" x="3300.06" y="-1678.92" font-family="Times,serif" font-size="14.00">at_repl</text>
</g>
<!-- at_repl&#45;&gt;at_client -->
<g id="edge134" class="edge">
<title>at_repl&#45;&gt;at_client</title>
<path fill="none" stroke="#61d4fc" d="M3304.87,-1700.81C3320.72,-1765.32 3363.99,-1984.8 3249.06,-2086.12 3071.72,-2242.46 2854.8,-1823.13 2800.72,-1709.93"/>
<polygon fill="#61d4fc" stroke="#61d4fc" points="2803.85,-1708.37 2796.41,-1700.83 2797.53,-1711.37 2803.85,-1708.37"/>
</g>
<!-- at_repl&#45;&gt;at_commons -->
<g id="edge135" class="edge">
<title>at_repl&#45;&gt;at_commons</title>
<path fill="none" stroke="#7eceb0" d="M3298.34,-1664.44C3284.02,-1521.33 3184.63,-528.24 3166.79,-349.99"/>
<polygon fill="#7eceb0" stroke="#7eceb0" points="3170.26,-349.48 3165.78,-339.88 3163.3,-350.18 3170.26,-349.48"/>
</g>
<!-- at_repl&#45;&gt;at_onboarding_cli -->
<g id="edge136" class="edge">
<title>at_repl&#45;&gt;at_onboarding_cli</title>
<path fill="none" stroke="#514d2d" d="M3295.3,-1700.81C3279.62,-1765.36 3236.96,-1984.9 3352.06,-2086.12 3593.02,-2298.03 3813.01,-2272.73 4074.06,-2086.12 4198.91,-1996.86 4212.05,-1787.57 4212.53,-1711.18"/>
<polygon fill="#514d2d" stroke="#514d2d" points="4216.03,-1710.9 4212.52,-1700.9 4209.03,-1710.9 4216.03,-1710.9"/>
</g>
<!-- at_repl&#45;&gt;at_utils -->
<g id="edge137" class="edge">
<title>at_repl&#45;&gt;at_utils</title>
<path fill="none" stroke="#75e849" d="M3296.17,-1664.5C3275.43,-1573.04 3177.7,-1142.14 3152.17,-1029.58"/>
<polygon fill="#75e849" stroke="#75e849" points="3155.55,-1028.68 3149.93,-1019.7 3148.73,-1030.22 3155.55,-1028.68"/>
</g>
<!-- at_root_server -->
<g id="node39" class="node">
<title>at_root_server</title>
<polygon fill="none" stroke="#9dd431" points="1256.56,-2484.62 1137.56,-2484.62 1137.56,-2448.62 1256.56,-2448.62 1256.56,-2484.62"/>
<text text-anchor="middle" x="1197.06" y="-2462.92" font-family="Times,serif" font-size="14.00">at_root_server</text>
</g>
<!-- at_root_server&#45;&gt;at_commons -->
<g id="edge138" class="edge">
<title>at_root_server&#45;&gt;at_commons</title>
<path fill="none" stroke="#7eceb0" d="M1169.07,-2448.59C1056.17,-2378.01 633.21,-2095.04 486.06,-1731.62 445.75,-1632.08 133.57,-1429.38 494.06,-975.62 836.57,-544.48 2731.33,-360 3101.38,-327.83"/>
<polygon fill="#7eceb0" stroke="#7eceb0" points="3101.71,-331.32 3111.37,-326.97 3101.11,-324.34 3101.71,-331.32"/>
</g>
<!-- at_root_server&#45;&gt;at_persistence_root_server -->
<g id="edge141" class="edge">
<title>at_root_server&#45;&gt;at_persistence_root_server</title>
<path fill="none" stroke="#831d2e" d="M1199.06,-2448.56C1210.86,-2348.28 1271.16,-1835.72 1285.83,-1711"/>
<polygon fill="#831d2e" stroke="#831d2e" points="1289.34,-1711.13 1287.04,-1700.79 1282.39,-1710.31 1289.34,-1711.13"/>
</g>
<!-- at_root_server&#45;&gt;at_server_spec -->
<g id="edge140" class="edge">
<title>at_root_server&#45;&gt;at_server_spec</title>
<path fill="none" stroke="#e6f023" d="M1195.05,-2448.56C1183.25,-2348.28 1122.95,-1835.72 1108.28,-1711"/>
<polygon fill="#e6f023" stroke="#e6f023" points="1111.72,-1710.31 1107.08,-1700.79 1104.77,-1711.13 1111.72,-1710.31"/>
</g>
<!-- at_root_server&#45;&gt;at_utils -->
<g id="edge139" class="edge">
<title>at_root_server&#45;&gt;at_utils</title>
<path fill="none" stroke="#75e849" d="M1202.24,-2448.36C1235.87,-2336.67 1423.79,-1718.97 1484.06,-1656.62 1969.62,-1154.26 2887.96,-1029.57 3101.09,-1006.9"/>
<polygon fill="#75e849" stroke="#75e849" points="3101.69,-1010.36 3111.28,-1005.84 3100.97,-1003.4 3101.69,-1010.36"/>
</g>
<!-- at_secondary -->
<g id="node40" class="node">
<title>at_secondary</title>
<polygon fill="none" stroke="#1b8948" points="955.06,-2484.62 845.06,-2484.62 845.06,-2448.62 955.06,-2448.62 955.06,-2484.62"/>
<text text-anchor="middle" x="900.06" y="-2462.92" font-family="Times,serif" font-size="14.00">at_secondary</text>
</g>
<!-- at_secondary&#45;&gt;at_chops -->
<g id="edge144" class="edge">
<title>at_secondary&#45;&gt;at_chops</title>
<path fill="none" stroke="#8fb4d4" d="M904.94,-2484.67C923.04,-2547.55 992.91,-2757.4 1138.06,-2836.62 1469.08,-3017.28 4245.49,-3081.76 4532.06,-2836.62 4633.33,-2749.98 4609.61,-2564.87 4596.13,-2494.53"/>
<polygon fill="#8fb4d4" stroke="#8fb4d4" points="4599.55,-2493.75 4594.16,-2484.63 4592.68,-2495.12 4599.55,-2493.75"/>
</g>
<!-- at_secondary&#45;&gt;at_commons -->
<g id="edge142" class="edge">
<title>at_secondary&#45;&gt;at_commons</title>
<path fill="none" stroke="#7eceb0" d="M884.66,-2448.35C769.36,-2316.97 56.54,-1467.06 460.06,-975.62 813.87,-544.71 2729.2,-359.89 3101.38,-327.79"/>
<polygon fill="#7eceb0" stroke="#7eceb0" points="3101.76,-331.27 3111.42,-326.93 3101.16,-324.3 3101.76,-331.27"/>
</g>
<!-- at_secondary&#45;&gt;at_lookup -->
<g id="edge145" class="edge">
<title>at_secondary&#45;&gt;at_lookup</title>
<path fill="none" stroke="#94d42d" d="M885.75,-2448.43C822.7,-2371.39 569.1,-2047.89 486.06,-1731.62 400.72,-1406.64 270.86,-1233.67 486.06,-975.62 725.43,-688.58 3583.89,-373.61 4009.26,-328.19"/>
<polygon fill="#94d42d" stroke="#94d42d" points="4009.86,-331.65 4019.43,-327.11 4009.12,-324.69 4009.86,-331.65"/>
</g>
<!-- at_secondary&#45;&gt;at_persistence_secondary_server -->
<g id="edge148" class="edge">
<title>at_secondary&#45;&gt;at_persistence_secondary_server</title>
<path fill="none" stroke="#9760d3" d="M900.06,-2448.56C900.06,-2348.28 900.06,-1835.72 900.06,-1711"/>
<polygon fill="#9760d3" stroke="#9760d3" points="903.56,-1710.79 900.06,-1700.79 896.56,-1710.79 903.56,-1710.79"/>
</g>
<!-- at_secondary&#45;&gt;at_persistence_spec -->
<g id="edge147" class="edge">
<title>at_secondary&#45;&gt;at_persistence_spec</title>
<path fill="none" stroke="#3bfcef" d="M892.12,-2448.37C853.57,-2362.24 690.57,-1970.42 765.06,-1656.62 827.99,-1391.47 1016.29,-1111.7 1075.81,-1027.8"/>
<polygon fill="#3bfcef" stroke="#3bfcef" points="1078.68,-1029.81 1081.64,-1019.64 1072.98,-1025.74 1078.68,-1029.81"/>
</g>
<!-- at_secondary&#45;&gt;at_server_spec -->
<g id="edge146" class="edge">
<title>at_secondary&#45;&gt;at_server_spec</title>
<path fill="none" stroke="#e6f023" d="M904.53,-2448.56C930.84,-2348.18 1065.45,-1834.69 1097.98,-1710.63"/>
<polygon fill="#e6f023" stroke="#e6f023" points="1101.4,-1711.35 1100.55,-1700.79 1094.63,-1709.58 1101.4,-1711.35"/>
</g>
<!-- at_secondary&#45;&gt;at_utils -->
<g id="edge143" class="edge">
<title>at_secondary&#45;&gt;at_utils</title>
<path fill="none" stroke="#75e849" d="M912.79,-2448.44C971.58,-2368.84 1221.63,-2027.19 1403.06,-1731.62 1422.93,-1699.24 1415.46,-1681.63 1444.06,-1656.62 1980.61,-1187.27 2890.24,-1037.59 3101.37,-1008.36"/>
<polygon fill="#75e849" stroke="#75e849" points="3102.03,-1011.8 3111.46,-1006.98 3101.08,-1004.87 3102.03,-1011.8"/>
</g>
<!-- at_secondary_proxy -->
<g id="node41" class="node">
<title>at_secondary_proxy</title>
<polygon fill="none" stroke="#35c7f7" points="5182.06,-3193.62 5024.06,-3193.62 5024.06,-3157.62 5182.06,-3157.62 5182.06,-3193.62"/>
<text text-anchor="middle" x="5103.06" y="-3171.92" font-family="Times,serif" font-size="14.00">at_secondary_proxy</text>
</g>
<!-- at_secondary_proxy&#45;&gt;at_commons -->
<g id="edge149" class="edge">
<title>at_secondary_proxy&#45;&gt;at_commons</title>
<path fill="none" stroke="#7eceb0" d="M5091.01,-3157.35C5040.66,-3084.06 4846.11,-2789.94 4771.06,-2515.62 4680.54,-2184.76 4863.91,-1255.83 4666.06,-975.62 4307.09,-467.24 3464.02,-350.83 3227.02,-327.76"/>
<polygon fill="#7eceb0" stroke="#7eceb0" points="3227.14,-324.26 3216.86,-326.79 3226.48,-331.23 3227.14,-324.26"/>
</g>
<!-- at_secondary_proxy&#45;&gt;at_lookup -->
<g id="edge151" class="edge">
<title>at_secondary_proxy&#45;&gt;at_lookup</title>
<path fill="none" stroke="#94d42d" d="M5106.19,-3157.54C5134.63,-2997.46 5335.64,-1748.86 4837.06,-975.62 4633.61,-660.1 4230.89,-416.89 4102.43,-344.66"/>
<polygon fill="#94d42d" stroke="#94d42d" points="4104.1,-341.58 4093.66,-339.75 4100.68,-347.69 4104.1,-341.58"/>
</g>
<!-- at_secondary_proxy&#45;&gt;at_utils -->
<g id="edge150" class="edge">
<title>at_secondary_proxy&#45;&gt;at_utils</title>
<path fill="none" stroke="#75e849" d="M5104.49,-3157.21C5116.7,-3004.81 5197.68,-1897.46 4995.06,-1656.62 4742.77,-1356.75 3449.29,-1067.39 3190.98,-1012.08"/>
<polygon fill="#75e849" stroke="#75e849" points="3191.35,-1008.58 3180.84,-1009.92 3189.89,-1015.43 3191.35,-1008.58"/>
</g>
<!-- at_server_spec&#45;&gt;at_commons -->
<g id="edge152" class="edge">
<title>at_server_spec&#45;&gt;at_commons</title>
<path fill="none" stroke="#7eceb0" d="M1093.61,-1664.38C1038.83,-1579.55 812.9,-1201.45 981.06,-975.62 1250.43,-613.88 2771.88,-378.48 3101.19,-331.35"/>
<polygon fill="#7eceb0" stroke="#7eceb0" points="3102.09,-334.76 3111.5,-329.88 3101.1,-327.83 3102.09,-334.76"/>
</g>
<!-- at_server_status&#45;&gt;at_commons -->
<g id="edge153" class="edge">
<title>at_server_status&#45;&gt;at_commons</title>
<path fill="none" stroke="#7eceb0" d="M4101.79,-983.52C3970.65,-891.1 3346.88,-451.47 3196.66,-345.6"/>
<polygon fill="#7eceb0" stroke="#7eceb0" points="3198.44,-342.57 3188.25,-339.67 3194.41,-348.29 3198.44,-342.57"/>
</g>
<!-- at_server_status&#45;&gt;at_lookup -->
<g id="edge155" class="edge">
<title>at_server_status&#45;&gt;at_lookup</title>
<path fill="none" stroke="#94d42d" d="M4124.44,-983.52C4115.83,-892.29 4075.29,-462.8 4064.63,-349.88"/>
<polygon fill="#94d42d" stroke="#94d42d" points="4068.09,-349.3 4063.67,-339.67 4061.12,-349.96 4068.09,-349.3"/>
</g>
<!-- at_server_status&#45;&gt;at_utils -->
<g id="edge154" class="edge">
<title>at_server_status&#45;&gt;at_utils</title>
<path fill="none" stroke="#75e849" d="M4127.91,-1019.86C4132.66,-1077.97 4138.47,-1259.5 4036.06,-1338.12 3804.79,-1515.66 3638.45,-1473.16 3380.06,-1338.12 3251.39,-1270.88 3179.18,-1097.08 3155.16,-1029.28"/>
<polygon fill="#75e849" stroke="#75e849" points="3158.43,-1028.01 3151.85,-1019.71 3151.81,-1030.3 3158.43,-1028.01"/>
</g>
<!-- at_sync_ui_flutter&#45;&gt;at_client -->
<g id="edge156" class="edge">
<title>at_sync_ui_flutter&#45;&gt;at_client</title>
<path fill="none" stroke="#61d4fc" d="M1660.86,-3157.48C1631.44,-3073.01 1512.79,-2694.8 1649.06,-2440.62 1895.12,-1981.63 2555.67,-1753.45 2739.81,-1697.51"/>
<polygon fill="#61d4fc" stroke="#61d4fc" points="2740.92,-1700.83 2749.48,-1694.6 2738.9,-1694.13 2740.92,-1700.83"/>
</g>
<!-- at_sync_ui_flutter&#45;&gt;at_client_mobile -->
<g id="edge157" class="edge">
<title>at_sync_ui_flutter&#45;&gt;at_client_mobile</title>
<path fill="none" stroke="#d9577c" d="M1692.37,-3157.49C1832.94,-3062.39 2516.98,-2599.6 2678.04,-2490.63"/>
<polygon fill="#d9577c" stroke="#d9577c" points="2680.29,-2493.34 2686.61,-2484.84 2676.36,-2487.54 2680.29,-2493.34"/>
</g>
<!-- at_sync_ui_flutter&#45;&gt;at_common_flutter -->
<g id="edge158" class="edge">
<title>at_sync_ui_flutter&#45;&gt;at_common_flutter</title>
<path fill="none" stroke="#bf681f" d="M1669.99,-3157.49C1686.05,-3063.62 1763.43,-2611.51 1783.36,-2495.04"/>
<polygon fill="#bf681f" stroke="#bf681f" points="1786.87,-2495.28 1785.11,-2484.84 1779.97,-2494.1 1786.87,-2495.28"/>
</g>
<!-- at_theme_flutter -->
<g id="node45" class="node">
<title>at_theme_flutter</title>
<polygon fill="none" stroke="#2ec850" points="1950.06,-3193.62 1816.06,-3193.62 1816.06,-3157.62 1950.06,-3157.62 1950.06,-3193.62"/>
<text text-anchor="middle" x="1883.06" y="-3171.92" font-family="Times,serif" font-size="14.00">at_theme_flutter</text>
</g>
<!-- at_theme_flutter&#45;&gt;at_client_mobile -->
<g id="edge159" class="edge">
<title>at_theme_flutter&#45;&gt;at_client_mobile</title>
<path fill="none" stroke="#d9577c" d="M1903.14,-3157.49C2014.32,-3062.68 2554.06,-2602.36 2683.92,-2491.62"/>
<polygon fill="#d9577c" stroke="#d9577c" points="2686.53,-2493.99 2691.87,-2484.84 2681.99,-2488.66 2686.53,-2493.99"/>
</g>
<!-- at_theme_flutter&#45;&gt;at_common_flutter -->
<g id="edge160" class="edge">
<title>at_theme_flutter&#45;&gt;at_common_flutter</title>
<path fill="none" stroke="#bf681f" d="M1880.75,-3157.49C1868.14,-3063.62 1807.39,-2611.51 1791.74,-2495.04"/>
<polygon fill="#bf681f" stroke="#bf681f" points="1795.17,-2494.28 1790.37,-2484.84 1788.23,-2495.21 1795.17,-2494.28"/>
</g>
<!-- at_theme_flutter&#45;&gt;at_commons -->
<g id="edge161" class="edge">
<title>at_theme_flutter&#45;&gt;at_commons</title>
<path fill="none" stroke="#7eceb0" d="M1816,-3160.96C1599.4,-3113.31 911.71,-2934.1 553.06,-2515.62 328.33,-2253.41 122.35,-1239.54 345.06,-975.62 719.89,-531.43 2720.19,-356.73 3101.31,-327.25"/>
<polygon fill="#7eceb0" stroke="#7eceb0" points="3101.62,-330.74 3111.32,-326.48 3101.08,-323.76 3101.62,-330.74"/>
</g>
<!-- at_theme_flutter&#45;&gt;at_utils -->
<g id="edge162" class="edge">
<title>at_theme_flutter&#45;&gt;at_utils</title>
<path fill="none" stroke="#75e849" d="M1888.09,-3157.48C1925.88,-3030.33 2173.99,-2223.04 2543.06,-1656.62 2724.13,-1378.72 3025.79,-1106.81 3118.26,-1026.42"/>
<polygon fill="#75e849" stroke="#75e849" points="3120.78,-1028.87 3126.05,-1019.68 3116.2,-1023.58 3120.78,-1028.87"/>
</g>
<!-- at_utils&#45;&gt;at_commons -->
<g id="edge163" class="edge">
<title>at_utils&#45;&gt;at_commons</title>
<path fill="none" stroke="#7eceb0" d="M3146.51,-983.52C3148.93,-892.29 3160.33,-462.8 3163.33,-349.88"/>
<polygon fill="#7eceb0" stroke="#7eceb0" points="3166.84,-349.76 3163.6,-339.67 3159.84,-349.58 3166.84,-349.76"/>
</g>
<!-- at_ve_doctor -->
<g id="node47" class="node">
<title>at_ve_doctor</title>
<polygon fill="none" stroke="#193e4e" points="3774.56,-1700.62 3667.56,-1700.62 3667.56,-1664.62 3774.56,-1664.62 3774.56,-1700.62"/>
<text text-anchor="middle" x="3721.06" y="-1678.92" font-family="Times,serif" font-size="14.00">at_ve_doctor</text>
</g>
<!-- at_ve_doctor&#45;&gt;at_server_status -->
<g id="edge164" class="edge">
<title>at_ve_doctor&#45;&gt;at_server_status</title>
<path fill="none" stroke="#320113" d="M3731.27,-1664.5C3785.99,-1572.76 4044.39,-1139.53 4110.58,-1028.56"/>
<polygon fill="#320113" stroke="#320113" points="4113.75,-1030.08 4115.87,-1019.7 4107.74,-1026.49 4113.75,-1030.08"/>
</g>
<!-- base2e15 -->
<g id="node48" class="node">
<title>base2e15</title>
<polygon fill="none" stroke="#2bcf07" points="4277.56,-2484.62 4192.56,-2484.62 4192.56,-2448.62 4277.56,-2448.62 4277.56,-2484.62"/>
<text text-anchor="middle" x="4235.06" y="-2462.92" font-family="Times,serif" font-size="14.00">base2e15</text>
</g>
<!-- dart_utf7 -->
<g id="node49" class="node">
<title>dart_utf7</title>
<polygon fill="none" stroke="#f889f9" points="4174.56,-2484.62 4091.56,-2484.62 4091.56,-2448.62 4174.56,-2448.62 4174.56,-2484.62"/>
<text text-anchor="middle" x="4133.06" y="-2462.92" font-family="Times,serif" font-size="14.00">dart_utf7</text>
</g>
</g>
</svg>
