<?xml version="1.0" encoding="UTF-8" standalone="no"?>
<!DOCTYPE svg PUBLIC "-//W3C//DTD SVG 1.1//EN"
 "http://www.w3.org/Graphics/SVG/1.1/DTD/svg11.dtd">
<!-- Generated by graphviz version 2.43.0 (0)
 -->
<!-- Title: packages Pages: 1 -->
<svg width="720pt" height="712pt"
 viewBox="0.00 0.00 720.00 711.74" xmlns="http://www.w3.org/2000/svg" xmlns:xlink="http://www.w3.org/1999/xlink">
<g id="graph0" class="graph" transform="scale(0.18929255319148935 0.18929255319148935) rotate(0) translate(4 3756)">
<title>packages</title>
<polygon fill="white" stroke="transparent" points="-4,4 -4,-3756 3799.61,-3756 3799.61,4 -4,4"/>
<!-- at_auth -->
<g id="node1" class="node">
<title>at_auth</title>
<polygon fill="none" stroke="#0f9477" points="1935.61,-1697 1865.61,-1697 1865.61,-1661 1935.61,-1661 1935.61,-1697"/>
<text text-anchor="middle" x="1900.61" y="-1675.3" font-family="Times,serif" font-size="14.00">at_auth</text>
</g>
<!-- at_chops -->
<g id="node4" class="node">
<title>at_chops</title>
<polygon fill="none" stroke="#8fb4d4" points="2015.11,-907 1936.11,-907 1936.11,-871 2015.11,-871 2015.11,-907"/>
<text text-anchor="middle" x="1975.61" y="-885.3" font-family="Times,serif" font-size="14.00">at_chops</text>
</g>
<!-- at_auth&#45;&gt;at_chops -->
<g id="edge3" class="edge">
<title>at_auth&#45;&gt;at_chops</title>
<path fill="none" stroke="#8fb4d4" d="M1902.25,-1660.81C1911.87,-1559.76 1961.03,-1043.27 1972.99,-917.59"/>
<polygon fill="#8fb4d4" stroke="#8fb4d4" points="1976.5,-917.59 1973.97,-907.3 1969.53,-916.93 1976.5,-917.59"/>
</g>
<!-- at_commons -->
<g id="node10" class="node">
<title>at_commons</title>
<polygon fill="none" stroke="#7eceb0" points="2506.11,-117 2401.11,-117 2401.11,-81 2506.11,-81 2506.11,-117"/>
<text text-anchor="middle" x="2453.61" y="-95.3" font-family="Times,serif" font-size="14.00">at_commons</text>
</g>
<!-- at_auth&#45;&gt;at_commons -->
<g id="edge1" class="edge">
<title>at_auth&#45;&gt;at_commons</title>
<path fill="none" stroke="#7eceb0" d="M1899.87,-1660.82C1895.62,-1558.14 1876.31,-1024.89 1926.61,-871 2036.12,-535.94 2339.73,-213.9 2428.77,-124.43"/>
<polygon fill="#7eceb0" stroke="#7eceb0" points="2431.4,-126.75 2436,-117.21 2426.45,-121.8 2431.4,-126.75"/>
</g>
<!-- at_lookup -->
<g id="node27" class="node">
<title>at_lookup</title>
<polygon fill="none" stroke="#94d42d" points="2348.11,-1302 2263.11,-1302 2263.11,-1266 2348.11,-1266 2348.11,-1302"/>
<text text-anchor="middle" x="2305.61" y="-1280.3" font-family="Times,serif" font-size="14.00">at_lookup</text>
</g>
<!-- at_auth&#45;&gt;at_lookup -->
<g id="edge2" class="edge">
<title>at_auth&#45;&gt;at_lookup</title>
<path fill="none" stroke="#94d42d" d="M1918.28,-1660.86C1982.75,-1598.3 2205.53,-1382.12 2280.65,-1309.22"/>
<polygon fill="#94d42d" stroke="#94d42d" points="2283.12,-1311.71 2287.86,-1302.23 2278.24,-1306.68 2283.12,-1311.71"/>
</g>
<!-- at_utils -->
<g id="node43" class="node">
<title>at_utils</title>
<polygon fill="none" stroke="#75e849" points="1634.11,-512 1565.11,-512 1565.11,-476 1634.11,-476 1634.11,-512"/>
<text text-anchor="middle" x="1599.61" y="-490.3" font-family="Times,serif" font-size="14.00">at_utils</text>
</g>
<!-- at_auth&#45;&gt;at_utils -->
<g id="edge4" class="edge">
<title>at_auth&#45;&gt;at_utils</title>
<path fill="none" stroke="#75e849" d="M1899.35,-1660.89C1892.63,-1574.64 1857.95,-1179.58 1765.61,-871 1724.63,-734.04 1646.12,-581.16 1613.93,-521.17"/>
<polygon fill="#75e849" stroke="#75e849" points="1616.82,-519.17 1609,-512.03 1610.67,-522.49 1616.82,-519.17"/>
</g>
<!-- at_backupkey_flutter -->
<g id="node2" class="node">
<title>at_backupkey_flutter</title>
<polygon fill="none" stroke="#590b92" points="1497.11,-2881 1332.11,-2881 1332.11,-2845 1497.11,-2845 1497.11,-2881"/>
<text text-anchor="middle" x="1414.61" y="-2859.3" font-family="Times,serif" font-size="14.00">at_backupkey_flutter</text>
</g>
<!-- at_client_mobile -->
<g id="node8" class="node">
<title>at_client_mobile</title>
<polygon fill="none" stroke="#d9577c" points="2195.61,-2486 2063.61,-2486 2063.61,-2450 2195.61,-2450 2195.61,-2486"/>
<text text-anchor="middle" x="2129.61" y="-2464.3" font-family="Times,serif" font-size="14.00">at_client_mobile</text>
</g>
<!-- at_backupkey_flutter&#45;&gt;at_client_mobile -->
<g id="edge6" class="edge">
<title>at_backupkey_flutter&#45;&gt;at_client_mobile</title>
<path fill="none" stroke="#d9577c" d="M1445.8,-2844.86C1560.78,-2781.66 1961,-2561.68 2089.54,-2491.03"/>
<polygon fill="#d9577c" stroke="#d9577c" points="2091.59,-2493.89 2098.67,-2486.01 2088.22,-2487.76 2091.59,-2493.89"/>
</g>
<!-- at_backupkey_flutter&#45;&gt;at_utils -->
<g id="edge5" class="edge">
<title>at_backupkey_flutter&#45;&gt;at_utils</title>
<path fill="none" stroke="#75e849" d="M1413.93,-2844.61C1411.49,-2787.65 1401.99,-2601.61 1376.61,-2450 1288.24,-1921.95 1055.09,-1792.06 1154.61,-1266 1189.67,-1080.7 1216.65,-1035.08 1309.61,-871 1391.31,-726.8 1523.54,-577.19 1576.55,-519.61"/>
<polygon fill="#75e849" stroke="#75e849" points="1579.27,-521.82 1583.49,-512.1 1574.13,-517.07 1579.27,-521.82"/>
</g>
<!-- at_chat_flutter -->
<g id="node3" class="node">
<title>at_chat_flutter</title>
<polygon fill="none" stroke="#463830" points="2613.61,-2881 2493.61,-2881 2493.61,-2845 2613.61,-2845 2613.61,-2881"/>
<text text-anchor="middle" x="2553.61" y="-2859.3" font-family="Times,serif" font-size="14.00">at_chat_flutter</text>
</g>
<!-- at_client -->
<g id="node7" class="node">
<title>at_client</title>
<polygon fill="none" stroke="#61d4fc" points="1871.11,-2091 1794.11,-2091 1794.11,-2055 1871.11,-2055 1871.11,-2091"/>
<text text-anchor="middle" x="1832.61" y="-2069.3" font-family="Times,serif" font-size="14.00">at_client</text>
</g>
<!-- at_chat_flutter&#45;&gt;at_client -->
<g id="edge7" class="edge">
<title>at_chat_flutter&#45;&gt;at_client</title>
<path fill="none" stroke="#61d4fc" d="M2539.78,-2844.72C2493.66,-2787.33 2340.41,-2598.29 2204.61,-2450 2078.83,-2312.64 1918.85,-2156.92 1857.81,-2098.15"/>
<polygon fill="#61d4fc" stroke="#61d4fc" points="1860.17,-2095.56 1850.54,-2091.15 1855.32,-2100.6 1860.17,-2095.56"/>
</g>
<!-- at_chat_flutter&#45;&gt;at_client_mobile -->
<g id="edge8" class="edge">
<title>at_chat_flutter&#45;&gt;at_client_mobile</title>
<path fill="none" stroke="#d9577c" d="M2535.12,-2844.86C2467.63,-2782.3 2234.39,-2566.12 2155.75,-2493.22"/>
<polygon fill="#d9577c" stroke="#d9577c" points="2157.92,-2490.46 2148.2,-2486.23 2153.16,-2495.59 2157.92,-2490.46"/>
</g>
<!-- at_common_flutter -->
<g id="node9" class="node">
<title>at_common_flutter</title>
<polygon fill="none" stroke="#bf681f" points="3016.11,-2486 2867.11,-2486 2867.11,-2450 3016.11,-2450 3016.11,-2486"/>
<text text-anchor="middle" x="2941.61" y="-2464.3" font-family="Times,serif" font-size="14.00">at_common_flutter</text>
</g>
<!-- at_chat_flutter&#45;&gt;at_common_flutter -->
<g id="edge9" class="edge">
<title>at_chat_flutter&#45;&gt;at_common_flutter</title>
<path fill="none" stroke="#bf681f" d="M2570.53,-2844.86C2632.17,-2782.43 2844.87,-2566.99 2917.26,-2493.67"/>
<polygon fill="#bf681f" stroke="#bf681f" points="2920.07,-2495.8 2924.6,-2486.23 2915.09,-2490.89 2920.07,-2495.8"/>
</g>
<!-- at_chat_flutter&#45;&gt;at_commons -->
<g id="edge10" class="edge">
<title>at_chat_flutter&#45;&gt;at_commons</title>
<path fill="none" stroke="#7eceb0" d="M2562.8,-2844.65C2627.63,-2720.57 3013.61,-1953.78 3013.61,-1285 3013.61,-1285 3013.61,-1285 3013.61,-888 3013.61,-704.03 3065.15,-635.58 2973.61,-476 2864.93,-286.51 2617.67,-166.71 2507.88,-121.01"/>
<polygon fill="#7eceb0" stroke="#7eceb0" points="2508.9,-117.65 2498.32,-117.07 2506.23,-124.12 2508.9,-117.65"/>
</g>
<!-- at_contact -->
<g id="node11" class="node">
<title>at_contact</title>
<polygon fill="none" stroke="#250aa2" points="2045.61,-2486 1955.61,-2486 1955.61,-2450 2045.61,-2450 2045.61,-2486"/>
<text text-anchor="middle" x="2000.61" y="-2464.3" font-family="Times,serif" font-size="14.00">at_contact</text>
</g>
<!-- at_chat_flutter&#45;&gt;at_contact -->
<g id="edge11" class="edge">
<title>at_chat_flutter&#45;&gt;at_contact</title>
<path fill="none" stroke="#250aa2" d="M2529.5,-2844.86C2440.92,-2781.91 2133.5,-2563.44 2032.81,-2491.88"/>
<polygon fill="#250aa2" stroke="#250aa2" points="2034.72,-2488.95 2024.55,-2486.01 2030.67,-2494.65 2034.72,-2488.95"/>
</g>
<!-- at_chat_flutter&#45;&gt;at_lookup -->
<g id="edge12" class="edge">
<title>at_chat_flutter&#45;&gt;at_lookup</title>
<path fill="none" stroke="#94d42d" d="M2552.64,-2844.88C2546.26,-2736.74 2507.45,-2137.64 2405.61,-1661 2377.33,-1528.62 2332.05,-1373.08 2313.71,-1311.77"/>
<polygon fill="#94d42d" stroke="#94d42d" points="2317.04,-1310.67 2310.81,-1302.09 2310.33,-1312.68 2317.04,-1310.67"/>
</g>
<!-- at_chops&#45;&gt;at_commons -->
<g id="edge13" class="edge">
<title>at_chops&#45;&gt;at_commons</title>
<path fill="none" stroke="#7eceb0" d="M1986.04,-870.81C2047.58,-769.36 2363.17,-249.1 2437.79,-126.09"/>
<polygon fill="#7eceb0" stroke="#7eceb0" points="2440.92,-127.67 2443.12,-117.3 2434.94,-124.04 2440.92,-127.67"/>
</g>
<!-- at_chops&#45;&gt;at_utils -->
<g id="edge14" class="edge">
<title>at_chops&#45;&gt;at_utils</title>
<path fill="none" stroke="#75e849" d="M1959.22,-870.86C1899.48,-808.43 1693.37,-592.99 1623.21,-519.67"/>
<polygon fill="#75e849" stroke="#75e849" points="1625.54,-517.04 1616.1,-512.23 1620.48,-521.87 1625.54,-517.04"/>
</g>
<!-- at_cli -->
<g id="node5" class="node">
<title>at_cli</title>
<polygon fill="none" stroke="#34bd05" points="2419.61,-2486 2365.61,-2486 2365.61,-2450 2419.61,-2450 2419.61,-2486"/>
<text text-anchor="middle" x="2392.61" y="-2464.3" font-family="Times,serif" font-size="14.00">at_cli</text>
</g>
<!-- at_cli&#45;&gt;at_client -->
<g id="edge16" class="edge">
<title>at_cli&#45;&gt;at_client</title>
<path fill="none" stroke="#61d4fc" d="M2368.19,-2449.86C2278.49,-2386.91 1967.18,-2168.44 1865.22,-2096.88"/>
<polygon fill="#61d4fc" stroke="#61d4fc" points="1867.04,-2093.89 1856.85,-2091.01 1863.02,-2099.62 1867.04,-2093.89"/>
</g>
<!-- at_cli&#45;&gt;at_commons -->
<g id="edge17" class="edge">
<title>at_cli&#45;&gt;at_commons</title>
<path fill="none" stroke="#7eceb0" d="M2408.09,-2449.96C2478.28,-2371.46 2767.93,-2034.09 2875.61,-1697 2931.43,-1522.28 2899.61,-1468.42 2899.61,-1285 2899.61,-1285 2899.61,-1285 2899.61,-888 2899.61,-704.58 2955.49,-641.11 2875.61,-476 2790.9,-300.89 2584.34,-171.52 2495.44,-122.05"/>
<polygon fill="#7eceb0" stroke="#7eceb0" points="2496.9,-118.86 2486.45,-117.1 2493.52,-124.99 2496.9,-118.86"/>
</g>
<!-- at_cli&#45;&gt;at_lookup -->
<g id="edge15" class="edge">
<title>at_cli&#45;&gt;at_lookup</title>
<path fill="none" stroke="#94d42d" d="M2391.07,-2449.94C2383.6,-2367.16 2350.76,-1999.05 2329.61,-1697 2319.47,-1552.11 2310.34,-1378.35 2306.98,-1312.29"/>
<polygon fill="#94d42d" stroke="#94d42d" points="2310.48,-1312.09 2306.47,-1302.28 2303.48,-1312.44 2310.48,-1312.09"/>
</g>
<!-- at_cli&#45;&gt;at_utils -->
<g id="edge18" class="edge">
<title>at_cli&#45;&gt;at_utils</title>
<path fill="none" stroke="#75e849" d="M2386.32,-2449.83C2356.37,-2366.44 2229.61,-1994.99 2229.61,-1680 2229.61,-1680 2229.61,-1680 2229.61,-1283 2229.61,-1099.58 2299.42,-1028.62 2205.61,-871 2074.71,-651.05 1760.06,-541.14 1643.78,-506.98"/>
<polygon fill="#75e849" stroke="#75e849" points="1644.7,-503.61 1634.12,-504.19 1642.76,-510.33 1644.7,-503.61"/>
</g>
<!-- at_cli_commons -->
<g id="node6" class="node">
<title>at_cli_commons</title>
<polygon fill="none" stroke="#c99192" points="1367.61,-2486 1239.61,-2486 1239.61,-2450 1367.61,-2450 1367.61,-2486"/>
<text text-anchor="middle" x="1303.61" y="-2464.3" font-family="Times,serif" font-size="14.00">at_cli_commons</text>
</g>
<!-- at_cli_commons&#45;&gt;at_client -->
<g id="edge19" class="edge">
<title>at_cli_commons&#45;&gt;at_client</title>
<path fill="none" stroke="#61d4fc" d="M1326.68,-2449.86C1411.33,-2386.98 1704.91,-2168.87 1801.52,-2097.1"/>
<polygon fill="#61d4fc" stroke="#61d4fc" points="1803.78,-2099.78 1809.72,-2091.01 1799.6,-2094.16 1803.78,-2099.78"/>
</g>
<!-- at_onboarding_cli -->
<g id="node29" class="node">
<title>at_onboarding_cli</title>
<polygon fill="none" stroke="#514d2d" points="1191.61,-2881 1049.61,-2881 1049.61,-2845 1191.61,-2845 1191.61,-2881"/>
<text text-anchor="middle" x="1120.61" y="-2859.3" font-family="Times,serif" font-size="14.00">at_onboarding_cli</text>
</g>
<!-- at_cli_commons&#45;&gt;at_onboarding_cli -->
<g id="edge20" class="edge">
<title>at_cli_commons&#45;&gt;at_onboarding_cli</title>
<path fill="none" stroke="#514d2d" d="M1298.57,-2486.23C1274.48,-2548.3 1175.75,-2760.77 1136.48,-2835.63"/>
<polygon fill="#514d2d" stroke="#514d2d" points="1133.18,-2834.39 1131.57,-2844.86 1139.36,-2837.68 1133.18,-2834.39"/>
</g>
<!-- at_cli_commons&#45;&gt;at_utils -->
<g id="edge21" class="edge">
<title>at_cli_commons&#45;&gt;at_utils</title>
<path fill="none" stroke="#75e849" d="M1298.01,-2449.92C1271.38,-2367.77 1157.48,-2004.67 1121.61,-1697 1100.36,-1514.68 1041.42,-1036.11 1121.61,-871 1214.34,-680.09 1456.16,-557.16 1555.77,-513.16"/>
<polygon fill="#75e849" stroke="#75e849" points="1557.19,-516.36 1564.95,-509.15 1554.39,-509.95 1557.19,-516.36"/>
</g>
<!-- at_client&#45;&gt;at_auth -->
<g id="edge26" class="edge">
<title>at_client&#45;&gt;at_auth</title>
<path fill="none" stroke="#0f9477" d="M1835.58,-2054.9C1846.25,-1993.39 1882.76,-1782.94 1895.87,-1707.33"/>
<polygon fill="#0f9477" stroke="#0f9477" points="1899.37,-1707.64 1897.63,-1697.19 1892.47,-1706.44 1899.37,-1707.64"/>
</g>
<!-- at_client&#45;&gt;at_chops -->
<g id="edge24" class="edge">
<title>at_client&#45;&gt;at_chops</title>
<path fill="none" stroke="#8fb4d4" d="M1839.46,-2054.8C1859.99,-2002.25 1921.11,-1838.77 1944.61,-1697 1994.73,-1394.72 1981.87,-1020.44 1977.04,-917.37"/>
<polygon fill="#8fb4d4" stroke="#8fb4d4" points="1980.52,-917.02 1976.54,-907.2 1973.53,-917.36 1980.52,-917.02"/>
</g>
<!-- at_client&#45;&gt;at_commons -->
<g id="edge22" class="edge">
<title>at_client&#45;&gt;at_commons</title>
<path fill="none" stroke="#7eceb0" d="M1871.17,-2062.42C2033,-2021.38 2654.18,-1855.31 2766.61,-1697 2872.75,-1547.55 2785.61,-1468.31 2785.61,-1285 2785.61,-1285 2785.61,-1285 2785.61,-888 2785.61,-564.09 2544.44,-219.9 2473.2,-125.3"/>
<polygon fill="#7eceb0" stroke="#7eceb0" points="2475.87,-123.02 2467.04,-117.17 2470.3,-127.25 2475.87,-123.02"/>
</g>
<!-- at_client&#45;&gt;at_lookup -->
<g id="edge25" class="edge">
<title>at_client&#45;&gt;at_lookup</title>
<path fill="none" stroke="#94d42d" d="M1845.55,-2054.94C1884.83,-2002.81 2005.32,-1840.38 2091.61,-1697 2176.41,-1556.1 2261.97,-1378.1 2293.22,-1311.63"/>
<polygon fill="#94d42d" stroke="#94d42d" points="2296.52,-1312.83 2297.59,-1302.29 2290.18,-1309.86 2296.52,-1312.83"/>
</g>
<!-- at_persistence_secondary_server -->
<g id="node32" class="node">
<title>at_persistence_secondary_server</title>
<polygon fill="none" stroke="#9760d3" points="1415.61,-1302 1163.61,-1302 1163.61,-1266 1415.61,-1266 1415.61,-1302"/>
<text text-anchor="middle" x="1289.61" y="-1280.3" font-family="Times,serif" font-size="14.00">at_persistence_secondary_server</text>
</g>
<!-- at_client&#45;&gt;at_persistence_secondary_server -->
<g id="edge28" class="edge">
<title>at_client&#45;&gt;at_persistence_secondary_server</title>
<path fill="none" stroke="#9760d3" d="M1801.48,-2054.98C1720.28,-2008.91 1500.73,-1873.24 1391.61,-1697 1312.08,-1568.55 1294.52,-1381.58 1290.67,-1312.22"/>
<polygon fill="#9760d3" stroke="#9760d3" points="1294.17,-1311.93 1290.17,-1302.12 1287.17,-1312.28 1294.17,-1311.93"/>
</g>
<!-- at_persistence_spec -->
<g id="node33" class="node">
<title>at_persistence_spec</title>
<polygon fill="none" stroke="#3bfcef" points="1492.11,-907 1333.11,-907 1333.11,-871 1492.11,-871 1492.11,-907"/>
<text text-anchor="middle" x="1412.61" y="-885.3" font-family="Times,serif" font-size="14.00">at_persistence_spec</text>
</g>
<!-- at_client&#45;&gt;at_persistence_spec -->
<g id="edge27" class="edge">
<title>at_client&#45;&gt;at_persistence_spec</title>
<path fill="none" stroke="#3bfcef" d="M1805.37,-2054.87C1733.63,-2008.02 1539.77,-1869.64 1462.61,-1697 1446.35,-1660.62 1419.59,-1053.71 1413.76,-917.14"/>
<polygon fill="#3bfcef" stroke="#3bfcef" points="1417.25,-916.94 1413.33,-907.1 1410.26,-917.24 1417.25,-916.94"/>
</g>
<!-- at_client&#45;&gt;at_utils -->
<g id="edge23" class="edge">
<title>at_client&#45;&gt;at_utils</title>
<path fill="none" stroke="#75e849" d="M1830.44,-2054.81C1823.7,-2001.63 1802.65,-1835.05 1785.61,-1697 1763.95,-1521.48 1758.07,-1477.66 1737.61,-1302 1715.32,-1110.55 1722.78,-1060.87 1689.61,-871 1666.47,-738.49 1624.41,-583.02 1607.23,-521.75"/>
<polygon fill="#75e849" stroke="#75e849" points="1610.59,-520.76 1604.51,-512.08 1603.85,-522.66 1610.59,-520.76"/>
</g>
<!-- at_client_mobile&#45;&gt;at_auth -->
<g id="edge34" class="edge">
<title>at_client_mobile&#45;&gt;at_auth</title>
<path fill="none" stroke="#0f9477" d="M2127.73,-2449.83C2121.19,-2392.79 2097.46,-2204.73 2053.61,-2055 2014.02,-1919.81 1942.69,-1766.54 1913.55,-1706.29"/>
<polygon fill="#0f9477" stroke="#0f9477" points="1916.61,-1704.58 1909.09,-1697.12 1910.31,-1707.64 1916.61,-1704.58"/>
</g>
<!-- at_client_mobile&#45;&gt;at_chops -->
<g id="edge31" class="edge">
<title>at_client_mobile&#45;&gt;at_chops</title>
<path fill="none" stroke="#8fb4d4" d="M2127.94,-2449.83C2112.63,-2293.07 1997.25,-1111.58 1978.26,-917.07"/>
<polygon fill="#8fb4d4" stroke="#8fb4d4" points="1981.74,-916.72 1977.28,-907.11 1974.77,-917.4 1981.74,-916.72"/>
</g>
<!-- at_client_mobile&#45;&gt;at_client -->
<g id="edge33" class="edge">
<title>at_client_mobile&#45;&gt;at_client</title>
<path fill="none" stroke="#61d4fc" d="M2116.66,-2449.86C2069.67,-2387.68 1907.99,-2173.74 1851.93,-2099.56"/>
<polygon fill="#61d4fc" stroke="#61d4fc" points="1854.46,-2097.1 1845.63,-2091.23 1848.87,-2101.32 1854.46,-2097.1"/>
</g>
<!-- at_client_mobile&#45;&gt;at_commons -->
<g id="edge29" class="edge">
<title>at_client_mobile&#45;&gt;at_commons</title>
<path fill="none" stroke="#7eceb0" d="M2155.07,-2449.76C2262.46,-2375.34 2680.13,-2068.62 2837.61,-1697 2909.18,-1528.12 2861.61,-1468.42 2861.61,-1285 2861.61,-1285 2861.61,-1285 2861.61,-888 2861.61,-704.58 2913.58,-642.95 2837.61,-476 2760.77,-307.14 2571.64,-173.76 2491.01,-122.61"/>
<polygon fill="#7eceb0" stroke="#7eceb0" points="2492.51,-119.42 2482.18,-117.07 2488.79,-125.35 2492.51,-119.42"/>
</g>
<!-- at_client_mobile&#45;&gt;at_lookup -->
<g id="edge32" class="edge">
<title>at_client_mobile&#45;&gt;at_lookup</title>
<path fill="none" stroke="#94d42d" d="M2132.17,-2449.84C2151.69,-2318.71 2277.14,-1476.19 2301.51,-1312.52"/>
<polygon fill="#94d42d" stroke="#94d42d" points="2305.02,-1312.74 2303.03,-1302.33 2298.1,-1311.71 2305.02,-1312.74"/>
</g>
<!-- at_client_mobile&#45;&gt;at_persistence_secondary_server -->
<g id="edge35" class="edge">
<title>at_client_mobile&#45;&gt;at_persistence_secondary_server</title>
<path fill="none" stroke="#9760d3" d="M2121.58,-2449.65C2093.67,-2390.46 1996.23,-2192.51 1879.61,-2055 1721.62,-1868.71 1606.41,-1894.45 1462.61,-1697 1368.97,-1568.43 1314.36,-1381.53 1296.32,-1312.2"/>
<polygon fill="#9760d3" stroke="#9760d3" points="1299.61,-1310.93 1293.74,-1302.11 1292.83,-1312.67 1299.61,-1310.93"/>
</g>
<!-- at_client_mobile&#45;&gt;at_utils -->
<g id="edge30" class="edge">
<title>at_client_mobile&#45;&gt;at_utils</title>
<path fill="none" stroke="#75e849" d="M2122.41,-2449.98C2088.04,-2368.1 1938.89,-2006.07 1856.61,-1697 1760.63,-1336.44 1791.11,-1234.42 1706.61,-871 1675.81,-738.52 1627.66,-583.03 1608.2,-521.75"/>
<polygon fill="#75e849" stroke="#75e849" points="1611.49,-520.55 1605.12,-512.08 1604.82,-522.67 1611.49,-520.55"/>
</g>
<!-- at_contact&#45;&gt;at_client -->
<g id="edge36" class="edge">
<title>at_contact&#45;&gt;at_client</title>
<path fill="none" stroke="#61d4fc" d="M1993.29,-2449.86C1966.81,-2387.93 1875.99,-2175.47 1843.93,-2100.47"/>
<polygon fill="#61d4fc" stroke="#61d4fc" points="1847.13,-2099.05 1839.98,-2091.23 1840.69,-2101.8 1847.13,-2099.05"/>
</g>
<!-- at_contact&#45;&gt;at_commons -->
<g id="edge37" class="edge">
<title>at_contact&#45;&gt;at_commons</title>
<path fill="none" stroke="#7eceb0" d="M2030.03,-2449.76C2150.9,-2377.05 2611.5,-2081.4 2791.61,-1697 2869.54,-1530.69 2823.61,-1468.66 2823.61,-1285 2823.61,-1285 2823.61,-1285 2823.61,-888 2823.61,-558.27 2554.9,-218.25 2475.47,-124.94"/>
<polygon fill="#7eceb0" stroke="#7eceb0" points="2477.97,-122.49 2468.81,-117.17 2472.66,-127.04 2477.97,-122.49"/>
</g>
<!-- at_contact&#45;&gt;at_utils -->
<g id="edge38" class="edge">
<title>at_contact&#45;&gt;at_utils</title>
<path fill="none" stroke="#75e849" d="M1996.54,-2449.82C1983.62,-2393.49 1944.65,-2209.16 1949.61,-2055 1958.1,-1791.51 2131.75,-1111.43 2023.61,-871 1943.73,-693.38 1733.87,-565.63 1642.81,-516.83"/>
<polygon fill="#75e849" stroke="#75e849" points="1644.33,-513.68 1633.85,-512.09 1641.05,-519.86 1644.33,-513.68"/>
</g>
<!-- at_contacts_flutter -->
<g id="node12" class="node">
<title>at_contacts_flutter</title>
<polygon fill="none" stroke="#1267b5" points="2476.11,-2881 2327.11,-2881 2327.11,-2845 2476.11,-2845 2476.11,-2881"/>
<text text-anchor="middle" x="2401.61" y="-2859.3" font-family="Times,serif" font-size="14.00">at_contacts_flutter</text>
</g>
<!-- at_contacts_flutter&#45;&gt;at_client -->
<g id="edge39" class="edge">
<title>at_contacts_flutter&#45;&gt;at_client</title>
<path fill="none" stroke="#61d4fc" d="M2369.46,-2844.85C2286.08,-2798.67 2061.43,-2663.14 1946.61,-2486 1863.85,-2358.31 1840.53,-2170.88 1834.53,-2101.31"/>
<polygon fill="#61d4fc" stroke="#61d4fc" points="1838,-2100.86 1833.71,-2091.18 1831.03,-2101.43 1838,-2100.86"/>
</g>
<!-- at_contacts_flutter&#45;&gt;at_client_mobile -->
<g id="edge40" class="edge">
<title>at_contacts_flutter&#45;&gt;at_client_mobile</title>
<path fill="none" stroke="#d9577c" d="M2389.75,-2844.86C2346.71,-2782.68 2198.64,-2568.74 2147.31,-2494.56"/>
<polygon fill="#d9577c" stroke="#d9577c" points="2150.11,-2492.46 2141.54,-2486.23 2144.35,-2496.44 2150.11,-2492.46"/>
</g>
<!-- at_contacts_flutter&#45;&gt;at_common_flutter -->
<g id="edge41" class="edge">
<title>at_contacts_flutter&#45;&gt;at_common_flutter</title>
<path fill="none" stroke="#bf681f" d="M2425.16,-2844.86C2511.57,-2781.98 2811.25,-2563.87 2909.87,-2492.1"/>
<polygon fill="#bf681f" stroke="#bf681f" points="2912.22,-2494.72 2918.24,-2486.01 2908.1,-2489.06 2912.22,-2494.72"/>
</g>
<!-- at_contacts_flutter&#45;&gt;at_commons -->
<g id="edge42" class="edge">
<title>at_contacts_flutter&#45;&gt;at_commons</title>
<path fill="none" stroke="#7eceb0" d="M2413.1,-2844.88C2481.06,-2742.53 2831.49,-2198.93 2951.61,-1697 2994.3,-1518.62 2975.61,-1468.42 2975.61,-1285 2975.61,-1285 2975.61,-1285 2975.61,-888 2975.61,-704.58 3038.12,-637.74 2951.61,-476 2851.18,-288.22 2611.37,-167.13 2505.43,-121.02"/>
<polygon fill="#7eceb0" stroke="#7eceb0" points="2506.78,-117.8 2496.22,-117.06 2504.02,-124.22 2506.78,-117.8"/>
</g>
<!-- at_contacts_flutter&#45;&gt;at_contact -->
<g id="edge43" class="edge">
<title>at_contacts_flutter&#45;&gt;at_contact</title>
<path fill="none" stroke="#250aa2" d="M2384.12,-2844.86C2320.42,-2782.43 2100.6,-2566.99 2025.78,-2493.67"/>
<polygon fill="#250aa2" stroke="#250aa2" points="2027.79,-2490.73 2018.19,-2486.23 2022.89,-2495.73 2027.79,-2490.73"/>
</g>
<!-- at_contacts_flutter&#45;&gt;at_lookup -->
<g id="edge44" class="edge">
<title>at_contacts_flutter&#45;&gt;at_lookup</title>
<path fill="none" stroke="#94d42d" d="M2405.34,-2844.88C2416.66,-2791.88 2450.54,-2625.7 2461.61,-2486 2499.07,-2013.53 2349.62,-1441.95 2313.37,-1312.1"/>
<polygon fill="#94d42d" stroke="#94d42d" points="2316.66,-1310.89 2310.58,-1302.21 2309.92,-1312.79 2316.66,-1310.89"/>
</g>
<!-- at_contacts_flutter&#45;&gt;at_utils -->
<g id="edge45" class="edge">
<title>at_contacts_flutter&#45;&gt;at_utils</title>
<path fill="none" stroke="#75e849" d="M2395.43,-2844.91C2365.98,-2762.7 2238.72,-2399.32 2177.61,-2091 2071.57,-1555.97 2300.79,-1352.53 2044.61,-871 1950.46,-694.03 1735.37,-565.71 1643.03,-516.79"/>
<polygon fill="#75e849" stroke="#75e849" points="1644.45,-513.57 1633.97,-512.03 1641.19,-519.77 1644.45,-513.57"/>
</g>
<!-- at_contacts_group_flutter -->
<g id="node13" class="node">
<title>at_contacts_group_flutter</title>
<polygon fill="none" stroke="#dae1d2" points="2449.61,-3276 2251.61,-3276 2251.61,-3240 2449.61,-3240 2449.61,-3276"/>
<text text-anchor="middle" x="2350.61" y="-3254.3" font-family="Times,serif" font-size="14.00">at_contacts_group_flutter</text>
</g>
<!-- at_contacts_group_flutter&#45;&gt;at_client_mobile -->
<g id="edge46" class="edge">
<title>at_contacts_group_flutter&#45;&gt;at_client_mobile</title>
<path fill="none" stroke="#d9577c" d="M2345.95,-3239.71C2330.65,-3183.04 2280.51,-2997.81 2237.61,-2845 2200.82,-2713.96 2155.45,-2557.66 2137.48,-2495.95"/>
<polygon fill="#d9577c" stroke="#d9577c" points="2140.8,-2494.84 2134.64,-2486.22 2134.08,-2496.8 2140.8,-2494.84"/>
</g>
<!-- at_contacts_group_flutter&#45;&gt;at_common_flutter -->
<g id="edge47" class="edge">
<title>at_contacts_group_flutter&#45;&gt;at_common_flutter</title>
<path fill="none" stroke="#bf681f" d="M2406.36,-3239.89C2526.38,-3199.74 2807.78,-3086.94 2924.61,-2881 2997.04,-2753.34 2964.36,-2565.89 2948.47,-2496.31"/>
<polygon fill="#bf681f" stroke="#bf681f" points="2951.79,-2495.11 2946.09,-2486.18 2944.97,-2496.72 2951.79,-2495.11"/>
</g>
<!-- at_contacts_group_flutter&#45;&gt;at_commons -->
<g id="edge48" class="edge">
<title>at_contacts_group_flutter&#45;&gt;at_commons</title>
<path fill="none" stroke="#7eceb0" d="M2408.5,-3239.93C2584.83,-3186.74 3109.7,-3019.32 3214.61,-2881 3326.32,-2733.72 3271.61,-2653.86 3271.61,-2469 3271.61,-2469 3271.61,-2469 3271.61,-888 3271.61,-462.78 2691.2,-194.8 2508.19,-120.87"/>
<polygon fill="#7eceb0" stroke="#7eceb0" points="2509.34,-117.56 2498.76,-117.09 2506.74,-124.06 2509.34,-117.56"/>
</g>
<!-- at_contacts_group_flutter&#45;&gt;at_contact -->
<g id="edge49" class="edge">
<title>at_contacts_group_flutter&#45;&gt;at_contact</title>
<path fill="none" stroke="#250aa2" d="M2321.71,-3239.87C2246.73,-3193.5 2046.69,-3057.1 1973.61,-2881 1917.43,-2745.61 1968.24,-2563.61 1990.95,-2495.87"/>
<polygon fill="#250aa2" stroke="#250aa2" points="1994.28,-2496.96 1994.21,-2486.37 1987.66,-2494.69 1994.28,-2496.96"/>
</g>
<!-- at_contacts_group_flutter&#45;&gt;at_contacts_flutter -->
<g id="edge50" class="edge">
<title>at_contacts_group_flutter&#45;&gt;at_contacts_flutter</title>
<path fill="none" stroke="#1267b5" d="M2352.84,-3239.86C2360.84,-3178.19 2388.22,-2967.2 2398.06,-2891.4"/>
<polygon fill="#1267b5" stroke="#1267b5" points="2401.56,-2891.6 2399.38,-2881.23 2394.62,-2890.7 2401.56,-2891.6"/>
</g>
<!-- at_contacts_group_flutter&#45;&gt;at_utils -->
<g id="edge51" class="edge">
<title>at_contacts_group_flutter&#45;&gt;at_utils</title>
<path fill="none" stroke="#75e849" d="M2264.76,-3239.96C2105.38,-3203.67 1764,-3103.23 1587.61,-2881 1475.55,-2739.81 1516.19,-2665.08 1495.61,-2486 1473.74,-2295.7 1470.84,-2244.95 1495.61,-2055 1516.9,-1891.76 1568.71,-1860.15 1590.61,-1697 1653.2,-1230.74 1612.54,-653.58 1601.94,-522.38"/>
<polygon fill="#75e849" stroke="#75e849" points="1605.4,-521.74 1601.09,-512.06 1598.42,-522.31 1605.4,-521.74"/>
</g>
<!-- at_cram -->
<g id="node14" class="node">
<title>at_cram</title>
<polygon fill="none" stroke="#c89a29" points="2824.61,-3671 2750.61,-3671 2750.61,-3635 2824.61,-3635 2824.61,-3671"/>
<text text-anchor="middle" x="2787.61" y="-3649.3" font-family="Times,serif" font-size="14.00">at_cram</text>
</g>
<!-- at_daemon_cli -->
<g id="node15" class="node">
<title>at_daemon_cli</title>
<polygon fill="none" stroke="#8e17d5" points="389.11,-3671 272.11,-3671 272.11,-3635 389.11,-3635 389.11,-3671"/>
<text text-anchor="middle" x="330.61" y="-3649.3" font-family="Times,serif" font-size="14.00">at_daemon_cli</text>
</g>
<!-- at_daemon_cli&#45;&gt;at_client -->
<g id="edge52" class="edge">
<title>at_daemon_cli&#45;&gt;at_client</title>
<path fill="none" stroke="#61d4fc" d="M389.41,-3648.82C568.75,-3635.97 1114.85,-3573.09 1414.61,-3276 1595.82,-3096.41 1790.26,-2262.63 1826.59,-2101.13"/>
<polygon fill="#61d4fc" stroke="#61d4fc" points="1830.07,-2101.6 1828.84,-2091.08 1823.24,-2100.07 1830.07,-2101.6"/>
</g>
<!-- at_daemon_cli&#45;&gt;at_commons -->
<g id="edge57" class="edge">
<title>at_daemon_cli&#45;&gt;at_commons</title>
<path fill="none" stroke="#7eceb0" d="M310.07,-3634.73C253.39,-3585.65 95.07,-3438.33 34.61,-3276 -29.36,-3104.22 15.61,-3047.31 15.61,-2864 15.61,-2864 15.61,-2864 15.61,-888 15.61,-699.47 -21.98,-603.81 116.61,-476 461.95,-157.52 2054.47,-108 2391.03,-101.05"/>
<polygon fill="#7eceb0" stroke="#7eceb0" points="2391.16,-104.55 2401.09,-100.85 2391.02,-97.55 2391.16,-104.55"/>
</g>
<!-- at_daemon_core -->
<g id="node17" class="node">
<title>at_daemon_core</title>
<polygon fill="none" stroke="#c16272" points="179.11,-2881 48.11,-2881 48.11,-2845 179.11,-2845 179.11,-2881"/>
<text text-anchor="middle" x="113.61" y="-2859.3" font-family="Times,serif" font-size="14.00">at_daemon_core</text>
</g>
<!-- at_daemon_cli&#45;&gt;at_daemon_core -->
<g id="edge54" class="edge">
<title>at_daemon_cli&#45;&gt;at_daemon_core</title>
<path fill="none" stroke="#c16272" d="M323.71,-3634.81C289.92,-3533.66 147.26,-3016.23 118.43,-2891.21"/>
<polygon fill="#c16272" stroke="#c16272" points="121.81,-2890.29 116.21,-2881.3 114.98,-2891.83 121.81,-2890.29"/>
</g>
<!-- at_daemon_cli&#45;&gt;at_daemon_core -->
<g id="edge58" class="edge">
<title>at_daemon_cli&#45;&gt;at_daemon_core</title>
<path fill="none" stroke="#c16272" stroke-dasharray="1,5" d="M328.04,-3634.81C306.11,-3533.56 163.52,-3015.19 123.66,-2890.84"/>
<polygon fill="#c16272" stroke="#c16272" points="126.98,-2889.72 120.55,-2881.3 120.33,-2891.89 126.98,-2889.72"/>
</g>
<!-- at_daemon_server -->
<g id="node19" class="node">
<title>at_daemon_server</title>
<polygon fill="none" stroke="#4bd261" points="403.61,-3276 257.61,-3276 257.61,-3240 403.61,-3240 403.61,-3276"/>
<text text-anchor="middle" x="330.61" y="-3254.3" font-family="Times,serif" font-size="14.00">at_daemon_server</text>
</g>
<!-- at_daemon_cli&#45;&gt;at_daemon_server -->
<g id="edge55" class="edge">
<title>at_daemon_cli&#45;&gt;at_daemon_server</title>
<path fill="none" stroke="#4bd261" d="M327.64,-3634.86C322.84,-3573.19 322.62,-3362.2 326.96,-3286.4"/>
<polygon fill="#4bd261" stroke="#4bd261" points="330.46,-3286.44 327.63,-3276.23 323.48,-3285.98 330.46,-3286.44"/>
</g>
<!-- at_daemon_cli&#45;&gt;at_daemon_server -->
<g id="edge59" class="edge">
<title>at_daemon_cli&#45;&gt;at_daemon_server</title>
<path fill="none" stroke="#4bd261" stroke-dasharray="1,5" d="M333.59,-3634.86C338.38,-3573.19 338.61,-3362.2 334.27,-3286.4"/>
<polygon fill="#4bd261" stroke="#4bd261" points="337.75,-3285.98 333.59,-3276.23 330.76,-3286.44 337.75,-3285.98"/>
</g>
<!-- at_daemon_cli&#45;&gt;at_onboarding_cli -->
<g id="edge53" class="edge">
<title>at_daemon_cli&#45;&gt;at_onboarding_cli</title>
<path fill="none" stroke="#514d2d" d="M388.35,-3634.89C515.7,-3594.22 822.42,-3479.6 987.61,-3276 1084.93,-3156.05 1111.71,-2963.18 1118.49,-2891.76"/>
<polygon fill="#514d2d" stroke="#514d2d" points="1122.01,-2891.64 1119.41,-2881.37 1115.04,-2891.02 1122.01,-2891.64"/>
</g>
<!-- at_daemon_cli&#45;&gt;at_utils -->
<g id="edge56" class="edge">
<title>at_daemon_cli&#45;&gt;at_utils</title>
<path fill="none" stroke="#75e849" d="M351.12,-3634.83C440.7,-3558.33 798.93,-3236.58 925.61,-2881 1075.76,-2459.55 796.08,-1245.66 1040.61,-871 1170.8,-671.54 1447.59,-551.49 1555.37,-510.72"/>
<polygon fill="#75e849" stroke="#75e849" points="1556.82,-513.92 1564.96,-507.13 1554.36,-507.36 1556.82,-513.92"/>
</g>
<!-- at_daemon_client -->
<g id="node16" class="node">
<title>at_daemon_client</title>
<polygon fill="none" stroke="#dbe812" points="183.61,-3276 43.61,-3276 43.61,-3240 183.61,-3240 183.61,-3276"/>
<text text-anchor="middle" x="113.61" y="-3254.3" font-family="Times,serif" font-size="14.00">at_daemon_client</text>
</g>
<!-- at_daemon_client&#45;&gt;at_daemon_core -->
<g id="edge60" class="edge">
<title>at_daemon_client&#45;&gt;at_daemon_core</title>
<path fill="none" stroke="#c16272" d="M110.64,-3239.86C105.84,-3178.19 105.62,-2967.2 109.96,-2891.4"/>
<polygon fill="#c16272" stroke="#c16272" points="113.46,-2891.44 110.63,-2881.23 106.48,-2890.98 113.46,-2891.44"/>
</g>
<!-- at_daemon_client&#45;&gt;at_daemon_core -->
<g id="edge61" class="edge">
<title>at_daemon_client&#45;&gt;at_daemon_core</title>
<path fill="none" stroke="#c16272" stroke-dasharray="1,5" d="M116.59,-3239.86C121.38,-3178.19 121.61,-2967.2 117.27,-2891.4"/>
<polygon fill="#c16272" stroke="#c16272" points="120.75,-2890.98 116.59,-2881.23 113.76,-2891.44 120.75,-2890.98"/>
</g>
<!-- at_daemon_core&#45;&gt;at_commons -->
<g id="edge63" class="edge">
<title>at_daemon_core&#45;&gt;at_commons</title>
<path fill="none" stroke="#7eceb0" d="M113.8,-2844.81C114.72,-2760.6 118.61,-2383.19 118.61,-2074 118.61,-2074 118.61,-2074 118.61,-888 118.61,-704.5 22.24,-611.84 145.61,-476 457.65,-132.46 2053.22,-102.64 2390.81,-100.19"/>
<polygon fill="#7eceb0" stroke="#7eceb0" points="2390.92,-103.69 2400.9,-100.13 2390.88,-96.69 2390.92,-103.69"/>
</g>
<!-- at_daemon_core&#45;&gt;at_utils -->
<g id="edge62" class="edge">
<title>at_daemon_core&#45;&gt;at_utils</title>
<path fill="none" stroke="#75e849" d="M122.58,-2844.91C186.17,-2722.7 570.86,-1967.18 715.61,-1302 756.42,-1114.48 631.83,-1028.4 741.61,-871 941.04,-585.06 1408.05,-514.35 1554.72,-498.91"/>
<polygon fill="#75e849" stroke="#75e849" points="1555.12,-502.39 1564.72,-497.89 1554.41,-495.43 1555.12,-502.39"/>
</g>
<!-- at_daemon_desktop -->
<g id="node18" class="node">
<title>at_daemon_desktop</title>
<polygon fill="none" stroke="#89d485" points="3245.11,-3671 3088.11,-3671 3088.11,-3635 3245.11,-3635 3245.11,-3671"/>
<text text-anchor="middle" x="3166.61" y="-3649.3" font-family="Times,serif" font-size="14.00">at_daemon_desktop</text>
</g>
<!-- at_daemon_server&#45;&gt;at_client -->
<g id="edge64" class="edge">
<title>at_daemon_server&#45;&gt;at_client</title>
<path fill="none" stroke="#61d4fc" d="M399.02,-3239.99C554.18,-3198.88 939.58,-3082.41 1200.61,-2881 1513.46,-2639.61 1759.07,-2209.83 1818.72,-2100.08"/>
<polygon fill="#61d4fc" stroke="#61d4fc" points="1821.94,-2101.49 1823.61,-2091.03 1815.78,-2098.17 1821.94,-2101.49"/>
</g>
<!-- at_daemon_server&#45;&gt;at_daemon_core -->
<g id="edge65" class="edge">
<title>at_daemon_server&#45;&gt;at_daemon_core</title>
<path fill="none" stroke="#c16272" d="M318.18,-3239.86C279.16,-3177.93 161.64,-2965.47 124.63,-2890.47"/>
<polygon fill="#c16272" stroke="#c16272" points="127.66,-2888.7 120.15,-2881.23 121.36,-2891.75 127.66,-2888.7"/>
</g>
<!-- at_daemon_server&#45;&gt;at_daemon_core -->
<g id="edge68" class="edge">
<title>at_daemon_server&#45;&gt;at_daemon_core</title>
<path fill="none" stroke="#c16272" stroke-dasharray="1,5" d="M324.12,-3239.86C294.69,-3177.81 177.16,-2964.6 131.55,-2890.02"/>
<polygon fill="#c16272" stroke="#c16272" points="134.35,-2887.89 126.11,-2881.23 128.4,-2891.57 134.35,-2887.89"/>
</g>
<!-- at_daemon_server&#45;&gt;at_onboarding_cli -->
<g id="edge67" class="edge">
<title>at_daemon_server&#45;&gt;at_onboarding_cli</title>
<path fill="none" stroke="#514d2d" d="M364.81,-3239.99C491.76,-3176.83 935.9,-2955.89 1077.14,-2885.63"/>
<polygon fill="#514d2d" stroke="#514d2d" points="1078.99,-2888.61 1086.39,-2881.03 1075.87,-2882.35 1078.99,-2888.61"/>
</g>
<!-- at_server_spec -->
<g id="node39" class="node">
<title>at_server_spec</title>
<polygon fill="none" stroke="#e6f023" points="423.61,-1302 301.61,-1302 301.61,-1266 423.61,-1266 423.61,-1302"/>
<text text-anchor="middle" x="362.61" y="-1280.3" font-family="Times,serif" font-size="14.00">at_server_spec</text>
</g>
<!-- at_daemon_server&#45;&gt;at_server_spec -->
<g id="edge66" class="edge">
<title>at_daemon_server&#45;&gt;at_server_spec</title>
<path fill="none" stroke="#e6f023" d="M325.94,-3239.96C303.47,-3156.48 207.61,-2781.92 207.61,-2469 207.61,-2469 207.61,-2469 207.61,-2072 207.61,-1768.37 320.05,-1411.06 353.4,-1311.76"/>
<polygon fill="#e6f023" stroke="#e6f023" points="356.74,-1312.79 356.63,-1302.2 350.11,-1310.55 356.74,-1312.79"/>
</g>
<!-- at_dump_atKeys -->
<g id="node20" class="node">
<title>at_dump_atKeys</title>
<polygon fill="none" stroke="#80b159" points="3519.11,-3671 3386.11,-3671 3386.11,-3635 3519.11,-3635 3519.11,-3671"/>
<text text-anchor="middle" x="3452.61" y="-3649.3" font-family="Times,serif" font-size="14.00">at_dump_atKeys</text>
</g>
<!-- at_pkam -->
<g id="node34" class="node">
<title>at_pkam</title>
<polygon fill="none" stroke="#d549ec" points="3491.11,-3276 3414.11,-3276 3414.11,-3240 3491.11,-3240 3491.11,-3276"/>
<text text-anchor="middle" x="3452.61" y="-3254.3" font-family="Times,serif" font-size="14.00">at_pkam</text>
</g>
<!-- at_dump_atKeys&#45;&gt;at_pkam -->
<g id="edge69" class="edge">
<title>at_dump_atKeys&#45;&gt;at_pkam</title>
<path fill="none" stroke="#d549ec" stroke-dasharray="1,5" d="M3452.61,-3634.86C3452.61,-3573.19 3452.61,-3362.2 3452.61,-3286.4"/>
<polygon fill="#d549ec" stroke="#d549ec" points="3456.11,-3286.23 3452.61,-3276.23 3449.11,-3286.23 3456.11,-3286.23"/>
</g>
<!-- at_events_flutter -->
<g id="node21" class="node">
<title>at_events_flutter</title>
<polygon fill="none" stroke="#5b74f7" points="2609.11,-3671 2472.11,-3671 2472.11,-3635 2609.11,-3635 2609.11,-3671"/>
<text text-anchor="middle" x="2540.61" y="-3649.3" font-family="Times,serif" font-size="14.00">at_events_flutter</text>
</g>
<!-- at_events_flutter&#45;&gt;at_client -->
<g id="edge70" class="edge">
<title>at_events_flutter&#45;&gt;at_client</title>
<path fill="none" stroke="#61d4fc" d="M2506.59,-3634.88C2372.03,-3564.74 1878.54,-3283.92 1758.61,-2881 1713.61,-2729.82 1804.22,-2224.34 1827.4,-2101.21"/>
<polygon fill="#61d4fc" stroke="#61d4fc" points="1830.89,-2101.61 1829.31,-2091.13 1824.01,-2100.3 1830.89,-2101.61"/>
</g>
<!-- at_events_flutter&#45;&gt;at_client_mobile -->
<g id="edge71" class="edge">
<title>at_events_flutter&#45;&gt;at_client_mobile</title>
<path fill="none" stroke="#d9577c" d="M2520.98,-3634.86C2465.98,-3585.55 2309.99,-3436.52 2242.61,-3276 2167.9,-3097.99 2215.58,-3036.16 2188.61,-2845 2170.15,-2714.15 2144.53,-2558.27 2134.2,-2496.33"/>
<polygon fill="#d9577c" stroke="#d9577c" points="2137.61,-2495.5 2132.51,-2486.21 2130.7,-2496.65 2137.61,-2495.5"/>
</g>
<!-- at_events_flutter&#45;&gt;at_common_flutter -->
<g id="edge72" class="edge">
<title>at_events_flutter&#45;&gt;at_common_flutter</title>
<path fill="none" stroke="#bf681f" d="M2555.05,-3634.76C2620.47,-3555.37 2889.64,-3214.63 2977.61,-2881 3014.89,-2739.64 2970.1,-2562.52 2950.2,-2495.94"/>
<polygon fill="#bf681f" stroke="#bf681f" points="2953.51,-2494.77 2947.24,-2486.23 2946.81,-2496.82 2953.51,-2494.77"/>
</g>
<!-- at_events_flutter&#45;&gt;at_commons -->
<g id="edge73" class="edge">
<title>at_events_flutter&#45;&gt;at_commons</title>
<path fill="none" stroke="#7eceb0" d="M2588.47,-3634.91C2767.22,-3567.66 3385.61,-3303.3 3385.61,-2864 3385.61,-2864 3385.61,-2864 3385.61,-888 3385.61,-701.88 3426,-622.03 3310.61,-476 3103.63,-214.04 2676.76,-130.36 2516.37,-107.54"/>
<polygon fill="#7eceb0" stroke="#7eceb0" points="2516.58,-104.04 2506.19,-106.13 2515.61,-110.97 2516.58,-104.04"/>
</g>
<!-- at_events_flutter&#45;&gt;at_contact -->
<g id="edge74" class="edge">
<title>at_events_flutter&#45;&gt;at_contact</title>
<path fill="none" stroke="#250aa2" d="M2511.23,-3634.84C2390.62,-3562.44 1932.38,-3267.78 1772.61,-2881 1708.47,-2725.72 1894.25,-2554.24 1970.02,-2492.64"/>
<polygon fill="#250aa2" stroke="#250aa2" points="1972.25,-2495.34 1977.85,-2486.35 1967.86,-2489.88 1972.25,-2495.34"/>
</g>
<!-- at_events_flutter&#45;&gt;at_contacts_flutter -->
<g id="edge75" class="edge">
<title>at_events_flutter&#45;&gt;at_contacts_flutter</title>
<path fill="none" stroke="#1267b5" d="M2549.62,-3634.93C2578.36,-3578.19 2663.69,-3390.95 2622.61,-3240 2582.82,-3093.76 2470.15,-2946.35 2422.89,-2888.99"/>
<polygon fill="#1267b5" stroke="#1267b5" points="2425.5,-2886.65 2416.41,-2881.2 2420.11,-2891.12 2425.5,-2886.65"/>
</g>
<!-- at_events_flutter&#45;&gt;at_contacts_group_flutter -->
<g id="edge76" class="edge">
<title>at_events_flutter&#45;&gt;at_contacts_group_flutter</title>
<path fill="none" stroke="#dae1d2" d="M2532.33,-3634.86C2502.39,-3572.93 2399.67,-3360.47 2363.41,-3285.47"/>
<polygon fill="#dae1d2" stroke="#dae1d2" points="2366.45,-3283.71 2358.94,-3276.23 2360.14,-3286.76 2366.45,-3283.71"/>
</g>
<!-- at_location_flutter -->
<g id="node25" class="node">
<title>at_location_flutter</title>
<polygon fill="none" stroke="#283e9c" points="2613.61,-3276 2467.61,-3276 2467.61,-3240 2613.61,-3240 2613.61,-3276"/>
<text text-anchor="middle" x="2540.61" y="-3254.3" font-family="Times,serif" font-size="14.00">at_location_flutter</text>
</g>
<!-- at_events_flutter&#45;&gt;at_location_flutter -->
<g id="edge77" class="edge">
<title>at_events_flutter&#45;&gt;at_location_flutter</title>
<path fill="none" stroke="#283e9c" d="M2537.64,-3634.86C2532.84,-3573.19 2532.62,-3362.2 2536.96,-3286.4"/>
<polygon fill="#283e9c" stroke="#283e9c" points="2540.46,-3286.44 2537.63,-3276.23 2533.48,-3285.98 2540.46,-3286.44"/>
</g>
<!-- at_events_flutter&#45;&gt;at_location_flutter -->
<g id="edge80" class="edge">
<title>at_events_flutter&#45;&gt;at_location_flutter</title>
<path fill="none" stroke="#283e9c" stroke-dasharray="1,5" d="M2543.59,-3634.86C2548.38,-3573.19 2548.61,-3362.2 2544.27,-3286.4"/>
<polygon fill="#283e9c" stroke="#283e9c" points="2547.75,-3285.98 2543.59,-3276.23 2540.76,-3286.44 2547.75,-3285.98"/>
</g>
<!-- at_events_flutter&#45;&gt;at_lookup -->
<g id="edge78" class="edge">
<title>at_events_flutter&#45;&gt;at_lookup</title>
<path fill="none" stroke="#94d42d" d="M2576.09,-3635C2725.28,-3560.77 3291.35,-3250.62 3230.61,-2845 3144.11,-2267.29 2925.35,-2175.74 2590.61,-1697 2488.75,-1551.32 2367.87,-1375.64 2323.27,-1310.72"/>
<polygon fill="#94d42d" stroke="#94d42d" points="2326.04,-1308.57 2317.5,-1302.31 2320.27,-1312.54 2326.04,-1308.57"/>
</g>
<!-- at_events_flutter&#45;&gt;at_utils -->
<g id="edge79" class="edge">
<title>at_events_flutter&#45;&gt;at_utils</title>
<path fill="none" stroke="#75e849" d="M2471.88,-3650.89C2261.06,-3643.98 1614.45,-3596.36 1226.61,-3276 937.82,-3037.45 983.61,-2843.57 983.61,-2469 983.61,-2469 983.61,-2469 983.61,-1283 983.61,-1096.21 964.62,-1027.49 1066.61,-871 1191.66,-679.15 1451.75,-555.77 1555.49,-512.41"/>
<polygon fill="#75e849" stroke="#75e849" points="1557.13,-515.51 1565.04,-508.46 1554.46,-509.05 1557.13,-515.51"/>
</g>
<!-- at_follows_flutter -->
<g id="node22" class="node">
<title>at_follows_flutter</title>
<polygon fill="none" stroke="#13b24b" points="1921.61,-2881 1781.61,-2881 1781.61,-2845 1921.61,-2845 1921.61,-2881"/>
<text text-anchor="middle" x="1851.61" y="-2859.3" font-family="Times,serif" font-size="14.00">at_follows_flutter</text>
</g>
<!-- at_follows_flutter&#45;&gt;at_client -->
<g id="edge81" class="edge">
<title>at_follows_flutter&#45;&gt;at_client</title>
<path fill="none" stroke="#61d4fc" d="M1851.2,-2844.81C1848.76,-2743.76 1836.31,-2227.27 1833.28,-2101.59"/>
<polygon fill="#61d4fc" stroke="#61d4fc" points="1836.77,-2101.21 1833.03,-2091.3 1829.77,-2101.38 1836.77,-2101.21"/>
</g>
<!-- at_follows_flutter&#45;&gt;at_client_mobile -->
<g id="edge82" class="edge">
<title>at_follows_flutter&#45;&gt;at_client_mobile</title>
<path fill="none" stroke="#d9577c" d="M1863.74,-2844.86C1907.72,-2782.68 2059.06,-2568.74 2111.53,-2494.56"/>
<polygon fill="#d9577c" stroke="#d9577c" points="2114.51,-2496.41 2117.43,-2486.23 2108.79,-2492.37 2114.51,-2496.41"/>
</g>
<!-- at_follows_flutter&#45;&gt;at_commons -->
<g id="edge83" class="edge">
<title>at_follows_flutter&#45;&gt;at_commons</title>
<path fill="none" stroke="#7eceb0" d="M1889.96,-2844.92C1990.68,-2798.67 2267.32,-2662.53 2447.61,-2486 2859.53,-2082.68 2937.61,-1861.49 2937.61,-1285 2937.61,-1285 2937.61,-1285 2937.61,-888 2937.61,-703.98 2982.09,-638.96 2896.61,-476 2803.74,-298.95 2589.15,-170.68 2496.97,-121.77"/>
<polygon fill="#7eceb0" stroke="#7eceb0" points="2498.4,-118.57 2487.92,-117.02 2495.14,-124.77 2498.4,-118.57"/>
</g>
<!-- at_follows_flutter&#45;&gt;at_lookup -->
<g id="edge84" class="edge">
<title>at_follows_flutter&#45;&gt;at_lookup</title>
<path fill="none" stroke="#94d42d" d="M1909.68,-2844.9C2032.34,-2805.24 2315.81,-2694.14 2428.61,-2486 2486.51,-2379.16 2338.57,-1480.3 2310.21,-1312.07"/>
<polygon fill="#94d42d" stroke="#94d42d" points="2313.64,-1311.34 2308.52,-1302.06 2306.74,-1312.5 2313.64,-1311.34"/>
</g>
<!-- at_server_status -->
<g id="node40" class="node">
<title>at_server_status</title>
<polygon fill="none" stroke="#320113" points="917.61,-2486 783.61,-2486 783.61,-2450 917.61,-2450 917.61,-2486"/>
<text text-anchor="middle" x="850.61" y="-2464.3" font-family="Times,serif" font-size="14.00">at_server_status</text>
</g>
<!-- at_follows_flutter&#45;&gt;at_server_status -->
<g id="edge85" class="edge">
<title>at_follows_flutter&#45;&gt;at_server_status</title>
<path fill="none" stroke="#320113" d="M1808.28,-2844.99C1646.7,-2781.55 1079.59,-2558.9 903.31,-2489.69"/>
<polygon fill="#320113" stroke="#320113" points="904.57,-2486.42 893.98,-2486.03 902.01,-2492.94 904.57,-2486.42"/>
</g>
<!-- at_follows_flutter&#45;&gt;at_utils -->
<g id="edge86" class="edge">
<title>at_follows_flutter&#45;&gt;at_utils</title>
<path fill="none" stroke="#75e849" d="M1850.12,-2844.69C1837.7,-2700.91 1749.27,-1689.4 1651.61,-871 1636,-740.14 1613.04,-584.26 1603.75,-522.33"/>
<polygon fill="#75e849" stroke="#75e849" points="1607.18,-521.58 1602.23,-512.21 1600.25,-522.62 1607.18,-521.58"/>
</g>
<!-- at_hive_recovery -->
<g id="node23" class="node">
<title>at_hive_recovery</title>
<polygon fill="none" stroke="#f0efbc" points="1339.11,-1697 1202.11,-1697 1202.11,-1661 1339.11,-1661 1339.11,-1697"/>
<text text-anchor="middle" x="1270.61" y="-1675.3" font-family="Times,serif" font-size="14.00">at_hive_recovery</text>
</g>
<!-- at_hive_recovery&#45;&gt;at_persistence_secondary_server -->
<g id="edge87" class="edge">
<title>at_hive_recovery&#45;&gt;at_persistence_secondary_server</title>
<path fill="none" stroke="#9760d3" d="M1271.44,-1660.86C1274.42,-1599.19 1284.62,-1388.2 1288.29,-1312.4"/>
<polygon fill="#9760d3" stroke="#9760d3" points="1291.79,-1312.39 1288.78,-1302.23 1284.8,-1312.05 1291.79,-1312.39"/>
</g>
<!-- at_invitation_flutter -->
<g id="node24" class="node">
<title>at_invitation_flutter</title>
<polygon fill="none" stroke="#b653c9" points="3205.61,-2881 3047.61,-2881 3047.61,-2845 3205.61,-2845 3205.61,-2881"/>
<text text-anchor="middle" x="3126.61" y="-2859.3" font-family="Times,serif" font-size="14.00">at_invitation_flutter</text>
</g>
<!-- at_invitation_flutter&#45;&gt;at_client_mobile -->
<g id="edge88" class="edge">
<title>at_invitation_flutter&#45;&gt;at_client_mobile</title>
<path fill="none" stroke="#d9577c" d="M3083.45,-2844.99C2922.6,-2781.58 2358.24,-2559.12 2182.36,-2489.79"/>
<polygon fill="#d9577c" stroke="#d9577c" points="2183.39,-2486.44 2172.81,-2486.03 2180.83,-2492.95 2183.39,-2486.44"/>
</g>
<!-- at_invitation_flutter&#45;&gt;at_common_flutter -->
<g id="edge89" class="edge">
<title>at_invitation_flutter&#45;&gt;at_common_flutter</title>
<path fill="none" stroke="#bf681f" d="M3118.54,-2844.86C3089.39,-2782.93 2989.38,-2570.47 2954.08,-2495.47"/>
<polygon fill="#bf681f" stroke="#bf681f" points="2957.15,-2493.79 2949.72,-2486.23 2950.82,-2496.77 2957.15,-2493.79"/>
</g>
<!-- at_invitation_flutter&#45;&gt;at_commons -->
<g id="edge90" class="edge">
<title>at_invitation_flutter&#45;&gt;at_commons</title>
<path fill="none" stroke="#7eceb0" d="M3129.23,-2844.86C3141.84,-2760.88 3195.61,-2384.36 3195.61,-2074 3195.61,-2074 3195.61,-2074 3195.61,-888 3195.61,-692.67 3165.3,-627.99 3042.61,-476 2892.16,-289.61 2623.41,-167.06 2508.34,-120.76"/>
<polygon fill="#7eceb0" stroke="#7eceb0" points="2509.59,-117.49 2499.01,-117.03 2507,-123.99 2509.59,-117.49"/>
</g>
<!-- at_invitation_flutter&#45;&gt;at_lookup -->
<g id="edge91" class="edge">
<title>at_invitation_flutter&#45;&gt;at_lookup</title>
<path fill="none" stroke="#94d42d" d="M3124.73,-2844.74C3117.88,-2786.65 3091.19,-2593.76 3024.61,-2450 2851.21,-2075.6 2684.56,-2056.24 2481.61,-1697 2403.53,-1558.79 2338.09,-1379.11 2314.76,-1311.91"/>
<polygon fill="#94d42d" stroke="#94d42d" points="2317.95,-1310.43 2311.38,-1302.11 2311.33,-1312.71 2317.95,-1310.43"/>
</g>
<!-- at_invitation_flutter&#45;&gt;at_utils -->
<g id="edge92" class="edge">
<title>at_invitation_flutter&#45;&gt;at_utils</title>
<path fill="none" stroke="#75e849" d="M3125.45,-2844.93C3121.1,-2787.42 3102.99,-2596.16 3046.61,-2450 2905.81,-2084.97 2764.01,-2047.73 2590.61,-1697 2415.84,-1343.5 2525.34,-1168.6 2266.61,-871 2086.32,-663.62 1762.26,-545.98 1644.2,-508.38"/>
<polygon fill="#75e849" stroke="#75e849" points="1645,-504.96 1634.41,-505.29 1642.89,-511.64 1645,-504.96"/>
</g>
<!-- at_location_flutter&#45;&gt;at_client -->
<g id="edge93" class="edge">
<title>at_location_flutter&#45;&gt;at_client</title>
<path fill="none" stroke="#61d4fc" d="M2489.69,-3240C2331.83,-3186.16 1856.25,-3015.06 1772.61,-2881 1751.5,-2847.16 1815.06,-2238.28 1829.68,-2101.24"/>
<polygon fill="#61d4fc" stroke="#61d4fc" points="1833.18,-2101.48 1830.76,-2091.16 1826.22,-2100.73 1833.18,-2101.48"/>
</g>
<!-- at_location_flutter&#45;&gt;at_client_mobile -->
<g id="edge94" class="edge">
<title>at_location_flutter&#45;&gt;at_client_mobile</title>
<path fill="none" stroke="#d9577c" d="M2529.48,-3239.76C2495.68,-3187.1 2391.98,-3023.25 2317.61,-2881 2243.3,-2738.84 2168.02,-2561.59 2140.52,-2495.47"/>
<polygon fill="#d9577c" stroke="#d9577c" points="2143.74,-2494.08 2136.67,-2486.19 2137.27,-2496.77 2143.74,-2494.08"/>
</g>
<!-- at_location_flutter&#45;&gt;at_common_flutter -->
<g id="edge95" class="edge">
<title>at_location_flutter&#45;&gt;at_common_flutter</title>
<path fill="none" stroke="#bf681f" d="M2574,-3239.92C2657.85,-3194.86 2876.4,-3063.59 2957.61,-2881 3017.12,-2747.21 2971.31,-2564.18 2950.5,-2496.02"/>
<polygon fill="#bf681f" stroke="#bf681f" points="2953.72,-2494.59 2947.4,-2486.09 2947.04,-2496.68 2953.72,-2494.59"/>
</g>
<!-- at_location_flutter&#45;&gt;at_commons -->
<g id="edge96" class="edge">
<title>at_location_flutter&#45;&gt;at_commons</title>
<path fill="none" stroke="#7eceb0" d="M2613.77,-3244.78C2768.63,-3214.6 3128.22,-3120.82 3285.61,-2881 3386.25,-2727.65 3309.61,-2652.42 3309.61,-2469 3309.61,-2469 3309.61,-2469 3309.61,-888 3309.61,-704.58 3389.52,-627.15 3285.61,-476 3101.09,-207.59 2676.73,-127.82 2516.45,-106.79"/>
<polygon fill="#7eceb0" stroke="#7eceb0" points="2516.65,-103.29 2506.28,-105.49 2515.76,-110.23 2516.65,-103.29"/>
</g>
<!-- at_location_flutter&#45;&gt;at_contact -->
<g id="edge97" class="edge">
<title>at_location_flutter&#45;&gt;at_contact</title>
<path fill="none" stroke="#250aa2" d="M2491.17,-3239.99C2380.21,-3198.8 2112.79,-3082.02 2006.61,-2881 1938.11,-2751.31 1975.49,-2565.08 1993.09,-2496.07"/>
<polygon fill="#250aa2" stroke="#250aa2" points="1996.57,-2496.59 1995.72,-2486.03 1989.8,-2494.81 1996.57,-2496.59"/>
</g>
<!-- at_location_flutter&#45;&gt;at_contacts_flutter -->
<g id="edge98" class="edge">
<title>at_location_flutter&#45;&gt;at_contacts_flutter</title>
<path fill="none" stroke="#1267b5" d="M2534.55,-3239.86C2512.69,-3178.06 2437.81,-2966.34 2411.14,-2890.93"/>
<polygon fill="#1267b5" stroke="#1267b5" points="2414.34,-2889.49 2407.71,-2881.23 2407.74,-2891.82 2414.34,-2889.49"/>
</g>
<!-- at_location_flutter&#45;&gt;at_lookup -->
<g id="edge99" class="edge">
<title>at_location_flutter&#45;&gt;at_lookup</title>
<path fill="none" stroke="#94d42d" d="M2613.82,-3247.72C2799.65,-3220.03 3271.07,-3121.99 3214.61,-2845 3097.21,-2268.97 2871.1,-2194.31 2557.61,-1697 2466.41,-1552.32 2360.57,-1376.65 2321.31,-1311.21"/>
<polygon fill="#94d42d" stroke="#94d42d" points="2324.15,-1309.15 2316.01,-1302.37 2318.15,-1312.75 2324.15,-1309.15"/>
</g>
<!-- at_location_flutter&#45;&gt;at_utils -->
<g id="edge100" class="edge">
<title>at_location_flutter&#45;&gt;at_utils</title>
<path fill="none" stroke="#75e849" d="M2489.84,-3239.92C2331.81,-3185.67 1853.89,-3013.1 1764.61,-2881 1755.9,-2868.11 1618.73,-785.7 1601.41,-522.28"/>
<polygon fill="#75e849" stroke="#75e849" points="1604.88,-521.82 1600.73,-512.07 1597.9,-522.28 1604.88,-521.82"/>
</g>
<!-- at_login_flutter -->
<g id="node26" class="node">
<title>at_login_flutter</title>
<polygon fill="none" stroke="#7ceee7" points="753.11,-2881 628.11,-2881 628.11,-2845 753.11,-2845 753.11,-2881"/>
<text text-anchor="middle" x="690.61" y="-2859.3" font-family="Times,serif" font-size="14.00">at_login_flutter</text>
</g>
<!-- at_login_flutter&#45;&gt;at_client -->
<g id="edge101" class="edge">
<title>at_login_flutter&#45;&gt;at_client</title>
<path fill="none" stroke="#61d4fc" d="M688.68,-2844.98C682.66,-2783.45 670.49,-2569.86 774.61,-2450 1051.02,-2131.8 1615.27,-2082.88 1783.94,-2075.37"/>
<polygon fill="#61d4fc" stroke="#61d4fc" points="1784.16,-2078.86 1794.01,-2074.95 1783.87,-2071.86 1784.16,-2078.86"/>
</g>
<!-- at_login_flutter&#45;&gt;at_client_mobile -->
<g id="edge102" class="edge">
<title>at_login_flutter&#45;&gt;at_client_mobile</title>
<path fill="none" stroke="#d9577c" d="M752.91,-2844.99C986.34,-2781.24 1808.56,-2556.68 2057.6,-2488.67"/>
<polygon fill="#d9577c" stroke="#d9577c" points="2058.55,-2492.04 2067.27,-2486.03 2056.7,-2485.28 2058.55,-2492.04"/>
</g>
<!-- at_login_flutter&#45;&gt;at_commons -->
<g id="edge103" class="edge">
<title>at_login_flutter&#45;&gt;at_commons</title>
<path fill="none" stroke="#7eceb0" d="M684.56,-2844.71C615.85,-2647.02 -7.86,-814.13 368.61,-476 678.93,-197.29 2075.88,-117.3 2390.53,-102.68"/>
<polygon fill="#7eceb0" stroke="#7eceb0" points="2391,-106.16 2400.83,-102.21 2390.68,-99.17 2391,-106.16"/>
</g>
<!-- at_login_flutter&#45;&gt;at_server_status -->
<g id="edge104" class="edge">
<title>at_login_flutter&#45;&gt;at_server_status</title>
<path fill="none" stroke="#320113" d="M697.59,-2844.86C722.75,-2783.06 808.95,-2571.34 839.65,-2495.93"/>
<polygon fill="#320113" stroke="#320113" points="843.07,-2496.81 843.6,-2486.23 836.59,-2494.17 843.07,-2496.81"/>
</g>
<!-- at_login_flutter&#45;&gt;at_utils -->
<g id="edge105" class="edge">
<title>at_login_flutter&#45;&gt;at_utils</title>
<path fill="none" stroke="#75e849" d="M691.63,-2844.96C702.68,-2660.94 802.78,-1045.45 919.61,-871 1076.41,-636.88 1430.04,-534.49 1554.91,-504.73"/>
<polygon fill="#75e849" stroke="#75e849" points="1555.96,-508.08 1564.89,-502.39 1554.36,-501.27 1555.96,-508.08"/>
</g>
<!-- at_lookup&#45;&gt;at_chops -->
<g id="edge108" class="edge">
<title>at_lookup&#45;&gt;at_chops</title>
<path fill="none" stroke="#8fb4d4" d="M2291.22,-1265.86C2238.9,-1203.55 2058.63,-988.87 1996.7,-915.11"/>
<polygon fill="#8fb4d4" stroke="#8fb4d4" points="1999.19,-912.64 1990.08,-907.23 1993.83,-917.14 1999.19,-912.64"/>
</g>
<!-- at_lookup&#45;&gt;at_commons -->
<g id="edge107" class="edge">
<title>at_lookup&#45;&gt;at_commons</title>
<path fill="none" stroke="#7eceb0" d="M2307.76,-1265.82C2324.18,-1134.58 2429.67,-291.35 2450.17,-127.55"/>
<polygon fill="#7eceb0" stroke="#7eceb0" points="2453.67,-127.71 2451.44,-117.35 2446.73,-126.84 2453.67,-127.71"/>
</g>
<!-- at_lookup&#45;&gt;at_utils -->
<g id="edge106" class="edge">
<title>at_lookup&#45;&gt;at_utils</title>
<path fill="none" stroke="#75e849" d="M2307.92,-1265.86C2315.08,-1205.67 2331.5,-1000.61 2243.61,-871 2092.88,-648.7 1763.53,-539.77 1644.05,-506.45"/>
<polygon fill="#75e849" stroke="#75e849" points="1644.71,-503.01 1634.14,-503.73 1642.86,-509.76 1644.71,-503.01"/>
</g>
<!-- at_notify_flutter -->
<g id="node28" class="node">
<title>at_notify_flutter</title>
<polygon fill="none" stroke="#19e4c3" points="2763.11,-2881 2632.11,-2881 2632.11,-2845 2763.11,-2845 2763.11,-2881"/>
<text text-anchor="middle" x="2697.61" y="-2859.3" font-family="Times,serif" font-size="14.00">at_notify_flutter</text>
</g>
<!-- at_notify_flutter&#45;&gt;at_client -->
<g id="edge109" class="edge">
<title>at_notify_flutter&#45;&gt;at_client</title>
<path fill="none" stroke="#61d4fc" d="M2678.74,-2844.81C2566.82,-2742.85 1990.55,-2217.88 1859.26,-2098.27"/>
<polygon fill="#61d4fc" stroke="#61d4fc" points="1861.36,-2095.45 1851.61,-2091.3 1856.64,-2100.62 1861.36,-2095.45"/>
</g>
<!-- at_notify_flutter&#45;&gt;at_client_mobile -->
<g id="edge110" class="edge">
<title>at_notify_flutter&#45;&gt;at_client_mobile</title>
<path fill="none" stroke="#d9577c" d="M2672.84,-2844.86C2581.86,-2781.91 2266.1,-2563.44 2162.69,-2491.88"/>
<polygon fill="#d9577c" stroke="#d9577c" points="2164.41,-2488.82 2154.19,-2486.01 2160.43,-2494.58 2164.41,-2488.82"/>
</g>
<!-- at_notify_flutter&#45;&gt;at_common_flutter -->
<g id="edge111" class="edge">
<title>at_notify_flutter&#45;&gt;at_common_flutter</title>
<path fill="none" stroke="#bf681f" d="M2708.25,-2844.86C2746.78,-2782.81 2879.15,-2569.6 2925.46,-2495.02"/>
<polygon fill="#bf681f" stroke="#bf681f" points="2928.61,-2496.57 2930.92,-2486.23 2922.67,-2492.88 2928.61,-2496.57"/>
</g>
<!-- at_notify_flutter&#45;&gt;at_commons -->
<g id="edge112" class="edge">
<title>at_notify_flutter&#45;&gt;at_commons</title>
<path fill="none" stroke="#7eceb0" d="M2704.53,-2844.82C2753.94,-2720.41 3051.61,-1943.7 3051.61,-1285 3051.61,-1285 3051.61,-1285 3051.61,-888 3051.61,-703.21 3092.15,-633.57 2995.61,-476 2878.47,-284.8 2623.47,-166.13 2510.01,-120.88"/>
<polygon fill="#7eceb0" stroke="#7eceb0" points="2511.04,-117.53 2500.46,-117.11 2508.47,-124.04 2511.04,-117.53"/>
</g>
<!-- at_onboarding_cli&#45;&gt;at_auth -->
<g id="edge113" class="edge">
<title>at_onboarding_cli&#45;&gt;at_auth</title>
<path fill="none" stroke="#0f9477" d="M1122.03,-2844.79C1131.55,-2729.38 1186.22,-2072.09 1197.61,-2055 1279.47,-1932.2 1713.27,-1753.58 1855.45,-1697.51"/>
<polygon fill="#0f9477" stroke="#0f9477" points="1857.15,-1700.6 1865.17,-1693.69 1854.59,-1694.09 1857.15,-1700.6"/>
</g>
<!-- at_onboarding_cli&#45;&gt;at_chops -->
<g id="edge114" class="edge">
<title>at_onboarding_cli&#45;&gt;at_chops</title>
<path fill="none" stroke="#8fb4d4" d="M1120.31,-2844.89C1118.7,-2741.52 1113.97,-2199.91 1187.61,-2055 1296.15,-1841.42 1446.62,-1888.47 1590.61,-1697 1796.03,-1423.85 1932.88,-1023.63 1967.17,-916.95"/>
<polygon fill="#8fb4d4" stroke="#8fb4d4" points="1970.55,-917.88 1970.25,-907.28 1963.88,-915.75 1970.55,-917.88"/>
</g>
<!-- at_onboarding_cli&#45;&gt;at_cli_commons -->
<g id="edge120" class="edge">
<title>at_onboarding_cli&#45;&gt;at_cli_commons</title>
<path fill="none" stroke="#c99192" d="M1125.62,-2844.86C1149.64,-2782.93 1248.36,-2570.47 1287.69,-2495.47"/>
<polygon fill="#c99192" stroke="#c99192" points="1291,-2496.7 1292.61,-2486.23 1284.82,-2493.41 1291,-2496.7"/>
</g>
<!-- at_onboarding_cli&#45;&gt;at_client -->
<g id="edge115" class="edge">
<title>at_onboarding_cli&#45;&gt;at_client</title>
<path fill="none" stroke="#61d4fc" d="M1136.15,-2844.81C1228.09,-2743.05 1700.72,-2219.97 1810.03,-2098.99"/>
<polygon fill="#61d4fc" stroke="#61d4fc" points="1812.87,-2101.07 1816.98,-2091.3 1807.68,-2096.38 1812.87,-2101.07"/>
</g>
<!-- at_onboarding_cli&#45;&gt;at_commons -->
<g id="edge116" class="edge">
<title>at_onboarding_cli&#45;&gt;at_commons</title>
<path fill="none" stroke="#7eceb0" d="M1101.26,-2844.87C1045.07,-2794.39 879.32,-2640.08 774.61,-2486 555.74,-2163.92 527.18,-2062.79 393.61,-1697 326.13,-1512.19 290.12,-1462.73 292.61,-1266 297.1,-911.34 145.77,-717.41 405.61,-476 705.61,-197.28 2078.56,-117.41 2390.46,-102.72"/>
<polygon fill="#7eceb0" stroke="#7eceb0" points="2390.84,-106.2 2400.67,-102.24 2390.52,-99.21 2390.84,-106.2"/>
</g>
<!-- at_onboarding_cli&#45;&gt;at_lookup -->
<g id="edge117" class="edge">
<title>at_onboarding_cli&#45;&gt;at_lookup</title>
<path fill="none" stroke="#94d42d" d="M1122.15,-2844.78C1128.03,-2786.01 1152.75,-2589.25 1230.61,-2450 1455.7,-2047.46 1633.92,-2037.84 1944.61,-1697 2076.4,-1552.43 2229.48,-1374.18 2284.54,-1309.72"/>
<polygon fill="#94d42d" stroke="#94d42d" points="2287.23,-1311.96 2291.06,-1302.09 2281.91,-1307.42 2287.23,-1311.96"/>
</g>
<!-- at_onboarding_cli&#45;&gt;at_persistence_secondary_server -->
<g id="edge121" class="edge">
<title>at_onboarding_cli&#45;&gt;at_persistence_secondary_server</title>
<path fill="none" stroke="#9760d3" d="M1119.52,-2844.91C1114.27,-2759.57 1093.17,-2371.06 1121.61,-2055 1137.56,-1877.78 1154.59,-1834.82 1192.61,-1661 1221.49,-1529.02 1264.6,-1373.25 1281.96,-1311.82"/>
<polygon fill="#9760d3" stroke="#9760d3" points="1285.35,-1312.71 1284.71,-1302.13 1278.61,-1310.8 1285.35,-1312.71"/>
</g>
<!-- at_onboarding_cli&#45;&gt;at_server_status -->
<g id="edge118" class="edge">
<title>at_onboarding_cli&#45;&gt;at_server_status</title>
<path fill="none" stroke="#320113" d="M1108.84,-2844.86C1066.12,-2782.68 919.13,-2568.74 868.18,-2494.56"/>
<polygon fill="#320113" stroke="#320113" points="871,-2492.49 862.45,-2486.23 865.23,-2496.45 871,-2492.49"/>
</g>
<!-- at_onboarding_cli&#45;&gt;at_utils -->
<g id="edge119" class="edge">
<title>at_onboarding_cli&#45;&gt;at_utils</title>
<path fill="none" stroke="#75e849" d="M1118.3,-2844.85C1107.15,-2760.82 1059.61,-2384.11 1059.61,-2074 1059.61,-2074 1059.61,-2074 1059.61,-1283 1059.61,-1098.8 1013.89,-1031.31 1104.61,-871 1211.46,-682.2 1455.71,-558.07 1555.7,-513.46"/>
<polygon fill="#75e849" stroke="#75e849" points="1557.19,-516.63 1564.92,-509.39 1554.36,-510.22 1557.19,-516.63"/>
</g>
<!-- at_onboarding_flutter -->
<g id="node30" class="node">
<title>at_onboarding_flutter</title>
<polygon fill="none" stroke="#a801a6" points="1405.61,-3276 1235.61,-3276 1235.61,-3240 1405.61,-3240 1405.61,-3276"/>
<text text-anchor="middle" x="1320.61" y="-3254.3" font-family="Times,serif" font-size="14.00">at_onboarding_flutter</text>
</g>
<!-- at_onboarding_flutter&#45;&gt;at_auth -->
<g id="edge129" class="edge">
<title>at_onboarding_flutter&#45;&gt;at_auth</title>
<path fill="none" stroke="#0f9477" d="M1317.96,-3239.8C1309.74,-3182.65 1287.23,-2994.29 1322.61,-2845 1439.7,-2350.96 1797.07,-1825.94 1882.25,-1705.57"/>
<polygon fill="#0f9477" stroke="#0f9477" points="1885.18,-1707.48 1888.12,-1697.3 1879.48,-1703.43 1885.18,-1707.48"/>
</g>
<!-- at_onboarding_flutter&#45;&gt;at_backupkey_flutter -->
<g id="edge122" class="edge">
<title>at_onboarding_flutter&#45;&gt;at_backupkey_flutter</title>
<path fill="none" stroke="#590b92" d="M1324.71,-3239.86C1339.46,-3178.19 1389.93,-2967.2 1408.06,-2891.4"/>
<polygon fill="#590b92" stroke="#590b92" points="1411.57,-2891.77 1410.49,-2881.23 1404.76,-2890.14 1411.57,-2891.77"/>
</g>
<!-- at_onboarding_flutter&#45;&gt;at_client -->
<g id="edge123" class="edge">
<title>at_onboarding_flutter&#45;&gt;at_client</title>
<path fill="none" stroke="#61d4fc" d="M1329.41,-3239.91C1356.55,-3187.01 1441.06,-3021.07 1505.61,-2881 1585.61,-2707.42 1603.79,-2663.12 1675.61,-2486 1734.04,-2341.91 1798.6,-2167.08 1822.77,-2101.02"/>
<polygon fill="#61d4fc" stroke="#61d4fc" points="1826.15,-2101.97 1826.29,-2091.37 1819.57,-2099.56 1826.15,-2101.97"/>
</g>
<!-- at_onboarding_flutter&#45;&gt;at_client_mobile -->
<g id="edge124" class="edge">
<title>at_onboarding_flutter&#45;&gt;at_client_mobile</title>
<path fill="none" stroke="#d9577c" d="M1405.86,-3248.77C1584.03,-3226.44 1993.64,-3147.17 2166.61,-2881 2247.37,-2756.74 2173.9,-2565.11 2142.36,-2495.46"/>
<polygon fill="#d9577c" stroke="#d9577c" points="2145.4,-2493.7 2138.04,-2486.09 2139.05,-2496.63 2145.4,-2493.7"/>
</g>
<!-- at_onboarding_flutter&#45;&gt;at_commons -->
<g id="edge125" class="edge">
<title>at_onboarding_flutter&#45;&gt;at_commons</title>
<path fill="none" stroke="#7eceb0" d="M1249.29,-3239.98C1105.99,-3201.93 782.82,-3095.91 618.61,-2881 76.54,-2171.53 278.32,-1799.26 245.61,-907 238.44,-711.44 193.94,-610.99 335.61,-476 642.55,-183.55 2071.04,-114.09 2390.24,-102.12"/>
<polygon fill="#7eceb0" stroke="#7eceb0" points="2390.82,-105.6 2400.69,-101.73 2390.56,-98.6 2390.82,-105.6"/>
</g>
<!-- at_onboarding_flutter&#45;&gt;at_server_status -->
<g id="edge126" class="edge">
<title>at_onboarding_flutter&#45;&gt;at_server_status</title>
<path fill="none" stroke="#320113" d="M1272.62,-3239.85C1164.3,-3198.18 902.37,-3080.16 800.61,-2881 733.28,-2749.21 806.18,-2563.68 837.63,-2495.48"/>
<polygon fill="#320113" stroke="#320113" points="840.87,-2496.83 841.95,-2486.29 834.53,-2493.85 840.87,-2496.83"/>
</g>
<!-- at_sync_ui_flutter -->
<g id="node41" class="node">
<title>at_sync_ui_flutter</title>
<polygon fill="none" stroke="#27d02d" points="2157.61,-2881 2015.61,-2881 2015.61,-2845 2157.61,-2845 2157.61,-2881"/>
<text text-anchor="middle" x="2086.61" y="-2859.3" font-family="Times,serif" font-size="14.00">at_sync_ui_flutter</text>
</g>
<!-- at_onboarding_flutter&#45;&gt;at_sync_ui_flutter -->
<g id="edge127" class="edge">
<title>at_onboarding_flutter&#45;&gt;at_sync_ui_flutter</title>
<path fill="none" stroke="#27d02d" d="M1354.02,-3239.86C1477.45,-3176.53 1907.7,-2955.79 2044.5,-2885.6"/>
<polygon fill="#27d02d" stroke="#27d02d" points="2046.16,-2888.69 2053.46,-2881.01 2042.97,-2882.46 2046.16,-2888.69"/>
</g>
<!-- at_onboarding_flutter&#45;&gt;at_utils -->
<g id="edge128" class="edge">
<title>at_onboarding_flutter&#45;&gt;at_utils</title>
<path fill="none" stroke="#75e849" d="M1301.55,-3239.83C1248.25,-3190.43 1097.84,-3041.19 1040.61,-2881 978.95,-2708.38 1021.61,-2652.31 1021.61,-2469 1021.61,-2469 1021.61,-2469 1021.61,-1283 1021.61,-1097.62 990.13,-1029.29 1086.61,-871 1202.42,-681.01 1453.74,-557.16 1555.51,-513.04"/>
<polygon fill="#75e849" stroke="#75e849" points="1557.07,-516.17 1564.88,-509.01 1554.31,-509.74 1557.07,-516.17"/>
</g>
<!-- at_persistence_root_server -->
<g id="node31" class="node">
<title>at_persistence_root_server</title>
<polygon fill="none" stroke="#831d2e" points="689.11,-1302 480.11,-1302 480.11,-1266 689.11,-1266 689.11,-1302"/>
<text text-anchor="middle" x="584.61" y="-1280.3" font-family="Times,serif" font-size="14.00">at_persistence_root_server</text>
</g>
<!-- at_persistence_root_server&#45;&gt;at_commons -->
<g id="edge130" class="edge">
<title>at_persistence_root_server&#45;&gt;at_commons</title>
<path fill="none" stroke="#7eceb0" d="M579.07,-1265.75C561.52,-1208.45 510.63,-1019.67 550.61,-871 603.31,-675.04 616.02,-596.07 779.61,-476 1047.36,-279.48 2118.95,-140.02 2390.71,-107.33"/>
<polygon fill="#7eceb0" stroke="#7eceb0" points="2391.28,-110.79 2400.79,-106.13 2390.45,-103.84 2391.28,-110.79"/>
</g>
<!-- at_persistence_root_server&#45;&gt;at_persistence_spec -->
<g id="edge132" class="edge">
<title>at_persistence_root_server&#45;&gt;at_persistence_spec</title>
<path fill="none" stroke="#3bfcef" d="M620.46,-1265.99C753.64,-1202.77 1219.94,-981.45 1367.49,-911.42"/>
<polygon fill="#3bfcef" stroke="#3bfcef" points="1369.21,-914.48 1376.74,-907.03 1366.21,-908.15 1369.21,-914.48"/>
</g>
<!-- at_persistence_root_server&#45;&gt;at_utils -->
<g id="edge131" class="edge">
<title>at_persistence_root_server&#45;&gt;at_utils</title>
<path fill="none" stroke="#75e849" d="M582.66,-1265.71C576.69,-1204.17 564.79,-992.89 665.61,-871 905.52,-580.97 1402.66,-512.82 1554.55,-498.49"/>
<polygon fill="#75e849" stroke="#75e849" points="1555.24,-501.95 1564.88,-497.55 1554.61,-494.97 1555.24,-501.95"/>
</g>
<!-- redis -->
<g id="node47" class="node">
<title>redis</title>
<polygon fill="none" stroke="#5cceca" points="613.61,-907 559.61,-907 559.61,-871 613.61,-871 613.61,-907"/>
<text text-anchor="middle" x="586.61" y="-885.3" font-family="Times,serif" font-size="14.00">redis</text>
</g>
<!-- at_persistence_root_server&#45;&gt;redis -->
<g id="edge133" class="edge">
<title>at_persistence_root_server&#45;&gt;redis</title>
<path fill="none" stroke="#5cceca" d="M584.7,-1265.86C585.01,-1204.19 586.09,-993.2 586.47,-917.4"/>
<polygon fill="#5cceca" stroke="#5cceca" points="589.97,-917.25 586.53,-907.23 582.97,-917.21 589.97,-917.25"/>
</g>
<!-- at_persistence_secondary_server&#45;&gt;at_commons -->
<g id="edge134" class="edge">
<title>at_persistence_secondary_server&#45;&gt;at_commons</title>
<path fill="none" stroke="#7eceb0" d="M1287.92,-1265.74C1282.84,-1208.4 1270.33,-1019.5 1309.61,-871 1359.93,-680.77 1364.38,-608.77 1509.61,-476 1778.23,-230.44 2226.98,-136.47 2391.07,-109.25"/>
<polygon fill="#7eceb0" stroke="#7eceb0" points="2391.7,-112.69 2401,-107.62 2390.57,-105.78 2391.7,-112.69"/>
</g>
<!-- at_persistence_secondary_server&#45;&gt;at_persistence_spec -->
<g id="edge136" class="edge">
<title>at_persistence_secondary_server&#45;&gt;at_persistence_spec</title>
<path fill="none" stroke="#3bfcef" d="M1294.98,-1265.86C1314.32,-1204.06 1380.58,-992.34 1404.18,-916.93"/>
<polygon fill="#3bfcef" stroke="#3bfcef" points="1407.57,-917.82 1407.22,-907.23 1400.89,-915.73 1407.57,-917.82"/>
</g>
<!-- at_persistence_secondary_server&#45;&gt;at_utils -->
<g id="edge135" class="edge">
<title>at_persistence_secondary_server&#45;&gt;at_utils</title>
<path fill="none" stroke="#75e849" d="M1287.79,-1265.8C1282.32,-1207.9 1269.58,-1015.54 1323.61,-871 1380.33,-719.29 1516.91,-575.11 1573.93,-519.31"/>
<polygon fill="#75e849" stroke="#75e849" points="1576.38,-521.81 1581.11,-512.34 1571.5,-516.79 1576.38,-521.81"/>
</g>
<!-- at_repl -->
<g id="node35" class="node">
<title>at_repl</title>
<polygon fill="none" stroke="#1494d0" points="978.61,-3276 912.61,-3276 912.61,-3240 978.61,-3240 978.61,-3276"/>
<text text-anchor="middle" x="945.61" y="-3254.3" font-family="Times,serif" font-size="14.00">at_repl</text>
</g>
<!-- at_repl&#45;&gt;at_client -->
<g id="edge137" class="edge">
<title>at_repl&#45;&gt;at_client</title>
<path fill="none" stroke="#61d4fc" d="M961.3,-3239.8C1061.52,-3129.94 1608.67,-2529.53 1637.61,-2486 1727.42,-2350.92 1798.43,-2168.02 1823.17,-2100.48"/>
<polygon fill="#61d4fc" stroke="#61d4fc" points="1826.48,-2101.6 1826.61,-2091.01 1819.9,-2099.21 1826.48,-2101.6"/>
</g>
<!-- at_repl&#45;&gt;at_commons -->
<g id="edge138" class="edge">
<title>at_repl&#45;&gt;at_commons</title>
<path fill="none" stroke="#7eceb0" d="M927.17,-3239.76C872.76,-3188.39 709.64,-3030.58 596.61,-2881 472.77,-2717.11 438.27,-2674.49 356.61,-2486 178.99,-2075.97 -13.07,-796.2 298.61,-476 599.98,-166.4 2067.97,-110.12 2390.76,-101.43"/>
<polygon fill="#7eceb0" stroke="#7eceb0" points="2390.97,-104.93 2400.87,-101.16 2390.78,-97.93 2390.97,-104.93"/>
</g>
<!-- at_repl&#45;&gt;at_onboarding_cli -->
<g id="edge139" class="edge">
<title>at_repl&#45;&gt;at_onboarding_cli</title>
<path fill="none" stroke="#514d2d" d="M953.25,-3239.86C980.82,-3177.93 1075.43,-2965.47 1108.82,-2890.47"/>
<polygon fill="#514d2d" stroke="#514d2d" points="1112.07,-2891.79 1112.94,-2881.23 1105.68,-2888.94 1112.07,-2891.79"/>
</g>
<!-- at_repl&#45;&gt;at_utils -->
<g id="edge140" class="edge">
<title>at_repl&#45;&gt;at_utils</title>
<path fill="none" stroke="#75e849" d="M921.62,-3239.73C857.27,-3191.73 681.5,-3049.13 618.61,-2881 613.01,-2866.01 617.58,-2860.97 618.61,-2845 647.33,-2402.87 636.93,-1228.52 898.61,-871 1069.19,-637.95 1428.86,-534.75 1554.86,-504.76"/>
<polygon fill="#75e849" stroke="#75e849" points="1555.99,-508.09 1564.93,-502.41 1554.39,-501.28 1555.99,-508.09"/>
</g>
<!-- at_root_server -->
<g id="node36" class="node">
<title>at_root_server</title>
<polygon fill="none" stroke="#9dd431" points="522.11,-1697 403.11,-1697 403.11,-1661 522.11,-1661 522.11,-1697"/>
<text text-anchor="middle" x="462.61" y="-1675.3" font-family="Times,serif" font-size="14.00">at_root_server</text>
</g>
<!-- at_root_server&#45;&gt;at_commons -->
<g id="edge141" class="edge">
<title>at_root_server&#45;&gt;at_commons</title>
<path fill="none" stroke="#7eceb0" d="M459.72,-1660.95C439.98,-1538.33 337.42,-786.82 731.61,-476 1000.14,-264.27 2112.33,-135.65 2390.39,-106.4"/>
<polygon fill="#7eceb0" stroke="#7eceb0" points="2391.11,-109.85 2400.7,-105.32 2390.39,-102.88 2391.11,-109.85"/>
</g>
<!-- at_root_server&#45;&gt;at_persistence_root_server -->
<g id="edge144" class="edge">
<title>at_root_server&#45;&gt;at_persistence_root_server</title>
<path fill="none" stroke="#831d2e" d="M467.93,-1660.86C487.12,-1599.06 552.84,-1387.34 576.25,-1311.93"/>
<polygon fill="#831d2e" stroke="#831d2e" points="579.64,-1312.82 579.26,-1302.23 572.96,-1310.74 579.64,-1312.82"/>
</g>
<!-- at_root_server&#45;&gt;at_server_spec -->
<g id="edge143" class="edge">
<title>at_root_server&#45;&gt;at_server_spec</title>
<path fill="none" stroke="#e6f023" d="M458.25,-1660.86C442.53,-1599.06 388.65,-1387.34 369.47,-1311.93"/>
<polygon fill="#e6f023" stroke="#e6f023" points="372.86,-1311.06 367,-1302.23 366.07,-1312.78 372.86,-1311.06"/>
</g>
<!-- at_root_server&#45;&gt;at_utils -->
<g id="edge142" class="edge">
<title>at_root_server&#45;&gt;at_utils</title>
<path fill="none" stroke="#75e849" d="M478.23,-1660.96C523.07,-1610.75 651.97,-1457.08 697.61,-1302 751.71,-1118.22 596.44,-1029.79 703.61,-871 906.83,-569.9 1402.11,-509.31 1554.35,-497.66"/>
<polygon fill="#75e849" stroke="#75e849" points="1554.99,-501.12 1564.71,-496.9 1554.48,-494.14 1554.99,-501.12"/>
</g>
<!-- at_secondary -->
<g id="node37" class="node">
<title>at_secondary</title>
<polygon fill="none" stroke="#1b8948" points="1581.61,-1697 1471.61,-1697 1471.61,-1661 1581.61,-1661 1581.61,-1697"/>
<text text-anchor="middle" x="1526.61" y="-1675.3" font-family="Times,serif" font-size="14.00">at_secondary</text>
</g>
<!-- at_secondary&#45;&gt;at_chops -->
<g id="edge147" class="edge">
<title>at_secondary&#45;&gt;at_chops</title>
<path fill="none" stroke="#8fb4d4" d="M1536.41,-1660.81C1594.22,-1559.36 1890.66,-1039.1 1960.75,-916.09"/>
<polygon fill="#8fb4d4" stroke="#8fb4d4" points="1963.84,-917.72 1965.75,-907.3 1957.76,-914.26 1963.84,-917.72"/>
</g>
<!-- at_secondary&#45;&gt;at_commons -->
<g id="edge145" class="edge">
<title>at_secondary&#45;&gt;at_commons</title>
<path fill="none" stroke="#7eceb0" d="M1525.92,-1660.81C1520.4,-1521.36 1485.86,-578.13 1555.61,-476 1753.65,-186.03 2221.68,-119.07 2391.06,-104.13"/>
<polygon fill="#7eceb0" stroke="#7eceb0" points="2391.39,-107.62 2401.06,-103.28 2390.8,-100.64 2391.39,-107.62"/>
</g>
<!-- at_secondary&#45;&gt;at_lookup -->
<g id="edge148" class="edge">
<title>at_secondary&#45;&gt;at_lookup</title>
<path fill="none" stroke="#94d42d" d="M1560.34,-1660.99C1685.52,-1597.83 2123.47,-1376.89 2262.74,-1306.63"/>
<polygon fill="#94d42d" stroke="#94d42d" points="2264.51,-1309.66 2271.86,-1302.03 2261.36,-1303.41 2264.51,-1309.66"/>
</g>
<!-- at_secondary&#45;&gt;at_persistence_secondary_server -->
<g id="edge151" class="edge">
<title>at_secondary&#45;&gt;at_persistence_secondary_server</title>
<path fill="none" stroke="#9760d3" d="M1516.28,-1660.86C1478.85,-1598.81 1350.28,-1385.6 1305.3,-1311.02"/>
<polygon fill="#9760d3" stroke="#9760d3" points="1308.16,-1308.99 1300,-1302.23 1302.17,-1312.6 1308.16,-1308.99"/>
</g>
<!-- at_secondary&#45;&gt;at_persistence_spec -->
<g id="edge150" class="edge">
<title>at_secondary&#45;&gt;at_persistence_spec</title>
<path fill="none" stroke="#3bfcef" d="M1524.13,-1660.81C1509.49,-1559.66 1434.64,-1042.23 1416.55,-917.21"/>
<polygon fill="#3bfcef" stroke="#3bfcef" points="1420.01,-916.7 1415.12,-907.3 1413.08,-917.7 1420.01,-916.7"/>
</g>
<!-- at_secondary&#45;&gt;at_server_spec -->
<g id="edge149" class="edge">
<title>at_secondary&#45;&gt;at_server_spec</title>
<path fill="none" stroke="#e6f023" d="M1476.22,-1660.99C1287.96,-1597.42 626.26,-1374.01 422.67,-1305.28"/>
<polygon fill="#e6f023" stroke="#e6f023" points="423.64,-1301.91 413.04,-1302.03 421.4,-1308.54 423.64,-1301.91"/>
</g>
<!-- at_secondary&#45;&gt;at_utils -->
<g id="edge146" class="edge">
<title>at_secondary&#45;&gt;at_utils</title>
<path fill="none" stroke="#75e849" d="M1527.67,-1660.82C1535.77,-1529.58 1587.81,-686.35 1597.91,-522.55"/>
<polygon fill="#75e849" stroke="#75e849" points="1601.42,-522.55 1598.54,-512.35 1594.43,-522.11 1601.42,-522.55"/>
</g>
<!-- at_secondary_proxy -->
<g id="node38" class="node">
<title>at_secondary_proxy</title>
<polygon fill="none" stroke="#35c7f7" points="2757.61,-1697 2599.61,-1697 2599.61,-1661 2757.61,-1661 2757.61,-1697"/>
<text text-anchor="middle" x="2678.61" y="-1675.3" font-family="Times,serif" font-size="14.00">at_secondary_proxy</text>
</g>
<!-- at_secondary_proxy&#45;&gt;at_commons -->
<g id="edge152" class="edge">
<title>at_secondary_proxy&#45;&gt;at_commons</title>
<path fill="none" stroke="#7eceb0" d="M2677.81,-1660.68C2675.04,-1603.91 2665.11,-1418.41 2646.61,-1266 2591,-807.81 2484.11,-254.57 2458.99,-127.09"/>
<polygon fill="#7eceb0" stroke="#7eceb0" points="2462.38,-126.17 2457.01,-117.04 2455.51,-127.53 2462.38,-126.17"/>
</g>
<!-- at_secondary_proxy&#45;&gt;at_lookup -->
<g id="edge154" class="edge">
<title>at_secondary_proxy&#45;&gt;at_lookup</title>
<path fill="none" stroke="#94d42d" d="M2662.35,-1660.86C2603.09,-1598.43 2398.62,-1382.99 2329.02,-1309.67"/>
<polygon fill="#94d42d" stroke="#94d42d" points="2331.39,-1307.07 2321.97,-1302.23 2326.31,-1311.89 2331.39,-1307.07"/>
</g>
<!-- at_secondary_proxy&#45;&gt;at_utils -->
<g id="edge153" class="edge">
<title>at_secondary_proxy&#45;&gt;at_utils</title>
<path fill="none" stroke="#75e849" d="M2676.85,-1660.83C2665.3,-1549.77 2599.36,-935.37 2547.61,-871 2307.97,-572.87 1797.67,-510.15 1644.19,-497.83"/>
<polygon fill="#75e849" stroke="#75e849" points="1644.42,-494.34 1634.18,-497.06 1643.88,-501.32 1644.42,-494.34"/>
</g>
<!-- at_server_spec&#45;&gt;at_commons -->
<g id="edge155" class="edge">
<title>at_server_spec&#45;&gt;at_commons</title>
<path fill="none" stroke="#7eceb0" d="M357.69,-1265.91C331.79,-1171.96 220.45,-714.05 437.61,-476 709.42,-178.05 2079.01,-112.98 2390.51,-101.95"/>
<polygon fill="#7eceb0" stroke="#7eceb0" points="2390.84,-105.44 2400.71,-101.6 2390.6,-98.45 2390.84,-105.44"/>
</g>
<!-- at_server_status&#45;&gt;at_commons -->
<g id="edge156" class="edge">
<title>at_server_status&#45;&gt;at_commons</title>
<path fill="none" stroke="#7eceb0" d="M847.34,-2449.7C827.2,-2339.25 726.14,-1722.79 887.61,-1266 1033.14,-854.33 1124,-740.22 1471.61,-476 1771.45,-248.09 2225.78,-143.33 2390.86,-111.24"/>
<polygon fill="#7eceb0" stroke="#7eceb0" points="2391.69,-114.65 2400.85,-109.32 2390.37,-107.77 2391.69,-114.65"/>
</g>
<!-- at_server_status&#45;&gt;at_lookup -->
<g id="edge158" class="edge">
<title>at_server_status&#45;&gt;at_lookup</title>
<path fill="none" stroke="#94d42d" d="M861.97,-2449.87C901.81,-2390.56 1040.77,-2190.2 1187.61,-2055 1566.74,-1705.92 2113.91,-1391.38 2265.42,-1307.07"/>
<polygon fill="#94d42d" stroke="#94d42d" points="2267.36,-1310 2274.41,-1302.08 2263.97,-1303.88 2267.36,-1310"/>
</g>
<!-- at_server_status&#45;&gt;at_utils -->
<g id="edge157" class="edge">
<title>at_server_status&#45;&gt;at_utils</title>
<path fill="none" stroke="#75e849" d="M851.01,-2449.91C854.94,-2282.58 887.8,-941.76 931.61,-871 1077.95,-634.66 1430.2,-533.68 1554.92,-504.51"/>
<polygon fill="#75e849" stroke="#75e849" points="1555.93,-507.87 1564.89,-502.21 1554.36,-501.04 1555.93,-507.87"/>
</g>
<!-- at_sync_ui_flutter&#45;&gt;at_client -->
<g id="edge159" class="edge">
<title>at_sync_ui_flutter&#45;&gt;at_client</title>
<path fill="none" stroke="#61d4fc" d="M2076.99,-2844.97C2047.95,-2792.92 1960.36,-2630.61 1913.61,-2486 1868.05,-2345.06 1843.79,-2168.3 1835.72,-2101.37"/>
<polygon fill="#61d4fc" stroke="#61d4fc" points="1839.17,-2100.76 1834.52,-2091.24 1832.22,-2101.58 1839.17,-2100.76"/>
</g>
<!-- at_sync_ui_flutter&#45;&gt;at_client_mobile -->
<g id="edge160" class="edge">
<title>at_sync_ui_flutter&#45;&gt;at_client_mobile</title>
<path fill="none" stroke="#d9577c" d="M2088.49,-2844.86C2095.24,-2783.19 2118.32,-2572.2 2126.62,-2496.4"/>
<polygon fill="#d9577c" stroke="#d9577c" points="2130.12,-2496.55 2127.73,-2486.23 2123.16,-2495.79 2130.12,-2496.55"/>
</g>
<!-- at_sync_ui_flutter&#45;&gt;at_common_flutter -->
<g id="edge161" class="edge">
<title>at_sync_ui_flutter&#45;&gt;at_common_flutter</title>
<path fill="none" stroke="#bf681f" d="M2123.63,-2844.99C2261.29,-2781.71 2743.62,-2560.01 2895.47,-2490.21"/>
<polygon fill="#bf681f" stroke="#bf681f" points="2896.95,-2493.38 2904.57,-2486.03 2894.02,-2487.02 2896.95,-2493.38"/>
</g>
<!-- at_theme_flutter -->
<g id="node42" class="node">
<title>at_theme_flutter</title>
<polygon fill="none" stroke="#2ec850" points="2915.61,-2881 2781.61,-2881 2781.61,-2845 2915.61,-2845 2915.61,-2881"/>
<text text-anchor="middle" x="2848.61" y="-2859.3" font-family="Times,serif" font-size="14.00">at_theme_flutter</text>
</g>
<!-- at_theme_flutter&#45;&gt;at_client_mobile -->
<g id="edge162" class="edge">
<title>at_theme_flutter&#45;&gt;at_client_mobile</title>
<path fill="none" stroke="#d9577c" d="M2817.26,-2844.86C2701.51,-2781.6 2298.36,-2561.24 2169.52,-2490.82"/>
<polygon fill="#d9577c" stroke="#d9577c" points="2171.18,-2487.73 2160.73,-2486.01 2167.83,-2493.88 2171.18,-2487.73"/>
</g>
<!-- at_theme_flutter&#45;&gt;at_common_flutter -->
<g id="edge163" class="edge">
<title>at_theme_flutter&#45;&gt;at_common_flutter</title>
<path fill="none" stroke="#bf681f" d="M2852.67,-2844.86C2867.26,-2783.19 2917.19,-2572.2 2935.13,-2496.4"/>
<polygon fill="#bf681f" stroke="#bf681f" points="2938.64,-2496.77 2937.54,-2486.23 2931.83,-2495.15 2938.64,-2496.77"/>
</g>
<!-- at_theme_flutter&#45;&gt;at_commons -->
<g id="edge164" class="edge">
<title>at_theme_flutter&#45;&gt;at_commons</title>
<path fill="none" stroke="#7eceb0" d="M2859.58,-2844.9C2892.03,-2793.29 2987.59,-2633.5 3024.61,-2486 3154.76,-1967.53 3089.61,-1819.56 3089.61,-1285 3089.61,-1285 3089.61,-1285 3089.61,-888 3089.61,-702.11 3119.16,-631.7 3017.61,-476 2891.78,-283.05 2628.62,-165.34 2511.72,-120.62"/>
<polygon fill="#7eceb0" stroke="#7eceb0" points="2512.81,-117.28 2502.22,-117.02 2510.33,-123.83 2512.81,-117.28"/>
</g>
<!-- at_theme_flutter&#45;&gt;at_utils -->
<g id="edge165" class="edge">
<title>at_theme_flutter&#45;&gt;at_utils</title>
<path fill="none" stroke="#75e849" d="M2810.76,-2844.9C2717.07,-2800.49 2473.52,-2671.87 2356.61,-2486 2350.03,-2475.53 2191.61,-1682.4 2191.61,-1680 2191.61,-1680 2191.61,-1680 2191.61,-1283 2191.61,-1091.78 2174.5,-1029.56 2067.61,-871 1951.58,-698.88 1732.84,-567 1641.42,-516.92"/>
<polygon fill="#75e849" stroke="#75e849" points="1642.92,-513.75 1632.46,-512.05 1639.58,-519.9 1642.92,-513.75"/>
</g>
<!-- at_utils&#45;&gt;at_commons -->
<g id="edge166" class="edge">
<title>at_utils&#45;&gt;at_commons</title>
<path fill="none" stroke="#7eceb0" d="M1634.15,-477.11C1768.18,-415.43 2254.01,-191.85 2407.09,-121.41"/>
<polygon fill="#7eceb0" stroke="#7eceb0" points="2408.64,-124.55 2416.26,-117.19 2405.71,-118.19 2408.64,-124.55"/>
</g>
<!-- at_ve_doctor -->
<g id="node44" class="node">
<title>at_ve_doctor</title>
<polygon fill="none" stroke="#193e4e" points="917.11,-2881 810.11,-2881 810.11,-2845 917.11,-2845 917.11,-2881"/>
<text text-anchor="middle" x="863.61" y="-2859.3" font-family="Times,serif" font-size="14.00">at_ve_doctor</text>
</g>
<!-- at_ve_doctor&#45;&gt;at_server_status -->
<g id="edge167" class="edge">
<title>at_ve_doctor&#45;&gt;at_server_status</title>
<path fill="none" stroke="#320113" d="M863.05,-2844.86C861.01,-2783.19 854.03,-2572.2 851.52,-2496.4"/>
<polygon fill="#320113" stroke="#320113" points="855.01,-2496.11 851.18,-2486.23 848.02,-2496.34 855.01,-2496.11"/>
</g>
<!-- base2e15 -->
<g id="node45" class="node">
<title>base2e15</title>
<polygon fill="none" stroke="#2bcf07" points="3622.11,-3671 3537.11,-3671 3537.11,-3635 3622.11,-3635 3622.11,-3671"/>
<text text-anchor="middle" x="3579.61" y="-3649.3" font-family="Times,serif" font-size="14.00">base2e15</text>
</g>
<!-- dart_utf7 -->
<g id="node46" class="node">
<title>dart_utf7</title>
<polygon fill="none" stroke="#f889f9" points="3723.11,-3671 3640.11,-3671 3640.11,-3635 3723.11,-3635 3723.11,-3671"/>
<text text-anchor="middle" x="3681.61" y="-3649.3" font-family="Times,serif" font-size="14.00">dart_utf7</text>
</g>
<!-- \n -->
<g id="node48" class="node">
<title>\n</title>
<ellipse fill="none" stroke="black" cx="3768.61" cy="-3653" rx="27" ry="18"/>
</g>
</g>
</svg>
