<?xml version="1.0" encoding="UTF-8" standalone="no"?>
<!DOCTYPE svg PUBLIC "-//W3C//DTD SVG 1.1//EN"
 "http://www.w3.org/Graphics/SVG/1.1/DTD/svg11.dtd">
<!-- Generated by graphviz version 2.43.0 (0)
 -->
<!-- Title: packages Pages: 1 -->
<svg width="720pt" height="692pt"
 viewBox="0.00 0.00 720.00 691.63" xmlns="http://www.w3.org/2000/svg" xmlns:xlink="http://www.w3.org/1999/xlink">
<g id="graph0" class="graph" transform="scale(0.1839441489361702 0.1839441489361702) rotate(0) translate(4 3756)">
<title>packages</title>
<polygon fill="white" stroke="transparent" points="-4,4 -4,-3756 3910.21,-3756 3910.21,4 -4,4"/>
<!-- at_auth -->
<g id="node1" class="node">
<title>at_auth</title>
<polygon fill="none" stroke="#0f9477" points="1905.21,-1697 1835.21,-1697 1835.21,-1661 1905.21,-1661 1905.21,-1697"/>
<text text-anchor="middle" x="1870.21" y="-1675.3" font-family="Times,serif" font-size="14.00">at_auth</text>
</g>
<!-- at_chops -->
<g id="node4" class="node">
<title>at_chops</title>
<polygon fill="none" stroke="#8fb4d4" points="1968.71,-907 1889.71,-907 1889.71,-871 1968.71,-871 1968.71,-907"/>
<text text-anchor="middle" x="1929.21" y="-885.3" font-family="Times,serif" font-size="14.00">at_chops</text>
</g>
<!-- at_auth&#45;&gt;at_chops -->
<g id="edge3" class="edge">
<title>at_auth&#45;&gt;at_chops</title>
<path fill="none" stroke="#8fb4d4" d="M1872.34,-1660.79C1878.84,-1607.55 1898.66,-1440.73 1909.21,-1302 1920.22,-1157.25 1926.34,-983.4 1928.4,-917.3"/>
<polygon fill="#8fb4d4" stroke="#8fb4d4" points="1931.9,-917.39 1928.71,-907.29 1924.91,-917.18 1931.9,-917.39"/>
</g>
<!-- at_commons -->
<g id="node10" class="node">
<title>at_commons</title>
<polygon fill="none" stroke="#7eceb0" points="1943.71,-117 1838.71,-117 1838.71,-81 1943.71,-81 1943.71,-117"/>
<text text-anchor="middle" x="1891.21" y="-95.3" font-family="Times,serif" font-size="14.00">at_commons</text>
</g>
<!-- at_auth&#45;&gt;at_commons -->
<g id="edge1" class="edge">
<title>at_auth&#45;&gt;at_commons</title>
<path fill="none" stroke="#7eceb0" d="M1870.41,-1660.96C1871.41,-1575.86 1875.98,-1188.33 1880.21,-871 1884.09,-579.74 1889.32,-226.59 1890.8,-127.19"/>
<polygon fill="#7eceb0" stroke="#7eceb0" points="1894.31,-127.15 1890.96,-117.09 1887.31,-127.04 1894.31,-127.15"/>
</g>
<!-- at_lookup -->
<g id="node27" class="node">
<title>at_lookup</title>
<polygon fill="none" stroke="#94d42d" points="2165.71,-1302 2080.71,-1302 2080.71,-1266 2165.71,-1266 2165.71,-1302"/>
<text text-anchor="middle" x="2123.21" y="-1280.3" font-family="Times,serif" font-size="14.00">at_lookup</text>
</g>
<!-- at_auth&#45;&gt;at_lookup -->
<g id="edge2" class="edge">
<title>at_auth&#45;&gt;at_lookup</title>
<path fill="none" stroke="#94d42d" d="M1881.25,-1660.86C1921.19,-1598.81 2058.45,-1385.6 2106.46,-1311.02"/>
<polygon fill="#94d42d" stroke="#94d42d" points="2109.65,-1312.53 2112.12,-1302.23 2103.76,-1308.74 2109.65,-1312.53"/>
</g>
<!-- at_utils -->
<g id="node43" class="node">
<title>at_utils</title>
<polygon fill="none" stroke="#75e849" points="1663.71,-512 1594.71,-512 1594.71,-476 1663.71,-476 1663.71,-512"/>
<text text-anchor="middle" x="1629.21" y="-490.3" font-family="Times,serif" font-size="14.00">at_utils</text>
</g>
<!-- at_auth&#45;&gt;at_utils -->
<g id="edge4" class="edge">
<title>at_auth&#45;&gt;at_utils</title>
<path fill="none" stroke="#75e849" d="M1868.95,-1660.85C1860.85,-1551.17 1815.78,-950.16 1795.21,-871 1759.27,-732.68 1677.96,-580.64 1644.27,-521.02"/>
<polygon fill="#75e849" stroke="#75e849" points="1647.27,-519.22 1639.29,-512.26 1641.19,-522.68 1647.27,-519.22"/>
</g>
<!-- at_backupkey_flutter -->
<g id="node2" class="node">
<title>at_backupkey_flutter</title>
<polygon fill="none" stroke="#590b92" points="1703.71,-2881 1538.71,-2881 1538.71,-2845 1703.71,-2845 1703.71,-2881"/>
<text text-anchor="middle" x="1621.21" y="-2859.3" font-family="Times,serif" font-size="14.00">at_backupkey_flutter</text>
</g>
<!-- at_client_mobile -->
<g id="node8" class="node">
<title>at_client_mobile</title>
<polygon fill="none" stroke="#d9577c" points="2196.21,-2486 2064.21,-2486 2064.21,-2450 2196.21,-2450 2196.21,-2486"/>
<text text-anchor="middle" x="2130.21" y="-2464.3" font-family="Times,serif" font-size="14.00">at_client_mobile</text>
</g>
<!-- at_backupkey_flutter&#45;&gt;at_client_mobile -->
<g id="edge6" class="edge">
<title>at_backupkey_flutter&#45;&gt;at_client_mobile</title>
<path fill="none" stroke="#d9577c" d="M1643.41,-2844.86C1724.77,-2782.04 2006.77,-2564.31 2100.01,-2492.32"/>
<polygon fill="#d9577c" stroke="#d9577c" points="2102.41,-2494.89 2108.18,-2486.01 2098.13,-2489.35 2102.41,-2494.89"/>
</g>
<!-- at_backupkey_flutter&#45;&gt;at_utils -->
<g id="edge5" class="edge">
<title>at_backupkey_flutter&#45;&gt;at_utils</title>
<path fill="none" stroke="#75e849" d="M1621.27,-2844.97C1621.94,-2646.28 1628.28,-771.17 1629.12,-522.25"/>
<polygon fill="#75e849" stroke="#75e849" points="1632.62,-522.25 1629.15,-512.23 1625.62,-522.22 1632.62,-522.25"/>
</g>
<!-- at_chat_flutter -->
<g id="node3" class="node">
<title>at_chat_flutter</title>
<polygon fill="none" stroke="#463830" points="2838.21,-2881 2718.21,-2881 2718.21,-2845 2838.21,-2845 2838.21,-2881"/>
<text text-anchor="middle" x="2778.21" y="-2859.3" font-family="Times,serif" font-size="14.00">at_chat_flutter</text>
</g>
<!-- at_client -->
<g id="node7" class="node">
<title>at_client</title>
<polygon fill="none" stroke="#61d4fc" points="1936.71,-2091 1859.71,-2091 1859.71,-2055 1936.71,-2055 1936.71,-2091"/>
<text text-anchor="middle" x="1898.21" y="-2069.3" font-family="Times,serif" font-size="14.00">at_client</text>
</g>
<!-- at_chat_flutter&#45;&gt;at_client -->
<g id="edge7" class="edge">
<title>at_chat_flutter&#45;&gt;at_client</title>
<path fill="none" stroke="#61d4fc" d="M2763.9,-2844.99C2714.68,-2786.87 2546.64,-2591.97 2389.21,-2450 2227.27,-2303.96 2013.24,-2152.98 1931.7,-2096.82"/>
<polygon fill="#61d4fc" stroke="#61d4fc" points="1933.55,-2093.85 1923.32,-2091.07 1929.58,-2099.62 1933.55,-2093.85"/>
</g>
<!-- at_chat_flutter&#45;&gt;at_client_mobile -->
<g id="edge8" class="edge">
<title>at_chat_flutter&#45;&gt;at_client_mobile</title>
<path fill="none" stroke="#d9577c" d="M2749.95,-2844.86C2645.85,-2781.72 2283.75,-2562.12 2166.88,-2491.24"/>
<polygon fill="#d9577c" stroke="#d9577c" points="2168.62,-2488.2 2158.26,-2486.01 2164.99,-2494.19 2168.62,-2488.2"/>
</g>
<!-- at_common_flutter -->
<g id="node9" class="node">
<title>at_common_flutter</title>
<polygon fill="none" stroke="#bf681f" points="3121.71,-2486 2972.71,-2486 2972.71,-2450 3121.71,-2450 3121.71,-2486"/>
<text text-anchor="middle" x="3047.21" y="-2464.3" font-family="Times,serif" font-size="14.00">at_common_flutter</text>
</g>
<!-- at_chat_flutter&#45;&gt;at_common_flutter -->
<g id="edge9" class="edge">
<title>at_chat_flutter&#45;&gt;at_common_flutter</title>
<path fill="none" stroke="#bf681f" d="M2789.94,-2844.86C2832.5,-2782.68 2978.94,-2568.74 3029.71,-2494.56"/>
<polygon fill="#bf681f" stroke="#bf681f" points="3032.66,-2496.46 3035.42,-2486.23 3026.88,-2492.5 3032.66,-2496.46"/>
</g>
<!-- at_chat_flutter&#45;&gt;at_commons -->
<g id="edge10" class="edge">
<title>at_chat_flutter&#45;&gt;at_commons</title>
<path fill="none" stroke="#7eceb0" d="M2783.48,-2844.84C2815.57,-2738.87 2983.21,-2162.15 2983.21,-1680 2983.21,-1680 2983.21,-1680 2983.21,-888 2983.21,-376.59 2185.89,-163.81 1953.85,-112.71"/>
<polygon fill="#7eceb0" stroke="#7eceb0" points="1954.4,-109.25 1943.88,-110.54 1952.91,-116.09 1954.4,-109.25"/>
</g>
<!-- at_contact -->
<g id="node11" class="node">
<title>at_contact</title>
<polygon fill="none" stroke="#250aa2" points="2380.21,-2486 2290.21,-2486 2290.21,-2450 2380.21,-2450 2380.21,-2486"/>
<text text-anchor="middle" x="2335.21" y="-2464.3" font-family="Times,serif" font-size="14.00">at_contact</text>
</g>
<!-- at_chat_flutter&#45;&gt;at_contact -->
<g id="edge11" class="edge">
<title>at_chat_flutter&#45;&gt;at_contact</title>
<path fill="none" stroke="#250aa2" d="M2758.89,-2844.86C2688.37,-2782.3 2444.69,-2566.12 2362.51,-2493.22"/>
<polygon fill="#250aa2" stroke="#250aa2" points="2364.44,-2490.25 2354.63,-2486.23 2359.79,-2495.48 2364.44,-2490.25"/>
</g>
<!-- at_chat_flutter&#45;&gt;at_lookup -->
<g id="edge12" class="edge">
<title>at_chat_flutter&#45;&gt;at_lookup</title>
<path fill="none" stroke="#94d42d" d="M2771.4,-2844.69C2749.06,-2787.95 2675.83,-2602.54 2613.21,-2450 2425.4,-1992.49 2188.46,-1437.51 2134.49,-1311.35"/>
<polygon fill="#94d42d" stroke="#94d42d" points="2137.67,-1309.87 2130.52,-1302.06 2131.23,-1312.63 2137.67,-1309.87"/>
</g>
<!-- at_chops&#45;&gt;at_commons -->
<g id="edge13" class="edge">
<title>at_chops&#45;&gt;at_commons</title>
<path fill="none" stroke="#7eceb0" d="M1928.38,-870.81C1923.51,-769.76 1898.6,-253.27 1892.54,-127.59"/>
<polygon fill="#7eceb0" stroke="#7eceb0" points="1896.02,-127.12 1892.05,-117.3 1889.03,-127.46 1896.02,-127.12"/>
</g>
<!-- at_chops&#45;&gt;at_utils -->
<g id="edge14" class="edge">
<title>at_chops&#45;&gt;at_utils</title>
<path fill="none" stroke="#75e849" d="M1916.13,-870.86C1868.66,-808.68 1705.35,-594.74 1648.72,-520.56"/>
<polygon fill="#75e849" stroke="#75e849" points="1651.21,-518.05 1642.36,-512.23 1645.65,-522.3 1651.21,-518.05"/>
</g>
<!-- at_cli -->
<g id="node5" class="node">
<title>at_cli</title>
<polygon fill="none" stroke="#34bd05" points="2604.21,-2486 2550.21,-2486 2550.21,-2450 2604.21,-2450 2604.21,-2486"/>
<text text-anchor="middle" x="2577.21" y="-2464.3" font-family="Times,serif" font-size="14.00">at_cli</text>
</g>
<!-- at_cli&#45;&gt;at_client -->
<g id="edge16" class="edge">
<title>at_cli&#45;&gt;at_client</title>
<path fill="none" stroke="#61d4fc" d="M2550.17,-2451.35C2444.54,-2390.21 2059.44,-2167.32 1936.33,-2096.06"/>
<polygon fill="#61d4fc" stroke="#61d4fc" points="1938,-2092.98 1927.59,-2091 1934.49,-2099.04 1938,-2092.98"/>
</g>
<!-- at_cli&#45;&gt;at_commons -->
<g id="edge17" class="edge">
<title>at_cli&#45;&gt;at_commons</title>
<path fill="none" stroke="#7eceb0" d="M2584.87,-2449.7C2630.94,-2344.01 2869.21,-1773.81 2869.21,-1285 2869.21,-1285 2869.21,-1285 2869.21,-888 2869.21,-415.79 2169.33,-178.6 1953.69,-116.72"/>
<polygon fill="#7eceb0" stroke="#7eceb0" points="1954.37,-113.28 1943.79,-113.91 1952.45,-120.01 1954.37,-113.28"/>
</g>
<!-- at_cli&#45;&gt;at_lookup -->
<g id="edge15" class="edge">
<title>at_cli&#45;&gt;at_lookup</title>
<path fill="none" stroke="#94d42d" d="M2567.05,-2449.89C2536.31,-2397.6 2442.8,-2234.71 2384.21,-2091 2308.69,-1905.76 2313.01,-1851.26 2251.21,-1661 2208.52,-1529.57 2154.23,-1373.49 2132.66,-1311.9"/>
<polygon fill="#94d42d" stroke="#94d42d" points="2135.86,-1310.46 2129.25,-1302.18 2129.26,-1312.78 2135.86,-1310.46"/>
</g>
<!-- at_cli&#45;&gt;at_utils -->
<g id="edge18" class="edge">
<title>at_cli&#45;&gt;at_utils</title>
<path fill="none" stroke="#75e849" d="M2576.35,-2449.92C2567.99,-2286.8 2499.58,-1007.36 2403.21,-871 2220.44,-612.39 1809.66,-524.25 1673.79,-501.59"/>
<polygon fill="#75e849" stroke="#75e849" points="1674.17,-498.11 1663.74,-499.95 1673.05,-505.01 1674.17,-498.11"/>
</g>
<!-- at_cli_commons -->
<g id="node6" class="node">
<title>at_cli_commons</title>
<polygon fill="none" stroke="#c99192" points="1362.21,-2486 1234.21,-2486 1234.21,-2450 1362.21,-2450 1362.21,-2486"/>
<text text-anchor="middle" x="1298.21" y="-2464.3" font-family="Times,serif" font-size="14.00">at_cli_commons</text>
</g>
<!-- at_cli_commons&#45;&gt;at_client -->
<g id="edge19" class="edge">
<title>at_cli_commons&#45;&gt;at_client</title>
<path fill="none" stroke="#61d4fc" d="M1324.38,-2449.86C1420.58,-2386.85 1754.71,-2168 1863.6,-2096.67"/>
<polygon fill="#61d4fc" stroke="#61d4fc" points="1865.8,-2099.42 1872.24,-2091.01 1861.96,-2093.56 1865.8,-2099.42"/>
</g>
<!-- at_onboarding_cli -->
<g id="node29" class="node">
<title>at_onboarding_cli</title>
<polygon fill="none" stroke="#514d2d" points="1368.21,-2881 1226.21,-2881 1226.21,-2845 1368.21,-2845 1368.21,-2881"/>
<text text-anchor="middle" x="1297.21" y="-2859.3" font-family="Times,serif" font-size="14.00">at_onboarding_cli</text>
</g>
<!-- at_cli_commons&#45;&gt;at_onboarding_cli -->
<g id="edge20" class="edge">
<title>at_cli_commons&#45;&gt;at_onboarding_cli</title>
<path fill="none" stroke="#514d2d" d="M1301.15,-2486.23C1305.78,-2548.05 1305.47,-2759.04 1300.93,-2834.71"/>
<polygon fill="#514d2d" stroke="#514d2d" points="1297.42,-2834.64 1300.23,-2844.86 1304.41,-2835.13 1297.42,-2834.64"/>
</g>
<!-- at_cli_commons&#45;&gt;at_utils -->
<g id="edge21" class="edge">
<title>at_cli_commons&#45;&gt;at_utils</title>
<path fill="none" stroke="#75e849" d="M1301.39,-2449.93C1316.8,-2367.1 1385.3,-1998.81 1441.21,-1697 1473.73,-1521.46 1488.09,-1478.61 1514.21,-1302 1542.41,-1111.33 1534.62,-1061.76 1562.21,-871 1581.19,-739.76 1611.41,-584.1 1623.72,-522.27"/>
<polygon fill="#75e849" stroke="#75e849" points="1627.21,-522.67 1625.74,-512.17 1620.34,-521.29 1627.21,-522.67"/>
</g>
<!-- at_client&#45;&gt;at_auth -->
<g id="edge26" class="edge">
<title>at_client&#45;&gt;at_auth</title>
<path fill="none" stroke="#0f9477" d="M1896.99,-2054.9C1892.6,-1993.39 1877.56,-1782.94 1872.16,-1707.33"/>
<polygon fill="#0f9477" stroke="#0f9477" points="1875.64,-1706.91 1871.44,-1697.19 1868.66,-1707.41 1875.64,-1706.91"/>
</g>
<!-- at_client&#45;&gt;at_chops -->
<g id="edge24" class="edge">
<title>at_client&#45;&gt;at_chops</title>
<path fill="none" stroke="#8fb4d4" d="M1899.04,-2054.81C1901.57,-2001.63 1909.34,-1835.06 1914.21,-1697 1920.4,-1521.49 1921.91,-1477.59 1925.21,-1302 1927.93,-1157.02 1928.85,-983.31 1929.12,-917.27"/>
<polygon fill="#8fb4d4" stroke="#8fb4d4" points="1932.62,-917.28 1929.16,-907.27 1925.62,-917.26 1932.62,-917.28"/>
</g>
<!-- at_client&#45;&gt;at_commons -->
<g id="edge22" class="edge">
<title>at_client&#45;&gt;at_commons</title>
<path fill="none" stroke="#7eceb0" d="M1937.07,-2068.44C2074.76,-2053.54 2541.47,-1982.84 2736.21,-1697 2839.42,-1545.51 2755.21,-1468.31 2755.21,-1285 2755.21,-1285 2755.21,-1285 2755.21,-888 2755.21,-451.52 2145.83,-192.39 1950.61,-120.58"/>
<polygon fill="#7eceb0" stroke="#7eceb0" points="1951.68,-117.24 1941.08,-117.1 1949.28,-123.82 1951.68,-117.24"/>
</g>
<!-- at_client&#45;&gt;at_lookup -->
<g id="edge25" class="edge">
<title>at_client&#45;&gt;at_lookup</title>
<path fill="none" stroke="#94d42d" d="M1904.46,-2054.97C1923.67,-2002.24 1983.01,-1836.82 2023.21,-1697 2064.53,-1553.27 2103.26,-1378.15 2117.48,-1312.02"/>
<polygon fill="#94d42d" stroke="#94d42d" points="2120.95,-1312.52 2119.62,-1302.01 2114.1,-1311.05 2120.95,-1312.52"/>
</g>
<!-- at_persistence_secondary_server -->
<g id="node32" class="node">
<title>at_persistence_secondary_server</title>
<polygon fill="none" stroke="#9760d3" points="1092.21,-1302 840.21,-1302 840.21,-1266 1092.21,-1266 1092.21,-1302"/>
<text text-anchor="middle" x="966.21" y="-1280.3" font-family="Times,serif" font-size="14.00">at_persistence_secondary_server</text>
</g>
<!-- at_client&#45;&gt;at_persistence_secondary_server -->
<g id="edge28" class="edge">
<title>at_client&#45;&gt;at_persistence_secondary_server</title>
<path fill="none" stroke="#9760d3" d="M1859.41,-2058.78C1713.59,-2008.42 1201.15,-1824.94 1090.21,-1697 989.21,-1580.51 970.47,-1384.04 967,-1312.28"/>
<polygon fill="#9760d3" stroke="#9760d3" points="970.49,-1312.09 966.57,-1302.25 963.5,-1312.38 970.49,-1312.09"/>
</g>
<!-- at_persistence_spec -->
<g id="node33" class="node">
<title>at_persistence_spec</title>
<polygon fill="none" stroke="#3bfcef" points="1130.71,-907 971.71,-907 971.71,-871 1130.71,-871 1130.71,-907"/>
<text text-anchor="middle" x="1051.21" y="-885.3" font-family="Times,serif" font-size="14.00">at_persistence_spec</text>
</g>
<!-- at_client&#45;&gt;at_persistence_spec -->
<g id="edge27" class="edge">
<title>at_client&#45;&gt;at_persistence_spec</title>
<path fill="none" stroke="#3bfcef" d="M1885.91,-2054.84C1791.57,-1923.18 1183.38,-1074.45 1069.55,-915.59"/>
<polygon fill="#3bfcef" stroke="#3bfcef" points="1072.3,-913.42 1063.63,-907.33 1066.61,-917.5 1072.3,-913.42"/>
</g>
<!-- at_client&#45;&gt;at_utils -->
<g id="edge23" class="edge">
<title>at_client&#45;&gt;at_utils</title>
<path fill="none" stroke="#75e849" d="M1892.13,-2054.7C1873.84,-2001.86 1818.98,-1837.65 1793.21,-1697 1726.8,-1334.45 1778.71,-1234.75 1719.21,-871 1697.5,-738.25 1654.62,-582.92 1637.03,-521.71"/>
<polygon fill="#75e849" stroke="#75e849" points="1640.38,-520.69 1634.24,-512.06 1633.65,-522.64 1640.38,-520.69"/>
</g>
<!-- at_client_mobile&#45;&gt;at_auth -->
<g id="edge34" class="edge">
<title>at_client_mobile&#45;&gt;at_auth</title>
<path fill="none" stroke="#0f9477" d="M2128.46,-2449.73C2122.3,-2392.36 2099.32,-2203.38 2050.21,-2055 2004.76,-1917.69 1920.25,-1765.7 1885.62,-1706.04"/>
<polygon fill="#0f9477" stroke="#0f9477" points="1888.57,-1704.15 1880.5,-1697.28 1882.52,-1707.68 1888.57,-1704.15"/>
</g>
<!-- at_client_mobile&#45;&gt;at_chops -->
<g id="edge31" class="edge">
<title>at_client_mobile&#45;&gt;at_chops</title>
<path fill="none" stroke="#8fb4d4" d="M2128.02,-2449.83C2108.04,-2293.07 1957.45,-1111.58 1932.66,-917.07"/>
<polygon fill="#8fb4d4" stroke="#8fb4d4" points="1936.13,-916.59 1931.39,-907.11 1929.18,-917.47 1936.13,-916.59"/>
</g>
<!-- at_client_mobile&#45;&gt;at_client -->
<g id="edge33" class="edge">
<title>at_client_mobile&#45;&gt;at_client</title>
<path fill="none" stroke="#61d4fc" d="M2120.09,-2449.86C2083.46,-2387.81 1957.6,-2174.6 1913.57,-2100.02"/>
<polygon fill="#61d4fc" stroke="#61d4fc" points="1916.48,-2098.06 1908.38,-2091.23 1910.45,-2101.62 1916.48,-2098.06"/>
</g>
<!-- at_client_mobile&#45;&gt;at_commons -->
<g id="edge29" class="edge">
<title>at_client_mobile&#45;&gt;at_commons</title>
<path fill="none" stroke="#7eceb0" d="M2151.49,-2450C2244.53,-2374.2 2617.37,-2055.04 2761.21,-1697 2829.68,-1526.58 2793.21,-1468.66 2793.21,-1285 2793.21,-1285 2793.21,-1285 2793.21,-888 2793.21,-684.65 2735.01,-622.72 2594.21,-476 2404.42,-278.23 2087.55,-161.43 1953.81,-118.68"/>
<polygon fill="#7eceb0" stroke="#7eceb0" points="1954.71,-115.29 1944.12,-115.61 1952.59,-121.96 1954.71,-115.29"/>
</g>
<!-- at_client_mobile&#45;&gt;at_lookup -->
<g id="edge32" class="edge">
<title>at_client_mobile&#45;&gt;at_lookup</title>
<path fill="none" stroke="#94d42d" d="M2130.7,-2449.98C2133.09,-2364.98 2143.11,-1977.9 2137.21,-1661 2134.78,-1530.38 2127.6,-1374.37 2124.58,-1312.36"/>
<polygon fill="#94d42d" stroke="#94d42d" points="2128.07,-1312.05 2124.08,-1302.23 2121.08,-1312.39 2128.07,-1312.05"/>
</g>
<!-- at_client_mobile&#45;&gt;at_persistence_secondary_server -->
<g id="edge35" class="edge">
<title>at_client_mobile&#45;&gt;at_persistence_secondary_server</title>
<path fill="none" stroke="#9760d3" d="M2088.71,-2449.99C1928.32,-2382.03 1344.13,-2113.3 1065.21,-1697 981.26,-1571.7 968.28,-1382.83 966.44,-1312.59"/>
<polygon fill="#9760d3" stroke="#9760d3" points="969.93,-1312.29 966.23,-1302.36 962.93,-1312.43 969.93,-1312.29"/>
</g>
<!-- at_client_mobile&#45;&gt;at_utils -->
<g id="edge30" class="edge">
<title>at_client_mobile&#45;&gt;at_utils</title>
<path fill="none" stroke="#75e849" d="M2122.67,-2449.75C2079.65,-2351.13 1865.86,-1857.45 1826.21,-1697 1737.62,-1338.5 1807,-1233.44 1736.21,-871 1710.2,-737.82 1659.55,-583.33 1638.62,-522.04"/>
<polygon fill="#75e849" stroke="#75e849" points="1641.85,-520.68 1635.29,-512.36 1635.23,-522.96 1641.85,-520.68"/>
</g>
<!-- at_contact&#45;&gt;at_client -->
<g id="edge36" class="edge">
<title>at_contact&#45;&gt;at_client</title>
<path fill="none" stroke="#61d4fc" d="M2316.15,-2449.86C2246.59,-2387.3 2006.21,-2171.12 1925.14,-2098.22"/>
<polygon fill="#61d4fc" stroke="#61d4fc" points="1927.15,-2095.31 1917.37,-2091.23 1922.47,-2100.52 1927.15,-2095.31"/>
</g>
<!-- at_contact&#45;&gt;at_commons -->
<g id="edge37" class="edge">
<title>at_contact&#45;&gt;at_commons</title>
<path fill="none" stroke="#7eceb0" d="M2348.86,-2449.85C2411.41,-2370.17 2672.34,-2026.16 2782.21,-1697 2840.6,-1522.09 2831.21,-1469.4 2831.21,-1285 2831.21,-1285 2831.21,-1285 2831.21,-888 2831.21,-428.4 2163.1,-183.67 1953.4,-118.17"/>
<polygon fill="#7eceb0" stroke="#7eceb0" points="1954.35,-114.8 1943.76,-115.19 1952.28,-121.49 1954.35,-114.8"/>
</g>
<!-- at_contact&#45;&gt;at_utils -->
<g id="edge38" class="edge">
<title>at_contact&#45;&gt;at_utils</title>
<path fill="none" stroke="#75e849" d="M2331.28,-2449.91C2307.04,-2344.38 2175.42,-1770.65 2071.21,-1302 2028.66,-1110.62 2067.88,-1044.84 1977.21,-871 1894.97,-713.31 1728.9,-572.57 1660.13,-518.5"/>
<polygon fill="#75e849" stroke="#75e849" points="1661.89,-515.44 1651.85,-512.05 1657.58,-520.96 1661.89,-515.44"/>
</g>
<!-- at_contacts_flutter -->
<g id="node12" class="node">
<title>at_contacts_flutter</title>
<polygon fill="none" stroke="#1267b5" points="2700.71,-2881 2551.71,-2881 2551.71,-2845 2700.71,-2845 2700.71,-2881"/>
<text text-anchor="middle" x="2626.21" y="-2859.3" font-family="Times,serif" font-size="14.00">at_contacts_flutter</text>
</g>
<!-- at_contacts_flutter&#45;&gt;at_client -->
<g id="edge39" class="edge">
<title>at_contacts_flutter&#45;&gt;at_client</title>
<path fill="none" stroke="#61d4fc" d="M2610.33,-2844.81C2516.32,-2743.05 2033.07,-2219.97 1921.3,-2098.99"/>
<polygon fill="#61d4fc" stroke="#61d4fc" points="1923.55,-2096.27 1914.2,-2091.3 1918.41,-2101.02 1923.55,-2096.27"/>
</g>
<!-- at_contacts_flutter&#45;&gt;at_client_mobile -->
<g id="edge40" class="edge">
<title>at_contacts_flutter&#45;&gt;at_client_mobile</title>
<path fill="none" stroke="#d9577c" d="M2604.58,-2844.86C2525.29,-2782.04 2250.5,-2564.31 2159.64,-2492.32"/>
<polygon fill="#d9577c" stroke="#d9577c" points="2161.69,-2489.48 2151.68,-2486.01 2157.34,-2494.96 2161.69,-2489.48"/>
</g>
<!-- at_contacts_flutter&#45;&gt;at_common_flutter -->
<g id="edge41" class="edge">
<title>at_contacts_flutter&#45;&gt;at_common_flutter</title>
<path fill="none" stroke="#bf681f" d="M2644.57,-2844.86C2711.59,-2782.3 2943.17,-2566.12 3021.26,-2493.22"/>
<polygon fill="#bf681f" stroke="#bf681f" points="3023.83,-2495.61 3028.75,-2486.23 3019.06,-2490.49 3023.83,-2495.61"/>
</g>
<!-- at_contacts_flutter&#45;&gt;at_commons -->
<g id="edge42" class="edge">
<title>at_contacts_flutter&#45;&gt;at_commons</title>
<path fill="none" stroke="#7eceb0" d="M2632.44,-2844.76C2676.97,-2719.92 2945.21,-1940.73 2945.21,-1285 2945.21,-1285 2945.21,-1285 2945.21,-888 2945.21,-683.28 2887.29,-617.37 2739.21,-476 2502.37,-249.88 2106.8,-145.76 1954.06,-112.48"/>
<polygon fill="#7eceb0" stroke="#7eceb0" points="1954.43,-108.98 1943.92,-110.3 1952.96,-115.83 1954.43,-108.98"/>
</g>
<!-- at_contacts_flutter&#45;&gt;at_contact -->
<g id="edge43" class="edge">
<title>at_contacts_flutter&#45;&gt;at_contact</title>
<path fill="none" stroke="#250aa2" d="M2613.52,-2844.86C2567.48,-2782.68 2409.06,-2568.74 2354.14,-2494.56"/>
<polygon fill="#250aa2" stroke="#250aa2" points="2356.73,-2492.18 2347.97,-2486.23 2351.11,-2496.35 2356.73,-2492.18"/>
</g>
<!-- at_contacts_flutter&#45;&gt;at_lookup -->
<g id="edge44" class="edge">
<title>at_contacts_flutter&#45;&gt;at_lookup</title>
<path fill="none" stroke="#94d42d" d="M2620.31,-2844.96C2591.74,-2762.29 2465.12,-2394.55 2368.21,-2091 2270.91,-1786.21 2161,-1413.77 2131.08,-1311.86"/>
<polygon fill="#94d42d" stroke="#94d42d" points="2134.38,-1310.68 2128.21,-1302.07 2127.67,-1312.65 2134.38,-1310.68"/>
</g>
<!-- at_contacts_flutter&#45;&gt;at_utils -->
<g id="edge45" class="edge">
<title>at_contacts_flutter&#45;&gt;at_utils</title>
<path fill="none" stroke="#75e849" d="M2622.18,-2844.74C2578.94,-2660.11 2200.31,-1052.61 2083.21,-871 1972.76,-699.7 1759.39,-567.36 1670.08,-517.04"/>
<polygon fill="#75e849" stroke="#75e849" points="1671.77,-513.97 1661.33,-512.15 1668.35,-520.08 1671.77,-513.97"/>
</g>
<!-- at_contacts_group_flutter -->
<g id="node13" class="node">
<title>at_contacts_group_flutter</title>
<polygon fill="none" stroke="#dae1d2" points="2687.21,-3276 2489.21,-3276 2489.21,-3240 2687.21,-3240 2687.21,-3276"/>
<text text-anchor="middle" x="2588.21" y="-3254.3" font-family="Times,serif" font-size="14.00">at_contacts_group_flutter</text>
</g>
<!-- at_contacts_group_flutter&#45;&gt;at_client_mobile -->
<g id="edge46" class="edge">
<title>at_contacts_group_flutter&#45;&gt;at_client_mobile</title>
<path fill="none" stroke="#d9577c" d="M2578.22,-3239.81C2519.25,-3138.36 2216.87,-2618.1 2145.38,-2495.09"/>
<polygon fill="#d9577c" stroke="#d9577c" points="2148.32,-2493.19 2140.27,-2486.3 2142.27,-2496.71 2148.32,-2493.19"/>
</g>
<!-- at_contacts_group_flutter&#45;&gt;at_common_flutter -->
<g id="edge47" class="edge">
<title>at_contacts_group_flutter&#45;&gt;at_common_flutter</title>
<path fill="none" stroke="#bf681f" d="M2623.72,-3239.96C2711.84,-3195.45 2939.94,-3066.19 3030.21,-2881 3094.38,-2749.37 3066.85,-2565.04 3053.2,-2496.28"/>
<polygon fill="#bf681f" stroke="#bf681f" points="3056.58,-2495.35 3051.15,-2486.26 3049.73,-2496.76 3056.58,-2495.35"/>
</g>
<!-- at_contacts_group_flutter&#45;&gt;at_commons -->
<g id="edge48" class="edge">
<title>at_contacts_group_flutter&#45;&gt;at_commons</title>
<path fill="none" stroke="#7eceb0" d="M2687.32,-3245.31C2872.11,-3217.9 3268.35,-3131.61 3465.21,-2881 3579.9,-2735 3534.21,-2654.66 3534.21,-2469 3534.21,-2469 3534.21,-2469 3534.21,-888 3534.21,-173.6 2255.74,-106.4 1954.32,-100.49"/>
<polygon fill="#7eceb0" stroke="#7eceb0" points="1954.08,-96.98 1944.02,-100.3 1953.95,-103.98 1954.08,-96.98"/>
</g>
<!-- at_contacts_group_flutter&#45;&gt;at_contact -->
<g id="edge49" class="edge">
<title>at_contacts_group_flutter&#45;&gt;at_contact</title>
<path fill="none" stroke="#250aa2" d="M2585.82,-3239.8C2577.61,-3182.66 2548.37,-2994.31 2500.21,-2845 2456.37,-2709.07 2380.09,-2555.61 2349,-2495.31"/>
<polygon fill="#250aa2" stroke="#250aa2" points="2351.95,-2493.4 2344.24,-2486.13 2345.73,-2496.62 2351.95,-2493.4"/>
</g>
<!-- at_contacts_group_flutter&#45;&gt;at_contacts_flutter -->
<g id="edge50" class="edge">
<title>at_contacts_group_flutter&#45;&gt;at_contacts_flutter</title>
<path fill="none" stroke="#1267b5" d="M2589.87,-3239.86C2595.83,-3178.19 2616.23,-2967.2 2623.56,-2891.4"/>
<polygon fill="#1267b5" stroke="#1267b5" points="2627.07,-2891.52 2624.55,-2881.23 2620.1,-2890.85 2627.07,-2891.52"/>
</g>
<!-- at_contacts_group_flutter&#45;&gt;at_utils -->
<g id="edge51" class="edge">
<title>at_contacts_group_flutter&#45;&gt;at_utils</title>
<path fill="none" stroke="#75e849" d="M2512.96,-3239.96C2367.68,-3202.75 2049.98,-3099.46 1903.21,-2881 1764.24,-2674.14 1645.87,-772.78 1630.82,-522.21"/>
<polygon fill="#75e849" stroke="#75e849" points="1634.31,-521.91 1630.22,-512.14 1627.33,-522.33 1634.31,-521.91"/>
</g>
<!-- at_cram -->
<g id="node14" class="node">
<title>at_cram</title>
<polygon fill="none" stroke="#c89a29" points="2802.21,-3671 2728.21,-3671 2728.21,-3635 2802.21,-3635 2802.21,-3671"/>
<text text-anchor="middle" x="2765.21" y="-3649.3" font-family="Times,serif" font-size="14.00">at_cram</text>
</g>
<!-- at_daemon_cli -->
<g id="node15" class="node">
<title>at_daemon_cli</title>
<polygon fill="none" stroke="#8e17d5" points="545.71,-3671 428.71,-3671 428.71,-3635 545.71,-3635 545.71,-3671"/>
<text text-anchor="middle" x="487.21" y="-3649.3" font-family="Times,serif" font-size="14.00">at_daemon_cli</text>
</g>
<!-- at_daemon_cli&#45;&gt;at_client -->
<g id="edge52" class="edge">
<title>at_daemon_cli&#45;&gt;at_client</title>
<path fill="none" stroke="#61d4fc" d="M546.01,-3642.44C768.72,-3605.01 1555.86,-3461.34 1715.21,-3276 1957.15,-2994.61 1780.39,-2816.72 1837.21,-2450 1857.46,-2319.3 1883.3,-2163.34 1893.64,-2101.35"/>
<polygon fill="#61d4fc" stroke="#61d4fc" points="1897.13,-2101.67 1895.33,-2091.23 1890.23,-2100.51 1897.13,-2101.67"/>
</g>
<!-- at_daemon_cli&#45;&gt;at_commons -->
<g id="edge57" class="edge">
<title>at_daemon_cli&#45;&gt;at_commons</title>
<path fill="none" stroke="#7eceb0" d="M467.4,-3634.78C379.16,-3556.07 26.21,-3219.03 26.21,-2864 26.21,-2864 26.21,-2864 26.21,-888 26.21,-703.89 -54.33,-612.5 69.21,-476 313.13,-206.51 1536.6,-120.24 1828.57,-103.34"/>
<polygon fill="#7eceb0" stroke="#7eceb0" points="1828.78,-106.83 1838.56,-102.76 1828.38,-99.84 1828.78,-106.83"/>
</g>
<!-- at_daemon_core -->
<g id="node17" class="node">
<title>at_daemon_core</title>
<polygon fill="none" stroke="#c16272" points="284.71,-2881 153.71,-2881 153.71,-2845 284.71,-2845 284.71,-2881"/>
<text text-anchor="middle" x="219.21" y="-2859.3" font-family="Times,serif" font-size="14.00">at_daemon_core</text>
</g>
<!-- at_daemon_cli&#45;&gt;at_daemon_core -->
<g id="edge54" class="edge">
<title>at_daemon_cli&#45;&gt;at_daemon_core</title>
<path fill="none" stroke="#c16272" d="M467.64,-3634.91C417.98,-3584.53 289.06,-3430.48 238.21,-3276 192.56,-3137.31 201.82,-2958.53 212.05,-2891.23"/>
<polygon fill="#c16272" stroke="#c16272" points="215.56,-2891.49 213.76,-2881.05 208.65,-2890.33 215.56,-2891.49"/>
</g>
<!-- at_daemon_cli&#45;&gt;at_daemon_core -->
<g id="edge58" class="edge">
<title>at_daemon_cli&#45;&gt;at_daemon_core</title>
<path fill="none" stroke="#c16272" stroke-dasharray="1,5" d="M475.71,-3634.91C435.98,-3584.53 307.06,-3430.48 256.21,-3276 210.56,-3137.31 219.82,-2958.53 220.99,-2891.23"/>
<polygon fill="#c16272" stroke="#c16272" points="224.49,-2891.09 221.1,-2881.05 217.49,-2891.01 224.49,-2891.09"/>
</g>
<!-- at_daemon_server -->
<g id="node19" class="node">
<title>at_daemon_server</title>
<polygon fill="none" stroke="#4bd261" points="560.21,-3276 414.21,-3276 414.21,-3240 560.21,-3240 560.21,-3276"/>
<text text-anchor="middle" x="487.21" y="-3254.3" font-family="Times,serif" font-size="14.00">at_daemon_server</text>
</g>
<!-- at_daemon_cli&#45;&gt;at_daemon_server -->
<g id="edge55" class="edge">
<title>at_daemon_cli&#45;&gt;at_daemon_server</title>
<path fill="none" stroke="#4bd261" d="M484.24,-3634.86C479.44,-3573.19 479.21,-3362.2 483.56,-3286.4"/>
<polygon fill="#4bd261" stroke="#4bd261" points="487.06,-3286.44 484.23,-3276.23 480.08,-3285.98 487.06,-3286.44"/>
</g>
<!-- at_daemon_cli&#45;&gt;at_daemon_server -->
<g id="edge59" class="edge">
<title>at_daemon_cli&#45;&gt;at_daemon_server</title>
<path fill="none" stroke="#4bd261" stroke-dasharray="1,5" d="M490.18,-3634.86C494.98,-3573.19 495.21,-3362.2 490.87,-3286.4"/>
<polygon fill="#4bd261" stroke="#4bd261" points="494.34,-3285.98 490.19,-3276.23 487.36,-3286.44 494.34,-3285.98"/>
</g>
<!-- at_daemon_cli&#45;&gt;at_onboarding_cli -->
<g id="edge53" class="edge">
<title>at_daemon_cli&#45;&gt;at_onboarding_cli</title>
<path fill="none" stroke="#514d2d" d="M510.62,-3634.89C579.8,-3583.88 788.12,-3426.95 942.21,-3276 1080.99,-3140.05 1226.02,-2956.48 1277.6,-2889.67"/>
<polygon fill="#514d2d" stroke="#514d2d" points="1280.64,-2891.45 1283.97,-2881.39 1275.1,-2887.18 1280.64,-2891.45"/>
</g>
<!-- at_daemon_cli&#45;&gt;at_utils -->
<g id="edge56" class="edge">
<title>at_daemon_cli&#45;&gt;at_utils</title>
<path fill="none" stroke="#75e849" d="M491.5,-3634.86C504.63,-3581.83 544.95,-3415.55 569.21,-3276 661.88,-2743.09 606.75,-1293.72 944.21,-871 1120.38,-650.32 1462.92,-539.93 1584.82,-506.37"/>
<polygon fill="#75e849" stroke="#75e849" points="1585.84,-509.72 1594.57,-503.72 1584.01,-502.96 1585.84,-509.72"/>
</g>
<!-- at_daemon_client -->
<g id="node16" class="node">
<title>at_daemon_client</title>
<polygon fill="none" stroke="#dbe812" points="396.21,-3276 256.21,-3276 256.21,-3240 396.21,-3240 396.21,-3276"/>
<text text-anchor="middle" x="326.21" y="-3254.3" font-family="Times,serif" font-size="14.00">at_daemon_client</text>
</g>
<!-- at_daemon_client&#45;&gt;at_daemon_core -->
<g id="edge60" class="edge">
<title>at_daemon_client&#45;&gt;at_daemon_core</title>
<path fill="none" stroke="#c16272" d="M318.57,-3239.86C296.98,-3178.19 239.31,-2967.2 223.02,-2891.4"/>
<polygon fill="#c16272" stroke="#c16272" points="226.37,-2890.32 220.92,-2881.23 219.51,-2891.73 226.37,-2890.32"/>
</g>
<!-- at_daemon_client&#45;&gt;at_daemon_core -->
<g id="edge61" class="edge">
<title>at_daemon_client&#45;&gt;at_daemon_core</title>
<path fill="none" stroke="#c16272" stroke-dasharray="1,5" d="M324.52,-3239.86C312.5,-3178.06 255.07,-2966.34 230.17,-2890.93"/>
<polygon fill="#c16272" stroke="#c16272" points="233.41,-2889.58 226.88,-2881.23 226.78,-2891.82 233.41,-2889.58"/>
</g>
<!-- at_daemon_core&#45;&gt;at_commons -->
<g id="edge63" class="edge">
<title>at_daemon_core&#45;&gt;at_commons</title>
<path fill="none" stroke="#7eceb0" d="M214.77,-2844.95C193.4,-2761.39 102.21,-2386.57 102.21,-2074 102.21,-2074 102.21,-2074 102.21,-888 102.21,-704.58 6.71,-615.15 126.21,-476 355.43,-209.08 1541.01,-121.1 1828.41,-103.54"/>
<polygon fill="#7eceb0" stroke="#7eceb0" points="1828.88,-107.01 1838.65,-102.92 1828.45,-100.03 1828.88,-107.01"/>
</g>
<!-- at_daemon_core&#45;&gt;at_utils -->
<g id="edge62" class="edge">
<title>at_daemon_core&#45;&gt;at_utils</title>
<path fill="none" stroke="#75e849" d="M224.07,-2844.95C278.01,-2655.71 764.58,-953.62 836.21,-871 1047.3,-627.53 1450.83,-529.72 1584.77,-503.07"/>
<polygon fill="#75e849" stroke="#75e849" points="1585.54,-506.48 1594.69,-501.13 1584.2,-499.61 1585.54,-506.48"/>
</g>
<!-- at_daemon_desktop -->
<g id="node18" class="node">
<title>at_daemon_desktop</title>
<polygon fill="none" stroke="#89d485" points="3311.71,-3671 3154.71,-3671 3154.71,-3635 3311.71,-3635 3311.71,-3671"/>
<text text-anchor="middle" x="3233.21" y="-3649.3" font-family="Times,serif" font-size="14.00">at_daemon_desktop</text>
</g>
<!-- at_daemon_server&#45;&gt;at_client -->
<g id="edge64" class="edge">
<title>at_daemon_server&#45;&gt;at_client</title>
<path fill="none" stroke="#61d4fc" d="M560.38,-3241.66C723.11,-3204.48 1120.81,-3096.36 1377.21,-2881 1521.42,-2759.87 1816.73,-2224.29 1884.25,-2099.88"/>
<polygon fill="#61d4fc" stroke="#61d4fc" points="1887.37,-2101.47 1889.06,-2091.01 1881.21,-2098.13 1887.37,-2101.47"/>
</g>
<!-- at_daemon_server&#45;&gt;at_daemon_core -->
<g id="edge65" class="edge">
<title>at_daemon_server&#45;&gt;at_daemon_core</title>
<path fill="none" stroke="#c16272" d="M472.55,-3239.86C425.41,-3177.81 279.82,-2964.6 233.38,-2890.02"/>
<polygon fill="#c16272" stroke="#c16272" points="236.2,-2887.92 227.98,-2881.23 230.23,-2891.58 236.2,-2887.92"/>
</g>
<!-- at_daemon_server&#45;&gt;at_daemon_core -->
<g id="edge68" class="edge">
<title>at_daemon_server&#45;&gt;at_daemon_core</title>
<path fill="none" stroke="#c16272" stroke-dasharray="1,5" d="M478.5,-3239.86C440.93,-3177.68 295.23,-2963.74 240.19,-2889.56"/>
<polygon fill="#c16272" stroke="#c16272" points="242.74,-2887.13 233.94,-2881.23 237.14,-2891.33 242.74,-2887.13"/>
</g>
<!-- at_daemon_server&#45;&gt;at_onboarding_cli -->
<g id="edge67" class="edge">
<title>at_daemon_server&#45;&gt;at_onboarding_cli</title>
<path fill="none" stroke="#514d2d" d="M522.28,-3239.99C652.57,-3176.77 1108.73,-2955.45 1253.07,-2885.42"/>
<polygon fill="#514d2d" stroke="#514d2d" points="1254.65,-2888.54 1262.12,-2881.03 1251.59,-2882.24 1254.65,-2888.54"/>
</g>
<!-- at_server_spec -->
<g id="node39" class="node">
<title>at_server_spec</title>
<polygon fill="none" stroke="#e6f023" points="366.21,-1302 244.21,-1302 244.21,-1266 366.21,-1266 366.21,-1302"/>
<text text-anchor="middle" x="305.21" y="-1280.3" font-family="Times,serif" font-size="14.00">at_server_spec</text>
</g>
<!-- at_daemon_server&#45;&gt;at_server_spec -->
<g id="edge66" class="edge">
<title>at_daemon_server&#45;&gt;at_server_spec</title>
<path fill="none" stroke="#e6f023" d="M480.5,-3239.84C448.52,-3156.52 313.21,-2785.28 313.21,-2469 313.21,-2469 313.21,-2469 313.21,-2072 313.21,-1774.35 307.42,-1413.42 305.69,-1312.41"/>
<polygon fill="#e6f023" stroke="#e6f023" points="309.19,-1312.11 305.52,-1302.17 302.19,-1312.23 309.19,-1312.11"/>
</g>
<!-- at_dump_atKeys -->
<g id="node20" class="node">
<title>at_dump_atKeys</title>
<polygon fill="none" stroke="#80b159" points="3629.71,-3671 3496.71,-3671 3496.71,-3635 3629.71,-3635 3629.71,-3671"/>
<text text-anchor="middle" x="3563.21" y="-3649.3" font-family="Times,serif" font-size="14.00">at_dump_atKeys</text>
</g>
<!-- at_pkam -->
<g id="node34" class="node">
<title>at_pkam</title>
<polygon fill="none" stroke="#d549ec" points="3601.71,-3276 3524.71,-3276 3524.71,-3240 3601.71,-3240 3601.71,-3276"/>
<text text-anchor="middle" x="3563.21" y="-3254.3" font-family="Times,serif" font-size="14.00">at_pkam</text>
</g>
<!-- at_dump_atKeys&#45;&gt;at_pkam -->
<g id="edge69" class="edge">
<title>at_dump_atKeys&#45;&gt;at_pkam</title>
<path fill="none" stroke="#d549ec" stroke-dasharray="1,5" d="M3563.21,-3634.86C3563.21,-3573.19 3563.21,-3362.2 3563.21,-3286.4"/>
<polygon fill="#d549ec" stroke="#d549ec" points="3566.71,-3286.23 3563.21,-3276.23 3559.71,-3286.23 3566.71,-3286.23"/>
</g>
<!-- at_events_flutter -->
<g id="node21" class="node">
<title>at_events_flutter</title>
<polygon fill="none" stroke="#5b74f7" points="2479.71,-3671 2342.71,-3671 2342.71,-3635 2479.71,-3635 2479.71,-3671"/>
<text text-anchor="middle" x="2411.21" y="-3649.3" font-family="Times,serif" font-size="14.00">at_events_flutter</text>
</g>
<!-- at_events_flutter&#45;&gt;at_client -->
<g id="edge70" class="edge">
<title>at_events_flutter&#45;&gt;at_client</title>
<path fill="none" stroke="#61d4fc" d="M2394.18,-3634.96C2317.63,-3557.11 2004.19,-3224.24 1888.21,-2881 1789.88,-2589.97 1867.31,-2205.54 1891.57,-2101.14"/>
<polygon fill="#61d4fc" stroke="#61d4fc" points="1895.04,-2101.66 1893.94,-2091.12 1888.23,-2100.05 1895.04,-2101.66"/>
</g>
<!-- at_events_flutter&#45;&gt;at_client_mobile -->
<g id="edge71" class="edge">
<title>at_events_flutter&#45;&gt;at_client_mobile</title>
<path fill="none" stroke="#d9577c" d="M2402.81,-3634.95C2377.66,-3582.81 2303.15,-3420.31 2278.21,-3276 2245.59,-3087.24 2312.92,-3033.2 2277.21,-2845 2251.1,-2707.37 2176.15,-2555.45 2144.55,-2495.45"/>
<polygon fill="#d9577c" stroke="#d9577c" points="2147.47,-2493.49 2139.69,-2486.3 2141.29,-2496.77 2147.47,-2493.49"/>
</g>
<!-- at_events_flutter&#45;&gt;at_common_flutter -->
<g id="edge72" class="edge">
<title>at_events_flutter&#45;&gt;at_common_flutter</title>
<path fill="none" stroke="#bf681f" d="M2434.14,-3634.81C2532.49,-3559.41 2919.65,-3245.48 3051.21,-2881 3100.78,-2743.69 3068.77,-2563.47 3053.75,-2496.02"/>
<polygon fill="#bf681f" stroke="#bf681f" points="3057.15,-2495.15 3051.5,-2486.19 3050.32,-2496.72 3057.15,-2495.15"/>
</g>
<!-- at_events_flutter&#45;&gt;at_commons -->
<g id="edge73" class="edge">
<title>at_events_flutter&#45;&gt;at_commons</title>
<path fill="none" stroke="#7eceb0" d="M2342.47,-3648.61C2011.8,-3631.05 586.79,-3540.86 247.21,-3276 89.22,-3152.77 64.21,-3064.36 64.21,-2864 64.21,-2864 64.21,-2864 64.21,-888 64.21,-704.27 -23.38,-613.74 98.21,-476 334.72,-208.08 1537.64,-120.8 1828.05,-103.47"/>
<polygon fill="#7eceb0" stroke="#7eceb0" points="1828.62,-106.94 1838.39,-102.86 1828.21,-99.95 1828.62,-106.94"/>
</g>
<!-- at_events_flutter&#45;&gt;at_contact -->
<g id="edge74" class="edge">
<title>at_events_flutter&#45;&gt;at_contact</title>
<path fill="none" stroke="#250aa2" d="M2413.14,-3634.79C2418.99,-3581.55 2436.5,-3414.74 2442.21,-3276 2454.91,-2967.43 2367.97,-2597.66 2342.24,-2495.99"/>
<polygon fill="#250aa2" stroke="#250aa2" points="2345.61,-2495.04 2339.74,-2486.22 2338.83,-2496.77 2345.61,-2495.04"/>
</g>
<!-- at_events_flutter&#45;&gt;at_contacts_flutter -->
<g id="edge75" class="edge">
<title>at_events_flutter&#45;&gt;at_contacts_flutter</title>
<path fill="none" stroke="#1267b5" d="M2431.39,-3634.69C2486.97,-3585.49 2641.79,-3437.88 2696.21,-3276 2743.38,-3135.69 2670.9,-2957.34 2639.53,-2890.7"/>
<polygon fill="#1267b5" stroke="#1267b5" points="2642.52,-2888.85 2635.04,-2881.34 2636.21,-2891.87 2642.52,-2888.85"/>
</g>
<!-- at_events_flutter&#45;&gt;at_contacts_group_flutter -->
<g id="edge76" class="edge">
<title>at_events_flutter&#45;&gt;at_contacts_group_flutter</title>
<path fill="none" stroke="#dae1d2" d="M2418.93,-3634.86C2446.82,-3572.93 2542.51,-3360.47 2576.29,-3285.47"/>
<polygon fill="#dae1d2" stroke="#dae1d2" points="2579.54,-3286.78 2580.45,-3276.23 2573.15,-3283.91 2579.54,-3286.78"/>
</g>
<!-- at_location_flutter -->
<g id="node25" class="node">
<title>at_location_flutter</title>
<polygon fill="none" stroke="#283e9c" points="2433.21,-3276 2287.21,-3276 2287.21,-3240 2433.21,-3240 2433.21,-3276"/>
<text text-anchor="middle" x="2360.21" y="-3254.3" font-family="Times,serif" font-size="14.00">at_location_flutter</text>
</g>
<!-- at_events_flutter&#45;&gt;at_location_flutter -->
<g id="edge77" class="edge">
<title>at_events_flutter&#45;&gt;at_location_flutter</title>
<path fill="none" stroke="#283e9c" d="M2408.99,-3634.86C2400.98,-3573.19 2373.6,-3362.2 2363.77,-3286.4"/>
<polygon fill="#283e9c" stroke="#283e9c" points="2367.21,-3285.7 2362.45,-3276.23 2360.26,-3286.6 2367.21,-3285.7"/>
</g>
<!-- at_events_flutter&#45;&gt;at_lookup -->
<g id="edge78" class="edge">
<title>at_events_flutter&#45;&gt;at_lookup</title>
<path fill="none" stroke="#94d42d" d="M2479.84,-3635.77C2730.89,-3572.36 3577.67,-3321.04 3439.21,-2845 3323.6,-2447.51 2322.71,-1476.02 2148.89,-1309.49"/>
<polygon fill="#94d42d" stroke="#94d42d" points="2151.11,-1306.77 2141.47,-1302.38 2146.27,-1311.83 2151.11,-1306.77"/>
</g>
<!-- at_events_flutter&#45;&gt;at_utils -->
<g id="edge79" class="edge">
<title>at_events_flutter&#45;&gt;at_utils</title>
<path fill="none" stroke="#75e849" d="M2342.46,-3646.11C2067.43,-3621.04 1051.88,-3513.38 858.21,-3276 737.05,-3127.5 821.19,-3035.27 844.21,-2845 865.92,-2665.54 888.37,-2622.88 941.21,-2450 1045.45,-2108.98 1111.81,-2037.35 1218.21,-1697 1331.37,-1335.04 1295.76,-1224.83 1432.21,-871 1485.32,-733.29 1575.91,-580.91 1612.83,-521.11"/>
<polygon fill="#75e849" stroke="#75e849" points="1615.98,-522.66 1618.28,-512.32 1610.03,-518.97 1615.98,-522.66"/>
</g>
<!-- at_follows_flutter -->
<g id="node22" class="node">
<title>at_follows_flutter</title>
<polygon fill="none" stroke="#13b24b" points="2052.21,-2881 1912.21,-2881 1912.21,-2845 2052.21,-2845 2052.21,-2881"/>
<text text-anchor="middle" x="1982.21" y="-2859.3" font-family="Times,serif" font-size="14.00">at_follows_flutter</text>
</g>
<!-- at_follows_flutter&#45;&gt;at_client -->
<g id="edge80" class="edge">
<title>at_follows_flutter&#45;&gt;at_client</title>
<path fill="none" stroke="#61d4fc" d="M1980.38,-2844.81C1969.61,-2743.76 1914.55,-2227.27 1901.15,-2101.59"/>
<polygon fill="#61d4fc" stroke="#61d4fc" points="1904.6,-2100.87 1900.06,-2091.3 1897.64,-2101.62 1904.6,-2100.87"/>
</g>
<!-- at_follows_flutter&#45;&gt;at_client_mobile -->
<g id="edge81" class="edge">
<title>at_follows_flutter&#45;&gt;at_client_mobile</title>
<path fill="none" stroke="#d9577c" d="M1988.67,-2844.86C2011.94,-2783.06 2091.67,-2571.34 2120.07,-2495.93"/>
<polygon fill="#d9577c" stroke="#d9577c" points="2123.47,-2496.82 2123.72,-2486.23 2116.92,-2494.35 2123.47,-2496.82"/>
</g>
<!-- at_follows_flutter&#45;&gt;at_commons -->
<g id="edge82" class="edge">
<title>at_follows_flutter&#45;&gt;at_commons</title>
<path fill="none" stroke="#7eceb0" d="M2035.39,-2844.98C2156.27,-2803.6 2453.56,-2686.12 2613.21,-2486 2784.57,-2271.21 2907.21,-1559.77 2907.21,-1285 2907.21,-1285 2907.21,-1285 2907.21,-888 2907.21,-402.97 2175.27,-173.61 1953.89,-115.34"/>
<polygon fill="#7eceb0" stroke="#7eceb0" points="1954.61,-111.91 1944.05,-112.77 1952.84,-118.68 1954.61,-111.91"/>
</g>
<!-- at_follows_flutter&#45;&gt;at_lookup -->
<g id="edge83" class="edge">
<title>at_follows_flutter&#45;&gt;at_lookup</title>
<path fill="none" stroke="#94d42d" d="M1983.75,-2844.83C1997.76,-2688.15 2103.29,-1507.75 2120.77,-1312.36"/>
<polygon fill="#94d42d" stroke="#94d42d" points="2124.28,-1312.38 2121.68,-1302.11 2117.3,-1311.76 2124.28,-1312.38"/>
</g>
<!-- at_server_status -->
<g id="node40" class="node">
<title>at_server_status</title>
<polygon fill="none" stroke="#320113" points="1140.21,-2486 1006.21,-2486 1006.21,-2450 1140.21,-2450 1140.21,-2486"/>
<text text-anchor="middle" x="1073.21" y="-2464.3" font-family="Times,serif" font-size="14.00">at_server_status</text>
</g>
<!-- at_follows_flutter&#45;&gt;at_server_status -->
<g id="edge84" class="edge">
<title>at_follows_flutter&#45;&gt;at_server_status</title>
<path fill="none" stroke="#320113" d="M1942.86,-2844.99C1796.35,-2781.65 1282.68,-2559.56 1121.78,-2490"/>
<polygon fill="#320113" stroke="#320113" points="1123.16,-2486.78 1112.59,-2486.03 1120.38,-2493.21 1123.16,-2486.78"/>
</g>
<!-- at_follows_flutter&#45;&gt;at_utils -->
<g id="edge85" class="edge">
<title>at_follows_flutter&#45;&gt;at_utils</title>
<path fill="none" stroke="#75e849" d="M1979.28,-2844.91C1965.05,-2761.98 1901.78,-2393.2 1850.21,-2091 1820.34,-1915.91 1808.99,-1872.74 1783.21,-1697 1729.52,-1331.02 1729.22,-1237.77 1681.21,-871 1664.11,-740.32 1641.99,-584.35 1633.13,-522.35"/>
<polygon fill="#75e849" stroke="#75e849" points="1636.57,-521.63 1631.68,-512.23 1629.64,-522.62 1636.57,-521.63"/>
</g>
<!-- at_hive_recovery -->
<g id="node23" class="node">
<title>at_hive_recovery</title>
<polygon fill="none" stroke="#f0efbc" points="1004.71,-1697 867.71,-1697 867.71,-1661 1004.71,-1661 1004.71,-1697"/>
<text text-anchor="middle" x="936.21" y="-1675.3" font-family="Times,serif" font-size="14.00">at_hive_recovery</text>
</g>
<!-- at_hive_recovery&#45;&gt;at_persistence_secondary_server -->
<g id="edge86" class="edge">
<title>at_hive_recovery&#45;&gt;at_persistence_secondary_server</title>
<path fill="none" stroke="#9760d3" d="M937.52,-1660.86C942.23,-1599.19 958.33,-1388.2 964.12,-1312.4"/>
<polygon fill="#9760d3" stroke="#9760d3" points="967.62,-1312.47 964.9,-1302.23 960.64,-1311.93 967.62,-1312.47"/>
</g>
<!-- at_invitation_flutter -->
<g id="node24" class="node">
<title>at_invitation_flutter</title>
<polygon fill="none" stroke="#b653c9" points="3430.21,-2881 3272.21,-2881 3272.21,-2845 3430.21,-2845 3430.21,-2881"/>
<text text-anchor="middle" x="3351.21" y="-2859.3" font-family="Times,serif" font-size="14.00">at_invitation_flutter</text>
</g>
<!-- at_invitation_flutter&#45;&gt;at_client_mobile -->
<g id="edge87" class="edge">
<title>at_invitation_flutter&#45;&gt;at_client_mobile</title>
<path fill="none" stroke="#d9577c" d="M3298.35,-2844.99C3100.78,-2781.39 2406.08,-2557.79 2192.89,-2489.18"/>
<polygon fill="#d9577c" stroke="#d9577c" points="2193.7,-2485.76 2183.11,-2486.03 2191.56,-2492.42 2193.7,-2485.76"/>
</g>
<!-- at_invitation_flutter&#45;&gt;at_common_flutter -->
<g id="edge88" class="edge">
<title>at_invitation_flutter&#45;&gt;at_common_flutter</title>
<path fill="none" stroke="#bf681f" d="M3337.95,-2844.86C3289.85,-2782.68 3124.36,-2568.74 3066.98,-2494.56"/>
<polygon fill="#bf681f" stroke="#bf681f" points="3069.43,-2492 3060.54,-2486.23 3063.89,-2496.28 3069.43,-2492"/>
</g>
<!-- at_invitation_flutter&#45;&gt;at_commons -->
<g id="edge89" class="edge">
<title>at_invitation_flutter&#45;&gt;at_commons</title>
<path fill="none" stroke="#7eceb0" d="M3350.98,-2844.81C3349.89,-2760.6 3345.21,-2383.19 3345.21,-2074 3345.21,-2074 3345.21,-2074 3345.21,-888 3345.21,-245.22 2233.27,-124.04 1954.17,-103.75"/>
<polygon fill="#7eceb0" stroke="#7eceb0" points="1954.04,-100.23 1943.82,-103.01 1953.55,-107.21 1954.04,-100.23"/>
</g>
<!-- at_invitation_flutter&#45;&gt;at_lookup -->
<g id="edge90" class="edge">
<title>at_invitation_flutter&#45;&gt;at_lookup</title>
<path fill="none" stroke="#94d42d" d="M3345.55,-2844.98C3325.77,-2786.82 3255.94,-2591.81 3163.21,-2450 2917.41,-2074.08 2788.14,-2032.23 2489.21,-1697 2358.53,-1550.45 2202.16,-1374.1 2145.27,-1309.9"/>
<polygon fill="#94d42d" stroke="#94d42d" points="2147.78,-1307.45 2138.53,-1302.29 2142.54,-1312.1 2147.78,-1307.45"/>
</g>
<!-- at_invitation_flutter&#45;&gt;at_utils -->
<g id="edge91" class="edge">
<title>at_invitation_flutter&#45;&gt;at_utils</title>
<path fill="none" stroke="#75e849" d="M3346.38,-2844.7C3329.7,-2786.46 3270.99,-2593.18 3188.21,-2450 3075.96,-2255.85 3017.97,-2227.13 2874.21,-2055 2738.54,-1892.56 2647.84,-1889.65 2560.21,-1697 2406.22,-1358.47 2654.25,-1164.8 2426.21,-871 2227.36,-614.8 1811.36,-525.08 1674.17,-501.8"/>
<polygon fill="#75e849" stroke="#75e849" points="1674.46,-498.3 1664.02,-500.12 1673.31,-505.21 1674.46,-498.3"/>
</g>
<!-- at_location_flutter&#45;&gt;at_client -->
<g id="edge92" class="edge">
<title>at_location_flutter&#45;&gt;at_client</title>
<path fill="none" stroke="#61d4fc" d="M2321.77,-3239.86C2228.85,-3196.03 1993.07,-3069.79 1903.21,-2881 1835.63,-2739.01 1882.72,-2225.55 1895.35,-2101.24"/>
<polygon fill="#61d4fc" stroke="#61d4fc" points="1898.85,-2101.37 1896.39,-2091.07 1891.89,-2100.66 1898.85,-2101.37"/>
</g>
<!-- at_location_flutter&#45;&gt;at_client_mobile -->
<g id="edge93" class="edge">
<title>at_location_flutter&#45;&gt;at_client_mobile</title>
<path fill="none" stroke="#d9577c" d="M2360.11,-3239.73C2359.34,-3182.36 2353.46,-2993.38 2310.21,-2845 2269.65,-2705.84 2182.38,-2554.28 2146.31,-2494.9"/>
<polygon fill="#d9577c" stroke="#d9577c" points="2149.18,-2492.89 2140.98,-2486.18 2143.21,-2496.54 2149.18,-2492.89"/>
</g>
<!-- at_location_flutter&#45;&gt;at_common_flutter -->
<g id="edge94" class="edge">
<title>at_location_flutter&#45;&gt;at_common_flutter</title>
<path fill="none" stroke="#bf681f" d="M2423.92,-3239.97C2555.75,-3201.08 2857.73,-3092.36 2996.21,-2881 3077.38,-2757.11 3061.1,-2566.63 3051.52,-2496.3"/>
<polygon fill="#bf681f" stroke="#bf681f" points="3054.93,-2495.48 3050.05,-2486.08 3048,-2496.47 3054.93,-2495.48"/>
</g>
<!-- at_location_flutter&#45;&gt;at_commons -->
<g id="edge95" class="edge">
<title>at_location_flutter&#45;&gt;at_commons</title>
<path fill="none" stroke="#7eceb0" d="M2433.35,-3242.52C2655.25,-3196.97 3313.43,-3049.66 3439.21,-2881 3548.8,-2734.06 3458.21,-2652.31 3458.21,-2469 3458.21,-2469 3458.21,-2469 3458.21,-888 3458.21,-202.57 2246.74,-113.28 1954.22,-101.71"/>
<polygon fill="#7eceb0" stroke="#7eceb0" points="1953.92,-98.2 1943.8,-101.32 1953.66,-105.19 1953.92,-98.2"/>
</g>
<!-- at_location_flutter&#45;&gt;at_contact -->
<g id="edge96" class="edge">
<title>at_location_flutter&#45;&gt;at_contact</title>
<path fill="none" stroke="#250aa2" d="M2362.92,-3239.73C2371.43,-3183.11 2396.54,-2998.03 2386.21,-2845 2377.34,-2713.55 2351.2,-2558.01 2340.19,-2496.24"/>
<polygon fill="#250aa2" stroke="#250aa2" points="2343.59,-2495.38 2338.38,-2486.16 2336.7,-2496.62 2343.59,-2495.38"/>
</g>
<!-- at_location_flutter&#45;&gt;at_contacts_flutter -->
<g id="edge97" class="edge">
<title>at_location_flutter&#45;&gt;at_contacts_flutter</title>
<path fill="none" stroke="#1267b5" d="M2371.81,-3239.86C2413.9,-3177.68 2558.71,-2963.74 2608.91,-2889.56"/>
<polygon fill="#1267b5" stroke="#1267b5" points="2611.84,-2891.47 2614.55,-2881.23 2606.05,-2887.55 2611.84,-2891.47"/>
</g>
<!-- at_location_flutter&#45;&gt;at_lookup -->
<g id="edge98" class="edge">
<title>at_location_flutter&#45;&gt;at_lookup</title>
<path fill="none" stroke="#94d42d" d="M2359.27,-3239.7C2356.1,-3183 2345.15,-2997.67 2329.21,-2845 2312.5,-2684.89 2302.38,-2645.58 2281.21,-2486 2218.88,-2016.06 2143.82,-1442.55 2126.77,-1312.21"/>
<polygon fill="#94d42d" stroke="#94d42d" points="2130.24,-1311.74 2125.47,-1302.28 2123.3,-1312.65 2130.24,-1311.74"/>
</g>
<!-- at_location_flutter&#45;&gt;at_utils -->
<g id="edge99" class="edge">
<title>at_location_flutter&#45;&gt;at_utils</title>
<path fill="none" stroke="#75e849" d="M2287.09,-3249.63C2118.22,-3228.21 1702.29,-3149.29 1529.21,-2881 1394.88,-2672.77 1598.66,-772.59 1626.19,-522.19"/>
<polygon fill="#75e849" stroke="#75e849" points="1629.69,-522.45 1627.3,-512.13 1622.73,-521.68 1629.69,-522.45"/>
</g>
<!-- at_login_flutter -->
<g id="node26" class="node">
<title>at_login_flutter</title>
<polygon fill="none" stroke="#7ceee7" points="1043.71,-2881 918.71,-2881 918.71,-2845 1043.71,-2845 1043.71,-2881"/>
<text text-anchor="middle" x="981.21" y="-2859.3" font-family="Times,serif" font-size="14.00">at_login_flutter</text>
</g>
<!-- at_login_flutter&#45;&gt;at_client -->
<g id="edge100" class="edge">
<title>at_login_flutter&#45;&gt;at_client</title>
<path fill="none" stroke="#61d4fc" d="M975.92,-2844.69C958.48,-2783.95 908.8,-2577.28 997.21,-2450 1203.76,-2152.67 1692.86,-2089.74 1849.23,-2077.06"/>
<polygon fill="#61d4fc" stroke="#61d4fc" points="1849.78,-2080.53 1859.48,-2076.26 1849.24,-2073.55 1849.78,-2080.53"/>
</g>
<!-- at_login_flutter&#45;&gt;at_client_mobile -->
<g id="edge101" class="edge">
<title>at_login_flutter&#45;&gt;at_client_mobile</title>
<path fill="none" stroke="#d9577c" d="M1030.95,-2844.99C1216.79,-2781.42 1869.97,-2558.01 2070.93,-2489.28"/>
<polygon fill="#d9577c" stroke="#d9577c" points="2072.1,-2492.57 2080.43,-2486.03 2069.84,-2485.95 2072.1,-2492.57"/>
</g>
<!-- at_login_flutter&#45;&gt;at_commons -->
<g id="edge102" class="edge">
<title>at_login_flutter&#45;&gt;at_commons</title>
<path fill="none" stroke="#7eceb0" d="M976.43,-2844.64C941.97,-2717.36 735.43,-1914.94 820.21,-1266 843.74,-1085.88 869.37,-1043.86 925.21,-871 982.99,-692.16 947.85,-613.28 1076.21,-476 1292.22,-244.99 1677.99,-143.94 1828.57,-111.98"/>
<polygon fill="#7eceb0" stroke="#7eceb0" points="1829.5,-115.36 1838.58,-109.89 1828.07,-108.51 1829.5,-115.36"/>
</g>
<!-- at_login_flutter&#45;&gt;at_server_status -->
<g id="edge103" class="edge">
<title>at_login_flutter&#45;&gt;at_server_status</title>
<path fill="none" stroke="#320113" d="M985.22,-2844.86C999.66,-2783.19 1049.05,-2572.2 1066.8,-2496.4"/>
<polygon fill="#320113" stroke="#320113" points="1070.31,-2496.76 1069.18,-2486.23 1063.49,-2495.17 1070.31,-2496.76"/>
</g>
<!-- at_login_flutter&#45;&gt;at_utils -->
<g id="edge104" class="edge">
<title>at_login_flutter&#45;&gt;at_utils</title>
<path fill="none" stroke="#75e849" d="M978.32,-2844.84C969.28,-2787.82 944.09,-2599.82 977.21,-2450 1056.87,-2089.65 1215.97,-2048.89 1327.21,-1697 1439.63,-1341.39 1371.06,-1229.12 1475.21,-871 1514.68,-735.3 1586.69,-581.71 1616.14,-521.34"/>
<polygon fill="#75e849" stroke="#75e849" points="1619.39,-522.67 1620.65,-512.15 1613.1,-519.59 1619.39,-522.67"/>
</g>
<!-- at_lookup&#45;&gt;at_chops -->
<g id="edge107" class="edge">
<title>at_lookup&#45;&gt;at_chops</title>
<path fill="none" stroke="#8fb4d4" d="M2114.75,-1265.86C2084.18,-1203.93 1979.3,-991.47 1942.28,-916.47"/>
<polygon fill="#8fb4d4" stroke="#8fb4d4" points="1945.28,-914.65 1937.72,-907.23 1939,-917.75 1945.28,-914.65"/>
</g>
<!-- at_lookup&#45;&gt;at_commons -->
<g id="edge106" class="edge">
<title>at_lookup&#45;&gt;at_commons</title>
<path fill="none" stroke="#7eceb0" d="M2122.44,-1265.61C2119.72,-1208.63 2109.29,-1022.56 2083.21,-871 2032.31,-575.22 1929.25,-225.3 1899.45,-126.91"/>
<polygon fill="#7eceb0" stroke="#7eceb0" points="1902.75,-125.72 1896.49,-117.17 1896.05,-127.76 1902.75,-125.72"/>
</g>
<!-- at_lookup&#45;&gt;at_utils -->
<g id="edge105" class="edge">
<title>at_lookup&#45;&gt;at_utils</title>
<path fill="none" stroke="#75e849" d="M2124.65,-1266C2128.84,-1207.11 2136.39,-1007.96 2061.21,-871 1966.14,-697.79 1758.36,-566.93 1670.14,-517.04"/>
<polygon fill="#75e849" stroke="#75e849" points="1671.67,-513.88 1661.23,-512.04 1668.25,-519.99 1671.67,-513.88"/>
</g>
<!-- at_notify_flutter -->
<g id="node28" class="node">
<title>at_notify_flutter</title>
<polygon fill="none" stroke="#19e4c3" points="2987.71,-2881 2856.71,-2881 2856.71,-2845 2987.71,-2845 2987.71,-2881"/>
<text text-anchor="middle" x="2922.21" y="-2859.3" font-family="Times,serif" font-size="14.00">at_notify_flutter</text>
</g>
<!-- at_notify_flutter&#45;&gt;at_client -->
<g id="edge108" class="edge">
<title>at_notify_flutter&#45;&gt;at_client</title>
<path fill="none" stroke="#61d4fc" d="M2902.02,-2844.65C2834.79,-2787.06 2611.89,-2597.46 2420.21,-2450 2239.38,-2310.89 2014.78,-2154.38 1931.39,-2096.81"/>
<polygon fill="#61d4fc" stroke="#61d4fc" points="1933.29,-2093.87 1923.07,-2091.08 1929.32,-2099.64 1933.29,-2093.87"/>
</g>
<!-- at_notify_flutter&#45;&gt;at_client_mobile -->
<g id="edge109" class="edge">
<title>at_notify_flutter&#45;&gt;at_client_mobile</title>
<path fill="none" stroke="#d9577c" d="M2887.93,-2844.99C2760.66,-2781.83 2315.39,-2560.89 2173.8,-2490.63"/>
<polygon fill="#d9577c" stroke="#d9577c" points="2175.04,-2487.34 2164.52,-2486.03 2171.93,-2493.61 2175.04,-2487.34"/>
</g>
<!-- at_notify_flutter&#45;&gt;at_common_flutter -->
<g id="edge110" class="edge">
<title>at_notify_flutter&#45;&gt;at_common_flutter</title>
<path fill="none" stroke="#bf681f" d="M2927.66,-2844.86C2947.32,-2783.06 3014.66,-2571.34 3038.64,-2495.93"/>
<polygon fill="#bf681f" stroke="#bf681f" points="3042.04,-2496.82 3041.73,-2486.23 3035.36,-2494.7 3042.04,-2496.82"/>
</g>
<!-- at_notify_flutter&#45;&gt;at_commons -->
<g id="edge111" class="edge">
<title>at_notify_flutter&#45;&gt;at_commons</title>
<path fill="none" stroke="#7eceb0" d="M2923.85,-2844.59C2936.72,-2707.34 3021.21,-1801.75 3021.21,-1680 3021.21,-1680 3021.21,-1680 3021.21,-888 3021.21,-363.09 2190.67,-159.03 1953.66,-111.49"/>
<polygon fill="#7eceb0" stroke="#7eceb0" points="1954.31,-108.05 1943.82,-109.54 1952.95,-114.92 1954.31,-108.05"/>
</g>
<!-- at_onboarding_cli&#45;&gt;at_auth -->
<g id="edge112" class="edge">
<title>at_onboarding_cli&#45;&gt;at_auth</title>
<path fill="none" stroke="#0f9477" d="M1302.76,-2844.79C1321.37,-2787.62 1384.29,-2599.19 1452.21,-2450 1589.59,-2148.22 1796.1,-1802.06 1854.39,-1705.92"/>
<polygon fill="#0f9477" stroke="#0f9477" points="1857.51,-1707.53 1859.71,-1697.16 1851.53,-1703.89 1857.51,-1707.53"/>
</g>
<!-- at_onboarding_cli&#45;&gt;at_chops -->
<g id="edge113" class="edge">
<title>at_onboarding_cli&#45;&gt;at_chops</title>
<path fill="none" stroke="#8fb4d4" d="M1302.67,-2844.95C1359.95,-2666.25 1849.62,-1138.33 1920.64,-916.75"/>
<polygon fill="#8fb4d4" stroke="#8fb4d4" points="1923.98,-917.79 1923.7,-907.2 1917.32,-915.65 1923.98,-917.79"/>
</g>
<!-- at_onboarding_cli&#45;&gt;at_cli_commons -->
<g id="edge119" class="edge">
<title>at_onboarding_cli&#45;&gt;at_cli_commons</title>
<path fill="none" stroke="#c99192" d="M1294.28,-2844.86C1289.64,-2783.19 1289.95,-2572.2 1294.49,-2496.4"/>
<polygon fill="#c99192" stroke="#c99192" points="1297.99,-2496.45 1295.19,-2486.23 1291.01,-2495.97 1297.99,-2496.45"/>
</g>
<!-- at_onboarding_cli&#45;&gt;at_client -->
<g id="edge114" class="edge">
<title>at_onboarding_cli&#45;&gt;at_client</title>
<path fill="none" stroke="#61d4fc" d="M1307.14,-2844.92C1340.83,-2787.4 1454.93,-2596.11 1566.21,-2450 1672.76,-2310.1 1817.79,-2156.96 1874.3,-2098.51"/>
<polygon fill="#61d4fc" stroke="#61d4fc" points="1876.92,-2100.84 1881.36,-2091.22 1871.89,-2095.96 1876.92,-2100.84"/>
</g>
<!-- at_onboarding_cli&#45;&gt;at_commons -->
<g id="edge115" class="edge">
<title>at_onboarding_cli&#45;&gt;at_commons</title>
<path fill="none" stroke="#7eceb0" d="M1274.66,-2844.84C1095.22,-2706.1 -86.48,-1750.52 218.21,-871 452.19,-195.6 1552.81,-111.85 1828.48,-101.47"/>
<polygon fill="#7eceb0" stroke="#7eceb0" points="1828.84,-104.96 1838.7,-101.1 1828.59,-97.96 1828.84,-104.96"/>
</g>
<!-- at_onboarding_cli&#45;&gt;at_lookup -->
<g id="edge116" class="edge">
<title>at_onboarding_cli&#45;&gt;at_lookup</title>
<path fill="none" stroke="#94d42d" d="M1306.38,-2844.96C1362.98,-2739.72 1670.36,-2167.39 1914.21,-1697 1989.35,-1552.06 2077.13,-1377.14 2109.95,-1311.54"/>
<polygon fill="#94d42d" stroke="#94d42d" points="2113.22,-1312.83 2114.56,-1302.33 2106.96,-1309.7 2113.22,-1312.83"/>
</g>
<!-- at_onboarding_cli&#45;&gt;at_persistence_secondary_server -->
<g id="edge120" class="edge">
<title>at_onboarding_cli&#45;&gt;at_persistence_secondary_server</title>
<path fill="none" stroke="#9760d3" d="M1291.16,-2844.68C1271.27,-2787.91 1206.02,-2602.4 1149.21,-2450 1023.89,-2113.81 923.99,-2049.71 858.21,-1697 830.62,-1549.04 915.18,-1375.9 950.99,-1311.16"/>
<polygon fill="#9760d3" stroke="#9760d3" points="954.26,-1312.5 956.1,-1302.07 948.15,-1309.07 954.26,-1312.5"/>
</g>
<!-- at_onboarding_cli&#45;&gt;at_server_status -->
<g id="edge117" class="edge">
<title>at_onboarding_cli&#45;&gt;at_server_status</title>
<path fill="none" stroke="#320113" d="M1287.44,-2844.86C1252.07,-2782.81 1130.55,-2569.6 1088.04,-2495.02"/>
<polygon fill="#320113" stroke="#320113" points="1091.02,-2493.18 1083.03,-2486.23 1084.94,-2496.65 1091.02,-2493.18"/>
</g>
<!-- at_onboarding_cli&#45;&gt;at_utils -->
<g id="edge118" class="edge">
<title>at_onboarding_cli&#45;&gt;at_utils</title>
<path fill="none" stroke="#75e849" d="M1290.73,-2844.85C1270.23,-2788.61 1209.07,-2604.55 1225.21,-2450 1260.74,-2109.8 1314.72,-2031.91 1384.21,-1697 1481.74,-1226.95 1597.47,-652.75 1623.73,-522.25"/>
<polygon fill="#75e849" stroke="#75e849" points="1627.19,-522.8 1625.73,-512.3 1620.33,-521.42 1627.19,-522.8"/>
</g>
<!-- at_onboarding_flutter -->
<g id="node30" class="node">
<title>at_onboarding_flutter</title>
<polygon fill="none" stroke="#a801a6" points="1706.21,-3276 1536.21,-3276 1536.21,-3240 1706.21,-3240 1706.21,-3276"/>
<text text-anchor="middle" x="1621.21" y="-3254.3" font-family="Times,serif" font-size="14.00">at_onboarding_flutter</text>
</g>
<!-- at_onboarding_flutter&#45;&gt;at_auth -->
<g id="edge128" class="edge">
<title>at_onboarding_flutter&#45;&gt;at_auth</title>
<path fill="none" stroke="#0f9477" d="M1612.8,-3239.91C1586.2,-3183.84 1506.96,-3000.25 1529.21,-2845 1596.47,-2375.78 1808.78,-1831.74 1859.33,-1706.59"/>
<polygon fill="#0f9477" stroke="#0f9477" points="1862.69,-1707.62 1863.2,-1697.03 1856.2,-1704.99 1862.69,-1707.62"/>
</g>
<!-- at_onboarding_flutter&#45;&gt;at_backupkey_flutter -->
<g id="edge121" class="edge">
<title>at_onboarding_flutter&#45;&gt;at_backupkey_flutter</title>
<path fill="none" stroke="#590b92" d="M1621.21,-3239.86C1621.21,-3178.19 1621.21,-2967.2 1621.21,-2891.4"/>
<polygon fill="#590b92" stroke="#590b92" points="1624.71,-2891.23 1621.21,-2881.23 1617.71,-2891.23 1624.71,-2891.23"/>
</g>
<!-- at_onboarding_flutter&#45;&gt;at_client -->
<g id="edge122" class="edge">
<title>at_onboarding_flutter&#45;&gt;at_client</title>
<path fill="none" stroke="#61d4fc" d="M1625.69,-3239.83C1639.47,-3186.7 1682.15,-3020.17 1712.21,-2881 1753.38,-2690.4 1749.96,-2639.9 1794.21,-2450 1825.01,-2317.81 1871.32,-2162.16 1889.99,-2100.79"/>
<polygon fill="#61d4fc" stroke="#61d4fc" points="1893.37,-2101.7 1892.94,-2091.11 1886.67,-2099.66 1893.37,-2101.7"/>
</g>
<!-- at_onboarding_flutter&#45;&gt;at_client_mobile -->
<g id="edge123" class="edge">
<title>at_onboarding_flutter&#45;&gt;at_client_mobile</title>
<path fill="none" stroke="#d9577c" d="M1649.61,-3239.86C1728.57,-3194.2 1950.54,-3060.73 2052.21,-2881 2125.42,-2751.58 2125.62,-2565.19 2127.42,-2496.1"/>
<polygon fill="#d9577c" stroke="#d9577c" points="2130.93,-2496.15 2127.74,-2486.05 2123.93,-2495.93 2130.93,-2496.15"/>
</g>
<!-- at_onboarding_flutter&#45;&gt;at_client_mobile -->
<g id="edge129" class="edge">
<title>at_onboarding_flutter&#45;&gt;at_client_mobile</title>
<path fill="none" stroke="#d9577c" stroke-dasharray="1,5" d="M1658.3,-3239.86C1746.57,-3194.2 1968.54,-3060.73 2070.21,-2881 2143.42,-2751.58 2143.62,-2565.19 2136.18,-2496.1"/>
<polygon fill="#d9577c" stroke="#d9577c" points="2139.63,-2495.54 2134.93,-2486.05 2132.69,-2496.4 2139.63,-2495.54"/>
</g>
<!-- at_onboarding_flutter&#45;&gt;at_commons -->
<g id="edge124" class="edge">
<title>at_onboarding_flutter&#45;&gt;at_commons</title>
<path fill="none" stroke="#7eceb0" d="M1535.93,-3243.03C1372.2,-3211.29 1015.32,-3117.3 849.21,-2881 434.11,-2290.51 559.9,-1978.03 678.21,-1266 741.61,-884.46 755.11,-734.05 1043.21,-476 1286.69,-257.92 1677.12,-149.3 1828.45,-113.65"/>
<polygon fill="#7eceb0" stroke="#7eceb0" points="1829.55,-116.99 1838.5,-111.31 1827.96,-110.17 1829.55,-116.99"/>
</g>
<!-- at_onboarding_flutter&#45;&gt;at_server_status -->
<g id="edge125" class="edge">
<title>at_onboarding_flutter&#45;&gt;at_server_status</title>
<path fill="none" stroke="#320113" d="M1573.35,-3239.97C1464.54,-3198.36 1199.67,-3080.14 1091.21,-2881 1021,-2752.09 1051.71,-2565.39 1066.72,-2496.16"/>
<polygon fill="#320113" stroke="#320113" points="1070.2,-2496.61 1068.97,-2486.09 1063.37,-2495.08 1070.2,-2496.61"/>
</g>
<!-- at_sync_ui_flutter -->
<g id="node41" class="node">
<title>at_sync_ui_flutter</title>
<polygon fill="none" stroke="#27d02d" points="2268.21,-2881 2126.21,-2881 2126.21,-2845 2268.21,-2845 2268.21,-2881"/>
<text text-anchor="middle" x="2197.21" y="-2859.3" font-family="Times,serif" font-size="14.00">at_sync_ui_flutter</text>
</g>
<!-- at_onboarding_flutter&#45;&gt;at_sync_ui_flutter -->
<g id="edge126" class="edge">
<title>at_onboarding_flutter&#45;&gt;at_sync_ui_flutter</title>
<path fill="none" stroke="#27d02d" d="M1646.33,-3239.86C1738.68,-3176.85 2059.45,-2958 2163.99,-2886.67"/>
<polygon fill="#27d02d" stroke="#27d02d" points="2166,-2889.54 2172.28,-2881.01 2162.05,-2883.75 2166,-2889.54"/>
</g>
<!-- at_onboarding_flutter&#45;&gt;at_utils -->
<g id="edge127" class="edge">
<title>at_onboarding_flutter&#45;&gt;at_utils</title>
<path fill="none" stroke="#75e849" d="M1535.94,-3241.35C1378.99,-3207.43 1047.77,-3110.86 909.21,-2881 871.38,-2818.24 627.34,-3711.6 967.21,-2450 1016.4,-2267.43 1050.7,-2228.78 1125.21,-2055 1194.18,-1894.15 1234.49,-1863.24 1289.21,-1697 1406.49,-1340.73 1347,-1227.94 1462.21,-871 1506.17,-734.82 1583.61,-581.5 1615.2,-521.28"/>
<polygon fill="#75e849" stroke="#75e849" points="1618.47,-522.58 1620.03,-512.1 1612.27,-519.32 1618.47,-522.58"/>
</g>
<!-- at_persistence_root_server -->
<g id="node31" class="node">
<title>at_persistence_root_server</title>
<polygon fill="none" stroke="#831d2e" points="593.71,-1302 384.71,-1302 384.71,-1266 593.71,-1266 593.71,-1302"/>
<text text-anchor="middle" x="489.21" y="-1280.3" font-family="Times,serif" font-size="14.00">at_persistence_root_server</text>
</g>
<!-- at_persistence_root_server&#45;&gt;at_commons -->
<g id="edge130" class="edge">
<title>at_persistence_root_server&#45;&gt;at_commons</title>
<path fill="none" stroke="#7eceb0" d="M486.13,-1265.69C470.15,-1169.64 406.19,-698.39 646.21,-476 999.68,-148.51 1629.05,-105.73 1828.66,-100.57"/>
<polygon fill="#7eceb0" stroke="#7eceb0" points="1828.77,-104.06 1838.68,-100.33 1828.6,-97.07 1828.77,-104.06"/>
</g>
<!-- at_persistence_root_server&#45;&gt;at_persistence_spec -->
<g id="edge132" class="edge">
<title>at_persistence_root_server&#45;&gt;at_persistence_spec</title>
<path fill="none" stroke="#3bfcef" d="M513.72,-1265.86C603.74,-1202.91 916.17,-984.44 1018.49,-912.88"/>
<polygon fill="#3bfcef" stroke="#3bfcef" points="1020.7,-915.61 1026.89,-907.01 1016.69,-909.87 1020.7,-915.61"/>
</g>
<!-- at_persistence_root_server&#45;&gt;at_utils -->
<g id="edge131" class="edge">
<title>at_persistence_root_server&#45;&gt;at_utils</title>
<path fill="none" stroke="#75e849" d="M488.99,-1265.89C489.13,-1204.05 497.88,-989.53 608.21,-871 887.19,-571.28 1425.77,-509.55 1584.28,-497.67"/>
<polygon fill="#75e849" stroke="#75e849" points="1584.88,-501.13 1594.6,-496.93 1584.37,-494.15 1584.88,-501.13"/>
</g>
<!-- redis -->
<g id="node47" class="node">
<title>redis</title>
<polygon fill="none" stroke="#5cceca" points="556.21,-907 502.21,-907 502.21,-871 556.21,-871 556.21,-907"/>
<text text-anchor="middle" x="529.21" y="-885.3" font-family="Times,serif" font-size="14.00">redis</text>
</g>
<!-- at_persistence_root_server&#45;&gt;redis -->
<g id="edge133" class="edge">
<title>at_persistence_root_server&#45;&gt;redis</title>
<path fill="none" stroke="#5cceca" d="M490.96,-1265.86C497.23,-1204.19 518.71,-993.2 526.42,-917.4"/>
<polygon fill="#5cceca" stroke="#5cceca" points="529.93,-917.53 527.46,-907.23 522.96,-916.82 529.93,-917.53"/>
</g>
<!-- at_persistence_secondary_server&#45;&gt;at_commons -->
<g id="edge134" class="edge">
<title>at_persistence_secondary_server&#45;&gt;at_commons</title>
<path fill="none" stroke="#7eceb0" d="M964.84,-1265.78C960.69,-1212.49 948.26,-1045.57 944.21,-907 938.04,-695.92 994.71,-625.15 1144.21,-476 1349.73,-270.97 1689.92,-156.84 1829.02,-116.69"/>
<polygon fill="#7eceb0" stroke="#7eceb0" points="1830.03,-120.04 1838.69,-113.93 1828.11,-113.31 1830.03,-120.04"/>
</g>
<!-- at_persistence_secondary_server&#45;&gt;at_persistence_spec -->
<g id="edge136" class="edge">
<title>at_persistence_secondary_server&#45;&gt;at_persistence_spec</title>
<path fill="none" stroke="#3bfcef" d="M969.92,-1265.86C983.26,-1204.19 1028.89,-993.2 1045.29,-917.4"/>
<polygon fill="#3bfcef" stroke="#3bfcef" points="1048.79,-917.74 1047.48,-907.23 1041.95,-916.26 1048.79,-917.74"/>
</g>
<!-- at_persistence_secondary_server&#45;&gt;at_utils -->
<g id="edge135" class="edge">
<title>at_persistence_secondary_server&#45;&gt;at_utils</title>
<path fill="none" stroke="#75e849" d="M960.24,-1265.74C940.7,-1206 884.27,-1004.41 962.21,-871 1102.44,-630.98 1458.65,-532.19 1584.41,-504.06"/>
<polygon fill="#75e849" stroke="#75e849" points="1585.44,-507.42 1594.46,-501.85 1583.94,-500.58 1585.44,-507.42"/>
</g>
<!-- at_repl -->
<g id="node35" class="node">
<title>at_repl</title>
<polygon fill="none" stroke="#1494d0" points="933.21,-3276 867.21,-3276 867.21,-3240 933.21,-3240 933.21,-3276"/>
<text text-anchor="middle" x="900.21" y="-3254.3" font-family="Times,serif" font-size="14.00">at_repl</text>
</g>
<!-- at_repl&#45;&gt;at_client -->
<g id="edge137" class="edge">
<title>at_repl&#45;&gt;at_client</title>
<path fill="none" stroke="#61d4fc" d="M933.4,-3241.17C1025.2,-3196.07 1286.36,-3058.59 1448.21,-2881 1686.87,-2619.12 1848.69,-2208.4 1888.6,-2100.62"/>
<polygon fill="#61d4fc" stroke="#61d4fc" points="1891.92,-2101.74 1892.08,-2091.15 1885.35,-2099.33 1891.92,-2101.74"/>
</g>
<!-- at_repl&#45;&gt;at_commons -->
<g id="edge138" class="edge">
<title>at_repl&#45;&gt;at_commons</title>
<path fill="none" stroke="#7eceb0" d="M886.8,-3239.65C764.59,-3079.3 -143.91,-1839.81 208.21,-871 280.94,-670.91 305.3,-598.81 479.21,-476 924.73,-161.39 1617.83,-110.02 1828.43,-101.63"/>
<polygon fill="#7eceb0" stroke="#7eceb0" points="1828.82,-105.12 1838.68,-101.25 1828.55,-98.13 1828.82,-105.12"/>
</g>
<!-- at_repl&#45;&gt;at_onboarding_cli -->
<g id="edge139" class="edge">
<title>at_repl&#45;&gt;at_onboarding_cli</title>
<path fill="none" stroke="#514d2d" d="M917.53,-3239.86C980.59,-3177.43 1198.22,-2961.99 1272.3,-2888.67"/>
<polygon fill="#514d2d" stroke="#514d2d" points="1275.16,-2890.75 1279.81,-2881.23 1270.24,-2885.78 1275.16,-2890.75"/>
</g>
<!-- at_repl&#45;&gt;at_utils -->
<g id="edge140" class="edge">
<title>at_repl&#45;&gt;at_utils</title>
<path fill="none" stroke="#75e849" d="M897.04,-3239.84C887.42,-3186.76 858.62,-3020.34 849.21,-2881 835.91,-2683.97 896.05,-2637.77 957.21,-2450 1015.37,-2271.45 1038.84,-2229.9 1107.21,-2055 1169.66,-1895.27 1199.17,-1860.42 1251.21,-1697 1365.72,-1337.38 1321.86,-1226.63 1448.21,-871 1496.91,-733.95 1580.54,-580.61 1614.37,-520.82"/>
<polygon fill="#75e849" stroke="#75e849" points="1617.46,-522.47 1619.36,-512.05 1611.37,-519.01 1617.46,-522.47"/>
</g>
<!-- at_root_server -->
<g id="node36" class="node">
<title>at_root_server</title>
<polygon fill="none" stroke="#9dd431" points="541.71,-1697 422.71,-1697 422.71,-1661 541.71,-1661 541.71,-1697"/>
<text text-anchor="middle" x="482.21" y="-1675.3" font-family="Times,serif" font-size="14.00">at_root_server</text>
</g>
<!-- at_root_server&#45;&gt;at_commons -->
<g id="edge141" class="edge">
<title>at_root_server&#45;&gt;at_commons</title>
<path fill="none" stroke="#7eceb0" d="M465.36,-1660.81C417.66,-1610.76 282.1,-1458.76 235.21,-1302 121.6,-922.14 265.38,-727.12 572.21,-476 966.6,-153.22 1623.48,-107.34 1828.28,-100.98"/>
<polygon fill="#7eceb0" stroke="#7eceb0" points="1828.65,-104.47 1838.55,-100.68 1828.45,-97.47 1828.65,-104.47"/>
</g>
<!-- at_root_server&#45;&gt;at_persistence_root_server -->
<g id="edge144" class="edge">
<title>at_root_server&#45;&gt;at_persistence_root_server</title>
<path fill="none" stroke="#831d2e" d="M482.52,-1660.86C483.62,-1599.19 487.37,-1388.2 488.72,-1312.4"/>
<polygon fill="#831d2e" stroke="#831d2e" points="492.23,-1312.29 488.9,-1302.23 485.23,-1312.17 492.23,-1312.29"/>
</g>
<!-- at_root_server&#45;&gt;at_server_spec -->
<g id="edge143" class="edge">
<title>at_root_server&#45;&gt;at_server_spec</title>
<path fill="none" stroke="#e6f023" d="M474.49,-1660.86C446.6,-1598.93 350.91,-1386.47 317.13,-1311.47"/>
<polygon fill="#e6f023" stroke="#e6f023" points="320.27,-1309.91 312.97,-1302.23 313.89,-1312.78 320.27,-1309.91"/>
</g>
<!-- at_root_server&#45;&gt;at_utils -->
<g id="edge142" class="edge">
<title>at_root_server&#45;&gt;at_utils</title>
<path fill="none" stroke="#75e849" d="M488.46,-1660.97C507.64,-1608.26 566.49,-1442.8 602.21,-1302 650.16,-1113 560.08,-1021.38 684.21,-871 926.53,-577.44 1430.86,-511.66 1584.09,-498.21"/>
<polygon fill="#75e849" stroke="#75e849" points="1584.84,-501.66 1594.51,-497.33 1584.25,-494.68 1584.84,-501.66"/>
</g>
<!-- at_secondary -->
<g id="node37" class="node">
<title>at_secondary</title>
<polygon fill="none" stroke="#1b8948" points="1209.21,-1697 1099.21,-1697 1099.21,-1661 1209.21,-1661 1209.21,-1697"/>
<text text-anchor="middle" x="1154.21" y="-1675.3" font-family="Times,serif" font-size="14.00">at_secondary</text>
</g>
<!-- at_secondary&#45;&gt;at_chops -->
<g id="edge147" class="edge">
<title>at_secondary&#45;&gt;at_chops</title>
<path fill="none" stroke="#8fb4d4" d="M1171.12,-1660.81C1271.3,-1558.95 1786.68,-1034.92 1904.98,-914.63"/>
<polygon fill="#8fb4d4" stroke="#8fb4d4" points="1907.68,-916.89 1912.19,-907.3 1902.69,-911.98 1907.68,-916.89"/>
</g>
<!-- at_secondary&#45;&gt;at_commons -->
<g id="edge145" class="edge">
<title>at_secondary&#45;&gt;at_commons</title>
<path fill="none" stroke="#7eceb0" d="M1151.29,-1660.84C1137.08,-1572.73 1080.9,-1164.01 1207.21,-871 1361,-514.27 1745.85,-208.11 1859.27,-123.29"/>
<polygon fill="#7eceb0" stroke="#7eceb0" points="1861.64,-125.89 1867.58,-117.12 1857.47,-120.28 1861.64,-125.89"/>
</g>
<!-- at_secondary&#45;&gt;at_lookup -->
<g id="edge148" class="edge">
<title>at_secondary&#45;&gt;at_lookup</title>
<path fill="none" stroke="#94d42d" d="M1196.16,-1660.99C1352.49,-1597.58 1901,-1375.12 2071.95,-1305.79"/>
<polygon fill="#94d42d" stroke="#94d42d" points="2073.28,-1309.03 2081.23,-1302.03 2070.65,-1302.54 2073.28,-1309.03"/>
</g>
<!-- at_secondary&#45;&gt;at_persistence_secondary_server -->
<g id="edge151" class="edge">
<title>at_secondary&#45;&gt;at_persistence_secondary_server</title>
<path fill="none" stroke="#9760d3" d="M1146.01,-1660.86C1116.39,-1598.93 1014.75,-1386.47 978.88,-1311.47"/>
<polygon fill="#9760d3" stroke="#9760d3" points="981.93,-1309.74 974.45,-1302.23 975.61,-1312.76 981.93,-1309.74"/>
</g>
<!-- at_secondary&#45;&gt;at_persistence_spec -->
<g id="edge150" class="edge">
<title>at_secondary&#45;&gt;at_persistence_spec</title>
<path fill="none" stroke="#3bfcef" d="M1152.02,-1660.73C1144.82,-1604.11 1121.23,-1419.03 1101.21,-1266 1084.13,-1135.41 1063.22,-979.39 1054.89,-917.37"/>
<polygon fill="#3bfcef" stroke="#3bfcef" points="1058.33,-916.68 1053.53,-907.24 1051.39,-917.61 1058.33,-916.68"/>
</g>
<!-- at_secondary&#45;&gt;at_server_spec -->
<g id="edge149" class="edge">
<title>at_secondary&#45;&gt;at_server_spec</title>
<path fill="none" stroke="#e6f023" d="M1117.46,-1660.99C980.89,-1597.77 502.77,-1376.45 351.48,-1306.42"/>
<polygon fill="#e6f023" stroke="#e6f023" points="352.54,-1303.05 341.99,-1302.03 349.6,-1309.4 352.54,-1303.05"/>
</g>
<!-- at_secondary&#45;&gt;at_utils -->
<g id="edge146" class="edge">
<title>at_secondary&#45;&gt;at_utils</title>
<path fill="none" stroke="#75e849" d="M1154.87,-1660.7C1159.19,-1550.12 1184.34,-944.41 1220.21,-871 1304.27,-698.96 1503.91,-567.64 1589.32,-517.34"/>
<polygon fill="#75e849" stroke="#75e849" points="1591.32,-520.23 1598.19,-512.16 1587.79,-514.18 1591.32,-520.23"/>
</g>
<!-- at_secondary_proxy -->
<g id="node38" class="node">
<title>at_secondary_proxy</title>
<polygon fill="none" stroke="#35c7f7" points="2727.21,-1697 2569.21,-1697 2569.21,-1661 2727.21,-1661 2727.21,-1697"/>
<text text-anchor="middle" x="2648.21" y="-1675.3" font-family="Times,serif" font-size="14.00">at_secondary_proxy</text>
</g>
<!-- at_secondary_proxy&#45;&gt;at_commons -->
<g id="edge152" class="edge">
<title>at_secondary_proxy&#45;&gt;at_commons</title>
<path fill="none" stroke="#7eceb0" d="M2650.54,-1660.8C2661.75,-1572.51 2704.35,-1163.04 2574.21,-871 2416.2,-516.4 2035.01,-208.76 1922.79,-123.44"/>
<polygon fill="#7eceb0" stroke="#7eceb0" points="1924.67,-120.47 1914.58,-117.23 1920.44,-126.05 1924.67,-120.47"/>
</g>
<!-- at_secondary_proxy&#45;&gt;at_lookup -->
<g id="edge154" class="edge">
<title>at_secondary_proxy&#45;&gt;at_lookup</title>
<path fill="none" stroke="#94d42d" d="M2625.32,-1660.86C2541.31,-1597.98 2249.95,-1379.87 2154.07,-1308.1"/>
<polygon fill="#94d42d" stroke="#94d42d" points="2156.04,-1305.2 2145.93,-1302.01 2151.84,-1310.8 2156.04,-1305.2"/>
</g>
<!-- at_secondary_proxy&#45;&gt;at_utils -->
<g id="edge153" class="edge">
<title>at_secondary_proxy&#45;&gt;at_utils</title>
<path fill="none" stroke="#75e849" d="M2646.73,-1660.79C2636.84,-1546.76 2580.09,-903.74 2555.21,-871 2328.87,-573.21 1827.08,-510.32 1674.26,-497.89"/>
<polygon fill="#75e849" stroke="#75e849" points="1674.11,-494.37 1663.86,-497.08 1673.56,-501.35 1674.11,-494.37"/>
</g>
<!-- at_server_spec&#45;&gt;at_commons -->
<g id="edge155" class="edge">
<title>at_server_spec&#45;&gt;at_commons</title>
<path fill="none" stroke="#7eceb0" d="M306.28,-1265.74C313.09,-1170.93 358.66,-709.16 610.21,-476 973.83,-138.97 1624.15,-102.65 1828.19,-99.82"/>
<polygon fill="#7eceb0" stroke="#7eceb0" points="1828.47,-103.31 1838.42,-99.7 1828.38,-96.32 1828.47,-103.31"/>
</g>
<!-- at_server_status&#45;&gt;at_commons -->
<g id="edge156" class="edge">
<title>at_server_status&#45;&gt;at_commons</title>
<path fill="none" stroke="#7eceb0" d="M1066.66,-2450C1035.52,-2368.22 901.75,-2006.58 850.21,-1697 789.56,-1332.73 817.81,-1219.41 940.21,-871 1003.56,-690.68 977.95,-613.97 1110.21,-476 1319.96,-257.19 1683.11,-149.94 1828.44,-114.15"/>
<polygon fill="#7eceb0" stroke="#7eceb0" points="1829.63,-117.46 1838.52,-111.7 1827.98,-110.66 1829.63,-117.46"/>
</g>
<!-- at_server_status&#45;&gt;at_lookup -->
<g id="edge158" class="edge">
<title>at_server_status&#45;&gt;at_lookup</title>
<path fill="none" stroke="#94d42d" d="M1088.46,-2449.84C1205.53,-2318.05 1960.86,-1467.76 2100.89,-1310.12"/>
<polygon fill="#94d42d" stroke="#94d42d" points="2103.79,-1312.13 2107.81,-1302.33 2098.56,-1307.49 2103.79,-1312.13"/>
</g>
<!-- at_server_status&#45;&gt;at_utils -->
<g id="edge157" class="edge">
<title>at_server_status&#45;&gt;at_utils</title>
<path fill="none" stroke="#75e849" d="M1081.09,-2449.76C1118.32,-2367.64 1278.5,-2007.15 1365.21,-1697 1413.28,-1525.06 1412.09,-1478.61 1438.21,-1302 1466.41,-1111.33 1440.93,-1058.34 1486.21,-871 1519.09,-735 1588.09,-581.58 1616.54,-521.3"/>
<polygon fill="#75e849" stroke="#75e849" points="1619.77,-522.65 1620.9,-512.12 1613.44,-519.65 1619.77,-522.65"/>
</g>
<!-- at_sync_ui_flutter&#45;&gt;at_client -->
<g id="edge159" class="edge">
<title>at_sync_ui_flutter&#45;&gt;at_client</title>
<path fill="none" stroke="#61d4fc" d="M2190.69,-2844.81C2152.27,-2743.56 1955.58,-2225.19 1908.39,-2100.84"/>
<polygon fill="#61d4fc" stroke="#61d4fc" points="1911.6,-2099.41 1904.78,-2091.3 1905.05,-2101.89 1911.6,-2099.41"/>
</g>
<!-- at_sync_ui_flutter&#45;&gt;at_client_mobile -->
<g id="edge160" class="edge">
<title>at_sync_ui_flutter&#45;&gt;at_client_mobile</title>
<path fill="none" stroke="#d9577c" d="M2194.29,-2844.86C2183.77,-2783.19 2147.81,-2572.2 2134.88,-2496.4"/>
<polygon fill="#d9577c" stroke="#d9577c" points="2138.28,-2495.5 2133.15,-2486.23 2131.38,-2496.68 2138.28,-2495.5"/>
</g>
<!-- at_sync_ui_flutter&#45;&gt;at_common_flutter -->
<g id="edge161" class="edge">
<title>at_sync_ui_flutter&#45;&gt;at_common_flutter</title>
<path fill="none" stroke="#bf681f" d="M2234.01,-2844.99C2370.73,-2781.77 2849.42,-2560.45 3000.89,-2490.42"/>
<polygon fill="#bf681f" stroke="#bf681f" points="3002.78,-2493.4 3010.39,-2486.03 2999.84,-2487.05 3002.78,-2493.4"/>
</g>
<!-- at_theme_flutter -->
<g id="node42" class="node">
<title>at_theme_flutter</title>
<polygon fill="none" stroke="#2ec850" points="3254.21,-2881 3120.21,-2881 3120.21,-2845 3254.21,-2845 3254.21,-2881"/>
<text text-anchor="middle" x="3187.21" y="-2859.3" font-family="Times,serif" font-size="14.00">at_theme_flutter</text>
</g>
<!-- at_theme_flutter&#45;&gt;at_client_mobile -->
<g id="edge162" class="edge">
<title>at_theme_flutter&#45;&gt;at_client_mobile</title>
<path fill="none" stroke="#d9577c" d="M3141.45,-2844.99C2970.75,-2781.52 2371.41,-2558.68 2185.58,-2489.59"/>
<polygon fill="#d9577c" stroke="#d9577c" points="2186.6,-2486.23 2176,-2486.03 2184.16,-2492.79 2186.6,-2486.23"/>
</g>
<!-- at_theme_flutter&#45;&gt;at_common_flutter -->
<g id="edge163" class="edge">
<title>at_theme_flutter&#45;&gt;at_common_flutter</title>
<path fill="none" stroke="#bf681f" d="M3181.11,-2844.86C3159.09,-2783.06 3083.67,-2571.34 3056.81,-2495.93"/>
<polygon fill="#bf681f" stroke="#bf681f" points="3060,-2494.48 3053.35,-2486.23 3053.41,-2496.82 3060,-2494.48"/>
</g>
<!-- at_theme_flutter&#45;&gt;at_commons -->
<g id="edge164" class="edge">
<title>at_theme_flutter&#45;&gt;at_commons</title>
<path fill="none" stroke="#7eceb0" d="M3187.21,-2844.81C3187.21,-2760.6 3187.21,-2383.18 3187.21,-2074 3187.21,-2074 3187.21,-2074 3187.21,-888 3187.21,-303.65 2213.39,-140.26 1954.03,-107.11"/>
<polygon fill="#7eceb0" stroke="#7eceb0" points="1954.38,-103.63 1944.03,-105.85 1953.51,-110.57 1954.38,-103.63"/>
</g>
<!-- at_theme_flutter&#45;&gt;at_utils -->
<g id="edge165" class="edge">
<title>at_theme_flutter&#45;&gt;at_utils</title>
<path fill="none" stroke="#75e849" d="M3188.02,-2844.66C3190.07,-2786.28 3191.58,-2592.61 3130.21,-2450 2960.74,-2056.16 2759.94,-2057.09 2527.21,-1697 2303.44,-1350.77 2366.76,-1189.66 2105.21,-871 1971.15,-707.67 1754.82,-569.39 1667.54,-517.22"/>
<polygon fill="#75e849" stroke="#75e849" points="1669.16,-514.11 1658.77,-512.01 1665.58,-520.13 1669.16,-514.11"/>
</g>
<!-- at_utils&#45;&gt;at_commons -->
<g id="edge166" class="edge">
<title>at_utils&#45;&gt;at_commons</title>
<path fill="none" stroke="#7eceb0" d="M1640.64,-475.86C1682.09,-413.68 1824.72,-199.74 1874.17,-125.56"/>
<polygon fill="#7eceb0" stroke="#7eceb0" points="1877.09,-127.49 1879.72,-117.23 1871.27,-123.61 1877.09,-127.49"/>
</g>
<!-- at_ve_doctor -->
<g id="node44" class="node">
<title>at_ve_doctor</title>
<polygon fill="none" stroke="#193e4e" points="1207.71,-2881 1100.71,-2881 1100.71,-2845 1207.71,-2845 1207.71,-2881"/>
<text text-anchor="middle" x="1154.21" y="-2859.3" font-family="Times,serif" font-size="14.00">at_ve_doctor</text>
</g>
<!-- at_ve_doctor&#45;&gt;at_server_status -->
<g id="edge167" class="edge">
<title>at_ve_doctor&#45;&gt;at_server_status</title>
<path fill="none" stroke="#320113" d="M1150.68,-2844.86C1137.97,-2783.19 1094.48,-2572.2 1078.86,-2496.4"/>
<polygon fill="#320113" stroke="#320113" points="1082.21,-2495.32 1076.76,-2486.23 1075.35,-2496.73 1082.21,-2495.32"/>
</g>
<!-- base2e15 -->
<g id="node45" class="node">
<title>base2e15</title>
<polygon fill="none" stroke="#2bcf07" points="3732.71,-3671 3647.71,-3671 3647.71,-3635 3732.71,-3635 3732.71,-3671"/>
<text text-anchor="middle" x="3690.21" y="-3649.3" font-family="Times,serif" font-size="14.00">base2e15</text>
</g>
<!-- dart_utf7 -->
<g id="node46" class="node">
<title>dart_utf7</title>
<polygon fill="none" stroke="#f889f9" points="3833.71,-3671 3750.71,-3671 3750.71,-3635 3833.71,-3635 3833.71,-3671"/>
<text text-anchor="middle" x="3792.21" y="-3649.3" font-family="Times,serif" font-size="14.00">dart_utf7</text>
</g>
<!-- \n -->
<g id="node48" class="node">
<title>\n</title>
<ellipse fill="none" stroke="black" cx="3879.21" cy="-3653" rx="27" ry="18"/>
</g>
</g>
</svg>
