<svg xmlns="http://www.w3.org/2000/svg" xmlns:xlink="http://www.w3.org/1999/xlink" width="720pt" height="700pt" viewBox="0.00 0.00 720.00 700.16">
<g id="graph0" class="graph" transform="scale(0.19 0.19) rotate(0) translate(4 3588)">
<title>packages</title>
<polygon fill="white" stroke="transparent" points="-4,4 -4,-3588 3689.79,-3588 3689.79,4 -4,4"/>
<g id="clust3" class="cluster">
<title>cluster modules/at_tools</title>
<polygon fill="none" stroke="#1a8d25" points="1177,-57.57 1177,-1194.67 1762,-1194.67 1762,-57.57 1177,-57.57"/>
<text text-anchor="middle" x="1469.5" y="-1179.47" font-family="Times,serif" font-size="14.00">modules/at_tools</text>
</g>
<g id="clust1" class="cluster">
<title>cluster modules/at_app/packages</title>
<polygon fill="none" stroke="#6e880a" points="8,-2446.91 8,-3526.43 308,-3526.43 308,-2446.91 8,-2446.91"/>
<text text-anchor="middle" x="158" y="-3511.23" font-family="Times,serif" font-size="14.00">modules/at_app/packages</text>
</g>
<g id="clust2" class="cluster">
<title>cluster modules/at_widgets</title>
<polygon fill="none" stroke="#a4cdb3" points="982,-1252.24 982,-3526.43 1962,-3526.43 1962,-1252.24 982,-1252.24"/>
<text text-anchor="middle" x="1472" y="-3511.23" font-family="Times,serif" font-size="14.00">modules/at_widgets</text>
</g>
<g id="clust4" class="cluster">
<title>cluster modules/at_client_sdk</title>
<polygon fill="none" stroke="#f82a22" points="2869,-654.91 2869,-1792 3008,-1792 3008,-654.91 2869,-654.91"/>
<text text-anchor="middle" x="2938.5" y="-1776.8" font-family="Times,serif" font-size="14.00">modules/at_client_sdk</text>
</g>
<g id="clust5" class="cluster">
<title>cluster modules/at_libraries</title>
<polygon fill="none" stroke="#63575b" points="2000,-57.57 2000,-1792 2464,-1792 2464,-57.57 2000,-57.57"/>
<text text-anchor="middle" x="2232" y="-1776.8" font-family="Times,serif" font-size="14.00">modules/at_libraries</text>
</g>
<g id="clust6" class="cluster">
<title>cluster modules/at_server/at_root</title>
<polygon fill="none" stroke="#ff3552" points="612,-1849.57 612,-2986.67 790,-2986.67 790,-1849.57 612,-1849.57"/>
<text text-anchor="middle" x="701" y="-2971.47" font-family="Times,serif" font-size="14.00">modules/at_server/at_root</text>
</g>
<g id="clust7" class="cluster">
<title>cluster modules/at_server/at_secondary</title>
<polygon fill="none" stroke="#21c1f6" points="3274,-654.91 3274,-1792 3484,-1792 3484,-654.91 3274,-654.91"/>
<text text-anchor="middle" x="3379" y="-1776.8" font-family="Times,serif" font-size="14.00">modules/at_server/at_secondary</text>
</g>
<g id="clust8" class="cluster">
<title>cluster modules/at_server/at_persistence</title>
<polygon fill="none" stroke="#c4888e" points="3379,-57.57 3379,-597.33 3576,-597.33 3576,-57.57 3379,-57.57"/>
<text text-anchor="middle" x="3477.5" y="-582.13" font-family="Times,serif" font-size="14.00">modules/at_server/at_persistence</text>
</g>
<g id="clust9" class="cluster">
<title>cluster modules/at_server</title>
<polygon fill="none" stroke="#259ab2" points="1876,-654.91 1876,-1194.67 1992,-1194.67 1992,-654.91 1876,-654.91"/>
<text text-anchor="middle" x="1934" y="-1179.47" font-family="Times,serif" font-size="14.00">modules/at_server</text>
</g>
<g id="clust10" class="cluster">
<title>cluster modules/at_libraries/at_onboarding_cli</title>
<polygon fill="none" stroke="#8596c6" points="2374,-1849.57 2374,-2389.33 2604,-2389.33 2604,-1849.57 2374,-1849.57"/>
<text text-anchor="middle" x="2489" y="-2374.13" font-family="Times,serif" font-size="14.00">modules/at_libraries/at_onboarding_cli</text>
</g>
<!-- at_app -->
<g id="node1" class="node">
<title>at_app</title>
<polygon fill="none" stroke="#319b3c" points="70,-3191.57 16,-3191.57 16,-3155.57 70,-3155.57 70,-3191.57"/>
<text text-anchor="middle" x="43" y="-3169.87" font-family="Times,serif" font-size="14.00">at_app</text>
</g>
<!-- at_app_create -->
<g id="node3" class="node">
<title>at_app_create</title>
<polygon fill="none" stroke="#a04433" points="108,-2651.57 16,-2651.57 16,-2615.57 108,-2615.57 108,-2651.57"/>
<text text-anchor="middle" x="62" y="-2629.87" font-family="Times,serif" font-size="14.00">at_app_create</text>
</g>
<!-- at_app&#45;&gt;at_app_create -->
<g id="edge3" class="edge">
<title>at_app-&gt;at_app_create</title>
<path fill="none" stroke="#a04433" d="M43.61,-3155.28C46.37,-3077.26 57.65,-2757.68 61.04,-2661.86"/>
<polygon fill="#a04433" stroke="#a04433" points="64.54,-2661.92 61.39,-2651.8 57.54,-2661.67 64.54,-2661.92"/>
</g>
<!-- at_commons -->
<g id="node11" class="node">
<title>at_commons</title>
<polygon fill="none" stroke="#7eceb0" points="1272.5,-262.57 1185.5,-262.57 1185.5,-226.57 1272.5,-226.57 1272.5,-262.57"/>
<text text-anchor="middle" x="1229" y="-240.87" font-family="Times,serif" font-size="14.00">at_commons</text>
</g>
<!-- at_app&#45;&gt;at_commons -->
<g id="edge1" class="edge">
<title>at_app-&gt;at_commons</title>
<path fill="none" stroke="#7eceb0" d="M47.52,-3155.38C74.4,-3051.6 212,-2497.77 212,-2037.57 212,-2037.57 212,-2037.57 212,-1438.57 212,-1155.26 185.81,-1048.57 347,-815.57 565.1,-500.33 1019.91,-318.41 1175.48,-263.47"/>
<polygon fill="#7eceb0" stroke="#7eceb0" points="1177,-266.64 1185.28,-260.04 1174.69,-260.04 1177,-266.64"/>
</g>
<!-- at_utils -->
<g id="node37" class="node">
<title>at_utils</title>
<polygon fill="none" stroke="#75e849" points="1241,-859.57 1185,-859.57 1185,-823.57 1241,-823.57 1241,-859.57"/>
<text text-anchor="middle" x="1213" y="-837.87" font-family="Times,serif" font-size="14.00">at_utils</text>
</g>
<!-- at_app&#45;&gt;at_utils -->
<g id="edge2" class="edge">
<title>at_app-&gt;at_utils</title>
<path fill="none" stroke="#75e849" d="M49.5,-3155.35C114.37,-2983.72 644.63,-1583.65 745,-1413.57 882.93,-1179.86 1112.83,-942.15 1188.23,-866.93"/>
<polygon fill="#75e849" stroke="#75e849" points="1190.81,-869.29 1195.44,-859.76 1185.88,-864.33 1190.81,-869.29"/>
</g>
<!-- at_app_bundler -->
<g id="node2" class="node">
<title>at_app_bundler</title>
<polygon fill="none" stroke="#1313a7" points="189.5,-3191.57 88.5,-3191.57 88.5,-3155.57 189.5,-3155.57 189.5,-3191.57"/>
<text text-anchor="middle" x="139" y="-3169.87" font-family="Times,serif" font-size="14.00">at_app_bundler</text>
</g>
<!-- at_app_flutter -->
<g id="node4" class="node">
<title>at_app_flutter</title>
<polygon fill="none" stroke="#fda7a2" points="300,-3191.57 208,-3191.57 208,-3155.57 300,-3155.57 300,-3191.57"/>
<text text-anchor="middle" x="254" y="-3169.87" font-family="Times,serif" font-size="14.00">at_app_flutter</text>
</g>
<!-- at_onboarding_flutter -->
<g id="node26" class="node">
<title>at_onboarding_flutter</title>
<polygon fill="none" stroke="#a801a6" points="1820,-2651.57 1686,-2651.57 1686,-2615.57 1820,-2615.57 1820,-2651.57"/>
<text text-anchor="middle" x="1753" y="-2629.87" font-family="Times,serif" font-size="14.00">at_onboarding_flutter</text>
</g>
<!-- at_app_flutter&#45;&gt;at_onboarding_flutter -->
<g id="edge4" class="edge">
<title>at_app_flutter-&gt;at_onboarding_flutter</title>
<path fill="none" stroke="#a801a6" d="M300.09,-3156.03C519.14,-3077.41 1454.28,-2741.79 1695.86,-2655.08"/>
<polygon fill="#a801a6" stroke="#a801a6" points="1697.27,-2658.29 1705.5,-2651.62 1694.91,-2651.71 1697.27,-2658.29"/>
</g>
<!-- at_app_flutter&#45;&gt;at_utils -->
<g id="edge5" class="edge">
<title>at_app_flutter-&gt;at_utils</title>
<path fill="none" stroke="#75e849" d="M258.25,-3155.52C289.61,-3029.73 486.11,-2244.3 561,-2010.57 647.57,-1740.4 650.63,-1662.36 787,-1413.57 912.62,-1184.41 1121.09,-944.54 1190.06,-867.76"/>
<polygon fill="#75e849" stroke="#75e849" points="1192.94,-869.8 1197.04,-860.03 1187.74,-865.11 1192.94,-869.8"/>
</g>
<!-- at_backupkey_flutter -->
<g id="node5" class="node">
<title>at_backupkey_flutter</title>
<polygon fill="none" stroke="#590b92" points="1953.5,-2054.57 1822.5,-2054.57 1822.5,-2018.57 1953.5,-2018.57 1953.5,-2054.57"/>
<text text-anchor="middle" x="1888" y="-2032.87" font-family="Times,serif" font-size="14.00">at_backupkey_flutter</text>
</g>
<!-- at_client_mobile -->
<g id="node9" class="node">
<title>at_client_mobile</title>
<polygon fill="none" stroke="#d9577c" points="3000,-1457.57 2892,-1457.57 2892,-1421.57 3000,-1421.57 3000,-1457.57"/>
<text text-anchor="middle" x="2946" y="-1435.87" font-family="Times,serif" font-size="14.00">at_client_mobile</text>
</g>
<!-- at_backupkey_flutter&#45;&gt;at_client_mobile -->
<g id="edge7" class="edge">
<title>at_backupkey_flutter-&gt;at_client_mobile</title>
<path fill="none" stroke="#d9577c" d="M1922.1,-2018.47C2050.28,-1953.8 2514.41,-1716.38 2878,-1488.57 2890.3,-1480.87 2903.41,-1471.83 2914.8,-1463.68"/>
<polygon fill="#d9577c" stroke="#d9577c" points="2917.08,-1466.35 2923.14,-1457.66 2912.98,-1460.67 2917.08,-1466.35"/>
</g>
<!-- at_backupkey_flutter&#45;&gt;at_utils -->
<g id="edge6" class="edge">
<title>at_backupkey_flutter-&gt;at_utils</title>
<path fill="none" stroke="#75e849" d="M1878.2,-2018.25C1803.01,-1885.36 1318.27,-1028.63 1227.6,-868.38"/>
<polygon fill="#75e849" stroke="#75e849" points="1230.63,-866.62 1222.66,-859.64 1224.53,-870.07 1230.63,-866.62"/>
</g>
<!-- at_chat_flutter -->
<g id="node6" class="node">
<title>at_chat_flutter</title>
<polygon fill="none" stroke="#463830" points="1804.5,-2054.57 1709.5,-2054.57 1709.5,-2018.57 1804.5,-2018.57 1804.5,-2054.57"/>
<text text-anchor="middle" x="1757" y="-2032.87" font-family="Times,serif" font-size="14.00">at_chat_flutter</text>
</g>
<!-- at_client -->
<g id="node8" class="node">
<title>at_client</title>
<polygon fill="none" stroke="#61d4fc" points="2940.5,-859.57 2877.5,-859.57 2877.5,-823.57 2940.5,-823.57 2940.5,-859.57"/>
<text text-anchor="middle" x="2909" y="-837.87" font-family="Times,serif" font-size="14.00">at_client</text>
</g>
<!-- at_chat_flutter&#45;&gt;at_client -->
<g id="edge12" class="edge">
<title>at_chat_flutter-&gt;at_client</title>
<path fill="none" stroke="#61d4fc" d="M1793.32,-2018.43C1978.04,-1931.1 2805.96,-1537.82 2840,-1488.57 2978.78,-1287.78 2932.23,-964.82 2914.52,-869.74"/>
<polygon fill="#61d4fc" stroke="#61d4fc" points="2917.93,-868.94 2912.61,-859.78 2911.05,-870.26 2917.93,-868.94"/>
</g>
<!-- at_chat_flutter&#45;&gt;at_client_mobile -->
<g id="edge11" class="edge">
<title>at_chat_flutter-&gt;at_client_mobile</title>
<path fill="none" stroke="#d9577c" d="M1793.95,-2018.52C1963.63,-1940.07 2668.69,-1612.43 2878,-1488.57 2890.59,-1481.13 2903.85,-1472.07 2915.28,-1463.83"/>
<polygon fill="#d9577c" stroke="#d9577c" points="2917.62,-1466.46 2923.63,-1457.74 2913.49,-1460.81 2917.62,-1466.46"/>
</g>
<!-- at_common_flutter -->
<g id="node10" class="node">
<title>at_common_flutter</title>
<polygon fill="none" stroke="#bf681f" points="1299,-1457.57 1177,-1457.57 1177,-1421.57 1299,-1421.57 1299,-1457.57"/>
<text text-anchor="middle" x="1238" y="-1435.87" font-family="Times,serif" font-size="14.00">at_common_flutter</text>
</g>
<!-- at_chat_flutter&#45;&gt;at_common_flutter -->
<g id="edge9" class="edge">
<title>at_chat_flutter-&gt;at_common_flutter</title>
<path fill="none" stroke="#bf681f" d="M1742.03,-2018.41C1668.63,-1934.27 1346.92,-1565.44 1259.81,-1465.58"/>
<polygon fill="#bf681f" stroke="#bf681f" points="1262.24,-1463.04 1253.03,-1457.81 1256.97,-1467.65 1262.24,-1463.04"/>
</g>
<!-- at_chat_flutter&#45;&gt;at_commons -->
<g id="edge10" class="edge">
<title>at_chat_flutter-&gt;at_commons</title>
<path fill="none" stroke="#7eceb0" d="M1724.65,-2018.54C1619.53,-1961.1 1287.5,-1762.64 1168,-1488.57 1068.39,-1260.12 1197.85,-433.97 1224.41,-272.9"/>
<polygon fill="#7eceb0" stroke="#7eceb0" points="1227.89,-273.31 1226.08,-262.87 1220.99,-272.16 1227.89,-273.31"/>
</g>
<!-- at_contact -->
<g id="node12" class="node">
<title>at_contact</title>
<polygon fill="none" stroke="#250aa2" points="2322,-1457.57 2250,-1457.57 2250,-1421.57 2322,-1421.57 2322,-1457.57"/>
<text text-anchor="middle" x="2286" y="-1435.87" font-family="Times,serif" font-size="14.00">at_contact</text>
</g>
<!-- at_chat_flutter&#45;&gt;at_contact -->
<g id="edge8" class="edge">
<title>at_chat_flutter-&gt;at_contact</title>
<path fill="none" stroke="#250aa2" d="M1772.26,-2018.41C1847.07,-1934.27 2174.99,-1565.44 2263.77,-1465.58"/>
<polygon fill="#250aa2" stroke="#250aa2" points="2266.65,-1467.61 2270.68,-1457.81 2261.42,-1462.96 2266.65,-1467.61"/>
</g>
<!-- at_lookup -->
<g id="node23" class="node">
<title>at_lookup</title>
<polygon fill="none" stroke="#94d42d" points="2455.5,-262.57 2384.5,-262.57 2384.5,-226.57 2455.5,-226.57 2455.5,-262.57"/>
<text text-anchor="middle" x="2420" y="-240.87" font-family="Times,serif" font-size="14.00">at_lookup</text>
</g>
<!-- at_chat_flutter&#45;&gt;at_lookup -->
<g id="edge13" class="edge">
<title>at_chat_flutter-&gt;at_lookup</title>
<path fill="none" stroke="#94d42d" d="M1788.48,-2018.42C1922.94,-1944.47 2446.39,-1649.34 2536,-1488.57 2776.14,-1057.79 2497.71,-410.72 2432.87,-272.25"/>
<polygon fill="#94d42d" stroke="#94d42d" points="2435.85,-270.36 2428.42,-262.82 2429.52,-273.35 2435.85,-270.36"/>
</g>
<!-- at_cli -->
<g id="node7" class="node">
<title>at_cli</title>
<polygon fill="none" stroke="#34bd05" points="1754,-859.57 1700,-859.57 1700,-823.57 1754,-823.57 1754,-859.57"/>
<text text-anchor="middle" x="1727" y="-837.87" font-family="Times,serif" font-size="14.00">at_cli</text>
</g>
<!-- at_cli&#45;&gt;at_client -->
<g id="edge15" class="edge">
<title>at_cli-&gt;at_client</title>
<path fill="none" stroke="#61d4fc" d="M1729.42,-859.59C1737.96,-915.23 1772.34,-1084.68 1881,-1152.07 2225.45,-1365.73 2459.99,-1383.16 2793,-1152.07 2887.75,-1086.33 2905.24,-933.23 2908.37,-869.84"/>
<polygon fill="#61d4fc" stroke="#61d4fc" points="2911.87,-869.91 2908.78,-859.77 2904.88,-869.62 2911.87,-869.91"/>
</g>
<!-- at_cli&#45;&gt;at_lookup -->
<g id="edge14" class="edge">
<title>at_cli-&gt;at_lookup</title>
<path fill="none" stroke="#94d42d" d="M1746.99,-823.41C1845.38,-738.93 2278.03,-367.47 2392.26,-269.39"/>
<polygon fill="#94d42d" stroke="#94d42d" points="2394.62,-271.98 2399.93,-262.81 2390.06,-266.67 2394.62,-271.98"/>
</g>
<!-- at_client&#45;&gt;at_commons -->
<g id="edge19" class="edge">
<title>at_client-&gt;at_commons</title>
<path fill="none" stroke="#7eceb0" d="M2877.31,-829.35C2673.08,-757.02 1542.71,-356.68 1282.45,-264.5"/>
<polygon fill="#7eceb0" stroke="#7eceb0" points="1283.44,-261.14 1272.84,-261.1 1281.1,-267.74 1283.44,-261.14"/>
</g>
<!-- at_client&#45;&gt;at_lookup -->
<g id="edge18" class="edge">
<title>at_client-&gt;at_lookup</title>
<path fill="none" stroke="#94d42d" d="M2894.89,-823.41C2825.74,-739.27 2522.62,-370.44 2440.55,-270.58"/>
<polygon fill="#94d42d" stroke="#94d42d" points="2443.22,-268.31 2434.16,-262.81 2437.81,-272.76 2443.22,-268.31"/>
</g>
<!-- at_persistence_secondary_server -->
<g id="node28" class="node">
<title>at_persistence_secondary_server</title>
<polygon fill="none" stroke="#9760d3" points="3476,-859.57 3282,-859.57 3282,-823.57 3476,-823.57 3476,-859.57"/>
<text text-anchor="middle" x="3379" y="-837.87" font-family="Times,serif" font-size="14.00">at_persistence_secondary_server</text>
</g>
<!-- at_client&#45;&gt;at_persistence_secondary_server -->
<g id="edge17" class="edge">
<title>at_client-&gt;at_persistence_secondary_server</title>
<path fill="none" stroke="#9760d3" d="M2940.67,-841.57C3050.95,-841.57 3161.23,-841.57 3271.5,-841.57"/>
<polygon fill="#9760d3" stroke="#9760d3" points="3271.83,-845.07 3281.83,-841.57 3271.83,-838.07 3271.83,-845.07"/>
</g>
<!-- at_persistence_spec -->
<g id="node29" class="node">
<title>at_persistence_spec</title>
<polygon fill="none" stroke="#3bfcef" points="3522,-262.57 3398,-262.57 3398,-226.57 3522,-226.57 3522,-262.57"/>
<text text-anchor="middle" x="3460" y="-240.87" font-family="Times,serif" font-size="14.00">at_persistence_spec</text>
</g>
<!-- at_client&#45;&gt;at_persistence_spec -->
<g id="edge16" class="edge">
<title>at_client-&gt;at_persistence_spec</title>
<path fill="none" stroke="#3bfcef" d="M2924.9,-823.41C3002.89,-739.18 3345.06,-369.7 3437.12,-270.28"/>
<polygon fill="#3bfcef" stroke="#3bfcef" points="3439.81,-272.52 3444.04,-262.81 3434.68,-267.77 3439.81,-272.52"/>
</g>
<!-- at_client&#45;&gt;at_utils -->
<g id="edge20" class="edge">
<title>at_client-&gt;at_utils</title>
<path fill="none" stroke="#75e849" d="M2908.78,-859.77C2907.01,-915.23 2893.23,-1082.52 2793,-1152.07 2513.12,-1346.29 1518.29,-1374.21 1260,-1152.07 1177.36,-1081 1195.13,-931.55 1206.88,-869.5"/>
<polygon fill="#75e849" stroke="#75e849" points="1210.33,-870.13 1208.84,-859.64 1203.46,-868.77 1210.33,-870.13"/>
</g>
<!-- at_client_mobile&#45;&gt;at_client -->
<g id="edge21" class="edge">
<title>at_client_mobile-&gt;at_client</title>
<path fill="none" stroke="#61d4fc" d="M2944.93,-1421.38C2939.74,-1337.78 2917.13,-973.56 2910.71,-870.09"/>
<polygon fill="#61d4fc" stroke="#61d4fc" points="2914.18,-869.6 2910.07,-859.84 2907.2,-870.04 2914.18,-869.6"/>
</g>
<!-- at_client_mobile&#45;&gt;at_commons -->
<g id="edge23" class="edge">
<title>at_client_mobile-&gt;at_commons</title>
<path fill="none" stroke="#7eceb0" d="M2937.07,-1421.54C2894.88,-1342.43 2707.44,-1006.74 2468,-815.57 2264,-652.7 1492.22,-347.53 1282.1,-266.02"/>
<polygon fill="#7eceb0" stroke="#7eceb0" points="1283.11,-262.66 1272.52,-262.31 1280.58,-269.19 1283.11,-262.66"/>
</g>
<!-- at_client_mobile&#45;&gt;at_lookup -->
<g id="edge22" class="edge">
<title>at_client_mobile-&gt;at_lookup</title>
<path fill="none" stroke="#94d42d" d="M2950.58,-1421.38C2969.71,-1346.18 3038.24,-1040.06 2950,-815.57 2846.11,-551.28 2555.61,-336.78 2454.91,-268.44"/>
<polygon fill="#94d42d" stroke="#94d42d" points="2456.57,-265.34 2446.32,-262.65 2452.65,-271.14 2456.57,-265.34"/>
</g>
<!-- at_client_mobile&#45;&gt;at_utils -->
<g id="edge24" class="edge">
<title>at_client_mobile-&gt;at_utils</title>
<path fill="none" stroke="#75e849" d="M2891.85,-1432.6C2669.65,-1405.85 1813.05,-1280.84 1251,-890.57 1242.45,-884.64 1234.88,-876.21 1228.79,-868.08"/>
<polygon fill="#75e849" stroke="#75e849" points="1231.6,-866 1223,-859.82 1225.87,-870.02 1231.6,-866"/>
</g>
<!-- at_contact&#45;&gt;at_client -->
<g id="edge25" class="edge">
<title>at_contact-&gt;at_client</title>
<path fill="none" stroke="#61d4fc" d="M2303.97,-1421.38C2392.25,-1336.93 2779.81,-966.16 2883.44,-867.02"/>
<polygon fill="#61d4fc" stroke="#61d4fc" points="2886.15,-869.28 2890.95,-859.84 2881.31,-864.22 2886.15,-869.28"/>
</g>
<!-- at_contact&#45;&gt;at_commons -->
<g id="edge26" class="edge">
<title>at_contact-&gt;at_commons</title>
<path fill="none" stroke="#7eceb0" d="M2270.77,-1421.15C2212.68,-1354.41 2000.41,-1107.81 1844,-890.57 1820.88,-858.46 1820.76,-846.45 1796,-815.57 1610.5,-584.31 1342.5,-344.43 1256.6,-269.42"/>
<polygon fill="#7eceb0" stroke="#7eceb0" points="1258.7,-266.61 1248.86,-262.68 1254.1,-271.89 1258.7,-266.61"/>
</g>
<!-- at_contact&#45;&gt;at_utils -->
<g id="edge27" class="edge">
<title>at_contact-&gt;at_utils</title>
<path fill="none" stroke="#75e849" d="M2255.55,-1421.54C2250.69,-1418.86 2245.71,-1416.13 2241,-1413.57 1803.47,-1176.5 1633.65,-1208.71 1251,-890.57 1243.2,-884.09 1235.93,-875.76 1229.88,-867.87"/>
<polygon fill="#75e849" stroke="#75e849" points="1232.56,-865.6 1223.83,-859.59 1226.91,-869.73 1232.56,-865.6"/>
</g>
<!-- at_contacts_flutter -->
<g id="node13" class="node">
<title>at_contacts_flutter</title>
<polygon fill="none" stroke="#1267b5" points="1435.5,-2054.57 1318.5,-2054.57 1318.5,-2018.57 1435.5,-2018.57 1435.5,-2054.57"/>
<text text-anchor="middle" x="1377" y="-2032.87" font-family="Times,serif" font-size="14.00">at_contacts_flutter</text>
</g>
<!-- at_contacts_flutter&#45;&gt;at_client -->
<g id="edge33" class="edge">
<title>at_contacts_flutter-&gt;at_client</title>
<path fill="none" stroke="#61d4fc" d="M1422.88,-2018.55C1615.71,-1946.3 2358.74,-1660.94 2536,-1488.57 2562.79,-1462.52 2556.09,-1446.37 2574,-1413.57 2690.7,-1199.83 2843.72,-948.74 2892.98,-868.56"/>
<polygon fill="#61d4fc" stroke="#61d4fc" points="2896.21,-869.99 2898.47,-859.64 2890.25,-866.32 2896.21,-869.99"/>
</g>
<!-- at_contacts_flutter&#45;&gt;at_client_mobile -->
<g id="edge28" class="edge">
<title>at_contacts_flutter-&gt;at_client_mobile</title>
<path fill="none" stroke="#d9577c" d="M1421.85,-2018.57C1646.24,-1933.47 2646.01,-1554.34 2891.45,-1461.26"/>
<polygon fill="#d9577c" stroke="#d9577c" points="2892.77,-1464.5 2900.88,-1457.68 2890.29,-1457.96 2892.77,-1464.5"/>
</g>
<!-- at_contacts_flutter&#45;&gt;at_common_flutter -->
<g id="edge32" class="edge">
<title>at_contacts_flutter-&gt;at_common_flutter</title>
<path fill="none" stroke="#bf681f" d="M1372.99,-2018.41C1353.47,-1934.86 1268.38,-1570.61 1244.34,-1467.73"/>
<polygon fill="#bf681f" stroke="#bf681f" points="1247.71,-1466.75 1242.03,-1457.81 1240.89,-1468.34 1247.71,-1466.75"/>
</g>
<!-- at_contacts_flutter&#45;&gt;at_commons -->
<g id="edge29" class="edge">
<title>at_contacts_flutter-&gt;at_commons</title>
<path fill="none" stroke="#7eceb0" d="M1364.25,-2018.39C1316.98,-1953.45 1151.63,-1715.19 1097,-1488.57 981.87,-1011.01 1173.56,-406.11 1219.48,-272.48"/>
<polygon fill="#7eceb0" stroke="#7eceb0" points="1222.91,-273.27 1222.88,-262.67 1216.3,-270.98 1222.91,-273.27"/>
</g>
<!-- at_contacts_flutter&#45;&gt;at_contact -->
<g id="edge31" class="edge">
<title>at_contacts_flutter-&gt;at_contact</title>
<path fill="none" stroke="#250aa2" d="M1410.38,-2018.45C1529.75,-1956.42 1944.13,-1734.1 2241,-1488.57 2249.45,-1481.59 2257.89,-1473.09 2265.14,-1465.2"/>
<polygon fill="#250aa2" stroke="#250aa2" points="2267.89,-1467.37 2271.95,-1457.59 2262.67,-1462.7 2267.89,-1467.37"/>
</g>
<!-- at_contacts_flutter&#45;&gt;at_lookup -->
<g id="edge30" class="edge">
<title>at_contacts_flutter-&gt;at_lookup</title>
<path fill="none" stroke="#94d42d" d="M1418.19,-2018.54C1612.79,-1937.67 2433.32,-1592.11 2498,-1488.57 2630.29,-1276.82 2460.42,-435.54 2425.9,-272.88"/>
<polygon fill="#94d42d" stroke="#94d42d" points="2429.25,-271.81 2423.74,-262.76 2422.4,-273.27 2429.25,-271.81"/>
</g>
<!-- at_contacts_flutter&#45;&gt;at_utils -->
<g id="edge34" class="edge">
<title>at_contacts_flutter-&gt;at_utils</title>
<path fill="none" stroke="#75e849" d="M1377.75,-2018.14C1380.66,-1944.42 1389.37,-1651.11 1356,-1413.57 1326,-1200.02 1248.29,-950.54 1221.91,-869.48"/>
<polygon fill="#75e849" stroke="#75e849" points="1225.11,-868.01 1218.68,-859.6 1218.46,-870.19 1225.11,-868.01"/>
</g>
<!-- at_contacts_group_flutter -->
<g id="node14" class="node">
<title>at_contacts_group_flutter</title>
<polygon fill="none" stroke="#dae1d2" points="1454.5,-2651.57 1299.5,-2651.57 1299.5,-2615.57 1454.5,-2615.57 1454.5,-2651.57"/>
<text text-anchor="middle" x="1377" y="-2629.87" font-family="Times,serif" font-size="14.00">at_contacts_group_flutter</text>
</g>
<!-- at_contacts_group_flutter&#45;&gt;at_client_mobile -->
<g id="edge35" class="edge">
<title>at_contacts_group_flutter-&gt;at_client_mobile</title>
<path fill="none" stroke="#d9577c" d="M1454.69,-2616.85C1665.11,-2570.7 2253.97,-2417.46 2608,-2085.57 2808.25,-1897.85 2911.95,-1564.62 2938.83,-1467.71"/>
<polygon fill="#d9577c" stroke="#d9577c" points="2942.27,-1468.4 2941.53,-1457.83 2935.52,-1466.55 2942.27,-1468.4"/>
</g>
<!-- at_contacts_group_flutter&#45;&gt;at_common_flutter -->
<g id="edge37" class="edge">
<title>at_contacts_group_flutter-&gt;at_common_flutter</title>
<path fill="none" stroke="#bf681f" d="M1360.26,-2615.16C1300.14,-2551.25 1095.06,-2321.07 1026,-2085.57 954.65,-1842.26 1152.9,-1552.43 1218.04,-1466.06"/>
<polygon fill="#bf681f" stroke="#bf681f" points="1220.99,-1467.97 1224.27,-1457.89 1215.42,-1463.72 1220.99,-1467.97"/>
</g>
<!-- at_contacts_group_flutter&#45;&gt;at_commons -->
<g id="edge36" class="edge">
<title>at_contacts_group_flutter-&gt;at_commons</title>
<path fill="none" stroke="#7eceb0" d="M1361.98,-2615.29C1305.84,-2550.01 1105.39,-2310.68 985,-2085.57 851.27,-1835.54 810.82,-1767.53 760,-1488.57 706.39,-1194.31 659.05,-1097.14 760,-815.57 851.02,-561.69 1109.37,-340 1198.4,-269.17"/>
<polygon fill="#7eceb0" stroke="#7eceb0" points="1200.8,-271.73 1206.47,-262.79 1196.46,-266.24 1200.8,-271.73"/>
</g>
<!-- at_contacts_group_flutter&#45;&gt;at_contact -->
<g id="edge39" class="edge">
<title>at_contacts_group_flutter-&gt;at_contact</title>
<path fill="none" stroke="#250aa2" d="M1400.77,-2615.41C1486.16,-2552.82 1781.94,-2327.72 1963,-2085.57 2124.75,-1869.24 2243.23,-1559.59 2276.53,-1467.43"/>
<polygon fill="#250aa2" stroke="#250aa2" points="2279.91,-1468.35 2280,-1457.76 2273.32,-1465.99 2279.91,-1468.35"/>
</g>
<!-- at_contacts_group_flutter&#45;&gt;at_contacts_flutter -->
<g id="edge38" class="edge">
<title>at_contacts_group_flutter-&gt;at_contacts_flutter</title>
<path fill="none" stroke="#1267b5" d="M1377,-2615.41C1377,-2531.94 1377,-2168.35 1377,-2065.04"/>
<polygon fill="#1267b5" stroke="#1267b5" points="1380.5,-2064.81 1377,-2054.81 1373.5,-2064.81 1380.5,-2064.81"/>
</g>
<!-- at_contacts_group_flutter&#45;&gt;at_utils -->
<g id="edge40" class="edge">
<title>at_contacts_group_flutter-&gt;at_utils</title>
<path fill="none" stroke="#75e849" d="M1359.42,-2615.35C1296.27,-2552.08 1080.85,-2323.84 1008,-2085.57 862.94,-1611.16 1135.87,-1001.62 1199.97,-868.84"/>
<polygon fill="#75e849" stroke="#75e849" points="1203.15,-870.3 1204.38,-859.78 1196.85,-867.24 1203.15,-870.3"/>
</g>
<!-- at_cram -->
<g id="node15" class="node">
<title>at_cram</title>
<polygon fill="none" stroke="#c89a29" points="1681.5,-859.57 1620.5,-859.57 1620.5,-823.57 1681.5,-823.57 1681.5,-859.57"/>
<text text-anchor="middle" x="1651" y="-837.87" font-family="Times,serif" font-size="14.00">at_cram</text>
</g>
<!-- at_dump_atKeys -->
<g id="node16" class="node">
<title>at_dump_atKeys</title>
<polygon fill="none" stroke="#80b159" points="1473.5,-859.57 1364.5,-859.57 1364.5,-823.57 1473.5,-823.57 1473.5,-859.57"/>
<text text-anchor="middle" x="1419" y="-837.87" font-family="Times,serif" font-size="14.00">at_dump_atKeys</text>
</g>
<!-- at_pkam -->
<g id="node30" class="node">
<title>at_pkam</title>
<polygon fill="none" stroke="#d549ec" points="1451,-262.57 1387,-262.57 1387,-226.57 1451,-226.57 1451,-262.57"/>
<text text-anchor="middle" x="1419" y="-240.87" font-family="Times,serif" font-size="14.00">at_pkam</text>
</g>
<!-- at_dump_atKeys&#45;&gt;at_pkam -->
<g id="edge41" class="edge">
<title>at_dump_atKeys-&gt;at_pkam</title>
<path fill="none" stroke="#d549ec" stroke-dasharray="1,5" d="M1419,-823.41C1419,-739.94 1419,-376.35 1419,-273.04"/>
<polygon fill="#d549ec" stroke="#d549ec" points="1422.5,-272.81 1419,-262.81 1415.5,-272.81 1422.5,-272.81"/>
</g>
<!-- at_events_flutter -->
<g id="node17" class="node">
<title>at_events_flutter</title>
<polygon fill="none" stroke="#5b74f7" points="1659.5,-3191.57 1552.5,-3191.57 1552.5,-3155.57 1659.5,-3155.57 1659.5,-3191.57"/>
<text text-anchor="middle" x="1606" y="-3169.87" font-family="Times,serif" font-size="14.00">at_events_flutter</text>
</g>
<!-- at_events_flutter&#45;&gt;at_client -->
<g id="edge47" class="edge">
<title>at_events_flutter-&gt;at_client</title>
<path fill="none" stroke="#61d4fc" d="M1646.32,-3155.52C1773.99,-3100.29 2177.29,-2916.24 2454,-2682.57 2717.35,-2460.2 2793.39,-2393.12 2949,-2085.57 3087.12,-1812.61 3146.69,-1715.6 3098,-1413.57 3062.94,-1196.08 2957.3,-949.26 2921.23,-869.16"/>
<polygon fill="#61d4fc" stroke="#61d4fc" points="2924.31,-867.48 2916.99,-859.82 2917.93,-870.37 2924.31,-867.48"/>
</g>
<!-- at_events_flutter&#45;&gt;at_client_mobile -->
<g id="edge43" class="edge">
<title>at_events_flutter-&gt;at_client_mobile</title>
<path fill="none" stroke="#d9577c" d="M1643.75,-3155.51C1825.06,-3071.25 2609.93,-2679.59 2909,-2085.57 3017.68,-1869.71 2969.62,-1560.29 2951.68,-1467.73"/>
<polygon fill="#d9577c" stroke="#d9577c" points="2955.09,-1466.9 2949.71,-1457.77 2948.22,-1468.26 2955.09,-1466.9"/>
</g>
<!-- at_events_flutter&#45;&gt;at_common_flutter -->
<g id="edge51" class="edge">
<title>at_events_flutter-&gt;at_common_flutter</title>
<path fill="none" stroke="#bf681f" d="M1591.59,-3155.55C1511.07,-3059.02 1116.52,-2567.83 1008,-2085.57 951.98,-1836.64 1151.56,-1551.74 1217.53,-1466.16"/>
<polygon fill="#bf681f" stroke="#bf681f" points="1220.46,-1468.1 1223.84,-1458.06 1214.94,-1463.8 1220.46,-1468.1"/>
</g>
<!-- at_events_flutter&#45;&gt;at_commons -->
<g id="edge42" class="edge">
<title>at_events_flutter-&gt;at_commons</title>
<path fill="none" stroke="#7eceb0" d="M1552.23,-3168.22C1362.94,-3149.81 722.87,-3060.77 426,-2682.57 246.88,-2454.39 326,-2327.67 326,-2037.57 326,-2037.57 326,-2037.57 326,-1438.57 326,-1160.32 245.61,-1054.64 388,-815.57 577.55,-497.32 1022.09,-317.62 1175.69,-263.34"/>
<polygon fill="#7eceb0" stroke="#7eceb0" points="1177.1,-266.55 1185.38,-259.94 1174.78,-259.94 1177.1,-266.55"/>
</g>
<!-- at_events_flutter&#45;&gt;at_contact -->
<g id="edge44" class="edge">
<title>at_events_flutter-&gt;at_contact</title>
<path fill="none" stroke="#250aa2" d="M1584.54,-3155.32C1451.74,-3046.5 756.85,-2445.71 1042,-2010.57 1360.56,-1524.45 1766,-1823.49 2241,-1488.57 2250.2,-1482.09 2258.98,-1473.49 2266.3,-1465.36"/>
<polygon fill="#250aa2" stroke="#250aa2" points="2268.95,-1467.65 2272.85,-1457.79 2263.66,-1463.07 2268.95,-1467.65"/>
</g>
<!-- at_events_flutter&#45;&gt;at_contacts_flutter -->
<g id="edge49" class="edge">
<title>at_events_flutter-&gt;at_contacts_flutter</title>
<path fill="none" stroke="#1267b5" d="M1602.49,-3155.2C1576.56,-3026.65 1414.58,-2223.84 1382.51,-2064.9"/>
<polygon fill="#1267b5" stroke="#1267b5" points="1385.92,-2064.09 1380.51,-2054.98 1379.06,-2065.47 1385.92,-2064.09"/>
</g>
<!-- at_events_flutter&#45;&gt;at_contacts_group_flutter -->
<g id="edge48" class="edge">
<title>at_events_flutter-&gt;at_contacts_group_flutter</title>
<path fill="none" stroke="#dae1d2" d="M1598.64,-3155.28C1565.36,-3077.11 1428.85,-2756.38 1388.37,-2661.28"/>
<polygon fill="#dae1d2" stroke="#dae1d2" points="1391.47,-2659.63 1384.33,-2651.8 1385.03,-2662.37 1391.47,-2659.63"/>
</g>
<!-- at_location_flutter -->
<g id="node21" class="node">
<title>at_location_flutter</title>
<polygon fill="none" stroke="#283e9c" points="1954,-2651.57 1838,-2651.57 1838,-2615.57 1954,-2615.57 1954,-2651.57"/>
<text text-anchor="middle" x="1896" y="-2629.87" font-family="Times,serif" font-size="14.00">at_location_flutter</text>
</g>
<!-- at_events_flutter&#45;&gt;at_location_flutter -->
<g id="edge50" class="edge">
<title>at_events_flutter-&gt;at_location_flutter</title>
<path fill="none" stroke="#283e9c" d="M1615.32,-3155.28C1657.55,-3076.95 1831.04,-2755.08 1881.92,-2660.7"/>
<polygon fill="#283e9c" stroke="#283e9c" points="1885.05,-2662.26 1886.71,-2651.8 1878.89,-2658.94 1885.05,-2662.26"/>
</g>
<!-- at_events_flutter&#45;&gt;at_lookup -->
<g id="edge45" class="edge">
<title>at_events_flutter-&gt;at_lookup</title>
<path fill="none" stroke="#94d42d" d="M1650.97,-3155.45C1789.3,-3101.34 2216.75,-2923.23 2508,-2682.57 3037.23,-2245.27 3243.78,-2130.19 3488,-1488.57 3594.47,-1208.85 3667.13,-1071.54 3512,-815.57 3268.7,-414.13 2639.8,-282.05 2465.42,-252.55"/>
<polygon fill="#94d42d" stroke="#94d42d" points="2465.99,-249.09 2455.55,-250.91 2464.84,-256 2465.99,-249.09"/>
</g>
<!-- at_events_flutter&#45;&gt;at_utils -->
<g id="edge46" class="edge">
<title>at_events_flutter-&gt;at_utils</title>
<path fill="none" stroke="#75e849" d="M1624.6,-3155.26C1686.46,-3096.32 1885.77,-2895.28 1963,-2682.57 2065.11,-2401.34 2073.2,-2301.42 2003,-2010.57 1933.05,-1720.74 1862.85,-1661.35 1697,-1413.57 1527.07,-1159.71 1444.95,-1126.59 1251,-890.57 1244.99,-883.26 1238.55,-875.22 1232.72,-867.84"/>
<polygon fill="#75e849" stroke="#75e849" points="1235.15,-865.27 1226.22,-859.58 1229.65,-869.6 1235.15,-865.27"/>
</g>
<!-- at_follows_flutter -->
<g id="node18" class="node">
<title>at_follows_flutter</title>
<polygon fill="none" stroke="#13b24b" points="1953.5,-3191.57 1840.5,-3191.57 1840.5,-3155.57 1953.5,-3155.57 1953.5,-3191.57"/>
<text text-anchor="middle" x="1897" y="-3169.87" font-family="Times,serif" font-size="14.00">at_follows_flutter</text>
</g>
<!-- at_follows_flutter&#45;&gt;at_client -->
<g id="edge54" class="edge">
<title>at_follows_flutter-&gt;at_client</title>
<path fill="none" stroke="#61d4fc" d="M1953.79,-3171.95C2164.08,-3166.21 2902.33,-3114.92 3213,-2682.57 3250.47,-2630.43 3234.96,-1424.84 3232,-1413.57 3170.86,-1181.32 2991.28,-944.26 2929.87,-867.9"/>
<polygon fill="#61d4fc" stroke="#61d4fc" points="2932.32,-865.36 2923.31,-859.79 2926.88,-869.77 2932.32,-865.36"/>
</g>
<!-- at_follows_flutter&#45;&gt;at_client_mobile -->
<g id="edge55" class="edge">
<title>at_follows_flutter-&gt;at_client_mobile</title>
<path fill="none" stroke="#d9577c" d="M1953.81,-3171.94C2163.22,-3166.17 2895.3,-3114.73 3194,-2682.57 3205.86,-2665.41 3237.44,-2395.9 3156,-2010.57 3109.99,-1792.89 2997.19,-1546.87 2958.93,-1467.07"/>
<polygon fill="#d9577c" stroke="#d9577c" points="2961.94,-1465.24 2954.44,-1457.75 2955.63,-1468.28 2961.94,-1465.24"/>
</g>
<!-- at_follows_flutter&#45;&gt;at_commons -->
<g id="edge53" class="edge">
<title>at_follows_flutter-&gt;at_commons</title>
<path fill="none" stroke="#7eceb0" d="M1843.35,-3155.57C1610.4,-3081.3 694.41,-2784.5 608,-2682.57 418.89,-2459.52 478,-2330.01 478,-2037.57 478,-2037.57 478,-2037.57 478,-1438.57 478,-1150.24 512.22,-1063.76 659,-815.57 809.41,-561.25 1099.42,-338.73 1196.46,-268.53"/>
<polygon fill="#7eceb0" stroke="#7eceb0" points="1198.64,-271.28 1204.72,-262.6 1194.55,-265.59 1198.64,-271.28"/>
</g>
<!-- at_follows_flutter&#45;&gt;at_lookup -->
<g id="edge57" class="edge">
<title>at_follows_flutter-&gt;at_lookup</title>
<path fill="none" stroke="#94d42d" d="M1953.53,-3164.85C2254.61,-3120.24 3656,-2868.03 3656,-2037.57 3656,-2037.57 3656,-2037.57 3656,-1438.57 3656,-1160.32 3753.18,-1043.81 3594,-815.57 3308.57,-406.31 2645.42,-279.37 2465.65,-251.88"/>
<polygon fill="#94d42d" stroke="#94d42d" points="2466.14,-248.41 2455.73,-250.39 2465.1,-255.34 2466.14,-248.41"/>
</g>
<!-- at_server_status -->
<g id="node34" class="node">
<title>at_server_status</title>
<polygon fill="none" stroke="#320113" points="2453,-859.57 2349,-859.57 2349,-823.57 2453,-823.57 2453,-859.57"/>
<text text-anchor="middle" x="2401" y="-837.87" font-family="Times,serif" font-size="14.00">at_server_status</text>
</g>
<!-- at_follows_flutter&#45;&gt;at_server_status -->
<g id="edge56" class="edge">
<title>at_follows_flutter-&gt;at_server_status</title>
<path fill="none" stroke="#320113" d="M1953.62,-3159.64C2110.93,-3120.29 2553.05,-2985.7 2726,-2682.57 3005.5,-2192.7 2870.3,-1958.8 2726,-1413.57 2664.46,-1181.05 2483.79,-944.16 2422,-867.87"/>
<polygon fill="#320113" stroke="#320113" points="2424.43,-865.32 2415.4,-859.78 2419.01,-869.74 2424.43,-865.32"/>
</g>
<!-- at_follows_flutter&#45;&gt;at_utils -->
<g id="edge52" class="edge">
<title>at_follows_flutter-&gt;at_utils</title>
<path fill="none" stroke="#75e849" d="M1903.6,-3155.32C1943.46,-3048.83 2146.84,-2470.49 2046,-2010.57 1983.44,-1725.22 1937.66,-1653.5 1771,-1413.57 1584,-1144.36 1468.63,-1135.69 1251,-890.57 1244.71,-883.49 1238.19,-875.52 1232.37,-868.14"/>
<polygon fill="#75e849" stroke="#75e849" points="1234.81,-865.58 1225.91,-859.84 1229.29,-869.88 1234.81,-865.58"/>
</g>
<!-- at_hive_recovery -->
<g id="node19" class="node">
<title>at_hive_recovery</title>
<polygon fill="none" stroke="#f0efbc" points="1602,-859.57 1492,-859.57 1492,-823.57 1602,-823.57 1602,-859.57"/>
<text text-anchor="middle" x="1547" y="-837.87" font-family="Times,serif" font-size="14.00">at_hive_recovery</text>
</g>
<!-- at_hive_recovery&#45;&gt;at_persistence_secondary_server -->
<g id="edge58" class="edge">
<title>at_hive_recovery-&gt;at_persistence_secondary_server</title>
<path fill="none" stroke="#9760d3" d="M1544.59,-859.87C1538.51,-914.89 1529.02,-1079.44 1621,-1152.07 1903.53,-1375.18 2939.14,-1348.24 3241,-1152.07 3340.13,-1087.65 3368.62,-933.81 3376.33,-870.03"/>
<polygon fill="#9760d3" stroke="#9760d3" points="3379.83,-870.23 3377.46,-859.9 3372.87,-869.45 3379.83,-870.23"/>
</g>
<!-- at_invitation_flutter -->
<g id="node20" class="node">
<title>at_invitation_flutter</title>
<polygon fill="none" stroke="#b653c9" points="1300.5,-2054.57 1175.5,-2054.57 1175.5,-2018.57 1300.5,-2018.57 1300.5,-2054.57"/>
<text text-anchor="middle" x="1238" y="-2032.87" font-family="Times,serif" font-size="14.00">at_invitation_flutter</text>
</g>
<!-- at_invitation_flutter&#45;&gt;at_client_mobile -->
<g id="edge59" class="edge">
<title>at_invitation_flutter-&gt;at_client_mobile</title>
<path fill="none" stroke="#d9577c" d="M1286.82,-2018.57C1531.33,-1933.39 2621.58,-1553.59 2887.41,-1460.98"/>
<polygon fill="#d9577c" stroke="#d9577c" points="2888.59,-1464.28 2896.88,-1457.68 2886.29,-1457.67 2888.59,-1464.28"/>
</g>
<!-- at_invitation_flutter&#45;&gt;at_common_flutter -->
<g id="edge60" class="edge">
<title>at_invitation_flutter-&gt;at_common_flutter</title>
<path fill="none" stroke="#bf681f" d="M1238,-2018.41C1238,-1934.94 1238,-1571.35 1238,-1468.04"/>
<polygon fill="#bf681f" stroke="#bf681f" points="1241.5,-1467.81 1238,-1457.81 1234.5,-1467.81 1241.5,-1467.81"/>
</g>
<!-- at_invitation_flutter&#45;&gt;at_commons -->
<g id="edge61" class="edge">
<title>at_invitation_flutter-&gt;at_commons</title>
<path fill="none" stroke="#7eceb0" d="M1230.02,-2018.14C1199.96,-1951.35 1093.46,-1704.67 1059,-1488.57 1011.9,-1193.19 1015.8,-1111.55 1059,-815.57 1090.46,-599.99 1185.53,-352.61 1217.99,-272.26"/>
<polygon fill="#7eceb0" stroke="#7eceb0" points="1221.28,-273.47 1221.81,-262.88 1214.8,-270.83 1221.28,-273.47"/>
</g>
<!-- at_invitation_flutter&#45;&gt;at_lookup -->
<g id="edge62" class="edge">
<title>at_invitation_flutter-&gt;at_lookup</title>
<path fill="none" stroke="#94d42d" d="M1283.76,-2018.56C1497.89,-1938.52 2393.49,-1598.74 2465,-1488.57 2600.76,-1279.42 2454.95,-436.04 2425.11,-272.96"/>
<polygon fill="#94d42d" stroke="#94d42d" points="2428.49,-272.01 2423.24,-262.81 2421.61,-273.28 2428.49,-272.01"/>
</g>
<!-- at_invitation_flutter&#45;&gt;at_utils -->
<g id="edge63" class="edge">
<title>at_invitation_flutter-&gt;at_utils</title>
<path fill="none" stroke="#75e849" d="M1242.48,-2018.27C1259.66,-1950.94 1321.29,-1699.77 1341,-1488.57 1363.74,-1244.93 1258.99,-957.15 1224.03,-869.33"/>
<polygon fill="#75e849" stroke="#75e849" points="1227.2,-867.82 1220.22,-859.85 1220.7,-870.44 1227.2,-867.82"/>
</g>
<!-- at_location_flutter&#45;&gt;at_client -->
<g id="edge69" class="edge">
<title>at_location_flutter-&gt;at_client</title>
<path fill="none" stroke="#61d4fc" d="M1954.09,-2618.36C2127.3,-2572.89 2644.54,-2414.4 2909,-2085.57 3102.14,-1845.42 3124.68,-1718.5 3080,-1413.57 3048.35,-1197.56 2952.73,-949.78 2920.07,-869.3"/>
<polygon fill="#61d4fc" stroke="#61d4fc" points="2923.26,-867.85 2916.24,-859.91 2916.78,-870.49 2923.26,-867.85"/>
</g>
<!-- at_location_flutter&#45;&gt;at_client_mobile -->
<g id="edge64" class="edge">
<title>at_location_flutter-&gt;at_client_mobile</title>
<path fill="none" stroke="#d9577c" d="M1954.16,-2619.99C2128.95,-2578.8 2651.51,-2430.35 2879,-2085.57 3013.18,-1882.22 2968.38,-1561.75 2951.32,-1467.49"/>
<polygon fill="#d9577c" stroke="#d9577c" points="2954.75,-1466.81 2949.48,-1457.62 2947.87,-1468.09 2954.75,-1466.81"/>
</g>
<!-- at_location_flutter&#45;&gt;at_common_flutter -->
<g id="edge70" class="edge">
<title>at_location_flutter-&gt;at_common_flutter</title>
<path fill="none" stroke="#bf681f" d="M1860.28,-2615.51C1710.43,-2543.11 1135.9,-2257.23 1042,-2085.57 979.91,-1972.07 1171.27,-1573.51 1224.6,-1466.94"/>
<polygon fill="#bf681f" stroke="#bf681f" points="1227.82,-1468.34 1229.18,-1457.83 1221.56,-1465.2 1227.82,-1468.34"/>
</g>
<!-- at_location_flutter&#45;&gt;at_commons -->
<g id="edge66" class="edge">
<title>at_location_flutter-&gt;at_commons</title>
<path fill="none" stroke="#7eceb0" d="M1859.35,-2615.48C1706.29,-2543.24 1121.53,-2258.81 1025,-2085.57 660.73,-1431.84 1127.88,-445.09 1215.36,-271.96"/>
<polygon fill="#7eceb0" stroke="#7eceb0" points="1218.49,-273.52 1219.9,-263.02 1212.25,-270.35 1218.49,-273.52"/>
</g>
<!-- at_location_flutter&#45;&gt;at_contact -->
<g id="edge67" class="edge">
<title>at_location_flutter-&gt;at_contact</title>
<path fill="none" stroke="#250aa2" d="M1905.74,-2615.21C1942.68,-2548.69 2075.7,-2302.84 2148,-2085.57 2225.49,-1852.71 2269.95,-1557.7 2282.38,-1467.79"/>
<polygon fill="#250aa2" stroke="#250aa2" points="2285.88,-1468.01 2283.77,-1457.63 2278.94,-1467.07 2285.88,-1468.01"/>
</g>
<!-- at_location_flutter&#45;&gt;at_contacts_flutter -->
<g id="edge71" class="edge">
<title>at_location_flutter-&gt;at_contacts_flutter</title>
<path fill="none" stroke="#1267b5" d="M1881.03,-2615.41C1807.63,-2531.27 1485.92,-2162.44 1398.81,-2062.58"/>
<polygon fill="#1267b5" stroke="#1267b5" points="1401.24,-2060.04 1392.03,-2054.81 1395.97,-2064.65 1401.24,-2060.04"/>
</g>
<!-- at_location_flutter&#45;&gt;at_lookup -->
<g id="edge65" class="edge">
<title>at_location_flutter-&gt;at_lookup</title>
<path fill="none" stroke="#94d42d" d="M1954.02,-2620.18C2132.57,-2578.9 2678.11,-2428.8 2949,-2085.57 3118.42,-1870.91 3064.64,-1760 3098,-1488.57 3127.18,-1251.15 3127.65,-1041.24 3012,-815.57 2875.13,-548.51 2563.53,-335.51 2456.72,-268.02"/>
<polygon fill="#94d42d" stroke="#94d42d" points="2458.54,-265.03 2448.21,-262.67 2454.82,-270.96 2458.54,-265.03"/>
</g>
<!-- at_location_flutter&#45;&gt;at_utils -->
<g id="edge68" class="edge">
<title>at_location_flutter-&gt;at_utils</title>
<path fill="none" stroke="#75e849" d="M1903.14,-2615.49C1932.86,-2541.99 2042.54,-2245.76 1983,-2010.57 1908.96,-1718.12 1825.34,-1665.91 1660,-1413.57 1640.79,-1384.26 1316.68,-973.77 1232.73,-867.53"/>
<polygon fill="#75e849" stroke="#75e849" points="1235.39,-865.26 1226.45,-859.58 1229.9,-869.6 1235.39,-865.26"/>
</g>
<!-- at_login_flutter -->
<g id="node22" class="node">
<title>at_login_flutter</title>
<polygon fill="none" stroke="#7ceee7" points="1822.5,-3191.57 1721.5,-3191.57 1721.5,-3155.57 1822.5,-3155.57 1822.5,-3191.57"/>
<text text-anchor="middle" x="1772" y="-3169.87" font-family="Times,serif" font-size="14.00">at_login_flutter</text>
</g>
<!-- at_login_flutter&#45;&gt;at_client -->
<g id="edge72" class="edge">
<title>at_login_flutter-&gt;at_client</title>
<path fill="none" stroke="#61d4fc" d="M1822.56,-3156.18C2047.21,-3082.91 2947.49,-2784.56 3030,-2682.57 3208.24,-2462.26 3213.45,-1691.08 3156,-1413.57 3109.82,-1190.49 2972.06,-947.39 2924.98,-868.7"/>
<polygon fill="#61d4fc" stroke="#61d4fc" points="2927.86,-866.69 2919.7,-859.93 2921.86,-870.3 2927.86,-866.69"/>
</g>
<!-- at_login_flutter&#45;&gt;at_client_mobile -->
<g id="edge73" class="edge">
<title>at_login_flutter-&gt;at_client_mobile</title>
<path fill="none" stroke="#d9577c" d="M1822.79,-3156.01C2045.29,-3082.98 2926.18,-2788.62 2998,-2682.57 3273.97,-2275.08 3017.01,-1608.03 2957.6,-1467.2"/>
<polygon fill="#d9577c" stroke="#d9577c" points="2960.66,-1465.45 2953.52,-1457.62 2954.22,-1468.2 2960.66,-1465.45"/>
</g>
<!-- at_login_flutter&#45;&gt;at_commons -->
<g id="edge74" class="edge">
<title>at_login_flutter-&gt;at_commons</title>
<path fill="none" stroke="#7eceb0" d="M1721.2,-3161.57C1499.19,-3112.37 618.3,-2905.16 464,-2682.57 345.81,-2512.09 370.94,-1000.97 464,-815.57 618.89,-507 1028.78,-323.01 1175.68,-265.32"/>
<polygon fill="#7eceb0" stroke="#7eceb0" points="1177.33,-268.43 1185.38,-261.54 1174.79,-261.91 1177.33,-268.43"/>
</g>
<!-- at_login_flutter&#45;&gt;at_server_status -->
<g id="edge75" class="edge">
<title>at_login_flutter-&gt;at_server_status</title>
<path fill="none" stroke="#320113" d="M1793.01,-3155.47C1905.74,-3062.24 2440.97,-2600.61 2637,-2085.57 2743.37,-1806.11 2735.3,-1705.38 2670,-1413.57 2619.53,-1188.02 2469.61,-946.52 2418.39,-868.47"/>
<polygon fill="#320113" stroke="#320113" points="2421.08,-866.19 2412.64,-859.77 2415.23,-870.05 2421.08,-866.19"/>
</g>
<!-- at_login_flutter&#45;&gt;at_utils -->
<g id="edge76" class="edge">
<title>at_login_flutter-&gt;at_utils</title>
<path fill="none" stroke="#75e849" d="M1782.5,-3155.16C1819.11,-3093.43 1941.4,-2878.3 1989,-2682.57 2059.68,-2391.95 2092.25,-2302.01 2025,-2010.57 1958.63,-1722.96 1900.57,-1657.26 1734,-1413.57 1555.45,-1152.36 1456.68,-1131.01 1251,-890.57 1244.84,-883.38 1238.37,-875.37 1232.54,-868"/>
<polygon fill="#75e849" stroke="#75e849" points="1234.98,-865.43 1226.06,-859.71 1229.46,-869.74 1234.98,-865.43"/>
</g>
<!-- at_lookup&#45;&gt;at_commons -->
<g id="edge78" class="edge">
<title>at_lookup-&gt;at_commons</title>
<path fill="none" stroke="#7eceb0" d="M2392.84,-262.7C2305.4,-319.83 2021.51,-495.79 1757,-554.57 1596.47,-590.25 1527.22,-640.49 1387,-554.57 1283.53,-491.18 1245.16,-336.4 1233.43,-272.68"/>
<polygon fill="#7eceb0" stroke="#7eceb0" points="1236.83,-271.82 1231.65,-262.58 1229.94,-273.03 1236.83,-271.82"/>
</g>
<!-- at_lookup&#45;&gt;at_utils -->
<g id="edge77" class="edge">
<title>at_lookup-&gt;at_utils</title>
<path fill="none" stroke="#75e849" d="M2384.25,-260.99C2239.5,-323.8 1684.1,-568.87 1251,-815.57 1249.54,-816.41 1248.06,-817.27 1246.57,-818.17"/>
<polygon fill="#75e849" stroke="#75e849" points="1244.72,-815.19 1238.06,-823.44 1248.41,-821.14 1244.72,-815.19"/>
</g>
<!-- at_notify_flutter -->
<g id="node24" class="node">
<title>at_notify_flutter</title>
<polygon fill="none" stroke="#19e4c3" points="1558.5,-2054.57 1453.5,-2054.57 1453.5,-2018.57 1558.5,-2018.57 1558.5,-2054.57"/>
<text text-anchor="middle" x="1506" y="-2032.87" font-family="Times,serif" font-size="14.00">at_notify_flutter</text>
</g>
<!-- at_notify_flutter&#45;&gt;at_client -->
<g id="edge80" class="edge">
<title>at_notify_flutter-&gt;at_client</title>
<path fill="none" stroke="#61d4fc" d="M1547.38,-2018.49C1723.66,-1945.09 2410.39,-1652.9 2574,-1488.57 2600.37,-1462.09 2594.93,-1446.82 2612,-1413.57 2720.13,-1202.95 2852.73,-949.82 2895.22,-868.83"/>
<polygon fill="#61d4fc" stroke="#61d4fc" points="2898.39,-870.31 2899.94,-859.82 2892.2,-867.05 2898.39,-870.31"/>
</g>
<!-- at_notify_flutter&#45;&gt;at_client_mobile -->
<g id="edge79" class="edge">
<title>at_notify_flutter-&gt;at_client_mobile</title>
<path fill="none" stroke="#d9577c" d="M1547.16,-2018.57C1752.9,-1933.56 2668.86,-1555.09 2895.27,-1461.54"/>
<polygon fill="#d9577c" stroke="#d9577c" points="2896.68,-1464.74 2904.59,-1457.68 2894.01,-1458.27 2896.68,-1464.74"/>
</g>
<!-- at_notify_flutter&#45;&gt;at_common_flutter -->
<g id="edge82" class="edge">
<title>at_notify_flutter-&gt;at_common_flutter</title>
<path fill="none" stroke="#bf681f" d="M1498.27,-2018.41C1460.56,-1934.69 1295.91,-1569.13 1249.95,-1467.11"/>
<polygon fill="#bf681f" stroke="#bf681f" points="1253.06,-1465.49 1245.76,-1457.81 1246.68,-1468.36 1253.06,-1465.49"/>
</g>
<!-- at_notify_flutter&#45;&gt;at_commons -->
<g id="edge81" class="edge">
<title>at_notify_flutter-&gt;at_commons</title>
<path fill="none" stroke="#7eceb0" d="M1488.32,-2018.37C1424.84,-1955.18 1208.27,-1727.15 1135,-1488.57 1047.18,-1202.65 1110.58,-1113.69 1135,-815.57 1152.28,-604.63 1204.94,-354.14 1222.92,-272.64"/>
<polygon fill="#7eceb0" stroke="#7eceb0" points="1226.37,-273.22 1225.12,-262.7 1219.54,-271.71 1226.37,-273.22"/>
</g>
<!-- at_onboarding_cli -->
<g id="node25" class="node">
<title>at_onboarding_cli</title>
<polygon fill="none" stroke="#514d2d" points="2455.5,-1457.57 2340.5,-1457.57 2340.5,-1421.57 2455.5,-1421.57 2455.5,-1457.57"/>
<text text-anchor="middle" x="2398" y="-1435.87" font-family="Times,serif" font-size="14.00">at_onboarding_cli</text>
</g>
<!-- at_onboarding_cli&#45;&gt;at_client -->
<g id="edge84" class="edge">
<title>at_onboarding_cli-&gt;at_client</title>
<path fill="none" stroke="#61d4fc" d="M2412.74,-1421.38C2485,-1337.1 2801.76,-967.65 2887.52,-867.62"/>
<polygon fill="#61d4fc" stroke="#61d4fc" points="2890.35,-869.71 2894.2,-859.84 2885.03,-865.15 2890.35,-869.71"/>
</g>
<!-- at_onboarding_cli&#45;&gt;at_commons -->
<g id="edge86" class="edge">
<title>at_onboarding_cli-&gt;at_commons</title>
<path fill="none" stroke="#7eceb0" d="M2377.67,-1421.44C2302.81,-1357.57 2038.32,-1125.06 1872,-890.57 1850.38,-860.1 1856.38,-845.5 1834,-815.57 1650.91,-570.73 1356.52,-340.76 1260.43,-268.73"/>
<polygon fill="#7eceb0" stroke="#7eceb0" points="1262.39,-265.83 1252.28,-262.65 1258.2,-271.44 1262.39,-265.83"/>
</g>
<!-- at_onboarding_cli&#45;&gt;at_lookup -->
<g id="edge85" class="edge">
<title>at_onboarding_cli-&gt;at_lookup</title>
<path fill="none" stroke="#94d42d" d="M2395.47,-1421.12C2385.8,-1353.25 2351.07,-1100.28 2340,-890.57 2327.27,-649.38 2391.76,-360.6 2413.23,-272.43"/>
<polygon fill="#94d42d" stroke="#94d42d" points="2416.64,-273.23 2415.63,-262.69 2409.84,-271.56 2416.64,-273.23"/>
</g>
<!-- at_onboarding_cli&#45;&gt;at_server_status -->
<g id="edge87" class="edge">
<title>at_onboarding_cli-&gt;at_server_status</title>
<path fill="none" stroke="#320113" d="M2398.09,-1421.38C2398.51,-1337.78 2400.34,-973.56 2400.86,-870.09"/>
<polygon fill="#320113" stroke="#320113" points="2404.36,-869.86 2400.91,-859.84 2397.36,-869.82 2404.36,-869.86"/>
</g>
<!-- at_onboarding_cli&#45;&gt;at_utils -->
<g id="edge83" class="edge">
<title>at_onboarding_cli-&gt;at_utils</title>
<path fill="none" stroke="#75e849" d="M2355.94,-1421.51C2172.57,-1346.64 1443.57,-1044.21 1251,-890.57 1243.07,-884.25 1235.77,-875.96 1229.73,-868.06"/>
<polygon fill="#75e849" stroke="#75e849" points="1232.41,-865.79 1223.71,-859.75 1226.74,-869.9 1232.41,-865.79"/>
</g>
<!-- at_onboarding_flutter&#45;&gt;at_backupkey_flutter -->
<g id="edge88" class="edge">
<title>at_onboarding_flutter-&gt;at_backupkey_flutter</title>
<path fill="none" stroke="#590b92" d="M1756.89,-2615.41C1775.85,-2531.86 1858.5,-2167.61 1881.84,-2064.73"/>
<polygon fill="#590b92" stroke="#590b92" points="1885.29,-2065.34 1884.09,-2054.81 1878.46,-2063.79 1885.29,-2065.34"/>
</g>
<!-- at_onboarding_flutter&#45;&gt;at_client -->
<g id="edge89" class="edge">
<title>at_onboarding_flutter-&gt;at_client</title>
<path fill="none" stroke="#61d4fc" d="M1799.57,-2615.56C1990.88,-2544.82 2713.51,-2269.07 2866,-2085.57 2964.35,-1967.23 3049.42,-1566.57 3033,-1413.57 3010.16,-1200.73 2940.72,-950.79 2917.02,-869.54"/>
<polygon fill="#61d4fc" stroke="#61d4fc" points="2920.29,-868.25 2914.12,-859.64 2913.57,-870.22 2920.29,-868.25"/>
</g>
<!-- at_onboarding_flutter&#45;&gt;at_client_mobile -->
<g id="edge90" class="edge">
<title>at_onboarding_flutter-&gt;at_client_mobile</title>
<path fill="none" stroke="#d9577c" d="M1799.18,-2615.48C1987.17,-2545 2691.49,-2271.85 2830,-2085.57 2977.09,-1887.77 2958.3,-1562.81 2949.05,-1467.59"/>
<polygon fill="#d9577c" stroke="#d9577c" points="2952.53,-1467.21 2948.03,-1457.62 2945.56,-1467.92 2952.53,-1467.21"/>
</g>
<!-- at_onboarding_flutter&#45;&gt;at_commons -->
<g id="edge91" class="edge">
<title>at_onboarding_flutter-&gt;at_commons</title>
<path fill="none" stroke="#7eceb0" d="M1701.15,-2615.51C1551.08,-2563.25 1114.06,-2390.12 910,-2085.57 834.86,-1973.44 810.5,-1622.98 798,-1488.57 770.3,-1190.75 702.86,-1099.15 798,-815.57 881.17,-567.68 1119.53,-341.61 1201.17,-269.46"/>
<polygon fill="#7eceb0" stroke="#7eceb0" points="1203.81,-271.8 1209.02,-262.57 1199.19,-266.54 1203.81,-271.8"/>
</g>
<!-- at_onboarding_flutter&#45;&gt;at_server_status -->
<g id="edge92" class="edge">
<title>at_onboarding_flutter-&gt;at_server_status</title>
<path fill="none" stroke="#320113" d="M1788.76,-2615.52C1938.79,-2543.14 2513.98,-2257.35 2608,-2085.57 2847.27,-1648.45 2496.86,-1005.12 2416.71,-868.62"/>
<polygon fill="#320113" stroke="#320113" points="2419.52,-866.5 2411.42,-859.67 2413.5,-870.06 2419.52,-866.5"/>
</g>
<!-- at_sync_ui_flutter -->
<g id="node35" class="node">
<title>at_sync_ui_flutter</title>
<polygon fill="none" stroke="#27d02d" points="1691.5,-2054.57 1576.5,-2054.57 1576.5,-2018.57 1691.5,-2018.57 1691.5,-2054.57"/>
<text text-anchor="middle" x="1634" y="-2032.87" font-family="Times,serif" font-size="14.00">at_sync_ui_flutter</text>
</g>
<!-- at_onboarding_flutter&#45;&gt;at_sync_ui_flutter -->
<g id="edge94" class="edge">
<title>at_onboarding_flutter-&gt;at_sync_ui_flutter</title>
<path fill="none" stroke="#27d02d" d="M1749.57,-2615.41C1732.86,-2531.86 1660.01,-2167.61 1639.43,-2064.73"/>
<polygon fill="#27d02d" stroke="#27d02d" points="1642.84,-2063.93 1637.45,-2054.81 1635.98,-2065.3 1642.84,-2063.93"/>
</g>
<!-- at_onboarding_flutter&#45;&gt;at_utils -->
<g id="edge93" class="edge">
<title>at_onboarding_flutter-&gt;at_utils</title>
<path fill="none" stroke="#75e849" d="M1766.9,-2615.42C1824,-2542.82 2034.24,-2253.36 1963,-2010.57 1885,-1744.73 1342.06,-1014.17 1232.31,-868.16"/>
<polygon fill="#75e849" stroke="#75e849" points="1234.81,-865.66 1226,-859.77 1229.22,-869.87 1234.81,-865.66"/>
</g>
<!-- at_persistence_root_server -->
<g id="node27" class="node">
<title>at_persistence_root_server</title>
<polygon fill="none" stroke="#831d2e" points="781.5,-2054.57 620.5,-2054.57 620.5,-2018.57 781.5,-2018.57 781.5,-2054.57"/>
<text text-anchor="middle" x="701" y="-2032.87" font-family="Times,serif" font-size="14.00">at_persistence_root_server</text>
</g>
<!-- at_persistence_root_server&#45;&gt;at_commons -->
<g id="edge97" class="edge">
<title>at_persistence_root_server-&gt;at_commons</title>
<path fill="none" stroke="#7eceb0" d="M696.97,-2018.22C671.8,-1906.11 542.94,-1274.39 722,-815.57 823.43,-555.69 1101.2,-337.57 1196.44,-268.44"/>
<polygon fill="#7eceb0" stroke="#7eceb0" points="1198.49,-271.28 1204.56,-262.59 1194.4,-265.6 1198.49,-271.28"/>
</g>
<!-- at_persistence_root_server&#45;&gt;at_persistence_spec -->
<g id="edge95" class="edge">
<title>at_persistence_root_server-&gt;at_persistence_spec</title>
<path fill="none" stroke="#3bfcef" d="M781.56,-2025.59C1219.41,-1970.59 3300.28,-1699.3 3488,-1488.57 3816.45,-1119.87 3535.54,-417.56 3472.04,-272.28"/>
<polygon fill="#3bfcef" stroke="#3bfcef" points="3475.09,-270.53 3467.86,-262.79 3468.69,-273.35 3475.09,-270.53"/>
</g>
<!-- at_persistence_root_server&#45;&gt;at_utils -->
<g id="edge96" class="edge">
<title>at_persistence_root_server-&gt;at_utils</title>
<path fill="none" stroke="#75e849" d="M708.44,-2018.25C765.41,-1885.5 1132.42,-1030.34 1201.72,-868.86"/>
<polygon fill="#75e849" stroke="#75e849" points="1204.95,-870.21 1205.68,-859.64 1198.52,-867.45 1204.95,-870.21"/>
</g>
<!-- redis -->
<g id="node42" class="node">
<title>redis</title>
<polygon fill="none" stroke="#5cceca" points="2062,-1457.57 2008,-1457.57 2008,-1421.57 2062,-1421.57 2062,-1457.57"/>
<text text-anchor="middle" x="2035" y="-1435.87" font-family="Times,serif" font-size="14.00">redis</text>
</g>
<!-- at_persistence_root_server&#45;&gt;redis -->
<g id="edge98" class="edge">
<title>at_persistence_root_server-&gt;redis</title>
<path fill="none" stroke="#5cceca" d="M749.73,-2018.52C921.58,-1957.55 1513.39,-1740.54 1966,-1488.57 1979.13,-1481.26 1992.87,-1472.07 2004.59,-1463.68"/>
<polygon fill="#5cceca" stroke="#5cceca" points="2006.71,-1466.47 2012.74,-1457.76 2002.59,-1460.81 2006.71,-1466.47"/>
</g>
<!-- at_persistence_secondary_server&#45;&gt;at_commons -->
<g id="edge101" class="edge">
<title>at_persistence_secondary_server-&gt;at_commons</title>
<path fill="none" stroke="#7eceb0" d="M3312.19,-823.47C3058.79,-758.36 2133.08,-518.28 1378,-293.57 1346.08,-284.07 1310.57,-272.67 1282.23,-263.36"/>
<polygon fill="#7eceb0" stroke="#7eceb0" points="1283.12,-259.97 1272.52,-260.16 1280.93,-266.62 1283.12,-259.97"/>
</g>
<!-- at_persistence_secondary_server&#45;&gt;at_persistence_spec -->
<g id="edge99" class="edge">
<title>at_persistence_secondary_server-&gt;at_persistence_spec</title>
<path fill="none" stroke="#3bfcef" d="M3381.34,-823.41C3392.71,-739.86 3442.3,-375.61 3456.3,-272.73"/>
<polygon fill="#3bfcef" stroke="#3bfcef" points="3459.77,-273.19 3457.65,-262.81 3452.84,-272.25 3459.77,-273.19"/>
</g>
<!-- at_persistence_secondary_server&#45;&gt;at_utils -->
<g id="edge100" class="edge">
<title>at_persistence_secondary_server-&gt;at_utils</title>
<path fill="none" stroke="#75e849" d="M3377.46,-859.9C3371.69,-915.71 3345.86,-1083.93 3241,-1152.07 2871.88,-1391.96 1593.77,-1439.12 1260,-1152.07 1177.36,-1081 1195.13,-931.55 1206.88,-869.5"/>
<polygon fill="#75e849" stroke="#75e849" points="1210.33,-870.13 1208.84,-859.64 1203.46,-868.77 1210.33,-870.13"/>
</g>
<!-- at_root_server -->
<g id="node31" class="node">
<title>at_root_server</title>
<polygon fill="none" stroke="#9dd431" points="715.5,-2651.57 620.5,-2651.57 620.5,-2615.57 715.5,-2615.57 715.5,-2651.57"/>
<text text-anchor="middle" x="668" y="-2629.87" font-family="Times,serif" font-size="14.00">at_root_server</text>
</g>
<!-- at_root_server&#45;&gt;at_commons -->
<g id="edge105" class="edge">
<title>at_root_server-&gt;at_commons</title>
<path fill="none" stroke="#7eceb0" d="M663.34,-2615.28C645.5,-2548 581.48,-2296.98 561,-2085.57 506.27,-1520.69 456.23,-1330.9 694,-815.57 813.77,-555.99 1098.66,-337.68 1195.85,-268.47"/>
<polygon fill="#7eceb0" stroke="#7eceb0" points="1197.98,-271.24 1204.12,-262.61 1193.94,-265.53 1197.98,-271.24"/>
</g>
<!-- at_root_server&#45;&gt;at_persistence_root_server -->
<g id="edge103" class="edge">
<title>at_root_server-&gt;at_persistence_root_server</title>
<path fill="none" stroke="#831d2e" d="M668.95,-2615.41C673.58,-2531.94 693.75,-2168.35 699.48,-2065.04"/>
<polygon fill="#831d2e" stroke="#831d2e" points="702.98,-2064.99 700.04,-2054.81 696,-2064.6 702.98,-2064.99"/>
</g>
<!-- at_server_spec -->
<g id="node33" class="node">
<title>at_server_spec</title>
<polygon fill="none" stroke="#e6f023" points="1983.5,-859.57 1886.5,-859.57 1886.5,-823.57 1983.5,-823.57 1983.5,-859.57"/>
<text text-anchor="middle" x="1935" y="-837.87" font-family="Times,serif" font-size="14.00">at_server_spec</text>
</g>
<!-- at_root_server&#45;&gt;at_server_spec -->
<g id="edge102" class="edge">
<title>at_root_server-&gt;at_server_spec</title>
<path fill="none" stroke="#e6f023" d="M662.01,-2615.34C637.16,-2541.2 546.5,-2242.75 612,-2010.57 696.51,-1711.04 756.61,-1632.32 978,-1413.57 1267.32,-1127.71 1726.82,-926.29 1881.9,-863.4"/>
<polygon fill="#e6f023" stroke="#e6f023" points="1883.27,-866.62 1891.23,-859.63 1880.65,-860.13 1883.27,-866.62"/>
</g>
<!-- at_root_server&#45;&gt;at_utils -->
<g id="edge104" class="edge">
<title>at_root_server-&gt;at_utils</title>
<path fill="none" stroke="#75e849" d="M660.71,-2615.5C630.33,-2542.01 518.18,-2245.86 578,-2010.57 705.9,-1507.56 1099.07,-987.02 1192.79,-867.87"/>
<polygon fill="#75e849" stroke="#75e849" points="1195.8,-869.7 1199.26,-859.68 1190.31,-865.36 1195.8,-869.7"/>
</g>
<!-- at_secondary -->
<g id="node32" class="node">
<title>at_secondary</title>
<polygon fill="none" stroke="#1b8948" points="3397,-1457.57 3309,-1457.57 3309,-1421.57 3397,-1421.57 3397,-1457.57"/>
<text text-anchor="middle" x="3353" y="-1435.87" font-family="Times,serif" font-size="14.00">at_secondary</text>
</g>
<!-- at_secondary&#45;&gt;at_commons -->
<g id="edge111" class="edge">
<title>at_secondary-&gt;at_commons</title>
<path fill="none" stroke="#7eceb0" d="M3348.7,-1421.42C3327.48,-1340.35 3226.27,-992.28 3012,-815.57 2423.82,-330.53 2103.94,-526.46 1378,-293.57 1346.29,-283.4 1310.79,-271.97 1282.4,-262.81"/>
<polygon fill="#7eceb0" stroke="#7eceb0" points="1283.27,-259.41 1272.67,-259.67 1281.12,-266.08 1283.27,-259.41"/>
</g>
<!-- at_secondary&#45;&gt;at_lookup -->
<g id="edge108" class="edge">
<title>at_secondary-&gt;at_lookup</title>
<path fill="none" stroke="#94d42d" d="M3364.81,-1421.51C3416.19,-1344.96 3612.12,-1027.79 3485,-815.57 3249.1,-421.76 2637.93,-284.67 2465.75,-253.2"/>
<polygon fill="#94d42d" stroke="#94d42d" points="2466.22,-249.73 2455.75,-251.41 2464.98,-256.62 2466.22,-249.73"/>
</g>
<!-- at_secondary&#45;&gt;at_persistence_secondary_server -->
<g id="edge107" class="edge">
<title>at_secondary-&gt;at_persistence_secondary_server</title>
<path fill="none" stroke="#9760d3" d="M3353.75,-1421.38C3357.4,-1337.78 3373.29,-973.56 3377.8,-870.09"/>
<polygon fill="#9760d3" stroke="#9760d3" points="3381.31,-869.98 3378.25,-859.84 3374.31,-869.68 3381.31,-869.98"/>
</g>
<!-- at_secondary&#45;&gt;at_persistence_spec -->
<g id="edge106" class="edge">
<title>at_secondary-&gt;at_persistence_spec</title>
<path fill="none" stroke="#3bfcef" d="M3360.17,-1421.49C3387.63,-1354.97 3486.22,-1106.34 3518,-890.57 3553.11,-652.22 3488.8,-360.96 3466.91,-272.38"/>
<polygon fill="#3bfcef" stroke="#3bfcef" points="3470.29,-271.45 3464.46,-262.6 3463.5,-273.15 3470.29,-271.45"/>
</g>
<!-- at_secondary&#45;&gt;at_server_spec -->
<g id="edge109" class="edge">
<title>at_secondary-&gt;at_server_spec</title>
<path fill="none" stroke="#e6f023" d="M3308.73,-1425.74C3134.2,-1374.12 2479.62,-1170.86 1996,-890.57 1984.04,-883.64 1971.87,-874.56 1961.58,-866.16"/>
<polygon fill="#e6f023" stroke="#e6f023" points="1963.69,-863.36 1953.77,-859.63 1959.19,-868.73 1963.69,-863.36"/>
</g>
<!-- at_secondary&#45;&gt;at_utils -->
<g id="edge110" class="edge">
<title>at_secondary-&gt;at_utils</title>
<path fill="none" stroke="#75e849" d="M3308.97,-1431.03C3039.89,-1384.36 1616.59,-1129.1 1251,-890.57 1242.15,-884.8 1234.44,-876.27 1228.32,-867.99"/>
<polygon fill="#75e849" stroke="#75e849" points="1231.09,-865.84 1222.54,-859.59 1225.32,-869.81 1231.09,-865.84"/>
</g>
<!-- at_server_spec&#45;&gt;at_commons -->
<g id="edge112" class="edge">
<title>at_server_spec-&gt;at_commons</title>
<path fill="none" stroke="#7eceb0" d="M1914.63,-823.41C1814.39,-738.93 1373.64,-367.47 1257.26,-269.39"/>
<polygon fill="#7eceb0" stroke="#7eceb0" points="1259.35,-266.58 1249.45,-262.81 1254.84,-271.93 1259.35,-266.58"/>
</g>
<!-- at_server_status&#45;&gt;at_commons -->
<g id="edge115" class="edge">
<title>at_server_status-&gt;at_commons</title>
<path fill="none" stroke="#7eceb0" d="M2367.5,-823.57C2200.47,-738.77 1458.25,-361.96 1271.67,-267.24"/>
<polygon fill="#7eceb0" stroke="#7eceb0" points="1273.2,-264.09 1262.7,-262.68 1270.04,-270.33 1273.2,-264.09"/>
</g>
<!-- at_server_status&#45;&gt;at_lookup -->
<g id="edge113" class="edge">
<title>at_server_status-&gt;at_lookup</title>
<path fill="none" stroke="#94d42d" d="M2401.55,-823.41C2404.21,-739.94 2415.82,-376.35 2419.12,-273.04"/>
<polygon fill="#94d42d" stroke="#94d42d" points="2422.63,-272.92 2419.45,-262.81 2415.63,-272.69 2422.63,-272.92"/>
</g>
<!-- at_server_status&#45;&gt;at_utils -->
<g id="edge114" class="edge">
<title>at_server_status-&gt;at_utils</title>
<path fill="none" stroke="#75e849" d="M2403.34,-859.88C2409.23,-914.92 2418.16,-1079.52 2326,-1152.07 1953.73,-1445.13 1619.21,-1461 1260,-1152.07 1177.36,-1081 1195.13,-931.55 1206.88,-869.5"/>
<polygon fill="#75e849" stroke="#75e849" points="1210.33,-870.13 1208.84,-859.64 1203.46,-868.77 1210.33,-870.13"/>
</g>
<!-- at_sync_ui_flutter&#45;&gt;at_client -->
<g id="edge116" class="edge">
<title>at_sync_ui_flutter-&gt;at_client</title>
<path fill="none" stroke="#61d4fc" d="M1671.5,-2018.47C1832.65,-1944.38 2464.88,-1647.81 2612,-1488.57 2793.48,-1292.15 2880.51,-965.52 2902.97,-869.75"/>
<polygon fill="#61d4fc" stroke="#61d4fc" points="2906.44,-870.26 2905.28,-859.72 2899.62,-868.68 2906.44,-870.26"/>
</g>
<!-- at_sync_ui_flutter&#45;&gt;at_common_flutter -->
<g id="edge117" class="edge">
<title>at_sync_ui_flutter-&gt;at_common_flutter</title>
<path fill="none" stroke="#bf681f" stroke-dasharray="5,2" d="M1622.58,-2018.41C1566.69,-1934.44 1322.09,-1566.92 1255.05,-1466.19"/>
<polygon fill="#bf681f" stroke="#bf681f" points="1257.93,-1464.2 1249.47,-1457.81 1252.1,-1468.07 1257.93,-1464.2"/>
</g>
<!-- at_theme_flutter -->
<g id="node36" class="node">
<title>at_theme_flutter</title>
<polygon fill="none" stroke="#2ec850" points="1157.5,-2054.57 1050.5,-2054.57 1050.5,-2018.57 1157.5,-2018.57 1157.5,-2054.57"/>
<text text-anchor="middle" x="1104" y="-2032.87" font-family="Times,serif" font-size="14.00">at_theme_flutter</text>
</g>
<!-- at_theme_flutter&#45;&gt;at_client_mobile -->
<g id="edge118" class="edge">
<title>at_theme_flutter-&gt;at_client_mobile</title>
<path fill="none" stroke="#d9577c" d="M1145.87,-2018.5C1152.89,-2015.77 1160.13,-2013.03 1167,-2010.57 1830.72,-1772.86 2649.97,-1527.86 2882.06,-1459.35"/>
<polygon fill="#d9577c" stroke="#d9577c" points="2883.1,-1462.69 2891.7,-1456.51 2881.12,-1455.98 2883.1,-1462.69"/>
</g>
<!-- at_theme_flutter&#45;&gt;at_common_flutter -->
<g id="edge119" class="edge">
<title>at_theme_flutter-&gt;at_common_flutter</title>
<path fill="none" stroke="#bf681f" d="M1107.87,-2018.41C1126.68,-1934.86 1208.71,-1570.61 1231.89,-1467.73"/>
<polygon fill="#bf681f" stroke="#bf681f" points="1235.34,-1468.33 1234.12,-1457.81 1228.51,-1466.8 1235.34,-1468.33"/>
</g>
<!-- at_theme_flutter&#45;&gt;at_commons -->
<g id="edge120" class="edge">
<title>at_theme_flutter-&gt;at_commons</title>
<path fill="none" stroke="#7eceb0" d="M1100.49,-2018.23C1078.86,-1908.66 967.12,-1301.51 1044,-815.57 1078.3,-598.77 1181.72,-352.18 1217.03,-272.15"/>
<polygon fill="#7eceb0" stroke="#7eceb0" points="1220.32,-273.37 1221.18,-262.81 1213.92,-270.53 1220.32,-273.37"/>
</g>
<!-- at_theme_flutter&#45;&gt;at_utils -->
<g id="edge121" class="edge">
<title>at_theme_flutter-&gt;at_utils</title>
<path fill="none" stroke="#75e849" d="M1113.08,-2018.29C1147.32,-1952.03 1268.59,-1707.01 1308,-1488.57 1351.17,-1249.27 1255.29,-957.44 1223.08,-869.13"/>
<polygon fill="#75e849" stroke="#75e849" points="1226.31,-867.78 1219.57,-859.61 1219.75,-870.2 1226.31,-867.78"/>
</g>
<!-- at_utils&#45;&gt;at_commons -->
<g id="edge122" class="edge">
<title>at_utils-&gt;at_commons</title>
<path fill="none" stroke="#7eceb0" d="M1213.46,-823.41C1215.71,-739.94 1225.48,-376.35 1228.26,-273.04"/>
<polygon fill="#7eceb0" stroke="#7eceb0" points="1231.77,-272.9 1228.54,-262.81 1224.77,-272.71 1231.77,-272.9"/>
</g>
<!-- at_ve_doctor -->
<g id="node38" class="node">
<title>at_ve_doctor</title>
<polygon fill="none" stroke="#193e4e" points="1346.5,-859.57 1259.5,-859.57 1259.5,-823.57 1346.5,-823.57 1346.5,-859.57"/>
<text text-anchor="middle" x="1303" y="-837.87" font-family="Times,serif" font-size="14.00">at_ve_doctor</text>
</g>
<!-- at_ve_doctor&#45;&gt;at_server_status -->
<g id="edge123" class="edge">
<title>at_ve_doctor-&gt;at_server_status</title>
<path fill="none" stroke="#320113" d="M1299.82,-859.78C1291.43,-914.51 1275.1,-1078.35 1365,-1152.07 1695.26,-1422.91 1990.4,-1416.26 2326,-1152.07 2413.12,-1083.49 2409.91,-932.65 2404.32,-869.86"/>
<polygon fill="#320113" stroke="#320113" points="2407.8,-869.49 2403.34,-859.88 2400.83,-870.18 2407.8,-869.49"/>
</g>
<!-- base2e15 -->
<g id="node39" class="node">
<title>base2e15</title>
<polygon fill="none" stroke="#2bcf07" points="2231.5,-1457.57 2164.5,-1457.57 2164.5,-1421.57 2231.5,-1421.57 2231.5,-1457.57"/>
<text text-anchor="middle" x="2198" y="-1435.87" font-family="Times,serif" font-size="14.00">base2e15</text>
</g>
<!-- dart_utf7 -->
<g id="node40" class="node">
<title>dart_utf7</title>
<polygon fill="none" stroke="#f889f9" points="2146,-1457.57 2080,-1457.57 2080,-1421.57 2146,-1421.57 2146,-1457.57"/>
<text text-anchor="middle" x="2113" y="-1435.87" font-family="Times,serif" font-size="14.00">dart_utf7</text>
</g>
<!-- functional_tests -->
<g id="node41" class="node">
<title>functional_tests</title>
<polygon fill="none" stroke="#24e3ec" points="2501,-2054.57 2399,-2054.57 2399,-2018.57 2501,-2018.57 2501,-2054.57"/>
<text text-anchor="middle" x="2450" y="-2032.87" font-family="Times,serif" font-size="14.00">functional_tests</text>
</g>
<!-- functional_tests&#45;&gt;at_client -->
<g id="edge125" class="edge">
<title>functional_tests-&gt;at_client</title>
<path fill="none" stroke="#61d4fc" d="M2480.06,-2018.48C2579.2,-1960.12 2895.95,-1757.36 3009,-1488.57 3103.99,-1262.73 2967.65,-958.39 2922.59,-868.56"/>
<polygon fill="#61d4fc" stroke="#61d4fc" points="2925.7,-866.93 2918.05,-859.6 2919.46,-870.1 2925.7,-866.93"/>
</g>
<!-- functional_tests&#45;&gt;at_commons -->
<g id="edge127" class="edge">
<title>functional_tests-&gt;at_commons</title>
<path fill="none" stroke="#7eceb0" d="M2431.69,-2018.49C2364.42,-1954.83 2128.05,-1722.98 1996,-1488.57 1957.16,-1419.63 1803.89,-883.32 1763,-815.57 1614.87,-570.15 1347.24,-341.37 1258.49,-269.1"/>
<polygon fill="#7eceb0" stroke="#7eceb0" points="1260.68,-266.37 1250.71,-262.79 1256.27,-271.81 1260.68,-266.37"/>
</g>
<!-- functional_tests&#45;&gt;at_lookup -->
<g id="edge126" class="edge">
<title>functional_tests-&gt;at_lookup</title>
<path fill="none" stroke="#94d42d" d="M2458.91,-2018.26C2492.47,-1951.91 2611.39,-1706.62 2650,-1488.57 2702.16,-1194.05 2707.01,-1109.2 2650,-815.57 2607.1,-594.62 2478.76,-350.82 2434.89,-271.81"/>
<polygon fill="#94d42d" stroke="#94d42d" points="2437.9,-270.03 2429.97,-263.01 2431.79,-273.45 2437.9,-270.03"/>
</g>
<!-- functional_tests&#45;&gt;at_onboarding_cli -->
<g id="edge124" class="edge">
<title>functional_tests-&gt;at_onboarding_cli</title>
<path fill="none" stroke="#514d2d" d="M2448.5,-2018.41C2441.21,-1934.94 2409.43,-1571.35 2400.4,-1468.04"/>
<polygon fill="#514d2d" stroke="#514d2d" points="2403.86,-1467.47 2399.51,-1457.81 2396.89,-1468.08 2403.86,-1467.47"/>
</g>
</g>
</svg>